<?xml version="1.0" encoding="UTF-8" standalone="no"?>
<!DOCTYPE svg PUBLIC "-//W3C//DTD SVG 1.1//EN"
 "http://www.w3.org/Graphics/SVG/1.1/DTD/svg11.dtd">
<!-- Generated by graphviz version 2.40.1 (20161225.0304)
 -->
<!-- Title: oneDegreeRelationshipsDiagram Pages: 1 -->
<svg width="569pt" height="250pt"
 viewBox="0.00 0.00 569.00 250.20" xmlns="http://www.w3.org/2000/svg" xmlns:xlink="http://www.w3.org/1999/xlink">
<g id="graph0" class="graph" transform="scale(1 1) rotate(0) translate(4 246.2)">
<title>oneDegreeRelationshipsDiagram</title>
<polygon fill="#ffffff" stroke="transparent" points="-4,4 -4,-246.2 565,-246.2 565,4 -4,4"/>
<text text-anchor="middle" x="72.4936" y="-7.3" font-family="Helvetica,sans-Serif" font-size="11.00" fill="#000000">Generated by SchemaSpy</text>
<!-- _bradley_headloss_singularity -->
<g id="node1" class="node">
<title>_bradley_headloss_singularity</title>
<g id="a_node1"><a xlink:href="../../tables/_bradley_headloss_singularity.html" xlink:title="_bradley_headloss_singularity" target="_top">
<polygon fill="#ffffff" stroke="transparent" points="170,-38.2 170,-238.2 553,-238.2 553,-38.2 170,-38.2"/>
<polygon fill="#f5f5f5" stroke="transparent" points="172.5,-213.2 172.5,-236.2 551.5,-236.2 551.5,-213.2 172.5,-213.2"/>
<polygon fill="none" stroke="#000000" points="172.5,-213.2 172.5,-236.2 551.5,-236.2 551.5,-213.2 172.5,-213.2"/>
<text text-anchor="start" x="177.5" y="-221.8" font-family="Helvetica,sans-Serif" font-weight="bold" font-size="11.00" fill="#000000">_bradley_headloss_singularity</text>
<text text-anchor="start" x="516.5437" y="-221.3" font-family="Helvetica,sans-Serif" font-size="11.00" fill="#000000">[table]</text>
<polygon fill="#ffffff" stroke="transparent" points="172.5,-191.2 172.5,-213.2 368.5,-213.2 368.5,-191.2 172.5,-191.2"/>
<polygon fill="none" stroke="#000000" points="172.5,-191.2 172.5,-213.2 368.5,-213.2 368.5,-191.2 172.5,-191.2"/>
<image xlink:href="../../images/foreignKeys.png" width="11px" height="12px" preserveAspectRatio="xMinYMin meet" x="177.5" y="-208.2"/>
<text text-anchor="start" x="192.5" y="-198.3" font-family="Helvetica,sans-Serif" font-size="11.00" fill="#000000">id</text>
<polygon fill="none" stroke="#000000" points="368.5,-191.2 368.5,-213.2 551.5,-213.2 551.5,-191.2 368.5,-191.2"/>
<text text-anchor="start" x="371.5" y="-198.9" font-family="Helvetica,sans-Serif" font-size="11.00" fill="#000000">int4[10]</text>
<polygon fill="none" stroke="#000000" points="172.5,-169.2 172.5,-191.2 368.5,-191.2 368.5,-169.2 172.5,-169.2"/>
<image xlink:href="../../images/foreignKeys.png" width="11px" height="12px" preserveAspectRatio="xMinYMin meet" x="177.5" y="-186.2"/>
<text text-anchor="start" x="192.5" y="-176.3" font-family="Helvetica,sans-Serif" font-size="11.00" fill="#000000">singularity_type</text>
<polygon fill="none" stroke="#000000" points="368.5,-169.2 368.5,-191.2 551.5,-191.2 551.5,-169.2 368.5,-169.2"/>
<text text-anchor="start" x="371.3565" y="-176.9" font-family="Helvetica,sans-Serif" font-size="11.00" fill="#000000">hydra_singularity_type[2147483647]</text>
<polygon fill="none" stroke="#000000" points="172.5,-147.2 172.5,-169.2 368.5,-169.2 368.5,-147.2 172.5,-147.2"/>
<text text-anchor="start" x="192.5" y="-154.3" font-family="Helvetica,sans-Serif" font-size="11.00" fill="#000000">d_abutment_l</text>
<polygon fill="none" stroke="#000000" points="368.5,-147.2 368.5,-169.2 551.5,-169.2 551.5,-147.2 368.5,-147.2"/>
<text text-anchor="start" x="371.5" y="-154.9" font-family="Helvetica,sans-Serif" font-size="11.00" fill="#000000">float4[8,8]</text>
<polygon fill="none" stroke="#000000" points="172.5,-125.2 172.5,-147.2 368.5,-147.2 368.5,-125.2 172.5,-125.2"/>
<text text-anchor="start" x="192.5" y="-132.3" font-family="Helvetica,sans-Serif" font-size="11.00" fill="#000000">d_abutment_r</text>
<polygon fill="none" stroke="#000000" points="368.5,-125.2 368.5,-147.2 551.5,-147.2 551.5,-125.2 368.5,-125.2"/>
<text text-anchor="start" x="371.5" y="-132.9" font-family="Helvetica,sans-Serif" font-size="11.00" fill="#000000">float4[8,8]</text>
<polygon fill="none" stroke="#000000" points="172.5,-103.2 172.5,-125.2 368.5,-125.2 368.5,-103.2 172.5,-103.2"/>
<text text-anchor="start" x="192.5" y="-110.3" font-family="Helvetica,sans-Serif" font-size="11.00" fill="#000000">abutment_type</text>
<polygon fill="none" stroke="#000000" points="368.5,-103.2 368.5,-125.2 551.5,-125.2 551.5,-103.2 368.5,-103.2"/>
<text text-anchor="start" x="371.5" y="-110.9" font-family="Helvetica,sans-Serif" font-size="11.00" fill="#000000">hydra_abutment_type[2147483647]</text>
<polygon fill="none" stroke="#000000" points="172.5,-81.2 172.5,-103.2 368.5,-103.2 368.5,-81.2 172.5,-81.2"/>
<text text-anchor="start" x="192.5" y="-88.3" font-family="Helvetica,sans-Serif" font-size="11.00" fill="#000000">zw_array</text>
<polygon fill="none" stroke="#000000" points="368.5,-81.2 368.5,-103.2 551.5,-103.2 551.5,-81.2 368.5,-81.2"/>
<text text-anchor="start" x="371.5" y="-88.9" font-family="Helvetica,sans-Serif" font-size="11.00" fill="#000000">_float4[8,8]</text>
<polygon fill="none" stroke="#000000" points="172.5,-59.2 172.5,-81.2 368.5,-81.2 368.5,-59.2 172.5,-59.2"/>
<text text-anchor="start" x="192.5" y="-66.3" font-family="Helvetica,sans-Serif" font-size="11.00" fill="#000000">z_ceiling</text>
<polygon fill="none" stroke="#000000" points="368.5,-59.2 368.5,-81.2 551.5,-81.2 551.5,-59.2 368.5,-59.2"/>
<text text-anchor="start" x="371.5" y="-66.9" font-family="Helvetica,sans-Serif" font-size="11.00" fill="#000000">float4[8,8]</text>
<polygon fill="#ffffff" stroke="transparent" points="172.5,-40.2 172.5,-59.2 261.5,-59.2 261.5,-40.2 172.5,-40.2"/>
<polygon fill="none" stroke="#000000" points="172.5,-40.2 172.5,-59.2 261.5,-59.2 261.5,-40.2 172.5,-40.2"/>
<text text-anchor="start" x="175.5" y="-46.3" font-family="Helvetica,sans-Serif" font-size="11.00" fill="#000000">&lt; 2</text>
<polygon fill="#ffffff" stroke="transparent" points="261.5,-40.2 261.5,-59.2 368.5,-59.2 368.5,-40.2 261.5,-40.2"/>
<polygon fill="none" stroke="#000000" points="261.5,-40.2 261.5,-59.2 368.5,-59.2 368.5,-40.2 261.5,-40.2"/>
<text text-anchor="start" x="333.1105" y="-46.3" font-family="Helvetica,sans-Serif" font-size="11.00" fill="#000000">0 rows</text>
<polygon fill="#ffffff" stroke="transparent" points="368.5,-40.2 368.5,-59.2 551.5,-59.2 551.5,-40.2 368.5,-40.2"/>
<polygon fill="none" stroke="#000000" points="368.5,-40.2 368.5,-59.2 551.5,-59.2 551.5,-40.2 368.5,-40.2"/>
<text text-anchor="start" x="532.9053" y="-46.3" font-family="Helvetica,sans-Serif" font-size="11.00" fill="#000000">0 &gt;</text>
<polygon fill="none" stroke="#000000" stroke-width="2" points="171,-39.2 171,-237.2 552,-237.2 552,-39.2 171,-39.2"/>
</a>
</g>
</g>
<!-- _singularity -->
<g id="node2" class="node">
<title>_singularity</title>
<g id="a_node2"><a xlink:href="../../tables/_singularity.html" xlink:title="_singularity" target="_top">
<polygon fill="#ffffff" stroke="transparent" points="8,-43.7 8,-236.7 121,-236.7 121,-43.7 8,-43.7"/>
<polygon fill="#f5f5f5" stroke="transparent" points="8.5,-213.2 8.5,-236.2 121.5,-236.2 121.5,-213.2 8.5,-213.2"/>
<polygon fill="none" stroke="#000000" points="8.5,-213.2 8.5,-236.2 121.5,-236.2 121.5,-213.2 8.5,-213.2"/>
<text text-anchor="start" x="13.5" y="-221.8" font-family="Helvetica,sans-Serif" font-weight="bold" font-size="11.00" fill="#000000">_singularity</text>
<text text-anchor="start" x="86.5437" y="-221.3" font-family="Helvetica,sans-Serif" font-size="11.00" fill="#000000">[table]</text>
<polygon fill="none" stroke="#000000" points="8.5,-191.2 8.5,-213.2 121.5,-213.2 121.5,-191.2 8.5,-191.2"/>
<image xlink:href="../../images/primaryKeys.png" width="11px" height="12px" preserveAspectRatio="xMinYMin meet" x="13.5" y="-208.2"/>
<text text-anchor="start" x="28.5" y="-198.3" font-family="Helvetica,sans-Serif" font-size="11.00" fill="#000000">id</text>
<polygon fill="#ffffff" stroke="transparent" points="8.5,-169.2 8.5,-191.2 121.5,-191.2 121.5,-169.2 8.5,-169.2"/>
<polygon fill="none" stroke="#000000" points="8.5,-169.2 8.5,-191.2 121.5,-191.2 121.5,-169.2 8.5,-169.2"/>
<text text-anchor="start" x="28.5" y="-176.3" font-family="Helvetica,sans-Serif" font-size="11.00" fill="#000000">singularity_type</text>
<polygon fill="#ffffff" stroke="transparent" points="8.5,-147.2 8.5,-169.2 121.5,-169.2 121.5,-147.2 8.5,-147.2"/>
<polygon fill="none" stroke="#000000" points="8.5,-147.2 8.5,-169.2 121.5,-169.2 121.5,-147.2 8.5,-147.2"/>
<text text-anchor="start" x="28.5" y="-154.3" font-family="Helvetica,sans-Serif" font-size="11.00" fill="#000000">name</text>
<polygon fill="#ffffff" stroke="transparent" points="8.5,-125.2 8.5,-147.2 121.5,-147.2 121.5,-125.2 8.5,-125.2"/>
<polygon fill="none" stroke="#000000" points="8.5,-125.2 8.5,-147.2 121.5,-147.2 121.5,-125.2 8.5,-125.2"/>
<image xlink:href="../../images/foreignKeys.png" width="11px" height="12px" preserveAspectRatio="xMinYMin meet" x="13.5" y="-142.2"/>
<text text-anchor="start" x="28.5" y="-132.3" font-family="Helvetica,sans-Serif" font-size="11.00" fill="#000000">node</text>
<polygon fill="none" stroke="#000000" points="8.5,-103.2 8.5,-125.2 121.5,-125.2 121.5,-103.2 8.5,-103.2"/>
<image xlink:href="../../images/foreignKeys.png" width="11px" height="12px" preserveAspectRatio="xMinYMin meet" x="13.5" y="-120.2"/>
<text text-anchor="start" x="28.5" y="-110.3" font-family="Helvetica,sans-Serif" font-size="11.00" fill="#000000">node_type</text>
<polygon fill="#ffffff" stroke="transparent" points="8.5,-81.2 8.5,-103.2 121.5,-103.2 121.5,-81.2 8.5,-81.2"/>
<polygon fill="none" stroke="#000000" points="8.5,-81.2 8.5,-103.2 121.5,-103.2 121.5,-81.2 8.5,-81.2"/>
<text text-anchor="start" x="28.5" y="-88.3" font-family="Helvetica,sans-Serif" font-size="11.00" fill="#000000">validity</text>
<polygon fill="none" stroke="#000000" points="8.5,-62.2 8.5,-81.2 121.5,-81.2 121.5,-62.2 8.5,-62.2"/>
<text text-anchor="start" x="11.5" y="-68.3" font-family="Helvetica,sans-Serif" font-size="11.00" fill="#000000">...</text>
<polygon fill="#ffffff" stroke="transparent" points="8.5,-43.2 8.5,-62.2 42.5,-62.2 42.5,-43.2 8.5,-43.2"/>
<polygon fill="none" stroke="#000000" points="8.5,-43.2 8.5,-62.2 42.5,-62.2 42.5,-43.2 8.5,-43.2"/>
<text text-anchor="start" x="11.5" y="-49.3" font-family="Helvetica,sans-Serif" font-size="11.00" fill="#000000">&lt; 2</text>
<polygon fill="#ffffff" stroke="transparent" points="42.5,-43.2 42.5,-62.2 87.5,-62.2 87.5,-43.2 42.5,-43.2"/>
<polygon fill="none" stroke="#000000" points="42.5,-43.2 42.5,-62.2 87.5,-62.2 87.5,-43.2 42.5,-43.2"/>
<text text-anchor="start" x="52.1105" y="-49.3" font-family="Helvetica,sans-Serif" font-size="11.00" fill="#000000">0 rows</text>
<polygon fill="#ffffff" stroke="transparent" points="87.5,-43.2 87.5,-62.2 121.5,-62.2 121.5,-43.2 87.5,-43.2"/>
<polygon fill="none" stroke="#000000" points="87.5,-43.2 87.5,-62.2 121.5,-62.2 121.5,-43.2 87.5,-43.2"/>
<text text-anchor="start" x="96.7904" y="-49.3" font-family="Helvetica,sans-Serif" font-size="11.00" fill="#000000">52 &gt;</text>
</a>
</g>
</g>
<!-- _bradley_headloss_singularity&#45;&gt;_singularity -->
<g id="edge1" class="edge">
<title>_bradley_headloss_singularity:w&#45;&gt;_singularity:e</title>
<path fill="none" stroke="#000000" d="M161.7307,-202.2C147.248,-202.2 140.0938,-202.2 121.5,-202.2"/>
<polygon fill="#000000" stroke="#000000" points="171.7,-198.2 171.7,-206.2 170.1,-206.2 170.1,-198.2 171.7,-198.2"/>
<polyline fill="none" stroke="#000000" points="172.5,-202.2 168.5,-202.2 "/>
<ellipse fill="none" stroke="#000000" cx="165.3" cy="-202.2001" rx="3.2" ry="3.2"/>
</g>
<!-- _bradley_headloss_singularity&#45;&gt;_singularity -->
<g id="edge2" class="edge">
<title>_bradley_headloss_singularity:w&#45;&gt;_singularity:e</title>
<path fill="none" stroke="#000000" d="M157.776,-180.2C145.7815,-180.2 138.3229,-180.2 121.5,-180.2"/>
<polygon fill="#000000" stroke="#000000" points="164.5,-180.2001 172.5,-183.8 168.5,-180.2 172.5,-180.2 172.5,-180.2 172.5,-180.2 168.5,-180.2 172.5,-176.6 164.5,-180.2001 164.5,-180.2001"/>
<ellipse fill="none" stroke="#000000" cx="161.3" cy="-180.2001" rx="3.2" ry="3.2"/>
</g>
</g>
</svg>
