<?xml version="1.0" encoding="UTF-8" standalone="no"?>
<!DOCTYPE svg PUBLIC "-//W3C//DTD SVG 1.1//EN"
 "http://www.w3.org/Graphics/SVG/1.1/DTD/svg11.dtd">
<!-- Generated by graphviz version 2.40.1 (20161225.0304)
 -->
<!-- Title: oneDegreeRelationshipsDiagram Pages: 1 -->
<svg width="610pt" height="976pt"
 viewBox="0.00 0.00 610.00 976.20" xmlns="http://www.w3.org/2000/svg" xmlns:xlink="http://www.w3.org/1999/xlink">
<g id="graph0" class="graph" transform="scale(1 1) rotate(0) translate(4 972.2)">
<title>oneDegreeRelationshipsDiagram</title>
<polygon fill="#ffffff" stroke="transparent" points="-4,4 -4,-972.2 606,-972.2 606,4 -4,4"/>
<text text-anchor="middle" x="72.4936" y="-7.3" font-family="Helvetica,sans-Serif" font-size="11.00" fill="#000000">Generated by SchemaSpy</text>
<!-- _catchment_node -->
<g id="node1" class="node">
<title>_catchment_node</title>
<g id="a_node1"><a xlink:href="../../tables/_catchment_node.html" xlink:title="_catchment_node" target="_top">
<polygon fill="#ffffff" stroke="transparent" points="156,-38.2 156,-964.2 594,-964.2 594,-38.2 156,-38.2"/>
<polygon fill="#f5f5f5" stroke="transparent" points="158,-939.2 158,-962.2 592,-962.2 592,-939.2 158,-939.2"/>
<polygon fill="none" stroke="#000000" points="158,-939.2 158,-962.2 592,-962.2 592,-939.2 158,-939.2"/>
<text text-anchor="start" x="163" y="-947.8" font-family="Helvetica,sans-Serif" font-weight="bold" font-size="11.00" fill="#000000">_catchment_node</text>
<text text-anchor="start" x="557.0437" y="-947.3" font-family="Helvetica,sans-Serif" font-size="11.00" fill="#000000">[table]</text>
<polygon fill="#ffffff" stroke="transparent" points="158,-917.2 158,-939.2 389,-939.2 389,-917.2 158,-917.2"/>
<polygon fill="none" stroke="#000000" points="158,-917.2 158,-939.2 389,-939.2 389,-917.2 158,-917.2"/>
<image xlink:href="../../images/foreignKeys.png" width="11px" height="12px" preserveAspectRatio="xMinYMin meet" x="163" y="-934.2"/>
<text text-anchor="start" x="178" y="-924.3" font-family="Helvetica,sans-Serif" font-size="11.00" fill="#000000">id</text>
<polygon fill="none" stroke="#000000" points="389,-917.2 389,-939.2 592,-939.2 592,-917.2 389,-917.2"/>
<text text-anchor="start" x="392" y="-924.9" font-family="Helvetica,sans-Serif" font-size="11.00" fill="#000000">int4[10]</text>
<polygon fill="none" stroke="#000000" points="158,-895.2 158,-917.2 389,-917.2 389,-895.2 158,-895.2"/>
<image xlink:href="../../images/foreignKeys.png" width="11px" height="12px" preserveAspectRatio="xMinYMin meet" x="163" y="-912.2"/>
<text text-anchor="start" x="178" y="-902.3" font-family="Helvetica,sans-Serif" font-size="11.00" fill="#000000">node_type</text>
<polygon fill="none" stroke="#000000" points="389,-895.2 389,-917.2 592,-917.2 592,-895.2 389,-895.2"/>
<text text-anchor="start" x="392" y="-902.9" font-family="Helvetica,sans-Serif" font-size="11.00" fill="#000000">hydra_node_type[2147483647]</text>
<polygon fill="none" stroke="#000000" points="158,-873.2 158,-895.2 389,-895.2 389,-873.2 158,-873.2"/>
<text text-anchor="start" x="178" y="-880.3" font-family="Helvetica,sans-Serif" font-size="11.00" fill="#000000">area_ha</text>
<polygon fill="none" stroke="#000000" points="389,-873.2 389,-895.2 592,-895.2 592,-873.2 389,-873.2"/>
<text text-anchor="start" x="392" y="-880.9" font-family="Helvetica,sans-Serif" font-size="11.00" fill="#000000">float4[8,8]</text>
<polygon fill="none" stroke="#000000" points="158,-851.2 158,-873.2 389,-873.2 389,-851.2 158,-851.2"/>
<text text-anchor="start" x="178" y="-858.3" font-family="Helvetica,sans-Serif" font-size="11.00" fill="#000000">rl</text>
<polygon fill="none" stroke="#000000" points="389,-851.2 389,-873.2 592,-873.2 592,-851.2 389,-851.2"/>
<text text-anchor="start" x="392" y="-858.9" font-family="Helvetica,sans-Serif" font-size="11.00" fill="#000000">float4[8,8]</text>
<polygon fill="none" stroke="#000000" points="158,-829.2 158,-851.2 389,-851.2 389,-829.2 158,-829.2"/>
<text text-anchor="start" x="178" y="-836.3" font-family="Helvetica,sans-Serif" font-size="11.00" fill="#000000">slope</text>
<polygon fill="none" stroke="#000000" points="389,-829.2 389,-851.2 592,-851.2 592,-829.2 389,-829.2"/>
<text text-anchor="start" x="392" y="-836.9" font-family="Helvetica,sans-Serif" font-size="11.00" fill="#000000">float4[8,8]</text>
<polygon fill="none" stroke="#000000" points="158,-807.2 158,-829.2 389,-829.2 389,-807.2 158,-807.2"/>
<text text-anchor="start" x="178" y="-814.3" font-family="Helvetica,sans-Serif" font-size="11.00" fill="#000000">c_imp</text>
<polygon fill="none" stroke="#000000" points="389,-807.2 389,-829.2 592,-829.2 592,-807.2 389,-807.2"/>
<text text-anchor="start" x="392" y="-814.9" font-family="Helvetica,sans-Serif" font-size="11.00" fill="#000000">float4[8,8]</text>
<polygon fill="none" stroke="#000000" points="158,-785.2 158,-807.2 389,-807.2 389,-785.2 158,-785.2"/>
<text text-anchor="start" x="178" y="-792.3" font-family="Helvetica,sans-Serif" font-size="11.00" fill="#000000">netflow_type</text>
<polygon fill="none" stroke="#000000" points="389,-785.2 389,-807.2 592,-807.2 592,-785.2 389,-785.2"/>
<text text-anchor="start" x="392" y="-792.9" font-family="Helvetica,sans-Serif" font-size="11.00" fill="#000000">hydra_netflow_type[2147483647]</text>
<polygon fill="none" stroke="#000000" points="158,-763.2 158,-785.2 389,-785.2 389,-763.2 158,-763.2"/>
<text text-anchor="start" x="178" y="-770.3" font-family="Helvetica,sans-Serif" font-size="11.00" fill="#000000">constant_runoff</text>
<polygon fill="none" stroke="#000000" points="389,-763.2 389,-785.2 592,-785.2 592,-763.2 389,-763.2"/>
<text text-anchor="start" x="392" y="-770.9" font-family="Helvetica,sans-Serif" font-size="11.00" fill="#000000">float4[8,8]</text>
<polygon fill="none" stroke="#000000" points="158,-741.2 158,-763.2 389,-763.2 389,-741.2 158,-741.2"/>
<text text-anchor="start" x="178" y="-748.3" font-family="Helvetica,sans-Serif" font-size="11.00" fill="#000000">horner_ini_loss_coef</text>
<polygon fill="none" stroke="#000000" points="389,-741.2 389,-763.2 592,-763.2 592,-741.2 389,-741.2"/>
<text text-anchor="start" x="392" y="-748.9" font-family="Helvetica,sans-Serif" font-size="11.00" fill="#000000">float4[8,8]</text>
<polygon fill="none" stroke="#000000" points="158,-719.2 158,-741.2 389,-741.2 389,-719.2 158,-719.2"/>
<text text-anchor="start" x="178" y="-726.3" font-family="Helvetica,sans-Serif" font-size="11.00" fill="#000000">horner_recharge_coef</text>
<polygon fill="none" stroke="#000000" points="389,-719.2 389,-741.2 592,-741.2 592,-719.2 389,-719.2"/>
<text text-anchor="start" x="392" y="-726.9" font-family="Helvetica,sans-Serif" font-size="11.00" fill="#000000">float4[8,8]</text>
<polygon fill="none" stroke="#000000" points="158,-697.2 158,-719.2 389,-719.2 389,-697.2 158,-697.2"/>
<text text-anchor="start" x="178" y="-704.3" font-family="Helvetica,sans-Serif" font-size="11.00" fill="#000000">holtan_sat_inf_rate_mmh</text>
<polygon fill="none" stroke="#000000" points="389,-697.2 389,-719.2 592,-719.2 592,-697.2 389,-697.2"/>
<text text-anchor="start" x="392" y="-704.9" font-family="Helvetica,sans-Serif" font-size="11.00" fill="#000000">float4[8,8]</text>
<polygon fill="none" stroke="#000000" points="158,-675.2 158,-697.2 389,-697.2 389,-675.2 158,-675.2"/>
<text text-anchor="start" x="178" y="-682.3" font-family="Helvetica,sans-Serif" font-size="11.00" fill="#000000">holtan_dry_inf_rate_mmh</text>
<polygon fill="none" stroke="#000000" points="389,-675.2 389,-697.2 592,-697.2 592,-675.2 389,-675.2"/>
<text text-anchor="start" x="392" y="-682.9" font-family="Helvetica,sans-Serif" font-size="11.00" fill="#000000">float4[8,8]</text>
<polygon fill="none" stroke="#000000" points="158,-653.2 158,-675.2 389,-675.2 389,-653.2 158,-653.2"/>
<text text-anchor="start" x="178" y="-660.3" font-family="Helvetica,sans-Serif" font-size="11.00" fill="#000000">holtan_soil_storage_cap_mm</text>
<polygon fill="none" stroke="#000000" points="389,-653.2 389,-675.2 592,-675.2 592,-653.2 389,-653.2"/>
<text text-anchor="start" x="392" y="-660.9" font-family="Helvetica,sans-Serif" font-size="11.00" fill="#000000">float4[8,8]</text>
<polygon fill="none" stroke="#000000" points="158,-631.2 158,-653.2 389,-653.2 389,-631.2 158,-631.2"/>
<text text-anchor="start" x="178" y="-638.3" font-family="Helvetica,sans-Serif" font-size="11.00" fill="#000000">scs_j_mm</text>
<polygon fill="none" stroke="#000000" points="389,-631.2 389,-653.2 592,-653.2 592,-631.2 389,-631.2"/>
<text text-anchor="start" x="392" y="-638.9" font-family="Helvetica,sans-Serif" font-size="11.00" fill="#000000">float4[8,8]</text>
<polygon fill="none" stroke="#000000" points="158,-609.2 158,-631.2 389,-631.2 389,-609.2 158,-609.2"/>
<text text-anchor="start" x="178" y="-616.3" font-family="Helvetica,sans-Serif" font-size="11.00" fill="#000000">scs_soil_drainage_time_day</text>
<polygon fill="none" stroke="#000000" points="389,-609.2 389,-631.2 592,-631.2 592,-609.2 389,-609.2"/>
<text text-anchor="start" x="392" y="-616.9" font-family="Helvetica,sans-Serif" font-size="11.00" fill="#000000">float4[8,8]</text>
<polygon fill="none" stroke="#000000" points="158,-587.2 158,-609.2 389,-609.2 389,-587.2 158,-587.2"/>
<text text-anchor="start" x="178" y="-594.3" font-family="Helvetica,sans-Serif" font-size="11.00" fill="#000000">scs_rfu_mm</text>
<polygon fill="none" stroke="#000000" points="389,-587.2 389,-609.2 592,-609.2 592,-587.2 389,-587.2"/>
<text text-anchor="start" x="392" y="-594.9" font-family="Helvetica,sans-Serif" font-size="11.00" fill="#000000">float4[8,8]</text>
<polygon fill="none" stroke="#000000" points="158,-565.2 158,-587.2 389,-587.2 389,-565.2 158,-565.2"/>
<text text-anchor="start" x="178" y="-572.3" font-family="Helvetica,sans-Serif" font-size="11.00" fill="#000000">hydra_surface_soil_storage_rfu_mm</text>
<polygon fill="none" stroke="#000000" points="389,-565.2 389,-587.2 592,-587.2 592,-565.2 389,-565.2"/>
<text text-anchor="start" x="392" y="-572.9" font-family="Helvetica,sans-Serif" font-size="11.00" fill="#000000">float4[8,8]</text>
<polygon fill="none" stroke="#000000" points="158,-543.2 158,-565.2 389,-565.2 389,-543.2 158,-543.2"/>
<text text-anchor="start" x="178" y="-550.3" font-family="Helvetica,sans-Serif" font-size="11.00" fill="#000000">hydra_inf_rate_f0_mm_hr</text>
<polygon fill="none" stroke="#000000" points="389,-543.2 389,-565.2 592,-565.2 592,-543.2 389,-543.2"/>
<text text-anchor="start" x="392" y="-550.9" font-family="Helvetica,sans-Serif" font-size="11.00" fill="#000000">float4[8,8]</text>
<polygon fill="none" stroke="#000000" points="158,-521.2 158,-543.2 389,-543.2 389,-521.2 158,-521.2"/>
<text text-anchor="start" x="178" y="-528.3" font-family="Helvetica,sans-Serif" font-size="11.00" fill="#000000">hydra_int_soil_storage_j_mm</text>
<polygon fill="none" stroke="#000000" points="389,-521.2 389,-543.2 592,-543.2 592,-521.2 389,-521.2"/>
<text text-anchor="start" x="392" y="-528.9" font-family="Helvetica,sans-Serif" font-size="11.00" fill="#000000">float4[8,8]</text>
<polygon fill="none" stroke="#000000" points="158,-499.2 158,-521.2 389,-521.2 389,-499.2 158,-499.2"/>
<text text-anchor="start" x="178" y="-506.3" font-family="Helvetica,sans-Serif" font-size="11.00" fill="#000000">hydra_soil_drainage_time_qres_day</text>
<polygon fill="none" stroke="#000000" points="389,-499.2 389,-521.2 592,-521.2 592,-499.2 389,-499.2"/>
<text text-anchor="start" x="392" y="-506.9" font-family="Helvetica,sans-Serif" font-size="11.00" fill="#000000">float4[8,8]</text>
<polygon fill="none" stroke="#000000" points="158,-477.2 158,-499.2 389,-499.2 389,-477.2 158,-477.2"/>
<text text-anchor="start" x="178" y="-484.3" font-family="Helvetica,sans-Serif" font-size="11.00" fill="#000000">hydra_split_coefficient</text>
<polygon fill="none" stroke="#000000" points="389,-477.2 389,-499.2 592,-499.2 592,-477.2 389,-477.2"/>
<text text-anchor="start" x="392" y="-484.9" font-family="Helvetica,sans-Serif" font-size="11.00" fill="#000000">float4[8,8]</text>
<polygon fill="none" stroke="#000000" points="158,-455.2 158,-477.2 389,-477.2 389,-455.2 158,-455.2"/>
<text text-anchor="start" x="178" y="-462.3" font-family="Helvetica,sans-Serif" font-size="11.00" fill="#000000">hydra_catchment_connect_coef</text>
<polygon fill="none" stroke="#000000" points="389,-455.2 389,-477.2 592,-477.2 592,-455.2 389,-455.2"/>
<text text-anchor="start" x="392" y="-462.9" font-family="Helvetica,sans-Serif" font-size="11.00" fill="#000000">float4[8,8]</text>
<polygon fill="none" stroke="#000000" points="158,-433.2 158,-455.2 389,-455.2 389,-433.2 158,-433.2"/>
<text text-anchor="start" x="178" y="-440.3" font-family="Helvetica,sans-Serif" font-size="11.00" fill="#000000">hydra_aquifer_infiltration_rate</text>
<polygon fill="none" stroke="#000000" points="389,-433.2 389,-455.2 592,-455.2 592,-433.2 389,-433.2"/>
<text text-anchor="start" x="392" y="-440.9" font-family="Helvetica,sans-Serif" font-size="11.00" fill="#000000">float4[8,8]</text>
<polygon fill="none" stroke="#000000" points="158,-411.2 158,-433.2 389,-433.2 389,-411.2 158,-411.2"/>
<text text-anchor="start" x="178" y="-418.3" font-family="Helvetica,sans-Serif" font-size="11.00" fill="#000000">hydra_soil_infiltration_type</text>
<polygon fill="none" stroke="#000000" points="389,-411.2 389,-433.2 592,-433.2 592,-411.2 389,-411.2"/>
<text text-anchor="start" x="391.7734" y="-418.9" font-family="Helvetica,sans-Serif" font-size="11.00" fill="#000000">hydra_soil_infiltration_type[2147483647]</text>
<polygon fill="none" stroke="#000000" points="158,-389.2 158,-411.2 389,-411.2 389,-389.2 158,-389.2"/>
<text text-anchor="start" x="178" y="-396.3" font-family="Helvetica,sans-Serif" font-size="11.00" fill="#000000">gr4_k1</text>
<polygon fill="none" stroke="#000000" points="389,-389.2 389,-411.2 592,-411.2 592,-389.2 389,-389.2"/>
<text text-anchor="start" x="392" y="-396.9" font-family="Helvetica,sans-Serif" font-size="11.00" fill="#000000">float4[8,8]</text>
<polygon fill="none" stroke="#000000" points="158,-367.2 158,-389.2 389,-389.2 389,-367.2 158,-367.2"/>
<text text-anchor="start" x="178" y="-374.3" font-family="Helvetica,sans-Serif" font-size="11.00" fill="#000000">gr4_k2</text>
<polygon fill="none" stroke="#000000" points="389,-367.2 389,-389.2 592,-389.2 592,-367.2 389,-367.2"/>
<text text-anchor="start" x="392" y="-374.9" font-family="Helvetica,sans-Serif" font-size="11.00" fill="#000000">float4[8,8]</text>
<polygon fill="none" stroke="#000000" points="158,-345.2 158,-367.2 389,-367.2 389,-345.2 158,-345.2"/>
<text text-anchor="start" x="178" y="-352.3" font-family="Helvetica,sans-Serif" font-size="11.00" fill="#000000">gr4_k3</text>
<polygon fill="none" stroke="#000000" points="389,-345.2 389,-367.2 592,-367.2 592,-345.2 389,-345.2"/>
<text text-anchor="start" x="392" y="-352.9" font-family="Helvetica,sans-Serif" font-size="11.00" fill="#000000">float4[8,8]</text>
<polygon fill="none" stroke="#000000" points="158,-323.2 158,-345.2 389,-345.2 389,-323.2 158,-323.2"/>
<text text-anchor="start" x="178" y="-330.3" font-family="Helvetica,sans-Serif" font-size="11.00" fill="#000000">gr4_k4</text>
<polygon fill="none" stroke="#000000" points="389,-323.2 389,-345.2 592,-345.2 592,-323.2 389,-323.2"/>
<text text-anchor="start" x="392" y="-330.9" font-family="Helvetica,sans-Serif" font-size="11.00" fill="#000000">float4[8,8]</text>
<polygon fill="none" stroke="#000000" points="158,-301.2 158,-323.2 389,-323.2 389,-301.2 158,-301.2"/>
<text text-anchor="start" x="178" y="-308.3" font-family="Helvetica,sans-Serif" font-size="11.00" fill="#000000">runoff_type</text>
<polygon fill="none" stroke="#000000" points="389,-301.2 389,-323.2 592,-323.2 592,-301.2 389,-301.2"/>
<text text-anchor="start" x="392" y="-308.9" font-family="Helvetica,sans-Serif" font-size="11.00" fill="#000000">hydra_runoff_type[2147483647]</text>
<polygon fill="none" stroke="#000000" points="158,-279.2 158,-301.2 389,-301.2 389,-279.2 158,-279.2"/>
<text text-anchor="start" x="178" y="-286.3" font-family="Helvetica,sans-Serif" font-size="11.00" fill="#000000">socose_tc_mn</text>
<polygon fill="none" stroke="#000000" points="389,-279.2 389,-301.2 592,-301.2 592,-279.2 389,-279.2"/>
<text text-anchor="start" x="392" y="-286.9" font-family="Helvetica,sans-Serif" font-size="11.00" fill="#000000">float4[8,8]</text>
<polygon fill="none" stroke="#000000" points="158,-257.2 158,-279.2 389,-279.2 389,-257.2 158,-257.2"/>
<text text-anchor="start" x="178" y="-264.3" font-family="Helvetica,sans-Serif" font-size="11.00" fill="#000000">socose_shape_param_beta</text>
<polygon fill="none" stroke="#000000" points="389,-257.2 389,-279.2 592,-279.2 592,-257.2 389,-257.2"/>
<text text-anchor="start" x="392" y="-264.9" font-family="Helvetica,sans-Serif" font-size="11.00" fill="#000000">float4[8,8]</text>
<polygon fill="none" stroke="#000000" points="158,-235.2 158,-257.2 389,-257.2 389,-235.2 158,-235.2"/>
<text text-anchor="start" x="178" y="-242.3" font-family="Helvetica,sans-Serif" font-size="11.00" fill="#000000">define_k_mn</text>
<polygon fill="none" stroke="#000000" points="389,-235.2 389,-257.2 592,-257.2 592,-235.2 389,-235.2"/>
<text text-anchor="start" x="392" y="-242.9" font-family="Helvetica,sans-Serif" font-size="11.00" fill="#000000">float4[8,8]</text>
<polygon fill="none" stroke="#000000" points="158,-213.2 158,-235.2 389,-235.2 389,-213.2 158,-213.2"/>
<text text-anchor="start" x="178" y="-220.3" font-family="Helvetica,sans-Serif" font-size="11.00" fill="#000000">q_limit</text>
<polygon fill="none" stroke="#000000" points="389,-213.2 389,-235.2 592,-235.2 592,-213.2 389,-213.2"/>
<text text-anchor="start" x="392" y="-220.9" font-family="Helvetica,sans-Serif" font-size="11.00" fill="#000000">float4[8,8]</text>
<polygon fill="none" stroke="#000000" points="158,-191.2 158,-213.2 389,-213.2 389,-191.2 158,-191.2"/>
<text text-anchor="start" x="178" y="-198.3" font-family="Helvetica,sans-Serif" font-size="11.00" fill="#000000">q0</text>
<polygon fill="none" stroke="#000000" points="389,-191.2 389,-213.2 592,-213.2 592,-191.2 389,-191.2"/>
<text text-anchor="start" x="392" y="-198.9" font-family="Helvetica,sans-Serif" font-size="11.00" fill="#000000">float4[8,8]</text>
<polygon fill="none" stroke="#000000" points="158,-169.2 158,-191.2 389,-191.2 389,-169.2 158,-169.2"/>
<image xlink:href="../../images/foreignKeys.png" width="11px" height="12px" preserveAspectRatio="xMinYMin meet" x="163" y="-186.2"/>
<text text-anchor="start" x="178" y="-176.3" font-family="Helvetica,sans-Serif" font-size="11.00" fill="#000000">contour</text>
<polygon fill="none" stroke="#000000" points="389,-169.2 389,-191.2 592,-191.2 592,-169.2 389,-169.2"/>
<text text-anchor="start" x="392" y="-176.9" font-family="Helvetica,sans-Serif" font-size="11.00" fill="#000000">int4[10]</text>
<polygon fill="none" stroke="#000000" points="158,-147.2 158,-169.2 389,-169.2 389,-147.2 158,-147.2"/>
<text text-anchor="start" x="178" y="-154.3" font-family="Helvetica,sans-Serif" font-size="11.00" fill="#000000">network_type</text>
<polygon fill="none" stroke="#000000" points="389,-147.2 389,-169.2 592,-169.2 592,-147.2 389,-147.2"/>
<text text-anchor="start" x="392" y="-154.9" font-family="Helvetica,sans-Serif" font-size="11.00" fill="#000000">hydra_network_type[2147483647]</text>
<polygon fill="none" stroke="#000000" points="158,-125.2 158,-147.2 389,-147.2 389,-125.2 158,-125.2"/>
<text text-anchor="start" x="178" y="-132.3" font-family="Helvetica,sans-Serif" font-size="11.00" fill="#000000">rural_land_use</text>
<polygon fill="none" stroke="#000000" points="389,-125.2 389,-147.2 592,-147.2 592,-125.2 389,-125.2"/>
<text text-anchor="start" x="392" y="-132.9" font-family="Helvetica,sans-Serif" font-size="11.00" fill="#000000">float4[8,8]</text>
<polygon fill="none" stroke="#000000" points="158,-103.2 158,-125.2 389,-125.2 389,-103.2 158,-103.2"/>
<text text-anchor="start" x="178" y="-110.3" font-family="Helvetica,sans-Serif" font-size="11.00" fill="#000000">industrial_land_use</text>
<polygon fill="none" stroke="#000000" points="389,-103.2 389,-125.2 592,-125.2 592,-103.2 389,-103.2"/>
<text text-anchor="start" x="392" y="-110.9" font-family="Helvetica,sans-Serif" font-size="11.00" fill="#000000">float4[8,8]</text>
<polygon fill="none" stroke="#000000" points="158,-81.2 158,-103.2 389,-103.2 389,-81.2 158,-81.2"/>
<text text-anchor="start" x="178" y="-88.3" font-family="Helvetica,sans-Serif" font-size="11.00" fill="#000000">suburban_housing_land_use</text>
<polygon fill="none" stroke="#000000" points="389,-81.2 389,-103.2 592,-103.2 592,-81.2 389,-81.2"/>
<text text-anchor="start" x="392" y="-88.9" font-family="Helvetica,sans-Serif" font-size="11.00" fill="#000000">float4[8,8]</text>
<polygon fill="none" stroke="#000000" points="158,-59.2 158,-81.2 389,-81.2 389,-59.2 158,-59.2"/>
<text text-anchor="start" x="178" y="-66.3" font-family="Helvetica,sans-Serif" font-size="11.00" fill="#000000">dense_housing_land_use</text>
<polygon fill="none" stroke="#000000" points="389,-59.2 389,-81.2 592,-81.2 592,-59.2 389,-59.2"/>
<text text-anchor="start" x="392" y="-66.9" font-family="Helvetica,sans-Serif" font-size="11.00" fill="#000000">float4[8,8]</text>
<polygon fill="#ffffff" stroke="transparent" points="158,-40.2 158,-59.2 265,-59.2 265,-40.2 158,-40.2"/>
<polygon fill="none" stroke="#000000" points="158,-40.2 158,-59.2 265,-59.2 265,-40.2 158,-40.2"/>
<text text-anchor="start" x="161" y="-46.3" font-family="Helvetica,sans-Serif" font-size="11.00" fill="#000000">&lt; 3</text>
<polygon fill="#ffffff" stroke="transparent" points="265,-40.2 265,-59.2 389,-59.2 389,-40.2 265,-40.2"/>
<polygon fill="none" stroke="#000000" points="265,-40.2 265,-59.2 389,-59.2 389,-40.2 265,-40.2"/>
<text text-anchor="start" x="353.6105" y="-46.3" font-family="Helvetica,sans-Serif" font-size="11.00" fill="#000000">0 rows</text>
<polygon fill="#ffffff" stroke="transparent" points="389,-40.2 389,-59.2 592,-59.2 592,-40.2 389,-40.2"/>
<polygon fill="none" stroke="#000000" points="389,-40.2 389,-59.2 592,-59.2 592,-40.2 389,-40.2"/>
<text text-anchor="start" x="573.4053" y="-46.3" font-family="Helvetica,sans-Serif" font-size="11.00" fill="#000000">0 &gt;</text>
<polygon fill="none" stroke="#000000" stroke-width="2" points="157,-39.2 157,-963.2 593,-963.2 593,-39.2 157,-39.2"/>
</a>
</g>
</g>
<!-- catchment -->
<g id="node2" class="node">
<title>catchment</title>
<g id="a_node2"><a xlink:href="../../tables/catchment.html" xlink:title="catchment" target="_top">
<polygon fill="#ffffff" stroke="transparent" points="8,-109.7 8,-214.7 107,-214.7 107,-109.7 8,-109.7"/>
<polygon fill="#f5f5f5" stroke="transparent" points="8.5,-191.2 8.5,-214.2 107.5,-214.2 107.5,-191.2 8.5,-191.2"/>
<polygon fill="none" stroke="#000000" points="8.5,-191.2 8.5,-214.2 107.5,-214.2 107.5,-191.2 8.5,-191.2"/>
<text text-anchor="start" x="13.5" y="-199.8" font-family="Helvetica,sans-Serif" font-weight="bold" font-size="11.00" fill="#000000">catchment</text>
<text text-anchor="start" x="73.0219" y="-199.3" font-family="Helvetica,sans-Serif" font-size="11.00" fill="#000000">[table]</text>
<polygon fill="none" stroke="#000000" points="8.5,-169.2 8.5,-191.2 107.5,-191.2 107.5,-169.2 8.5,-169.2"/>
<image xlink:href="../../images/primaryKeys.png" width="11px" height="12px" preserveAspectRatio="xMinYMin meet" x="13.5" y="-186.2"/>
<text text-anchor="start" x="37.5" y="-176.3" font-family="Helvetica,sans-Serif" font-size="11.00" fill="#000000">id</text>
<polygon fill="#ffffff" stroke="transparent" points="8.5,-147.2 8.5,-169.2 107.5,-169.2 107.5,-147.2 8.5,-147.2"/>
<polygon fill="none" stroke="#000000" points="8.5,-147.2 8.5,-169.2 107.5,-169.2 107.5,-147.2 8.5,-147.2"/>
<text text-anchor="start" x="37.5" y="-154.3" font-family="Helvetica,sans-Serif" font-size="11.00" fill="#000000">name</text>
<polygon fill="none" stroke="#000000" points="8.5,-128.2 8.5,-147.2 107.5,-147.2 107.5,-128.2 8.5,-128.2"/>
<text text-anchor="start" x="11.5" y="-134.3" font-family="Helvetica,sans-Serif" font-size="11.00" fill="#000000">...</text>
<polygon fill="#ffffff" stroke="transparent" points="8.5,-109.2 8.5,-128.2 34.5,-128.2 34.5,-109.2 8.5,-109.2"/>
<polygon fill="none" stroke="#000000" points="8.5,-109.2 8.5,-128.2 34.5,-128.2 34.5,-109.2 8.5,-109.2"/>
<text text-anchor="start" x="11.5" y="-115.3" font-family="Helvetica,sans-Serif" font-size="11.00" fill="#000000"> &#160;</text>
<polygon fill="#ffffff" stroke="transparent" points="34.5,-109.2 34.5,-128.2 79.5,-128.2 79.5,-109.2 34.5,-109.2"/>
<polygon fill="none" stroke="#000000" points="34.5,-109.2 34.5,-128.2 79.5,-128.2 79.5,-109.2 34.5,-109.2"/>
<text text-anchor="start" x="44.1105" y="-115.3" font-family="Helvetica,sans-Serif" font-size="11.00" fill="#000000">0 rows</text>
<polygon fill="#ffffff" stroke="transparent" points="79.5,-109.2 79.5,-128.2 107.5,-128.2 107.5,-109.2 79.5,-109.2"/>
<polygon fill="none" stroke="#000000" points="79.5,-109.2 79.5,-128.2 107.5,-128.2 107.5,-109.2 79.5,-109.2"/>
<text text-anchor="start" x="88.9053" y="-115.3" font-family="Helvetica,sans-Serif" font-size="11.00" fill="#000000">1 &gt;</text>
</a>
</g>
</g>
<!-- _catchment_node&#45;&gt;catchment -->
<g id="edge1" class="edge">
<title>_catchment_node:w&#45;&gt;catchment:e</title>
<path fill="none" stroke="#000000" d="M143.4203,-180.2C131.5435,-180.2 124.158,-180.2 107.5,-180.2"/>
<polygon fill="#000000" stroke="#000000" points="150,-180.2001 158,-183.8 154,-180.2 158,-180.2 158,-180.2 158,-180.2 154,-180.2 158,-176.6 150,-180.2001 150,-180.2001"/>
<ellipse fill="none" stroke="#000000" cx="146.8" cy="-180.2001" rx="3.2" ry="3.2"/>
</g>
<!-- _node -->
<g id="node3" class="node">
<title>_node</title>
<g id="a_node3"><a xlink:href="../../tables/_node.html" xlink:title="_node" target="_top">
<polygon fill="#ffffff" stroke="transparent" points="9,-769.7 9,-962.7 106,-962.7 106,-769.7 9,-769.7"/>
<polygon fill="#f5f5f5" stroke="transparent" points="9.5,-939.2 9.5,-962.2 106.5,-962.2 106.5,-939.2 9.5,-939.2"/>
<polygon fill="none" stroke="#000000" points="9.5,-939.2 9.5,-962.2 106.5,-962.2 106.5,-939.2 9.5,-939.2"/>
<text text-anchor="start" x="14.5" y="-947.8" font-family="Helvetica,sans-Serif" font-weight="bold" font-size="11.00" fill="#000000">_node</text>
<text text-anchor="start" x="71.5437" y="-947.3" font-family="Helvetica,sans-Serif" font-size="11.00" fill="#000000">[table]</text>
<polygon fill="none" stroke="#000000" points="9.5,-917.2 9.5,-939.2 106.5,-939.2 106.5,-917.2 9.5,-917.2"/>
<image xlink:href="../../images/primaryKeys.png" width="11px" height="12px" preserveAspectRatio="xMinYMin meet" x="14.5" y="-934.2"/>
<text text-anchor="start" x="29.5" y="-924.3" font-family="Helvetica,sans-Serif" font-size="11.00" fill="#000000">id</text>
<polygon fill="#ffffff" stroke="transparent" points="9.5,-895.2 9.5,-917.2 106.5,-917.2 106.5,-895.2 9.5,-895.2"/>
<polygon fill="none" stroke="#000000" points="9.5,-895.2 9.5,-917.2 106.5,-917.2 106.5,-895.2 9.5,-895.2"/>
<text text-anchor="start" x="29.5" y="-902.3" font-family="Helvetica,sans-Serif" font-size="11.00" fill="#000000">node_type</text>
<polygon fill="#ffffff" stroke="transparent" points="9.5,-873.2 9.5,-895.2 106.5,-895.2 106.5,-873.2 9.5,-873.2"/>
<polygon fill="none" stroke="#000000" points="9.5,-873.2 9.5,-895.2 106.5,-895.2 106.5,-873.2 9.5,-873.2"/>
<text text-anchor="start" x="29.5" y="-880.3" font-family="Helvetica,sans-Serif" font-size="11.00" fill="#000000">name</text>
<polygon fill="#ffffff" stroke="transparent" points="9.5,-851.2 9.5,-873.2 106.5,-873.2 106.5,-851.2 9.5,-851.2"/>
<polygon fill="none" stroke="#000000" points="9.5,-851.2 9.5,-873.2 106.5,-873.2 106.5,-851.2 9.5,-851.2"/>
<text text-anchor="start" x="29.5" y="-858.3" font-family="Helvetica,sans-Serif" font-size="11.00" fill="#000000">geom</text>
<polygon fill="#ffffff" stroke="transparent" points="9.5,-829.2 9.5,-851.2 106.5,-851.2 106.5,-829.2 9.5,-829.2"/>
<polygon fill="none" stroke="#000000" points="9.5,-829.2 9.5,-851.2 106.5,-851.2 106.5,-829.2 9.5,-829.2"/>
<image xlink:href="../../images/foreignKeys.png" width="11px" height="12px" preserveAspectRatio="xMinYMin meet" x="14.5" y="-846.2"/>
<text text-anchor="start" x="29.5" y="-836.3" font-family="Helvetica,sans-Serif" font-size="11.00" fill="#000000">generated</text>
<polygon fill="#ffffff" stroke="transparent" points="9.5,-807.2 9.5,-829.2 106.5,-829.2 106.5,-807.2 9.5,-807.2"/>
<polygon fill="none" stroke="#000000" points="9.5,-807.2 9.5,-829.2 106.5,-829.2 106.5,-807.2 9.5,-807.2"/>
<text text-anchor="start" x="29.5" y="-814.3" font-family="Helvetica,sans-Serif" font-size="11.00" fill="#000000">validity</text>
<polygon fill="none" stroke="#000000" points="9.5,-788.2 9.5,-807.2 106.5,-807.2 106.5,-788.2 9.5,-788.2"/>
<text text-anchor="start" x="12.5" y="-794.3" font-family="Helvetica,sans-Serif" font-size="11.00" fill="#000000">...</text>
<polygon fill="#ffffff" stroke="transparent" points="9.5,-769.2 9.5,-788.2 35.5,-788.2 35.5,-769.2 9.5,-769.2"/>
<polygon fill="none" stroke="#000000" points="9.5,-769.2 9.5,-788.2 35.5,-788.2 35.5,-769.2 9.5,-769.2"/>
<text text-anchor="start" x="12.5" y="-775.3" font-family="Helvetica,sans-Serif" font-size="11.00" fill="#000000">&lt; 1</text>
<polygon fill="#ffffff" stroke="transparent" points="35.5,-769.2 35.5,-788.2 76.5,-788.2 76.5,-769.2 35.5,-769.2"/>
<polygon fill="none" stroke="#000000" points="35.5,-769.2 35.5,-788.2 76.5,-788.2 76.5,-769.2 35.5,-769.2"/>
<text text-anchor="start" x="41.1105" y="-775.3" font-family="Helvetica,sans-Serif" font-size="11.00" fill="#000000">0 rows</text>
<polygon fill="#ffffff" stroke="transparent" points="76.5,-769.2 76.5,-788.2 106.5,-788.2 106.5,-769.2 76.5,-769.2"/>
<polygon fill="none" stroke="#000000" points="76.5,-769.2 76.5,-788.2 106.5,-788.2 106.5,-769.2 76.5,-769.2"/>
<text text-anchor="start" x="81.7904" y="-775.3" font-family="Helvetica,sans-Serif" font-size="11.00" fill="#000000">24 &gt;</text>
</a>
</g>
</g>
<!-- _catchment_node&#45;&gt;_node -->
<g id="edge2" class="edge">
<title>_catchment_node:w&#45;&gt;_node:e</title>
<path fill="none" stroke="#000000" d="M147.545,-928.2C132.637,-928.2 125.4549,-928.2 106.5,-928.2"/>
<polygon fill="#000000" stroke="#000000" points="157.2,-924.2 157.2,-932.2 155.6,-932.2 155.6,-924.2 157.2,-924.2"/>
<polyline fill="none" stroke="#000000" points="158,-928.2 154,-928.2 "/>
<ellipse fill="none" stroke="#000000" cx="150.8" cy="-928.2001" rx="3.2" ry="3.2"/>
</g>
<!-- _catchment_node&#45;&gt;_node -->
<g id="edge3" class="edge">
<title>_catchment_node:w&#45;&gt;_node:e</title>
<path fill="none" stroke="#000000" d="M143.5156,-906.2C131.1771,-906.2 123.6667,-906.2 106.5,-906.2"/>
<polygon fill="#000000" stroke="#000000" points="150,-906.2001 158,-909.8 154,-906.2 158,-906.2 158,-906.2 158,-906.2 154,-906.2 158,-902.6 150,-906.2001 150,-906.2001"/>
<ellipse fill="none" stroke="#000000" cx="146.8" cy="-906.2001" rx="3.2" ry="3.2"/>
</g>
</g>
</svg>
