<?xml version="1.0" encoding="UTF-8" standalone="no"?>
<!DOCTYPE svg PUBLIC "-//W3C//DTD SVG 1.1//EN"
 "http://www.w3.org/Graphics/SVG/1.1/DTD/svg11.dtd">
<!-- Generated by graphviz version 2.40.1 (20161225.0304)
 -->
<!-- Title: oneDegreeRelationshipsDiagram Pages: 1 -->
<svg width="604pt" height="503pt"
 viewBox="0.00 0.00 604.00 502.70" xmlns="http://www.w3.org/2000/svg" xmlns:xlink="http://www.w3.org/1999/xlink">
<g id="graph0" class="graph" transform="scale(1 1) rotate(0) translate(4 498.7)">
<title>oneDegreeRelationshipsDiagram</title>
<polygon fill="#ffffff" stroke="transparent" points="-4,4 -4,-498.7 600,-498.7 600,4 -4,4"/>
<text text-anchor="middle" x="72.4936" y="-7.3" font-family="Helvetica,sans-Serif" font-size="11.00" fill="#000000">Generated by SchemaSpy</text>
<!-- _connector_hydrology_link -->
<g id="node1" class="node">
<title>_connector_hydrology_link</title>
<g id="a_node1"><a xlink:href="../../tables/_connector_hydrology_link.html" xlink:title="_connector_hydrology_link" target="_top">
<polygon fill="#ffffff" stroke="transparent" points="257,-378.7 257,-490.7 588,-490.7 588,-378.7 257,-378.7"/>
<polygon fill="#f5f5f5" stroke="transparent" points="259.5,-465.7 259.5,-488.7 586.5,-488.7 586.5,-465.7 259.5,-465.7"/>
<polygon fill="none" stroke="#000000" points="259.5,-465.7 259.5,-488.7 586.5,-488.7 586.5,-465.7 259.5,-465.7"/>
<text text-anchor="start" x="264.5" y="-474.3" font-family="Helvetica,sans-Serif" font-weight="bold" font-size="11.00" fill="#000000">_connector_hydrology_link</text>
<text text-anchor="start" x="551.5437" y="-473.8" font-family="Helvetica,sans-Serif" font-size="11.00" fill="#000000">[table]</text>
<polygon fill="#ffffff" stroke="transparent" points="259.5,-443.7 259.5,-465.7 436.5,-465.7 436.5,-443.7 259.5,-443.7"/>
<polygon fill="none" stroke="#000000" points="259.5,-443.7 259.5,-465.7 436.5,-465.7 436.5,-443.7 259.5,-443.7"/>
<image xlink:href="../../images/foreignKeys.png" width="11px" height="12px" preserveAspectRatio="xMinYMin meet" x="264.5" y="-460.7"/>
<text text-anchor="start" x="279.5" y="-450.8" font-family="Helvetica,sans-Serif" font-size="11.00" fill="#000000">id</text>
<polygon fill="none" stroke="#000000" points="436.5,-443.7 436.5,-465.7 586.5,-465.7 586.5,-443.7 436.5,-443.7"/>
<text text-anchor="start" x="439.5" y="-451.4" font-family="Helvetica,sans-Serif" font-size="11.00" fill="#000000">int4[10]</text>
<polygon fill="none" stroke="#000000" points="259.5,-421.7 259.5,-443.7 436.5,-443.7 436.5,-421.7 259.5,-421.7"/>
<image xlink:href="../../images/foreignKeys.png" width="11px" height="12px" preserveAspectRatio="xMinYMin meet" x="264.5" y="-438.7"/>
<text text-anchor="start" x="279.5" y="-428.8" font-family="Helvetica,sans-Serif" font-size="11.00" fill="#000000">link_type</text>
<polygon fill="none" stroke="#000000" points="436.5,-421.7 436.5,-443.7 586.5,-443.7 586.5,-421.7 436.5,-421.7"/>
<text text-anchor="start" x="439.3587" y="-429.4" font-family="Helvetica,sans-Serif" font-size="11.00" fill="#000000">hydra_link_type[2147483647]</text>
<polygon fill="none" stroke="#000000" points="259.5,-399.7 259.5,-421.7 436.5,-421.7 436.5,-399.7 259.5,-399.7"/>
<image xlink:href="../../images/foreignKeys.png" width="11px" height="12px" preserveAspectRatio="xMinYMin meet" x="264.5" y="-416.7"/>
<text text-anchor="start" x="279.5" y="-406.8" font-family="Helvetica,sans-Serif" font-size="11.00" fill="#000000">hydrograph</text>
<polygon fill="none" stroke="#000000" points="436.5,-399.7 436.5,-421.7 586.5,-421.7 586.5,-399.7 436.5,-399.7"/>
<text text-anchor="start" x="439.5" y="-407.4" font-family="Helvetica,sans-Serif" font-size="11.00" fill="#000000">int4[10]</text>
<polygon fill="#ffffff" stroke="transparent" points="259.5,-380.7 259.5,-399.7 339.5,-399.7 339.5,-380.7 259.5,-380.7"/>
<polygon fill="none" stroke="#000000" points="259.5,-380.7 259.5,-399.7 339.5,-399.7 339.5,-380.7 259.5,-380.7"/>
<text text-anchor="start" x="262.5" y="-386.8" font-family="Helvetica,sans-Serif" font-size="11.00" fill="#000000">&lt; 3</text>
<polygon fill="#ffffff" stroke="transparent" points="339.5,-380.7 339.5,-399.7 436.5,-399.7 436.5,-380.7 339.5,-380.7"/>
<polygon fill="none" stroke="#000000" points="339.5,-380.7 339.5,-399.7 436.5,-399.7 436.5,-380.7 339.5,-380.7"/>
<text text-anchor="start" x="401.1105" y="-386.8" font-family="Helvetica,sans-Serif" font-size="11.00" fill="#000000">0 rows</text>
<polygon fill="#ffffff" stroke="transparent" points="436.5,-380.7 436.5,-399.7 586.5,-399.7 586.5,-380.7 436.5,-380.7"/>
<polygon fill="none" stroke="#000000" points="436.5,-380.7 436.5,-399.7 586.5,-399.7 586.5,-380.7 436.5,-380.7"/>
<text text-anchor="start" x="567.9053" y="-386.8" font-family="Helvetica,sans-Serif" font-size="11.00" fill="#000000">0 &gt;</text>
<polygon fill="none" stroke="#000000" stroke-width="2" points="258,-379.7 258,-489.7 587,-489.7 587,-379.7 258,-379.7"/>
</a>
</g>
</g>
<!-- _hydrograph_bc_singularity -->
<g id="node2" class="node">
<title>_hydrograph_bc_singularity</title>
<g id="a_node2"><a xlink:href="../../tables/_hydrograph_bc_singularity.html" xlink:title="_hydrograph_bc_singularity" target="_top">
<polygon fill="#ffffff" stroke="transparent" points="8,-38.2 8,-187.2 208,-187.2 208,-38.2 8,-38.2"/>
<polygon fill="#f5f5f5" stroke="transparent" points="8,-163.7 8,-186.7 208,-186.7 208,-163.7 8,-163.7"/>
<polygon fill="none" stroke="#000000" points="8,-163.7 8,-186.7 208,-186.7 208,-163.7 8,-163.7"/>
<text text-anchor="start" x="13" y="-172.3" font-family="Helvetica,sans-Serif" font-weight="bold" font-size="11.00" fill="#000000">_hydrograph_bc_singularity</text>
<text text-anchor="start" x="173.5219" y="-171.8" font-family="Helvetica,sans-Serif" font-size="11.00" fill="#000000">[table]</text>
<polygon fill="#ffffff" stroke="transparent" points="8,-141.7 8,-163.7 208,-163.7 208,-141.7 8,-141.7"/>
<polygon fill="none" stroke="#000000" points="8,-141.7 8,-163.7 208,-163.7 208,-141.7 8,-141.7"/>
<image xlink:href="../../images/foreignKeys.png" width="11px" height="12px" preserveAspectRatio="xMinYMin meet" x="13" y="-158.7"/>
<text text-anchor="start" x="37" y="-148.8" font-family="Helvetica,sans-Serif" font-size="11.00" fill="#000000">id</text>
<polygon fill="none" stroke="#000000" points="8,-119.7 8,-141.7 208,-141.7 208,-119.7 8,-119.7"/>
<image xlink:href="../../images/foreignKeys.png" width="11px" height="12px" preserveAspectRatio="xMinYMin meet" x="13" y="-136.7"/>
<text text-anchor="start" x="37" y="-126.8" font-family="Helvetica,sans-Serif" font-size="11.00" fill="#000000">singularity_type</text>
<polygon fill="none" stroke="#000000" points="8,-97.7 8,-119.7 208,-119.7 208,-97.7 8,-97.7"/>
<image xlink:href="../../images/foreignKeys.png" width="11px" height="12px" preserveAspectRatio="xMinYMin meet" x="13" y="-114.7"/>
<text text-anchor="start" x="37" y="-104.8" font-family="Helvetica,sans-Serif" font-size="11.00" fill="#000000">sector</text>
<polygon fill="none" stroke="#000000" points="8,-75.7 8,-97.7 208,-97.7 208,-75.7 8,-75.7"/>
<image xlink:href="../../images/foreignKeys.png" width="11px" height="12px" preserveAspectRatio="xMinYMin meet" x="13" y="-92.7"/>
<text text-anchor="start" x="37" y="-82.8" font-family="Helvetica,sans-Serif" font-size="11.00" fill="#000000">hourly_modulation</text>
<polygon fill="none" stroke="#000000" points="8,-56.7 8,-75.7 208,-75.7 208,-56.7 8,-56.7"/>
<text text-anchor="start" x="11" y="-62.8" font-family="Helvetica,sans-Serif" font-size="11.00" fill="#000000">...</text>
<polygon fill="#ffffff" stroke="transparent" points="8,-37.7 8,-56.7 89,-56.7 89,-37.7 8,-37.7"/>
<polygon fill="none" stroke="#000000" points="8,-37.7 8,-56.7 89,-56.7 89,-37.7 8,-37.7"/>
<text text-anchor="start" x="11" y="-43.8" font-family="Helvetica,sans-Serif" font-size="11.00" fill="#000000">&lt; 4</text>
<polygon fill="#ffffff" stroke="transparent" points="89,-37.7 89,-56.7 157,-56.7 157,-37.7 89,-37.7"/>
<polygon fill="none" stroke="#000000" points="89,-37.7 89,-56.7 157,-56.7 157,-37.7 89,-37.7"/>
<text text-anchor="start" x="121.6105" y="-43.8" font-family="Helvetica,sans-Serif" font-size="11.00" fill="#000000">0 rows</text>
<polygon fill="#ffffff" stroke="transparent" points="157,-37.7 157,-56.7 208,-56.7 208,-37.7 157,-37.7"/>
<polygon fill="none" stroke="#000000" points="157,-37.7 157,-56.7 208,-56.7 208,-37.7 157,-37.7"/>
<text text-anchor="start" x="189.4053" y="-43.8" font-family="Helvetica,sans-Serif" font-size="11.00" fill="#000000">2 &gt;</text>
</a>
</g>
</g>
<!-- _connector_hydrology_link&#45;&gt;_hydrograph_bc_singularity -->
<g id="edge1" class="edge">
<title>_connector_hydrology_link:w&#45;&gt;_hydrograph_bc_singularity:e</title>
<path fill="none" stroke="#000000" d="M244.9681,-409.0525C159.0096,-387.0794 319.4478,-152.7 208,-152.7"/>
<polygon fill="#000000" stroke="#000000" points="251.5509,-409.7987 259.0944,-414.2771 255.5255,-410.2494 259.5,-410.7 259.5,-410.7 259.5,-410.7 255.5255,-410.2494 259.9056,-407.1229 251.5509,-409.7987 251.5509,-409.7987"/>
<ellipse fill="none" stroke="#000000" cx="248.3713" cy="-409.4382" rx="3.2" ry="3.2"/>
</g>
<!-- _link -->
<g id="node3" class="node">
<title>_link</title>
<g id="a_node3"><a xlink:href="../../tables/_link.html" xlink:title="_link" target="_top">
<polygon fill="#ffffff" stroke="transparent" points="59.5,-208.2 59.5,-489.2 156.5,-489.2 156.5,-208.2 59.5,-208.2"/>
<polygon fill="#f5f5f5" stroke="transparent" points="60,-465.7 60,-488.7 157,-488.7 157,-465.7 60,-465.7"/>
<polygon fill="none" stroke="#000000" points="60,-465.7 60,-488.7 157,-488.7 157,-465.7 60,-465.7"/>
<text text-anchor="start" x="65" y="-474.3" font-family="Helvetica,sans-Serif" font-weight="bold" font-size="11.00" fill="#000000">_link</text>
<text text-anchor="start" x="122.0437" y="-473.8" font-family="Helvetica,sans-Serif" font-size="11.00" fill="#000000">[table]</text>
<polygon fill="none" stroke="#000000" points="60,-443.7 60,-465.7 157,-465.7 157,-443.7 60,-443.7"/>
<image xlink:href="../../images/primaryKeys.png" width="11px" height="12px" preserveAspectRatio="xMinYMin meet" x="65" y="-460.7"/>
<text text-anchor="start" x="80" y="-450.8" font-family="Helvetica,sans-Serif" font-size="11.00" fill="#000000">id</text>
<polygon fill="#ffffff" stroke="transparent" points="60,-421.7 60,-443.7 157,-443.7 157,-421.7 60,-421.7"/>
<polygon fill="none" stroke="#000000" points="60,-421.7 60,-443.7 157,-443.7 157,-421.7 60,-421.7"/>
<text text-anchor="start" x="80" y="-428.8" font-family="Helvetica,sans-Serif" font-size="11.00" fill="#000000">link_type</text>
<polygon fill="#ffffff" stroke="transparent" points="60,-399.7 60,-421.7 157,-421.7 157,-399.7 60,-399.7"/>
<polygon fill="none" stroke="#000000" points="60,-399.7 60,-421.7 157,-421.7 157,-399.7 60,-399.7"/>
<text text-anchor="start" x="80" y="-406.8" font-family="Helvetica,sans-Serif" font-size="11.00" fill="#000000">name</text>
<polygon fill="#ffffff" stroke="transparent" points="60,-377.7 60,-399.7 157,-399.7 157,-377.7 60,-377.7"/>
<polygon fill="none" stroke="#000000" points="60,-377.7 60,-399.7 157,-399.7 157,-377.7 60,-377.7"/>
<image xlink:href="../../images/foreignKeys.png" width="11px" height="12px" preserveAspectRatio="xMinYMin meet" x="65" y="-394.7"/>
<text text-anchor="start" x="80" y="-384.8" font-family="Helvetica,sans-Serif" font-size="11.00" fill="#000000">generated</text>
<polygon fill="#ffffff" stroke="transparent" points="60,-355.7 60,-377.7 157,-377.7 157,-355.7 60,-355.7"/>
<polygon fill="none" stroke="#000000" points="60,-355.7 60,-377.7 157,-377.7 157,-355.7 60,-355.7"/>
<image xlink:href="../../images/foreignKeys.png" width="11px" height="12px" preserveAspectRatio="xMinYMin meet" x="65" y="-372.7"/>
<text text-anchor="start" x="80" y="-362.8" font-family="Helvetica,sans-Serif" font-size="11.00" fill="#000000">up</text>
<polygon fill="none" stroke="#000000" points="60,-333.7 60,-355.7 157,-355.7 157,-333.7 60,-333.7"/>
<image xlink:href="../../images/foreignKeys.png" width="11px" height="12px" preserveAspectRatio="xMinYMin meet" x="65" y="-350.7"/>
<text text-anchor="start" x="80" y="-340.8" font-family="Helvetica,sans-Serif" font-size="11.00" fill="#000000">up_type</text>
<polygon fill="#ffffff" stroke="transparent" points="60,-311.7 60,-333.7 157,-333.7 157,-311.7 60,-311.7"/>
<polygon fill="none" stroke="#000000" points="60,-311.7 60,-333.7 157,-333.7 157,-311.7 60,-311.7"/>
<image xlink:href="../../images/foreignKeys.png" width="11px" height="12px" preserveAspectRatio="xMinYMin meet" x="65" y="-328.7"/>
<text text-anchor="start" x="80" y="-318.8" font-family="Helvetica,sans-Serif" font-size="11.00" fill="#000000">down</text>
<polygon fill="none" stroke="#000000" points="60,-289.7 60,-311.7 157,-311.7 157,-289.7 60,-289.7"/>
<image xlink:href="../../images/foreignKeys.png" width="11px" height="12px" preserveAspectRatio="xMinYMin meet" x="65" y="-306.7"/>
<text text-anchor="start" x="80" y="-296.8" font-family="Helvetica,sans-Serif" font-size="11.00" fill="#000000">down_type</text>
<polygon fill="#ffffff" stroke="transparent" points="60,-267.7 60,-289.7 157,-289.7 157,-267.7 60,-267.7"/>
<polygon fill="none" stroke="#000000" points="60,-267.7 60,-289.7 157,-289.7 157,-267.7 60,-267.7"/>
<text text-anchor="start" x="80" y="-274.8" font-family="Helvetica,sans-Serif" font-size="11.00" fill="#000000">geom</text>
<polygon fill="#ffffff" stroke="transparent" points="60,-245.7 60,-267.7 157,-267.7 157,-245.7 60,-245.7"/>
<polygon fill="none" stroke="#000000" points="60,-245.7 60,-267.7 157,-267.7 157,-245.7 60,-245.7"/>
<text text-anchor="start" x="80" y="-252.8" font-family="Helvetica,sans-Serif" font-size="11.00" fill="#000000">validity</text>
<polygon fill="none" stroke="#000000" points="60,-226.7 60,-245.7 157,-245.7 157,-226.7 60,-226.7"/>
<text text-anchor="start" x="63" y="-232.8" font-family="Helvetica,sans-Serif" font-size="11.00" fill="#000000">...</text>
<polygon fill="#ffffff" stroke="transparent" points="60,-207.7 60,-226.7 86,-226.7 86,-207.7 60,-207.7"/>
<polygon fill="none" stroke="#000000" points="60,-207.7 60,-226.7 86,-226.7 86,-207.7 60,-207.7"/>
<text text-anchor="start" x="63" y="-213.8" font-family="Helvetica,sans-Serif" font-size="11.00" fill="#000000">&lt; 5</text>
<polygon fill="#ffffff" stroke="transparent" points="86,-207.7 86,-226.7 127,-226.7 127,-207.7 86,-207.7"/>
<polygon fill="none" stroke="#000000" points="86,-207.7 86,-226.7 127,-226.7 127,-207.7 86,-207.7"/>
<text text-anchor="start" x="91.6105" y="-213.8" font-family="Helvetica,sans-Serif" font-size="11.00" fill="#000000">0 rows</text>
<polygon fill="#ffffff" stroke="transparent" points="127,-207.7 127,-226.7 157,-226.7 157,-207.7 127,-207.7"/>
<polygon fill="none" stroke="#000000" points="127,-207.7 127,-226.7 157,-226.7 157,-207.7 127,-207.7"/>
<text text-anchor="start" x="132.2904" y="-213.8" font-family="Helvetica,sans-Serif" font-size="11.00" fill="#000000">60 &gt;</text>
</a>
</g>
</g>
<!-- _connector_hydrology_link&#45;&gt;_link -->
<g id="edge2" class="edge">
<title>_connector_hydrology_link:w&#45;&gt;_link:e</title>
<path fill="none" stroke="#000000" d="M248.9411,-454.7C211.846,-454.7 198.8186,-454.7 157,-454.7"/>
<polygon fill="#000000" stroke="#000000" points="258.7,-450.7 258.7,-458.7 257.1,-458.7 257.1,-450.7 258.7,-450.7"/>
<polyline fill="none" stroke="#000000" points="259.5,-454.7 255.5,-454.7 "/>
<ellipse fill="none" stroke="#000000" cx="252.3" cy="-454.7001" rx="3.2" ry="3.2"/>
</g>
<!-- _connector_hydrology_link&#45;&gt;_link -->
<g id="edge3" class="edge">
<title>_connector_hydrology_link:w&#45;&gt;_link:e</title>
<path fill="none" stroke="#000000" d="M244.782,-432.7C210.806,-432.7 197.217,-432.7 157,-432.7"/>
<polygon fill="#000000" stroke="#000000" points="251.5,-432.7001 259.5,-436.3 255.5,-432.7 259.5,-432.7 259.5,-432.7 259.5,-432.7 255.5,-432.7 259.5,-429.1 251.5,-432.7001 251.5,-432.7001"/>
<ellipse fill="none" stroke="#000000" cx="248.3" cy="-432.7001" rx="3.2" ry="3.2"/>
</g>
</g>
</svg>
