<?xml version="1.0" encoding="UTF-8" standalone="no"?>
<!DOCTYPE svg PUBLIC "-//W3C//DTD SVG 1.1//EN"
 "http://www.w3.org/Graphics/SVG/1.1/DTD/svg11.dtd">
<!-- Generated by graphviz version 2.40.1 (20161225.0304)
 -->
<!-- Title: oneDegreeRelationshipsDiagram Pages: 1 -->
<svg width="816pt" height="381pt"
 viewBox="0.00 0.00 816.00 380.70" xmlns="http://www.w3.org/2000/svg" xmlns:xlink="http://www.w3.org/1999/xlink">
<g id="graph0" class="graph" transform="scale(1 1) rotate(0) translate(4 376.7)">
<title>oneDegreeRelationshipsDiagram</title>
<polygon fill="#ffffff" stroke="transparent" points="-4,4 -4,-376.7 812,-376.7 812,4 -4,4"/>
<text text-anchor="middle" x="72.4936" y="-7.3" font-family="Helvetica,sans-Serif" font-size="11.00" fill="#000000">Generated by SchemaSpy</text>
<!-- _constrain -->
<g id="node1" class="node">
<title>_constrain</title>
<g id="a_node1"><a xlink:href="../../tables/_constrain.html" xlink:title="_constrain" target="_top">
<polygon fill="#ffffff" stroke="transparent" points="206,-38.2 206,-326.2 531,-326.2 531,-38.2 206,-38.2"/>
<polygon fill="#f5f5f5" stroke="transparent" points="208.5,-301.2 208.5,-324.2 529.5,-324.2 529.5,-301.2 208.5,-301.2"/>
<polygon fill="none" stroke="#000000" points="208.5,-301.2 208.5,-324.2 529.5,-324.2 529.5,-301.2 208.5,-301.2"/>
<text text-anchor="start" x="213.5" y="-309.8" font-family="Helvetica,sans-Serif" font-weight="bold" font-size="11.00" fill="#000000">_constrain</text>
<text text-anchor="start" x="494.5437" y="-309.3" font-family="Helvetica,sans-Serif" font-size="11.00" fill="#000000">[table]</text>
<polygon fill="none" stroke="#000000" points="208.5,-279.2 208.5,-301.2 351.5,-301.2 351.5,-279.2 208.5,-279.2"/>
<image xlink:href="../../images/primaryKeys.png" width="11px" height="12px" preserveAspectRatio="xMinYMin meet" x="213.5" y="-296.2"/>
<text text-anchor="start" x="228.5" y="-286.3" font-family="Helvetica,sans-Serif" font-size="11.00" fill="#000000">id</text>
<polygon fill="none" stroke="#000000" points="351.5,-279.2 351.5,-301.2 529.5,-301.2 529.5,-279.2 351.5,-279.2"/>
<text text-anchor="start" x="354.5" y="-286.9" font-family="Helvetica,sans-Serif" font-size="11.00" fill="#000000">serial[10]</text>
<polygon fill="#ffffff" stroke="transparent" points="208.5,-257.2 208.5,-279.2 351.5,-279.2 351.5,-257.2 208.5,-257.2"/>
<polygon fill="none" stroke="#000000" points="208.5,-257.2 208.5,-279.2 351.5,-279.2 351.5,-257.2 208.5,-257.2"/>
<text text-anchor="start" x="228.5" y="-264.3" font-family="Helvetica,sans-Serif" font-size="11.00" fill="#000000">name</text>
<polygon fill="none" stroke="#000000" points="351.5,-257.2 351.5,-279.2 529.5,-279.2 529.5,-257.2 351.5,-257.2"/>
<text text-anchor="start" x="354.5" y="-264.9" font-family="Helvetica,sans-Serif" font-size="11.00" fill="#000000">varchar[16]</text>
<polygon fill="#ffffff" stroke="transparent" points="208.5,-235.2 208.5,-257.2 351.5,-257.2 351.5,-235.2 208.5,-235.2"/>
<polygon fill="none" stroke="#000000" points="208.5,-235.2 208.5,-257.2 351.5,-257.2 351.5,-235.2 208.5,-235.2"/>
<text text-anchor="start" x="228.5" y="-242.3" font-family="Helvetica,sans-Serif" font-size="11.00" fill="#000000">geom</text>
<polygon fill="none" stroke="#000000" points="351.5,-235.2 351.5,-257.2 529.5,-257.2 529.5,-235.2 351.5,-235.2"/>
<text text-anchor="start" x="354.5" y="-242.9" font-family="Helvetica,sans-Serif" font-size="11.00" fill="#000000">geometry[2147483647]</text>
<polygon fill="#ffffff" stroke="transparent" points="208.5,-213.2 208.5,-235.2 351.5,-235.2 351.5,-213.2 208.5,-213.2"/>
<polygon fill="none" stroke="#000000" points="208.5,-213.2 208.5,-235.2 351.5,-235.2 351.5,-213.2 208.5,-213.2"/>
<text text-anchor="start" x="228.5" y="-220.3" font-family="Helvetica,sans-Serif" font-size="11.00" fill="#000000">discretized</text>
<polygon fill="none" stroke="#000000" points="351.5,-213.2 351.5,-235.2 529.5,-235.2 529.5,-213.2 351.5,-213.2"/>
<text text-anchor="start" x="354.5" y="-220.9" font-family="Helvetica,sans-Serif" font-size="11.00" fill="#000000">geometry[2147483647]</text>
<polygon fill="none" stroke="#000000" points="208.5,-191.2 208.5,-213.2 351.5,-213.2 351.5,-191.2 208.5,-191.2"/>
<text text-anchor="start" x="228.5" y="-198.3" font-family="Helvetica,sans-Serif" font-size="11.00" fill="#000000">elem_length</text>
<polygon fill="none" stroke="#000000" points="351.5,-191.2 351.5,-213.2 529.5,-213.2 529.5,-191.2 351.5,-191.2"/>
<text text-anchor="start" x="354.5" y="-198.9" font-family="Helvetica,sans-Serif" font-size="11.00" fill="#000000">float4[8,8]</text>
<polygon fill="none" stroke="#000000" points="208.5,-169.2 208.5,-191.2 351.5,-191.2 351.5,-169.2 208.5,-169.2"/>
<text text-anchor="start" x="228.5" y="-176.3" font-family="Helvetica,sans-Serif" font-size="11.00" fill="#000000">constrain_type</text>
<polygon fill="none" stroke="#000000" points="351.5,-169.2 351.5,-191.2 529.5,-191.2 529.5,-169.2 351.5,-169.2"/>
<text text-anchor="start" x="354.2974" y="-176.9" font-family="Helvetica,sans-Serif" font-size="11.00" fill="#000000">hydra_constrain_type[2147483647]</text>
<polygon fill="none" stroke="#000000" points="208.5,-147.2 208.5,-169.2 351.5,-169.2 351.5,-147.2 208.5,-147.2"/>
<text text-anchor="start" x="228.5" y="-154.3" font-family="Helvetica,sans-Serif" font-size="11.00" fill="#000000">link_attributes</text>
<polygon fill="none" stroke="#000000" points="351.5,-147.2 351.5,-169.2 529.5,-169.2 529.5,-147.2 351.5,-147.2"/>
<text text-anchor="start" x="354.5" y="-154.9" font-family="Helvetica,sans-Serif" font-size="11.00" fill="#000000">json[2147483647]</text>
<polygon fill="none" stroke="#000000" points="208.5,-125.2 208.5,-147.2 351.5,-147.2 351.5,-125.2 208.5,-125.2"/>
<image xlink:href="../../images/foreignKeys.png" width="11px" height="12px" preserveAspectRatio="xMinYMin meet" x="213.5" y="-142.2"/>
<text text-anchor="start" x="228.5" y="-132.3" font-family="Helvetica,sans-Serif" font-size="11.00" fill="#000000">points_xyz</text>
<polygon fill="none" stroke="#000000" points="351.5,-125.2 351.5,-147.2 529.5,-147.2 529.5,-125.2 351.5,-125.2"/>
<text text-anchor="start" x="354.5" y="-132.9" font-family="Helvetica,sans-Serif" font-size="11.00" fill="#000000">int4[10]</text>
<polygon fill="none" stroke="#000000" points="208.5,-103.2 208.5,-125.2 351.5,-125.2 351.5,-103.2 208.5,-103.2"/>
<text text-anchor="start" x="228.5" y="-110.3" font-family="Helvetica,sans-Serif" font-size="11.00" fill="#000000">points_xyz_proximity</text>
<polygon fill="none" stroke="#000000" points="351.5,-103.2 351.5,-125.2 529.5,-125.2 529.5,-103.2 351.5,-103.2"/>
<text text-anchor="start" x="354.5" y="-110.9" font-family="Helvetica,sans-Serif" font-size="11.00" fill="#000000">float4[8,8]</text>
<polygon fill="none" stroke="#000000" points="208.5,-81.2 208.5,-103.2 351.5,-103.2 351.5,-81.2 208.5,-81.2"/>
<image xlink:href="../../images/foreignKeys.png" width="11px" height="12px" preserveAspectRatio="xMinYMin meet" x="213.5" y="-98.2"/>
<text text-anchor="start" x="228.5" y="-88.3" font-family="Helvetica,sans-Serif" font-size="11.00" fill="#000000">line_xyz</text>
<polygon fill="none" stroke="#000000" points="351.5,-81.2 351.5,-103.2 529.5,-103.2 529.5,-81.2 351.5,-81.2"/>
<text text-anchor="start" x="354.5" y="-88.9" font-family="Helvetica,sans-Serif" font-size="11.00" fill="#000000">int4[10]</text>
<polygon fill="none" stroke="#000000" points="208.5,-59.2 208.5,-81.2 351.5,-81.2 351.5,-59.2 208.5,-59.2"/>
<text text-anchor="start" x="228.5" y="-66.3" font-family="Helvetica,sans-Serif" font-size="11.00" fill="#000000">comment</text>
<polygon fill="none" stroke="#000000" points="351.5,-59.2 351.5,-81.2 529.5,-81.2 529.5,-59.2 351.5,-59.2"/>
<text text-anchor="start" x="354.5" y="-66.9" font-family="Helvetica,sans-Serif" font-size="11.00" fill="#000000">varchar[2147483647]</text>
<polygon fill="#ffffff" stroke="transparent" points="208.5,-40.2 208.5,-59.2 271.5,-59.2 271.5,-40.2 208.5,-40.2"/>
<polygon fill="none" stroke="#000000" points="208.5,-40.2 208.5,-59.2 271.5,-59.2 271.5,-40.2 208.5,-40.2"/>
<text text-anchor="start" x="211.5" y="-46.3" font-family="Helvetica,sans-Serif" font-size="11.00" fill="#000000">&lt; 2</text>
<polygon fill="#ffffff" stroke="transparent" points="271.5,-40.2 271.5,-59.2 351.5,-59.2 351.5,-40.2 271.5,-40.2"/>
<polygon fill="none" stroke="#000000" points="271.5,-40.2 271.5,-59.2 351.5,-59.2 351.5,-40.2 271.5,-40.2"/>
<text text-anchor="start" x="316.1105" y="-46.3" font-family="Helvetica,sans-Serif" font-size="11.00" fill="#000000">0 rows</text>
<polygon fill="#ffffff" stroke="transparent" points="351.5,-40.2 351.5,-59.2 529.5,-59.2 529.5,-40.2 351.5,-40.2"/>
<polygon fill="none" stroke="#000000" points="351.5,-40.2 351.5,-59.2 529.5,-59.2 529.5,-40.2 351.5,-40.2"/>
<text text-anchor="start" x="510.9053" y="-46.3" font-family="Helvetica,sans-Serif" font-size="11.00" fill="#000000">1 &gt;</text>
<polygon fill="none" stroke="#000000" stroke-width="2" points="207,-39.2 207,-325.2 530,-325.2 530,-39.2 207,-39.2"/>
</a>
</g>
</g>
<!-- project.line_xyz -->
<g id="node2" class="node">
<title>project.line_xyz</title>
<g id="a_node2"><a xlink:title="project.line_xyz">
<polygon fill="#ffffff" stroke="transparent" points="18,-42.7 18,-103.7 147,-103.7 147,-42.7 18,-42.7"/>
<polygon fill="#f5f5f5" stroke="transparent" points="18.5,-80.2 18.5,-103.2 147.5,-103.2 147.5,-80.2 18.5,-80.2"/>
<polygon fill="none" stroke="#000000" points="18.5,-80.2 18.5,-103.2 147.5,-103.2 147.5,-80.2 18.5,-80.2"/>
<text text-anchor="start" x="23.5" y="-88.8" font-family="Helvetica,sans-Serif" font-weight="bold" font-size="11.00" fill="#000000">project.line_xyz</text>
<text text-anchor="start" x="113.0219" y="-88.3" font-family="Helvetica,sans-Serif" font-size="11.00" fill="#000000">[table]</text>
<polygon fill="none" stroke="#000000" points="18.5,-61.2 18.5,-80.2 147.5,-80.2 147.5,-61.2 18.5,-61.2"/>
<text text-anchor="start" x="21.5" y="-67.3" font-family="Helvetica,sans-Serif" font-size="11.00" fill="#000000">...</text>
<polygon fill="#ffffff" stroke="transparent" points="18.5,-42.2 18.5,-61.2 59.5,-61.2 59.5,-42.2 18.5,-42.2"/>
<polygon fill="none" stroke="#000000" points="18.5,-42.2 18.5,-61.2 59.5,-61.2 59.5,-42.2 18.5,-42.2"/>
<text text-anchor="start" x="21.5" y="-48.3" font-family="Helvetica,sans-Serif" font-size="11.00" fill="#000000"> &#160;</text>
<polygon fill="#ffffff" stroke="transparent" points="59.5,-42.2 59.5,-61.2 111.5,-61.2 111.5,-42.2 59.5,-42.2"/>
<polygon fill="none" stroke="#000000" points="59.5,-42.2 59.5,-61.2 111.5,-61.2 111.5,-42.2 59.5,-42.2"/>
<text text-anchor="start" x="76.1105" y="-48.3" font-family="Helvetica,sans-Serif" font-size="11.00" fill="#000000">0 rows</text>
<polygon fill="#ffffff" stroke="transparent" points="111.5,-42.2 111.5,-61.2 147.5,-61.2 147.5,-42.2 111.5,-42.2"/>
<polygon fill="none" stroke="#000000" points="111.5,-42.2 111.5,-61.2 147.5,-61.2 147.5,-42.2 111.5,-42.2"/>
<text text-anchor="start" x="128.9053" y="-48.3" font-family="Helvetica,sans-Serif" font-size="11.00" fill="#000000">1 &gt;</text>
</a>
</g>
</g>
<!-- _constrain&#45;&gt;project.line_xyz -->
<g id="edge1" class="edge">
<title>_constrain:w&#45;&gt;project.line_xyz:e</title>
<path fill="none" stroke="#000000" d="M194.0343,-91.8217C181.0696,-91.1713 167.8146,-89.736 155.1772,-87.936"/>
<polygon fill="#000000" stroke="#000000" points="200.5027,-91.9908 208.4059,-95.7988 204.5014,-92.0954 208.5,-92.2 208.5,-92.2 208.5,-92.2 204.5014,-92.0954 208.5941,-88.6012 200.5027,-91.9908 200.5027,-91.9908"/>
<ellipse fill="none" stroke="#000000" cx="197.3038" cy="-91.9071" rx="3.2" ry="3.2"/>
</g>
<!-- project.points_type -->
<g id="node3" class="node">
<title>project.points_type</title>
<g id="a_node3"><a xlink:title="project.points_type">
<polygon fill="#ffffff" stroke="transparent" points="8,-124.7 8,-185.7 157,-185.7 157,-124.7 8,-124.7"/>
<polygon fill="#f5f5f5" stroke="transparent" points="8.5,-162.2 8.5,-185.2 157.5,-185.2 157.5,-162.2 8.5,-162.2"/>
<polygon fill="none" stroke="#000000" points="8.5,-162.2 8.5,-185.2 157.5,-185.2 157.5,-162.2 8.5,-162.2"/>
<text text-anchor="start" x="13.5" y="-170.8" font-family="Helvetica,sans-Serif" font-weight="bold" font-size="11.00" fill="#000000">project.points_type</text>
<text text-anchor="start" x="123.0219" y="-170.3" font-family="Helvetica,sans-Serif" font-size="11.00" fill="#000000">[table]</text>
<polygon fill="none" stroke="#000000" points="8.5,-143.2 8.5,-162.2 157.5,-162.2 157.5,-143.2 8.5,-143.2"/>
<text text-anchor="start" x="11.5" y="-149.3" font-family="Helvetica,sans-Serif" font-size="11.00" fill="#000000">...</text>
<polygon fill="#ffffff" stroke="transparent" points="8.5,-124.2 8.5,-143.2 59.5,-143.2 59.5,-124.2 8.5,-124.2"/>
<polygon fill="none" stroke="#000000" points="8.5,-124.2 8.5,-143.2 59.5,-143.2 59.5,-124.2 8.5,-124.2"/>
<text text-anchor="start" x="11.5" y="-130.3" font-family="Helvetica,sans-Serif" font-size="11.00" fill="#000000"> &#160;</text>
<polygon fill="#ffffff" stroke="transparent" points="59.5,-124.2 59.5,-143.2 116.5,-143.2 116.5,-124.2 59.5,-124.2"/>
<polygon fill="none" stroke="#000000" points="59.5,-124.2 59.5,-143.2 116.5,-143.2 116.5,-124.2 59.5,-124.2"/>
<text text-anchor="start" x="81.1105" y="-130.3" font-family="Helvetica,sans-Serif" font-size="11.00" fill="#000000">0 rows</text>
<polygon fill="#ffffff" stroke="transparent" points="116.5,-124.2 116.5,-143.2 157.5,-143.2 157.5,-124.2 116.5,-124.2"/>
<polygon fill="none" stroke="#000000" points="116.5,-124.2 116.5,-143.2 157.5,-143.2 157.5,-124.2 116.5,-124.2"/>
<text text-anchor="start" x="138.9053" y="-130.3" font-family="Helvetica,sans-Serif" font-size="11.00" fill="#000000">1 &gt;</text>
</a>
</g>
</g>
<!-- _constrain&#45;&gt;project.points_type -->
<g id="edge2" class="edge">
<title>_constrain:w&#45;&gt;project.points_type:e</title>
<path fill="none" stroke="#000000" d="M193.7865,-136.5909C184.3114,-137.0733 174.6844,-137.9734 165.2596,-139.1271"/>
<polygon fill="#000000" stroke="#000000" points="200.5028,-136.4125 208.5956,-139.7987 204.5014,-136.3062 208.5,-136.2 208.5,-136.2 208.5,-136.2 204.5014,-136.3062 208.4044,-132.6013 200.5028,-136.4125 200.5028,-136.4125"/>
<ellipse fill="none" stroke="#000000" cx="197.3039" cy="-136.4975" rx="3.2" ry="3.2"/>
</g>
<!-- valley_cross_section_geometry -->
<g id="node4" class="node">
<title>valley_cross_section_geometry</title>
<g id="a_node4"><a xlink:href="../../tables/valley_cross_section_geometry.html" xlink:title="valley_cross_section_geometry" target="_top">
<polygon fill="#ffffff" stroke="transparent" points="580,-241.7 580,-368.7 800,-368.7 800,-241.7 580,-241.7"/>
<polygon fill="#f5f5f5" stroke="transparent" points="580,-345.2 580,-368.2 800,-368.2 800,-345.2 580,-345.2"/>
<polygon fill="none" stroke="#000000" points="580,-345.2 580,-368.2 800,-368.2 800,-345.2 580,-345.2"/>
<text text-anchor="start" x="585" y="-353.8" font-family="Helvetica,sans-Serif" font-weight="bold" font-size="11.00" fill="#000000">valley_cross_section_geometry</text>
<text text-anchor="start" x="765.5219" y="-353.3" font-family="Helvetica,sans-Serif" font-size="11.00" fill="#000000">[table]</text>
<polygon fill="none" stroke="#000000" points="580,-323.2 580,-345.2 800,-345.2 800,-323.2 580,-323.2"/>
<image xlink:href="../../images/primaryKeys.png" width="11px" height="12px" preserveAspectRatio="xMinYMin meet" x="585" y="-340.2"/>
<text text-anchor="start" x="609" y="-330.3" font-family="Helvetica,sans-Serif" font-size="11.00" fill="#000000">id</text>
<polygon fill="#ffffff" stroke="transparent" points="580,-301.2 580,-323.2 800,-323.2 800,-301.2 580,-301.2"/>
<polygon fill="none" stroke="#000000" points="580,-301.2 580,-323.2 800,-323.2 800,-301.2 580,-301.2"/>
<text text-anchor="start" x="609" y="-308.3" font-family="Helvetica,sans-Serif" font-size="11.00" fill="#000000">name</text>
<polygon fill="none" stroke="#000000" points="580,-279.2 580,-301.2 800,-301.2 800,-279.2 580,-279.2"/>
<image xlink:href="../../images/foreignKeys.png" width="11px" height="12px" preserveAspectRatio="xMinYMin meet" x="585" y="-296.2"/>
<text text-anchor="start" x="609" y="-286.3" font-family="Helvetica,sans-Serif" font-size="11.00" fill="#000000">transect</text>
<polygon fill="none" stroke="#000000" points="580,-260.2 580,-279.2 800,-279.2 800,-260.2 580,-260.2"/>
<text text-anchor="start" x="583" y="-266.3" font-family="Helvetica,sans-Serif" font-size="11.00" fill="#000000">...</text>
<polygon fill="#ffffff" stroke="transparent" points="580,-241.2 580,-260.2 671,-260.2 671,-241.2 580,-241.2"/>
<polygon fill="none" stroke="#000000" points="580,-241.2 580,-260.2 671,-260.2 671,-241.2 580,-241.2"/>
<text text-anchor="start" x="583" y="-247.3" font-family="Helvetica,sans-Serif" font-size="11.00" fill="#000000">&lt; 1</text>
<polygon fill="#ffffff" stroke="transparent" points="671,-241.2 671,-260.2 744,-260.2 744,-241.2 671,-241.2"/>
<polygon fill="none" stroke="#000000" points="671,-241.2 671,-260.2 744,-260.2 744,-241.2 671,-241.2"/>
<text text-anchor="start" x="708.6105" y="-247.3" font-family="Helvetica,sans-Serif" font-size="11.00" fill="#000000">0 rows</text>
<polygon fill="#ffffff" stroke="transparent" points="744,-241.2 744,-260.2 800,-260.2 800,-241.2 744,-241.2"/>
<polygon fill="none" stroke="#000000" points="744,-241.2 744,-260.2 800,-260.2 800,-241.2 744,-241.2"/>
<text text-anchor="start" x="781.4053" y="-247.3" font-family="Helvetica,sans-Serif" font-size="11.00" fill="#000000">2 &gt;</text>
</a>
</g>
</g>
<!-- valley_cross_section_geometry&#45;&gt;_constrain -->
<g id="edge3" class="edge">
<title>valley_cross_section_geometry:w&#45;&gt;_constrain:e</title>
<path fill="none" stroke="#000000" d="M565.4203,-290.2C553.5435,-290.2 546.158,-290.2 529.5,-290.2"/>
<polygon fill="#000000" stroke="#000000" points="572,-290.2001 580,-293.8 576,-290.2 580,-290.2 580,-290.2 580,-290.2 576,-290.2 580,-286.6 572,-290.2001 572,-290.2001"/>
<ellipse fill="none" stroke="#000000" cx="568.8" cy="-290.2001" rx="3.2" ry="3.2"/>
</g>
</g>
</svg>
