<?xml version="1.0" encoding="UTF-8" standalone="no"?>
<!DOCTYPE svg PUBLIC "-//W3C//DTD SVG 1.1//EN"
 "http://www.w3.org/Graphics/SVG/1.1/DTD/svg11.dtd">
<!-- Generated by graphviz version 2.40.1 (20161225.0304)
 -->
<!-- Title: oneDegreeRelationshipsDiagram Pages: 1 -->
<svg width="453pt" height="245pt"
 viewBox="0.00 0.00 453.00 244.70" xmlns="http://www.w3.org/2000/svg" xmlns:xlink="http://www.w3.org/1999/xlink">
<g id="graph0" class="graph" transform="scale(1 1) rotate(0) translate(4 240.7)">
<title>oneDegreeRelationshipsDiagram</title>
<polygon fill="#ffffff" stroke="transparent" points="-4,4 -4,-240.7 449,-240.7 449,4 -4,4"/>
<text text-anchor="middle" x="72.4936" y="-7.3" font-family="Helvetica,sans-Serif" font-size="11.00" fill="#000000">Generated by SchemaSpy</text>
<!-- _crossroad_node -->
<g id="node1" class="node">
<title>_crossroad_node</title>
<g id="a_node1"><a xlink:href="../../tables/_crossroad_node.html" xlink:title="_crossroad_node" target="_top">
<polygon fill="#ffffff" stroke="transparent" points="154,-76.7 154,-232.7 437,-232.7 437,-76.7 154,-76.7"/>
<polygon fill="#f5f5f5" stroke="transparent" points="156.5,-207.7 156.5,-230.7 435.5,-230.7 435.5,-207.7 156.5,-207.7"/>
<polygon fill="none" stroke="#000000" points="156.5,-207.7 156.5,-230.7 435.5,-230.7 435.5,-207.7 156.5,-207.7"/>
<text text-anchor="start" x="161.5" y="-216.3" font-family="Helvetica,sans-Serif" font-weight="bold" font-size="11.00" fill="#000000">_crossroad_node</text>
<text text-anchor="start" x="400.5437" y="-215.8" font-family="Helvetica,sans-Serif" font-size="11.00" fill="#000000">[table]</text>
<polygon fill="#ffffff" stroke="transparent" points="156.5,-185.7 156.5,-207.7 277.5,-207.7 277.5,-185.7 156.5,-185.7"/>
<polygon fill="none" stroke="#000000" points="156.5,-185.7 156.5,-207.7 277.5,-207.7 277.5,-185.7 156.5,-185.7"/>
<image xlink:href="../../images/foreignKeys.png" width="11px" height="12px" preserveAspectRatio="xMinYMin meet" x="161.5" y="-202.7"/>
<text text-anchor="start" x="176.5" y="-192.8" font-family="Helvetica,sans-Serif" font-size="11.00" fill="#000000">id</text>
<polygon fill="none" stroke="#000000" points="277.5,-185.7 277.5,-207.7 435.5,-207.7 435.5,-185.7 277.5,-185.7"/>
<text text-anchor="start" x="280.5" y="-193.4" font-family="Helvetica,sans-Serif" font-size="11.00" fill="#000000">int4[10]</text>
<polygon fill="none" stroke="#000000" points="156.5,-163.7 156.5,-185.7 277.5,-185.7 277.5,-163.7 156.5,-163.7"/>
<image xlink:href="../../images/foreignKeys.png" width="11px" height="12px" preserveAspectRatio="xMinYMin meet" x="161.5" y="-180.7"/>
<text text-anchor="start" x="176.5" y="-170.8" font-family="Helvetica,sans-Serif" font-size="11.00" fill="#000000">node_type</text>
<polygon fill="none" stroke="#000000" points="277.5,-163.7 277.5,-185.7 435.5,-185.7 435.5,-163.7 277.5,-163.7"/>
<text text-anchor="start" x="280.3773" y="-171.4" font-family="Helvetica,sans-Serif" font-size="11.00" fill="#000000">hydra_node_type[2147483647]</text>
<polygon fill="none" stroke="#000000" points="156.5,-141.7 156.5,-163.7 277.5,-163.7 277.5,-141.7 156.5,-141.7"/>
<text text-anchor="start" x="176.5" y="-148.8" font-family="Helvetica,sans-Serif" font-size="11.00" fill="#000000">area</text>
<polygon fill="none" stroke="#000000" points="277.5,-141.7 277.5,-163.7 435.5,-163.7 435.5,-141.7 277.5,-141.7"/>
<text text-anchor="start" x="280.5" y="-149.4" font-family="Helvetica,sans-Serif" font-size="11.00" fill="#000000">float4[8,8]</text>
<polygon fill="none" stroke="#000000" points="156.5,-119.7 156.5,-141.7 277.5,-141.7 277.5,-119.7 156.5,-119.7"/>
<text text-anchor="start" x="176.5" y="-126.8" font-family="Helvetica,sans-Serif" font-size="11.00" fill="#000000">z_ground</text>
<polygon fill="none" stroke="#000000" points="277.5,-119.7 277.5,-141.7 435.5,-141.7 435.5,-119.7 277.5,-119.7"/>
<text text-anchor="start" x="280.5" y="-127.4" font-family="Helvetica,sans-Serif" font-size="11.00" fill="#000000">float4[8,8]</text>
<polygon fill="none" stroke="#000000" points="156.5,-97.7 156.5,-119.7 277.5,-119.7 277.5,-97.7 156.5,-97.7"/>
<text text-anchor="start" x="176.5" y="-104.8" font-family="Helvetica,sans-Serif" font-size="11.00" fill="#000000">h</text>
<polygon fill="none" stroke="#000000" points="277.5,-97.7 277.5,-119.7 435.5,-119.7 435.5,-97.7 277.5,-97.7"/>
<text text-anchor="start" x="280.5" y="-105.4" font-family="Helvetica,sans-Serif" font-size="11.00" fill="#000000">float4[8,8]</text>
<polygon fill="#ffffff" stroke="transparent" points="156.5,-78.7 156.5,-97.7 208.5,-97.7 208.5,-78.7 156.5,-78.7"/>
<polygon fill="none" stroke="#000000" points="156.5,-78.7 156.5,-97.7 208.5,-97.7 208.5,-78.7 156.5,-78.7"/>
<text text-anchor="start" x="159.5" y="-84.8" font-family="Helvetica,sans-Serif" font-size="11.00" fill="#000000">&lt; 2</text>
<polygon fill="#ffffff" stroke="transparent" points="208.5,-78.7 208.5,-97.7 277.5,-97.7 277.5,-78.7 208.5,-78.7"/>
<polygon fill="none" stroke="#000000" points="208.5,-78.7 208.5,-97.7 277.5,-97.7 277.5,-78.7 208.5,-78.7"/>
<text text-anchor="start" x="242.1105" y="-84.8" font-family="Helvetica,sans-Serif" font-size="11.00" fill="#000000">0 rows</text>
<polygon fill="#ffffff" stroke="transparent" points="277.5,-78.7 277.5,-97.7 435.5,-97.7 435.5,-78.7 277.5,-78.7"/>
<polygon fill="none" stroke="#000000" points="277.5,-78.7 277.5,-97.7 435.5,-97.7 435.5,-78.7 277.5,-78.7"/>
<text text-anchor="start" x="416.9053" y="-84.8" font-family="Helvetica,sans-Serif" font-size="11.00" fill="#000000">0 &gt;</text>
<polygon fill="none" stroke="#000000" stroke-width="2" points="155,-77.7 155,-231.7 436,-231.7 436,-77.7 155,-77.7"/>
</a>
</g>
</g>
<!-- _node -->
<g id="node2" class="node">
<title>_node</title>
<g id="a_node2"><a xlink:href="../../tables/_node.html" xlink:title="_node" target="_top">
<polygon fill="#ffffff" stroke="transparent" points="8,-38.2 8,-231.2 105,-231.2 105,-38.2 8,-38.2"/>
<polygon fill="#f5f5f5" stroke="transparent" points="8.5,-207.7 8.5,-230.7 105.5,-230.7 105.5,-207.7 8.5,-207.7"/>
<polygon fill="none" stroke="#000000" points="8.5,-207.7 8.5,-230.7 105.5,-230.7 105.5,-207.7 8.5,-207.7"/>
<text text-anchor="start" x="13.5" y="-216.3" font-family="Helvetica,sans-Serif" font-weight="bold" font-size="11.00" fill="#000000">_node</text>
<text text-anchor="start" x="70.5437" y="-215.8" font-family="Helvetica,sans-Serif" font-size="11.00" fill="#000000">[table]</text>
<polygon fill="none" stroke="#000000" points="8.5,-185.7 8.5,-207.7 105.5,-207.7 105.5,-185.7 8.5,-185.7"/>
<image xlink:href="../../images/primaryKeys.png" width="11px" height="12px" preserveAspectRatio="xMinYMin meet" x="13.5" y="-202.7"/>
<text text-anchor="start" x="28.5" y="-192.8" font-family="Helvetica,sans-Serif" font-size="11.00" fill="#000000">id</text>
<polygon fill="#ffffff" stroke="transparent" points="8.5,-163.7 8.5,-185.7 105.5,-185.7 105.5,-163.7 8.5,-163.7"/>
<polygon fill="none" stroke="#000000" points="8.5,-163.7 8.5,-185.7 105.5,-185.7 105.5,-163.7 8.5,-163.7"/>
<text text-anchor="start" x="28.5" y="-170.8" font-family="Helvetica,sans-Serif" font-size="11.00" fill="#000000">node_type</text>
<polygon fill="#ffffff" stroke="transparent" points="8.5,-141.7 8.5,-163.7 105.5,-163.7 105.5,-141.7 8.5,-141.7"/>
<polygon fill="none" stroke="#000000" points="8.5,-141.7 8.5,-163.7 105.5,-163.7 105.5,-141.7 8.5,-141.7"/>
<text text-anchor="start" x="28.5" y="-148.8" font-family="Helvetica,sans-Serif" font-size="11.00" fill="#000000">name</text>
<polygon fill="#ffffff" stroke="transparent" points="8.5,-119.7 8.5,-141.7 105.5,-141.7 105.5,-119.7 8.5,-119.7"/>
<polygon fill="none" stroke="#000000" points="8.5,-119.7 8.5,-141.7 105.5,-141.7 105.5,-119.7 8.5,-119.7"/>
<text text-anchor="start" x="28.5" y="-126.8" font-family="Helvetica,sans-Serif" font-size="11.00" fill="#000000">geom</text>
<polygon fill="#ffffff" stroke="transparent" points="8.5,-97.7 8.5,-119.7 105.5,-119.7 105.5,-97.7 8.5,-97.7"/>
<polygon fill="none" stroke="#000000" points="8.5,-97.7 8.5,-119.7 105.5,-119.7 105.5,-97.7 8.5,-97.7"/>
<image xlink:href="../../images/foreignKeys.png" width="11px" height="12px" preserveAspectRatio="xMinYMin meet" x="13.5" y="-114.7"/>
<text text-anchor="start" x="28.5" y="-104.8" font-family="Helvetica,sans-Serif" font-size="11.00" fill="#000000">generated</text>
<polygon fill="#ffffff" stroke="transparent" points="8.5,-75.7 8.5,-97.7 105.5,-97.7 105.5,-75.7 8.5,-75.7"/>
<polygon fill="none" stroke="#000000" points="8.5,-75.7 8.5,-97.7 105.5,-97.7 105.5,-75.7 8.5,-75.7"/>
<text text-anchor="start" x="28.5" y="-82.8" font-family="Helvetica,sans-Serif" font-size="11.00" fill="#000000">validity</text>
<polygon fill="none" stroke="#000000" points="8.5,-56.7 8.5,-75.7 105.5,-75.7 105.5,-56.7 8.5,-56.7"/>
<text text-anchor="start" x="11.5" y="-62.8" font-family="Helvetica,sans-Serif" font-size="11.00" fill="#000000">...</text>
<polygon fill="#ffffff" stroke="transparent" points="8.5,-37.7 8.5,-56.7 34.5,-56.7 34.5,-37.7 8.5,-37.7"/>
<polygon fill="none" stroke="#000000" points="8.5,-37.7 8.5,-56.7 34.5,-56.7 34.5,-37.7 8.5,-37.7"/>
<text text-anchor="start" x="11.5" y="-43.8" font-family="Helvetica,sans-Serif" font-size="11.00" fill="#000000">&lt; 1</text>
<polygon fill="#ffffff" stroke="transparent" points="34.5,-37.7 34.5,-56.7 75.5,-56.7 75.5,-37.7 34.5,-37.7"/>
<polygon fill="none" stroke="#000000" points="34.5,-37.7 34.5,-56.7 75.5,-56.7 75.5,-37.7 34.5,-37.7"/>
<text text-anchor="start" x="40.1105" y="-43.8" font-family="Helvetica,sans-Serif" font-size="11.00" fill="#000000">0 rows</text>
<polygon fill="#ffffff" stroke="transparent" points="75.5,-37.7 75.5,-56.7 105.5,-56.7 105.5,-37.7 75.5,-37.7"/>
<polygon fill="none" stroke="#000000" points="75.5,-37.7 75.5,-56.7 105.5,-56.7 105.5,-37.7 75.5,-37.7"/>
<text text-anchor="start" x="80.7904" y="-43.8" font-family="Helvetica,sans-Serif" font-size="11.00" fill="#000000">24 &gt;</text>
</a>
</g>
</g>
<!-- _crossroad_node&#45;&gt;_node -->
<g id="edge1" class="edge">
<title>_crossroad_node:w&#45;&gt;_node:e</title>
<path fill="none" stroke="#000000" d="M145.7307,-196.7C131.248,-196.7 124.0937,-196.7 105.5,-196.7"/>
<polygon fill="#000000" stroke="#000000" points="155.7,-192.7 155.7,-200.7 154.1,-200.7 154.1,-192.7 155.7,-192.7"/>
<polyline fill="none" stroke="#000000" points="156.5,-196.7 152.5,-196.7 "/>
<ellipse fill="none" stroke="#000000" cx="149.3" cy="-196.7001" rx="3.2" ry="3.2"/>
</g>
<!-- _crossroad_node&#45;&gt;_node -->
<g id="edge2" class="edge">
<title>_crossroad_node:w&#45;&gt;_node:e</title>
<path fill="none" stroke="#000000" d="M141.776,-174.7C129.7815,-174.7 122.3229,-174.7 105.5,-174.7"/>
<polygon fill="#000000" stroke="#000000" points="148.5,-174.7001 156.5,-178.3 152.5,-174.7 156.5,-174.7 156.5,-174.7 156.5,-174.7 152.5,-174.7 156.5,-171.1 148.5,-174.7001 148.5,-174.7001"/>
<ellipse fill="none" stroke="#000000" cx="145.3" cy="-174.7001" rx="3.2" ry="3.2"/>
</g>
</g>
</svg>
