<?xml version="1.0" encoding="UTF-8" standalone="no"?>
<!DOCTYPE svg PUBLIC "-//W3C//DTD SVG 1.1//EN"
 "http://www.w3.org/Graphics/SVG/1.1/DTD/svg11.dtd">
<!-- Generated by graphviz version 2.40.1 (20161225.0304)
 -->
<!-- Title: oneDegreeRelationshipsDiagram Pages: 1 -->
<svg width="448pt" height="371pt"
 viewBox="0.00 0.00 448.00 370.70" xmlns="http://www.w3.org/2000/svg" xmlns:xlink="http://www.w3.org/1999/xlink">
<g id="graph0" class="graph" transform="scale(1 1) rotate(0) translate(4 366.7)">
<title>oneDegreeRelationshipsDiagram</title>
<polygon fill="#ffffff" stroke="transparent" points="-4,4 -4,-366.7 444,-366.7 444,4 -4,4"/>
<text text-anchor="middle" x="72.4936" y="-7.3" font-family="Helvetica,sans-Serif" font-size="11.00" fill="#000000">Generated by SchemaSpy</text>
<!-- _elem_2d_node -->
<g id="node1" class="node">
<title>_elem_2d_node</title>
<g id="a_node1"><a xlink:href="../../tables/_elem_2d_node.html" xlink:title="_elem_2d_node" target="_top">
<polygon fill="#ffffff" stroke="transparent" points="159,-158.7 159,-358.7 432,-358.7 432,-158.7 159,-158.7"/>
<polygon fill="#f5f5f5" stroke="transparent" points="161.5,-333.7 161.5,-356.7 430.5,-356.7 430.5,-333.7 161.5,-333.7"/>
<polygon fill="none" stroke="#000000" points="161.5,-333.7 161.5,-356.7 430.5,-356.7 430.5,-333.7 161.5,-333.7"/>
<text text-anchor="start" x="166.5" y="-342.3" font-family="Helvetica,sans-Serif" font-weight="bold" font-size="11.00" fill="#000000">_elem_2d_node</text>
<text text-anchor="start" x="395.5437" y="-341.8" font-family="Helvetica,sans-Serif" font-size="11.00" fill="#000000">[table]</text>
<polygon fill="#ffffff" stroke="transparent" points="161.5,-311.7 161.5,-333.7 272.5,-333.7 272.5,-311.7 161.5,-311.7"/>
<polygon fill="none" stroke="#000000" points="161.5,-311.7 161.5,-333.7 272.5,-333.7 272.5,-311.7 161.5,-311.7"/>
<image xlink:href="../../images/foreignKeys.png" width="11px" height="12px" preserveAspectRatio="xMinYMin meet" x="166.5" y="-328.7"/>
<text text-anchor="start" x="181.5" y="-318.8" font-family="Helvetica,sans-Serif" font-size="11.00" fill="#000000">id</text>
<polygon fill="none" stroke="#000000" points="272.5,-311.7 272.5,-333.7 430.5,-333.7 430.5,-311.7 272.5,-311.7"/>
<text text-anchor="start" x="275.5" y="-319.4" font-family="Helvetica,sans-Serif" font-size="11.00" fill="#000000">int4[10]</text>
<polygon fill="none" stroke="#000000" points="161.5,-289.7 161.5,-311.7 272.5,-311.7 272.5,-289.7 161.5,-289.7"/>
<image xlink:href="../../images/foreignKeys.png" width="11px" height="12px" preserveAspectRatio="xMinYMin meet" x="166.5" y="-306.7"/>
<text text-anchor="start" x="181.5" y="-296.8" font-family="Helvetica,sans-Serif" font-size="11.00" fill="#000000">node_type</text>
<polygon fill="none" stroke="#000000" points="272.5,-289.7 272.5,-311.7 430.5,-311.7 430.5,-289.7 272.5,-289.7"/>
<text text-anchor="start" x="275.3773" y="-297.4" font-family="Helvetica,sans-Serif" font-size="11.00" fill="#000000">hydra_node_type[2147483647]</text>
<polygon fill="none" stroke="#000000" points="161.5,-267.7 161.5,-289.7 272.5,-289.7 272.5,-267.7 161.5,-267.7"/>
<text text-anchor="start" x="181.5" y="-274.8" font-family="Helvetica,sans-Serif" font-size="11.00" fill="#000000">area</text>
<polygon fill="none" stroke="#000000" points="272.5,-267.7 272.5,-289.7 430.5,-289.7 430.5,-267.7 272.5,-267.7"/>
<text text-anchor="start" x="275.5" y="-275.4" font-family="Helvetica,sans-Serif" font-size="11.00" fill="#000000">float4[8,8]</text>
<polygon fill="none" stroke="#000000" points="161.5,-245.7 161.5,-267.7 272.5,-267.7 272.5,-245.7 161.5,-245.7"/>
<text text-anchor="start" x="181.5" y="-252.8" font-family="Helvetica,sans-Serif" font-size="11.00" fill="#000000">zb</text>
<polygon fill="none" stroke="#000000" points="272.5,-245.7 272.5,-267.7 430.5,-267.7 430.5,-245.7 272.5,-245.7"/>
<text text-anchor="start" x="275.5" y="-253.4" font-family="Helvetica,sans-Serif" font-size="11.00" fill="#000000">float4[8,8]</text>
<polygon fill="none" stroke="#000000" points="161.5,-223.7 161.5,-245.7 272.5,-245.7 272.5,-223.7 161.5,-223.7"/>
<text text-anchor="start" x="181.5" y="-230.8" font-family="Helvetica,sans-Serif" font-size="11.00" fill="#000000">rk</text>
<polygon fill="none" stroke="#000000" points="272.5,-223.7 272.5,-245.7 430.5,-245.7 430.5,-223.7 272.5,-223.7"/>
<text text-anchor="start" x="275.5" y="-231.4" font-family="Helvetica,sans-Serif" font-size="11.00" fill="#000000">float4[8,8]</text>
<polygon fill="none" stroke="#000000" points="161.5,-201.7 161.5,-223.7 272.5,-223.7 272.5,-201.7 161.5,-201.7"/>
<image xlink:href="../../images/foreignKeys.png" width="11px" height="12px" preserveAspectRatio="xMinYMin meet" x="166.5" y="-218.7"/>
<text text-anchor="start" x="181.5" y="-208.8" font-family="Helvetica,sans-Serif" font-size="11.00" fill="#000000">domain_2d</text>
<polygon fill="none" stroke="#000000" points="272.5,-201.7 272.5,-223.7 430.5,-223.7 430.5,-201.7 272.5,-201.7"/>
<text text-anchor="start" x="275.5" y="-209.4" font-family="Helvetica,sans-Serif" font-size="11.00" fill="#000000">int4[10]</text>
<polygon fill="#ffffff" stroke="transparent" points="161.5,-179.7 161.5,-201.7 272.5,-201.7 272.5,-179.7 161.5,-179.7"/>
<polygon fill="none" stroke="#000000" points="161.5,-179.7 161.5,-201.7 272.5,-201.7 272.5,-179.7 161.5,-179.7"/>
<text text-anchor="start" x="181.5" y="-186.8" font-family="Helvetica,sans-Serif" font-size="11.00" fill="#000000">contour</text>
<polygon fill="none" stroke="#000000" points="272.5,-179.7 272.5,-201.7 430.5,-201.7 430.5,-179.7 272.5,-179.7"/>
<text text-anchor="start" x="275.5" y="-187.4" font-family="Helvetica,sans-Serif" font-size="11.00" fill="#000000">geometry[2147483647]</text>
<polygon fill="#ffffff" stroke="transparent" points="161.5,-160.7 161.5,-179.7 208.5,-179.7 208.5,-160.7 161.5,-160.7"/>
<polygon fill="none" stroke="#000000" points="161.5,-160.7 161.5,-179.7 208.5,-179.7 208.5,-160.7 161.5,-160.7"/>
<text text-anchor="start" x="164.5" y="-166.8" font-family="Helvetica,sans-Serif" font-size="11.00" fill="#000000">&lt; 3</text>
<polygon fill="#ffffff" stroke="transparent" points="208.5,-160.7 208.5,-179.7 272.5,-179.7 272.5,-160.7 208.5,-160.7"/>
<polygon fill="none" stroke="#000000" points="208.5,-160.7 208.5,-179.7 272.5,-179.7 272.5,-160.7 208.5,-160.7"/>
<text text-anchor="start" x="237.1105" y="-166.8" font-family="Helvetica,sans-Serif" font-size="11.00" fill="#000000">0 rows</text>
<polygon fill="#ffffff" stroke="transparent" points="272.5,-160.7 272.5,-179.7 430.5,-179.7 430.5,-160.7 272.5,-160.7"/>
<polygon fill="none" stroke="#000000" points="272.5,-160.7 272.5,-179.7 430.5,-179.7 430.5,-160.7 272.5,-160.7"/>
<text text-anchor="start" x="411.9053" y="-166.8" font-family="Helvetica,sans-Serif" font-size="11.00" fill="#000000">0 &gt;</text>
<polygon fill="none" stroke="#000000" stroke-width="2" points="160,-159.7 160,-357.7 431,-357.7 431,-159.7 160,-159.7"/>
</a>
</g>
</g>
<!-- domain_2d -->
<g id="node2" class="node">
<title>domain_2d</title>
<g id="a_node2"><a xlink:href="../../tables/domain_2d.html" xlink:title="domain_2d" target="_top">
<polygon fill="#ffffff" stroke="transparent" points="8,-38.2 8,-143.2 110,-143.2 110,-38.2 8,-38.2"/>
<polygon fill="#f5f5f5" stroke="transparent" points="8,-119.7 8,-142.7 110,-142.7 110,-119.7 8,-119.7"/>
<polygon fill="none" stroke="#000000" points="8,-119.7 8,-142.7 110,-142.7 110,-119.7 8,-119.7"/>
<text text-anchor="start" x="13" y="-128.3" font-family="Helvetica,sans-Serif" font-weight="bold" font-size="11.00" fill="#000000">domain_2d</text>
<text text-anchor="start" x="75.5219" y="-127.8" font-family="Helvetica,sans-Serif" font-size="11.00" fill="#000000">[table]</text>
<polygon fill="none" stroke="#000000" points="8,-97.7 8,-119.7 110,-119.7 110,-97.7 8,-97.7"/>
<image xlink:href="../../images/primaryKeys.png" width="11px" height="12px" preserveAspectRatio="xMinYMin meet" x="13" y="-114.7"/>
<text text-anchor="start" x="37" y="-104.8" font-family="Helvetica,sans-Serif" font-size="11.00" fill="#000000">id</text>
<polygon fill="#ffffff" stroke="transparent" points="8,-75.7 8,-97.7 110,-97.7 110,-75.7 8,-75.7"/>
<polygon fill="none" stroke="#000000" points="8,-75.7 8,-97.7 110,-97.7 110,-75.7 8,-75.7"/>
<text text-anchor="start" x="37" y="-82.8" font-family="Helvetica,sans-Serif" font-size="11.00" fill="#000000">name</text>
<polygon fill="none" stroke="#000000" points="8,-56.7 8,-75.7 110,-75.7 110,-56.7 8,-56.7"/>
<text text-anchor="start" x="11" y="-62.8" font-family="Helvetica,sans-Serif" font-size="11.00" fill="#000000">...</text>
<polygon fill="#ffffff" stroke="transparent" points="8,-37.7 8,-56.7 35,-56.7 35,-37.7 8,-37.7"/>
<polygon fill="none" stroke="#000000" points="8,-37.7 8,-56.7 35,-56.7 35,-37.7 8,-37.7"/>
<text text-anchor="start" x="11" y="-43.8" font-family="Helvetica,sans-Serif" font-size="11.00" fill="#000000"> &#160;</text>
<polygon fill="#ffffff" stroke="transparent" points="35,-37.7 35,-56.7 81,-56.7 81,-37.7 35,-37.7"/>
<polygon fill="none" stroke="#000000" points="35,-37.7 35,-56.7 81,-56.7 81,-37.7 35,-37.7"/>
<text text-anchor="start" x="45.6105" y="-43.8" font-family="Helvetica,sans-Serif" font-size="11.00" fill="#000000">0 rows</text>
<polygon fill="#ffffff" stroke="transparent" points="81,-37.7 81,-56.7 110,-56.7 110,-37.7 81,-37.7"/>
<polygon fill="none" stroke="#000000" points="81,-37.7 81,-56.7 110,-56.7 110,-37.7 81,-37.7"/>
<text text-anchor="start" x="91.4053" y="-43.8" font-family="Helvetica,sans-Serif" font-size="11.00" fill="#000000">2 &gt;</text>
</a>
</g>
</g>
<!-- _elem_2d_node&#45;&gt;domain_2d -->
<g id="edge1" class="edge">
<title>_elem_2d_node:w&#45;&gt;domain_2d:e</title>
<path fill="none" stroke="#000000" d="M147.2877,-208.7501C120.6106,-189.7532 155.5346,-108.7 110,-108.7"/>
<polygon fill="#000000" stroke="#000000" points="153.7921,-210.5578 160.536,-216.1685 157.6461,-211.6289 161.5,-212.7 161.5,-212.7 161.5,-212.7 157.6461,-211.6289 162.464,-209.2315 153.7921,-210.5578 153.7921,-210.5578"/>
<ellipse fill="none" stroke="#000000" cx="150.709" cy="-209.7009" rx="3.2" ry="3.2"/>
</g>
<!-- _node -->
<g id="node3" class="node">
<title>_node</title>
<g id="a_node3"><a xlink:href="../../tables/_node.html" xlink:title="_node" target="_top">
<polygon fill="#ffffff" stroke="transparent" points="10.5,-164.2 10.5,-357.2 107.5,-357.2 107.5,-164.2 10.5,-164.2"/>
<polygon fill="#f5f5f5" stroke="transparent" points="11,-333.7 11,-356.7 108,-356.7 108,-333.7 11,-333.7"/>
<polygon fill="none" stroke="#000000" points="11,-333.7 11,-356.7 108,-356.7 108,-333.7 11,-333.7"/>
<text text-anchor="start" x="16" y="-342.3" font-family="Helvetica,sans-Serif" font-weight="bold" font-size="11.00" fill="#000000">_node</text>
<text text-anchor="start" x="73.0437" y="-341.8" font-family="Helvetica,sans-Serif" font-size="11.00" fill="#000000">[table]</text>
<polygon fill="none" stroke="#000000" points="11,-311.7 11,-333.7 108,-333.7 108,-311.7 11,-311.7"/>
<image xlink:href="../../images/primaryKeys.png" width="11px" height="12px" preserveAspectRatio="xMinYMin meet" x="16" y="-328.7"/>
<text text-anchor="start" x="31" y="-318.8" font-family="Helvetica,sans-Serif" font-size="11.00" fill="#000000">id</text>
<polygon fill="#ffffff" stroke="transparent" points="11,-289.7 11,-311.7 108,-311.7 108,-289.7 11,-289.7"/>
<polygon fill="none" stroke="#000000" points="11,-289.7 11,-311.7 108,-311.7 108,-289.7 11,-289.7"/>
<text text-anchor="start" x="31" y="-296.8" font-family="Helvetica,sans-Serif" font-size="11.00" fill="#000000">node_type</text>
<polygon fill="#ffffff" stroke="transparent" points="11,-267.7 11,-289.7 108,-289.7 108,-267.7 11,-267.7"/>
<polygon fill="none" stroke="#000000" points="11,-267.7 11,-289.7 108,-289.7 108,-267.7 11,-267.7"/>
<text text-anchor="start" x="31" y="-274.8" font-family="Helvetica,sans-Serif" font-size="11.00" fill="#000000">name</text>
<polygon fill="#ffffff" stroke="transparent" points="11,-245.7 11,-267.7 108,-267.7 108,-245.7 11,-245.7"/>
<polygon fill="none" stroke="#000000" points="11,-245.7 11,-267.7 108,-267.7 108,-245.7 11,-245.7"/>
<text text-anchor="start" x="31" y="-252.8" font-family="Helvetica,sans-Serif" font-size="11.00" fill="#000000">geom</text>
<polygon fill="#ffffff" stroke="transparent" points="11,-223.7 11,-245.7 108,-245.7 108,-223.7 11,-223.7"/>
<polygon fill="none" stroke="#000000" points="11,-223.7 11,-245.7 108,-245.7 108,-223.7 11,-223.7"/>
<image xlink:href="../../images/foreignKeys.png" width="11px" height="12px" preserveAspectRatio="xMinYMin meet" x="16" y="-240.7"/>
<text text-anchor="start" x="31" y="-230.8" font-family="Helvetica,sans-Serif" font-size="11.00" fill="#000000">generated</text>
<polygon fill="#ffffff" stroke="transparent" points="11,-201.7 11,-223.7 108,-223.7 108,-201.7 11,-201.7"/>
<polygon fill="none" stroke="#000000" points="11,-201.7 11,-223.7 108,-223.7 108,-201.7 11,-201.7"/>
<text text-anchor="start" x="31" y="-208.8" font-family="Helvetica,sans-Serif" font-size="11.00" fill="#000000">validity</text>
<polygon fill="none" stroke="#000000" points="11,-182.7 11,-201.7 108,-201.7 108,-182.7 11,-182.7"/>
<text text-anchor="start" x="14" y="-188.8" font-family="Helvetica,sans-Serif" font-size="11.00" fill="#000000">...</text>
<polygon fill="#ffffff" stroke="transparent" points="11,-163.7 11,-182.7 37,-182.7 37,-163.7 11,-163.7"/>
<polygon fill="none" stroke="#000000" points="11,-163.7 11,-182.7 37,-182.7 37,-163.7 11,-163.7"/>
<text text-anchor="start" x="14" y="-169.8" font-family="Helvetica,sans-Serif" font-size="11.00" fill="#000000">&lt; 1</text>
<polygon fill="#ffffff" stroke="transparent" points="37,-163.7 37,-182.7 78,-182.7 78,-163.7 37,-163.7"/>
<polygon fill="none" stroke="#000000" points="37,-163.7 37,-182.7 78,-182.7 78,-163.7 37,-163.7"/>
<text text-anchor="start" x="42.6105" y="-169.8" font-family="Helvetica,sans-Serif" font-size="11.00" fill="#000000">0 rows</text>
<polygon fill="#ffffff" stroke="transparent" points="78,-163.7 78,-182.7 108,-182.7 108,-163.7 78,-163.7"/>
<polygon fill="none" stroke="#000000" points="78,-163.7 78,-182.7 108,-182.7 108,-163.7 78,-163.7"/>
<text text-anchor="start" x="83.2904" y="-169.8" font-family="Helvetica,sans-Serif" font-size="11.00" fill="#000000">24 &gt;</text>
</a>
</g>
</g>
<!-- _elem_2d_node&#45;&gt;_node -->
<g id="edge2" class="edge">
<title>_elem_2d_node:w&#45;&gt;_node:e</title>
<path fill="none" stroke="#000000" d="M151.0794,-322.7C135.2917,-322.7 127.8767,-322.7 108,-322.7"/>
<polygon fill="#000000" stroke="#000000" points="160.7,-318.7 160.7,-326.7 159.1,-326.7 159.1,-318.7 160.7,-318.7"/>
<polyline fill="none" stroke="#000000" points="161.5,-322.7 157.5,-322.7 "/>
<ellipse fill="none" stroke="#000000" cx="154.3" cy="-322.7001" rx="3.2" ry="3.2"/>
</g>
<!-- _elem_2d_node&#45;&gt;_node -->
<g id="edge3" class="edge">
<title>_elem_2d_node:w&#45;&gt;_node:e</title>
<path fill="none" stroke="#000000" d="M146.8553,-300.7C133.7969,-300.7 126.0191,-300.7 108,-300.7"/>
<polygon fill="#000000" stroke="#000000" points="153.5,-300.7001 161.5,-304.3 157.5,-300.7 161.5,-300.7 161.5,-300.7 161.5,-300.7 157.5,-300.7 161.5,-297.1 153.5,-300.7001 153.5,-300.7001"/>
<ellipse fill="none" stroke="#000000" cx="150.3" cy="-300.7001" rx="3.2" ry="3.2"/>
</g>
</g>
</svg>
