<?xml version="1.0" encoding="UTF-8" standalone="no"?>
<!DOCTYPE svg PUBLIC "-//W3C//DTD SVG 1.1//EN"
 "http://www.w3.org/Graphics/SVG/1.1/DTD/svg11.dtd">
<!-- Generated by graphviz version 2.40.1 (20161225.0304)
 -->
<!-- Title: oneDegreeRelationshipsDiagram Pages: 1 -->
<svg width="546pt" height="333pt"
 viewBox="0.00 0.00 546.00 332.70" xmlns="http://www.w3.org/2000/svg" xmlns:xlink="http://www.w3.org/1999/xlink">
<g id="graph0" class="graph" transform="scale(1 1) rotate(0) translate(4 328.7)">
<title>oneDegreeRelationshipsDiagram</title>
<polygon fill="#ffffff" stroke="transparent" points="-4,4 -4,-328.7 542,-328.7 542,4 -4,4"/>
<text text-anchor="middle" x="72.4936" y="-7.3" font-family="Helvetica,sans-Serif" font-size="11.00" fill="#000000">Generated by SchemaSpy</text>
<!-- _fuse_spillway_link -->
<g id="node1" class="node">
<title>_fuse_spillway_link</title>
<g id="a_node1"><a xlink:href="../../tables/_fuse_spillway_link.html" xlink:title="_fuse_spillway_link" target="_top">
<polygon fill="#ffffff" stroke="transparent" points="154,-54.7 154,-320.7 530,-320.7 530,-54.7 154,-54.7"/>
<polygon fill="#f5f5f5" stroke="transparent" points="156,-295.7 156,-318.7 528,-318.7 528,-295.7 156,-295.7"/>
<polygon fill="none" stroke="#000000" points="156,-295.7 156,-318.7 528,-318.7 528,-295.7 156,-295.7"/>
<text text-anchor="start" x="161" y="-304.3" font-family="Helvetica,sans-Serif" font-weight="bold" font-size="11.00" fill="#000000">_fuse_spillway_link</text>
<text text-anchor="start" x="493.0437" y="-303.8" font-family="Helvetica,sans-Serif" font-size="11.00" fill="#000000">[table]</text>
<polygon fill="#ffffff" stroke="transparent" points="156,-273.7 156,-295.7 289,-295.7 289,-273.7 156,-273.7"/>
<polygon fill="none" stroke="#000000" points="156,-273.7 156,-295.7 289,-295.7 289,-273.7 156,-273.7"/>
<image xlink:href="../../images/foreignKeys.png" width="11px" height="12px" preserveAspectRatio="xMinYMin meet" x="161" y="-290.7"/>
<text text-anchor="start" x="176" y="-280.8" font-family="Helvetica,sans-Serif" font-size="11.00" fill="#000000">id</text>
<polygon fill="none" stroke="#000000" points="289,-273.7 289,-295.7 528,-295.7 528,-273.7 289,-273.7"/>
<text text-anchor="start" x="292" y="-281.4" font-family="Helvetica,sans-Serif" font-size="11.00" fill="#000000">int4[10]</text>
<polygon fill="none" stroke="#000000" points="156,-251.7 156,-273.7 289,-273.7 289,-251.7 156,-251.7"/>
<image xlink:href="../../images/foreignKeys.png" width="11px" height="12px" preserveAspectRatio="xMinYMin meet" x="161" y="-268.7"/>
<text text-anchor="start" x="176" y="-258.8" font-family="Helvetica,sans-Serif" font-size="11.00" fill="#000000">link_type</text>
<polygon fill="none" stroke="#000000" points="289,-251.7 289,-273.7 528,-273.7 528,-251.7 289,-251.7"/>
<text text-anchor="start" x="292" y="-259.4" font-family="Helvetica,sans-Serif" font-size="11.00" fill="#000000">hydra_link_type[2147483647]</text>
<polygon fill="none" stroke="#000000" points="156,-229.7 156,-251.7 289,-251.7 289,-229.7 156,-229.7"/>
<text text-anchor="start" x="176" y="-236.8" font-family="Helvetica,sans-Serif" font-size="11.00" fill="#000000">z_invert</text>
<polygon fill="none" stroke="#000000" points="289,-229.7 289,-251.7 528,-251.7 528,-229.7 289,-229.7"/>
<text text-anchor="start" x="292" y="-237.4" font-family="Helvetica,sans-Serif" font-size="11.00" fill="#000000">float4[8,8]</text>
<polygon fill="none" stroke="#000000" points="156,-207.7 156,-229.7 289,-229.7 289,-207.7 156,-207.7"/>
<text text-anchor="start" x="176" y="-214.8" font-family="Helvetica,sans-Serif" font-size="11.00" fill="#000000">width</text>
<polygon fill="none" stroke="#000000" points="289,-207.7 289,-229.7 528,-229.7 528,-207.7 289,-207.7"/>
<text text-anchor="start" x="292" y="-215.4" font-family="Helvetica,sans-Serif" font-size="11.00" fill="#000000">float4[8,8]</text>
<polygon fill="none" stroke="#000000" points="156,-185.7 156,-207.7 289,-207.7 289,-185.7 156,-185.7"/>
<text text-anchor="start" x="176" y="-192.8" font-family="Helvetica,sans-Serif" font-size="11.00" fill="#000000">cc</text>
<polygon fill="none" stroke="#000000" points="289,-185.7 289,-207.7 528,-207.7 528,-185.7 289,-185.7"/>
<text text-anchor="start" x="292" y="-193.4" font-family="Helvetica,sans-Serif" font-size="11.00" fill="#000000">float4[8,8]</text>
<polygon fill="none" stroke="#000000" points="156,-163.7 156,-185.7 289,-185.7 289,-163.7 156,-163.7"/>
<text text-anchor="start" x="176" y="-170.8" font-family="Helvetica,sans-Serif" font-size="11.00" fill="#000000">break_mode</text>
<polygon fill="none" stroke="#000000" points="289,-163.7 289,-185.7 528,-185.7 528,-163.7 289,-163.7"/>
<text text-anchor="start" x="291.7388" y="-171.4" font-family="Helvetica,sans-Serif" font-size="11.00" fill="#000000">hydra_fuse_spillway_break_mode[2147483647]</text>
<polygon fill="none" stroke="#000000" points="156,-141.7 156,-163.7 289,-163.7 289,-141.7 156,-141.7"/>
<text text-anchor="start" x="176" y="-148.8" font-family="Helvetica,sans-Serif" font-size="11.00" fill="#000000">z_break</text>
<polygon fill="none" stroke="#000000" points="289,-141.7 289,-163.7 528,-163.7 528,-141.7 289,-141.7"/>
<text text-anchor="start" x="292" y="-149.4" font-family="Helvetica,sans-Serif" font-size="11.00" fill="#000000">float4[8,8]</text>
<polygon fill="none" stroke="#000000" points="156,-119.7 156,-141.7 289,-141.7 289,-119.7 156,-119.7"/>
<text text-anchor="start" x="176" y="-126.8" font-family="Helvetica,sans-Serif" font-size="11.00" fill="#000000">t_break</text>
<polygon fill="none" stroke="#000000" points="289,-119.7 289,-141.7 528,-141.7 528,-119.7 289,-119.7"/>
<text text-anchor="start" x="292" y="-127.4" font-family="Helvetica,sans-Serif" font-size="11.00" fill="#000000">float4[8,8]</text>
<polygon fill="none" stroke="#000000" points="156,-97.7 156,-119.7 289,-119.7 289,-97.7 156,-97.7"/>
<text text-anchor="start" x="176" y="-104.8" font-family="Helvetica,sans-Serif" font-size="11.00" fill="#000000">grp</text>
<polygon fill="none" stroke="#000000" points="289,-97.7 289,-119.7 528,-119.7 528,-97.7 289,-97.7"/>
<text text-anchor="start" x="292" y="-105.4" font-family="Helvetica,sans-Serif" font-size="11.00" fill="#000000">int4[10]</text>
<polygon fill="none" stroke="#000000" points="156,-75.7 156,-97.7 289,-97.7 289,-75.7 156,-75.7"/>
<text text-anchor="start" x="176" y="-82.8" font-family="Helvetica,sans-Serif" font-size="11.00" fill="#000000">dt_fracw_array</text>
<polygon fill="none" stroke="#000000" points="289,-75.7 289,-97.7 528,-97.7 528,-75.7 289,-75.7"/>
<text text-anchor="start" x="292" y="-83.4" font-family="Helvetica,sans-Serif" font-size="11.00" fill="#000000">_float4[8,8]</text>
<polygon fill="#ffffff" stroke="transparent" points="156,-56.7 156,-75.7 214,-75.7 214,-56.7 156,-56.7"/>
<polygon fill="none" stroke="#000000" points="156,-56.7 156,-75.7 214,-75.7 214,-56.7 156,-56.7"/>
<text text-anchor="start" x="159" y="-62.8" font-family="Helvetica,sans-Serif" font-size="11.00" fill="#000000">&lt; 2</text>
<polygon fill="#ffffff" stroke="transparent" points="214,-56.7 214,-75.7 289,-75.7 289,-56.7 214,-56.7"/>
<polygon fill="none" stroke="#000000" points="214,-56.7 214,-75.7 289,-75.7 289,-56.7 214,-56.7"/>
<text text-anchor="start" x="253.6105" y="-62.8" font-family="Helvetica,sans-Serif" font-size="11.00" fill="#000000">0 rows</text>
<polygon fill="#ffffff" stroke="transparent" points="289,-56.7 289,-75.7 528,-75.7 528,-56.7 289,-56.7"/>
<polygon fill="none" stroke="#000000" points="289,-56.7 289,-75.7 528,-75.7 528,-56.7 289,-56.7"/>
<text text-anchor="start" x="509.4053" y="-62.8" font-family="Helvetica,sans-Serif" font-size="11.00" fill="#000000">0 &gt;</text>
<polygon fill="none" stroke="#000000" stroke-width="2" points="155,-55.7 155,-319.7 529,-319.7 529,-55.7 155,-55.7"/>
</a>
</g>
</g>
<!-- _link -->
<g id="node2" class="node">
<title>_link</title>
<g id="a_node2"><a xlink:href="../../tables/_link.html" xlink:title="_link" target="_top">
<polygon fill="#ffffff" stroke="transparent" points="8,-38.2 8,-319.2 105,-319.2 105,-38.2 8,-38.2"/>
<polygon fill="#f5f5f5" stroke="transparent" points="8.5,-295.7 8.5,-318.7 105.5,-318.7 105.5,-295.7 8.5,-295.7"/>
<polygon fill="none" stroke="#000000" points="8.5,-295.7 8.5,-318.7 105.5,-318.7 105.5,-295.7 8.5,-295.7"/>
<text text-anchor="start" x="13.5" y="-304.3" font-family="Helvetica,sans-Serif" font-weight="bold" font-size="11.00" fill="#000000">_link</text>
<text text-anchor="start" x="70.5437" y="-303.8" font-family="Helvetica,sans-Serif" font-size="11.00" fill="#000000">[table]</text>
<polygon fill="none" stroke="#000000" points="8.5,-273.7 8.5,-295.7 105.5,-295.7 105.5,-273.7 8.5,-273.7"/>
<image xlink:href="../../images/primaryKeys.png" width="11px" height="12px" preserveAspectRatio="xMinYMin meet" x="13.5" y="-290.7"/>
<text text-anchor="start" x="28.5" y="-280.8" font-family="Helvetica,sans-Serif" font-size="11.00" fill="#000000">id</text>
<polygon fill="#ffffff" stroke="transparent" points="8.5,-251.7 8.5,-273.7 105.5,-273.7 105.5,-251.7 8.5,-251.7"/>
<polygon fill="none" stroke="#000000" points="8.5,-251.7 8.5,-273.7 105.5,-273.7 105.5,-251.7 8.5,-251.7"/>
<text text-anchor="start" x="28.5" y="-258.8" font-family="Helvetica,sans-Serif" font-size="11.00" fill="#000000">link_type</text>
<polygon fill="#ffffff" stroke="transparent" points="8.5,-229.7 8.5,-251.7 105.5,-251.7 105.5,-229.7 8.5,-229.7"/>
<polygon fill="none" stroke="#000000" points="8.5,-229.7 8.5,-251.7 105.5,-251.7 105.5,-229.7 8.5,-229.7"/>
<text text-anchor="start" x="28.5" y="-236.8" font-family="Helvetica,sans-Serif" font-size="11.00" fill="#000000">name</text>
<polygon fill="#ffffff" stroke="transparent" points="8.5,-207.7 8.5,-229.7 105.5,-229.7 105.5,-207.7 8.5,-207.7"/>
<polygon fill="none" stroke="#000000" points="8.5,-207.7 8.5,-229.7 105.5,-229.7 105.5,-207.7 8.5,-207.7"/>
<image xlink:href="../../images/foreignKeys.png" width="11px" height="12px" preserveAspectRatio="xMinYMin meet" x="13.5" y="-224.7"/>
<text text-anchor="start" x="28.5" y="-214.8" font-family="Helvetica,sans-Serif" font-size="11.00" fill="#000000">generated</text>
<polygon fill="#ffffff" stroke="transparent" points="8.5,-185.7 8.5,-207.7 105.5,-207.7 105.5,-185.7 8.5,-185.7"/>
<polygon fill="none" stroke="#000000" points="8.5,-185.7 8.5,-207.7 105.5,-207.7 105.5,-185.7 8.5,-185.7"/>
<image xlink:href="../../images/foreignKeys.png" width="11px" height="12px" preserveAspectRatio="xMinYMin meet" x="13.5" y="-202.7"/>
<text text-anchor="start" x="28.5" y="-192.8" font-family="Helvetica,sans-Serif" font-size="11.00" fill="#000000">up</text>
<polygon fill="none" stroke="#000000" points="8.5,-163.7 8.5,-185.7 105.5,-185.7 105.5,-163.7 8.5,-163.7"/>
<image xlink:href="../../images/foreignKeys.png" width="11px" height="12px" preserveAspectRatio="xMinYMin meet" x="13.5" y="-180.7"/>
<text text-anchor="start" x="28.5" y="-170.8" font-family="Helvetica,sans-Serif" font-size="11.00" fill="#000000">up_type</text>
<polygon fill="#ffffff" stroke="transparent" points="8.5,-141.7 8.5,-163.7 105.5,-163.7 105.5,-141.7 8.5,-141.7"/>
<polygon fill="none" stroke="#000000" points="8.5,-141.7 8.5,-163.7 105.5,-163.7 105.5,-141.7 8.5,-141.7"/>
<image xlink:href="../../images/foreignKeys.png" width="11px" height="12px" preserveAspectRatio="xMinYMin meet" x="13.5" y="-158.7"/>
<text text-anchor="start" x="28.5" y="-148.8" font-family="Helvetica,sans-Serif" font-size="11.00" fill="#000000">down</text>
<polygon fill="none" stroke="#000000" points="8.5,-119.7 8.5,-141.7 105.5,-141.7 105.5,-119.7 8.5,-119.7"/>
<image xlink:href="../../images/foreignKeys.png" width="11px" height="12px" preserveAspectRatio="xMinYMin meet" x="13.5" y="-136.7"/>
<text text-anchor="start" x="28.5" y="-126.8" font-family="Helvetica,sans-Serif" font-size="11.00" fill="#000000">down_type</text>
<polygon fill="#ffffff" stroke="transparent" points="8.5,-97.7 8.5,-119.7 105.5,-119.7 105.5,-97.7 8.5,-97.7"/>
<polygon fill="none" stroke="#000000" points="8.5,-97.7 8.5,-119.7 105.5,-119.7 105.5,-97.7 8.5,-97.7"/>
<text text-anchor="start" x="28.5" y="-104.8" font-family="Helvetica,sans-Serif" font-size="11.00" fill="#000000">geom</text>
<polygon fill="#ffffff" stroke="transparent" points="8.5,-75.7 8.5,-97.7 105.5,-97.7 105.5,-75.7 8.5,-75.7"/>
<polygon fill="none" stroke="#000000" points="8.5,-75.7 8.5,-97.7 105.5,-97.7 105.5,-75.7 8.5,-75.7"/>
<text text-anchor="start" x="28.5" y="-82.8" font-family="Helvetica,sans-Serif" font-size="11.00" fill="#000000">validity</text>
<polygon fill="none" stroke="#000000" points="8.5,-56.7 8.5,-75.7 105.5,-75.7 105.5,-56.7 8.5,-56.7"/>
<text text-anchor="start" x="11.5" y="-62.8" font-family="Helvetica,sans-Serif" font-size="11.00" fill="#000000">...</text>
<polygon fill="#ffffff" stroke="transparent" points="8.5,-37.7 8.5,-56.7 34.5,-56.7 34.5,-37.7 8.5,-37.7"/>
<polygon fill="none" stroke="#000000" points="8.5,-37.7 8.5,-56.7 34.5,-56.7 34.5,-37.7 8.5,-37.7"/>
<text text-anchor="start" x="11.5" y="-43.8" font-family="Helvetica,sans-Serif" font-size="11.00" fill="#000000">&lt; 5</text>
<polygon fill="#ffffff" stroke="transparent" points="34.5,-37.7 34.5,-56.7 75.5,-56.7 75.5,-37.7 34.5,-37.7"/>
<polygon fill="none" stroke="#000000" points="34.5,-37.7 34.5,-56.7 75.5,-56.7 75.5,-37.7 34.5,-37.7"/>
<text text-anchor="start" x="40.1105" y="-43.8" font-family="Helvetica,sans-Serif" font-size="11.00" fill="#000000">0 rows</text>
<polygon fill="#ffffff" stroke="transparent" points="75.5,-37.7 75.5,-56.7 105.5,-56.7 105.5,-37.7 75.5,-37.7"/>
<polygon fill="none" stroke="#000000" points="75.5,-37.7 75.5,-56.7 105.5,-56.7 105.5,-37.7 75.5,-37.7"/>
<text text-anchor="start" x="80.7904" y="-43.8" font-family="Helvetica,sans-Serif" font-size="11.00" fill="#000000">60 &gt;</text>
</a>
</g>
</g>
<!-- _fuse_spillway_link&#45;&gt;_link -->
<g id="edge1" class="edge">
<title>_fuse_spillway_link:w&#45;&gt;_link:e</title>
<path fill="none" stroke="#000000" d="M145.3362,-284.7C130.9956,-284.7 123.9115,-284.7 105.5,-284.7"/>
<polygon fill="#000000" stroke="#000000" points="155.2,-280.7 155.2,-288.7 153.6,-288.7 153.6,-280.7 155.2,-280.7"/>
<polyline fill="none" stroke="#000000" points="156,-284.7 152,-284.7 "/>
<ellipse fill="none" stroke="#000000" cx="148.8" cy="-284.7001" rx="3.2" ry="3.2"/>
</g>
<!-- _fuse_spillway_link&#45;&gt;_link -->
<g id="edge2" class="edge">
<title>_fuse_spillway_link:w&#45;&gt;_link:e</title>
<path fill="none" stroke="#000000" d="M141.4203,-262.7C129.5435,-262.7 122.158,-262.7 105.5,-262.7"/>
<polygon fill="#000000" stroke="#000000" points="148,-262.7001 156,-266.3 152,-262.7 156,-262.7 156,-262.7 156,-262.7 152,-262.7 156,-259.1 148,-262.7001 148,-262.7001"/>
<ellipse fill="none" stroke="#000000" cx="144.8" cy="-262.7001" rx="3.2" ry="3.2"/>
</g>
</g>
</svg>
