<?xml version="1.0" encoding="UTF-8" standalone="no"?>
<!DOCTYPE svg PUBLIC "-//W3C//DTD SVG 1.1//EN"
 "http://www.w3.org/Graphics/SVG/1.1/DTD/svg11.dtd">
<!-- Generated by graphviz version 2.40.1 (20161225.0304)
 -->
<!-- Title: oneDegreeRelationshipsDiagram Pages: 1 -->
<svg width="612pt" height="360pt"
 viewBox="0.00 0.00 612.00 360.20" xmlns="http://www.w3.org/2000/svg" xmlns:xlink="http://www.w3.org/1999/xlink">
<g id="graph0" class="graph" transform="scale(1 1) rotate(0) translate(4 356.2)">
<title>oneDegreeRelationshipsDiagram</title>
<polygon fill="#ffffff" stroke="transparent" points="-4,4 -4,-356.2 608,-356.2 608,4 -4,4"/>
<text text-anchor="middle" x="72.4936" y="-7.3" font-family="Helvetica,sans-Serif" font-size="11.00" fill="#000000">Generated by SchemaSpy</text>
<!-- _gate_singularity -->
<g id="node1" class="node">
<title>_gate_singularity</title>
<g id="a_node1"><a xlink:href="../../tables/_gate_singularity.html" xlink:title="_gate_singularity" target="_top">
<polygon fill="#ffffff" stroke="transparent" points="170,-38.2 170,-348.2 596,-348.2 596,-38.2 170,-38.2"/>
<polygon fill="#f5f5f5" stroke="transparent" points="172,-323.2 172,-346.2 594,-346.2 594,-323.2 172,-323.2"/>
<polygon fill="none" stroke="#000000" points="172,-323.2 172,-346.2 594,-346.2 594,-323.2 172,-323.2"/>
<text text-anchor="start" x="177" y="-331.8" font-family="Helvetica,sans-Serif" font-weight="bold" font-size="11.00" fill="#000000">_gate_singularity</text>
<text text-anchor="start" x="559.0437" y="-331.3" font-family="Helvetica,sans-Serif" font-size="11.00" fill="#000000">[table]</text>
<polygon fill="#ffffff" stroke="transparent" points="172,-301.2 172,-323.2 404,-323.2 404,-301.2 172,-301.2"/>
<polygon fill="none" stroke="#000000" points="172,-301.2 172,-323.2 404,-323.2 404,-301.2 172,-301.2"/>
<image xlink:href="../../images/foreignKeys.png" width="11px" height="12px" preserveAspectRatio="xMinYMin meet" x="177" y="-318.2"/>
<text text-anchor="start" x="192" y="-308.3" font-family="Helvetica,sans-Serif" font-size="11.00" fill="#000000">id</text>
<polygon fill="none" stroke="#000000" points="404,-301.2 404,-323.2 594,-323.2 594,-301.2 404,-301.2"/>
<text text-anchor="start" x="407" y="-308.9" font-family="Helvetica,sans-Serif" font-size="11.00" fill="#000000">int4[10]</text>
<polygon fill="none" stroke="#000000" points="172,-279.2 172,-301.2 404,-301.2 404,-279.2 172,-279.2"/>
<image xlink:href="../../images/foreignKeys.png" width="11px" height="12px" preserveAspectRatio="xMinYMin meet" x="177" y="-296.2"/>
<text text-anchor="start" x="192" y="-286.3" font-family="Helvetica,sans-Serif" font-size="11.00" fill="#000000">singularity_type</text>
<polygon fill="none" stroke="#000000" points="404,-279.2 404,-301.2 594,-301.2 594,-279.2 404,-279.2"/>
<text text-anchor="start" x="407" y="-286.9" font-family="Helvetica,sans-Serif" font-size="11.00" fill="#000000">hydra_singularity_type[2147483647]</text>
<polygon fill="none" stroke="#000000" points="172,-257.2 172,-279.2 404,-279.2 404,-257.2 172,-257.2"/>
<text text-anchor="start" x="192" y="-264.3" font-family="Helvetica,sans-Serif" font-size="11.00" fill="#000000">z_invert</text>
<polygon fill="none" stroke="#000000" points="404,-257.2 404,-279.2 594,-279.2 594,-257.2 404,-257.2"/>
<text text-anchor="start" x="407" y="-264.9" font-family="Helvetica,sans-Serif" font-size="11.00" fill="#000000">float4[8,8]</text>
<polygon fill="none" stroke="#000000" points="172,-235.2 172,-257.2 404,-257.2 404,-235.2 172,-235.2"/>
<text text-anchor="start" x="192" y="-242.3" font-family="Helvetica,sans-Serif" font-size="11.00" fill="#000000">z_ceiling</text>
<polygon fill="none" stroke="#000000" points="404,-235.2 404,-257.2 594,-257.2 594,-235.2 404,-235.2"/>
<text text-anchor="start" x="407" y="-242.9" font-family="Helvetica,sans-Serif" font-size="11.00" fill="#000000">float4[8,8]</text>
<polygon fill="none" stroke="#000000" points="172,-213.2 172,-235.2 404,-235.2 404,-213.2 172,-213.2"/>
<text text-anchor="start" x="192" y="-220.3" font-family="Helvetica,sans-Serif" font-size="11.00" fill="#000000">width</text>
<polygon fill="none" stroke="#000000" points="404,-213.2 404,-235.2 594,-235.2 594,-213.2 404,-213.2"/>
<text text-anchor="start" x="407" y="-220.9" font-family="Helvetica,sans-Serif" font-size="11.00" fill="#000000">float4[8,8]</text>
<polygon fill="none" stroke="#000000" points="172,-191.2 172,-213.2 404,-213.2 404,-191.2 172,-191.2"/>
<text text-anchor="start" x="192" y="-198.3" font-family="Helvetica,sans-Serif" font-size="11.00" fill="#000000">cc</text>
<polygon fill="none" stroke="#000000" points="404,-191.2 404,-213.2 594,-213.2 594,-191.2 404,-191.2"/>
<text text-anchor="start" x="407" y="-198.9" font-family="Helvetica,sans-Serif" font-size="11.00" fill="#000000">float4[8,8]</text>
<polygon fill="none" stroke="#000000" points="172,-169.2 172,-191.2 404,-191.2 404,-169.2 172,-169.2"/>
<text text-anchor="start" x="192" y="-176.3" font-family="Helvetica,sans-Serif" font-size="11.00" fill="#000000">action_gate_type</text>
<polygon fill="none" stroke="#000000" points="404,-169.2 404,-191.2 594,-191.2 594,-169.2 404,-169.2"/>
<text text-anchor="start" x="406.6776" y="-176.9" font-family="Helvetica,sans-Serif" font-size="11.00" fill="#000000">hydra_action_gate_type[2147483647]</text>
<polygon fill="none" stroke="#000000" points="172,-147.2 172,-169.2 404,-169.2 404,-147.2 172,-147.2"/>
<text text-anchor="start" x="192" y="-154.3" font-family="Helvetica,sans-Serif" font-size="11.00" fill="#000000">mode_valve</text>
<polygon fill="none" stroke="#000000" points="404,-147.2 404,-169.2 594,-169.2 594,-147.2 404,-147.2"/>
<text text-anchor="start" x="407" y="-154.9" font-family="Helvetica,sans-Serif" font-size="11.00" fill="#000000">hydra_valve_mode[2147483647]</text>
<polygon fill="none" stroke="#000000" points="172,-125.2 172,-147.2 404,-147.2 404,-125.2 172,-125.2"/>
<text text-anchor="start" x="192" y="-132.3" font-family="Helvetica,sans-Serif" font-size="11.00" fill="#000000">z_gate</text>
<polygon fill="none" stroke="#000000" points="404,-125.2 404,-147.2 594,-147.2 594,-125.2 404,-125.2"/>
<text text-anchor="start" x="407" y="-132.9" font-family="Helvetica,sans-Serif" font-size="11.00" fill="#000000">float4[8,8]</text>
<polygon fill="none" stroke="#000000" points="172,-103.2 172,-125.2 404,-125.2 404,-103.2 172,-103.2"/>
<text text-anchor="start" x="192" y="-110.3" font-family="Helvetica,sans-Serif" font-size="11.00" fill="#000000">v_max_cms</text>
<polygon fill="none" stroke="#000000" points="404,-103.2 404,-125.2 594,-125.2 594,-103.2 404,-103.2"/>
<text text-anchor="start" x="407" y="-110.9" font-family="Helvetica,sans-Serif" font-size="11.00" fill="#000000">float4[8,8]</text>
<polygon fill="none" stroke="#000000" points="172,-81.2 172,-103.2 404,-103.2 404,-81.2 172,-81.2"/>
<text text-anchor="start" x="192" y="-88.3" font-family="Helvetica,sans-Serif" font-size="11.00" fill="#000000">full_section_discharge_for_headloss</text>
<polygon fill="none" stroke="#000000" points="404,-81.2 404,-103.2 594,-103.2 594,-81.2 404,-81.2"/>
<text text-anchor="start" x="407" y="-88.9" font-family="Helvetica,sans-Serif" font-size="11.00" fill="#000000">bool[1]</text>
<polygon fill="none" stroke="#000000" points="172,-59.2 172,-81.2 404,-81.2 404,-59.2 172,-59.2"/>
<text text-anchor="start" x="192" y="-66.3" font-family="Helvetica,sans-Serif" font-size="11.00" fill="#000000">cc_submerged</text>
<polygon fill="none" stroke="#000000" points="404,-59.2 404,-81.2 594,-81.2 594,-59.2 404,-59.2"/>
<text text-anchor="start" x="407" y="-66.9" font-family="Helvetica,sans-Serif" font-size="11.00" fill="#000000">float4[8,8]</text>
<polygon fill="#ffffff" stroke="transparent" points="172,-40.2 172,-59.2 279,-59.2 279,-40.2 172,-40.2"/>
<polygon fill="none" stroke="#000000" points="172,-40.2 172,-59.2 279,-59.2 279,-40.2 172,-40.2"/>
<text text-anchor="start" x="175" y="-46.3" font-family="Helvetica,sans-Serif" font-size="11.00" fill="#000000">&lt; 2</text>
<polygon fill="#ffffff" stroke="transparent" points="279,-40.2 279,-59.2 404,-59.2 404,-40.2 279,-40.2"/>
<polygon fill="none" stroke="#000000" points="279,-40.2 279,-59.2 404,-59.2 404,-40.2 279,-40.2"/>
<text text-anchor="start" x="368.6105" y="-46.3" font-family="Helvetica,sans-Serif" font-size="11.00" fill="#000000">0 rows</text>
<polygon fill="#ffffff" stroke="transparent" points="404,-40.2 404,-59.2 594,-59.2 594,-40.2 404,-40.2"/>
<polygon fill="none" stroke="#000000" points="404,-40.2 404,-59.2 594,-59.2 594,-40.2 404,-40.2"/>
<text text-anchor="start" x="575.4053" y="-46.3" font-family="Helvetica,sans-Serif" font-size="11.00" fill="#000000">0 &gt;</text>
<polygon fill="none" stroke="#000000" stroke-width="2" points="171,-39.2 171,-347.2 595,-347.2 595,-39.2 171,-39.2"/>
</a>
</g>
</g>
<!-- _singularity -->
<g id="node2" class="node">
<title>_singularity</title>
<g id="a_node2"><a xlink:href="../../tables/_singularity.html" xlink:title="_singularity" target="_top">
<polygon fill="#ffffff" stroke="transparent" points="8,-153.7 8,-346.7 121,-346.7 121,-153.7 8,-153.7"/>
<polygon fill="#f5f5f5" stroke="transparent" points="8.5,-323.2 8.5,-346.2 121.5,-346.2 121.5,-323.2 8.5,-323.2"/>
<polygon fill="none" stroke="#000000" points="8.5,-323.2 8.5,-346.2 121.5,-346.2 121.5,-323.2 8.5,-323.2"/>
<text text-anchor="start" x="13.5" y="-331.8" font-family="Helvetica,sans-Serif" font-weight="bold" font-size="11.00" fill="#000000">_singularity</text>
<text text-anchor="start" x="86.5437" y="-331.3" font-family="Helvetica,sans-Serif" font-size="11.00" fill="#000000">[table]</text>
<polygon fill="none" stroke="#000000" points="8.5,-301.2 8.5,-323.2 121.5,-323.2 121.5,-301.2 8.5,-301.2"/>
<image xlink:href="../../images/primaryKeys.png" width="11px" height="12px" preserveAspectRatio="xMinYMin meet" x="13.5" y="-318.2"/>
<text text-anchor="start" x="28.5" y="-308.3" font-family="Helvetica,sans-Serif" font-size="11.00" fill="#000000">id</text>
<polygon fill="#ffffff" stroke="transparent" points="8.5,-279.2 8.5,-301.2 121.5,-301.2 121.5,-279.2 8.5,-279.2"/>
<polygon fill="none" stroke="#000000" points="8.5,-279.2 8.5,-301.2 121.5,-301.2 121.5,-279.2 8.5,-279.2"/>
<text text-anchor="start" x="28.5" y="-286.3" font-family="Helvetica,sans-Serif" font-size="11.00" fill="#000000">singularity_type</text>
<polygon fill="#ffffff" stroke="transparent" points="8.5,-257.2 8.5,-279.2 121.5,-279.2 121.5,-257.2 8.5,-257.2"/>
<polygon fill="none" stroke="#000000" points="8.5,-257.2 8.5,-279.2 121.5,-279.2 121.5,-257.2 8.5,-257.2"/>
<text text-anchor="start" x="28.5" y="-264.3" font-family="Helvetica,sans-Serif" font-size="11.00" fill="#000000">name</text>
<polygon fill="#ffffff" stroke="transparent" points="8.5,-235.2 8.5,-257.2 121.5,-257.2 121.5,-235.2 8.5,-235.2"/>
<polygon fill="none" stroke="#000000" points="8.5,-235.2 8.5,-257.2 121.5,-257.2 121.5,-235.2 8.5,-235.2"/>
<image xlink:href="../../images/foreignKeys.png" width="11px" height="12px" preserveAspectRatio="xMinYMin meet" x="13.5" y="-252.2"/>
<text text-anchor="start" x="28.5" y="-242.3" font-family="Helvetica,sans-Serif" font-size="11.00" fill="#000000">node</text>
<polygon fill="none" stroke="#000000" points="8.5,-213.2 8.5,-235.2 121.5,-235.2 121.5,-213.2 8.5,-213.2"/>
<image xlink:href="../../images/foreignKeys.png" width="11px" height="12px" preserveAspectRatio="xMinYMin meet" x="13.5" y="-230.2"/>
<text text-anchor="start" x="28.5" y="-220.3" font-family="Helvetica,sans-Serif" font-size="11.00" fill="#000000">node_type</text>
<polygon fill="#ffffff" stroke="transparent" points="8.5,-191.2 8.5,-213.2 121.5,-213.2 121.5,-191.2 8.5,-191.2"/>
<polygon fill="none" stroke="#000000" points="8.5,-191.2 8.5,-213.2 121.5,-213.2 121.5,-191.2 8.5,-191.2"/>
<text text-anchor="start" x="28.5" y="-198.3" font-family="Helvetica,sans-Serif" font-size="11.00" fill="#000000">validity</text>
<polygon fill="none" stroke="#000000" points="8.5,-172.2 8.5,-191.2 121.5,-191.2 121.5,-172.2 8.5,-172.2"/>
<text text-anchor="start" x="11.5" y="-178.3" font-family="Helvetica,sans-Serif" font-size="11.00" fill="#000000">...</text>
<polygon fill="#ffffff" stroke="transparent" points="8.5,-153.2 8.5,-172.2 42.5,-172.2 42.5,-153.2 8.5,-153.2"/>
<polygon fill="none" stroke="#000000" points="8.5,-153.2 8.5,-172.2 42.5,-172.2 42.5,-153.2 8.5,-153.2"/>
<text text-anchor="start" x="11.5" y="-159.3" font-family="Helvetica,sans-Serif" font-size="11.00" fill="#000000">&lt; 2</text>
<polygon fill="#ffffff" stroke="transparent" points="42.5,-153.2 42.5,-172.2 87.5,-172.2 87.5,-153.2 42.5,-153.2"/>
<polygon fill="none" stroke="#000000" points="42.5,-153.2 42.5,-172.2 87.5,-172.2 87.5,-153.2 42.5,-153.2"/>
<text text-anchor="start" x="52.1105" y="-159.3" font-family="Helvetica,sans-Serif" font-size="11.00" fill="#000000">0 rows</text>
<polygon fill="#ffffff" stroke="transparent" points="87.5,-153.2 87.5,-172.2 121.5,-172.2 121.5,-153.2 87.5,-153.2"/>
<polygon fill="none" stroke="#000000" points="87.5,-153.2 87.5,-172.2 121.5,-172.2 121.5,-153.2 87.5,-153.2"/>
<text text-anchor="start" x="96.7904" y="-159.3" font-family="Helvetica,sans-Serif" font-size="11.00" fill="#000000">52 &gt;</text>
</a>
</g>
</g>
<!-- _gate_singularity&#45;&gt;_singularity -->
<g id="edge1" class="edge">
<title>_gate_singularity:w&#45;&gt;_singularity:e</title>
<path fill="none" stroke="#000000" d="M161.3362,-312.2C146.9956,-312.2 139.9115,-312.2 121.5,-312.2"/>
<polygon fill="#000000" stroke="#000000" points="171.2,-308.2 171.2,-316.2 169.6,-316.2 169.6,-308.2 171.2,-308.2"/>
<polyline fill="none" stroke="#000000" points="172,-312.2 168,-312.2 "/>
<ellipse fill="none" stroke="#000000" cx="164.8" cy="-312.2001" rx="3.2" ry="3.2"/>
</g>
<!-- _gate_singularity&#45;&gt;_singularity -->
<g id="edge2" class="edge">
<title>_gate_singularity:w&#45;&gt;_singularity:e</title>
<path fill="none" stroke="#000000" d="M157.4203,-290.2C145.5435,-290.2 138.158,-290.2 121.5,-290.2"/>
<polygon fill="#000000" stroke="#000000" points="164,-290.2001 172,-293.8 168,-290.2 172,-290.2 172,-290.2 172,-290.2 168,-290.2 172,-286.6 164,-290.2001 164,-290.2001"/>
<ellipse fill="none" stroke="#000000" cx="160.8" cy="-290.2001" rx="3.2" ry="3.2"/>
</g>
</g>
</svg>
