<?xml version="1.0" encoding="UTF-8" standalone="no"?>
<!DOCTYPE svg PUBLIC "-//W3C//DTD SVG 1.1//EN"
 "http://www.w3.org/Graphics/SVG/1.1/DTD/svg11.dtd">
<!-- Generated by graphviz version 2.40.1 (20161225.0304)
 -->
<!-- Title: oneDegreeRelationshipsDiagram Pages: 1 -->
<svg width="483pt" height="338pt"
 viewBox="0.00 0.00 483.00 338.20" xmlns="http://www.w3.org/2000/svg" xmlns:xlink="http://www.w3.org/1999/xlink">
<g id="graph0" class="graph" transform="scale(1 1) rotate(0) translate(4 334.2)">
<title>oneDegreeRelationshipsDiagram</title>
<polygon fill="#ffffff" stroke="transparent" points="-4,4 -4,-334.2 479,-334.2 479,4 -4,4"/>
<text text-anchor="middle" x="72.4936" y="-7.3" font-family="Helvetica,sans-Serif" font-size="11.00" fill="#000000">Generated by SchemaSpy</text>
<!-- _gate_link -->
<g id="node1" class="node">
<title>_gate_link</title>
<g id="a_node1"><a xlink:href="../../tables/_gate_link.html" xlink:title="_gate_link" target="_top">
<polygon fill="#ffffff" stroke="transparent" points="154,-38.2 154,-326.2 467,-326.2 467,-38.2 154,-38.2"/>
<polygon fill="#f5f5f5" stroke="transparent" points="156.5,-301.2 156.5,-324.2 465.5,-324.2 465.5,-301.2 156.5,-301.2"/>
<polygon fill="none" stroke="#000000" points="156.5,-301.2 156.5,-324.2 465.5,-324.2 465.5,-301.2 156.5,-301.2"/>
<text text-anchor="start" x="161.5" y="-309.8" font-family="Helvetica,sans-Serif" font-weight="bold" font-size="11.00" fill="#000000">_gate_link</text>
<text text-anchor="start" x="430.5437" y="-309.3" font-family="Helvetica,sans-Serif" font-size="11.00" fill="#000000">[table]</text>
<polygon fill="#ffffff" stroke="transparent" points="156.5,-279.2 156.5,-301.2 275.5,-301.2 275.5,-279.2 156.5,-279.2"/>
<polygon fill="none" stroke="#000000" points="156.5,-279.2 156.5,-301.2 275.5,-301.2 275.5,-279.2 156.5,-279.2"/>
<image xlink:href="../../images/foreignKeys.png" width="11px" height="12px" preserveAspectRatio="xMinYMin meet" x="161.5" y="-296.2"/>
<text text-anchor="start" x="176.5" y="-286.3" font-family="Helvetica,sans-Serif" font-size="11.00" fill="#000000">id</text>
<polygon fill="none" stroke="#000000" points="275.5,-279.2 275.5,-301.2 465.5,-301.2 465.5,-279.2 275.5,-279.2"/>
<text text-anchor="start" x="278.5" y="-286.9" font-family="Helvetica,sans-Serif" font-size="11.00" fill="#000000">int4[10]</text>
<polygon fill="none" stroke="#000000" points="156.5,-257.2 156.5,-279.2 275.5,-279.2 275.5,-257.2 156.5,-257.2"/>
<image xlink:href="../../images/foreignKeys.png" width="11px" height="12px" preserveAspectRatio="xMinYMin meet" x="161.5" y="-274.2"/>
<text text-anchor="start" x="176.5" y="-264.3" font-family="Helvetica,sans-Serif" font-size="11.00" fill="#000000">link_type</text>
<polygon fill="none" stroke="#000000" points="275.5,-257.2 275.5,-279.2 465.5,-279.2 465.5,-257.2 275.5,-257.2"/>
<text text-anchor="start" x="278.5" y="-264.9" font-family="Helvetica,sans-Serif" font-size="11.00" fill="#000000">hydra_link_type[2147483647]</text>
<polygon fill="none" stroke="#000000" points="156.5,-235.2 156.5,-257.2 275.5,-257.2 275.5,-235.2 156.5,-235.2"/>
<text text-anchor="start" x="176.5" y="-242.3" font-family="Helvetica,sans-Serif" font-size="11.00" fill="#000000">z_invert</text>
<polygon fill="none" stroke="#000000" points="275.5,-235.2 275.5,-257.2 465.5,-257.2 465.5,-235.2 275.5,-235.2"/>
<text text-anchor="start" x="278.5" y="-242.9" font-family="Helvetica,sans-Serif" font-size="11.00" fill="#000000">float4[8,8]</text>
<polygon fill="none" stroke="#000000" points="156.5,-213.2 156.5,-235.2 275.5,-235.2 275.5,-213.2 156.5,-213.2"/>
<text text-anchor="start" x="176.5" y="-220.3" font-family="Helvetica,sans-Serif" font-size="11.00" fill="#000000">z_ceiling</text>
<polygon fill="none" stroke="#000000" points="275.5,-213.2 275.5,-235.2 465.5,-235.2 465.5,-213.2 275.5,-213.2"/>
<text text-anchor="start" x="278.5" y="-220.9" font-family="Helvetica,sans-Serif" font-size="11.00" fill="#000000">float4[8,8]</text>
<polygon fill="none" stroke="#000000" points="156.5,-191.2 156.5,-213.2 275.5,-213.2 275.5,-191.2 156.5,-191.2"/>
<text text-anchor="start" x="176.5" y="-198.3" font-family="Helvetica,sans-Serif" font-size="11.00" fill="#000000">width</text>
<polygon fill="none" stroke="#000000" points="275.5,-191.2 275.5,-213.2 465.5,-213.2 465.5,-191.2 275.5,-191.2"/>
<text text-anchor="start" x="278.5" y="-198.9" font-family="Helvetica,sans-Serif" font-size="11.00" fill="#000000">float4[8,8]</text>
<polygon fill="none" stroke="#000000" points="156.5,-169.2 156.5,-191.2 275.5,-191.2 275.5,-169.2 156.5,-169.2"/>
<text text-anchor="start" x="176.5" y="-176.3" font-family="Helvetica,sans-Serif" font-size="11.00" fill="#000000">cc</text>
<polygon fill="none" stroke="#000000" points="275.5,-169.2 275.5,-191.2 465.5,-191.2 465.5,-169.2 275.5,-169.2"/>
<text text-anchor="start" x="278.5" y="-176.9" font-family="Helvetica,sans-Serif" font-size="11.00" fill="#000000">float4[8,8]</text>
<polygon fill="none" stroke="#000000" points="156.5,-147.2 156.5,-169.2 275.5,-169.2 275.5,-147.2 156.5,-147.2"/>
<text text-anchor="start" x="176.5" y="-154.3" font-family="Helvetica,sans-Serif" font-size="11.00" fill="#000000">action_gate_type</text>
<polygon fill="none" stroke="#000000" points="275.5,-147.2 275.5,-169.2 465.5,-169.2 465.5,-147.2 275.5,-147.2"/>
<text text-anchor="start" x="278.1776" y="-154.9" font-family="Helvetica,sans-Serif" font-size="11.00" fill="#000000">hydra_action_gate_type[2147483647]</text>
<polygon fill="none" stroke="#000000" points="156.5,-125.2 156.5,-147.2 275.5,-147.2 275.5,-125.2 156.5,-125.2"/>
<text text-anchor="start" x="176.5" y="-132.3" font-family="Helvetica,sans-Serif" font-size="11.00" fill="#000000">mode_valve</text>
<polygon fill="none" stroke="#000000" points="275.5,-125.2 275.5,-147.2 465.5,-147.2 465.5,-125.2 275.5,-125.2"/>
<text text-anchor="start" x="278.5" y="-132.9" font-family="Helvetica,sans-Serif" font-size="11.00" fill="#000000">hydra_valve_mode[2147483647]</text>
<polygon fill="none" stroke="#000000" points="156.5,-103.2 156.5,-125.2 275.5,-125.2 275.5,-103.2 156.5,-103.2"/>
<text text-anchor="start" x="176.5" y="-110.3" font-family="Helvetica,sans-Serif" font-size="11.00" fill="#000000">z_gate</text>
<polygon fill="none" stroke="#000000" points="275.5,-103.2 275.5,-125.2 465.5,-125.2 465.5,-103.2 275.5,-103.2"/>
<text text-anchor="start" x="278.5" y="-110.9" font-family="Helvetica,sans-Serif" font-size="11.00" fill="#000000">float4[8,8]</text>
<polygon fill="none" stroke="#000000" points="156.5,-81.2 156.5,-103.2 275.5,-103.2 275.5,-81.2 156.5,-81.2"/>
<text text-anchor="start" x="176.5" y="-88.3" font-family="Helvetica,sans-Serif" font-size="11.00" fill="#000000">v_max_cms</text>
<polygon fill="none" stroke="#000000" points="275.5,-81.2 275.5,-103.2 465.5,-103.2 465.5,-81.2 275.5,-81.2"/>
<text text-anchor="start" x="278.5" y="-88.9" font-family="Helvetica,sans-Serif" font-size="11.00" fill="#000000">float4[8,8]</text>
<polygon fill="none" stroke="#000000" points="156.5,-59.2 156.5,-81.2 275.5,-81.2 275.5,-59.2 156.5,-59.2"/>
<text text-anchor="start" x="176.5" y="-66.3" font-family="Helvetica,sans-Serif" font-size="11.00" fill="#000000">cc_submerged</text>
<polygon fill="none" stroke="#000000" points="275.5,-59.2 275.5,-81.2 465.5,-81.2 465.5,-59.2 275.5,-59.2"/>
<text text-anchor="start" x="278.5" y="-66.9" font-family="Helvetica,sans-Serif" font-size="11.00" fill="#000000">float4[8,8]</text>
<polygon fill="#ffffff" stroke="transparent" points="156.5,-40.2 156.5,-59.2 207.5,-59.2 207.5,-40.2 156.5,-40.2"/>
<polygon fill="none" stroke="#000000" points="156.5,-40.2 156.5,-59.2 207.5,-59.2 207.5,-40.2 156.5,-40.2"/>
<text text-anchor="start" x="159.5" y="-46.3" font-family="Helvetica,sans-Serif" font-size="11.00" fill="#000000">&lt; 2</text>
<polygon fill="#ffffff" stroke="transparent" points="207.5,-40.2 207.5,-59.2 275.5,-59.2 275.5,-40.2 207.5,-40.2"/>
<polygon fill="none" stroke="#000000" points="207.5,-40.2 207.5,-59.2 275.5,-59.2 275.5,-40.2 207.5,-40.2"/>
<text text-anchor="start" x="240.1105" y="-46.3" font-family="Helvetica,sans-Serif" font-size="11.00" fill="#000000">0 rows</text>
<polygon fill="#ffffff" stroke="transparent" points="275.5,-40.2 275.5,-59.2 465.5,-59.2 465.5,-40.2 275.5,-40.2"/>
<polygon fill="none" stroke="#000000" points="275.5,-40.2 275.5,-59.2 465.5,-59.2 465.5,-40.2 275.5,-40.2"/>
<text text-anchor="start" x="446.9053" y="-46.3" font-family="Helvetica,sans-Serif" font-size="11.00" fill="#000000">0 &gt;</text>
<polygon fill="none" stroke="#000000" stroke-width="2" points="155,-39.2 155,-325.2 466,-325.2 466,-39.2 155,-39.2"/>
</a>
</g>
</g>
<!-- _link -->
<g id="node2" class="node">
<title>_link</title>
<g id="a_node2"><a xlink:href="../../tables/_link.html" xlink:title="_link" target="_top">
<polygon fill="#ffffff" stroke="transparent" points="8,-43.7 8,-324.7 105,-324.7 105,-43.7 8,-43.7"/>
<polygon fill="#f5f5f5" stroke="transparent" points="8.5,-301.2 8.5,-324.2 105.5,-324.2 105.5,-301.2 8.5,-301.2"/>
<polygon fill="none" stroke="#000000" points="8.5,-301.2 8.5,-324.2 105.5,-324.2 105.5,-301.2 8.5,-301.2"/>
<text text-anchor="start" x="13.5" y="-309.8" font-family="Helvetica,sans-Serif" font-weight="bold" font-size="11.00" fill="#000000">_link</text>
<text text-anchor="start" x="70.5437" y="-309.3" font-family="Helvetica,sans-Serif" font-size="11.00" fill="#000000">[table]</text>
<polygon fill="none" stroke="#000000" points="8.5,-279.2 8.5,-301.2 105.5,-301.2 105.5,-279.2 8.5,-279.2"/>
<image xlink:href="../../images/primaryKeys.png" width="11px" height="12px" preserveAspectRatio="xMinYMin meet" x="13.5" y="-296.2"/>
<text text-anchor="start" x="28.5" y="-286.3" font-family="Helvetica,sans-Serif" font-size="11.00" fill="#000000">id</text>
<polygon fill="#ffffff" stroke="transparent" points="8.5,-257.2 8.5,-279.2 105.5,-279.2 105.5,-257.2 8.5,-257.2"/>
<polygon fill="none" stroke="#000000" points="8.5,-257.2 8.5,-279.2 105.5,-279.2 105.5,-257.2 8.5,-257.2"/>
<text text-anchor="start" x="28.5" y="-264.3" font-family="Helvetica,sans-Serif" font-size="11.00" fill="#000000">link_type</text>
<polygon fill="#ffffff" stroke="transparent" points="8.5,-235.2 8.5,-257.2 105.5,-257.2 105.5,-235.2 8.5,-235.2"/>
<polygon fill="none" stroke="#000000" points="8.5,-235.2 8.5,-257.2 105.5,-257.2 105.5,-235.2 8.5,-235.2"/>
<text text-anchor="start" x="28.5" y="-242.3" font-family="Helvetica,sans-Serif" font-size="11.00" fill="#000000">name</text>
<polygon fill="#ffffff" stroke="transparent" points="8.5,-213.2 8.5,-235.2 105.5,-235.2 105.5,-213.2 8.5,-213.2"/>
<polygon fill="none" stroke="#000000" points="8.5,-213.2 8.5,-235.2 105.5,-235.2 105.5,-213.2 8.5,-213.2"/>
<image xlink:href="../../images/foreignKeys.png" width="11px" height="12px" preserveAspectRatio="xMinYMin meet" x="13.5" y="-230.2"/>
<text text-anchor="start" x="28.5" y="-220.3" font-family="Helvetica,sans-Serif" font-size="11.00" fill="#000000">generated</text>
<polygon fill="#ffffff" stroke="transparent" points="8.5,-191.2 8.5,-213.2 105.5,-213.2 105.5,-191.2 8.5,-191.2"/>
<polygon fill="none" stroke="#000000" points="8.5,-191.2 8.5,-213.2 105.5,-213.2 105.5,-191.2 8.5,-191.2"/>
<image xlink:href="../../images/foreignKeys.png" width="11px" height="12px" preserveAspectRatio="xMinYMin meet" x="13.5" y="-208.2"/>
<text text-anchor="start" x="28.5" y="-198.3" font-family="Helvetica,sans-Serif" font-size="11.00" fill="#000000">up</text>
<polygon fill="none" stroke="#000000" points="8.5,-169.2 8.5,-191.2 105.5,-191.2 105.5,-169.2 8.5,-169.2"/>
<image xlink:href="../../images/foreignKeys.png" width="11px" height="12px" preserveAspectRatio="xMinYMin meet" x="13.5" y="-186.2"/>
<text text-anchor="start" x="28.5" y="-176.3" font-family="Helvetica,sans-Serif" font-size="11.00" fill="#000000">up_type</text>
<polygon fill="#ffffff" stroke="transparent" points="8.5,-147.2 8.5,-169.2 105.5,-169.2 105.5,-147.2 8.5,-147.2"/>
<polygon fill="none" stroke="#000000" points="8.5,-147.2 8.5,-169.2 105.5,-169.2 105.5,-147.2 8.5,-147.2"/>
<image xlink:href="../../images/foreignKeys.png" width="11px" height="12px" preserveAspectRatio="xMinYMin meet" x="13.5" y="-164.2"/>
<text text-anchor="start" x="28.5" y="-154.3" font-family="Helvetica,sans-Serif" font-size="11.00" fill="#000000">down</text>
<polygon fill="none" stroke="#000000" points="8.5,-125.2 8.5,-147.2 105.5,-147.2 105.5,-125.2 8.5,-125.2"/>
<image xlink:href="../../images/foreignKeys.png" width="11px" height="12px" preserveAspectRatio="xMinYMin meet" x="13.5" y="-142.2"/>
<text text-anchor="start" x="28.5" y="-132.3" font-family="Helvetica,sans-Serif" font-size="11.00" fill="#000000">down_type</text>
<polygon fill="#ffffff" stroke="transparent" points="8.5,-103.2 8.5,-125.2 105.5,-125.2 105.5,-103.2 8.5,-103.2"/>
<polygon fill="none" stroke="#000000" points="8.5,-103.2 8.5,-125.2 105.5,-125.2 105.5,-103.2 8.5,-103.2"/>
<text text-anchor="start" x="28.5" y="-110.3" font-family="Helvetica,sans-Serif" font-size="11.00" fill="#000000">geom</text>
<polygon fill="#ffffff" stroke="transparent" points="8.5,-81.2 8.5,-103.2 105.5,-103.2 105.5,-81.2 8.5,-81.2"/>
<polygon fill="none" stroke="#000000" points="8.5,-81.2 8.5,-103.2 105.5,-103.2 105.5,-81.2 8.5,-81.2"/>
<text text-anchor="start" x="28.5" y="-88.3" font-family="Helvetica,sans-Serif" font-size="11.00" fill="#000000">validity</text>
<polygon fill="none" stroke="#000000" points="8.5,-62.2 8.5,-81.2 105.5,-81.2 105.5,-62.2 8.5,-62.2"/>
<text text-anchor="start" x="11.5" y="-68.3" font-family="Helvetica,sans-Serif" font-size="11.00" fill="#000000">...</text>
<polygon fill="#ffffff" stroke="transparent" points="8.5,-43.2 8.5,-62.2 34.5,-62.2 34.5,-43.2 8.5,-43.2"/>
<polygon fill="none" stroke="#000000" points="8.5,-43.2 8.5,-62.2 34.5,-62.2 34.5,-43.2 8.5,-43.2"/>
<text text-anchor="start" x="11.5" y="-49.3" font-family="Helvetica,sans-Serif" font-size="11.00" fill="#000000">&lt; 5</text>
<polygon fill="#ffffff" stroke="transparent" points="34.5,-43.2 34.5,-62.2 75.5,-62.2 75.5,-43.2 34.5,-43.2"/>
<polygon fill="none" stroke="#000000" points="34.5,-43.2 34.5,-62.2 75.5,-62.2 75.5,-43.2 34.5,-43.2"/>
<text text-anchor="start" x="40.1105" y="-49.3" font-family="Helvetica,sans-Serif" font-size="11.00" fill="#000000">0 rows</text>
<polygon fill="#ffffff" stroke="transparent" points="75.5,-43.2 75.5,-62.2 105.5,-62.2 105.5,-43.2 75.5,-43.2"/>
<polygon fill="none" stroke="#000000" points="75.5,-43.2 75.5,-62.2 105.5,-62.2 105.5,-43.2 75.5,-43.2"/>
<text text-anchor="start" x="80.7904" y="-49.3" font-family="Helvetica,sans-Serif" font-size="11.00" fill="#000000">60 &gt;</text>
</a>
</g>
</g>
<!-- _gate_link&#45;&gt;_link -->
<g id="edge1" class="edge">
<title>_gate_link:w&#45;&gt;_link:e</title>
<path fill="none" stroke="#000000" d="M145.7307,-290.2C131.248,-290.2 124.0937,-290.2 105.5,-290.2"/>
<polygon fill="#000000" stroke="#000000" points="155.7,-286.2 155.7,-294.2 154.1,-294.2 154.1,-286.2 155.7,-286.2"/>
<polyline fill="none" stroke="#000000" points="156.5,-290.2 152.5,-290.2 "/>
<ellipse fill="none" stroke="#000000" cx="149.3" cy="-290.2001" rx="3.2" ry="3.2"/>
</g>
<!-- _gate_link&#45;&gt;_link -->
<g id="edge2" class="edge">
<title>_gate_link:w&#45;&gt;_link:e</title>
<path fill="none" stroke="#000000" d="M141.776,-268.2C129.7815,-268.2 122.3229,-268.2 105.5,-268.2"/>
<polygon fill="#000000" stroke="#000000" points="148.5,-268.2001 156.5,-271.8 152.5,-268.2 156.5,-268.2 156.5,-268.2 156.5,-268.2 152.5,-268.2 156.5,-264.6 148.5,-268.2001 148.5,-268.2001"/>
<ellipse fill="none" stroke="#000000" cx="145.3" cy="-268.2001" rx="3.2" ry="3.2"/>
</g>
</g>
</svg>
