<?xml version="1.0" encoding="UTF-8" standalone="no"?>
<!DOCTYPE svg PUBLIC "-//W3C//DTD SVG 1.1//EN"
 "http://www.w3.org/Graphics/SVG/1.1/DTD/svg11.dtd">
<!-- Generated by graphviz version 2.40.1 (20161225.0304)
 -->
<!-- Title: oneDegreeRelationshipsDiagram Pages: 1 -->
<svg width="944pt" height="488pt"
 viewBox="0.00 0.00 944.00 487.70" xmlns="http://www.w3.org/2000/svg" xmlns:xlink="http://www.w3.org/1999/xlink">
<g id="graph0" class="graph" transform="scale(1 1) rotate(0) translate(4 483.7)">
<title>oneDegreeRelationshipsDiagram</title>
<polygon fill="#ffffff" stroke="transparent" points="-4,4 -4,-483.7 940,-483.7 940,4 -4,4"/>
<text text-anchor="middle" x="72.4936" y="-7.3" font-family="Helvetica,sans-Serif" font-size="11.00" fill="#000000">Generated by SchemaSpy</text>
<!-- _connector_hydrology_link -->
<g id="node1" class="node">
<title>_connector_hydrology_link</title>
<g id="a_node1"><a xlink:href="../../tables/_connector_hydrology_link.html" xlink:title="_connector_hydrology_link" target="_top">
<polygon fill="#ffffff" stroke="transparent" points="733,-367.7 733,-475.7 928,-475.7 928,-367.7 733,-367.7"/>
<polygon fill="#f5f5f5" stroke="transparent" points="733.5,-452.7 733.5,-475.7 928.5,-475.7 928.5,-452.7 733.5,-452.7"/>
<polygon fill="none" stroke="#000000" points="733.5,-452.7 733.5,-475.7 928.5,-475.7 928.5,-452.7 733.5,-452.7"/>
<text text-anchor="start" x="738.5" y="-461.3" font-family="Helvetica,sans-Serif" font-weight="bold" font-size="11.00" fill="#000000">_connector_hydrology_link</text>
<text text-anchor="start" x="894.0219" y="-460.8" font-family="Helvetica,sans-Serif" font-size="11.00" fill="#000000">[table]</text>
<polygon fill="#ffffff" stroke="transparent" points="733.5,-430.7 733.5,-452.7 928.5,-452.7 928.5,-430.7 733.5,-430.7"/>
<polygon fill="none" stroke="#000000" points="733.5,-430.7 733.5,-452.7 928.5,-452.7 928.5,-430.7 733.5,-430.7"/>
<image xlink:href="../../images/foreignKeys.png" width="11px" height="12px" preserveAspectRatio="xMinYMin meet" x="738.5" y="-447.7"/>
<text text-anchor="start" x="762.5" y="-437.8" font-family="Helvetica,sans-Serif" font-size="11.00" fill="#000000">id</text>
<polygon fill="none" stroke="#000000" points="733.5,-408.7 733.5,-430.7 928.5,-430.7 928.5,-408.7 733.5,-408.7"/>
<image xlink:href="../../images/foreignKeys.png" width="11px" height="12px" preserveAspectRatio="xMinYMin meet" x="738.5" y="-425.7"/>
<text text-anchor="start" x="762.5" y="-415.8" font-family="Helvetica,sans-Serif" font-size="11.00" fill="#000000">link_type</text>
<polygon fill="none" stroke="#000000" points="733.5,-386.7 733.5,-408.7 928.5,-408.7 928.5,-386.7 733.5,-386.7"/>
<image xlink:href="../../images/foreignKeys.png" width="11px" height="12px" preserveAspectRatio="xMinYMin meet" x="738.5" y="-403.7"/>
<text text-anchor="start" x="762.5" y="-393.8" font-family="Helvetica,sans-Serif" font-size="11.00" fill="#000000">hydrograph</text>
<polygon fill="#ffffff" stroke="transparent" points="733.5,-367.7 733.5,-386.7 816.5,-386.7 816.5,-367.7 733.5,-367.7"/>
<polygon fill="none" stroke="#000000" points="733.5,-367.7 733.5,-386.7 816.5,-386.7 816.5,-367.7 733.5,-367.7"/>
<text text-anchor="start" x="736.5" y="-373.8" font-family="Helvetica,sans-Serif" font-size="11.00" fill="#000000">&lt; 3</text>
<polygon fill="#ffffff" stroke="transparent" points="816.5,-367.7 816.5,-386.7 885.5,-386.7 885.5,-367.7 816.5,-367.7"/>
<polygon fill="none" stroke="#000000" points="816.5,-367.7 816.5,-386.7 885.5,-386.7 885.5,-367.7 816.5,-367.7"/>
<text text-anchor="start" x="850.1105" y="-373.8" font-family="Helvetica,sans-Serif" font-size="11.00" fill="#000000">0 rows</text>
<polygon fill="#ffffff" stroke="transparent" points="885.5,-367.7 885.5,-386.7 928.5,-386.7 928.5,-367.7 885.5,-367.7"/>
<polygon fill="none" stroke="#000000" points="885.5,-367.7 885.5,-386.7 928.5,-386.7 928.5,-367.7 885.5,-367.7"/>
<text text-anchor="start" x="919.3862" y="-373.8" font-family="Helvetica,sans-Serif" font-size="11.00" fill="#000000"> &#160;</text>
</a>
</g>
</g>
<!-- _hydrograph_bc_singularity -->
<g id="node2" class="node">
<title>_hydrograph_bc_singularity</title>
<g id="a_node2"><a xlink:href="../../tables/_hydrograph_bc_singularity.html" xlink:title="_hydrograph_bc_singularity" target="_top">
<polygon fill="#ffffff" stroke="transparent" points="314,-58.7 314,-368.7 684,-368.7 684,-58.7 314,-58.7"/>
<polygon fill="#f5f5f5" stroke="transparent" points="316,-343.7 316,-366.7 682,-366.7 682,-343.7 316,-343.7"/>
<polygon fill="none" stroke="#000000" points="316,-343.7 316,-366.7 682,-366.7 682,-343.7 316,-343.7"/>
<text text-anchor="start" x="321" y="-352.3" font-family="Helvetica,sans-Serif" font-weight="bold" font-size="11.00" fill="#000000">_hydrograph_bc_singularity</text>
<text text-anchor="start" x="647.0437" y="-351.8" font-family="Helvetica,sans-Serif" font-size="11.00" fill="#000000">[table]</text>
<polygon fill="#ffffff" stroke="transparent" points="316,-321.7 316,-343.7 499,-343.7 499,-321.7 316,-321.7"/>
<polygon fill="none" stroke="#000000" points="316,-321.7 316,-343.7 499,-343.7 499,-321.7 316,-321.7"/>
<image xlink:href="../../images/foreignKeys.png" width="11px" height="12px" preserveAspectRatio="xMinYMin meet" x="321" y="-338.7"/>
<text text-anchor="start" x="336" y="-328.8" font-family="Helvetica,sans-Serif" font-size="11.00" fill="#000000">id</text>
<polygon fill="none" stroke="#000000" points="499,-321.7 499,-343.7 682,-343.7 682,-321.7 499,-321.7"/>
<text text-anchor="start" x="502" y="-329.4" font-family="Helvetica,sans-Serif" font-size="11.00" fill="#000000">int4[10]</text>
<polygon fill="none" stroke="#000000" points="316,-299.7 316,-321.7 499,-321.7 499,-299.7 316,-299.7"/>
<image xlink:href="../../images/foreignKeys.png" width="11px" height="12px" preserveAspectRatio="xMinYMin meet" x="321" y="-316.7"/>
<text text-anchor="start" x="336" y="-306.8" font-family="Helvetica,sans-Serif" font-size="11.00" fill="#000000">singularity_type</text>
<polygon fill="none" stroke="#000000" points="499,-299.7 499,-321.7 682,-321.7 682,-299.7 499,-299.7"/>
<text text-anchor="start" x="501.8565" y="-307.4" font-family="Helvetica,sans-Serif" font-size="11.00" fill="#000000">hydra_singularity_type[2147483647]</text>
<polygon fill="none" stroke="#000000" points="316,-277.7 316,-299.7 499,-299.7 499,-277.7 316,-277.7"/>
<text text-anchor="start" x="336" y="-284.8" font-family="Helvetica,sans-Serif" font-size="11.00" fill="#000000">storage_area</text>
<polygon fill="none" stroke="#000000" points="499,-277.7 499,-299.7 682,-299.7 682,-277.7 499,-277.7"/>
<text text-anchor="start" x="502" y="-285.4" font-family="Helvetica,sans-Serif" font-size="11.00" fill="#000000">float4[8,8]</text>
<polygon fill="none" stroke="#000000" points="316,-255.7 316,-277.7 499,-277.7 499,-255.7 316,-255.7"/>
<text text-anchor="start" x="336" y="-262.8" font-family="Helvetica,sans-Serif" font-size="11.00" fill="#000000">tq_array</text>
<polygon fill="none" stroke="#000000" points="499,-255.7 499,-277.7 682,-277.7 682,-255.7 499,-255.7"/>
<text text-anchor="start" x="502" y="-263.4" font-family="Helvetica,sans-Serif" font-size="11.00" fill="#000000">_float4[8,8]</text>
<polygon fill="none" stroke="#000000" points="316,-233.7 316,-255.7 499,-255.7 499,-233.7 316,-233.7"/>
<text text-anchor="start" x="336" y="-240.8" font-family="Helvetica,sans-Serif" font-size="11.00" fill="#000000">constant_dry_flow</text>
<polygon fill="none" stroke="#000000" points="499,-233.7 499,-255.7 682,-255.7 682,-233.7 499,-233.7"/>
<text text-anchor="start" x="502" y="-241.4" font-family="Helvetica,sans-Serif" font-size="11.00" fill="#000000">float4[8,8]</text>
<polygon fill="none" stroke="#000000" points="316,-211.7 316,-233.7 499,-233.7 499,-211.7 316,-211.7"/>
<text text-anchor="start" x="336" y="-218.8" font-family="Helvetica,sans-Serif" font-size="11.00" fill="#000000">distrib_coef</text>
<polygon fill="none" stroke="#000000" points="499,-211.7 499,-233.7 682,-233.7 682,-211.7 499,-211.7"/>
<text text-anchor="start" x="502" y="-219.4" font-family="Helvetica,sans-Serif" font-size="11.00" fill="#000000">float4[8,8]</text>
<polygon fill="none" stroke="#000000" points="316,-189.7 316,-211.7 499,-211.7 499,-189.7 316,-189.7"/>
<text text-anchor="start" x="336" y="-196.8" font-family="Helvetica,sans-Serif" font-size="11.00" fill="#000000">lag_time_hr</text>
<polygon fill="none" stroke="#000000" points="499,-189.7 499,-211.7 682,-211.7 682,-189.7 499,-189.7"/>
<text text-anchor="start" x="502" y="-197.4" font-family="Helvetica,sans-Serif" font-size="11.00" fill="#000000">float4[8,8]</text>
<polygon fill="none" stroke="#000000" points="316,-167.7 316,-189.7 499,-189.7 499,-167.7 316,-167.7"/>
<image xlink:href="../../images/foreignKeys.png" width="11px" height="12px" preserveAspectRatio="xMinYMin meet" x="321" y="-184.7"/>
<text text-anchor="start" x="336" y="-174.8" font-family="Helvetica,sans-Serif" font-size="11.00" fill="#000000">sector</text>
<polygon fill="none" stroke="#000000" points="499,-167.7 499,-189.7 682,-189.7 682,-167.7 499,-167.7"/>
<text text-anchor="start" x="502" y="-175.4" font-family="Helvetica,sans-Serif" font-size="11.00" fill="#000000">int4[10]</text>
<polygon fill="none" stroke="#000000" points="316,-145.7 316,-167.7 499,-167.7 499,-145.7 316,-145.7"/>
<image xlink:href="../../images/foreignKeys.png" width="11px" height="12px" preserveAspectRatio="xMinYMin meet" x="321" y="-162.7"/>
<text text-anchor="start" x="336" y="-152.8" font-family="Helvetica,sans-Serif" font-size="11.00" fill="#000000">hourly_modulation</text>
<polygon fill="none" stroke="#000000" points="499,-145.7 499,-167.7 682,-167.7 682,-145.7 499,-145.7"/>
<text text-anchor="start" x="502" y="-153.4" font-family="Helvetica,sans-Serif" font-size="11.00" fill="#000000">int4[10]</text>
<polygon fill="none" stroke="#000000" points="316,-123.7 316,-145.7 499,-145.7 499,-123.7 316,-123.7"/>
<text text-anchor="start" x="336" y="-130.8" font-family="Helvetica,sans-Serif" font-size="11.00" fill="#000000">pollution_dryweather_runoff</text>
<polygon fill="none" stroke="#000000" points="499,-123.7 499,-145.7 682,-145.7 682,-123.7 499,-123.7"/>
<text text-anchor="start" x="502" y="-131.4" font-family="Helvetica,sans-Serif" font-size="11.00" fill="#000000">_float4[8,8]</text>
<polygon fill="none" stroke="#000000" points="316,-101.7 316,-123.7 499,-123.7 499,-101.7 316,-101.7"/>
<text text-anchor="start" x="336" y="-108.8" font-family="Helvetica,sans-Serif" font-size="11.00" fill="#000000">quality_dryweather_runoff</text>
<polygon fill="none" stroke="#000000" points="499,-101.7 499,-123.7 682,-123.7 682,-101.7 499,-101.7"/>
<text text-anchor="start" x="502" y="-109.4" font-family="Helvetica,sans-Serif" font-size="11.00" fill="#000000">_float4[8,8]</text>
<polygon fill="none" stroke="#000000" points="316,-79.7 316,-101.7 499,-101.7 499,-79.7 316,-79.7"/>
<text text-anchor="start" x="336" y="-86.8" font-family="Helvetica,sans-Serif" font-size="11.00" fill="#000000">external_file_data</text>
<polygon fill="none" stroke="#000000" points="499,-79.7 499,-101.7 682,-101.7 682,-79.7 499,-79.7"/>
<text text-anchor="start" x="502" y="-87.4" font-family="Helvetica,sans-Serif" font-size="11.00" fill="#000000">bool[1]</text>
<polygon fill="#ffffff" stroke="transparent" points="316,-60.7 316,-79.7 399,-79.7 399,-60.7 316,-60.7"/>
<polygon fill="none" stroke="#000000" points="316,-60.7 316,-79.7 399,-79.7 399,-60.7 316,-60.7"/>
<text text-anchor="start" x="319" y="-66.8" font-family="Helvetica,sans-Serif" font-size="11.00" fill="#000000">&lt; 4</text>
<polygon fill="#ffffff" stroke="transparent" points="399,-60.7 399,-79.7 499,-79.7 499,-60.7 399,-60.7"/>
<polygon fill="none" stroke="#000000" points="399,-60.7 399,-79.7 499,-79.7 499,-60.7 399,-60.7"/>
<text text-anchor="start" x="463.6105" y="-66.8" font-family="Helvetica,sans-Serif" font-size="11.00" fill="#000000">0 rows</text>
<polygon fill="#ffffff" stroke="transparent" points="499,-60.7 499,-79.7 682,-79.7 682,-60.7 499,-60.7"/>
<polygon fill="none" stroke="#000000" points="499,-60.7 499,-79.7 682,-79.7 682,-60.7 499,-60.7"/>
<text text-anchor="start" x="663.4053" y="-66.8" font-family="Helvetica,sans-Serif" font-size="11.00" fill="#000000">2 &gt;</text>
<polygon fill="none" stroke="#000000" stroke-width="2" points="315,-59.7 315,-367.7 683,-367.7 683,-59.7 315,-59.7"/>
</a>
</g>
</g>
<!-- _connector_hydrology_link&#45;&gt;_hydrograph_bc_singularity -->
<g id="edge1" class="edge">
<title>_connector_hydrology_link:w&#45;&gt;_hydrograph_bc_singularity:e</title>
<path fill="none" stroke="#000000" d="M719.6076,-393.0254C702.3418,-378.1214 712.8105,-332.7 682,-332.7"/>
<polygon fill="#000000" stroke="#000000" points="725.9177,-395.1486 732.3519,-401.112 729.7089,-396.4243 733.5,-397.7 733.5,-397.7 733.5,-397.7 729.7089,-396.4243 734.6481,-394.288 725.9177,-395.1486 725.9177,-395.1486"/>
<ellipse fill="none" stroke="#000000" cx="722.8848" cy="-394.1281" rx="3.2" ry="3.2"/>
</g>
<!-- project.dry_inflow_hourly_modulation -->
<g id="node3" class="node">
<title>project.dry_inflow_hourly_modulation</title>
<g id="a_node3"><a xlink:title="project.dry_inflow_hourly_modulation">
<polygon fill="#ffffff" stroke="transparent" points="8,-38.2 8,-99.2 265,-99.2 265,-38.2 8,-38.2"/>
<polygon fill="#f5f5f5" stroke="transparent" points="8.5,-75.7 8.5,-98.7 265.5,-98.7 265.5,-75.7 8.5,-75.7"/>
<polygon fill="none" stroke="#000000" points="8.5,-75.7 8.5,-98.7 265.5,-98.7 265.5,-75.7 8.5,-75.7"/>
<text text-anchor="start" x="13.5" y="-84.3" font-family="Helvetica,sans-Serif" font-weight="bold" font-size="11.00" fill="#000000">project.dry_inflow_hourly_modulation</text>
<text text-anchor="start" x="231.0219" y="-83.8" font-family="Helvetica,sans-Serif" font-size="11.00" fill="#000000">[table]</text>
<polygon fill="none" stroke="#000000" points="8.5,-56.7 8.5,-75.7 265.5,-75.7 265.5,-56.7 8.5,-56.7"/>
<text text-anchor="start" x="11.5" y="-62.8" font-family="Helvetica,sans-Serif" font-size="11.00" fill="#000000">...</text>
<polygon fill="#ffffff" stroke="transparent" points="8.5,-37.7 8.5,-56.7 113.5,-56.7 113.5,-37.7 8.5,-37.7"/>
<polygon fill="none" stroke="#000000" points="8.5,-37.7 8.5,-56.7 113.5,-56.7 113.5,-37.7 8.5,-37.7"/>
<text text-anchor="start" x="11.5" y="-43.8" font-family="Helvetica,sans-Serif" font-size="11.00" fill="#000000"> &#160;</text>
<polygon fill="#ffffff" stroke="transparent" points="113.5,-37.7 113.5,-56.7 197.5,-56.7 197.5,-37.7 113.5,-37.7"/>
<polygon fill="none" stroke="#000000" points="113.5,-37.7 113.5,-56.7 197.5,-56.7 197.5,-37.7 113.5,-37.7"/>
<text text-anchor="start" x="162.1105" y="-43.8" font-family="Helvetica,sans-Serif" font-size="11.00" fill="#000000">0 rows</text>
<polygon fill="#ffffff" stroke="transparent" points="197.5,-37.7 197.5,-56.7 265.5,-56.7 265.5,-37.7 197.5,-37.7"/>
<polygon fill="none" stroke="#000000" points="197.5,-37.7 197.5,-56.7 265.5,-56.7 265.5,-37.7 197.5,-37.7"/>
<text text-anchor="start" x="246.9053" y="-43.8" font-family="Helvetica,sans-Serif" font-size="11.00" fill="#000000">1 &gt;</text>
</a>
</g>
</g>
<!-- _hydrograph_bc_singularity&#45;&gt;project.dry_inflow_hourly_modulation -->
<g id="edge2" class="edge">
<title>_hydrograph_bc_singularity:w&#45;&gt;project.dry_inflow_hourly_modulation:e</title>
<path fill="none" stroke="#000000" d="M302.076,-152.6257C290.1595,-143.5334 291.7309,-121.4643 273,-109.7 269.4379,-107.4627 265.7469,-105.3418 261.9599,-103.3316"/>
<polygon fill="#000000" stroke="#000000" points="308.3219,-154.4533 314.989,-160.1551 312.161,-155.5766 316,-156.7 316,-156.7 316,-156.7 312.161,-155.5766 317.011,-153.2449 308.3219,-154.4533 308.3219,-154.4533"/>
<ellipse fill="none" stroke="#000000" cx="305.2507" cy="-153.5546" rx="3.2" ry="3.2"/>
</g>
<!-- _singularity -->
<g id="node4" class="node">
<title>_singularity</title>
<g id="a_node4"><a xlink:href="../../tables/_singularity.html" xlink:title="_singularity" target="_top">
<polygon fill="#ffffff" stroke="transparent" points="80,-202.2 80,-395.2 193,-395.2 193,-202.2 80,-202.2"/>
<polygon fill="#f5f5f5" stroke="transparent" points="80.5,-371.7 80.5,-394.7 193.5,-394.7 193.5,-371.7 80.5,-371.7"/>
<polygon fill="none" stroke="#000000" points="80.5,-371.7 80.5,-394.7 193.5,-394.7 193.5,-371.7 80.5,-371.7"/>
<text text-anchor="start" x="85.5" y="-380.3" font-family="Helvetica,sans-Serif" font-weight="bold" font-size="11.00" fill="#000000">_singularity</text>
<text text-anchor="start" x="158.5437" y="-379.8" font-family="Helvetica,sans-Serif" font-size="11.00" fill="#000000">[table]</text>
<polygon fill="none" stroke="#000000" points="80.5,-349.7 80.5,-371.7 193.5,-371.7 193.5,-349.7 80.5,-349.7"/>
<image xlink:href="../../images/primaryKeys.png" width="11px" height="12px" preserveAspectRatio="xMinYMin meet" x="85.5" y="-366.7"/>
<text text-anchor="start" x="100.5" y="-356.8" font-family="Helvetica,sans-Serif" font-size="11.00" fill="#000000">id</text>
<polygon fill="#ffffff" stroke="transparent" points="80.5,-327.7 80.5,-349.7 193.5,-349.7 193.5,-327.7 80.5,-327.7"/>
<polygon fill="none" stroke="#000000" points="80.5,-327.7 80.5,-349.7 193.5,-349.7 193.5,-327.7 80.5,-327.7"/>
<text text-anchor="start" x="100.5" y="-334.8" font-family="Helvetica,sans-Serif" font-size="11.00" fill="#000000">singularity_type</text>
<polygon fill="#ffffff" stroke="transparent" points="80.5,-305.7 80.5,-327.7 193.5,-327.7 193.5,-305.7 80.5,-305.7"/>
<polygon fill="none" stroke="#000000" points="80.5,-305.7 80.5,-327.7 193.5,-327.7 193.5,-305.7 80.5,-305.7"/>
<text text-anchor="start" x="100.5" y="-312.8" font-family="Helvetica,sans-Serif" font-size="11.00" fill="#000000">name</text>
<polygon fill="#ffffff" stroke="transparent" points="80.5,-283.7 80.5,-305.7 193.5,-305.7 193.5,-283.7 80.5,-283.7"/>
<polygon fill="none" stroke="#000000" points="80.5,-283.7 80.5,-305.7 193.5,-305.7 193.5,-283.7 80.5,-283.7"/>
<image xlink:href="../../images/foreignKeys.png" width="11px" height="12px" preserveAspectRatio="xMinYMin meet" x="85.5" y="-300.7"/>
<text text-anchor="start" x="100.5" y="-290.8" font-family="Helvetica,sans-Serif" font-size="11.00" fill="#000000">node</text>
<polygon fill="none" stroke="#000000" points="80.5,-261.7 80.5,-283.7 193.5,-283.7 193.5,-261.7 80.5,-261.7"/>
<image xlink:href="../../images/foreignKeys.png" width="11px" height="12px" preserveAspectRatio="xMinYMin meet" x="85.5" y="-278.7"/>
<text text-anchor="start" x="100.5" y="-268.8" font-family="Helvetica,sans-Serif" font-size="11.00" fill="#000000">node_type</text>
<polygon fill="#ffffff" stroke="transparent" points="80.5,-239.7 80.5,-261.7 193.5,-261.7 193.5,-239.7 80.5,-239.7"/>
<polygon fill="none" stroke="#000000" points="80.5,-239.7 80.5,-261.7 193.5,-261.7 193.5,-239.7 80.5,-239.7"/>
<text text-anchor="start" x="100.5" y="-246.8" font-family="Helvetica,sans-Serif" font-size="11.00" fill="#000000">validity</text>
<polygon fill="none" stroke="#000000" points="80.5,-220.7 80.5,-239.7 193.5,-239.7 193.5,-220.7 80.5,-220.7"/>
<text text-anchor="start" x="83.5" y="-226.8" font-family="Helvetica,sans-Serif" font-size="11.00" fill="#000000">...</text>
<polygon fill="#ffffff" stroke="transparent" points="80.5,-201.7 80.5,-220.7 114.5,-220.7 114.5,-201.7 80.5,-201.7"/>
<polygon fill="none" stroke="#000000" points="80.5,-201.7 80.5,-220.7 114.5,-220.7 114.5,-201.7 80.5,-201.7"/>
<text text-anchor="start" x="83.5" y="-207.8" font-family="Helvetica,sans-Serif" font-size="11.00" fill="#000000">&lt; 2</text>
<polygon fill="#ffffff" stroke="transparent" points="114.5,-201.7 114.5,-220.7 159.5,-220.7 159.5,-201.7 114.5,-201.7"/>
<polygon fill="none" stroke="#000000" points="114.5,-201.7 114.5,-220.7 159.5,-220.7 159.5,-201.7 114.5,-201.7"/>
<text text-anchor="start" x="124.1105" y="-207.8" font-family="Helvetica,sans-Serif" font-size="11.00" fill="#000000">0 rows</text>
<polygon fill="#ffffff" stroke="transparent" points="159.5,-201.7 159.5,-220.7 193.5,-220.7 193.5,-201.7 159.5,-201.7"/>
<polygon fill="none" stroke="#000000" points="159.5,-201.7 159.5,-220.7 193.5,-220.7 193.5,-201.7 159.5,-201.7"/>
<text text-anchor="start" x="168.7904" y="-207.8" font-family="Helvetica,sans-Serif" font-size="11.00" fill="#000000">52 &gt;</text>
</a>
</g>
</g>
<!-- _hydrograph_bc_singularity&#45;&gt;_singularity -->
<g id="edge3" class="edge">
<title>_hydrograph_bc_singularity:w&#45;&gt;_singularity:e</title>
<path fill="none" stroke="#000000" d="M305.4435,-333.054C258.518,-336.2953 245.6399,-360.7 193.5,-360.7"/>
<polygon fill="#000000" stroke="#000000" points="315.0663,-328.7291 315.3346,-336.7246 313.7355,-336.7782 313.4672,-328.7827 315.0663,-328.7291"/>
<polyline fill="none" stroke="#000000" points="316,-332.7 312.0022,-332.8341 "/>
<ellipse fill="none" stroke="#000000" cx="308.804" cy="-332.9414" rx="3.2" ry="3.2"/>
</g>
<!-- _hydrograph_bc_singularity&#45;&gt;_singularity -->
<g id="edge5" class="edge">
<title>_hydrograph_bc_singularity:w&#45;&gt;_singularity:e</title>
<path fill="none" stroke="#000000" d="M301.4061,-311.3921C257.73,-315.7039 244.1128,-338.7 193.5,-338.7"/>
<polygon fill="#000000" stroke="#000000" points="308.009,-311.079 316.1706,-314.296 312.0045,-310.8895 316,-310.7 316,-310.7 316,-310.7 312.0045,-310.8895 315.8294,-307.104 308.009,-311.079 308.009,-311.079"/>
<ellipse fill="none" stroke="#000000" cx="304.8126" cy="-311.2307" rx="3.2" ry="3.2"/>
</g>
<!-- project.dry_inflow_sector -->
<g id="node5" class="node">
<title>project.dry_inflow_sector</title>
<g id="a_node5"><a xlink:title="project.dry_inflow_sector">
<polygon fill="#ffffff" stroke="transparent" points="44,-120.2 44,-181.2 229,-181.2 229,-120.2 44,-120.2"/>
<polygon fill="#f5f5f5" stroke="transparent" points="44.5,-157.7 44.5,-180.7 229.5,-180.7 229.5,-157.7 44.5,-157.7"/>
<polygon fill="none" stroke="#000000" points="44.5,-157.7 44.5,-180.7 229.5,-180.7 229.5,-157.7 44.5,-157.7"/>
<text text-anchor="start" x="49.5" y="-166.3" font-family="Helvetica,sans-Serif" font-weight="bold" font-size="11.00" fill="#000000">project.dry_inflow_sector</text>
<text text-anchor="start" x="195.0219" y="-165.8" font-family="Helvetica,sans-Serif" font-size="11.00" fill="#000000">[table]</text>
<polygon fill="none" stroke="#000000" points="44.5,-138.7 44.5,-157.7 229.5,-157.7 229.5,-138.7 44.5,-138.7"/>
<text text-anchor="start" x="47.5" y="-144.8" font-family="Helvetica,sans-Serif" font-size="11.00" fill="#000000">...</text>
<polygon fill="#ffffff" stroke="transparent" points="44.5,-119.7 44.5,-138.7 113.5,-138.7 113.5,-119.7 44.5,-119.7"/>
<polygon fill="none" stroke="#000000" points="44.5,-119.7 44.5,-138.7 113.5,-138.7 113.5,-119.7 44.5,-119.7"/>
<text text-anchor="start" x="47.5" y="-125.8" font-family="Helvetica,sans-Serif" font-size="11.00" fill="#000000"> &#160;</text>
<polygon fill="#ffffff" stroke="transparent" points="113.5,-119.7 113.5,-138.7 179.5,-138.7 179.5,-119.7 113.5,-119.7"/>
<polygon fill="none" stroke="#000000" points="113.5,-119.7 113.5,-138.7 179.5,-138.7 179.5,-119.7 113.5,-119.7"/>
<text text-anchor="start" x="144.1105" y="-125.8" font-family="Helvetica,sans-Serif" font-size="11.00" fill="#000000">0 rows</text>
<polygon fill="#ffffff" stroke="transparent" points="179.5,-119.7 179.5,-138.7 229.5,-138.7 229.5,-119.7 179.5,-119.7"/>
<polygon fill="none" stroke="#000000" points="179.5,-119.7 179.5,-138.7 229.5,-138.7 229.5,-119.7 179.5,-119.7"/>
<text text-anchor="start" x="210.9053" y="-125.8" font-family="Helvetica,sans-Serif" font-size="11.00" fill="#000000">1 &gt;</text>
</a>
</g>
</g>
<!-- _hydrograph_bc_singularity&#45;&gt;project.dry_inflow_sector -->
<g id="edge4" class="edge">
<title>_hydrograph_bc_singularity:w&#45;&gt;project.dry_inflow_sector:e</title>
<path fill="none" stroke="#000000" d="M301.3731,-178.4126C280.039,-177.5996 257.9659,-175.1367 237.1748,-171.9933"/>
<polygon fill="#000000" stroke="#000000" points="308.0015,-178.5428 315.9293,-182.2993 312.0008,-178.6214 316,-178.7 316,-178.7 316,-178.7 312.0008,-178.6214 316.0707,-175.1007 308.0015,-178.5428 308.0015,-178.5428"/>
<ellipse fill="none" stroke="#000000" cx="304.8022" cy="-178.4799" rx="3.2" ry="3.2"/>
</g>
<!-- _routing_hydrology_link -->
<g id="node6" class="node">
<title>_routing_hydrology_link</title>
<g id="a_node6"><a xlink:href="../../tables/_routing_hydrology_link.html" xlink:title="_routing_hydrology_link" target="_top">
<polygon fill="#ffffff" stroke="transparent" points="741,-219.2 741,-346.2 920,-346.2 920,-219.2 741,-219.2"/>
<polygon fill="#f5f5f5" stroke="transparent" points="741.5,-322.7 741.5,-345.7 920.5,-345.7 920.5,-322.7 741.5,-322.7"/>
<polygon fill="none" stroke="#000000" points="741.5,-322.7 741.5,-345.7 920.5,-345.7 920.5,-322.7 741.5,-322.7"/>
<text text-anchor="start" x="746.5" y="-331.3" font-family="Helvetica,sans-Serif" font-weight="bold" font-size="11.00" fill="#000000">_routing_hydrology_link</text>
<text text-anchor="start" x="886.0219" y="-330.8" font-family="Helvetica,sans-Serif" font-size="11.00" fill="#000000">[table]</text>
<polygon fill="#ffffff" stroke="transparent" points="741.5,-300.7 741.5,-322.7 920.5,-322.7 920.5,-300.7 741.5,-300.7"/>
<polygon fill="none" stroke="#000000" points="741.5,-300.7 741.5,-322.7 920.5,-322.7 920.5,-300.7 741.5,-300.7"/>
<image xlink:href="../../images/foreignKeys.png" width="11px" height="12px" preserveAspectRatio="xMinYMin meet" x="746.5" y="-317.7"/>
<text text-anchor="start" x="770.5" y="-307.8" font-family="Helvetica,sans-Serif" font-size="11.00" fill="#000000">id</text>
<polygon fill="none" stroke="#000000" points="741.5,-278.7 741.5,-300.7 920.5,-300.7 920.5,-278.7 741.5,-278.7"/>
<image xlink:href="../../images/foreignKeys.png" width="11px" height="12px" preserveAspectRatio="xMinYMin meet" x="746.5" y="-295.7"/>
<text text-anchor="start" x="770.5" y="-285.8" font-family="Helvetica,sans-Serif" font-size="11.00" fill="#000000">link_type</text>
<polygon fill="none" stroke="#000000" points="741.5,-256.7 741.5,-278.7 920.5,-278.7 920.5,-256.7 741.5,-256.7"/>
<image xlink:href="../../images/foreignKeys.png" width="11px" height="12px" preserveAspectRatio="xMinYMin meet" x="746.5" y="-273.7"/>
<text text-anchor="start" x="770.5" y="-263.8" font-family="Helvetica,sans-Serif" font-size="11.00" fill="#000000">hydrograph</text>
<polygon fill="none" stroke="#000000" points="741.5,-237.7 741.5,-256.7 920.5,-256.7 920.5,-237.7 741.5,-237.7"/>
<text text-anchor="start" x="744.5" y="-243.8" font-family="Helvetica,sans-Serif" font-size="11.00" fill="#000000">...</text>
<polygon fill="#ffffff" stroke="transparent" points="741.5,-218.7 741.5,-237.7 816.5,-237.7 816.5,-218.7 741.5,-218.7"/>
<polygon fill="none" stroke="#000000" points="741.5,-218.7 741.5,-237.7 816.5,-237.7 816.5,-218.7 741.5,-218.7"/>
<text text-anchor="start" x="744.5" y="-224.8" font-family="Helvetica,sans-Serif" font-size="11.00" fill="#000000">&lt; 3</text>
<polygon fill="#ffffff" stroke="transparent" points="816.5,-218.7 816.5,-237.7 881.5,-237.7 881.5,-218.7 816.5,-218.7"/>
<polygon fill="none" stroke="#000000" points="816.5,-218.7 816.5,-237.7 881.5,-237.7 881.5,-218.7 816.5,-218.7"/>
<text text-anchor="start" x="846.1105" y="-224.8" font-family="Helvetica,sans-Serif" font-size="11.00" fill="#000000">0 rows</text>
<polygon fill="#ffffff" stroke="transparent" points="881.5,-218.7 881.5,-237.7 920.5,-237.7 920.5,-218.7 881.5,-218.7"/>
<polygon fill="none" stroke="#000000" points="881.5,-218.7 881.5,-237.7 920.5,-237.7 920.5,-218.7 881.5,-218.7"/>
<text text-anchor="start" x="911.3862" y="-224.8" font-family="Helvetica,sans-Serif" font-size="11.00" fill="#000000"> &#160;</text>
</a>
</g>
</g>
<!-- _routing_hydrology_link&#45;&gt;_hydrograph_bc_singularity -->
<g id="edge6" class="edge">
<title>_routing_hydrology_link:w&#45;&gt;_hydrograph_bc_singularity:e</title>
<path fill="none" stroke="#000000" d="M727.5136,-271.5714C706.6474,-285.5647 715.3512,-332.7 682,-332.7"/>
<polygon fill="#000000" stroke="#000000" points="733.7899,-269.8342 742.4604,-271.1695 737.645,-268.7671 741.5,-267.7 741.5,-267.7 741.5,-267.7 737.645,-268.7671 740.5396,-264.2305 733.7899,-269.8342 733.7899,-269.8342"/>
<ellipse fill="none" stroke="#000000" cx="730.7059" cy="-270.6878" rx="3.2" ry="3.2"/>
</g>
</g>
</svg>
