<?xml version="1.0" encoding="UTF-8" standalone="no"?>
<!DOCTYPE svg PUBLIC "-//W3C//DTD SVG 1.1//EN"
 "http://www.w3.org/Graphics/SVG/1.1/DTD/svg11.dtd">
<!-- Generated by graphviz version 2.40.1 (20161225.0304)
 -->
<!-- Title: oneDegreeRelationshipsDiagram Pages: 1 -->
<svg width="564pt" height="294pt"
 viewBox="0.00 0.00 564.00 294.20" xmlns="http://www.w3.org/2000/svg" xmlns:xlink="http://www.w3.org/1999/xlink">
<g id="graph0" class="graph" transform="scale(1 1) rotate(0) translate(4 290.2)">
<title>oneDegreeRelationshipsDiagram</title>
<polygon fill="#ffffff" stroke="transparent" points="-4,4 -4,-290.2 560,-290.2 560,4 -4,4"/>
<text text-anchor="middle" x="72.4936" y="-7.3" font-family="Helvetica,sans-Serif" font-size="11.00" fill="#000000">Generated by SchemaSpy</text>
<!-- _manhole_node -->
<g id="node1" class="node">
<title>_manhole_node</title>
<g id="a_node1"><a xlink:href="../../tables/_manhole_node.html" xlink:title="_manhole_node" target="_top">
<polygon fill="#ffffff" stroke="transparent" points="154,-38.2 154,-282.2 548,-282.2 548,-38.2 154,-38.2"/>
<polygon fill="#f5f5f5" stroke="transparent" points="156,-257.2 156,-280.2 546,-280.2 546,-257.2 156,-257.2"/>
<polygon fill="none" stroke="#000000" points="156,-257.2 156,-280.2 546,-280.2 546,-257.2 156,-257.2"/>
<text text-anchor="start" x="161" y="-265.8" font-family="Helvetica,sans-Serif" font-weight="bold" font-size="11.00" fill="#000000">_manhole_node</text>
<text text-anchor="start" x="511.0437" y="-265.3" font-family="Helvetica,sans-Serif" font-size="11.00" fill="#000000">[table]</text>
<polygon fill="#ffffff" stroke="transparent" points="156,-235.2 156,-257.2 311,-257.2 311,-235.2 156,-235.2"/>
<polygon fill="none" stroke="#000000" points="156,-235.2 156,-257.2 311,-257.2 311,-235.2 156,-235.2"/>
<image xlink:href="../../images/foreignKeys.png" width="11px" height="12px" preserveAspectRatio="xMinYMin meet" x="161" y="-252.2"/>
<text text-anchor="start" x="176" y="-242.3" font-family="Helvetica,sans-Serif" font-size="11.00" fill="#000000">id</text>
<polygon fill="none" stroke="#000000" points="311,-235.2 311,-257.2 546,-257.2 546,-235.2 311,-235.2"/>
<text text-anchor="start" x="314" y="-242.9" font-family="Helvetica,sans-Serif" font-size="11.00" fill="#000000">int4[10]</text>
<polygon fill="none" stroke="#000000" points="156,-213.2 156,-235.2 311,-235.2 311,-213.2 156,-213.2"/>
<image xlink:href="../../images/foreignKeys.png" width="11px" height="12px" preserveAspectRatio="xMinYMin meet" x="161" y="-230.2"/>
<text text-anchor="start" x="176" y="-220.3" font-family="Helvetica,sans-Serif" font-size="11.00" fill="#000000">node_type</text>
<polygon fill="none" stroke="#000000" points="311,-213.2 311,-235.2 546,-235.2 546,-213.2 311,-213.2"/>
<text text-anchor="start" x="314" y="-220.9" font-family="Helvetica,sans-Serif" font-size="11.00" fill="#000000">hydra_node_type[2147483647]</text>
<polygon fill="none" stroke="#000000" points="156,-191.2 156,-213.2 311,-213.2 311,-191.2 156,-191.2"/>
<text text-anchor="start" x="176" y="-198.3" font-family="Helvetica,sans-Serif" font-size="11.00" fill="#000000">area</text>
<polygon fill="none" stroke="#000000" points="311,-191.2 311,-213.2 546,-213.2 546,-191.2 311,-191.2"/>
<text text-anchor="start" x="314" y="-198.9" font-family="Helvetica,sans-Serif" font-size="11.00" fill="#000000">float4[8,8]</text>
<polygon fill="none" stroke="#000000" points="156,-169.2 156,-191.2 311,-191.2 311,-169.2 156,-169.2"/>
<text text-anchor="start" x="176" y="-176.3" font-family="Helvetica,sans-Serif" font-size="11.00" fill="#000000">z_ground</text>
<polygon fill="none" stroke="#000000" points="311,-169.2 311,-191.2 546,-191.2 546,-169.2 311,-169.2"/>
<text text-anchor="start" x="314" y="-176.9" font-family="Helvetica,sans-Serif" font-size="11.00" fill="#000000">float4[8,8]</text>
<polygon fill="none" stroke="#000000" points="156,-147.2 156,-169.2 311,-169.2 311,-147.2 156,-147.2"/>
<text text-anchor="start" x="176" y="-154.3" font-family="Helvetica,sans-Serif" font-size="11.00" fill="#000000">cover_diameter</text>
<polygon fill="none" stroke="#000000" points="311,-147.2 311,-169.2 546,-169.2 546,-147.2 311,-147.2"/>
<text text-anchor="start" x="314" y="-154.9" font-family="Helvetica,sans-Serif" font-size="11.00" fill="#000000">float4[8,8]</text>
<polygon fill="none" stroke="#000000" points="156,-125.2 156,-147.2 311,-147.2 311,-125.2 156,-125.2"/>
<text text-anchor="start" x="176" y="-132.3" font-family="Helvetica,sans-Serif" font-size="11.00" fill="#000000">cover_critical_pressure</text>
<polygon fill="none" stroke="#000000" points="311,-125.2 311,-147.2 546,-147.2 546,-125.2 311,-125.2"/>
<text text-anchor="start" x="314" y="-132.9" font-family="Helvetica,sans-Serif" font-size="11.00" fill="#000000">float4[8,8]</text>
<polygon fill="none" stroke="#000000" points="156,-103.2 156,-125.2 311,-125.2 311,-103.2 156,-103.2"/>
<text text-anchor="start" x="176" y="-110.3" font-family="Helvetica,sans-Serif" font-size="11.00" fill="#000000">inlet_width</text>
<polygon fill="none" stroke="#000000" points="311,-103.2 311,-125.2 546,-125.2 546,-103.2 311,-103.2"/>
<text text-anchor="start" x="314" y="-110.9" font-family="Helvetica,sans-Serif" font-size="11.00" fill="#000000">float4[8,8]</text>
<polygon fill="none" stroke="#000000" points="156,-81.2 156,-103.2 311,-103.2 311,-81.2 156,-81.2"/>
<text text-anchor="start" x="176" y="-88.3" font-family="Helvetica,sans-Serif" font-size="11.00" fill="#000000">inlet_height</text>
<polygon fill="none" stroke="#000000" points="311,-81.2 311,-103.2 546,-103.2 546,-81.2 311,-81.2"/>
<text text-anchor="start" x="314" y="-88.9" font-family="Helvetica,sans-Serif" font-size="11.00" fill="#000000">float4[8,8]</text>
<polygon fill="none" stroke="#000000" points="156,-59.2 156,-81.2 311,-81.2 311,-59.2 156,-59.2"/>
<text text-anchor="start" x="176" y="-66.3" font-family="Helvetica,sans-Serif" font-size="11.00" fill="#000000">connection_law</text>
<polygon fill="none" stroke="#000000" points="311,-59.2 311,-81.2 546,-81.2 546,-59.2 311,-59.2"/>
<text text-anchor="start" x="313.8674" y="-66.9" font-family="Helvetica,sans-Serif" font-size="11.00" fill="#000000">hydra_manhole_connection_type[2147483647]</text>
<polygon fill="#ffffff" stroke="transparent" points="156,-40.2 156,-59.2 225,-59.2 225,-40.2 156,-40.2"/>
<polygon fill="none" stroke="#000000" points="156,-40.2 156,-59.2 225,-59.2 225,-40.2 156,-40.2"/>
<text text-anchor="start" x="159" y="-46.3" font-family="Helvetica,sans-Serif" font-size="11.00" fill="#000000">&lt; 2</text>
<polygon fill="#ffffff" stroke="transparent" points="225,-40.2 225,-59.2 311,-59.2 311,-40.2 225,-40.2"/>
<polygon fill="none" stroke="#000000" points="225,-40.2 225,-59.2 311,-59.2 311,-40.2 225,-40.2"/>
<text text-anchor="start" x="275.6105" y="-46.3" font-family="Helvetica,sans-Serif" font-size="11.00" fill="#000000">0 rows</text>
<polygon fill="#ffffff" stroke="transparent" points="311,-40.2 311,-59.2 546,-59.2 546,-40.2 311,-40.2"/>
<polygon fill="none" stroke="#000000" points="311,-40.2 311,-59.2 546,-59.2 546,-40.2 311,-40.2"/>
<text text-anchor="start" x="527.4053" y="-46.3" font-family="Helvetica,sans-Serif" font-size="11.00" fill="#000000">0 &gt;</text>
<polygon fill="none" stroke="#000000" stroke-width="2" points="155,-39.2 155,-281.2 547,-281.2 547,-39.2 155,-39.2"/>
</a>
</g>
</g>
<!-- _node -->
<g id="node2" class="node">
<title>_node</title>
<g id="a_node2"><a xlink:href="../../tables/_node.html" xlink:title="_node" target="_top">
<polygon fill="#ffffff" stroke="transparent" points="8,-87.7 8,-280.7 105,-280.7 105,-87.7 8,-87.7"/>
<polygon fill="#f5f5f5" stroke="transparent" points="8.5,-257.2 8.5,-280.2 105.5,-280.2 105.5,-257.2 8.5,-257.2"/>
<polygon fill="none" stroke="#000000" points="8.5,-257.2 8.5,-280.2 105.5,-280.2 105.5,-257.2 8.5,-257.2"/>
<text text-anchor="start" x="13.5" y="-265.8" font-family="Helvetica,sans-Serif" font-weight="bold" font-size="11.00" fill="#000000">_node</text>
<text text-anchor="start" x="70.5437" y="-265.3" font-family="Helvetica,sans-Serif" font-size="11.00" fill="#000000">[table]</text>
<polygon fill="none" stroke="#000000" points="8.5,-235.2 8.5,-257.2 105.5,-257.2 105.5,-235.2 8.5,-235.2"/>
<image xlink:href="../../images/primaryKeys.png" width="11px" height="12px" preserveAspectRatio="xMinYMin meet" x="13.5" y="-252.2"/>
<text text-anchor="start" x="28.5" y="-242.3" font-family="Helvetica,sans-Serif" font-size="11.00" fill="#000000">id</text>
<polygon fill="#ffffff" stroke="transparent" points="8.5,-213.2 8.5,-235.2 105.5,-235.2 105.5,-213.2 8.5,-213.2"/>
<polygon fill="none" stroke="#000000" points="8.5,-213.2 8.5,-235.2 105.5,-235.2 105.5,-213.2 8.5,-213.2"/>
<text text-anchor="start" x="28.5" y="-220.3" font-family="Helvetica,sans-Serif" font-size="11.00" fill="#000000">node_type</text>
<polygon fill="#ffffff" stroke="transparent" points="8.5,-191.2 8.5,-213.2 105.5,-213.2 105.5,-191.2 8.5,-191.2"/>
<polygon fill="none" stroke="#000000" points="8.5,-191.2 8.5,-213.2 105.5,-213.2 105.5,-191.2 8.5,-191.2"/>
<text text-anchor="start" x="28.5" y="-198.3" font-family="Helvetica,sans-Serif" font-size="11.00" fill="#000000">name</text>
<polygon fill="#ffffff" stroke="transparent" points="8.5,-169.2 8.5,-191.2 105.5,-191.2 105.5,-169.2 8.5,-169.2"/>
<polygon fill="none" stroke="#000000" points="8.5,-169.2 8.5,-191.2 105.5,-191.2 105.5,-169.2 8.5,-169.2"/>
<text text-anchor="start" x="28.5" y="-176.3" font-family="Helvetica,sans-Serif" font-size="11.00" fill="#000000">geom</text>
<polygon fill="#ffffff" stroke="transparent" points="8.5,-147.2 8.5,-169.2 105.5,-169.2 105.5,-147.2 8.5,-147.2"/>
<polygon fill="none" stroke="#000000" points="8.5,-147.2 8.5,-169.2 105.5,-169.2 105.5,-147.2 8.5,-147.2"/>
<image xlink:href="../../images/foreignKeys.png" width="11px" height="12px" preserveAspectRatio="xMinYMin meet" x="13.5" y="-164.2"/>
<text text-anchor="start" x="28.5" y="-154.3" font-family="Helvetica,sans-Serif" font-size="11.00" fill="#000000">generated</text>
<polygon fill="#ffffff" stroke="transparent" points="8.5,-125.2 8.5,-147.2 105.5,-147.2 105.5,-125.2 8.5,-125.2"/>
<polygon fill="none" stroke="#000000" points="8.5,-125.2 8.5,-147.2 105.5,-147.2 105.5,-125.2 8.5,-125.2"/>
<text text-anchor="start" x="28.5" y="-132.3" font-family="Helvetica,sans-Serif" font-size="11.00" fill="#000000">validity</text>
<polygon fill="none" stroke="#000000" points="8.5,-106.2 8.5,-125.2 105.5,-125.2 105.5,-106.2 8.5,-106.2"/>
<text text-anchor="start" x="11.5" y="-112.3" font-family="Helvetica,sans-Serif" font-size="11.00" fill="#000000">...</text>
<polygon fill="#ffffff" stroke="transparent" points="8.5,-87.2 8.5,-106.2 34.5,-106.2 34.5,-87.2 8.5,-87.2"/>
<polygon fill="none" stroke="#000000" points="8.5,-87.2 8.5,-106.2 34.5,-106.2 34.5,-87.2 8.5,-87.2"/>
<text text-anchor="start" x="11.5" y="-93.3" font-family="Helvetica,sans-Serif" font-size="11.00" fill="#000000">&lt; 1</text>
<polygon fill="#ffffff" stroke="transparent" points="34.5,-87.2 34.5,-106.2 75.5,-106.2 75.5,-87.2 34.5,-87.2"/>
<polygon fill="none" stroke="#000000" points="34.5,-87.2 34.5,-106.2 75.5,-106.2 75.5,-87.2 34.5,-87.2"/>
<text text-anchor="start" x="40.1105" y="-93.3" font-family="Helvetica,sans-Serif" font-size="11.00" fill="#000000">0 rows</text>
<polygon fill="#ffffff" stroke="transparent" points="75.5,-87.2 75.5,-106.2 105.5,-106.2 105.5,-87.2 75.5,-87.2"/>
<polygon fill="none" stroke="#000000" points="75.5,-87.2 75.5,-106.2 105.5,-106.2 105.5,-87.2 75.5,-87.2"/>
<text text-anchor="start" x="80.7904" y="-93.3" font-family="Helvetica,sans-Serif" font-size="11.00" fill="#000000">24 &gt;</text>
</a>
</g>
</g>
<!-- _manhole_node&#45;&gt;_node -->
<g id="edge1" class="edge">
<title>_manhole_node:w&#45;&gt;_node:e</title>
<path fill="none" stroke="#000000" d="M145.3362,-246.2C130.9956,-246.2 123.9115,-246.2 105.5,-246.2"/>
<polygon fill="#000000" stroke="#000000" points="155.2,-242.2 155.2,-250.2 153.6,-250.2 153.6,-242.2 155.2,-242.2"/>
<polyline fill="none" stroke="#000000" points="156,-246.2 152,-246.2 "/>
<ellipse fill="none" stroke="#000000" cx="148.8" cy="-246.2001" rx="3.2" ry="3.2"/>
</g>
<!-- _manhole_node&#45;&gt;_node -->
<g id="edge2" class="edge">
<title>_manhole_node:w&#45;&gt;_node:e</title>
<path fill="none" stroke="#000000" d="M141.4203,-224.2C129.5435,-224.2 122.158,-224.2 105.5,-224.2"/>
<polygon fill="#000000" stroke="#000000" points="148,-224.2001 156,-227.8 152,-224.2 156,-224.2 156,-224.2 156,-224.2 152,-224.2 156,-220.6 148,-224.2001 148,-224.2001"/>
<ellipse fill="none" stroke="#000000" cx="144.8" cy="-224.2001" rx="3.2" ry="3.2"/>
</g>
</g>
</svg>
