<?xml version="1.0" encoding="UTF-8" standalone="no"?>
<!DOCTYPE svg PUBLIC "-//W3C//DTD SVG 1.1//EN"
 "http://www.w3.org/Graphics/SVG/1.1/DTD/svg11.dtd">
<!-- Generated by graphviz version 2.40.1 (20161225.0304)
 -->
<!-- Title: oneDegreeRelationshipsDiagram Pages: 1 -->
<svg width="608pt" height="245pt"
 viewBox="0.00 0.00 608.00 244.70" xmlns="http://www.w3.org/2000/svg" xmlns:xlink="http://www.w3.org/1999/xlink">
<g id="graph0" class="graph" transform="scale(1 1) rotate(0) translate(4 240.7)">
<title>oneDegreeRelationshipsDiagram</title>
<polygon fill="#ffffff" stroke="transparent" points="-4,4 -4,-240.7 604,-240.7 604,4 -4,4"/>
<text text-anchor="middle" x="72.4936" y="-7.3" font-family="Helvetica,sans-Serif" font-size="11.00" fill="#000000">Generated by SchemaSpy</text>
<!-- _model_connect_bc_singularity -->
<g id="node1" class="node">
<title>_model_connect_bc_singularity</title>
<g id="a_node1"><a xlink:href="../../tables/_model_connect_bc_singularity.html" xlink:title="_model_connect_bc_singularity" target="_top">
<polygon fill="#ffffff" stroke="transparent" points="170,-54.7 170,-232.7 592,-232.7 592,-54.7 170,-54.7"/>
<polygon fill="#f5f5f5" stroke="transparent" points="172,-207.7 172,-230.7 590,-230.7 590,-207.7 172,-207.7"/>
<polygon fill="none" stroke="#000000" points="172,-207.7 172,-230.7 590,-230.7 590,-207.7 172,-207.7"/>
<text text-anchor="start" x="177" y="-216.3" font-family="Helvetica,sans-Serif" font-weight="bold" font-size="11.00" fill="#000000">_model_connect_bc_singularity</text>
<text text-anchor="start" x="555.0437" y="-215.8" font-family="Helvetica,sans-Serif" font-size="11.00" fill="#000000">[table]</text>
<polygon fill="#ffffff" stroke="transparent" points="172,-185.7 172,-207.7 375,-207.7 375,-185.7 172,-185.7"/>
<polygon fill="none" stroke="#000000" points="172,-185.7 172,-207.7 375,-207.7 375,-185.7 172,-185.7"/>
<image xlink:href="../../images/foreignKeys.png" width="11px" height="12px" preserveAspectRatio="xMinYMin meet" x="177" y="-202.7"/>
<text text-anchor="start" x="192" y="-192.8" font-family="Helvetica,sans-Serif" font-size="11.00" fill="#000000">id</text>
<polygon fill="none" stroke="#000000" points="375,-185.7 375,-207.7 590,-207.7 590,-185.7 375,-185.7"/>
<text text-anchor="start" x="378" y="-193.4" font-family="Helvetica,sans-Serif" font-size="11.00" fill="#000000">int4[10]</text>
<polygon fill="none" stroke="#000000" points="172,-163.7 172,-185.7 375,-185.7 375,-163.7 172,-163.7"/>
<image xlink:href="../../images/foreignKeys.png" width="11px" height="12px" preserveAspectRatio="xMinYMin meet" x="177" y="-180.7"/>
<text text-anchor="start" x="192" y="-170.8" font-family="Helvetica,sans-Serif" font-size="11.00" fill="#000000">singularity_type</text>
<polygon fill="none" stroke="#000000" points="375,-163.7 375,-185.7 590,-185.7 590,-163.7 375,-163.7"/>
<text text-anchor="start" x="378" y="-171.4" font-family="Helvetica,sans-Serif" font-size="11.00" fill="#000000">hydra_singularity_type[2147483647]</text>
<polygon fill="none" stroke="#000000" points="172,-141.7 172,-163.7 375,-163.7 375,-141.7 172,-141.7"/>
<text text-anchor="start" x="192" y="-148.8" font-family="Helvetica,sans-Serif" font-size="11.00" fill="#000000">cascade_mode</text>
<polygon fill="none" stroke="#000000" points="375,-141.7 375,-163.7 590,-163.7 590,-141.7 375,-141.7"/>
<text text-anchor="start" x="377.9577" y="-149.4" font-family="Helvetica,sans-Serif" font-size="11.00" fill="#000000">hydra_model_connect_mode[2147483647]</text>
<polygon fill="none" stroke="#000000" points="172,-119.7 172,-141.7 375,-141.7 375,-119.7 172,-119.7"/>
<text text-anchor="start" x="192" y="-126.8" font-family="Helvetica,sans-Serif" font-size="11.00" fill="#000000">zq_array</text>
<polygon fill="none" stroke="#000000" points="375,-119.7 375,-141.7 590,-141.7 590,-119.7 375,-119.7"/>
<text text-anchor="start" x="378" y="-127.4" font-family="Helvetica,sans-Serif" font-size="11.00" fill="#000000">_float4[8,8]</text>
<polygon fill="none" stroke="#000000" points="172,-97.7 172,-119.7 375,-119.7 375,-97.7 172,-97.7"/>
<text text-anchor="start" x="192" y="-104.8" font-family="Helvetica,sans-Serif" font-size="11.00" fill="#000000">tz_array</text>
<polygon fill="none" stroke="#000000" points="375,-97.7 375,-119.7 590,-119.7 590,-97.7 375,-97.7"/>
<text text-anchor="start" x="378" y="-105.4" font-family="Helvetica,sans-Serif" font-size="11.00" fill="#000000">_float4[8,8]</text>
<polygon fill="none" stroke="#000000" points="172,-75.7 172,-97.7 375,-97.7 375,-75.7 172,-75.7"/>
<text text-anchor="start" x="192" y="-82.8" font-family="Helvetica,sans-Serif" font-size="11.00" fill="#000000">quality</text>
<polygon fill="none" stroke="#000000" points="375,-75.7 375,-97.7 590,-97.7 590,-75.7 375,-75.7"/>
<text text-anchor="start" x="378" y="-83.4" font-family="Helvetica,sans-Serif" font-size="11.00" fill="#000000">_float4[8,8]</text>
<polygon fill="#ffffff" stroke="transparent" points="172,-56.7 172,-75.7 265,-75.7 265,-56.7 172,-56.7"/>
<polygon fill="none" stroke="#000000" points="172,-56.7 172,-75.7 265,-75.7 265,-56.7 172,-56.7"/>
<text text-anchor="start" x="175" y="-62.8" font-family="Helvetica,sans-Serif" font-size="11.00" fill="#000000">&lt; 2</text>
<polygon fill="#ffffff" stroke="transparent" points="265,-56.7 265,-75.7 375,-75.7 375,-56.7 265,-56.7"/>
<polygon fill="none" stroke="#000000" points="265,-56.7 265,-75.7 375,-75.7 375,-56.7 265,-56.7"/>
<text text-anchor="start" x="339.6105" y="-62.8" font-family="Helvetica,sans-Serif" font-size="11.00" fill="#000000">0 rows</text>
<polygon fill="#ffffff" stroke="transparent" points="375,-56.7 375,-75.7 590,-75.7 590,-56.7 375,-56.7"/>
<polygon fill="none" stroke="#000000" points="375,-56.7 375,-75.7 590,-75.7 590,-56.7 375,-56.7"/>
<text text-anchor="start" x="571.4053" y="-62.8" font-family="Helvetica,sans-Serif" font-size="11.00" fill="#000000">0 &gt;</text>
<polygon fill="none" stroke="#000000" stroke-width="2" points="171,-55.7 171,-231.7 591,-231.7 591,-55.7 171,-55.7"/>
</a>
</g>
</g>
<!-- _singularity -->
<g id="node2" class="node">
<title>_singularity</title>
<g id="a_node2"><a xlink:href="../../tables/_singularity.html" xlink:title="_singularity" target="_top">
<polygon fill="#ffffff" stroke="transparent" points="8,-38.2 8,-231.2 121,-231.2 121,-38.2 8,-38.2"/>
<polygon fill="#f5f5f5" stroke="transparent" points="8.5,-207.7 8.5,-230.7 121.5,-230.7 121.5,-207.7 8.5,-207.7"/>
<polygon fill="none" stroke="#000000" points="8.5,-207.7 8.5,-230.7 121.5,-230.7 121.5,-207.7 8.5,-207.7"/>
<text text-anchor="start" x="13.5" y="-216.3" font-family="Helvetica,sans-Serif" font-weight="bold" font-size="11.00" fill="#000000">_singularity</text>
<text text-anchor="start" x="86.5437" y="-215.8" font-family="Helvetica,sans-Serif" font-size="11.00" fill="#000000">[table]</text>
<polygon fill="none" stroke="#000000" points="8.5,-185.7 8.5,-207.7 121.5,-207.7 121.5,-185.7 8.5,-185.7"/>
<image xlink:href="../../images/primaryKeys.png" width="11px" height="12px" preserveAspectRatio="xMinYMin meet" x="13.5" y="-202.7"/>
<text text-anchor="start" x="28.5" y="-192.8" font-family="Helvetica,sans-Serif" font-size="11.00" fill="#000000">id</text>
<polygon fill="#ffffff" stroke="transparent" points="8.5,-163.7 8.5,-185.7 121.5,-185.7 121.5,-163.7 8.5,-163.7"/>
<polygon fill="none" stroke="#000000" points="8.5,-163.7 8.5,-185.7 121.5,-185.7 121.5,-163.7 8.5,-163.7"/>
<text text-anchor="start" x="28.5" y="-170.8" font-family="Helvetica,sans-Serif" font-size="11.00" fill="#000000">singularity_type</text>
<polygon fill="#ffffff" stroke="transparent" points="8.5,-141.7 8.5,-163.7 121.5,-163.7 121.5,-141.7 8.5,-141.7"/>
<polygon fill="none" stroke="#000000" points="8.5,-141.7 8.5,-163.7 121.5,-163.7 121.5,-141.7 8.5,-141.7"/>
<text text-anchor="start" x="28.5" y="-148.8" font-family="Helvetica,sans-Serif" font-size="11.00" fill="#000000">name</text>
<polygon fill="#ffffff" stroke="transparent" points="8.5,-119.7 8.5,-141.7 121.5,-141.7 121.5,-119.7 8.5,-119.7"/>
<polygon fill="none" stroke="#000000" points="8.5,-119.7 8.5,-141.7 121.5,-141.7 121.5,-119.7 8.5,-119.7"/>
<image xlink:href="../../images/foreignKeys.png" width="11px" height="12px" preserveAspectRatio="xMinYMin meet" x="13.5" y="-136.7"/>
<text text-anchor="start" x="28.5" y="-126.8" font-family="Helvetica,sans-Serif" font-size="11.00" fill="#000000">node</text>
<polygon fill="none" stroke="#000000" points="8.5,-97.7 8.5,-119.7 121.5,-119.7 121.5,-97.7 8.5,-97.7"/>
<image xlink:href="../../images/foreignKeys.png" width="11px" height="12px" preserveAspectRatio="xMinYMin meet" x="13.5" y="-114.7"/>
<text text-anchor="start" x="28.5" y="-104.8" font-family="Helvetica,sans-Serif" font-size="11.00" fill="#000000">node_type</text>
<polygon fill="#ffffff" stroke="transparent" points="8.5,-75.7 8.5,-97.7 121.5,-97.7 121.5,-75.7 8.5,-75.7"/>
<polygon fill="none" stroke="#000000" points="8.5,-75.7 8.5,-97.7 121.5,-97.7 121.5,-75.7 8.5,-75.7"/>
<text text-anchor="start" x="28.5" y="-82.8" font-family="Helvetica,sans-Serif" font-size="11.00" fill="#000000">validity</text>
<polygon fill="none" stroke="#000000" points="8.5,-56.7 8.5,-75.7 121.5,-75.7 121.5,-56.7 8.5,-56.7"/>
<text text-anchor="start" x="11.5" y="-62.8" font-family="Helvetica,sans-Serif" font-size="11.00" fill="#000000">...</text>
<polygon fill="#ffffff" stroke="transparent" points="8.5,-37.7 8.5,-56.7 42.5,-56.7 42.5,-37.7 8.5,-37.7"/>
<polygon fill="none" stroke="#000000" points="8.5,-37.7 8.5,-56.7 42.5,-56.7 42.5,-37.7 8.5,-37.7"/>
<text text-anchor="start" x="11.5" y="-43.8" font-family="Helvetica,sans-Serif" font-size="11.00" fill="#000000">&lt; 2</text>
<polygon fill="#ffffff" stroke="transparent" points="42.5,-37.7 42.5,-56.7 87.5,-56.7 87.5,-37.7 42.5,-37.7"/>
<polygon fill="none" stroke="#000000" points="42.5,-37.7 42.5,-56.7 87.5,-56.7 87.5,-37.7 42.5,-37.7"/>
<text text-anchor="start" x="52.1105" y="-43.8" font-family="Helvetica,sans-Serif" font-size="11.00" fill="#000000">0 rows</text>
<polygon fill="#ffffff" stroke="transparent" points="87.5,-37.7 87.5,-56.7 121.5,-56.7 121.5,-37.7 87.5,-37.7"/>
<polygon fill="none" stroke="#000000" points="87.5,-37.7 87.5,-56.7 121.5,-56.7 121.5,-37.7 87.5,-37.7"/>
<text text-anchor="start" x="96.7904" y="-43.8" font-family="Helvetica,sans-Serif" font-size="11.00" fill="#000000">52 &gt;</text>
</a>
</g>
</g>
<!-- _model_connect_bc_singularity&#45;&gt;_singularity -->
<g id="edge1" class="edge">
<title>_model_connect_bc_singularity:w&#45;&gt;_singularity:e</title>
<path fill="none" stroke="#000000" d="M161.3362,-196.7C146.9956,-196.7 139.9115,-196.7 121.5,-196.7"/>
<polygon fill="#000000" stroke="#000000" points="171.2,-192.7 171.2,-200.7 169.6,-200.7 169.6,-192.7 171.2,-192.7"/>
<polyline fill="none" stroke="#000000" points="172,-196.7 168,-196.7 "/>
<ellipse fill="none" stroke="#000000" cx="164.8" cy="-196.7001" rx="3.2" ry="3.2"/>
</g>
<!-- _model_connect_bc_singularity&#45;&gt;_singularity -->
<g id="edge2" class="edge">
<title>_model_connect_bc_singularity:w&#45;&gt;_singularity:e</title>
<path fill="none" stroke="#000000" d="M157.4203,-174.7C145.5435,-174.7 138.158,-174.7 121.5,-174.7"/>
<polygon fill="#000000" stroke="#000000" points="164,-174.7001 172,-178.3 168,-174.7 172,-174.7 172,-174.7 172,-174.7 168,-174.7 172,-171.1 164,-174.7001 164,-174.7001"/>
<ellipse fill="none" stroke="#000000" cx="160.8" cy="-174.7001" rx="3.2" ry="3.2"/>
</g>
</g>
</svg>
