<?xml version="1.0" encoding="UTF-8" standalone="no"?>
<!DOCTYPE svg PUBLIC "-//W3C//DTD SVG 1.1//EN"
 "http://www.w3.org/Graphics/SVG/1.1/DTD/svg11.dtd">
<!-- Generated by graphviz version 2.40.1 (20161225.0304)
 -->
<!-- Title: oneDegreeRelationshipsDiagram Pages: 1 -->
<svg width="572pt" height="448pt"
 viewBox="0.00 0.00 572.00 448.20" xmlns="http://www.w3.org/2000/svg" xmlns:xlink="http://www.w3.org/1999/xlink">
<g id="graph0" class="graph" transform="scale(1 1) rotate(0) translate(4 444.2)">
<title>oneDegreeRelationshipsDiagram</title>
<polygon fill="#ffffff" stroke="transparent" points="-4,4 -4,-444.2 568,-444.2 568,4 -4,4"/>
<text text-anchor="middle" x="72.4936" y="-7.3" font-family="Helvetica,sans-Serif" font-size="11.00" fill="#000000">Generated by SchemaSpy</text>
<!-- _overflow_link -->
<g id="node1" class="node">
<title>_overflow_link</title>
<g id="a_node1"><a xlink:href="../../tables/_overflow_link.html" xlink:title="_overflow_link" target="_top">
<polygon fill="#ffffff" stroke="transparent" points="154,-38.2 154,-436.2 556,-436.2 556,-38.2 154,-38.2"/>
<polygon fill="#f5f5f5" stroke="transparent" points="156,-411.2 156,-434.2 554,-434.2 554,-411.2 156,-411.2"/>
<polygon fill="none" stroke="#000000" points="156,-411.2 156,-434.2 554,-434.2 554,-411.2 156,-411.2"/>
<text text-anchor="start" x="161" y="-419.8" font-family="Helvetica,sans-Serif" font-weight="bold" font-size="11.00" fill="#000000">_overflow_link</text>
<text text-anchor="start" x="519.0437" y="-419.3" font-family="Helvetica,sans-Serif" font-size="11.00" fill="#000000">[table]</text>
<polygon fill="#ffffff" stroke="transparent" points="156,-389.2 156,-411.2 315,-411.2 315,-389.2 156,-389.2"/>
<polygon fill="none" stroke="#000000" points="156,-389.2 156,-411.2 315,-411.2 315,-389.2 156,-389.2"/>
<image xlink:href="../../images/foreignKeys.png" width="11px" height="12px" preserveAspectRatio="xMinYMin meet" x="161" y="-406.2"/>
<text text-anchor="start" x="176" y="-396.3" font-family="Helvetica,sans-Serif" font-size="11.00" fill="#000000">id</text>
<polygon fill="none" stroke="#000000" points="315,-389.2 315,-411.2 554,-411.2 554,-389.2 315,-389.2"/>
<text text-anchor="start" x="318" y="-396.9" font-family="Helvetica,sans-Serif" font-size="11.00" fill="#000000">int4[10]</text>
<polygon fill="none" stroke="#000000" points="156,-367.2 156,-389.2 315,-389.2 315,-367.2 156,-367.2"/>
<image xlink:href="../../images/foreignKeys.png" width="11px" height="12px" preserveAspectRatio="xMinYMin meet" x="161" y="-384.2"/>
<text text-anchor="start" x="176" y="-374.3" font-family="Helvetica,sans-Serif" font-size="11.00" fill="#000000">link_type</text>
<polygon fill="none" stroke="#000000" points="315,-367.2 315,-389.2 554,-389.2 554,-367.2 315,-367.2"/>
<text text-anchor="start" x="318" y="-374.9" font-family="Helvetica,sans-Serif" font-size="11.00" fill="#000000">hydra_link_type[2147483647]</text>
<polygon fill="none" stroke="#000000" points="156,-345.2 156,-367.2 315,-367.2 315,-345.2 156,-345.2"/>
<text text-anchor="start" x="176" y="-352.3" font-family="Helvetica,sans-Serif" font-size="11.00" fill="#000000">z_crest1</text>
<polygon fill="none" stroke="#000000" points="315,-345.2 315,-367.2 554,-367.2 554,-345.2 315,-345.2"/>
<text text-anchor="start" x="318" y="-352.9" font-family="Helvetica,sans-Serif" font-size="11.00" fill="#000000">float4[8,8]</text>
<polygon fill="none" stroke="#000000" points="156,-323.2 156,-345.2 315,-345.2 315,-323.2 156,-323.2"/>
<text text-anchor="start" x="176" y="-330.3" font-family="Helvetica,sans-Serif" font-size="11.00" fill="#000000">width1</text>
<polygon fill="none" stroke="#000000" points="315,-323.2 315,-345.2 554,-345.2 554,-323.2 315,-323.2"/>
<text text-anchor="start" x="318" y="-330.9" font-family="Helvetica,sans-Serif" font-size="11.00" fill="#000000">float4[8,8]</text>
<polygon fill="none" stroke="#000000" points="156,-301.2 156,-323.2 315,-323.2 315,-301.2 156,-301.2"/>
<text text-anchor="start" x="176" y="-308.3" font-family="Helvetica,sans-Serif" font-size="11.00" fill="#000000">z_crest2</text>
<polygon fill="none" stroke="#000000" points="315,-301.2 315,-323.2 554,-323.2 554,-301.2 315,-301.2"/>
<text text-anchor="start" x="318" y="-308.9" font-family="Helvetica,sans-Serif" font-size="11.00" fill="#000000">float4[8,8]</text>
<polygon fill="none" stroke="#000000" points="156,-279.2 156,-301.2 315,-301.2 315,-279.2 156,-279.2"/>
<text text-anchor="start" x="176" y="-286.3" font-family="Helvetica,sans-Serif" font-size="11.00" fill="#000000">width2</text>
<polygon fill="none" stroke="#000000" points="315,-279.2 315,-301.2 554,-301.2 554,-279.2 315,-279.2"/>
<text text-anchor="start" x="318" y="-286.9" font-family="Helvetica,sans-Serif" font-size="11.00" fill="#000000">float4[8,8]</text>
<polygon fill="none" stroke="#000000" points="156,-257.2 156,-279.2 315,-279.2 315,-257.2 156,-257.2"/>
<text text-anchor="start" x="176" y="-264.3" font-family="Helvetica,sans-Serif" font-size="11.00" fill="#000000">cc</text>
<polygon fill="none" stroke="#000000" points="315,-257.2 315,-279.2 554,-279.2 554,-257.2 315,-257.2"/>
<text text-anchor="start" x="318" y="-264.9" font-family="Helvetica,sans-Serif" font-size="11.00" fill="#000000">float4[8,8]</text>
<polygon fill="none" stroke="#000000" points="156,-235.2 156,-257.2 315,-257.2 315,-235.2 156,-235.2"/>
<text text-anchor="start" x="176" y="-242.3" font-family="Helvetica,sans-Serif" font-size="11.00" fill="#000000">lateral_contraction_coef</text>
<polygon fill="none" stroke="#000000" points="315,-235.2 315,-257.2 554,-257.2 554,-235.2 315,-235.2"/>
<text text-anchor="start" x="318" y="-242.9" font-family="Helvetica,sans-Serif" font-size="11.00" fill="#000000">float4[8,8]</text>
<polygon fill="none" stroke="#000000" points="156,-213.2 156,-235.2 315,-235.2 315,-213.2 156,-213.2"/>
<text text-anchor="start" x="176" y="-220.3" font-family="Helvetica,sans-Serif" font-size="11.00" fill="#000000">break_mode</text>
<polygon fill="none" stroke="#000000" points="315,-213.2 315,-235.2 554,-235.2 554,-213.2 315,-213.2"/>
<text text-anchor="start" x="317.7388" y="-220.9" font-family="Helvetica,sans-Serif" font-size="11.00" fill="#000000">hydra_fuse_spillway_break_mode[2147483647]</text>
<polygon fill="none" stroke="#000000" points="156,-191.2 156,-213.2 315,-213.2 315,-191.2 156,-191.2"/>
<text text-anchor="start" x="176" y="-198.3" font-family="Helvetica,sans-Serif" font-size="11.00" fill="#000000">z_break</text>
<polygon fill="none" stroke="#000000" points="315,-191.2 315,-213.2 554,-213.2 554,-191.2 315,-191.2"/>
<text text-anchor="start" x="318" y="-198.9" font-family="Helvetica,sans-Serif" font-size="11.00" fill="#000000">float4[8,8]</text>
<polygon fill="none" stroke="#000000" points="156,-169.2 156,-191.2 315,-191.2 315,-169.2 156,-169.2"/>
<text text-anchor="start" x="176" y="-176.3" font-family="Helvetica,sans-Serif" font-size="11.00" fill="#000000">t_break</text>
<polygon fill="none" stroke="#000000" points="315,-169.2 315,-191.2 554,-191.2 554,-169.2 315,-169.2"/>
<text text-anchor="start" x="318" y="-176.9" font-family="Helvetica,sans-Serif" font-size="11.00" fill="#000000">float4[8,8]</text>
<polygon fill="none" stroke="#000000" points="156,-147.2 156,-169.2 315,-169.2 315,-147.2 156,-147.2"/>
<text text-anchor="start" x="176" y="-154.3" font-family="Helvetica,sans-Serif" font-size="11.00" fill="#000000">z_invert</text>
<polygon fill="none" stroke="#000000" points="315,-147.2 315,-169.2 554,-169.2 554,-147.2 315,-147.2"/>
<text text-anchor="start" x="318" y="-154.9" font-family="Helvetica,sans-Serif" font-size="11.00" fill="#000000">float4[8,8]</text>
<polygon fill="none" stroke="#000000" points="156,-125.2 156,-147.2 315,-147.2 315,-125.2 156,-125.2"/>
<text text-anchor="start" x="176" y="-132.3" font-family="Helvetica,sans-Serif" font-size="11.00" fill="#000000">width_breach</text>
<polygon fill="none" stroke="#000000" points="315,-125.2 315,-147.2 554,-147.2 554,-125.2 315,-125.2"/>
<text text-anchor="start" x="318" y="-132.9" font-family="Helvetica,sans-Serif" font-size="11.00" fill="#000000">float4[8,8]</text>
<polygon fill="none" stroke="#000000" points="156,-103.2 156,-125.2 315,-125.2 315,-103.2 156,-103.2"/>
<text text-anchor="start" x="176" y="-110.3" font-family="Helvetica,sans-Serif" font-size="11.00" fill="#000000">grp</text>
<polygon fill="none" stroke="#000000" points="315,-103.2 315,-125.2 554,-125.2 554,-103.2 315,-103.2"/>
<text text-anchor="start" x="318" y="-110.9" font-family="Helvetica,sans-Serif" font-size="11.00" fill="#000000">int4[10]</text>
<polygon fill="none" stroke="#000000" points="156,-81.2 156,-103.2 315,-103.2 315,-81.2 156,-81.2"/>
<text text-anchor="start" x="176" y="-88.3" font-family="Helvetica,sans-Serif" font-size="11.00" fill="#000000">dt_fracw_array</text>
<polygon fill="none" stroke="#000000" points="315,-81.2 315,-103.2 554,-103.2 554,-81.2 315,-81.2"/>
<text text-anchor="start" x="318" y="-88.9" font-family="Helvetica,sans-Serif" font-size="11.00" fill="#000000">_float4[8,8]</text>
<polygon fill="none" stroke="#000000" points="156,-59.2 156,-81.2 315,-81.2 315,-59.2 156,-59.2"/>
<text text-anchor="start" x="176" y="-66.3" font-family="Helvetica,sans-Serif" font-size="11.00" fill="#000000">border</text>
<polygon fill="none" stroke="#000000" points="315,-59.2 315,-81.2 554,-81.2 554,-59.2 315,-59.2"/>
<text text-anchor="start" x="318" y="-66.9" font-family="Helvetica,sans-Serif" font-size="11.00" fill="#000000">geometry[2147483647]</text>
<polygon fill="#ffffff" stroke="transparent" points="156,-40.2 156,-59.2 227,-59.2 227,-40.2 156,-40.2"/>
<polygon fill="none" stroke="#000000" points="156,-40.2 156,-59.2 227,-59.2 227,-40.2 156,-40.2"/>
<text text-anchor="start" x="159" y="-46.3" font-family="Helvetica,sans-Serif" font-size="11.00" fill="#000000">&lt; 2</text>
<polygon fill="#ffffff" stroke="transparent" points="227,-40.2 227,-59.2 315,-59.2 315,-40.2 227,-40.2"/>
<polygon fill="none" stroke="#000000" points="227,-40.2 227,-59.2 315,-59.2 315,-40.2 227,-40.2"/>
<text text-anchor="start" x="279.6105" y="-46.3" font-family="Helvetica,sans-Serif" font-size="11.00" fill="#000000">0 rows</text>
<polygon fill="#ffffff" stroke="transparent" points="315,-40.2 315,-59.2 554,-59.2 554,-40.2 315,-40.2"/>
<polygon fill="none" stroke="#000000" points="315,-40.2 315,-59.2 554,-59.2 554,-40.2 315,-40.2"/>
<text text-anchor="start" x="535.4053" y="-46.3" font-family="Helvetica,sans-Serif" font-size="11.00" fill="#000000">0 &gt;</text>
<polygon fill="none" stroke="#000000" stroke-width="2" points="155,-39.2 155,-435.2 555,-435.2 555,-39.2 155,-39.2"/>
</a>
</g>
</g>
<!-- _link -->
<g id="node2" class="node">
<title>_link</title>
<g id="a_node2"><a xlink:href="../../tables/_link.html" xlink:title="_link" target="_top">
<polygon fill="#ffffff" stroke="transparent" points="8,-153.7 8,-434.7 105,-434.7 105,-153.7 8,-153.7"/>
<polygon fill="#f5f5f5" stroke="transparent" points="8.5,-411.2 8.5,-434.2 105.5,-434.2 105.5,-411.2 8.5,-411.2"/>
<polygon fill="none" stroke="#000000" points="8.5,-411.2 8.5,-434.2 105.5,-434.2 105.5,-411.2 8.5,-411.2"/>
<text text-anchor="start" x="13.5" y="-419.8" font-family="Helvetica,sans-Serif" font-weight="bold" font-size="11.00" fill="#000000">_link</text>
<text text-anchor="start" x="70.5437" y="-419.3" font-family="Helvetica,sans-Serif" font-size="11.00" fill="#000000">[table]</text>
<polygon fill="none" stroke="#000000" points="8.5,-389.2 8.5,-411.2 105.5,-411.2 105.5,-389.2 8.5,-389.2"/>
<image xlink:href="../../images/primaryKeys.png" width="11px" height="12px" preserveAspectRatio="xMinYMin meet" x="13.5" y="-406.2"/>
<text text-anchor="start" x="28.5" y="-396.3" font-family="Helvetica,sans-Serif" font-size="11.00" fill="#000000">id</text>
<polygon fill="#ffffff" stroke="transparent" points="8.5,-367.2 8.5,-389.2 105.5,-389.2 105.5,-367.2 8.5,-367.2"/>
<polygon fill="none" stroke="#000000" points="8.5,-367.2 8.5,-389.2 105.5,-389.2 105.5,-367.2 8.5,-367.2"/>
<text text-anchor="start" x="28.5" y="-374.3" font-family="Helvetica,sans-Serif" font-size="11.00" fill="#000000">link_type</text>
<polygon fill="#ffffff" stroke="transparent" points="8.5,-345.2 8.5,-367.2 105.5,-367.2 105.5,-345.2 8.5,-345.2"/>
<polygon fill="none" stroke="#000000" points="8.5,-345.2 8.5,-367.2 105.5,-367.2 105.5,-345.2 8.5,-345.2"/>
<text text-anchor="start" x="28.5" y="-352.3" font-family="Helvetica,sans-Serif" font-size="11.00" fill="#000000">name</text>
<polygon fill="#ffffff" stroke="transparent" points="8.5,-323.2 8.5,-345.2 105.5,-345.2 105.5,-323.2 8.5,-323.2"/>
<polygon fill="none" stroke="#000000" points="8.5,-323.2 8.5,-345.2 105.5,-345.2 105.5,-323.2 8.5,-323.2"/>
<image xlink:href="../../images/foreignKeys.png" width="11px" height="12px" preserveAspectRatio="xMinYMin meet" x="13.5" y="-340.2"/>
<text text-anchor="start" x="28.5" y="-330.3" font-family="Helvetica,sans-Serif" font-size="11.00" fill="#000000">generated</text>
<polygon fill="#ffffff" stroke="transparent" points="8.5,-301.2 8.5,-323.2 105.5,-323.2 105.5,-301.2 8.5,-301.2"/>
<polygon fill="none" stroke="#000000" points="8.5,-301.2 8.5,-323.2 105.5,-323.2 105.5,-301.2 8.5,-301.2"/>
<image xlink:href="../../images/foreignKeys.png" width="11px" height="12px" preserveAspectRatio="xMinYMin meet" x="13.5" y="-318.2"/>
<text text-anchor="start" x="28.5" y="-308.3" font-family="Helvetica,sans-Serif" font-size="11.00" fill="#000000">up</text>
<polygon fill="none" stroke="#000000" points="8.5,-279.2 8.5,-301.2 105.5,-301.2 105.5,-279.2 8.5,-279.2"/>
<image xlink:href="../../images/foreignKeys.png" width="11px" height="12px" preserveAspectRatio="xMinYMin meet" x="13.5" y="-296.2"/>
<text text-anchor="start" x="28.5" y="-286.3" font-family="Helvetica,sans-Serif" font-size="11.00" fill="#000000">up_type</text>
<polygon fill="#ffffff" stroke="transparent" points="8.5,-257.2 8.5,-279.2 105.5,-279.2 105.5,-257.2 8.5,-257.2"/>
<polygon fill="none" stroke="#000000" points="8.5,-257.2 8.5,-279.2 105.5,-279.2 105.5,-257.2 8.5,-257.2"/>
<image xlink:href="../../images/foreignKeys.png" width="11px" height="12px" preserveAspectRatio="xMinYMin meet" x="13.5" y="-274.2"/>
<text text-anchor="start" x="28.5" y="-264.3" font-family="Helvetica,sans-Serif" font-size="11.00" fill="#000000">down</text>
<polygon fill="none" stroke="#000000" points="8.5,-235.2 8.5,-257.2 105.5,-257.2 105.5,-235.2 8.5,-235.2"/>
<image xlink:href="../../images/foreignKeys.png" width="11px" height="12px" preserveAspectRatio="xMinYMin meet" x="13.5" y="-252.2"/>
<text text-anchor="start" x="28.5" y="-242.3" font-family="Helvetica,sans-Serif" font-size="11.00" fill="#000000">down_type</text>
<polygon fill="#ffffff" stroke="transparent" points="8.5,-213.2 8.5,-235.2 105.5,-235.2 105.5,-213.2 8.5,-213.2"/>
<polygon fill="none" stroke="#000000" points="8.5,-213.2 8.5,-235.2 105.5,-235.2 105.5,-213.2 8.5,-213.2"/>
<text text-anchor="start" x="28.5" y="-220.3" font-family="Helvetica,sans-Serif" font-size="11.00" fill="#000000">geom</text>
<polygon fill="#ffffff" stroke="transparent" points="8.5,-191.2 8.5,-213.2 105.5,-213.2 105.5,-191.2 8.5,-191.2"/>
<polygon fill="none" stroke="#000000" points="8.5,-191.2 8.5,-213.2 105.5,-213.2 105.5,-191.2 8.5,-191.2"/>
<text text-anchor="start" x="28.5" y="-198.3" font-family="Helvetica,sans-Serif" font-size="11.00" fill="#000000">validity</text>
<polygon fill="none" stroke="#000000" points="8.5,-172.2 8.5,-191.2 105.5,-191.2 105.5,-172.2 8.5,-172.2"/>
<text text-anchor="start" x="11.5" y="-178.3" font-family="Helvetica,sans-Serif" font-size="11.00" fill="#000000">...</text>
<polygon fill="#ffffff" stroke="transparent" points="8.5,-153.2 8.5,-172.2 34.5,-172.2 34.5,-153.2 8.5,-153.2"/>
<polygon fill="none" stroke="#000000" points="8.5,-153.2 8.5,-172.2 34.5,-172.2 34.5,-153.2 8.5,-153.2"/>
<text text-anchor="start" x="11.5" y="-159.3" font-family="Helvetica,sans-Serif" font-size="11.00" fill="#000000">&lt; 5</text>
<polygon fill="#ffffff" stroke="transparent" points="34.5,-153.2 34.5,-172.2 75.5,-172.2 75.5,-153.2 34.5,-153.2"/>
<polygon fill="none" stroke="#000000" points="34.5,-153.2 34.5,-172.2 75.5,-172.2 75.5,-153.2 34.5,-153.2"/>
<text text-anchor="start" x="40.1105" y="-159.3" font-family="Helvetica,sans-Serif" font-size="11.00" fill="#000000">0 rows</text>
<polygon fill="#ffffff" stroke="transparent" points="75.5,-153.2 75.5,-172.2 105.5,-172.2 105.5,-153.2 75.5,-153.2"/>
<polygon fill="none" stroke="#000000" points="75.5,-153.2 75.5,-172.2 105.5,-172.2 105.5,-153.2 75.5,-153.2"/>
<text text-anchor="start" x="80.7904" y="-159.3" font-family="Helvetica,sans-Serif" font-size="11.00" fill="#000000">60 &gt;</text>
</a>
</g>
</g>
<!-- _overflow_link&#45;&gt;_link -->
<g id="edge1" class="edge">
<title>_overflow_link:w&#45;&gt;_link:e</title>
<path fill="none" stroke="#000000" d="M145.3362,-400.2C130.9956,-400.2 123.9115,-400.2 105.5,-400.2"/>
<polygon fill="#000000" stroke="#000000" points="155.2,-396.2 155.2,-404.2 153.6,-404.2 153.6,-396.2 155.2,-396.2"/>
<polyline fill="none" stroke="#000000" points="156,-400.2 152,-400.2 "/>
<ellipse fill="none" stroke="#000000" cx="148.8" cy="-400.2001" rx="3.2" ry="3.2"/>
</g>
<!-- _overflow_link&#45;&gt;_link -->
<g id="edge2" class="edge">
<title>_overflow_link:w&#45;&gt;_link:e</title>
<path fill="none" stroke="#000000" d="M141.4203,-378.2C129.5435,-378.2 122.158,-378.2 105.5,-378.2"/>
<polygon fill="#000000" stroke="#000000" points="148,-378.2001 156,-381.8 152,-378.2 156,-378.2 156,-378.2 156,-378.2 152,-378.2 156,-374.6 148,-378.2001 148,-378.2001"/>
<ellipse fill="none" stroke="#000000" cx="144.8" cy="-378.2001" rx="3.2" ry="3.2"/>
</g>
</g>
</svg>
