<?xml version="1.0" encoding="UTF-8" standalone="no"?>
<!DOCTYPE svg PUBLIC "-//W3C//DTD SVG 1.1//EN"
 "http://www.w3.org/Graphics/SVG/1.1/DTD/svg11.dtd">
<!-- Generated by graphviz version 2.40.1 (20161225.0304)
 -->
<!-- Title: oneDegreeRelationshipsDiagram Pages: 1 -->
<svg width="586pt" height="245pt"
 viewBox="0.00 0.00 586.00 244.70" xmlns="http://www.w3.org/2000/svg" xmlns:xlink="http://www.w3.org/1999/xlink">
<g id="graph0" class="graph" transform="scale(1 1) rotate(0) translate(4 240.7)">
<title>oneDegreeRelationshipsDiagram</title>
<polygon fill="#ffffff" stroke="transparent" points="-4,4 -4,-240.7 582,-240.7 582,4 -4,4"/>
<text text-anchor="middle" x="72.4936" y="-7.3" font-family="Helvetica,sans-Serif" font-size="11.00" fill="#000000">Generated by SchemaSpy</text>
<!-- _pipe_branch_marker_singularity -->
<g id="node1" class="node">
<title>_pipe_branch_marker_singularity</title>
<g id="a_node1"><a xlink:href="../../tables/_pipe_branch_marker_singularity.html" xlink:title="_pipe_branch_marker_singularity" target="_top">
<polygon fill="#ffffff" stroke="transparent" points="170,-98.7 170,-232.7 570,-232.7 570,-98.7 170,-98.7"/>
<polygon fill="#f5f5f5" stroke="transparent" points="172,-207.7 172,-230.7 568,-230.7 568,-207.7 172,-207.7"/>
<polygon fill="none" stroke="#000000" points="172,-207.7 172,-230.7 568,-230.7 568,-207.7 172,-207.7"/>
<text text-anchor="start" x="177" y="-216.3" font-family="Helvetica,sans-Serif" font-weight="bold" font-size="11.00" fill="#000000">_pipe_branch_marker_singularity</text>
<text text-anchor="start" x="533.0437" y="-215.8" font-family="Helvetica,sans-Serif" font-size="11.00" fill="#000000">[table]</text>
<polygon fill="#ffffff" stroke="transparent" points="172,-185.7 172,-207.7 385,-207.7 385,-185.7 172,-185.7"/>
<polygon fill="none" stroke="#000000" points="172,-185.7 172,-207.7 385,-207.7 385,-185.7 172,-185.7"/>
<image xlink:href="../../images/foreignKeys.png" width="11px" height="12px" preserveAspectRatio="xMinYMin meet" x="177" y="-202.7"/>
<text text-anchor="start" x="192" y="-192.8" font-family="Helvetica,sans-Serif" font-size="11.00" fill="#000000">id</text>
<polygon fill="none" stroke="#000000" points="385,-185.7 385,-207.7 568,-207.7 568,-185.7 385,-185.7"/>
<text text-anchor="start" x="388" y="-193.4" font-family="Helvetica,sans-Serif" font-size="11.00" fill="#000000">int4[10]</text>
<polygon fill="none" stroke="#000000" points="172,-163.7 172,-185.7 385,-185.7 385,-163.7 172,-163.7"/>
<image xlink:href="../../images/foreignKeys.png" width="11px" height="12px" preserveAspectRatio="xMinYMin meet" x="177" y="-180.7"/>
<text text-anchor="start" x="192" y="-170.8" font-family="Helvetica,sans-Serif" font-size="11.00" fill="#000000">singularity_type</text>
<polygon fill="none" stroke="#000000" points="385,-163.7 385,-185.7 568,-185.7 568,-163.7 385,-163.7"/>
<text text-anchor="start" x="387.8565" y="-171.4" font-family="Helvetica,sans-Serif" font-size="11.00" fill="#000000">hydra_singularity_type[2147483647]</text>
<polygon fill="none" stroke="#000000" points="172,-141.7 172,-163.7 385,-163.7 385,-141.7 172,-141.7"/>
<text text-anchor="start" x="192" y="-148.8" font-family="Helvetica,sans-Serif" font-size="11.00" fill="#000000">pk0_km</text>
<polygon fill="none" stroke="#000000" points="385,-141.7 385,-163.7 568,-163.7 568,-141.7 385,-141.7"/>
<text text-anchor="start" x="388" y="-149.4" font-family="Helvetica,sans-Serif" font-size="11.00" fill="#000000">float4[8,8]</text>
<polygon fill="none" stroke="#000000" points="172,-119.7 172,-141.7 385,-141.7 385,-119.7 172,-119.7"/>
<text text-anchor="start" x="192" y="-126.8" font-family="Helvetica,sans-Serif" font-size="11.00" fill="#000000">dx</text>
<polygon fill="none" stroke="#000000" points="385,-119.7 385,-141.7 568,-141.7 568,-119.7 385,-119.7"/>
<text text-anchor="start" x="388" y="-127.4" font-family="Helvetica,sans-Serif" font-size="11.00" fill="#000000">float4[8,8]</text>
<polygon fill="#ffffff" stroke="transparent" points="172,-100.7 172,-119.7 270,-119.7 270,-100.7 172,-100.7"/>
<polygon fill="none" stroke="#000000" points="172,-100.7 172,-119.7 270,-119.7 270,-100.7 172,-100.7"/>
<text text-anchor="start" x="175" y="-106.8" font-family="Helvetica,sans-Serif" font-size="11.00" fill="#000000">&lt; 2</text>
<polygon fill="#ffffff" stroke="transparent" points="270,-100.7 270,-119.7 385,-119.7 385,-100.7 270,-100.7"/>
<polygon fill="none" stroke="#000000" points="270,-100.7 270,-119.7 385,-119.7 385,-100.7 270,-100.7"/>
<text text-anchor="start" x="349.6105" y="-106.8" font-family="Helvetica,sans-Serif" font-size="11.00" fill="#000000">0 rows</text>
<polygon fill="#ffffff" stroke="transparent" points="385,-100.7 385,-119.7 568,-119.7 568,-100.7 385,-100.7"/>
<polygon fill="none" stroke="#000000" points="385,-100.7 385,-119.7 568,-119.7 568,-100.7 385,-100.7"/>
<text text-anchor="start" x="549.4053" y="-106.8" font-family="Helvetica,sans-Serif" font-size="11.00" fill="#000000">0 &gt;</text>
<polygon fill="none" stroke="#000000" stroke-width="2" points="171,-99.7 171,-231.7 569,-231.7 569,-99.7 171,-99.7"/>
</a>
</g>
</g>
<!-- _singularity -->
<g id="node2" class="node">
<title>_singularity</title>
<g id="a_node2"><a xlink:href="../../tables/_singularity.html" xlink:title="_singularity" target="_top">
<polygon fill="#ffffff" stroke="transparent" points="8,-38.2 8,-231.2 121,-231.2 121,-38.2 8,-38.2"/>
<polygon fill="#f5f5f5" stroke="transparent" points="8.5,-207.7 8.5,-230.7 121.5,-230.7 121.5,-207.7 8.5,-207.7"/>
<polygon fill="none" stroke="#000000" points="8.5,-207.7 8.5,-230.7 121.5,-230.7 121.5,-207.7 8.5,-207.7"/>
<text text-anchor="start" x="13.5" y="-216.3" font-family="Helvetica,sans-Serif" font-weight="bold" font-size="11.00" fill="#000000">_singularity</text>
<text text-anchor="start" x="86.5437" y="-215.8" font-family="Helvetica,sans-Serif" font-size="11.00" fill="#000000">[table]</text>
<polygon fill="none" stroke="#000000" points="8.5,-185.7 8.5,-207.7 121.5,-207.7 121.5,-185.7 8.5,-185.7"/>
<image xlink:href="../../images/primaryKeys.png" width="11px" height="12px" preserveAspectRatio="xMinYMin meet" x="13.5" y="-202.7"/>
<text text-anchor="start" x="28.5" y="-192.8" font-family="Helvetica,sans-Serif" font-size="11.00" fill="#000000">id</text>
<polygon fill="#ffffff" stroke="transparent" points="8.5,-163.7 8.5,-185.7 121.5,-185.7 121.5,-163.7 8.5,-163.7"/>
<polygon fill="none" stroke="#000000" points="8.5,-163.7 8.5,-185.7 121.5,-185.7 121.5,-163.7 8.5,-163.7"/>
<text text-anchor="start" x="28.5" y="-170.8" font-family="Helvetica,sans-Serif" font-size="11.00" fill="#000000">singularity_type</text>
<polygon fill="#ffffff" stroke="transparent" points="8.5,-141.7 8.5,-163.7 121.5,-163.7 121.5,-141.7 8.5,-141.7"/>
<polygon fill="none" stroke="#000000" points="8.5,-141.7 8.5,-163.7 121.5,-163.7 121.5,-141.7 8.5,-141.7"/>
<text text-anchor="start" x="28.5" y="-148.8" font-family="Helvetica,sans-Serif" font-size="11.00" fill="#000000">name</text>
<polygon fill="#ffffff" stroke="transparent" points="8.5,-119.7 8.5,-141.7 121.5,-141.7 121.5,-119.7 8.5,-119.7"/>
<polygon fill="none" stroke="#000000" points="8.5,-119.7 8.5,-141.7 121.5,-141.7 121.5,-119.7 8.5,-119.7"/>
<image xlink:href="../../images/foreignKeys.png" width="11px" height="12px" preserveAspectRatio="xMinYMin meet" x="13.5" y="-136.7"/>
<text text-anchor="start" x="28.5" y="-126.8" font-family="Helvetica,sans-Serif" font-size="11.00" fill="#000000">node</text>
<polygon fill="none" stroke="#000000" points="8.5,-97.7 8.5,-119.7 121.5,-119.7 121.5,-97.7 8.5,-97.7"/>
<image xlink:href="../../images/foreignKeys.png" width="11px" height="12px" preserveAspectRatio="xMinYMin meet" x="13.5" y="-114.7"/>
<text text-anchor="start" x="28.5" y="-104.8" font-family="Helvetica,sans-Serif" font-size="11.00" fill="#000000">node_type</text>
<polygon fill="#ffffff" stroke="transparent" points="8.5,-75.7 8.5,-97.7 121.5,-97.7 121.5,-75.7 8.5,-75.7"/>
<polygon fill="none" stroke="#000000" points="8.5,-75.7 8.5,-97.7 121.5,-97.7 121.5,-75.7 8.5,-75.7"/>
<text text-anchor="start" x="28.5" y="-82.8" font-family="Helvetica,sans-Serif" font-size="11.00" fill="#000000">validity</text>
<polygon fill="none" stroke="#000000" points="8.5,-56.7 8.5,-75.7 121.5,-75.7 121.5,-56.7 8.5,-56.7"/>
<text text-anchor="start" x="11.5" y="-62.8" font-family="Helvetica,sans-Serif" font-size="11.00" fill="#000000">...</text>
<polygon fill="#ffffff" stroke="transparent" points="8.5,-37.7 8.5,-56.7 42.5,-56.7 42.5,-37.7 8.5,-37.7"/>
<polygon fill="none" stroke="#000000" points="8.5,-37.7 8.5,-56.7 42.5,-56.7 42.5,-37.7 8.5,-37.7"/>
<text text-anchor="start" x="11.5" y="-43.8" font-family="Helvetica,sans-Serif" font-size="11.00" fill="#000000">&lt; 2</text>
<polygon fill="#ffffff" stroke="transparent" points="42.5,-37.7 42.5,-56.7 87.5,-56.7 87.5,-37.7 42.5,-37.7"/>
<polygon fill="none" stroke="#000000" points="42.5,-37.7 42.5,-56.7 87.5,-56.7 87.5,-37.7 42.5,-37.7"/>
<text text-anchor="start" x="52.1105" y="-43.8" font-family="Helvetica,sans-Serif" font-size="11.00" fill="#000000">0 rows</text>
<polygon fill="#ffffff" stroke="transparent" points="87.5,-37.7 87.5,-56.7 121.5,-56.7 121.5,-37.7 87.5,-37.7"/>
<polygon fill="none" stroke="#000000" points="87.5,-37.7 87.5,-56.7 121.5,-56.7 121.5,-37.7 87.5,-37.7"/>
<text text-anchor="start" x="96.7904" y="-43.8" font-family="Helvetica,sans-Serif" font-size="11.00" fill="#000000">52 &gt;</text>
</a>
</g>
</g>
<!-- _pipe_branch_marker_singularity&#45;&gt;_singularity -->
<g id="edge1" class="edge">
<title>_pipe_branch_marker_singularity:w&#45;&gt;_singularity:e</title>
<path fill="none" stroke="#000000" d="M161.3362,-196.7C146.9956,-196.7 139.9115,-196.7 121.5,-196.7"/>
<polygon fill="#000000" stroke="#000000" points="171.2,-192.7 171.2,-200.7 169.6,-200.7 169.6,-192.7 171.2,-192.7"/>
<polyline fill="none" stroke="#000000" points="172,-196.7 168,-196.7 "/>
<ellipse fill="none" stroke="#000000" cx="164.8" cy="-196.7001" rx="3.2" ry="3.2"/>
</g>
<!-- _pipe_branch_marker_singularity&#45;&gt;_singularity -->
<g id="edge2" class="edge">
<title>_pipe_branch_marker_singularity:w&#45;&gt;_singularity:e</title>
<path fill="none" stroke="#000000" d="M157.4203,-174.7C145.5435,-174.7 138.158,-174.7 121.5,-174.7"/>
<polygon fill="#000000" stroke="#000000" points="164,-174.7001 172,-178.3 168,-174.7 172,-174.7 172,-174.7 172,-174.7 168,-174.7 172,-171.1 164,-174.7001 164,-174.7001"/>
<ellipse fill="none" stroke="#000000" cx="160.8" cy="-174.7001" rx="3.2" ry="3.2"/>
</g>
</g>
</svg>
