<?xml version="1.0" encoding="UTF-8" standalone="no"?>
<!DOCTYPE svg PUBLIC "-//W3C//DTD SVG 1.1//EN"
 "http://www.w3.org/Graphics/SVG/1.1/DTD/svg11.dtd">
<!-- Generated by graphviz version 2.40.1 (20161225.0304)
 -->
<!-- Title: oneDegreeRelationshipsDiagram Pages: 1 -->
<svg width="632pt" height="709pt"
 viewBox="0.00 0.00 632.00 709.20" xmlns="http://www.w3.org/2000/svg" xmlns:xlink="http://www.w3.org/1999/xlink">
<g id="graph0" class="graph" transform="scale(1 1) rotate(0) translate(4 705.2)">
<title>oneDegreeRelationshipsDiagram</title>
<polygon fill="#ffffff" stroke="transparent" points="-4,4 -4,-705.2 628,-705.2 628,4 -4,4"/>
<text text-anchor="middle" x="72.4936" y="-7.3" font-family="Helvetica,sans-Serif" font-size="11.00" fill="#000000">Generated by SchemaSpy</text>
<!-- _pipe_link -->
<g id="node1" class="node">
<title>_pipe_link</title>
<g id="a_node1"><a xlink:href="../../tables/_pipe_link.html" xlink:title="_pipe_link" target="_top">
<polygon fill="#ffffff" stroke="transparent" points="262,-158.7 262,-578.7 616,-578.7 616,-158.7 262,-158.7"/>
<polygon fill="#f5f5f5" stroke="transparent" points="264,-553.7 264,-576.7 614,-576.7 614,-553.7 264,-553.7"/>
<polygon fill="none" stroke="#000000" points="264,-553.7 264,-576.7 614,-576.7 614,-553.7 264,-553.7"/>
<text text-anchor="start" x="269" y="-562.3" font-family="Helvetica,sans-Serif" font-weight="bold" font-size="11.00" fill="#000000">_pipe_link</text>
<text text-anchor="start" x="579.0437" y="-561.8" font-family="Helvetica,sans-Serif" font-size="11.00" fill="#000000">[table]</text>
<polygon fill="#ffffff" stroke="transparent" points="264,-531.7 264,-553.7 413,-553.7 413,-531.7 264,-531.7"/>
<polygon fill="none" stroke="#000000" points="264,-531.7 264,-553.7 413,-553.7 413,-531.7 264,-531.7"/>
<image xlink:href="../../images/foreignKeys.png" width="11px" height="12px" preserveAspectRatio="xMinYMin meet" x="269" y="-548.7"/>
<text text-anchor="start" x="284" y="-538.8" font-family="Helvetica,sans-Serif" font-size="11.00" fill="#000000">id</text>
<polygon fill="none" stroke="#000000" points="413,-531.7 413,-553.7 614,-553.7 614,-531.7 413,-531.7"/>
<text text-anchor="start" x="416" y="-539.4" font-family="Helvetica,sans-Serif" font-size="11.00" fill="#000000">int4[10]</text>
<polygon fill="none" stroke="#000000" points="264,-509.7 264,-531.7 413,-531.7 413,-509.7 264,-509.7"/>
<image xlink:href="../../images/foreignKeys.png" width="11px" height="12px" preserveAspectRatio="xMinYMin meet" x="269" y="-526.7"/>
<text text-anchor="start" x="284" y="-516.8" font-family="Helvetica,sans-Serif" font-size="11.00" fill="#000000">link_type</text>
<polygon fill="none" stroke="#000000" points="413,-509.7 413,-531.7 614,-531.7 614,-509.7 413,-509.7"/>
<text text-anchor="start" x="416" y="-517.4" font-family="Helvetica,sans-Serif" font-size="11.00" fill="#000000">hydra_link_type[2147483647]</text>
<polygon fill="none" stroke="#000000" points="264,-487.7 264,-509.7 413,-509.7 413,-487.7 264,-487.7"/>
<text text-anchor="start" x="284" y="-494.8" font-family="Helvetica,sans-Serif" font-size="11.00" fill="#000000">z_invert_up</text>
<polygon fill="none" stroke="#000000" points="413,-487.7 413,-509.7 614,-509.7 614,-487.7 413,-487.7"/>
<text text-anchor="start" x="416" y="-495.4" font-family="Helvetica,sans-Serif" font-size="11.00" fill="#000000">float4[8,8]</text>
<polygon fill="none" stroke="#000000" points="264,-465.7 264,-487.7 413,-487.7 413,-465.7 264,-465.7"/>
<text text-anchor="start" x="284" y="-472.8" font-family="Helvetica,sans-Serif" font-size="11.00" fill="#000000">z_invert_down</text>
<polygon fill="none" stroke="#000000" points="413,-465.7 413,-487.7 614,-487.7 614,-465.7 413,-465.7"/>
<text text-anchor="start" x="416" y="-473.4" font-family="Helvetica,sans-Serif" font-size="11.00" fill="#000000">float4[8,8]</text>
<polygon fill="none" stroke="#000000" points="264,-443.7 264,-465.7 413,-465.7 413,-443.7 264,-443.7"/>
<text text-anchor="start" x="284" y="-450.8" font-family="Helvetica,sans-Serif" font-size="11.00" fill="#000000">cross_section_type</text>
<polygon fill="none" stroke="#000000" points="413,-443.7 413,-465.7 614,-465.7 614,-443.7 413,-443.7"/>
<text text-anchor="start" x="415.99" y="-451.4" font-family="Helvetica,sans-Serif" font-size="11.00" fill="#000000">hydra_cross_section_type[2147483647]</text>
<polygon fill="none" stroke="#000000" points="264,-421.7 264,-443.7 413,-443.7 413,-421.7 264,-421.7"/>
<text text-anchor="start" x="284" y="-428.8" font-family="Helvetica,sans-Serif" font-size="11.00" fill="#000000">h_sable</text>
<polygon fill="none" stroke="#000000" points="413,-421.7 413,-443.7 614,-443.7 614,-421.7 413,-421.7"/>
<text text-anchor="start" x="416" y="-429.4" font-family="Helvetica,sans-Serif" font-size="11.00" fill="#000000">float4[8,8]</text>
<polygon fill="none" stroke="#000000" points="264,-399.7 264,-421.7 413,-421.7 413,-399.7 264,-399.7"/>
<image xlink:href="../../images/foreignKeys.png" width="11px" height="12px" preserveAspectRatio="xMinYMin meet" x="269" y="-416.7"/>
<text text-anchor="start" x="284" y="-406.8" font-family="Helvetica,sans-Serif" font-size="11.00" fill="#000000">branch</text>
<polygon fill="none" stroke="#000000" points="413,-399.7 413,-421.7 614,-421.7 614,-399.7 413,-399.7"/>
<text text-anchor="start" x="416" y="-407.4" font-family="Helvetica,sans-Serif" font-size="11.00" fill="#000000">int4[10]</text>
<polygon fill="none" stroke="#000000" points="264,-377.7 264,-399.7 413,-399.7 413,-377.7 264,-377.7"/>
<text text-anchor="start" x="284" y="-384.8" font-family="Helvetica,sans-Serif" font-size="11.00" fill="#000000">exclude_from_branch</text>
<polygon fill="none" stroke="#000000" points="413,-377.7 413,-399.7 614,-399.7 614,-377.7 413,-377.7"/>
<text text-anchor="start" x="416" y="-385.4" font-family="Helvetica,sans-Serif" font-size="11.00" fill="#000000">bool[1]</text>
<polygon fill="none" stroke="#000000" points="264,-355.7 264,-377.7 413,-377.7 413,-355.7 264,-355.7"/>
<text text-anchor="start" x="284" y="-362.8" font-family="Helvetica,sans-Serif" font-size="11.00" fill="#000000">rk</text>
<polygon fill="none" stroke="#000000" points="413,-355.7 413,-377.7 614,-377.7 614,-355.7 413,-355.7"/>
<text text-anchor="start" x="416" y="-363.4" font-family="Helvetica,sans-Serif" font-size="11.00" fill="#000000">float4[8,8]</text>
<polygon fill="none" stroke="#000000" points="264,-333.7 264,-355.7 413,-355.7 413,-333.7 264,-333.7"/>
<text text-anchor="start" x="284" y="-340.8" font-family="Helvetica,sans-Serif" font-size="11.00" fill="#000000">custom_length</text>
<polygon fill="none" stroke="#000000" points="413,-333.7 413,-355.7 614,-355.7 614,-333.7 413,-333.7"/>
<text text-anchor="start" x="416" y="-341.4" font-family="Helvetica,sans-Serif" font-size="11.00" fill="#000000">float4[8,8]</text>
<polygon fill="none" stroke="#000000" points="264,-311.7 264,-333.7 413,-333.7 413,-311.7 264,-311.7"/>
<text text-anchor="start" x="284" y="-318.8" font-family="Helvetica,sans-Serif" font-size="11.00" fill="#000000">circular_diameter</text>
<polygon fill="none" stroke="#000000" points="413,-311.7 413,-333.7 614,-333.7 614,-311.7 413,-311.7"/>
<text text-anchor="start" x="416" y="-319.4" font-family="Helvetica,sans-Serif" font-size="11.00" fill="#000000">float4[8,8]</text>
<polygon fill="none" stroke="#000000" points="264,-289.7 264,-311.7 413,-311.7 413,-289.7 264,-289.7"/>
<text text-anchor="start" x="284" y="-296.8" font-family="Helvetica,sans-Serif" font-size="11.00" fill="#000000">ovoid_height</text>
<polygon fill="none" stroke="#000000" points="413,-289.7 413,-311.7 614,-311.7 614,-289.7 413,-289.7"/>
<text text-anchor="start" x="416" y="-297.4" font-family="Helvetica,sans-Serif" font-size="11.00" fill="#000000">float4[8,8]</text>
<polygon fill="none" stroke="#000000" points="264,-267.7 264,-289.7 413,-289.7 413,-267.7 264,-267.7"/>
<text text-anchor="start" x="284" y="-274.8" font-family="Helvetica,sans-Serif" font-size="11.00" fill="#000000">ovoid_top_diameter</text>
<polygon fill="none" stroke="#000000" points="413,-267.7 413,-289.7 614,-289.7 614,-267.7 413,-267.7"/>
<text text-anchor="start" x="416" y="-275.4" font-family="Helvetica,sans-Serif" font-size="11.00" fill="#000000">float4[8,8]</text>
<polygon fill="none" stroke="#000000" points="264,-245.7 264,-267.7 413,-267.7 413,-245.7 264,-245.7"/>
<text text-anchor="start" x="284" y="-252.8" font-family="Helvetica,sans-Serif" font-size="11.00" fill="#000000">ovoid_invert_diameter</text>
<polygon fill="none" stroke="#000000" points="413,-245.7 413,-267.7 614,-267.7 614,-245.7 413,-245.7"/>
<text text-anchor="start" x="416" y="-253.4" font-family="Helvetica,sans-Serif" font-size="11.00" fill="#000000">float4[8,8]</text>
<polygon fill="none" stroke="#000000" points="264,-223.7 264,-245.7 413,-245.7 413,-223.7 264,-223.7"/>
<image xlink:href="../../images/foreignKeys.png" width="11px" height="12px" preserveAspectRatio="xMinYMin meet" x="269" y="-240.7"/>
<text text-anchor="start" x="284" y="-230.8" font-family="Helvetica,sans-Serif" font-size="11.00" fill="#000000">cp_geom</text>
<polygon fill="none" stroke="#000000" points="413,-223.7 413,-245.7 614,-245.7 614,-223.7 413,-223.7"/>
<text text-anchor="start" x="416" y="-231.4" font-family="Helvetica,sans-Serif" font-size="11.00" fill="#000000">int4[10]</text>
<polygon fill="none" stroke="#000000" points="264,-201.7 264,-223.7 413,-223.7 413,-201.7 264,-201.7"/>
<image xlink:href="../../images/foreignKeys.png" width="11px" height="12px" preserveAspectRatio="xMinYMin meet" x="269" y="-218.7"/>
<text text-anchor="start" x="284" y="-208.8" font-family="Helvetica,sans-Serif" font-size="11.00" fill="#000000">op_geom</text>
<polygon fill="none" stroke="#000000" points="413,-201.7 413,-223.7 614,-223.7 614,-201.7 413,-201.7"/>
<text text-anchor="start" x="416" y="-209.4" font-family="Helvetica,sans-Serif" font-size="11.00" fill="#000000">int4[10]</text>
<polygon fill="none" stroke="#000000" points="264,-179.7 264,-201.7 413,-201.7 413,-179.7 264,-179.7"/>
<text text-anchor="start" x="284" y="-186.8" font-family="Helvetica,sans-Serif" font-size="11.00" fill="#000000">rk_maj</text>
<polygon fill="none" stroke="#000000" points="413,-179.7 413,-201.7 614,-201.7 614,-179.7 413,-179.7"/>
<text text-anchor="start" x="416" y="-187.4" font-family="Helvetica,sans-Serif" font-size="11.00" fill="#000000">float4[8,8]</text>
<polygon fill="#ffffff" stroke="transparent" points="264,-160.7 264,-179.7 330,-179.7 330,-160.7 264,-160.7"/>
<polygon fill="none" stroke="#000000" points="264,-160.7 264,-179.7 330,-179.7 330,-160.7 264,-160.7"/>
<text text-anchor="start" x="267" y="-166.8" font-family="Helvetica,sans-Serif" font-size="11.00" fill="#000000">&lt; 5</text>
<polygon fill="#ffffff" stroke="transparent" points="330,-160.7 330,-179.7 413,-179.7 413,-160.7 330,-160.7"/>
<polygon fill="none" stroke="#000000" points="330,-160.7 330,-179.7 413,-179.7 413,-160.7 330,-160.7"/>
<text text-anchor="start" x="377.6105" y="-166.8" font-family="Helvetica,sans-Serif" font-size="11.00" fill="#000000">0 rows</text>
<polygon fill="#ffffff" stroke="transparent" points="413,-160.7 413,-179.7 614,-179.7 614,-160.7 413,-160.7"/>
<polygon fill="none" stroke="#000000" points="413,-160.7 413,-179.7 614,-179.7 614,-160.7 413,-160.7"/>
<text text-anchor="start" x="595.4053" y="-166.8" font-family="Helvetica,sans-Serif" font-size="11.00" fill="#000000">0 &gt;</text>
<polygon fill="none" stroke="#000000" stroke-width="2" points="263,-159.7 263,-577.7 615,-577.7 615,-159.7 263,-159.7"/>
</a>
</g>
</g>
<!-- branch -->
<g id="node2" class="node">
<title>branch</title>
<g id="a_node2"><a xlink:href="../../tables/branch.html" xlink:title="branch" target="_top">
<polygon fill="#ffffff" stroke="transparent" points="71,-290.2 71,-395.2 150,-395.2 150,-290.2 71,-290.2"/>
<polygon fill="#f5f5f5" stroke="transparent" points="71.5,-371.7 71.5,-394.7 150.5,-394.7 150.5,-371.7 71.5,-371.7"/>
<polygon fill="none" stroke="#000000" points="71.5,-371.7 71.5,-394.7 150.5,-394.7 150.5,-371.7 71.5,-371.7"/>
<text text-anchor="start" x="76.5" y="-380.3" font-family="Helvetica,sans-Serif" font-weight="bold" font-size="11.00" fill="#000000">branch</text>
<text text-anchor="start" x="116.0219" y="-379.8" font-family="Helvetica,sans-Serif" font-size="11.00" fill="#000000">[table]</text>
<polygon fill="none" stroke="#000000" points="71.5,-349.7 71.5,-371.7 150.5,-371.7 150.5,-349.7 71.5,-349.7"/>
<image xlink:href="../../images/primaryKeys.png" width="11px" height="12px" preserveAspectRatio="xMinYMin meet" x="76.5" y="-366.7"/>
<text text-anchor="start" x="98.5" y="-356.8" font-family="Helvetica,sans-Serif" font-size="11.00" fill="#000000">id</text>
<polygon fill="#ffffff" stroke="transparent" points="71.5,-327.7 71.5,-349.7 150.5,-349.7 150.5,-327.7 71.5,-327.7"/>
<polygon fill="none" stroke="#000000" points="71.5,-327.7 71.5,-349.7 150.5,-349.7 150.5,-327.7 71.5,-327.7"/>
<text text-anchor="start" x="98.5" y="-334.8" font-family="Helvetica,sans-Serif" font-size="11.00" fill="#000000">name</text>
<polygon fill="none" stroke="#000000" points="71.5,-308.7 71.5,-327.7 150.5,-327.7 150.5,-308.7 71.5,-308.7"/>
<text text-anchor="start" x="74.5" y="-314.8" font-family="Helvetica,sans-Serif" font-size="11.00" fill="#000000">...</text>
<polygon fill="#ffffff" stroke="transparent" points="71.5,-289.7 71.5,-308.7 87.5,-308.7 87.5,-289.7 71.5,-289.7"/>
<polygon fill="none" stroke="#000000" points="71.5,-289.7 71.5,-308.7 87.5,-308.7 87.5,-289.7 71.5,-289.7"/>
<text text-anchor="start" x="74.5" y="-295.8" font-family="Helvetica,sans-Serif" font-size="11.00" fill="#000000"> &#160;</text>
<polygon fill="#ffffff" stroke="transparent" points="87.5,-289.7 87.5,-308.7 127.5,-308.7 127.5,-289.7 87.5,-289.7"/>
<polygon fill="none" stroke="#000000" points="87.5,-289.7 87.5,-308.7 127.5,-308.7 127.5,-289.7 87.5,-289.7"/>
<text text-anchor="start" x="92.1105" y="-295.8" font-family="Helvetica,sans-Serif" font-size="11.00" fill="#000000">0 rows</text>
<polygon fill="#ffffff" stroke="transparent" points="127.5,-289.7 127.5,-308.7 150.5,-308.7 150.5,-289.7 127.5,-289.7"/>
<polygon fill="none" stroke="#000000" points="127.5,-289.7 127.5,-308.7 150.5,-308.7 150.5,-289.7 127.5,-289.7"/>
<text text-anchor="start" x="131.9053" y="-295.8" font-family="Helvetica,sans-Serif" font-size="11.00" fill="#000000">1 &gt;</text>
</a>
</g>
</g>
<!-- _pipe_link&#45;&gt;branch -->
<g id="edge1" class="edge">
<title>_pipe_link:w&#45;&gt;branch:e</title>
<path fill="none" stroke="#000000" d="M249.5081,-409.4138C207.7795,-401.5876 200.3469,-360.7 150.5,-360.7"/>
<polygon fill="#000000" stroke="#000000" points="256.0313,-409.9927 263.6817,-414.2859 260.0157,-410.3464 264,-410.7 264,-410.7 264,-410.7 260.0157,-410.3464 264.3183,-407.1141 256.0313,-409.9927 256.0313,-409.9927"/>
<ellipse fill="none" stroke="#000000" cx="252.8439" cy="-409.7098" rx="3.2" ry="3.2"/>
</g>
<!-- closed_parametric_geometry -->
<g id="node3" class="node">
<title>closed_parametric_geometry</title>
<g id="a_node3"><a xlink:href="../../tables/closed_parametric_geometry.html" xlink:title="closed_parametric_geometry" target="_top">
<polygon fill="#ffffff" stroke="transparent" points="8,-164.2 8,-269.2 213,-269.2 213,-164.2 8,-164.2"/>
<polygon fill="#f5f5f5" stroke="transparent" points="8.5,-245.7 8.5,-268.7 213.5,-268.7 213.5,-245.7 8.5,-245.7"/>
<polygon fill="none" stroke="#000000" points="8.5,-245.7 8.5,-268.7 213.5,-268.7 213.5,-245.7 8.5,-245.7"/>
<text text-anchor="start" x="13.5" y="-254.3" font-family="Helvetica,sans-Serif" font-weight="bold" font-size="11.00" fill="#000000">closed_parametric_geometry</text>
<text text-anchor="start" x="179.0219" y="-253.8" font-family="Helvetica,sans-Serif" font-size="11.00" fill="#000000">[table]</text>
<polygon fill="none" stroke="#000000" points="8.5,-223.7 8.5,-245.7 213.5,-245.7 213.5,-223.7 8.5,-223.7"/>
<image xlink:href="../../images/primaryKeys.png" width="11px" height="12px" preserveAspectRatio="xMinYMin meet" x="13.5" y="-240.7"/>
<text text-anchor="start" x="37.5" y="-230.8" font-family="Helvetica,sans-Serif" font-size="11.00" fill="#000000">id</text>
<polygon fill="#ffffff" stroke="transparent" points="8.5,-201.7 8.5,-223.7 213.5,-223.7 213.5,-201.7 8.5,-201.7"/>
<polygon fill="none" stroke="#000000" points="8.5,-201.7 8.5,-223.7 213.5,-223.7 213.5,-201.7 8.5,-201.7"/>
<text text-anchor="start" x="37.5" y="-208.8" font-family="Helvetica,sans-Serif" font-size="11.00" fill="#000000">name</text>
<polygon fill="none" stroke="#000000" points="8.5,-182.7 8.5,-201.7 213.5,-201.7 213.5,-182.7 8.5,-182.7"/>
<text text-anchor="start" x="11.5" y="-188.8" font-family="Helvetica,sans-Serif" font-size="11.00" fill="#000000">...</text>
<polygon fill="#ffffff" stroke="transparent" points="8.5,-163.7 8.5,-182.7 87.5,-182.7 87.5,-163.7 8.5,-163.7"/>
<polygon fill="none" stroke="#000000" points="8.5,-163.7 8.5,-182.7 87.5,-182.7 87.5,-163.7 8.5,-163.7"/>
<text text-anchor="start" x="11.5" y="-169.8" font-family="Helvetica,sans-Serif" font-size="11.00" fill="#000000"> &#160;</text>
<polygon fill="#ffffff" stroke="transparent" points="87.5,-163.7 87.5,-182.7 158.5,-182.7 158.5,-163.7 87.5,-163.7"/>
<polygon fill="none" stroke="#000000" points="87.5,-163.7 87.5,-182.7 158.5,-182.7 158.5,-163.7 87.5,-163.7"/>
<text text-anchor="start" x="123.1105" y="-169.8" font-family="Helvetica,sans-Serif" font-size="11.00" fill="#000000">0 rows</text>
<polygon fill="#ffffff" stroke="transparent" points="158.5,-163.7 158.5,-182.7 213.5,-182.7 213.5,-163.7 158.5,-163.7"/>
<polygon fill="none" stroke="#000000" points="158.5,-163.7 158.5,-182.7 213.5,-182.7 213.5,-163.7 158.5,-163.7"/>
<text text-anchor="start" x="194.9053" y="-169.8" font-family="Helvetica,sans-Serif" font-size="11.00" fill="#000000">3 &gt;</text>
</a>
</g>
</g>
<!-- _pipe_link&#45;&gt;closed_parametric_geometry -->
<g id="edge2" class="edge">
<title>_pipe_link:w&#45;&gt;closed_parametric_geometry:e</title>
<path fill="none" stroke="#000000" d="M249.4203,-234.7C237.5435,-234.7 230.158,-234.7 213.5,-234.7"/>
<polygon fill="#000000" stroke="#000000" points="256,-234.7001 264,-238.3 260,-234.7 264,-234.7 264,-234.7 264,-234.7 260,-234.7 264,-231.1 256,-234.7001 256,-234.7001"/>
<ellipse fill="none" stroke="#000000" cx="252.8" cy="-234.7001" rx="3.2" ry="3.2"/>
</g>
<!-- _link -->
<g id="node4" class="node">
<title>_link</title>
<g id="a_node4"><a xlink:href="../../tables/_link.html" xlink:title="_link" target="_top">
<polygon fill="#ffffff" stroke="transparent" points="62,-416.2 62,-697.2 159,-697.2 159,-416.2 62,-416.2"/>
<polygon fill="#f5f5f5" stroke="transparent" points="62.5,-673.7 62.5,-696.7 159.5,-696.7 159.5,-673.7 62.5,-673.7"/>
<polygon fill="none" stroke="#000000" points="62.5,-673.7 62.5,-696.7 159.5,-696.7 159.5,-673.7 62.5,-673.7"/>
<text text-anchor="start" x="67.5" y="-682.3" font-family="Helvetica,sans-Serif" font-weight="bold" font-size="11.00" fill="#000000">_link</text>
<text text-anchor="start" x="124.5437" y="-681.8" font-family="Helvetica,sans-Serif" font-size="11.00" fill="#000000">[table]</text>
<polygon fill="none" stroke="#000000" points="62.5,-651.7 62.5,-673.7 159.5,-673.7 159.5,-651.7 62.5,-651.7"/>
<image xlink:href="../../images/primaryKeys.png" width="11px" height="12px" preserveAspectRatio="xMinYMin meet" x="67.5" y="-668.7"/>
<text text-anchor="start" x="82.5" y="-658.8" font-family="Helvetica,sans-Serif" font-size="11.00" fill="#000000">id</text>
<polygon fill="#ffffff" stroke="transparent" points="62.5,-629.7 62.5,-651.7 159.5,-651.7 159.5,-629.7 62.5,-629.7"/>
<polygon fill="none" stroke="#000000" points="62.5,-629.7 62.5,-651.7 159.5,-651.7 159.5,-629.7 62.5,-629.7"/>
<text text-anchor="start" x="82.5" y="-636.8" font-family="Helvetica,sans-Serif" font-size="11.00" fill="#000000">link_type</text>
<polygon fill="#ffffff" stroke="transparent" points="62.5,-607.7 62.5,-629.7 159.5,-629.7 159.5,-607.7 62.5,-607.7"/>
<polygon fill="none" stroke="#000000" points="62.5,-607.7 62.5,-629.7 159.5,-629.7 159.5,-607.7 62.5,-607.7"/>
<text text-anchor="start" x="82.5" y="-614.8" font-family="Helvetica,sans-Serif" font-size="11.00" fill="#000000">name</text>
<polygon fill="#ffffff" stroke="transparent" points="62.5,-585.7 62.5,-607.7 159.5,-607.7 159.5,-585.7 62.5,-585.7"/>
<polygon fill="none" stroke="#000000" points="62.5,-585.7 62.5,-607.7 159.5,-607.7 159.5,-585.7 62.5,-585.7"/>
<image xlink:href="../../images/foreignKeys.png" width="11px" height="12px" preserveAspectRatio="xMinYMin meet" x="67.5" y="-602.7"/>
<text text-anchor="start" x="82.5" y="-592.8" font-family="Helvetica,sans-Serif" font-size="11.00" fill="#000000">generated</text>
<polygon fill="#ffffff" stroke="transparent" points="62.5,-563.7 62.5,-585.7 159.5,-585.7 159.5,-563.7 62.5,-563.7"/>
<polygon fill="none" stroke="#000000" points="62.5,-563.7 62.5,-585.7 159.5,-585.7 159.5,-563.7 62.5,-563.7"/>
<image xlink:href="../../images/foreignKeys.png" width="11px" height="12px" preserveAspectRatio="xMinYMin meet" x="67.5" y="-580.7"/>
<text text-anchor="start" x="82.5" y="-570.8" font-family="Helvetica,sans-Serif" font-size="11.00" fill="#000000">up</text>
<polygon fill="none" stroke="#000000" points="62.5,-541.7 62.5,-563.7 159.5,-563.7 159.5,-541.7 62.5,-541.7"/>
<image xlink:href="../../images/foreignKeys.png" width="11px" height="12px" preserveAspectRatio="xMinYMin meet" x="67.5" y="-558.7"/>
<text text-anchor="start" x="82.5" y="-548.8" font-family="Helvetica,sans-Serif" font-size="11.00" fill="#000000">up_type</text>
<polygon fill="#ffffff" stroke="transparent" points="62.5,-519.7 62.5,-541.7 159.5,-541.7 159.5,-519.7 62.5,-519.7"/>
<polygon fill="none" stroke="#000000" points="62.5,-519.7 62.5,-541.7 159.5,-541.7 159.5,-519.7 62.5,-519.7"/>
<image xlink:href="../../images/foreignKeys.png" width="11px" height="12px" preserveAspectRatio="xMinYMin meet" x="67.5" y="-536.7"/>
<text text-anchor="start" x="82.5" y="-526.8" font-family="Helvetica,sans-Serif" font-size="11.00" fill="#000000">down</text>
<polygon fill="none" stroke="#000000" points="62.5,-497.7 62.5,-519.7 159.5,-519.7 159.5,-497.7 62.5,-497.7"/>
<image xlink:href="../../images/foreignKeys.png" width="11px" height="12px" preserveAspectRatio="xMinYMin meet" x="67.5" y="-514.7"/>
<text text-anchor="start" x="82.5" y="-504.8" font-family="Helvetica,sans-Serif" font-size="11.00" fill="#000000">down_type</text>
<polygon fill="#ffffff" stroke="transparent" points="62.5,-475.7 62.5,-497.7 159.5,-497.7 159.5,-475.7 62.5,-475.7"/>
<polygon fill="none" stroke="#000000" points="62.5,-475.7 62.5,-497.7 159.5,-497.7 159.5,-475.7 62.5,-475.7"/>
<text text-anchor="start" x="82.5" y="-482.8" font-family="Helvetica,sans-Serif" font-size="11.00" fill="#000000">geom</text>
<polygon fill="#ffffff" stroke="transparent" points="62.5,-453.7 62.5,-475.7 159.5,-475.7 159.5,-453.7 62.5,-453.7"/>
<polygon fill="none" stroke="#000000" points="62.5,-453.7 62.5,-475.7 159.5,-475.7 159.5,-453.7 62.5,-453.7"/>
<text text-anchor="start" x="82.5" y="-460.8" font-family="Helvetica,sans-Serif" font-size="11.00" fill="#000000">validity</text>
<polygon fill="none" stroke="#000000" points="62.5,-434.7 62.5,-453.7 159.5,-453.7 159.5,-434.7 62.5,-434.7"/>
<text text-anchor="start" x="65.5" y="-440.8" font-family="Helvetica,sans-Serif" font-size="11.00" fill="#000000">...</text>
<polygon fill="#ffffff" stroke="transparent" points="62.5,-415.7 62.5,-434.7 88.5,-434.7 88.5,-415.7 62.5,-415.7"/>
<polygon fill="none" stroke="#000000" points="62.5,-415.7 62.5,-434.7 88.5,-434.7 88.5,-415.7 62.5,-415.7"/>
<text text-anchor="start" x="65.5" y="-421.8" font-family="Helvetica,sans-Serif" font-size="11.00" fill="#000000">&lt; 5</text>
<polygon fill="#ffffff" stroke="transparent" points="88.5,-415.7 88.5,-434.7 129.5,-434.7 129.5,-415.7 88.5,-415.7"/>
<polygon fill="none" stroke="#000000" points="88.5,-415.7 88.5,-434.7 129.5,-434.7 129.5,-415.7 88.5,-415.7"/>
<text text-anchor="start" x="94.1105" y="-421.8" font-family="Helvetica,sans-Serif" font-size="11.00" fill="#000000">0 rows</text>
<polygon fill="#ffffff" stroke="transparent" points="129.5,-415.7 129.5,-434.7 159.5,-434.7 159.5,-415.7 129.5,-415.7"/>
<polygon fill="none" stroke="#000000" points="129.5,-415.7 129.5,-434.7 159.5,-434.7 159.5,-415.7 129.5,-415.7"/>
<text text-anchor="start" x="134.7904" y="-421.8" font-family="Helvetica,sans-Serif" font-size="11.00" fill="#000000">60 &gt;</text>
</a>
</g>
</g>
<!-- _pipe_link&#45;&gt;_link -->
<g id="edge3" class="edge">
<title>_pipe_link:w&#45;&gt;_link:e</title>
<path fill="none" stroke="#000000" d="M253.328,-543.7374C196.9971,-555.4661 226.3539,-662.7 159.5,-662.7"/>
<polygon fill="#000000" stroke="#000000" points="262.8167,-538.7962 263.5908,-546.7586 261.9983,-546.9135 261.2242,-538.951 262.8167,-538.7962"/>
<polyline fill="none" stroke="#000000" points="264,-542.7 260.0188,-543.087 "/>
<ellipse fill="none" stroke="#000000" cx="256.8338" cy="-543.3967" rx="3.2" ry="3.2"/>
</g>
<!-- _pipe_link&#45;&gt;_link -->
<g id="edge4" class="edge">
<title>_pipe_link:w&#45;&gt;_link:e</title>
<path fill="none" stroke="#000000" d="M249.6179,-522.6827C198.2818,-538.285 224.8345,-640.7 159.5,-640.7"/>
<polygon fill="#000000" stroke="#000000" points="256.075,-521.7926 264.4917,-524.2663 260.0375,-521.2463 264,-520.7 264,-520.7 264,-520.7 260.0375,-521.2463 263.5083,-517.1337 256.075,-521.7926 256.075,-521.7926"/>
<ellipse fill="none" stroke="#000000" cx="252.9049" cy="-522.2296" rx="3.2" ry="3.2"/>
</g>
<!-- open_parametric_geometry -->
<g id="node5" class="node">
<title>open_parametric_geometry</title>
<g id="a_node5"><a xlink:href="../../tables/open_parametric_geometry.html" xlink:title="open_parametric_geometry" target="_top">
<polygon fill="#ffffff" stroke="transparent" points="12.5,-38.2 12.5,-143.2 208.5,-143.2 208.5,-38.2 12.5,-38.2"/>
<polygon fill="#f5f5f5" stroke="transparent" points="12.5,-119.7 12.5,-142.7 208.5,-142.7 208.5,-119.7 12.5,-119.7"/>
<polygon fill="none" stroke="#000000" points="12.5,-119.7 12.5,-142.7 208.5,-142.7 208.5,-119.7 12.5,-119.7"/>
<text text-anchor="start" x="17.5" y="-128.3" font-family="Helvetica,sans-Serif" font-weight="bold" font-size="11.00" fill="#000000">open_parametric_geometry</text>
<text text-anchor="start" x="174.0219" y="-127.8" font-family="Helvetica,sans-Serif" font-size="11.00" fill="#000000">[table]</text>
<polygon fill="none" stroke="#000000" points="12.5,-97.7 12.5,-119.7 208.5,-119.7 208.5,-97.7 12.5,-97.7"/>
<image xlink:href="../../images/primaryKeys.png" width="11px" height="12px" preserveAspectRatio="xMinYMin meet" x="17.5" y="-114.7"/>
<text text-anchor="start" x="41.5" y="-104.8" font-family="Helvetica,sans-Serif" font-size="11.00" fill="#000000">id</text>
<polygon fill="#ffffff" stroke="transparent" points="12.5,-75.7 12.5,-97.7 208.5,-97.7 208.5,-75.7 12.5,-75.7"/>
<polygon fill="none" stroke="#000000" points="12.5,-75.7 12.5,-97.7 208.5,-97.7 208.5,-75.7 12.5,-75.7"/>
<text text-anchor="start" x="41.5" y="-82.8" font-family="Helvetica,sans-Serif" font-size="11.00" fill="#000000">name</text>
<polygon fill="none" stroke="#000000" points="12.5,-56.7 12.5,-75.7 208.5,-75.7 208.5,-56.7 12.5,-56.7"/>
<text text-anchor="start" x="15.5" y="-62.8" font-family="Helvetica,sans-Serif" font-size="11.00" fill="#000000">...</text>
<polygon fill="#ffffff" stroke="transparent" points="12.5,-37.7 12.5,-56.7 86.5,-56.7 86.5,-37.7 12.5,-37.7"/>
<polygon fill="none" stroke="#000000" points="12.5,-37.7 12.5,-56.7 86.5,-56.7 86.5,-37.7 12.5,-37.7"/>
<text text-anchor="start" x="15.5" y="-43.8" font-family="Helvetica,sans-Serif" font-size="11.00" fill="#000000"> &#160;</text>
<polygon fill="#ffffff" stroke="transparent" points="86.5,-37.7 86.5,-56.7 155.5,-56.7 155.5,-37.7 86.5,-37.7"/>
<polygon fill="none" stroke="#000000" points="86.5,-37.7 86.5,-56.7 155.5,-56.7 155.5,-37.7 86.5,-37.7"/>
<text text-anchor="start" x="120.1105" y="-43.8" font-family="Helvetica,sans-Serif" font-size="11.00" fill="#000000">0 rows</text>
<polygon fill="#ffffff" stroke="transparent" points="155.5,-37.7 155.5,-56.7 208.5,-56.7 208.5,-37.7 155.5,-37.7"/>
<polygon fill="none" stroke="#000000" points="155.5,-37.7 155.5,-56.7 208.5,-56.7 208.5,-37.7 155.5,-37.7"/>
<text text-anchor="start" x="189.9053" y="-43.8" font-family="Helvetica,sans-Serif" font-size="11.00" fill="#000000">3 &gt;</text>
</a>
</g>
</g>
<!-- _pipe_link&#45;&gt;open_parametric_geometry -->
<g id="edge5" class="edge">
<title>_pipe_link:w&#45;&gt;open_parametric_geometry:e</title>
<path fill="none" stroke="#000000" d="M249.8136,-208.9986C221.469,-190.4721 254.9571,-108.7 208.5,-108.7"/>
<polygon fill="#000000" stroke="#000000" points="256.2591,-210.6803 263.0911,-216.1834 260.1296,-211.6901 264,-212.7 264,-212.7 264,-212.7 260.1296,-211.6901 264.9089,-209.2166 256.2591,-210.6803 256.2591,-210.6803"/>
<ellipse fill="none" stroke="#000000" cx="253.1628" cy="-209.8724" rx="3.2" ry="3.2"/>
</g>
</g>
</svg>
