<?xml version="1.0" encoding="UTF-8" standalone="no"?>
<!DOCTYPE svg PUBLIC "-//W3C//DTD SVG 1.1//EN"
 "http://www.w3.org/Graphics/SVG/1.1/DTD/svg11.dtd">
<!-- Generated by graphviz version 2.40.1 (20161225.0304)
 -->
<!-- Title: oneDegreeRelationshipsDiagram Pages: 1 -->
<svg width="578pt" height="545pt"
 viewBox="0.00 0.00 578.00 545.20" xmlns="http://www.w3.org/2000/svg" xmlns:xlink="http://www.w3.org/1999/xlink">
<g id="graph0" class="graph" transform="scale(1 1) rotate(0) translate(4 541.2)">
<title>oneDegreeRelationshipsDiagram</title>
<polygon fill="#ffffff" stroke="transparent" points="-4,4 -4,-541.2 574,-541.2 574,4 -4,4"/>
<text text-anchor="middle" x="72.4936" y="-7.3" font-family="Helvetica,sans-Serif" font-size="11.00" fill="#000000">Generated by SchemaSpy</text>
<!-- _qq_split_hydrology_singularity -->
<g id="node1" class="node">
<title>_qq_split_hydrology_singularity</title>
<g id="a_node1"><a xlink:href="../../tables/_qq_split_hydrology_singularity.html" xlink:title="_qq_split_hydrology_singularity" target="_top">
<polygon fill="#ffffff" stroke="transparent" points="170,-208.7 170,-452.7 562,-452.7 562,-208.7 170,-208.7"/>
<polygon fill="#f5f5f5" stroke="transparent" points="172,-427.7 172,-450.7 560,-450.7 560,-427.7 172,-427.7"/>
<polygon fill="none" stroke="#000000" points="172,-427.7 172,-450.7 560,-450.7 560,-427.7 172,-427.7"/>
<text text-anchor="start" x="177" y="-436.3" font-family="Helvetica,sans-Serif" font-weight="bold" font-size="11.00" fill="#000000">_qq_split_hydrology_singularity</text>
<text text-anchor="start" x="525.0437" y="-435.8" font-family="Helvetica,sans-Serif" font-size="11.00" fill="#000000">[table]</text>
<polygon fill="#ffffff" stroke="transparent" points="172,-405.7 172,-427.7 377,-427.7 377,-405.7 172,-405.7"/>
<polygon fill="none" stroke="#000000" points="172,-405.7 172,-427.7 377,-427.7 377,-405.7 172,-405.7"/>
<image xlink:href="../../images/foreignKeys.png" width="11px" height="12px" preserveAspectRatio="xMinYMin meet" x="177" y="-422.7"/>
<text text-anchor="start" x="192" y="-412.8" font-family="Helvetica,sans-Serif" font-size="11.00" fill="#000000">id</text>
<polygon fill="none" stroke="#000000" points="377,-405.7 377,-427.7 560,-427.7 560,-405.7 377,-405.7"/>
<text text-anchor="start" x="380" y="-413.4" font-family="Helvetica,sans-Serif" font-size="11.00" fill="#000000">int4[10]</text>
<polygon fill="none" stroke="#000000" points="172,-383.7 172,-405.7 377,-405.7 377,-383.7 172,-383.7"/>
<image xlink:href="../../images/foreignKeys.png" width="11px" height="12px" preserveAspectRatio="xMinYMin meet" x="177" y="-400.7"/>
<text text-anchor="start" x="192" y="-390.8" font-family="Helvetica,sans-Serif" font-size="11.00" fill="#000000">singularity_type</text>
<polygon fill="none" stroke="#000000" points="377,-383.7 377,-405.7 560,-405.7 560,-383.7 377,-383.7"/>
<text text-anchor="start" x="379.8565" y="-391.4" font-family="Helvetica,sans-Serif" font-size="11.00" fill="#000000">hydra_singularity_type[2147483647]</text>
<polygon fill="none" stroke="#000000" points="172,-361.7 172,-383.7 377,-383.7 377,-361.7 172,-361.7"/>
<text text-anchor="start" x="192" y="-368.8" font-family="Helvetica,sans-Serif" font-size="11.00" fill="#000000">qq_array</text>
<polygon fill="none" stroke="#000000" points="377,-361.7 377,-383.7 560,-383.7 560,-361.7 377,-361.7"/>
<text text-anchor="start" x="380" y="-369.4" font-family="Helvetica,sans-Serif" font-size="11.00" fill="#000000">_float4[8,8]</text>
<polygon fill="none" stroke="#000000" points="172,-339.7 172,-361.7 377,-361.7 377,-339.7 172,-339.7"/>
<image xlink:href="../../images/foreignKeys.png" width="11px" height="12px" preserveAspectRatio="xMinYMin meet" x="177" y="-356.7"/>
<text text-anchor="start" x="192" y="-346.8" font-family="Helvetica,sans-Serif" font-size="11.00" fill="#000000">downstream</text>
<polygon fill="none" stroke="#000000" points="377,-339.7 377,-361.7 560,-361.7 560,-339.7 377,-339.7"/>
<text text-anchor="start" x="380" y="-347.4" font-family="Helvetica,sans-Serif" font-size="11.00" fill="#000000">int4[10]</text>
<polygon fill="none" stroke="#000000" points="172,-317.7 172,-339.7 377,-339.7 377,-317.7 172,-317.7"/>
<image xlink:href="../../images/foreignKeys.png" width="11px" height="12px" preserveAspectRatio="xMinYMin meet" x="177" y="-334.7"/>
<text text-anchor="start" x="192" y="-324.8" font-family="Helvetica,sans-Serif" font-size="11.00" fill="#000000">downstream_type</text>
<polygon fill="none" stroke="#000000" points="377,-317.7 377,-339.7 560,-339.7 560,-317.7 377,-317.7"/>
<text text-anchor="start" x="380" y="-325.4" font-family="Helvetica,sans-Serif" font-size="11.00" fill="#000000">hydra_link_type[2147483647]</text>
<polygon fill="none" stroke="#000000" points="172,-295.7 172,-317.7 377,-317.7 377,-295.7 172,-295.7"/>
<image xlink:href="../../images/foreignKeys.png" width="11px" height="12px" preserveAspectRatio="xMinYMin meet" x="177" y="-312.7"/>
<text text-anchor="start" x="192" y="-302.8" font-family="Helvetica,sans-Serif" font-size="11.00" fill="#000000">split1</text>
<polygon fill="none" stroke="#000000" points="377,-295.7 377,-317.7 560,-317.7 560,-295.7 377,-295.7"/>
<text text-anchor="start" x="380" y="-303.4" font-family="Helvetica,sans-Serif" font-size="11.00" fill="#000000">int4[10]</text>
<polygon fill="none" stroke="#000000" points="172,-273.7 172,-295.7 377,-295.7 377,-273.7 172,-273.7"/>
<image xlink:href="../../images/foreignKeys.png" width="11px" height="12px" preserveAspectRatio="xMinYMin meet" x="177" y="-290.7"/>
<text text-anchor="start" x="192" y="-280.8" font-family="Helvetica,sans-Serif" font-size="11.00" fill="#000000">split1_type</text>
<polygon fill="none" stroke="#000000" points="377,-273.7 377,-295.7 560,-295.7 560,-273.7 377,-273.7"/>
<text text-anchor="start" x="380" y="-281.4" font-family="Helvetica,sans-Serif" font-size="11.00" fill="#000000">hydra_link_type[2147483647]</text>
<polygon fill="none" stroke="#000000" points="172,-251.7 172,-273.7 377,-273.7 377,-251.7 172,-251.7"/>
<image xlink:href="../../images/foreignKeys.png" width="11px" height="12px" preserveAspectRatio="xMinYMin meet" x="177" y="-268.7"/>
<text text-anchor="start" x="192" y="-258.8" font-family="Helvetica,sans-Serif" font-size="11.00" fill="#000000">split2</text>
<polygon fill="none" stroke="#000000" points="377,-251.7 377,-273.7 560,-273.7 560,-251.7 377,-251.7"/>
<text text-anchor="start" x="380" y="-259.4" font-family="Helvetica,sans-Serif" font-size="11.00" fill="#000000">int4[10]</text>
<polygon fill="none" stroke="#000000" points="172,-229.7 172,-251.7 377,-251.7 377,-229.7 172,-229.7"/>
<image xlink:href="../../images/foreignKeys.png" width="11px" height="12px" preserveAspectRatio="xMinYMin meet" x="177" y="-246.7"/>
<text text-anchor="start" x="192" y="-236.8" font-family="Helvetica,sans-Serif" font-size="11.00" fill="#000000">split2_type</text>
<polygon fill="none" stroke="#000000" points="377,-229.7 377,-251.7 560,-251.7 560,-229.7 377,-229.7"/>
<text text-anchor="start" x="380" y="-237.4" font-family="Helvetica,sans-Serif" font-size="11.00" fill="#000000">hydra_link_type[2147483647]</text>
<polygon fill="#ffffff" stroke="transparent" points="172,-210.7 172,-229.7 266,-229.7 266,-210.7 172,-210.7"/>
<polygon fill="none" stroke="#000000" points="172,-210.7 172,-229.7 266,-229.7 266,-210.7 172,-210.7"/>
<text text-anchor="start" x="175" y="-216.8" font-family="Helvetica,sans-Serif" font-size="11.00" fill="#000000">&lt; 8</text>
<polygon fill="#ffffff" stroke="transparent" points="266,-210.7 266,-229.7 377,-229.7 377,-210.7 266,-210.7"/>
<polygon fill="none" stroke="#000000" points="266,-210.7 266,-229.7 377,-229.7 377,-210.7 266,-210.7"/>
<text text-anchor="start" x="341.6105" y="-216.8" font-family="Helvetica,sans-Serif" font-size="11.00" fill="#000000">0 rows</text>
<polygon fill="#ffffff" stroke="transparent" points="377,-210.7 377,-229.7 560,-229.7 560,-210.7 377,-210.7"/>
<polygon fill="none" stroke="#000000" points="377,-210.7 377,-229.7 560,-229.7 560,-210.7 377,-210.7"/>
<text text-anchor="start" x="541.4053" y="-216.8" font-family="Helvetica,sans-Serif" font-size="11.00" fill="#000000">0 &gt;</text>
<polygon fill="none" stroke="#000000" stroke-width="2" points="171,-209.7 171,-451.7 561,-451.7 561,-209.7 171,-209.7"/>
</a>
</g>
</g>
<!-- _link -->
<g id="node2" class="node">
<title>_link</title>
<g id="a_node2"><a xlink:href="../../tables/_link.html" xlink:title="_link" target="_top">
<polygon fill="#ffffff" stroke="transparent" points="16,-38.2 16,-319.2 113,-319.2 113,-38.2 16,-38.2"/>
<polygon fill="#f5f5f5" stroke="transparent" points="16.5,-295.7 16.5,-318.7 113.5,-318.7 113.5,-295.7 16.5,-295.7"/>
<polygon fill="none" stroke="#000000" points="16.5,-295.7 16.5,-318.7 113.5,-318.7 113.5,-295.7 16.5,-295.7"/>
<text text-anchor="start" x="21.5" y="-304.3" font-family="Helvetica,sans-Serif" font-weight="bold" font-size="11.00" fill="#000000">_link</text>
<text text-anchor="start" x="78.5437" y="-303.8" font-family="Helvetica,sans-Serif" font-size="11.00" fill="#000000">[table]</text>
<polygon fill="none" stroke="#000000" points="16.5,-273.7 16.5,-295.7 113.5,-295.7 113.5,-273.7 16.5,-273.7"/>
<image xlink:href="../../images/primaryKeys.png" width="11px" height="12px" preserveAspectRatio="xMinYMin meet" x="21.5" y="-290.7"/>
<text text-anchor="start" x="36.5" y="-280.8" font-family="Helvetica,sans-Serif" font-size="11.00" fill="#000000">id</text>
<polygon fill="#ffffff" stroke="transparent" points="16.5,-251.7 16.5,-273.7 113.5,-273.7 113.5,-251.7 16.5,-251.7"/>
<polygon fill="none" stroke="#000000" points="16.5,-251.7 16.5,-273.7 113.5,-273.7 113.5,-251.7 16.5,-251.7"/>
<text text-anchor="start" x="36.5" y="-258.8" font-family="Helvetica,sans-Serif" font-size="11.00" fill="#000000">link_type</text>
<polygon fill="#ffffff" stroke="transparent" points="16.5,-229.7 16.5,-251.7 113.5,-251.7 113.5,-229.7 16.5,-229.7"/>
<polygon fill="none" stroke="#000000" points="16.5,-229.7 16.5,-251.7 113.5,-251.7 113.5,-229.7 16.5,-229.7"/>
<text text-anchor="start" x="36.5" y="-236.8" font-family="Helvetica,sans-Serif" font-size="11.00" fill="#000000">name</text>
<polygon fill="#ffffff" stroke="transparent" points="16.5,-207.7 16.5,-229.7 113.5,-229.7 113.5,-207.7 16.5,-207.7"/>
<polygon fill="none" stroke="#000000" points="16.5,-207.7 16.5,-229.7 113.5,-229.7 113.5,-207.7 16.5,-207.7"/>
<image xlink:href="../../images/foreignKeys.png" width="11px" height="12px" preserveAspectRatio="xMinYMin meet" x="21.5" y="-224.7"/>
<text text-anchor="start" x="36.5" y="-214.8" font-family="Helvetica,sans-Serif" font-size="11.00" fill="#000000">generated</text>
<polygon fill="#ffffff" stroke="transparent" points="16.5,-185.7 16.5,-207.7 113.5,-207.7 113.5,-185.7 16.5,-185.7"/>
<polygon fill="none" stroke="#000000" points="16.5,-185.7 16.5,-207.7 113.5,-207.7 113.5,-185.7 16.5,-185.7"/>
<image xlink:href="../../images/foreignKeys.png" width="11px" height="12px" preserveAspectRatio="xMinYMin meet" x="21.5" y="-202.7"/>
<text text-anchor="start" x="36.5" y="-192.8" font-family="Helvetica,sans-Serif" font-size="11.00" fill="#000000">up</text>
<polygon fill="none" stroke="#000000" points="16.5,-163.7 16.5,-185.7 113.5,-185.7 113.5,-163.7 16.5,-163.7"/>
<image xlink:href="../../images/foreignKeys.png" width="11px" height="12px" preserveAspectRatio="xMinYMin meet" x="21.5" y="-180.7"/>
<text text-anchor="start" x="36.5" y="-170.8" font-family="Helvetica,sans-Serif" font-size="11.00" fill="#000000">up_type</text>
<polygon fill="#ffffff" stroke="transparent" points="16.5,-141.7 16.5,-163.7 113.5,-163.7 113.5,-141.7 16.5,-141.7"/>
<polygon fill="none" stroke="#000000" points="16.5,-141.7 16.5,-163.7 113.5,-163.7 113.5,-141.7 16.5,-141.7"/>
<image xlink:href="../../images/foreignKeys.png" width="11px" height="12px" preserveAspectRatio="xMinYMin meet" x="21.5" y="-158.7"/>
<text text-anchor="start" x="36.5" y="-148.8" font-family="Helvetica,sans-Serif" font-size="11.00" fill="#000000">down</text>
<polygon fill="none" stroke="#000000" points="16.5,-119.7 16.5,-141.7 113.5,-141.7 113.5,-119.7 16.5,-119.7"/>
<image xlink:href="../../images/foreignKeys.png" width="11px" height="12px" preserveAspectRatio="xMinYMin meet" x="21.5" y="-136.7"/>
<text text-anchor="start" x="36.5" y="-126.8" font-family="Helvetica,sans-Serif" font-size="11.00" fill="#000000">down_type</text>
<polygon fill="#ffffff" stroke="transparent" points="16.5,-97.7 16.5,-119.7 113.5,-119.7 113.5,-97.7 16.5,-97.7"/>
<polygon fill="none" stroke="#000000" points="16.5,-97.7 16.5,-119.7 113.5,-119.7 113.5,-97.7 16.5,-97.7"/>
<text text-anchor="start" x="36.5" y="-104.8" font-family="Helvetica,sans-Serif" font-size="11.00" fill="#000000">geom</text>
<polygon fill="#ffffff" stroke="transparent" points="16.5,-75.7 16.5,-97.7 113.5,-97.7 113.5,-75.7 16.5,-75.7"/>
<polygon fill="none" stroke="#000000" points="16.5,-75.7 16.5,-97.7 113.5,-97.7 113.5,-75.7 16.5,-75.7"/>
<text text-anchor="start" x="36.5" y="-82.8" font-family="Helvetica,sans-Serif" font-size="11.00" fill="#000000">validity</text>
<polygon fill="none" stroke="#000000" points="16.5,-56.7 16.5,-75.7 113.5,-75.7 113.5,-56.7 16.5,-56.7"/>
<text text-anchor="start" x="19.5" y="-62.8" font-family="Helvetica,sans-Serif" font-size="11.00" fill="#000000">...</text>
<polygon fill="#ffffff" stroke="transparent" points="16.5,-37.7 16.5,-56.7 42.5,-56.7 42.5,-37.7 16.5,-37.7"/>
<polygon fill="none" stroke="#000000" points="16.5,-37.7 16.5,-56.7 42.5,-56.7 42.5,-37.7 16.5,-37.7"/>
<text text-anchor="start" x="19.5" y="-43.8" font-family="Helvetica,sans-Serif" font-size="11.00" fill="#000000">&lt; 5</text>
<polygon fill="#ffffff" stroke="transparent" points="42.5,-37.7 42.5,-56.7 83.5,-56.7 83.5,-37.7 42.5,-37.7"/>
<polygon fill="none" stroke="#000000" points="42.5,-37.7 42.5,-56.7 83.5,-56.7 83.5,-37.7 42.5,-37.7"/>
<text text-anchor="start" x="48.1105" y="-43.8" font-family="Helvetica,sans-Serif" font-size="11.00" fill="#000000">0 rows</text>
<polygon fill="#ffffff" stroke="transparent" points="83.5,-37.7 83.5,-56.7 113.5,-56.7 113.5,-37.7 83.5,-37.7"/>
<polygon fill="none" stroke="#000000" points="83.5,-37.7 83.5,-56.7 113.5,-56.7 113.5,-37.7 83.5,-37.7"/>
<text text-anchor="start" x="88.7904" y="-43.8" font-family="Helvetica,sans-Serif" font-size="11.00" fill="#000000">60 &gt;</text>
</a>
</g>
</g>
<!-- _qq_split_hydrology_singularity&#45;&gt;_link -->
<g id="edge1" class="edge">
<title>_qq_split_hydrology_singularity:w&#45;&gt;_link:e</title>
<path fill="none" stroke="#000000" d="M158.0644,-346.7691C137.4068,-332.5605 146.8791,-284.7 113.5,-284.7"/>
<polygon fill="#000000" stroke="#000000" points="164.3005,-348.5281 171.0226,-354.1648 168.1502,-349.614 172,-350.7 172,-350.7 172,-350.7 168.1502,-349.614 172.9774,-347.2352 164.3005,-348.5281 164.3005,-348.5281"/>
<ellipse fill="none" stroke="#000000" cx="161.2206" cy="-347.6593" rx="3.2" ry="3.2"/>
</g>
<!-- _qq_split_hydrology_singularity&#45;&gt;_link -->
<g id="edge2" class="edge">
<title>_qq_split_hydrology_singularity:w&#45;&gt;_link:e</title>
<path fill="none" stroke="#000000" d="M158.0644,-324.7691C137.4068,-310.5605 146.8791,-262.7 113.5,-262.7"/>
<polygon fill="#000000" stroke="#000000" points="164.3005,-326.5281 171.0226,-332.1648 168.1502,-327.614 172,-328.7 172,-328.7 172,-328.7 168.1502,-327.614 172.9774,-325.2352 164.3005,-326.5281 164.3005,-326.5281"/>
<ellipse fill="none" stroke="#000000" cx="161.2206" cy="-325.6593" rx="3.2" ry="3.2"/>
</g>
<!-- _qq_split_hydrology_singularity&#45;&gt;_link -->
<g id="edge5" class="edge">
<title>_qq_split_hydrology_singularity:w&#45;&gt;_link:e</title>
<path fill="none" stroke="#000000" d="M157.7305,-304.3456C142.0014,-298.6702 135.6354,-284.7 113.5,-284.7"/>
<polygon fill="#000000" stroke="#000000" points="164.1067,-305.3976 171.4139,-310.252 168.0534,-306.0488 172,-306.7 172,-306.7 172,-306.7 168.0534,-306.0488 172.5861,-303.148 164.1067,-305.3976 164.1067,-305.3976"/>
<ellipse fill="none" stroke="#000000" cx="160.9494" cy="-304.8766" rx="3.2" ry="3.2"/>
</g>
<!-- _qq_split_hydrology_singularity&#45;&gt;_link -->
<g id="edge6" class="edge">
<title>_qq_split_hydrology_singularity:w&#45;&gt;_link:e</title>
<path fill="none" stroke="#000000" d="M157.7305,-282.3456C142.0014,-276.6702 135.6354,-262.7 113.5,-262.7"/>
<polygon fill="#000000" stroke="#000000" points="164.1067,-283.3976 171.4139,-288.252 168.0534,-284.0488 172,-284.7 172,-284.7 172,-284.7 168.0534,-284.0488 172.5861,-281.148 164.1067,-283.3976 164.1067,-283.3976"/>
<ellipse fill="none" stroke="#000000" cx="160.9494" cy="-282.8766" rx="3.2" ry="3.2"/>
</g>
<!-- _qq_split_hydrology_singularity&#45;&gt;_link -->
<g id="edge7" class="edge">
<title>_qq_split_hydrology_singularity:w&#45;&gt;_link:e</title>
<path fill="none" stroke="#000000" d="M157.7305,-265.0544C142.0014,-270.7298 135.6354,-284.7 113.5,-284.7"/>
<polygon fill="#000000" stroke="#000000" points="164.1067,-264.0024 172.5861,-266.252 168.0534,-263.3512 172,-262.7 172,-262.7 172,-262.7 168.0534,-263.3512 171.4139,-259.148 164.1067,-264.0024 164.1067,-264.0024"/>
<ellipse fill="none" stroke="#000000" cx="160.9494" cy="-264.5234" rx="3.2" ry="3.2"/>
</g>
<!-- _qq_split_hydrology_singularity&#45;&gt;_link -->
<g id="edge8" class="edge">
<title>_qq_split_hydrology_singularity:w&#45;&gt;_link:e</title>
<path fill="none" stroke="#000000" d="M157.7305,-243.0544C142.0014,-248.7298 135.6354,-262.7 113.5,-262.7"/>
<polygon fill="#000000" stroke="#000000" points="164.1067,-242.0024 172.5861,-244.252 168.0534,-241.3512 172,-240.7 172,-240.7 172,-240.7 168.0534,-241.3512 171.4139,-237.148 164.1067,-242.0024 164.1067,-242.0024"/>
<ellipse fill="none" stroke="#000000" cx="160.9494" cy="-242.5234" rx="3.2" ry="3.2"/>
</g>
<!-- _singularity -->
<g id="node3" class="node">
<title>_singularity</title>
<g id="a_node3"><a xlink:href="../../tables/_singularity.html" xlink:title="_singularity" target="_top">
<polygon fill="#ffffff" stroke="transparent" points="8,-340.2 8,-533.2 121,-533.2 121,-340.2 8,-340.2"/>
<polygon fill="#f5f5f5" stroke="transparent" points="8.5,-509.7 8.5,-532.7 121.5,-532.7 121.5,-509.7 8.5,-509.7"/>
<polygon fill="none" stroke="#000000" points="8.5,-509.7 8.5,-532.7 121.5,-532.7 121.5,-509.7 8.5,-509.7"/>
<text text-anchor="start" x="13.5" y="-518.3" font-family="Helvetica,sans-Serif" font-weight="bold" font-size="11.00" fill="#000000">_singularity</text>
<text text-anchor="start" x="86.5437" y="-517.8" font-family="Helvetica,sans-Serif" font-size="11.00" fill="#000000">[table]</text>
<polygon fill="none" stroke="#000000" points="8.5,-487.7 8.5,-509.7 121.5,-509.7 121.5,-487.7 8.5,-487.7"/>
<image xlink:href="../../images/primaryKeys.png" width="11px" height="12px" preserveAspectRatio="xMinYMin meet" x="13.5" y="-504.7"/>
<text text-anchor="start" x="28.5" y="-494.8" font-family="Helvetica,sans-Serif" font-size="11.00" fill="#000000">id</text>
<polygon fill="#ffffff" stroke="transparent" points="8.5,-465.7 8.5,-487.7 121.5,-487.7 121.5,-465.7 8.5,-465.7"/>
<polygon fill="none" stroke="#000000" points="8.5,-465.7 8.5,-487.7 121.5,-487.7 121.5,-465.7 8.5,-465.7"/>
<text text-anchor="start" x="28.5" y="-472.8" font-family="Helvetica,sans-Serif" font-size="11.00" fill="#000000">singularity_type</text>
<polygon fill="#ffffff" stroke="transparent" points="8.5,-443.7 8.5,-465.7 121.5,-465.7 121.5,-443.7 8.5,-443.7"/>
<polygon fill="none" stroke="#000000" points="8.5,-443.7 8.5,-465.7 121.5,-465.7 121.5,-443.7 8.5,-443.7"/>
<text text-anchor="start" x="28.5" y="-450.8" font-family="Helvetica,sans-Serif" font-size="11.00" fill="#000000">name</text>
<polygon fill="#ffffff" stroke="transparent" points="8.5,-421.7 8.5,-443.7 121.5,-443.7 121.5,-421.7 8.5,-421.7"/>
<polygon fill="none" stroke="#000000" points="8.5,-421.7 8.5,-443.7 121.5,-443.7 121.5,-421.7 8.5,-421.7"/>
<image xlink:href="../../images/foreignKeys.png" width="11px" height="12px" preserveAspectRatio="xMinYMin meet" x="13.5" y="-438.7"/>
<text text-anchor="start" x="28.5" y="-428.8" font-family="Helvetica,sans-Serif" font-size="11.00" fill="#000000">node</text>
<polygon fill="none" stroke="#000000" points="8.5,-399.7 8.5,-421.7 121.5,-421.7 121.5,-399.7 8.5,-399.7"/>
<image xlink:href="../../images/foreignKeys.png" width="11px" height="12px" preserveAspectRatio="xMinYMin meet" x="13.5" y="-416.7"/>
<text text-anchor="start" x="28.5" y="-406.8" font-family="Helvetica,sans-Serif" font-size="11.00" fill="#000000">node_type</text>
<polygon fill="#ffffff" stroke="transparent" points="8.5,-377.7 8.5,-399.7 121.5,-399.7 121.5,-377.7 8.5,-377.7"/>
<polygon fill="none" stroke="#000000" points="8.5,-377.7 8.5,-399.7 121.5,-399.7 121.5,-377.7 8.5,-377.7"/>
<text text-anchor="start" x="28.5" y="-384.8" font-family="Helvetica,sans-Serif" font-size="11.00" fill="#000000">validity</text>
<polygon fill="none" stroke="#000000" points="8.5,-358.7 8.5,-377.7 121.5,-377.7 121.5,-358.7 8.5,-358.7"/>
<text text-anchor="start" x="11.5" y="-364.8" font-family="Helvetica,sans-Serif" font-size="11.00" fill="#000000">...</text>
<polygon fill="#ffffff" stroke="transparent" points="8.5,-339.7 8.5,-358.7 42.5,-358.7 42.5,-339.7 8.5,-339.7"/>
<polygon fill="none" stroke="#000000" points="8.5,-339.7 8.5,-358.7 42.5,-358.7 42.5,-339.7 8.5,-339.7"/>
<text text-anchor="start" x="11.5" y="-345.8" font-family="Helvetica,sans-Serif" font-size="11.00" fill="#000000">&lt; 2</text>
<polygon fill="#ffffff" stroke="transparent" points="42.5,-339.7 42.5,-358.7 87.5,-358.7 87.5,-339.7 42.5,-339.7"/>
<polygon fill="none" stroke="#000000" points="42.5,-339.7 42.5,-358.7 87.5,-358.7 87.5,-339.7 42.5,-339.7"/>
<text text-anchor="start" x="52.1105" y="-345.8" font-family="Helvetica,sans-Serif" font-size="11.00" fill="#000000">0 rows</text>
<polygon fill="#ffffff" stroke="transparent" points="87.5,-339.7 87.5,-358.7 121.5,-358.7 121.5,-339.7 87.5,-339.7"/>
<polygon fill="none" stroke="#000000" points="87.5,-339.7 87.5,-358.7 121.5,-358.7 121.5,-339.7 87.5,-339.7"/>
<text text-anchor="start" x="96.7904" y="-345.8" font-family="Helvetica,sans-Serif" font-size="11.00" fill="#000000">52 &gt;</text>
</a>
</g>
</g>
<!-- _qq_split_hydrology_singularity&#45;&gt;_singularity -->
<g id="edge3" class="edge">
<title>_qq_split_hydrology_singularity:w&#45;&gt;_singularity:e</title>
<path fill="none" stroke="#000000" d="M161.5443,-418.8933C135.3117,-431.9336 160.1215,-498.7 121.5,-498.7"/>
<polygon fill="#000000" stroke="#000000" points="170.3958,-412.9495 172.0383,-420.779 170.4724,-421.1075 168.8299,-413.2779 170.3958,-412.9495"/>
<polyline fill="none" stroke="#000000" points="172,-416.7 168.0852,-417.5212 "/>
<ellipse fill="none" stroke="#000000" cx="164.9534" cy="-418.1782" rx="3.2" ry="3.2"/>
</g>
<!-- _qq_split_hydrology_singularity&#45;&gt;_singularity -->
<g id="edge4" class="edge">
<title>_qq_split_hydrology_singularity:w&#45;&gt;_singularity:e</title>
<path fill="none" stroke="#000000" d="M158.1317,-399.1087C137.5307,-416.1409 158.2824,-476.7 121.5,-476.7"/>
<polygon fill="#000000" stroke="#000000" points="164.376,-397.1237 173.0907,-398.1308 168.188,-395.9118 172,-394.7 172,-394.7 172,-394.7 168.188,-395.9118 170.9093,-391.2692 164.376,-397.1237 164.376,-397.1237"/>
<ellipse fill="none" stroke="#000000" cx="161.3263" cy="-398.0932" rx="3.2" ry="3.2"/>
</g>
</g>
</svg>
