<?xml version="1.0" encoding="UTF-8" standalone="no"?>
<!DOCTYPE svg PUBLIC "-//W3C//DTD SVG 1.1//EN"
 "http://www.w3.org/Graphics/SVG/1.1/DTD/svg11.dtd">
<!-- Generated by graphviz version 2.40.1 (20161225.0304)
 -->
<!-- Title: oneDegreeRelationshipsDiagram Pages: 1 -->
<svg width="631pt" height="609pt"
 viewBox="0.00 0.00 631.00 608.86" xmlns="http://www.w3.org/2000/svg" xmlns:xlink="http://www.w3.org/1999/xlink">
<g id="graph0" class="graph" transform="scale(1 1) rotate(0) translate(4 604.8603)">
<title>oneDegreeRelationshipsDiagram</title>
<polygon fill="#ffffff" stroke="transparent" points="-4,4 -4,-604.8603 627,-604.8603 627,4 -4,4"/>
<text text-anchor="middle" x="72.4936" y="-7.3" font-family="Helvetica,sans-Serif" font-size="11.00" fill="#000000">Generated by SchemaSpy</text>
<!-- _link -->
<g id="node1" class="node">
<title>_link</title>
<g id="a_node1"><a xlink:href="../../tables/_link.html" xlink:title="_link" target="_top">
<polygon fill="#ffffff" stroke="transparent" points="154,-285.7 154,-566.7 251,-566.7 251,-285.7 154,-285.7"/>
<polygon fill="#f5f5f5" stroke="transparent" points="154.5,-543.2 154.5,-566.2 251.5,-566.2 251.5,-543.2 154.5,-543.2"/>
<polygon fill="none" stroke="#000000" points="154.5,-543.2 154.5,-566.2 251.5,-566.2 251.5,-543.2 154.5,-543.2"/>
<text text-anchor="start" x="159.5" y="-551.8" font-family="Helvetica,sans-Serif" font-weight="bold" font-size="11.00" fill="#000000">_link</text>
<text text-anchor="start" x="216.5437" y="-551.3" font-family="Helvetica,sans-Serif" font-size="11.00" fill="#000000">[table]</text>
<polygon fill="none" stroke="#000000" points="154.5,-521.2 154.5,-543.2 251.5,-543.2 251.5,-521.2 154.5,-521.2"/>
<image xlink:href="../../images/primaryKeys.png" width="11px" height="12px" preserveAspectRatio="xMinYMin meet" x="159.5" y="-538.2"/>
<text text-anchor="start" x="174.5" y="-528.3" font-family="Helvetica,sans-Serif" font-size="11.00" fill="#000000">id</text>
<polygon fill="#ffffff" stroke="transparent" points="154.5,-499.2 154.5,-521.2 251.5,-521.2 251.5,-499.2 154.5,-499.2"/>
<polygon fill="none" stroke="#000000" points="154.5,-499.2 154.5,-521.2 251.5,-521.2 251.5,-499.2 154.5,-499.2"/>
<text text-anchor="start" x="174.5" y="-506.3" font-family="Helvetica,sans-Serif" font-size="11.00" fill="#000000">link_type</text>
<polygon fill="#ffffff" stroke="transparent" points="154.5,-477.2 154.5,-499.2 251.5,-499.2 251.5,-477.2 154.5,-477.2"/>
<polygon fill="none" stroke="#000000" points="154.5,-477.2 154.5,-499.2 251.5,-499.2 251.5,-477.2 154.5,-477.2"/>
<text text-anchor="start" x="174.5" y="-484.3" font-family="Helvetica,sans-Serif" font-size="11.00" fill="#000000">name</text>
<polygon fill="#ffffff" stroke="transparent" points="154.5,-455.2 154.5,-477.2 251.5,-477.2 251.5,-455.2 154.5,-455.2"/>
<polygon fill="none" stroke="#000000" points="154.5,-455.2 154.5,-477.2 251.5,-477.2 251.5,-455.2 154.5,-455.2"/>
<image xlink:href="../../images/foreignKeys.png" width="11px" height="12px" preserveAspectRatio="xMinYMin meet" x="159.5" y="-472.2"/>
<text text-anchor="start" x="174.5" y="-462.3" font-family="Helvetica,sans-Serif" font-size="11.00" fill="#000000">generated</text>
<polygon fill="#ffffff" stroke="transparent" points="154.5,-433.2 154.5,-455.2 251.5,-455.2 251.5,-433.2 154.5,-433.2"/>
<polygon fill="none" stroke="#000000" points="154.5,-433.2 154.5,-455.2 251.5,-455.2 251.5,-433.2 154.5,-433.2"/>
<image xlink:href="../../images/foreignKeys.png" width="11px" height="12px" preserveAspectRatio="xMinYMin meet" x="159.5" y="-450.2"/>
<text text-anchor="start" x="174.5" y="-440.3" font-family="Helvetica,sans-Serif" font-size="11.00" fill="#000000">up</text>
<polygon fill="none" stroke="#000000" points="154.5,-411.2 154.5,-433.2 251.5,-433.2 251.5,-411.2 154.5,-411.2"/>
<image xlink:href="../../images/foreignKeys.png" width="11px" height="12px" preserveAspectRatio="xMinYMin meet" x="159.5" y="-428.2"/>
<text text-anchor="start" x="174.5" y="-418.3" font-family="Helvetica,sans-Serif" font-size="11.00" fill="#000000">up_type</text>
<polygon fill="#ffffff" stroke="transparent" points="154.5,-389.2 154.5,-411.2 251.5,-411.2 251.5,-389.2 154.5,-389.2"/>
<polygon fill="none" stroke="#000000" points="154.5,-389.2 154.5,-411.2 251.5,-411.2 251.5,-389.2 154.5,-389.2"/>
<image xlink:href="../../images/foreignKeys.png" width="11px" height="12px" preserveAspectRatio="xMinYMin meet" x="159.5" y="-406.2"/>
<text text-anchor="start" x="174.5" y="-396.3" font-family="Helvetica,sans-Serif" font-size="11.00" fill="#000000">down</text>
<polygon fill="none" stroke="#000000" points="154.5,-367.2 154.5,-389.2 251.5,-389.2 251.5,-367.2 154.5,-367.2"/>
<image xlink:href="../../images/foreignKeys.png" width="11px" height="12px" preserveAspectRatio="xMinYMin meet" x="159.5" y="-384.2"/>
<text text-anchor="start" x="174.5" y="-374.3" font-family="Helvetica,sans-Serif" font-size="11.00" fill="#000000">down_type</text>
<polygon fill="#ffffff" stroke="transparent" points="154.5,-345.2 154.5,-367.2 251.5,-367.2 251.5,-345.2 154.5,-345.2"/>
<polygon fill="none" stroke="#000000" points="154.5,-345.2 154.5,-367.2 251.5,-367.2 251.5,-345.2 154.5,-345.2"/>
<text text-anchor="start" x="174.5" y="-352.3" font-family="Helvetica,sans-Serif" font-size="11.00" fill="#000000">geom</text>
<polygon fill="#ffffff" stroke="transparent" points="154.5,-323.2 154.5,-345.2 251.5,-345.2 251.5,-323.2 154.5,-323.2"/>
<polygon fill="none" stroke="#000000" points="154.5,-323.2 154.5,-345.2 251.5,-345.2 251.5,-323.2 154.5,-323.2"/>
<text text-anchor="start" x="174.5" y="-330.3" font-family="Helvetica,sans-Serif" font-size="11.00" fill="#000000">validity</text>
<polygon fill="none" stroke="#000000" points="154.5,-304.2 154.5,-323.2 251.5,-323.2 251.5,-304.2 154.5,-304.2"/>
<text text-anchor="start" x="157.5" y="-310.3" font-family="Helvetica,sans-Serif" font-size="11.00" fill="#000000">...</text>
<polygon fill="#ffffff" stroke="transparent" points="154.5,-285.2 154.5,-304.2 180.5,-304.2 180.5,-285.2 154.5,-285.2"/>
<polygon fill="none" stroke="#000000" points="154.5,-285.2 154.5,-304.2 180.5,-304.2 180.5,-285.2 154.5,-285.2"/>
<text text-anchor="start" x="157.5" y="-291.3" font-family="Helvetica,sans-Serif" font-size="11.00" fill="#000000">&lt; 5</text>
<polygon fill="#ffffff" stroke="transparent" points="180.5,-285.2 180.5,-304.2 221.5,-304.2 221.5,-285.2 180.5,-285.2"/>
<polygon fill="none" stroke="#000000" points="180.5,-285.2 180.5,-304.2 221.5,-304.2 221.5,-285.2 180.5,-285.2"/>
<text text-anchor="start" x="186.1105" y="-291.3" font-family="Helvetica,sans-Serif" font-size="11.00" fill="#000000">0 rows</text>
<polygon fill="#ffffff" stroke="transparent" points="221.5,-285.2 221.5,-304.2 251.5,-304.2 251.5,-285.2 221.5,-285.2"/>
<polygon fill="none" stroke="#000000" points="221.5,-285.2 221.5,-304.2 251.5,-304.2 251.5,-285.2 221.5,-285.2"/>
<text text-anchor="start" x="226.7904" y="-291.3" font-family="Helvetica,sans-Serif" font-size="11.00" fill="#000000">60 &gt;</text>
</a>
</g>
</g>
<!-- _node -->
<g id="node2" class="node">
<title>_node</title>
<g id="a_node2"><a xlink:href="../../tables/_node.html" xlink:title="_node" target="_top">
<polygon fill="#ffffff" stroke="transparent" points="8,-285.7 8,-478.7 105,-478.7 105,-285.7 8,-285.7"/>
<polygon fill="#f5f5f5" stroke="transparent" points="8.5,-455.2 8.5,-478.2 105.5,-478.2 105.5,-455.2 8.5,-455.2"/>
<polygon fill="none" stroke="#000000" points="8.5,-455.2 8.5,-478.2 105.5,-478.2 105.5,-455.2 8.5,-455.2"/>
<text text-anchor="start" x="13.5" y="-463.8" font-family="Helvetica,sans-Serif" font-weight="bold" font-size="11.00" fill="#000000">_node</text>
<text text-anchor="start" x="70.5437" y="-463.3" font-family="Helvetica,sans-Serif" font-size="11.00" fill="#000000">[table]</text>
<polygon fill="none" stroke="#000000" points="8.5,-433.2 8.5,-455.2 105.5,-455.2 105.5,-433.2 8.5,-433.2"/>
<image xlink:href="../../images/primaryKeys.png" width="11px" height="12px" preserveAspectRatio="xMinYMin meet" x="13.5" y="-450.2"/>
<text text-anchor="start" x="28.5" y="-440.3" font-family="Helvetica,sans-Serif" font-size="11.00" fill="#000000">id</text>
<polygon fill="#ffffff" stroke="transparent" points="8.5,-411.2 8.5,-433.2 105.5,-433.2 105.5,-411.2 8.5,-411.2"/>
<polygon fill="none" stroke="#000000" points="8.5,-411.2 8.5,-433.2 105.5,-433.2 105.5,-411.2 8.5,-411.2"/>
<text text-anchor="start" x="28.5" y="-418.3" font-family="Helvetica,sans-Serif" font-size="11.00" fill="#000000">node_type</text>
<polygon fill="#ffffff" stroke="transparent" points="8.5,-389.2 8.5,-411.2 105.5,-411.2 105.5,-389.2 8.5,-389.2"/>
<polygon fill="none" stroke="#000000" points="8.5,-389.2 8.5,-411.2 105.5,-411.2 105.5,-389.2 8.5,-389.2"/>
<text text-anchor="start" x="28.5" y="-396.3" font-family="Helvetica,sans-Serif" font-size="11.00" fill="#000000">name</text>
<polygon fill="#ffffff" stroke="transparent" points="8.5,-367.2 8.5,-389.2 105.5,-389.2 105.5,-367.2 8.5,-367.2"/>
<polygon fill="none" stroke="#000000" points="8.5,-367.2 8.5,-389.2 105.5,-389.2 105.5,-367.2 8.5,-367.2"/>
<text text-anchor="start" x="28.5" y="-374.3" font-family="Helvetica,sans-Serif" font-size="11.00" fill="#000000">geom</text>
<polygon fill="#ffffff" stroke="transparent" points="8.5,-345.2 8.5,-367.2 105.5,-367.2 105.5,-345.2 8.5,-345.2"/>
<polygon fill="none" stroke="#000000" points="8.5,-345.2 8.5,-367.2 105.5,-367.2 105.5,-345.2 8.5,-345.2"/>
<image xlink:href="../../images/foreignKeys.png" width="11px" height="12px" preserveAspectRatio="xMinYMin meet" x="13.5" y="-362.2"/>
<text text-anchor="start" x="28.5" y="-352.3" font-family="Helvetica,sans-Serif" font-size="11.00" fill="#000000">generated</text>
<polygon fill="#ffffff" stroke="transparent" points="8.5,-323.2 8.5,-345.2 105.5,-345.2 105.5,-323.2 8.5,-323.2"/>
<polygon fill="none" stroke="#000000" points="8.5,-323.2 8.5,-345.2 105.5,-345.2 105.5,-323.2 8.5,-323.2"/>
<text text-anchor="start" x="28.5" y="-330.3" font-family="Helvetica,sans-Serif" font-size="11.00" fill="#000000">validity</text>
<polygon fill="none" stroke="#000000" points="8.5,-304.2 8.5,-323.2 105.5,-323.2 105.5,-304.2 8.5,-304.2"/>
<text text-anchor="start" x="11.5" y="-310.3" font-family="Helvetica,sans-Serif" font-size="11.00" fill="#000000">...</text>
<polygon fill="#ffffff" stroke="transparent" points="8.5,-285.2 8.5,-304.2 34.5,-304.2 34.5,-285.2 8.5,-285.2"/>
<polygon fill="none" stroke="#000000" points="8.5,-285.2 8.5,-304.2 34.5,-304.2 34.5,-285.2 8.5,-285.2"/>
<text text-anchor="start" x="11.5" y="-291.3" font-family="Helvetica,sans-Serif" font-size="11.00" fill="#000000">&lt; 1</text>
<polygon fill="#ffffff" stroke="transparent" points="34.5,-285.2 34.5,-304.2 75.5,-304.2 75.5,-285.2 34.5,-285.2"/>
<polygon fill="none" stroke="#000000" points="34.5,-285.2 34.5,-304.2 75.5,-304.2 75.5,-285.2 34.5,-285.2"/>
<text text-anchor="start" x="40.1105" y="-291.3" font-family="Helvetica,sans-Serif" font-size="11.00" fill="#000000">0 rows</text>
<polygon fill="#ffffff" stroke="transparent" points="75.5,-285.2 75.5,-304.2 105.5,-304.2 105.5,-285.2 75.5,-285.2"/>
<polygon fill="none" stroke="#000000" points="75.5,-285.2 75.5,-304.2 105.5,-304.2 105.5,-285.2 75.5,-285.2"/>
<text text-anchor="start" x="80.7904" y="-291.3" font-family="Helvetica,sans-Serif" font-size="11.00" fill="#000000">24 &gt;</text>
</a>
</g>
</g>
<!-- _link&#45;&gt;_node -->
<g id="edge1" class="edge">
<title>_link:w&#45;&gt;_node:e</title>
<path fill="none" stroke="#000000" d="M140.8171,-404.9088C127.5046,-416.2596 128.824,-444.2 105.5,-444.2"/>
<polygon fill="#000000" stroke="#000000" points="146.9354,-402.8033 155.6715,-403.6041 150.7177,-401.5016 154.5,-400.2 154.5,-400.2 154.5,-400.2 150.7177,-401.5016 153.3285,-396.7959 146.9354,-402.8033 146.9354,-402.8033"/>
<ellipse fill="none" stroke="#000000" cx="143.9096" cy="-403.8446" rx="3.2" ry="3.2"/>
</g>
<!-- _link&#45;&gt;_node -->
<g id="edge2" class="edge">
<title>_link:w&#45;&gt;_node:e</title>
<path fill="none" stroke="#000000" d="M140.8171,-382.9088C127.5046,-394.2596 128.824,-422.2 105.5,-422.2"/>
<polygon fill="#000000" stroke="#000000" points="146.9354,-380.8033 155.6715,-381.6041 150.7177,-379.5016 154.5,-378.2 154.5,-378.2 154.5,-378.2 150.7177,-379.5016 153.3285,-374.7959 146.9354,-380.8033 146.9354,-380.8033"/>
<ellipse fill="none" stroke="#000000" cx="143.9096" cy="-381.8446" rx="3.2" ry="3.2"/>
</g>
<!-- _link&#45;&gt;_node -->
<g id="edge3" class="edge">
<title>_link:w&#45;&gt;_node:e</title>
<path fill="none" stroke="#000000" d="M139.9909,-444.2C128.6774,-444.2 121.4931,-444.2 105.5,-444.2"/>
<polygon fill="#000000" stroke="#000000" points="146.5,-444.2001 154.5,-447.8 150.5,-444.2 154.5,-444.2 154.5,-444.2 154.5,-444.2 150.5,-444.2 154.5,-440.6 146.5,-444.2001 146.5,-444.2001"/>
<ellipse fill="none" stroke="#000000" cx="143.3" cy="-444.2001" rx="3.2" ry="3.2"/>
</g>
<!-- _link&#45;&gt;_node -->
<g id="edge4" class="edge">
<title>_link:w&#45;&gt;_node:e</title>
<path fill="none" stroke="#000000" d="M139.9909,-422.2C128.6774,-422.2 121.4931,-422.2 105.5,-422.2"/>
<polygon fill="#000000" stroke="#000000" points="146.5,-422.2001 154.5,-425.8 150.5,-422.2 154.5,-422.2 154.5,-422.2 154.5,-422.2 150.5,-422.2 154.5,-418.6 146.5,-422.2001 146.5,-422.2001"/>
<ellipse fill="none" stroke="#000000" cx="143.3" cy="-422.2001" rx="3.2" ry="3.2"/>
</g>
<!-- _regul_gate_link -->
<g id="node3" class="node">
<title>_regul_gate_link</title>
<g id="a_node3"><a xlink:href="../../tables/_regul_gate_link.html" xlink:title="_regul_gate_link" target="_top">
<polygon fill="#ffffff" stroke="transparent" points="300,-38.2 300,-568.2 615,-568.2 615,-38.2 300,-38.2"/>
<polygon fill="#f5f5f5" stroke="transparent" points="302.5,-543.2 302.5,-566.2 613.5,-566.2 613.5,-543.2 302.5,-543.2"/>
<polygon fill="none" stroke="#000000" points="302.5,-543.2 302.5,-566.2 613.5,-566.2 613.5,-543.2 302.5,-543.2"/>
<text text-anchor="start" x="307.5" y="-551.8" font-family="Helvetica,sans-Serif" font-weight="bold" font-size="11.00" fill="#000000">_regul_gate_link</text>
<text text-anchor="start" x="578.5437" y="-551.3" font-family="Helvetica,sans-Serif" font-size="11.00" fill="#000000">[table]</text>
<polygon fill="#ffffff" stroke="transparent" points="302.5,-521.2 302.5,-543.2 421.5,-543.2 421.5,-521.2 302.5,-521.2"/>
<polygon fill="none" stroke="#000000" points="302.5,-521.2 302.5,-543.2 421.5,-543.2 421.5,-521.2 302.5,-521.2"/>
<image xlink:href="../../images/foreignKeys.png" width="11px" height="12px" preserveAspectRatio="xMinYMin meet" x="307.5" y="-538.2"/>
<text text-anchor="start" x="322.5" y="-528.3" font-family="Helvetica,sans-Serif" font-size="11.00" fill="#000000">id</text>
<polygon fill="none" stroke="#000000" points="421.5,-521.2 421.5,-543.2 613.5,-543.2 613.5,-521.2 421.5,-521.2"/>
<text text-anchor="start" x="424.5" y="-528.9" font-family="Helvetica,sans-Serif" font-size="11.00" fill="#000000">int4[10]</text>
<polygon fill="none" stroke="#000000" points="302.5,-499.2 302.5,-521.2 421.5,-521.2 421.5,-499.2 302.5,-499.2"/>
<image xlink:href="../../images/foreignKeys.png" width="11px" height="12px" preserveAspectRatio="xMinYMin meet" x="307.5" y="-516.2"/>
<text text-anchor="start" x="322.5" y="-506.3" font-family="Helvetica,sans-Serif" font-size="11.00" fill="#000000">link_type</text>
<polygon fill="none" stroke="#000000" points="421.5,-499.2 421.5,-521.2 613.5,-521.2 613.5,-499.2 421.5,-499.2"/>
<text text-anchor="start" x="424.5" y="-506.9" font-family="Helvetica,sans-Serif" font-size="11.00" fill="#000000">hydra_link_type[2147483647]</text>
<polygon fill="none" stroke="#000000" points="302.5,-477.2 302.5,-499.2 421.5,-499.2 421.5,-477.2 302.5,-477.2"/>
<text text-anchor="start" x="322.5" y="-484.3" font-family="Helvetica,sans-Serif" font-size="11.00" fill="#000000">z_invert</text>
<polygon fill="none" stroke="#000000" points="421.5,-477.2 421.5,-499.2 613.5,-499.2 613.5,-477.2 421.5,-477.2"/>
<text text-anchor="start" x="424.5" y="-484.9" font-family="Helvetica,sans-Serif" font-size="11.00" fill="#000000">float4[8,8]</text>
<polygon fill="none" stroke="#000000" points="302.5,-455.2 302.5,-477.2 421.5,-477.2 421.5,-455.2 302.5,-455.2"/>
<text text-anchor="start" x="322.5" y="-462.3" font-family="Helvetica,sans-Serif" font-size="11.00" fill="#000000">z_ceiling</text>
<polygon fill="none" stroke="#000000" points="421.5,-455.2 421.5,-477.2 613.5,-477.2 613.5,-455.2 421.5,-455.2"/>
<text text-anchor="start" x="424.5" y="-462.9" font-family="Helvetica,sans-Serif" font-size="11.00" fill="#000000">float4[8,8]</text>
<polygon fill="none" stroke="#000000" points="302.5,-433.2 302.5,-455.2 421.5,-455.2 421.5,-433.2 302.5,-433.2"/>
<text text-anchor="start" x="322.5" y="-440.3" font-family="Helvetica,sans-Serif" font-size="11.00" fill="#000000">width</text>
<polygon fill="none" stroke="#000000" points="421.5,-433.2 421.5,-455.2 613.5,-455.2 613.5,-433.2 421.5,-433.2"/>
<text text-anchor="start" x="424.5" y="-440.9" font-family="Helvetica,sans-Serif" font-size="11.00" fill="#000000">float4[8,8]</text>
<polygon fill="none" stroke="#000000" points="302.5,-411.2 302.5,-433.2 421.5,-433.2 421.5,-411.2 302.5,-411.2"/>
<text text-anchor="start" x="322.5" y="-418.3" font-family="Helvetica,sans-Serif" font-size="11.00" fill="#000000">cc</text>
<polygon fill="none" stroke="#000000" points="421.5,-411.2 421.5,-433.2 613.5,-433.2 613.5,-411.2 421.5,-411.2"/>
<text text-anchor="start" x="424.5" y="-418.9" font-family="Helvetica,sans-Serif" font-size="11.00" fill="#000000">float4[8,8]</text>
<polygon fill="none" stroke="#000000" points="302.5,-389.2 302.5,-411.2 421.5,-411.2 421.5,-389.2 302.5,-389.2"/>
<text text-anchor="start" x="322.5" y="-396.3" font-family="Helvetica,sans-Serif" font-size="11.00" fill="#000000">action_gate_type</text>
<polygon fill="none" stroke="#000000" points="421.5,-389.2 421.5,-411.2 613.5,-411.2 613.5,-389.2 421.5,-389.2"/>
<text text-anchor="start" x="424.5" y="-396.9" font-family="Helvetica,sans-Serif" font-size="11.00" fill="#000000">hydra_action_gate_type[2147483647]</text>
<polygon fill="none" stroke="#000000" points="302.5,-367.2 302.5,-389.2 421.5,-389.2 421.5,-367.2 302.5,-367.2"/>
<text text-anchor="start" x="322.5" y="-374.3" font-family="Helvetica,sans-Serif" font-size="11.00" fill="#000000">z_invert_stop</text>
<polygon fill="none" stroke="#000000" points="421.5,-367.2 421.5,-389.2 613.5,-389.2 613.5,-367.2 421.5,-367.2"/>
<text text-anchor="start" x="424.5" y="-374.9" font-family="Helvetica,sans-Serif" font-size="11.00" fill="#000000">float4[8,8]</text>
<polygon fill="none" stroke="#000000" points="302.5,-345.2 302.5,-367.2 421.5,-367.2 421.5,-345.2 302.5,-345.2"/>
<text text-anchor="start" x="322.5" y="-352.3" font-family="Helvetica,sans-Serif" font-size="11.00" fill="#000000">z_ceiling_stop</text>
<polygon fill="none" stroke="#000000" points="421.5,-345.2 421.5,-367.2 613.5,-367.2 613.5,-345.2 421.5,-345.2"/>
<text text-anchor="start" x="424.5" y="-352.9" font-family="Helvetica,sans-Serif" font-size="11.00" fill="#000000">float4[8,8]</text>
<polygon fill="none" stroke="#000000" points="302.5,-323.2 302.5,-345.2 421.5,-345.2 421.5,-323.2 302.5,-323.2"/>
<text text-anchor="start" x="322.5" y="-330.3" font-family="Helvetica,sans-Serif" font-size="11.00" fill="#000000">v_max_cms</text>
<polygon fill="none" stroke="#000000" points="421.5,-323.2 421.5,-345.2 613.5,-345.2 613.5,-323.2 421.5,-323.2"/>
<text text-anchor="start" x="424.5" y="-330.9" font-family="Helvetica,sans-Serif" font-size="11.00" fill="#000000">float4[8,8]</text>
<polygon fill="none" stroke="#000000" points="302.5,-301.2 302.5,-323.2 421.5,-323.2 421.5,-301.2 302.5,-301.2"/>
<text text-anchor="start" x="322.5" y="-308.3" font-family="Helvetica,sans-Serif" font-size="11.00" fill="#000000">dt_regul_hr</text>
<polygon fill="none" stroke="#000000" points="421.5,-301.2 421.5,-323.2 613.5,-323.2 613.5,-301.2 421.5,-301.2"/>
<text text-anchor="start" x="424.5" y="-308.9" font-family="Helvetica,sans-Serif" font-size="11.00" fill="#000000">float4[8,8]</text>
<polygon fill="none" stroke="#000000" points="302.5,-279.2 302.5,-301.2 421.5,-301.2 421.5,-279.2 302.5,-279.2"/>
<text text-anchor="start" x="322.5" y="-286.3" font-family="Helvetica,sans-Serif" font-size="11.00" fill="#000000">mode_regul</text>
<polygon fill="none" stroke="#000000" points="421.5,-279.2 421.5,-301.2 613.5,-301.2 613.5,-279.2 421.5,-279.2"/>
<text text-anchor="start" x="424.2651" y="-286.9" font-family="Helvetica,sans-Serif" font-size="11.00" fill="#000000">hydra_gate_mode_regul[2147483647]</text>
<polygon fill="none" stroke="#000000" points="302.5,-257.2 302.5,-279.2 421.5,-279.2 421.5,-257.2 302.5,-257.2"/>
<image xlink:href="../../images/foreignKeys.png" width="11px" height="12px" preserveAspectRatio="xMinYMin meet" x="307.5" y="-274.2"/>
<text text-anchor="start" x="322.5" y="-264.3" font-family="Helvetica,sans-Serif" font-size="11.00" fill="#000000">z_control_node</text>
<polygon fill="none" stroke="#000000" points="421.5,-257.2 421.5,-279.2 613.5,-279.2 613.5,-257.2 421.5,-257.2"/>
<text text-anchor="start" x="424.5" y="-264.9" font-family="Helvetica,sans-Serif" font-size="11.00" fill="#000000">int4[10]</text>
<polygon fill="none" stroke="#000000" points="302.5,-235.2 302.5,-257.2 421.5,-257.2 421.5,-235.2 302.5,-235.2"/>
<text text-anchor="start" x="322.5" y="-242.3" font-family="Helvetica,sans-Serif" font-size="11.00" fill="#000000">z_pid_array</text>
<polygon fill="none" stroke="#000000" points="421.5,-235.2 421.5,-257.2 613.5,-257.2 613.5,-235.2 421.5,-235.2"/>
<text text-anchor="start" x="424.5" y="-242.9" font-family="Helvetica,sans-Serif" font-size="11.00" fill="#000000">_float4[8,8]</text>
<polygon fill="none" stroke="#000000" points="302.5,-213.2 302.5,-235.2 421.5,-235.2 421.5,-213.2 302.5,-213.2"/>
<text text-anchor="start" x="322.5" y="-220.3" font-family="Helvetica,sans-Serif" font-size="11.00" fill="#000000">z_tz_array</text>
<polygon fill="none" stroke="#000000" points="421.5,-213.2 421.5,-235.2 613.5,-235.2 613.5,-213.2 421.5,-213.2"/>
<text text-anchor="start" x="424.5" y="-220.9" font-family="Helvetica,sans-Serif" font-size="11.00" fill="#000000">_float4[8,8]</text>
<polygon fill="none" stroke="#000000" points="302.5,-191.2 302.5,-213.2 421.5,-213.2 421.5,-191.2 302.5,-191.2"/>
<text text-anchor="start" x="322.5" y="-198.3" font-family="Helvetica,sans-Serif" font-size="11.00" fill="#000000">q_z_crit</text>
<polygon fill="none" stroke="#000000" points="421.5,-191.2 421.5,-213.2 613.5,-213.2 613.5,-191.2 421.5,-191.2"/>
<text text-anchor="start" x="424.5" y="-198.9" font-family="Helvetica,sans-Serif" font-size="11.00" fill="#000000">float4[8,8]</text>
<polygon fill="none" stroke="#000000" points="302.5,-169.2 302.5,-191.2 421.5,-191.2 421.5,-169.2 302.5,-169.2"/>
<text text-anchor="start" x="322.5" y="-176.3" font-family="Helvetica,sans-Serif" font-size="11.00" fill="#000000">q_tq_array</text>
<polygon fill="none" stroke="#000000" points="421.5,-169.2 421.5,-191.2 613.5,-191.2 613.5,-169.2 421.5,-169.2"/>
<text text-anchor="start" x="424.5" y="-176.9" font-family="Helvetica,sans-Serif" font-size="11.00" fill="#000000">_float4[8,8]</text>
<polygon fill="none" stroke="#000000" points="302.5,-147.2 302.5,-169.2 421.5,-169.2 421.5,-147.2 302.5,-147.2"/>
<text text-anchor="start" x="322.5" y="-154.3" font-family="Helvetica,sans-Serif" font-size="11.00" fill="#000000">hq_array</text>
<polygon fill="none" stroke="#000000" points="421.5,-147.2 421.5,-169.2 613.5,-169.2 613.5,-147.2 421.5,-147.2"/>
<text text-anchor="start" x="424.5" y="-154.9" font-family="Helvetica,sans-Serif" font-size="11.00" fill="#000000">_float4[8,8]</text>
<polygon fill="none" stroke="#000000" points="302.5,-125.2 302.5,-147.2 421.5,-147.2 421.5,-125.2 302.5,-125.2"/>
<text text-anchor="start" x="322.5" y="-132.3" font-family="Helvetica,sans-Serif" font-size="11.00" fill="#000000">nr_z_gate</text>
<polygon fill="none" stroke="#000000" points="421.5,-125.2 421.5,-147.2 613.5,-147.2 613.5,-125.2 421.5,-125.2"/>
<text text-anchor="start" x="424.5" y="-132.9" font-family="Helvetica,sans-Serif" font-size="11.00" fill="#000000">float4[8,8]</text>
<polygon fill="none" stroke="#000000" points="302.5,-103.2 302.5,-125.2 421.5,-125.2 421.5,-103.2 302.5,-103.2"/>
<text text-anchor="start" x="322.5" y="-110.3" font-family="Helvetica,sans-Serif" font-size="11.00" fill="#000000">cc_submerged</text>
<polygon fill="none" stroke="#000000" points="421.5,-103.2 421.5,-125.2 613.5,-125.2 613.5,-103.2 421.5,-103.2"/>
<text text-anchor="start" x="424.5" y="-110.9" font-family="Helvetica,sans-Serif" font-size="11.00" fill="#000000">float4[8,8]</text>
<polygon fill="none" stroke="#000000" points="302.5,-81.2 302.5,-103.2 421.5,-103.2 421.5,-81.2 302.5,-81.2"/>
<text text-anchor="start" x="322.5" y="-88.3" font-family="Helvetica,sans-Serif" font-size="11.00" fill="#000000">h_open</text>
<polygon fill="none" stroke="#000000" points="421.5,-81.2 421.5,-103.2 613.5,-103.2 613.5,-81.2 421.5,-81.2"/>
<text text-anchor="start" x="424.5" y="-88.9" font-family="Helvetica,sans-Serif" font-size="11.00" fill="#000000">float4[8,8]</text>
<polygon fill="none" stroke="#000000" points="302.5,-59.2 302.5,-81.2 421.5,-81.2 421.5,-59.2 302.5,-59.2"/>
<text text-anchor="start" x="322.5" y="-66.3" font-family="Helvetica,sans-Serif" font-size="11.00" fill="#000000">h_close</text>
<polygon fill="none" stroke="#000000" points="421.5,-59.2 421.5,-81.2 613.5,-81.2 613.5,-59.2 421.5,-59.2"/>
<text text-anchor="start" x="424.5" y="-66.9" font-family="Helvetica,sans-Serif" font-size="11.00" fill="#000000">float4[8,8]</text>
<polygon fill="#ffffff" stroke="transparent" points="302.5,-40.2 302.5,-59.2 353.5,-59.2 353.5,-40.2 302.5,-40.2"/>
<polygon fill="none" stroke="#000000" points="302.5,-40.2 302.5,-59.2 353.5,-59.2 353.5,-40.2 302.5,-40.2"/>
<text text-anchor="start" x="305.5" y="-46.3" font-family="Helvetica,sans-Serif" font-size="11.00" fill="#000000">&lt; 3</text>
<polygon fill="#ffffff" stroke="transparent" points="353.5,-40.2 353.5,-59.2 421.5,-59.2 421.5,-40.2 353.5,-40.2"/>
<polygon fill="none" stroke="#000000" points="353.5,-40.2 353.5,-59.2 421.5,-59.2 421.5,-40.2 353.5,-40.2"/>
<text text-anchor="start" x="386.1105" y="-46.3" font-family="Helvetica,sans-Serif" font-size="11.00" fill="#000000">0 rows</text>
<polygon fill="#ffffff" stroke="transparent" points="421.5,-40.2 421.5,-59.2 613.5,-59.2 613.5,-40.2 421.5,-40.2"/>
<polygon fill="none" stroke="#000000" points="421.5,-40.2 421.5,-59.2 613.5,-59.2 613.5,-40.2 421.5,-40.2"/>
<text text-anchor="start" x="594.9053" y="-46.3" font-family="Helvetica,sans-Serif" font-size="11.00" fill="#000000">0 &gt;</text>
<polygon fill="none" stroke="#000000" stroke-width="2" points="301,-39.2 301,-567.2 614,-567.2 614,-39.2 301,-39.2"/>
</a>
</g>
</g>
<!-- _regul_gate_link&#45;&gt;_link -->
<g id="edge5" class="edge">
<title>_regul_gate_link:w&#45;&gt;_link:e</title>
<path fill="none" stroke="#000000" d="M291.7307,-532.2C277.248,-532.2 270.0938,-532.2 251.5,-532.2"/>
<polygon fill="#000000" stroke="#000000" points="301.7,-528.2 301.7,-536.2 300.1,-536.2 300.1,-528.2 301.7,-528.2"/>
<polyline fill="none" stroke="#000000" points="302.5,-532.2 298.5,-532.2 "/>
<ellipse fill="none" stroke="#000000" cx="295.3" cy="-532.2001" rx="3.2" ry="3.2"/>
</g>
<!-- _regul_gate_link&#45;&gt;_link -->
<g id="edge6" class="edge">
<title>_regul_gate_link:w&#45;&gt;_link:e</title>
<path fill="none" stroke="#000000" d="M287.776,-510.2C275.7815,-510.2 268.3229,-510.2 251.5,-510.2"/>
<polygon fill="#000000" stroke="#000000" points="294.5,-510.2001 302.5,-513.8 298.5,-510.2 302.5,-510.2 302.5,-510.2 302.5,-510.2 298.5,-510.2 302.5,-506.6 294.5,-510.2001 294.5,-510.2001"/>
<ellipse fill="none" stroke="#000000" cx="291.3" cy="-510.2001" rx="3.2" ry="3.2"/>
</g>
<!-- _regul_gate_link&#45;&gt;_node -->
<g id="edge7" class="edge">
<title>_regul_gate_link:w&#45;&gt;_node:e</title>
<path fill="none" stroke="#000000" d="M288.8163,-272.7954C244.5758,-308.0431 307.2506,-535.2662 259,-577.2 221.093,-610.1444 186.3548,-607.0958 146,-577.2 96.3494,-540.4176 167.291,-444.2 105.5,-444.2"/>
<polygon fill="#000000" stroke="#000000" points="294.9162,-270.7469 303.6461,-271.6127 298.7081,-269.4735 302.5,-268.2 302.5,-268.2 302.5,-268.2 298.7081,-269.4735 301.3539,-264.7873 294.9162,-270.7469 294.9162,-270.7469"/>
<ellipse fill="none" stroke="#000000" cx="291.8827" cy="-271.7657" rx="3.2" ry="3.2"/>
</g>
</g>
</svg>
