<?xml version="1.0" encoding="UTF-8" standalone="no"?>
<!DOCTYPE svg PUBLIC "-//W3C//DTD SVG 1.1//EN"
 "http://www.w3.org/Graphics/SVG/1.1/DTD/svg11.dtd">
<!-- Generated by graphviz version 2.40.1 (20161225.0304)
 -->
<!-- Title: oneDegreeRelationshipsDiagram Pages: 1 -->
<svg width="760pt" height="602pt"
 viewBox="0.00 0.00 760.00 602.20" xmlns="http://www.w3.org/2000/svg" xmlns:xlink="http://www.w3.org/1999/xlink">
<g id="graph0" class="graph" transform="scale(1 1) rotate(0) translate(4 598.2)">
<title>oneDegreeRelationshipsDiagram</title>
<polygon fill="#ffffff" stroke="transparent" points="-4,4 -4,-598.2 756,-598.2 756,4 -4,4"/>
<text text-anchor="middle" x="72.4936" y="-7.3" font-family="Helvetica,sans-Serif" font-size="11.00" fill="#000000">Generated by SchemaSpy</text>
<!-- _regul_sluice_gate_singularity -->
<g id="node1" class="node">
<title>_regul_sluice_gate_singularity</title>
<g id="a_node1"><a xlink:href="../../tables/_regul_sluice_gate_singularity.html" xlink:title="_regul_sluice_gate_singularity" target="_top">
<polygon fill="#ffffff" stroke="transparent" points="316,-38.2 316,-590.2 744,-590.2 744,-38.2 316,-38.2"/>
<polygon fill="#f5f5f5" stroke="transparent" points="318,-565.2 318,-588.2 742,-588.2 742,-565.2 318,-565.2"/>
<polygon fill="none" stroke="#000000" points="318,-565.2 318,-588.2 742,-588.2 742,-565.2 318,-565.2"/>
<text text-anchor="start" x="323" y="-573.8" font-family="Helvetica,sans-Serif" font-weight="bold" font-size="11.00" fill="#000000">_regul_sluice_gate_singularity</text>
<text text-anchor="start" x="707.0437" y="-573.3" font-family="Helvetica,sans-Serif" font-size="11.00" fill="#000000">[table]</text>
<polygon fill="#ffffff" stroke="transparent" points="318,-543.2 318,-565.2 550,-565.2 550,-543.2 318,-543.2"/>
<polygon fill="none" stroke="#000000" points="318,-543.2 318,-565.2 550,-565.2 550,-543.2 318,-543.2"/>
<image xlink:href="../../images/foreignKeys.png" width="11px" height="12px" preserveAspectRatio="xMinYMin meet" x="323" y="-560.2"/>
<text text-anchor="start" x="338" y="-550.3" font-family="Helvetica,sans-Serif" font-size="11.00" fill="#000000">id</text>
<polygon fill="none" stroke="#000000" points="550,-543.2 550,-565.2 742,-565.2 742,-543.2 550,-543.2"/>
<text text-anchor="start" x="553" y="-550.9" font-family="Helvetica,sans-Serif" font-size="11.00" fill="#000000">int4[10]</text>
<polygon fill="none" stroke="#000000" points="318,-521.2 318,-543.2 550,-543.2 550,-521.2 318,-521.2"/>
<image xlink:href="../../images/foreignKeys.png" width="11px" height="12px" preserveAspectRatio="xMinYMin meet" x="323" y="-538.2"/>
<text text-anchor="start" x="338" y="-528.3" font-family="Helvetica,sans-Serif" font-size="11.00" fill="#000000">singularity_type</text>
<polygon fill="none" stroke="#000000" points="550,-521.2 550,-543.2 742,-543.2 742,-521.2 550,-521.2"/>
<text text-anchor="start" x="553" y="-528.9" font-family="Helvetica,sans-Serif" font-size="11.00" fill="#000000">hydra_singularity_type[2147483647]</text>
<polygon fill="none" stroke="#000000" points="318,-499.2 318,-521.2 550,-521.2 550,-499.2 318,-499.2"/>
<text text-anchor="start" x="338" y="-506.3" font-family="Helvetica,sans-Serif" font-size="11.00" fill="#000000">z_invert</text>
<polygon fill="none" stroke="#000000" points="550,-499.2 550,-521.2 742,-521.2 742,-499.2 550,-499.2"/>
<text text-anchor="start" x="553" y="-506.9" font-family="Helvetica,sans-Serif" font-size="11.00" fill="#000000">float4[8,8]</text>
<polygon fill="none" stroke="#000000" points="318,-477.2 318,-499.2 550,-499.2 550,-477.2 318,-477.2"/>
<text text-anchor="start" x="338" y="-484.3" font-family="Helvetica,sans-Serif" font-size="11.00" fill="#000000">z_ceiling</text>
<polygon fill="none" stroke="#000000" points="550,-477.2 550,-499.2 742,-499.2 742,-477.2 550,-477.2"/>
<text text-anchor="start" x="553" y="-484.9" font-family="Helvetica,sans-Serif" font-size="11.00" fill="#000000">float4[8,8]</text>
<polygon fill="none" stroke="#000000" points="318,-455.2 318,-477.2 550,-477.2 550,-455.2 318,-455.2"/>
<text text-anchor="start" x="338" y="-462.3" font-family="Helvetica,sans-Serif" font-size="11.00" fill="#000000">width</text>
<polygon fill="none" stroke="#000000" points="550,-455.2 550,-477.2 742,-477.2 742,-455.2 550,-455.2"/>
<text text-anchor="start" x="553" y="-462.9" font-family="Helvetica,sans-Serif" font-size="11.00" fill="#000000">float4[8,8]</text>
<polygon fill="none" stroke="#000000" points="318,-433.2 318,-455.2 550,-455.2 550,-433.2 318,-433.2"/>
<text text-anchor="start" x="338" y="-440.3" font-family="Helvetica,sans-Serif" font-size="11.00" fill="#000000">cc</text>
<polygon fill="none" stroke="#000000" points="550,-433.2 550,-455.2 742,-455.2 742,-433.2 550,-433.2"/>
<text text-anchor="start" x="553" y="-440.9" font-family="Helvetica,sans-Serif" font-size="11.00" fill="#000000">float4[8,8]</text>
<polygon fill="none" stroke="#000000" points="318,-411.2 318,-433.2 550,-433.2 550,-411.2 318,-411.2"/>
<text text-anchor="start" x="338" y="-418.3" font-family="Helvetica,sans-Serif" font-size="11.00" fill="#000000">action_gate_type</text>
<polygon fill="none" stroke="#000000" points="550,-411.2 550,-433.2 742,-433.2 742,-411.2 550,-411.2"/>
<text text-anchor="start" x="553" y="-418.9" font-family="Helvetica,sans-Serif" font-size="11.00" fill="#000000">hydra_action_gate_type[2147483647]</text>
<polygon fill="none" stroke="#000000" points="318,-389.2 318,-411.2 550,-411.2 550,-389.2 318,-389.2"/>
<text text-anchor="start" x="338" y="-396.3" font-family="Helvetica,sans-Serif" font-size="11.00" fill="#000000">z_invert_stop</text>
<polygon fill="none" stroke="#000000" points="550,-389.2 550,-411.2 742,-411.2 742,-389.2 550,-389.2"/>
<text text-anchor="start" x="553" y="-396.9" font-family="Helvetica,sans-Serif" font-size="11.00" fill="#000000">float4[8,8]</text>
<polygon fill="none" stroke="#000000" points="318,-367.2 318,-389.2 550,-389.2 550,-367.2 318,-367.2"/>
<text text-anchor="start" x="338" y="-374.3" font-family="Helvetica,sans-Serif" font-size="11.00" fill="#000000">z_ceiling_stop</text>
<polygon fill="none" stroke="#000000" points="550,-367.2 550,-389.2 742,-389.2 742,-367.2 550,-367.2"/>
<text text-anchor="start" x="553" y="-374.9" font-family="Helvetica,sans-Serif" font-size="11.00" fill="#000000">float4[8,8]</text>
<polygon fill="none" stroke="#000000" points="318,-345.2 318,-367.2 550,-367.2 550,-345.2 318,-345.2"/>
<text text-anchor="start" x="338" y="-352.3" font-family="Helvetica,sans-Serif" font-size="11.00" fill="#000000">v_max_cms</text>
<polygon fill="none" stroke="#000000" points="550,-345.2 550,-367.2 742,-367.2 742,-345.2 550,-345.2"/>
<text text-anchor="start" x="553" y="-352.9" font-family="Helvetica,sans-Serif" font-size="11.00" fill="#000000">float4[8,8]</text>
<polygon fill="none" stroke="#000000" points="318,-323.2 318,-345.2 550,-345.2 550,-323.2 318,-323.2"/>
<text text-anchor="start" x="338" y="-330.3" font-family="Helvetica,sans-Serif" font-size="11.00" fill="#000000">dt_regul_hr</text>
<polygon fill="none" stroke="#000000" points="550,-323.2 550,-345.2 742,-345.2 742,-323.2 550,-323.2"/>
<text text-anchor="start" x="553" y="-330.9" font-family="Helvetica,sans-Serif" font-size="11.00" fill="#000000">float4[8,8]</text>
<polygon fill="none" stroke="#000000" points="318,-301.2 318,-323.2 550,-323.2 550,-301.2 318,-301.2"/>
<text text-anchor="start" x="338" y="-308.3" font-family="Helvetica,sans-Serif" font-size="11.00" fill="#000000">mode_regul</text>
<polygon fill="none" stroke="#000000" points="550,-301.2 550,-323.2 742,-323.2 742,-301.2 550,-301.2"/>
<text text-anchor="start" x="552.7651" y="-308.9" font-family="Helvetica,sans-Serif" font-size="11.00" fill="#000000">hydra_gate_mode_regul[2147483647]</text>
<polygon fill="none" stroke="#000000" points="318,-279.2 318,-301.2 550,-301.2 550,-279.2 318,-279.2"/>
<image xlink:href="../../images/foreignKeys.png" width="11px" height="12px" preserveAspectRatio="xMinYMin meet" x="323" y="-296.2"/>
<text text-anchor="start" x="338" y="-286.3" font-family="Helvetica,sans-Serif" font-size="11.00" fill="#000000">z_control_node</text>
<polygon fill="none" stroke="#000000" points="550,-279.2 550,-301.2 742,-301.2 742,-279.2 550,-279.2"/>
<text text-anchor="start" x="553" y="-286.9" font-family="Helvetica,sans-Serif" font-size="11.00" fill="#000000">int4[10]</text>
<polygon fill="none" stroke="#000000" points="318,-257.2 318,-279.2 550,-279.2 550,-257.2 318,-257.2"/>
<text text-anchor="start" x="338" y="-264.3" font-family="Helvetica,sans-Serif" font-size="11.00" fill="#000000">z_pid_array</text>
<polygon fill="none" stroke="#000000" points="550,-257.2 550,-279.2 742,-279.2 742,-257.2 550,-257.2"/>
<text text-anchor="start" x="553" y="-264.9" font-family="Helvetica,sans-Serif" font-size="11.00" fill="#000000">_float4[8,8]</text>
<polygon fill="none" stroke="#000000" points="318,-235.2 318,-257.2 550,-257.2 550,-235.2 318,-235.2"/>
<text text-anchor="start" x="338" y="-242.3" font-family="Helvetica,sans-Serif" font-size="11.00" fill="#000000">z_tz_array</text>
<polygon fill="none" stroke="#000000" points="550,-235.2 550,-257.2 742,-257.2 742,-235.2 550,-235.2"/>
<text text-anchor="start" x="553" y="-242.9" font-family="Helvetica,sans-Serif" font-size="11.00" fill="#000000">_float4[8,8]</text>
<polygon fill="none" stroke="#000000" points="318,-213.2 318,-235.2 550,-235.2 550,-213.2 318,-213.2"/>
<text text-anchor="start" x="338" y="-220.3" font-family="Helvetica,sans-Serif" font-size="11.00" fill="#000000">q_z_crit</text>
<polygon fill="none" stroke="#000000" points="550,-213.2 550,-235.2 742,-235.2 742,-213.2 550,-213.2"/>
<text text-anchor="start" x="553" y="-220.9" font-family="Helvetica,sans-Serif" font-size="11.00" fill="#000000">float4[8,8]</text>
<polygon fill="none" stroke="#000000" points="318,-191.2 318,-213.2 550,-213.2 550,-191.2 318,-191.2"/>
<text text-anchor="start" x="338" y="-198.3" font-family="Helvetica,sans-Serif" font-size="11.00" fill="#000000">q_tq_array</text>
<polygon fill="none" stroke="#000000" points="550,-191.2 550,-213.2 742,-213.2 742,-191.2 550,-191.2"/>
<text text-anchor="start" x="553" y="-198.9" font-family="Helvetica,sans-Serif" font-size="11.00" fill="#000000">_float4[8,8]</text>
<polygon fill="none" stroke="#000000" points="318,-169.2 318,-191.2 550,-191.2 550,-169.2 318,-169.2"/>
<text text-anchor="start" x="338" y="-176.3" font-family="Helvetica,sans-Serif" font-size="11.00" fill="#000000">hq_array</text>
<polygon fill="none" stroke="#000000" points="550,-169.2 550,-191.2 742,-191.2 742,-169.2 550,-169.2"/>
<text text-anchor="start" x="553" y="-176.9" font-family="Helvetica,sans-Serif" font-size="11.00" fill="#000000">_float4[8,8]</text>
<polygon fill="none" stroke="#000000" points="318,-147.2 318,-169.2 550,-169.2 550,-147.2 318,-147.2"/>
<text text-anchor="start" x="338" y="-154.3" font-family="Helvetica,sans-Serif" font-size="11.00" fill="#000000">nr_z_gate</text>
<polygon fill="none" stroke="#000000" points="550,-147.2 550,-169.2 742,-169.2 742,-147.2 550,-147.2"/>
<text text-anchor="start" x="553" y="-154.9" font-family="Helvetica,sans-Serif" font-size="11.00" fill="#000000">float4[8,8]</text>
<polygon fill="none" stroke="#000000" points="318,-125.2 318,-147.2 550,-147.2 550,-125.2 318,-125.2"/>
<text text-anchor="start" x="338" y="-132.3" font-family="Helvetica,sans-Serif" font-size="11.00" fill="#000000">full_section_discharge_for_headloss</text>
<polygon fill="none" stroke="#000000" points="550,-125.2 550,-147.2 742,-147.2 742,-125.2 550,-125.2"/>
<text text-anchor="start" x="553" y="-132.9" font-family="Helvetica,sans-Serif" font-size="11.00" fill="#000000">bool[1]</text>
<polygon fill="none" stroke="#000000" points="318,-103.2 318,-125.2 550,-125.2 550,-103.2 318,-103.2"/>
<text text-anchor="start" x="338" y="-110.3" font-family="Helvetica,sans-Serif" font-size="11.00" fill="#000000">cc_submerged</text>
<polygon fill="none" stroke="#000000" points="550,-103.2 550,-125.2 742,-125.2 742,-103.2 550,-103.2"/>
<text text-anchor="start" x="553" y="-110.9" font-family="Helvetica,sans-Serif" font-size="11.00" fill="#000000">float4[8,8]</text>
<polygon fill="none" stroke="#000000" points="318,-81.2 318,-103.2 550,-103.2 550,-81.2 318,-81.2"/>
<text text-anchor="start" x="338" y="-88.3" font-family="Helvetica,sans-Serif" font-size="11.00" fill="#000000">h_open</text>
<polygon fill="none" stroke="#000000" points="550,-81.2 550,-103.2 742,-103.2 742,-81.2 550,-81.2"/>
<text text-anchor="start" x="553" y="-88.9" font-family="Helvetica,sans-Serif" font-size="11.00" fill="#000000">float4[8,8]</text>
<polygon fill="none" stroke="#000000" points="318,-59.2 318,-81.2 550,-81.2 550,-59.2 318,-59.2"/>
<text text-anchor="start" x="338" y="-66.3" font-family="Helvetica,sans-Serif" font-size="11.00" fill="#000000">h_close</text>
<polygon fill="none" stroke="#000000" points="550,-59.2 550,-81.2 742,-81.2 742,-59.2 550,-59.2"/>
<text text-anchor="start" x="553" y="-66.9" font-family="Helvetica,sans-Serif" font-size="11.00" fill="#000000">float4[8,8]</text>
<polygon fill="#ffffff" stroke="transparent" points="318,-40.2 318,-59.2 425,-59.2 425,-40.2 318,-40.2"/>
<polygon fill="none" stroke="#000000" points="318,-40.2 318,-59.2 425,-59.2 425,-40.2 318,-40.2"/>
<text text-anchor="start" x="321" y="-46.3" font-family="Helvetica,sans-Serif" font-size="11.00" fill="#000000">&lt; 3</text>
<polygon fill="#ffffff" stroke="transparent" points="425,-40.2 425,-59.2 550,-59.2 550,-40.2 425,-40.2"/>
<polygon fill="none" stroke="#000000" points="425,-40.2 425,-59.2 550,-59.2 550,-40.2 425,-40.2"/>
<text text-anchor="start" x="514.6105" y="-46.3" font-family="Helvetica,sans-Serif" font-size="11.00" fill="#000000">0 rows</text>
<polygon fill="#ffffff" stroke="transparent" points="550,-40.2 550,-59.2 742,-59.2 742,-40.2 550,-40.2"/>
<polygon fill="none" stroke="#000000" points="550,-40.2 550,-59.2 742,-59.2 742,-40.2 550,-40.2"/>
<text text-anchor="start" x="723.4053" y="-46.3" font-family="Helvetica,sans-Serif" font-size="11.00" fill="#000000">0 &gt;</text>
<polygon fill="none" stroke="#000000" stroke-width="2" points="317,-39.2 317,-589.2 743,-589.2 743,-39.2 317,-39.2"/>
</a>
</g>
</g>
<!-- _singularity -->
<g id="node2" class="node">
<title>_singularity</title>
<g id="a_node2"><a xlink:href="../../tables/_singularity.html" xlink:title="_singularity" target="_top">
<polygon fill="#ffffff" stroke="transparent" points="154,-395.7 154,-588.7 267,-588.7 267,-395.7 154,-395.7"/>
<polygon fill="#f5f5f5" stroke="transparent" points="154.5,-565.2 154.5,-588.2 267.5,-588.2 267.5,-565.2 154.5,-565.2"/>
<polygon fill="none" stroke="#000000" points="154.5,-565.2 154.5,-588.2 267.5,-588.2 267.5,-565.2 154.5,-565.2"/>
<text text-anchor="start" x="159.5" y="-573.8" font-family="Helvetica,sans-Serif" font-weight="bold" font-size="11.00" fill="#000000">_singularity</text>
<text text-anchor="start" x="232.5437" y="-573.3" font-family="Helvetica,sans-Serif" font-size="11.00" fill="#000000">[table]</text>
<polygon fill="none" stroke="#000000" points="154.5,-543.2 154.5,-565.2 267.5,-565.2 267.5,-543.2 154.5,-543.2"/>
<image xlink:href="../../images/primaryKeys.png" width="11px" height="12px" preserveAspectRatio="xMinYMin meet" x="159.5" y="-560.2"/>
<text text-anchor="start" x="174.5" y="-550.3" font-family="Helvetica,sans-Serif" font-size="11.00" fill="#000000">id</text>
<polygon fill="#ffffff" stroke="transparent" points="154.5,-521.2 154.5,-543.2 267.5,-543.2 267.5,-521.2 154.5,-521.2"/>
<polygon fill="none" stroke="#000000" points="154.5,-521.2 154.5,-543.2 267.5,-543.2 267.5,-521.2 154.5,-521.2"/>
<text text-anchor="start" x="174.5" y="-528.3" font-family="Helvetica,sans-Serif" font-size="11.00" fill="#000000">singularity_type</text>
<polygon fill="#ffffff" stroke="transparent" points="154.5,-499.2 154.5,-521.2 267.5,-521.2 267.5,-499.2 154.5,-499.2"/>
<polygon fill="none" stroke="#000000" points="154.5,-499.2 154.5,-521.2 267.5,-521.2 267.5,-499.2 154.5,-499.2"/>
<text text-anchor="start" x="174.5" y="-506.3" font-family="Helvetica,sans-Serif" font-size="11.00" fill="#000000">name</text>
<polygon fill="#ffffff" stroke="transparent" points="154.5,-477.2 154.5,-499.2 267.5,-499.2 267.5,-477.2 154.5,-477.2"/>
<polygon fill="none" stroke="#000000" points="154.5,-477.2 154.5,-499.2 267.5,-499.2 267.5,-477.2 154.5,-477.2"/>
<image xlink:href="../../images/foreignKeys.png" width="11px" height="12px" preserveAspectRatio="xMinYMin meet" x="159.5" y="-494.2"/>
<text text-anchor="start" x="174.5" y="-484.3" font-family="Helvetica,sans-Serif" font-size="11.00" fill="#000000">node</text>
<polygon fill="none" stroke="#000000" points="154.5,-455.2 154.5,-477.2 267.5,-477.2 267.5,-455.2 154.5,-455.2"/>
<image xlink:href="../../images/foreignKeys.png" width="11px" height="12px" preserveAspectRatio="xMinYMin meet" x="159.5" y="-472.2"/>
<text text-anchor="start" x="174.5" y="-462.3" font-family="Helvetica,sans-Serif" font-size="11.00" fill="#000000">node_type</text>
<polygon fill="#ffffff" stroke="transparent" points="154.5,-433.2 154.5,-455.2 267.5,-455.2 267.5,-433.2 154.5,-433.2"/>
<polygon fill="none" stroke="#000000" points="154.5,-433.2 154.5,-455.2 267.5,-455.2 267.5,-433.2 154.5,-433.2"/>
<text text-anchor="start" x="174.5" y="-440.3" font-family="Helvetica,sans-Serif" font-size="11.00" fill="#000000">validity</text>
<polygon fill="none" stroke="#000000" points="154.5,-414.2 154.5,-433.2 267.5,-433.2 267.5,-414.2 154.5,-414.2"/>
<text text-anchor="start" x="157.5" y="-420.3" font-family="Helvetica,sans-Serif" font-size="11.00" fill="#000000">...</text>
<polygon fill="#ffffff" stroke="transparent" points="154.5,-395.2 154.5,-414.2 188.5,-414.2 188.5,-395.2 154.5,-395.2"/>
<polygon fill="none" stroke="#000000" points="154.5,-395.2 154.5,-414.2 188.5,-414.2 188.5,-395.2 154.5,-395.2"/>
<text text-anchor="start" x="157.5" y="-401.3" font-family="Helvetica,sans-Serif" font-size="11.00" fill="#000000">&lt; 2</text>
<polygon fill="#ffffff" stroke="transparent" points="188.5,-395.2 188.5,-414.2 233.5,-414.2 233.5,-395.2 188.5,-395.2"/>
<polygon fill="none" stroke="#000000" points="188.5,-395.2 188.5,-414.2 233.5,-414.2 233.5,-395.2 188.5,-395.2"/>
<text text-anchor="start" x="198.1105" y="-401.3" font-family="Helvetica,sans-Serif" font-size="11.00" fill="#000000">0 rows</text>
<polygon fill="#ffffff" stroke="transparent" points="233.5,-395.2 233.5,-414.2 267.5,-414.2 267.5,-395.2 233.5,-395.2"/>
<polygon fill="none" stroke="#000000" points="233.5,-395.2 233.5,-414.2 267.5,-414.2 267.5,-395.2 233.5,-395.2"/>
<text text-anchor="start" x="242.7904" y="-401.3" font-family="Helvetica,sans-Serif" font-size="11.00" fill="#000000">52 &gt;</text>
</a>
</g>
</g>
<!-- _regul_sluice_gate_singularity&#45;&gt;_singularity -->
<g id="edge1" class="edge">
<title>_regul_sluice_gate_singularity:w&#45;&gt;_singularity:e</title>
<path fill="none" stroke="#000000" d="M307.3362,-554.2C292.9956,-554.2 285.9115,-554.2 267.5,-554.2"/>
<polygon fill="#000000" stroke="#000000" points="317.2,-550.2 317.2,-558.2 315.6,-558.2 315.6,-550.2 317.2,-550.2"/>
<polyline fill="none" stroke="#000000" points="318,-554.2 314,-554.2 "/>
<ellipse fill="none" stroke="#000000" cx="310.8" cy="-554.2001" rx="3.2" ry="3.2"/>
</g>
<!-- _regul_sluice_gate_singularity&#45;&gt;_singularity -->
<g id="edge2" class="edge">
<title>_regul_sluice_gate_singularity:w&#45;&gt;_singularity:e</title>
<path fill="none" stroke="#000000" d="M303.4203,-532.2C291.5435,-532.2 284.158,-532.2 267.5,-532.2"/>
<polygon fill="#000000" stroke="#000000" points="310,-532.2001 318,-535.8 314,-532.2 318,-532.2 318,-532.2 318,-532.2 314,-532.2 318,-528.6 310,-532.2001 310,-532.2001"/>
<ellipse fill="none" stroke="#000000" cx="306.8" cy="-532.2001" rx="3.2" ry="3.2"/>
</g>
<!-- _node -->
<g id="node3" class="node">
<title>_node</title>
<g id="a_node3"><a xlink:href="../../tables/_node.html" xlink:title="_node" target="_top">
<polygon fill="#ffffff" stroke="transparent" points="8,-329.7 8,-522.7 105,-522.7 105,-329.7 8,-329.7"/>
<polygon fill="#f5f5f5" stroke="transparent" points="8.5,-499.2 8.5,-522.2 105.5,-522.2 105.5,-499.2 8.5,-499.2"/>
<polygon fill="none" stroke="#000000" points="8.5,-499.2 8.5,-522.2 105.5,-522.2 105.5,-499.2 8.5,-499.2"/>
<text text-anchor="start" x="13.5" y="-507.8" font-family="Helvetica,sans-Serif" font-weight="bold" font-size="11.00" fill="#000000">_node</text>
<text text-anchor="start" x="70.5437" y="-507.3" font-family="Helvetica,sans-Serif" font-size="11.00" fill="#000000">[table]</text>
<polygon fill="none" stroke="#000000" points="8.5,-477.2 8.5,-499.2 105.5,-499.2 105.5,-477.2 8.5,-477.2"/>
<image xlink:href="../../images/primaryKeys.png" width="11px" height="12px" preserveAspectRatio="xMinYMin meet" x="13.5" y="-494.2"/>
<text text-anchor="start" x="28.5" y="-484.3" font-family="Helvetica,sans-Serif" font-size="11.00" fill="#000000">id</text>
<polygon fill="#ffffff" stroke="transparent" points="8.5,-455.2 8.5,-477.2 105.5,-477.2 105.5,-455.2 8.5,-455.2"/>
<polygon fill="none" stroke="#000000" points="8.5,-455.2 8.5,-477.2 105.5,-477.2 105.5,-455.2 8.5,-455.2"/>
<text text-anchor="start" x="28.5" y="-462.3" font-family="Helvetica,sans-Serif" font-size="11.00" fill="#000000">node_type</text>
<polygon fill="#ffffff" stroke="transparent" points="8.5,-433.2 8.5,-455.2 105.5,-455.2 105.5,-433.2 8.5,-433.2"/>
<polygon fill="none" stroke="#000000" points="8.5,-433.2 8.5,-455.2 105.5,-455.2 105.5,-433.2 8.5,-433.2"/>
<text text-anchor="start" x="28.5" y="-440.3" font-family="Helvetica,sans-Serif" font-size="11.00" fill="#000000">name</text>
<polygon fill="#ffffff" stroke="transparent" points="8.5,-411.2 8.5,-433.2 105.5,-433.2 105.5,-411.2 8.5,-411.2"/>
<polygon fill="none" stroke="#000000" points="8.5,-411.2 8.5,-433.2 105.5,-433.2 105.5,-411.2 8.5,-411.2"/>
<text text-anchor="start" x="28.5" y="-418.3" font-family="Helvetica,sans-Serif" font-size="11.00" fill="#000000">geom</text>
<polygon fill="#ffffff" stroke="transparent" points="8.5,-389.2 8.5,-411.2 105.5,-411.2 105.5,-389.2 8.5,-389.2"/>
<polygon fill="none" stroke="#000000" points="8.5,-389.2 8.5,-411.2 105.5,-411.2 105.5,-389.2 8.5,-389.2"/>
<image xlink:href="../../images/foreignKeys.png" width="11px" height="12px" preserveAspectRatio="xMinYMin meet" x="13.5" y="-406.2"/>
<text text-anchor="start" x="28.5" y="-396.3" font-family="Helvetica,sans-Serif" font-size="11.00" fill="#000000">generated</text>
<polygon fill="#ffffff" stroke="transparent" points="8.5,-367.2 8.5,-389.2 105.5,-389.2 105.5,-367.2 8.5,-367.2"/>
<polygon fill="none" stroke="#000000" points="8.5,-367.2 8.5,-389.2 105.5,-389.2 105.5,-367.2 8.5,-367.2"/>
<text text-anchor="start" x="28.5" y="-374.3" font-family="Helvetica,sans-Serif" font-size="11.00" fill="#000000">validity</text>
<polygon fill="none" stroke="#000000" points="8.5,-348.2 8.5,-367.2 105.5,-367.2 105.5,-348.2 8.5,-348.2"/>
<text text-anchor="start" x="11.5" y="-354.3" font-family="Helvetica,sans-Serif" font-size="11.00" fill="#000000">...</text>
<polygon fill="#ffffff" stroke="transparent" points="8.5,-329.2 8.5,-348.2 34.5,-348.2 34.5,-329.2 8.5,-329.2"/>
<polygon fill="none" stroke="#000000" points="8.5,-329.2 8.5,-348.2 34.5,-348.2 34.5,-329.2 8.5,-329.2"/>
<text text-anchor="start" x="11.5" y="-335.3" font-family="Helvetica,sans-Serif" font-size="11.00" fill="#000000">&lt; 1</text>
<polygon fill="#ffffff" stroke="transparent" points="34.5,-329.2 34.5,-348.2 75.5,-348.2 75.5,-329.2 34.5,-329.2"/>
<polygon fill="none" stroke="#000000" points="34.5,-329.2 34.5,-348.2 75.5,-348.2 75.5,-329.2 34.5,-329.2"/>
<text text-anchor="start" x="40.1105" y="-335.3" font-family="Helvetica,sans-Serif" font-size="11.00" fill="#000000">0 rows</text>
<polygon fill="#ffffff" stroke="transparent" points="75.5,-329.2 75.5,-348.2 105.5,-348.2 105.5,-329.2 75.5,-329.2"/>
<polygon fill="none" stroke="#000000" points="75.5,-329.2 75.5,-348.2 105.5,-348.2 105.5,-329.2 75.5,-329.2"/>
<text text-anchor="start" x="80.7904" y="-335.3" font-family="Helvetica,sans-Serif" font-size="11.00" fill="#000000">24 &gt;</text>
</a>
</g>
</g>
<!-- _regul_sluice_gate_singularity&#45;&gt;_node -->
<g id="edge3" class="edge">
<title>_regul_sluice_gate_singularity:w&#45;&gt;_node:e</title>
<path fill="none" stroke="#000000" d="M303.2516,-290.5039C227.3943,-293.7661 200.2346,-323.4138 146,-385.2 113.5504,-422.1679 154.6895,-488.2 105.5,-488.2"/>
<polygon fill="#000000" stroke="#000000" points="310.0017,-290.3648 318.0742,-293.7992 314.0008,-290.2824 318,-290.2 318,-290.2 318,-290.2 314.0008,-290.2824 317.9258,-286.6008 310.0017,-290.3648 310.0017,-290.3648"/>
<ellipse fill="none" stroke="#000000" cx="306.8024" cy="-290.4308" rx="3.2" ry="3.2"/>
</g>
<!-- _singularity&#45;&gt;_node -->
<g id="edge4" class="edge">
<title>_singularity:w&#45;&gt;_node:e</title>
<path fill="none" stroke="#000000" d="M143.7573,-488.2C130.1063,-488.2 123.1944,-488.2 105.5,-488.2"/>
<polygon fill="#000000" stroke="#000000" points="153.7,-484.2 153.7,-492.2 152.1,-492.2 152.1,-484.2 153.7,-484.2"/>
<polyline fill="none" stroke="#000000" points="154.5,-488.2 150.5,-488.2 "/>
<ellipse fill="none" stroke="#000000" cx="147.3" cy="-488.2001" rx="3.2" ry="3.2"/>
</g>
<!-- _singularity&#45;&gt;_node -->
<g id="edge5" class="edge">
<title>_singularity:w&#45;&gt;_node:e</title>
<path fill="none" stroke="#000000" d="M139.9909,-466.2C128.6774,-466.2 121.4931,-466.2 105.5,-466.2"/>
<polygon fill="#000000" stroke="#000000" points="146.5,-466.2001 154.5,-469.8 150.5,-466.2 154.5,-466.2 154.5,-466.2 154.5,-466.2 150.5,-466.2 154.5,-462.6 146.5,-466.2001 146.5,-466.2001"/>
<ellipse fill="none" stroke="#000000" cx="143.3" cy="-466.2001" rx="3.2" ry="3.2"/>
</g>
</g>
</svg>
