<?xml version="1.0" encoding="UTF-8" standalone="no"?>
<!DOCTYPE svg PUBLIC "-//W3C//DTD SVG 1.1//EN"
 "http://www.w3.org/Graphics/SVG/1.1/DTD/svg11.dtd">
<!-- Generated by graphviz version 2.40.1 (20161225.0304)
 -->
<!-- Title: oneDegreeRelationshipsDiagram Pages: 1 -->
<svg width="660pt" height="545pt"
 viewBox="0.00 0.00 660.00 545.20" xmlns="http://www.w3.org/2000/svg" xmlns:xlink="http://www.w3.org/1999/xlink">
<g id="graph0" class="graph" transform="scale(1 1) rotate(0) translate(4 541.2)">
<title>oneDegreeRelationshipsDiagram</title>
<polygon fill="#ffffff" stroke="transparent" points="-4,4 -4,-541.2 656,-541.2 656,4 -4,4"/>
<text text-anchor="middle" x="72.4936" y="-7.3" font-family="Helvetica,sans-Serif" font-size="11.00" fill="#000000">Generated by SchemaSpy</text>
<!-- _reservoir_rsp_hydrology_singularity -->
<g id="node1" class="node">
<title>_reservoir_rsp_hydrology_singularity</title>
<g id="a_node1"><a xlink:href="../../tables/_reservoir_rsp_hydrology_singularity.html" xlink:title="_reservoir_rsp_hydrology_singularity" target="_top">
<polygon fill="#ffffff" stroke="transparent" points="170,-142.7 170,-408.7 644,-408.7 644,-142.7 170,-142.7"/>
<polygon fill="#f5f5f5" stroke="transparent" points="172,-383.7 172,-406.7 642,-406.7 642,-383.7 172,-383.7"/>
<polygon fill="none" stroke="#000000" points="172,-383.7 172,-406.7 642,-406.7 642,-383.7 172,-383.7"/>
<text text-anchor="start" x="177" y="-392.3" font-family="Helvetica,sans-Serif" font-weight="bold" font-size="11.00" fill="#000000">_reservoir_rsp_hydrology_singularity</text>
<text text-anchor="start" x="607.0437" y="-391.8" font-family="Helvetica,sans-Serif" font-size="11.00" fill="#000000">[table]</text>
<polygon fill="#ffffff" stroke="transparent" points="172,-361.7 172,-383.7 408,-383.7 408,-361.7 172,-361.7"/>
<polygon fill="none" stroke="#000000" points="172,-361.7 172,-383.7 408,-383.7 408,-361.7 172,-361.7"/>
<image xlink:href="../../images/foreignKeys.png" width="11px" height="12px" preserveAspectRatio="xMinYMin meet" x="177" y="-378.7"/>
<text text-anchor="start" x="192" y="-368.8" font-family="Helvetica,sans-Serif" font-size="11.00" fill="#000000">id</text>
<polygon fill="none" stroke="#000000" points="408,-361.7 408,-383.7 642,-383.7 642,-361.7 408,-361.7"/>
<text text-anchor="start" x="411" y="-369.4" font-family="Helvetica,sans-Serif" font-size="11.00" fill="#000000">int4[10]</text>
<polygon fill="none" stroke="#000000" points="172,-339.7 172,-361.7 408,-361.7 408,-339.7 172,-339.7"/>
<image xlink:href="../../images/foreignKeys.png" width="11px" height="12px" preserveAspectRatio="xMinYMin meet" x="177" y="-356.7"/>
<text text-anchor="start" x="192" y="-346.8" font-family="Helvetica,sans-Serif" font-size="11.00" fill="#000000">singularity_type</text>
<polygon fill="none" stroke="#000000" points="408,-339.7 408,-361.7 642,-361.7 642,-339.7 408,-339.7"/>
<text text-anchor="start" x="411" y="-347.4" font-family="Helvetica,sans-Serif" font-size="11.00" fill="#000000">hydra_singularity_type[2147483647]</text>
<polygon fill="none" stroke="#000000" points="172,-317.7 172,-339.7 408,-339.7 408,-317.7 172,-317.7"/>
<image xlink:href="../../images/foreignKeys.png" width="11px" height="12px" preserveAspectRatio="xMinYMin meet" x="177" y="-334.7"/>
<text text-anchor="start" x="192" y="-324.8" font-family="Helvetica,sans-Serif" font-size="11.00" fill="#000000">drainage</text>
<polygon fill="none" stroke="#000000" points="408,-317.7 408,-339.7 642,-339.7 642,-317.7 408,-317.7"/>
<text text-anchor="start" x="411" y="-325.4" font-family="Helvetica,sans-Serif" font-size="11.00" fill="#000000">int4[10]</text>
<polygon fill="none" stroke="#000000" points="172,-295.7 172,-317.7 408,-317.7 408,-295.7 172,-295.7"/>
<image xlink:href="../../images/foreignKeys.png" width="11px" height="12px" preserveAspectRatio="xMinYMin meet" x="177" y="-312.7"/>
<text text-anchor="start" x="192" y="-302.8" font-family="Helvetica,sans-Serif" font-size="11.00" fill="#000000">drainage_type</text>
<polygon fill="none" stroke="#000000" points="408,-295.7 408,-317.7 642,-317.7 642,-295.7 408,-295.7"/>
<text text-anchor="start" x="411" y="-303.4" font-family="Helvetica,sans-Serif" font-size="11.00" fill="#000000">hydra_link_type[2147483647]</text>
<polygon fill="none" stroke="#000000" points="172,-273.7 172,-295.7 408,-295.7 408,-273.7 172,-273.7"/>
<image xlink:href="../../images/foreignKeys.png" width="11px" height="12px" preserveAspectRatio="xMinYMin meet" x="177" y="-290.7"/>
<text text-anchor="start" x="192" y="-280.8" font-family="Helvetica,sans-Serif" font-size="11.00" fill="#000000">overflow</text>
<polygon fill="none" stroke="#000000" points="408,-273.7 408,-295.7 642,-295.7 642,-273.7 408,-273.7"/>
<text text-anchor="start" x="411" y="-281.4" font-family="Helvetica,sans-Serif" font-size="11.00" fill="#000000">int4[10]</text>
<polygon fill="none" stroke="#000000" points="172,-251.7 172,-273.7 408,-273.7 408,-251.7 172,-251.7"/>
<image xlink:href="../../images/foreignKeys.png" width="11px" height="12px" preserveAspectRatio="xMinYMin meet" x="177" y="-268.7"/>
<text text-anchor="start" x="192" y="-258.8" font-family="Helvetica,sans-Serif" font-size="11.00" fill="#000000">overflow_type</text>
<polygon fill="none" stroke="#000000" points="408,-251.7 408,-273.7 642,-273.7 642,-251.7 408,-251.7"/>
<text text-anchor="start" x="411" y="-259.4" font-family="Helvetica,sans-Serif" font-size="11.00" fill="#000000">hydra_link_type[2147483647]</text>
<polygon fill="none" stroke="#000000" points="172,-229.7 172,-251.7 408,-251.7 408,-229.7 172,-229.7"/>
<text text-anchor="start" x="192" y="-236.8" font-family="Helvetica,sans-Serif" font-size="11.00" fill="#000000">z_ini</text>
<polygon fill="none" stroke="#000000" points="408,-229.7 408,-251.7 642,-251.7 642,-229.7 408,-229.7"/>
<text text-anchor="start" x="411" y="-237.4" font-family="Helvetica,sans-Serif" font-size="11.00" fill="#000000">float4[8,8]</text>
<polygon fill="none" stroke="#000000" points="172,-207.7 172,-229.7 408,-229.7 408,-207.7 172,-207.7"/>
<text text-anchor="start" x="192" y="-214.8" font-family="Helvetica,sans-Serif" font-size="11.00" fill="#000000">zr_sr_qf_qs_array</text>
<polygon fill="none" stroke="#000000" points="408,-207.7 408,-229.7 642,-229.7 642,-207.7 408,-207.7"/>
<text text-anchor="start" x="411" y="-215.4" font-family="Helvetica,sans-Serif" font-size="11.00" fill="#000000">_float4[8,8]</text>
<polygon fill="none" stroke="#000000" points="172,-185.7 172,-207.7 408,-207.7 408,-185.7 172,-185.7"/>
<text text-anchor="start" x="192" y="-192.8" font-family="Helvetica,sans-Serif" font-size="11.00" fill="#000000">treatment_mode</text>
<polygon fill="none" stroke="#000000" points="408,-185.7 408,-207.7 642,-207.7 642,-185.7 408,-185.7"/>
<text text-anchor="start" x="410.9856" y="-193.4" font-family="Helvetica,sans-Serif" font-size="11.00" fill="#000000">hydra_pollution_treatment_mode[2147483647]</text>
<polygon fill="none" stroke="#000000" points="172,-163.7 172,-185.7 408,-185.7 408,-163.7 172,-163.7"/>
<text text-anchor="start" x="192" y="-170.8" font-family="Helvetica,sans-Serif" font-size="11.00" fill="#000000">treatment_param</text>
<polygon fill="none" stroke="#000000" points="408,-163.7 408,-185.7 642,-185.7 642,-163.7 408,-163.7"/>
<text text-anchor="start" x="411" y="-171.4" font-family="Helvetica,sans-Serif" font-size="11.00" fill="#000000">json[2147483647]</text>
<polygon fill="#ffffff" stroke="transparent" points="172,-144.7 172,-163.7 281,-163.7 281,-144.7 172,-144.7"/>
<polygon fill="none" stroke="#000000" points="172,-144.7 172,-163.7 281,-163.7 281,-144.7 172,-144.7"/>
<text text-anchor="start" x="175" y="-150.8" font-family="Helvetica,sans-Serif" font-size="11.00" fill="#000000">&lt; 6</text>
<polygon fill="#ffffff" stroke="transparent" points="281,-144.7 281,-163.7 408,-163.7 408,-144.7 281,-144.7"/>
<polygon fill="none" stroke="#000000" points="281,-144.7 281,-163.7 408,-163.7 408,-144.7 281,-144.7"/>
<text text-anchor="start" x="372.6105" y="-150.8" font-family="Helvetica,sans-Serif" font-size="11.00" fill="#000000">0 rows</text>
<polygon fill="#ffffff" stroke="transparent" points="408,-144.7 408,-163.7 642,-163.7 642,-144.7 408,-144.7"/>
<polygon fill="none" stroke="#000000" points="408,-144.7 408,-163.7 642,-163.7 642,-144.7 408,-144.7"/>
<text text-anchor="start" x="623.4053" y="-150.8" font-family="Helvetica,sans-Serif" font-size="11.00" fill="#000000">0 &gt;</text>
<polygon fill="none" stroke="#000000" stroke-width="2" points="171,-143.7 171,-407.7 643,-407.7 643,-143.7 171,-143.7"/>
</a>
</g>
</g>
<!-- _link -->
<g id="node2" class="node">
<title>_link</title>
<g id="a_node2"><a xlink:href="../../tables/_link.html" xlink:title="_link" target="_top">
<polygon fill="#ffffff" stroke="transparent" points="16,-38.2 16,-319.2 113,-319.2 113,-38.2 16,-38.2"/>
<polygon fill="#f5f5f5" stroke="transparent" points="16.5,-295.7 16.5,-318.7 113.5,-318.7 113.5,-295.7 16.5,-295.7"/>
<polygon fill="none" stroke="#000000" points="16.5,-295.7 16.5,-318.7 113.5,-318.7 113.5,-295.7 16.5,-295.7"/>
<text text-anchor="start" x="21.5" y="-304.3" font-family="Helvetica,sans-Serif" font-weight="bold" font-size="11.00" fill="#000000">_link</text>
<text text-anchor="start" x="78.5437" y="-303.8" font-family="Helvetica,sans-Serif" font-size="11.00" fill="#000000">[table]</text>
<polygon fill="none" stroke="#000000" points="16.5,-273.7 16.5,-295.7 113.5,-295.7 113.5,-273.7 16.5,-273.7"/>
<image xlink:href="../../images/primaryKeys.png" width="11px" height="12px" preserveAspectRatio="xMinYMin meet" x="21.5" y="-290.7"/>
<text text-anchor="start" x="36.5" y="-280.8" font-family="Helvetica,sans-Serif" font-size="11.00" fill="#000000">id</text>
<polygon fill="#ffffff" stroke="transparent" points="16.5,-251.7 16.5,-273.7 113.5,-273.7 113.5,-251.7 16.5,-251.7"/>
<polygon fill="none" stroke="#000000" points="16.5,-251.7 16.5,-273.7 113.5,-273.7 113.5,-251.7 16.5,-251.7"/>
<text text-anchor="start" x="36.5" y="-258.8" font-family="Helvetica,sans-Serif" font-size="11.00" fill="#000000">link_type</text>
<polygon fill="#ffffff" stroke="transparent" points="16.5,-229.7 16.5,-251.7 113.5,-251.7 113.5,-229.7 16.5,-229.7"/>
<polygon fill="none" stroke="#000000" points="16.5,-229.7 16.5,-251.7 113.5,-251.7 113.5,-229.7 16.5,-229.7"/>
<text text-anchor="start" x="36.5" y="-236.8" font-family="Helvetica,sans-Serif" font-size="11.00" fill="#000000">name</text>
<polygon fill="#ffffff" stroke="transparent" points="16.5,-207.7 16.5,-229.7 113.5,-229.7 113.5,-207.7 16.5,-207.7"/>
<polygon fill="none" stroke="#000000" points="16.5,-207.7 16.5,-229.7 113.5,-229.7 113.5,-207.7 16.5,-207.7"/>
<image xlink:href="../../images/foreignKeys.png" width="11px" height="12px" preserveAspectRatio="xMinYMin meet" x="21.5" y="-224.7"/>
<text text-anchor="start" x="36.5" y="-214.8" font-family="Helvetica,sans-Serif" font-size="11.00" fill="#000000">generated</text>
<polygon fill="#ffffff" stroke="transparent" points="16.5,-185.7 16.5,-207.7 113.5,-207.7 113.5,-185.7 16.5,-185.7"/>
<polygon fill="none" stroke="#000000" points="16.5,-185.7 16.5,-207.7 113.5,-207.7 113.5,-185.7 16.5,-185.7"/>
<image xlink:href="../../images/foreignKeys.png" width="11px" height="12px" preserveAspectRatio="xMinYMin meet" x="21.5" y="-202.7"/>
<text text-anchor="start" x="36.5" y="-192.8" font-family="Helvetica,sans-Serif" font-size="11.00" fill="#000000">up</text>
<polygon fill="none" stroke="#000000" points="16.5,-163.7 16.5,-185.7 113.5,-185.7 113.5,-163.7 16.5,-163.7"/>
<image xlink:href="../../images/foreignKeys.png" width="11px" height="12px" preserveAspectRatio="xMinYMin meet" x="21.5" y="-180.7"/>
<text text-anchor="start" x="36.5" y="-170.8" font-family="Helvetica,sans-Serif" font-size="11.00" fill="#000000">up_type</text>
<polygon fill="#ffffff" stroke="transparent" points="16.5,-141.7 16.5,-163.7 113.5,-163.7 113.5,-141.7 16.5,-141.7"/>
<polygon fill="none" stroke="#000000" points="16.5,-141.7 16.5,-163.7 113.5,-163.7 113.5,-141.7 16.5,-141.7"/>
<image xlink:href="../../images/foreignKeys.png" width="11px" height="12px" preserveAspectRatio="xMinYMin meet" x="21.5" y="-158.7"/>
<text text-anchor="start" x="36.5" y="-148.8" font-family="Helvetica,sans-Serif" font-size="11.00" fill="#000000">down</text>
<polygon fill="none" stroke="#000000" points="16.5,-119.7 16.5,-141.7 113.5,-141.7 113.5,-119.7 16.5,-119.7"/>
<image xlink:href="../../images/foreignKeys.png" width="11px" height="12px" preserveAspectRatio="xMinYMin meet" x="21.5" y="-136.7"/>
<text text-anchor="start" x="36.5" y="-126.8" font-family="Helvetica,sans-Serif" font-size="11.00" fill="#000000">down_type</text>
<polygon fill="#ffffff" stroke="transparent" points="16.5,-97.7 16.5,-119.7 113.5,-119.7 113.5,-97.7 16.5,-97.7"/>
<polygon fill="none" stroke="#000000" points="16.5,-97.7 16.5,-119.7 113.5,-119.7 113.5,-97.7 16.5,-97.7"/>
<text text-anchor="start" x="36.5" y="-104.8" font-family="Helvetica,sans-Serif" font-size="11.00" fill="#000000">geom</text>
<polygon fill="#ffffff" stroke="transparent" points="16.5,-75.7 16.5,-97.7 113.5,-97.7 113.5,-75.7 16.5,-75.7"/>
<polygon fill="none" stroke="#000000" points="16.5,-75.7 16.5,-97.7 113.5,-97.7 113.5,-75.7 16.5,-75.7"/>
<text text-anchor="start" x="36.5" y="-82.8" font-family="Helvetica,sans-Serif" font-size="11.00" fill="#000000">validity</text>
<polygon fill="none" stroke="#000000" points="16.5,-56.7 16.5,-75.7 113.5,-75.7 113.5,-56.7 16.5,-56.7"/>
<text text-anchor="start" x="19.5" y="-62.8" font-family="Helvetica,sans-Serif" font-size="11.00" fill="#000000">...</text>
<polygon fill="#ffffff" stroke="transparent" points="16.5,-37.7 16.5,-56.7 42.5,-56.7 42.5,-37.7 16.5,-37.7"/>
<polygon fill="none" stroke="#000000" points="16.5,-37.7 16.5,-56.7 42.5,-56.7 42.5,-37.7 16.5,-37.7"/>
<text text-anchor="start" x="19.5" y="-43.8" font-family="Helvetica,sans-Serif" font-size="11.00" fill="#000000">&lt; 5</text>
<polygon fill="#ffffff" stroke="transparent" points="42.5,-37.7 42.5,-56.7 83.5,-56.7 83.5,-37.7 42.5,-37.7"/>
<polygon fill="none" stroke="#000000" points="42.5,-37.7 42.5,-56.7 83.5,-56.7 83.5,-37.7 42.5,-37.7"/>
<text text-anchor="start" x="48.1105" y="-43.8" font-family="Helvetica,sans-Serif" font-size="11.00" fill="#000000">0 rows</text>
<polygon fill="#ffffff" stroke="transparent" points="83.5,-37.7 83.5,-56.7 113.5,-56.7 113.5,-37.7 83.5,-37.7"/>
<polygon fill="none" stroke="#000000" points="83.5,-37.7 83.5,-56.7 113.5,-56.7 113.5,-37.7 83.5,-37.7"/>
<text text-anchor="start" x="88.7904" y="-43.8" font-family="Helvetica,sans-Serif" font-size="11.00" fill="#000000">60 &gt;</text>
</a>
</g>
</g>
<!-- _reservoir_rsp_hydrology_singularity&#45;&gt;_link -->
<g id="edge1" class="edge">
<title>_reservoir_rsp_hydrology_singularity:w&#45;&gt;_link:e</title>
<path fill="none" stroke="#000000" d="M157.7961,-324.9486C140.5641,-314.3082 140.1875,-284.7 113.5,-284.7"/>
<polygon fill="#000000" stroke="#000000" points="164.2652,-326.6571 171.0807,-332.1807 168.1326,-327.6786 172,-328.7 172,-328.7 172,-328.7 168.1326,-327.6786 172.9193,-325.2193 164.2652,-326.6571 164.2652,-326.6571"/>
<ellipse fill="none" stroke="#000000" cx="161.1713" cy="-325.84" rx="3.2" ry="3.2"/>
</g>
<!-- _reservoir_rsp_hydrology_singularity&#45;&gt;_link -->
<g id="edge2" class="edge">
<title>_reservoir_rsp_hydrology_singularity:w&#45;&gt;_link:e</title>
<path fill="none" stroke="#000000" d="M157.7961,-302.9486C140.5641,-292.3082 140.1875,-262.7 113.5,-262.7"/>
<polygon fill="#000000" stroke="#000000" points="164.2652,-304.6571 171.0807,-310.1807 168.1326,-305.6786 172,-306.7 172,-306.7 172,-306.7 168.1326,-305.6786 172.9193,-303.2193 164.2652,-304.6571 164.2652,-304.6571"/>
<ellipse fill="none" stroke="#000000" cx="161.1713" cy="-303.84" rx="3.2" ry="3.2"/>
</g>
<!-- _reservoir_rsp_hydrology_singularity&#45;&gt;_link -->
<g id="edge4" class="edge">
<title>_reservoir_rsp_hydrology_singularity:w&#45;&gt;_link:e</title>
<path fill="none" stroke="#000000" d="M157.3286,-284.7C142.2231,-284.7 133.8125,-284.7 113.5,-284.7"/>
<polygon fill="#000000" stroke="#000000" points="164,-284.7001 172,-288.3 168,-284.7 172,-284.7 172,-284.7 172,-284.7 168,-284.7 172,-281.1 164,-284.7001 164,-284.7001"/>
<ellipse fill="none" stroke="#000000" cx="160.8" cy="-284.7001" rx="3.2" ry="3.2"/>
</g>
<!-- _reservoir_rsp_hydrology_singularity&#45;&gt;_link -->
<g id="edge5" class="edge">
<title>_reservoir_rsp_hydrology_singularity:w&#45;&gt;_link:e</title>
<path fill="none" stroke="#000000" d="M157.3286,-262.7C142.2231,-262.7 133.8125,-262.7 113.5,-262.7"/>
<polygon fill="#000000" stroke="#000000" points="164,-262.7001 172,-266.3 168,-262.7 172,-262.7 172,-262.7 172,-262.7 168,-262.7 172,-259.1 164,-262.7001 164,-262.7001"/>
<ellipse fill="none" stroke="#000000" cx="160.8" cy="-262.7001" rx="3.2" ry="3.2"/>
</g>
<!-- _singularity -->
<g id="node3" class="node">
<title>_singularity</title>
<g id="a_node3"><a xlink:href="../../tables/_singularity.html" xlink:title="_singularity" target="_top">
<polygon fill="#ffffff" stroke="transparent" points="8,-340.2 8,-533.2 121,-533.2 121,-340.2 8,-340.2"/>
<polygon fill="#f5f5f5" stroke="transparent" points="8.5,-509.7 8.5,-532.7 121.5,-532.7 121.5,-509.7 8.5,-509.7"/>
<polygon fill="none" stroke="#000000" points="8.5,-509.7 8.5,-532.7 121.5,-532.7 121.5,-509.7 8.5,-509.7"/>
<text text-anchor="start" x="13.5" y="-518.3" font-family="Helvetica,sans-Serif" font-weight="bold" font-size="11.00" fill="#000000">_singularity</text>
<text text-anchor="start" x="86.5437" y="-517.8" font-family="Helvetica,sans-Serif" font-size="11.00" fill="#000000">[table]</text>
<polygon fill="none" stroke="#000000" points="8.5,-487.7 8.5,-509.7 121.5,-509.7 121.5,-487.7 8.5,-487.7"/>
<image xlink:href="../../images/primaryKeys.png" width="11px" height="12px" preserveAspectRatio="xMinYMin meet" x="13.5" y="-504.7"/>
<text text-anchor="start" x="28.5" y="-494.8" font-family="Helvetica,sans-Serif" font-size="11.00" fill="#000000">id</text>
<polygon fill="#ffffff" stroke="transparent" points="8.5,-465.7 8.5,-487.7 121.5,-487.7 121.5,-465.7 8.5,-465.7"/>
<polygon fill="none" stroke="#000000" points="8.5,-465.7 8.5,-487.7 121.5,-487.7 121.5,-465.7 8.5,-465.7"/>
<text text-anchor="start" x="28.5" y="-472.8" font-family="Helvetica,sans-Serif" font-size="11.00" fill="#000000">singularity_type</text>
<polygon fill="#ffffff" stroke="transparent" points="8.5,-443.7 8.5,-465.7 121.5,-465.7 121.5,-443.7 8.5,-443.7"/>
<polygon fill="none" stroke="#000000" points="8.5,-443.7 8.5,-465.7 121.5,-465.7 121.5,-443.7 8.5,-443.7"/>
<text text-anchor="start" x="28.5" y="-450.8" font-family="Helvetica,sans-Serif" font-size="11.00" fill="#000000">name</text>
<polygon fill="#ffffff" stroke="transparent" points="8.5,-421.7 8.5,-443.7 121.5,-443.7 121.5,-421.7 8.5,-421.7"/>
<polygon fill="none" stroke="#000000" points="8.5,-421.7 8.5,-443.7 121.5,-443.7 121.5,-421.7 8.5,-421.7"/>
<image xlink:href="../../images/foreignKeys.png" width="11px" height="12px" preserveAspectRatio="xMinYMin meet" x="13.5" y="-438.7"/>
<text text-anchor="start" x="28.5" y="-428.8" font-family="Helvetica,sans-Serif" font-size="11.00" fill="#000000">node</text>
<polygon fill="none" stroke="#000000" points="8.5,-399.7 8.5,-421.7 121.5,-421.7 121.5,-399.7 8.5,-399.7"/>
<image xlink:href="../../images/foreignKeys.png" width="11px" height="12px" preserveAspectRatio="xMinYMin meet" x="13.5" y="-416.7"/>
<text text-anchor="start" x="28.5" y="-406.8" font-family="Helvetica,sans-Serif" font-size="11.00" fill="#000000">node_type</text>
<polygon fill="#ffffff" stroke="transparent" points="8.5,-377.7 8.5,-399.7 121.5,-399.7 121.5,-377.7 8.5,-377.7"/>
<polygon fill="none" stroke="#000000" points="8.5,-377.7 8.5,-399.7 121.5,-399.7 121.5,-377.7 8.5,-377.7"/>
<text text-anchor="start" x="28.5" y="-384.8" font-family="Helvetica,sans-Serif" font-size="11.00" fill="#000000">validity</text>
<polygon fill="none" stroke="#000000" points="8.5,-358.7 8.5,-377.7 121.5,-377.7 121.5,-358.7 8.5,-358.7"/>
<text text-anchor="start" x="11.5" y="-364.8" font-family="Helvetica,sans-Serif" font-size="11.00" fill="#000000">...</text>
<polygon fill="#ffffff" stroke="transparent" points="8.5,-339.7 8.5,-358.7 42.5,-358.7 42.5,-339.7 8.5,-339.7"/>
<polygon fill="none" stroke="#000000" points="8.5,-339.7 8.5,-358.7 42.5,-358.7 42.5,-339.7 8.5,-339.7"/>
<text text-anchor="start" x="11.5" y="-345.8" font-family="Helvetica,sans-Serif" font-size="11.00" fill="#000000">&lt; 2</text>
<polygon fill="#ffffff" stroke="transparent" points="42.5,-339.7 42.5,-358.7 87.5,-358.7 87.5,-339.7 42.5,-339.7"/>
<polygon fill="none" stroke="#000000" points="42.5,-339.7 42.5,-358.7 87.5,-358.7 87.5,-339.7 42.5,-339.7"/>
<text text-anchor="start" x="52.1105" y="-345.8" font-family="Helvetica,sans-Serif" font-size="11.00" fill="#000000">0 rows</text>
<polygon fill="#ffffff" stroke="transparent" points="87.5,-339.7 87.5,-358.7 121.5,-358.7 121.5,-339.7 87.5,-339.7"/>
<polygon fill="none" stroke="#000000" points="87.5,-339.7 87.5,-358.7 121.5,-358.7 121.5,-339.7 87.5,-339.7"/>
<text text-anchor="start" x="96.7904" y="-345.8" font-family="Helvetica,sans-Serif" font-size="11.00" fill="#000000">52 &gt;</text>
</a>
</g>
</g>
<!-- _reservoir_rsp_hydrology_singularity&#45;&gt;_singularity -->
<g id="edge3" class="edge">
<title>_reservoir_rsp_hydrology_singularity:w&#45;&gt;_singularity:e</title>
<path fill="none" stroke="#000000" d="M161.6309,-374.2931C120.4124,-388.8787 177.8241,-498.7 121.5,-498.7"/>
<polygon fill="#000000" stroke="#000000" points="170.6018,-368.8679 171.8167,-376.7751 170.2353,-377.0181 169.0204,-369.1109 170.6018,-368.8679"/>
<polyline fill="none" stroke="#000000" points="172,-372.7 168.0464,-373.3075 "/>
<ellipse fill="none" stroke="#000000" cx="164.8835" cy="-373.7934" rx="3.2" ry="3.2"/>
</g>
<!-- _reservoir_rsp_hydrology_singularity&#45;&gt;_singularity -->
<g id="edge6" class="edge">
<title>_reservoir_rsp_hydrology_singularity:w&#45;&gt;_singularity:e</title>
<path fill="none" stroke="#000000" d="M157.8154,-354.0702C124.1284,-374.1077 175.9387,-476.7 121.5,-476.7"/>
<polygon fill="#000000" stroke="#000000" points="164.2167,-352.5493 172.8322,-354.2025 168.1083,-351.6247 172,-350.7 172,-350.7 172,-350.7 168.1083,-351.6247 171.1678,-347.1975 164.2167,-352.5493 164.2167,-352.5493"/>
<ellipse fill="none" stroke="#000000" cx="161.1033" cy="-353.2891" rx="3.2" ry="3.2"/>
</g>
</g>
</svg>
