<?xml version="1.0" encoding="UTF-8" standalone="no"?>
<!DOCTYPE svg PUBLIC "-//W3C//DTD SVG 1.1//EN"
 "http://www.w3.org/Graphics/SVG/1.1/DTD/svg11.dtd">
<!-- Generated by graphviz version 2.40.1 (20161225.0304)
 -->
<!-- Title: oneDegreeRelationshipsDiagram Pages: 1 -->
<svg width="718pt" height="797pt"
 viewBox="0.00 0.00 718.00 796.70" xmlns="http://www.w3.org/2000/svg" xmlns:xlink="http://www.w3.org/1999/xlink">
<g id="graph0" class="graph" transform="scale(1 1) rotate(0) translate(4 792.7)">
<title>oneDegreeRelationshipsDiagram</title>
<polygon fill="#ffffff" stroke="transparent" points="-4,4 -4,-792.7 714,-792.7 714,4 -4,4"/>
<text text-anchor="middle" x="72.4936" y="-7.3" font-family="Helvetica,sans-Serif" font-size="11.00" fill="#000000">Generated by SchemaSpy</text>
<!-- _river_cross_section_profile -->
<g id="node1" class="node">
<title>_river_cross_section_profile</title>
<g id="a_node1"><a xlink:href="../../tables/_river_cross_section_profile.html" xlink:title="_river_cross_section_profile" target="_top">
<polygon fill="#ffffff" stroke="transparent" points="310,-56.7 310,-784.7 702,-784.7 702,-56.7 310,-56.7"/>
<polygon fill="#f5f5f5" stroke="transparent" points="312,-759.7 312,-782.7 700,-782.7 700,-759.7 312,-759.7"/>
<polygon fill="none" stroke="#000000" points="312,-759.7 312,-782.7 700,-782.7 700,-759.7 312,-759.7"/>
<text text-anchor="start" x="317" y="-768.3" font-family="Helvetica,sans-Serif" font-weight="bold" font-size="11.00" fill="#000000">_river_cross_section_profile</text>
<text text-anchor="start" x="665.0437" y="-767.8" font-family="Helvetica,sans-Serif" font-size="11.00" fill="#000000">[table]</text>
<polygon fill="#ffffff" stroke="transparent" points="312,-737.7 312,-759.7 499,-759.7 499,-737.7 312,-737.7"/>
<polygon fill="none" stroke="#000000" points="312,-737.7 312,-759.7 499,-759.7 499,-737.7 312,-737.7"/>
<image xlink:href="../../images/foreignKeys.png" width="11px" height="12px" preserveAspectRatio="xMinYMin meet" x="317" y="-754.7"/>
<text text-anchor="start" x="332" y="-744.8" font-family="Helvetica,sans-Serif" font-size="11.00" fill="#000000">id</text>
<polygon fill="none" stroke="#000000" points="499,-737.7 499,-759.7 700,-759.7 700,-737.7 499,-737.7"/>
<text text-anchor="start" x="502" y="-745.4" font-family="Helvetica,sans-Serif" font-size="11.00" fill="#000000">int4[10]</text>
<polygon fill="#ffffff" stroke="transparent" points="312,-715.7 312,-737.7 499,-737.7 499,-715.7 312,-715.7"/>
<polygon fill="none" stroke="#000000" points="312,-715.7 312,-737.7 499,-737.7 499,-715.7 312,-715.7"/>
<text text-anchor="start" x="332" y="-722.8" font-family="Helvetica,sans-Serif" font-size="11.00" fill="#000000">name</text>
<polygon fill="none" stroke="#000000" points="499,-715.7 499,-737.7 700,-737.7 700,-715.7 499,-715.7"/>
<text text-anchor="start" x="502" y="-723.4" font-family="Helvetica,sans-Serif" font-size="11.00" fill="#000000">varchar[24]</text>
<polygon fill="none" stroke="#000000" points="312,-693.7 312,-715.7 499,-715.7 499,-693.7 312,-693.7"/>
<text text-anchor="start" x="332" y="-700.8" font-family="Helvetica,sans-Serif" font-size="11.00" fill="#000000">z_invert_up</text>
<polygon fill="none" stroke="#000000" points="499,-693.7 499,-715.7 700,-715.7 700,-693.7 499,-693.7"/>
<text text-anchor="start" x="502" y="-701.4" font-family="Helvetica,sans-Serif" font-size="11.00" fill="#000000">float4[8,8]</text>
<polygon fill="none" stroke="#000000" points="312,-671.7 312,-693.7 499,-693.7 499,-671.7 312,-671.7"/>
<text text-anchor="start" x="332" y="-678.8" font-family="Helvetica,sans-Serif" font-size="11.00" fill="#000000">z_invert_down</text>
<polygon fill="none" stroke="#000000" points="499,-671.7 499,-693.7 700,-693.7 700,-671.7 499,-671.7"/>
<text text-anchor="start" x="502" y="-679.4" font-family="Helvetica,sans-Serif" font-size="11.00" fill="#000000">float4[8,8]</text>
<polygon fill="none" stroke="#000000" points="312,-649.7 312,-671.7 499,-671.7 499,-649.7 312,-649.7"/>
<text text-anchor="start" x="332" y="-656.8" font-family="Helvetica,sans-Serif" font-size="11.00" fill="#000000">type_cross_section_up</text>
<polygon fill="none" stroke="#000000" points="499,-649.7 499,-671.7 700,-671.7 700,-649.7 499,-649.7"/>
<text text-anchor="start" x="501.99" y="-657.4" font-family="Helvetica,sans-Serif" font-size="11.00" fill="#000000">hydra_cross_section_type[2147483647]</text>
<polygon fill="none" stroke="#000000" points="312,-627.7 312,-649.7 499,-649.7 499,-627.7 312,-627.7"/>
<text text-anchor="start" x="332" y="-634.8" font-family="Helvetica,sans-Serif" font-size="11.00" fill="#000000">type_cross_section_down</text>
<polygon fill="none" stroke="#000000" points="499,-627.7 499,-649.7 700,-649.7 700,-627.7 499,-627.7"/>
<text text-anchor="start" x="501.99" y="-635.4" font-family="Helvetica,sans-Serif" font-size="11.00" fill="#000000">hydra_cross_section_type[2147483647]</text>
<polygon fill="none" stroke="#000000" points="312,-605.7 312,-627.7 499,-627.7 499,-605.7 312,-605.7"/>
<text text-anchor="start" x="332" y="-612.8" font-family="Helvetica,sans-Serif" font-size="11.00" fill="#000000">up_rk</text>
<polygon fill="none" stroke="#000000" points="499,-605.7 499,-627.7 700,-627.7 700,-605.7 499,-605.7"/>
<text text-anchor="start" x="502" y="-613.4" font-family="Helvetica,sans-Serif" font-size="11.00" fill="#000000">float4[8,8]</text>
<polygon fill="none" stroke="#000000" points="312,-583.7 312,-605.7 499,-605.7 499,-583.7 312,-583.7"/>
<text text-anchor="start" x="332" y="-590.8" font-family="Helvetica,sans-Serif" font-size="11.00" fill="#000000">up_rk_maj</text>
<polygon fill="none" stroke="#000000" points="499,-583.7 499,-605.7 700,-605.7 700,-583.7 499,-583.7"/>
<text text-anchor="start" x="502" y="-591.4" font-family="Helvetica,sans-Serif" font-size="11.00" fill="#000000">float4[8,8]</text>
<polygon fill="none" stroke="#000000" points="312,-561.7 312,-583.7 499,-583.7 499,-561.7 312,-561.7"/>
<text text-anchor="start" x="332" y="-568.8" font-family="Helvetica,sans-Serif" font-size="11.00" fill="#000000">up_sinuosity</text>
<polygon fill="none" stroke="#000000" points="499,-561.7 499,-583.7 700,-583.7 700,-561.7 499,-561.7"/>
<text text-anchor="start" x="502" y="-569.4" font-family="Helvetica,sans-Serif" font-size="11.00" fill="#000000">float4[8,8]</text>
<polygon fill="none" stroke="#000000" points="312,-539.7 312,-561.7 499,-561.7 499,-539.7 312,-539.7"/>
<text text-anchor="start" x="332" y="-546.8" font-family="Helvetica,sans-Serif" font-size="11.00" fill="#000000">up_circular_diameter</text>
<polygon fill="none" stroke="#000000" points="499,-539.7 499,-561.7 700,-561.7 700,-539.7 499,-539.7"/>
<text text-anchor="start" x="502" y="-547.4" font-family="Helvetica,sans-Serif" font-size="11.00" fill="#000000">float4[8,8]</text>
<polygon fill="none" stroke="#000000" points="312,-517.7 312,-539.7 499,-539.7 499,-517.7 312,-517.7"/>
<text text-anchor="start" x="332" y="-524.8" font-family="Helvetica,sans-Serif" font-size="11.00" fill="#000000">up_ovoid_height</text>
<polygon fill="none" stroke="#000000" points="499,-517.7 499,-539.7 700,-539.7 700,-517.7 499,-517.7"/>
<text text-anchor="start" x="502" y="-525.4" font-family="Helvetica,sans-Serif" font-size="11.00" fill="#000000">float4[8,8]</text>
<polygon fill="none" stroke="#000000" points="312,-495.7 312,-517.7 499,-517.7 499,-495.7 312,-495.7"/>
<text text-anchor="start" x="332" y="-502.8" font-family="Helvetica,sans-Serif" font-size="11.00" fill="#000000">up_ovoid_top_diameter</text>
<polygon fill="none" stroke="#000000" points="499,-495.7 499,-517.7 700,-517.7 700,-495.7 499,-495.7"/>
<text text-anchor="start" x="502" y="-503.4" font-family="Helvetica,sans-Serif" font-size="11.00" fill="#000000">float4[8,8]</text>
<polygon fill="none" stroke="#000000" points="312,-473.7 312,-495.7 499,-495.7 499,-473.7 312,-473.7"/>
<text text-anchor="start" x="332" y="-480.8" font-family="Helvetica,sans-Serif" font-size="11.00" fill="#000000">up_ovoid_invert_diameter</text>
<polygon fill="none" stroke="#000000" points="499,-473.7 499,-495.7 700,-495.7 700,-473.7 499,-473.7"/>
<text text-anchor="start" x="502" y="-481.4" font-family="Helvetica,sans-Serif" font-size="11.00" fill="#000000">float4[8,8]</text>
<polygon fill="none" stroke="#000000" points="312,-451.7 312,-473.7 499,-473.7 499,-451.7 312,-451.7"/>
<image xlink:href="../../images/foreignKeys.png" width="11px" height="12px" preserveAspectRatio="xMinYMin meet" x="317" y="-468.7"/>
<text text-anchor="start" x="332" y="-458.8" font-family="Helvetica,sans-Serif" font-size="11.00" fill="#000000">up_cp_geom</text>
<polygon fill="none" stroke="#000000" points="499,-451.7 499,-473.7 700,-473.7 700,-451.7 499,-451.7"/>
<text text-anchor="start" x="502" y="-459.4" font-family="Helvetica,sans-Serif" font-size="11.00" fill="#000000">int4[10]</text>
<polygon fill="none" stroke="#000000" points="312,-429.7 312,-451.7 499,-451.7 499,-429.7 312,-429.7"/>
<image xlink:href="../../images/foreignKeys.png" width="11px" height="12px" preserveAspectRatio="xMinYMin meet" x="317" y="-446.7"/>
<text text-anchor="start" x="332" y="-436.8" font-family="Helvetica,sans-Serif" font-size="11.00" fill="#000000">up_op_geom</text>
<polygon fill="none" stroke="#000000" points="499,-429.7 499,-451.7 700,-451.7 700,-429.7 499,-429.7"/>
<text text-anchor="start" x="502" y="-437.4" font-family="Helvetica,sans-Serif" font-size="11.00" fill="#000000">int4[10]</text>
<polygon fill="none" stroke="#000000" points="312,-407.7 312,-429.7 499,-429.7 499,-407.7 312,-407.7"/>
<image xlink:href="../../images/foreignKeys.png" width="11px" height="12px" preserveAspectRatio="xMinYMin meet" x="317" y="-424.7"/>
<text text-anchor="start" x="332" y="-414.8" font-family="Helvetica,sans-Serif" font-size="11.00" fill="#000000">up_vcs_geom</text>
<polygon fill="none" stroke="#000000" points="499,-407.7 499,-429.7 700,-429.7 700,-407.7 499,-407.7"/>
<text text-anchor="start" x="502" y="-415.4" font-family="Helvetica,sans-Serif" font-size="11.00" fill="#000000">int4[10]</text>
<polygon fill="none" stroke="#000000" points="312,-385.7 312,-407.7 499,-407.7 499,-385.7 312,-385.7"/>
<image xlink:href="../../images/foreignKeys.png" width="11px" height="12px" preserveAspectRatio="xMinYMin meet" x="317" y="-402.7"/>
<text text-anchor="start" x="332" y="-392.8" font-family="Helvetica,sans-Serif" font-size="11.00" fill="#000000">up_vcs_topo_geom</text>
<polygon fill="none" stroke="#000000" points="499,-385.7 499,-407.7 700,-407.7 700,-385.7 499,-385.7"/>
<text text-anchor="start" x="502" y="-393.4" font-family="Helvetica,sans-Serif" font-size="11.00" fill="#000000">int4[10]</text>
<polygon fill="none" stroke="#000000" points="312,-363.7 312,-385.7 499,-385.7 499,-363.7 312,-363.7"/>
<text text-anchor="start" x="332" y="-370.8" font-family="Helvetica,sans-Serif" font-size="11.00" fill="#000000">down_rk</text>
<polygon fill="none" stroke="#000000" points="499,-363.7 499,-385.7 700,-385.7 700,-363.7 499,-363.7"/>
<text text-anchor="start" x="502" y="-371.4" font-family="Helvetica,sans-Serif" font-size="11.00" fill="#000000">float4[8,8]</text>
<polygon fill="none" stroke="#000000" points="312,-341.7 312,-363.7 499,-363.7 499,-341.7 312,-341.7"/>
<text text-anchor="start" x="332" y="-348.8" font-family="Helvetica,sans-Serif" font-size="11.00" fill="#000000">down_rk_maj</text>
<polygon fill="none" stroke="#000000" points="499,-341.7 499,-363.7 700,-363.7 700,-341.7 499,-341.7"/>
<text text-anchor="start" x="502" y="-349.4" font-family="Helvetica,sans-Serif" font-size="11.00" fill="#000000">float4[8,8]</text>
<polygon fill="none" stroke="#000000" points="312,-319.7 312,-341.7 499,-341.7 499,-319.7 312,-319.7"/>
<text text-anchor="start" x="332" y="-326.8" font-family="Helvetica,sans-Serif" font-size="11.00" fill="#000000">down_sinuosity</text>
<polygon fill="none" stroke="#000000" points="499,-319.7 499,-341.7 700,-341.7 700,-319.7 499,-319.7"/>
<text text-anchor="start" x="502" y="-327.4" font-family="Helvetica,sans-Serif" font-size="11.00" fill="#000000">float4[8,8]</text>
<polygon fill="none" stroke="#000000" points="312,-297.7 312,-319.7 499,-319.7 499,-297.7 312,-297.7"/>
<text text-anchor="start" x="332" y="-304.8" font-family="Helvetica,sans-Serif" font-size="11.00" fill="#000000">down_circular_diameter</text>
<polygon fill="none" stroke="#000000" points="499,-297.7 499,-319.7 700,-319.7 700,-297.7 499,-297.7"/>
<text text-anchor="start" x="502" y="-305.4" font-family="Helvetica,sans-Serif" font-size="11.00" fill="#000000">float4[8,8]</text>
<polygon fill="none" stroke="#000000" points="312,-275.7 312,-297.7 499,-297.7 499,-275.7 312,-275.7"/>
<text text-anchor="start" x="332" y="-282.8" font-family="Helvetica,sans-Serif" font-size="11.00" fill="#000000">down_ovoid_height</text>
<polygon fill="none" stroke="#000000" points="499,-275.7 499,-297.7 700,-297.7 700,-275.7 499,-275.7"/>
<text text-anchor="start" x="502" y="-283.4" font-family="Helvetica,sans-Serif" font-size="11.00" fill="#000000">float4[8,8]</text>
<polygon fill="none" stroke="#000000" points="312,-253.7 312,-275.7 499,-275.7 499,-253.7 312,-253.7"/>
<text text-anchor="start" x="332" y="-260.8" font-family="Helvetica,sans-Serif" font-size="11.00" fill="#000000">down_ovoid_top_diameter</text>
<polygon fill="none" stroke="#000000" points="499,-253.7 499,-275.7 700,-275.7 700,-253.7 499,-253.7"/>
<text text-anchor="start" x="502" y="-261.4" font-family="Helvetica,sans-Serif" font-size="11.00" fill="#000000">float4[8,8]</text>
<polygon fill="none" stroke="#000000" points="312,-231.7 312,-253.7 499,-253.7 499,-231.7 312,-231.7"/>
<text text-anchor="start" x="332" y="-238.8" font-family="Helvetica,sans-Serif" font-size="11.00" fill="#000000">down_ovoid_invert_diameter</text>
<polygon fill="none" stroke="#000000" points="499,-231.7 499,-253.7 700,-253.7 700,-231.7 499,-231.7"/>
<text text-anchor="start" x="502" y="-239.4" font-family="Helvetica,sans-Serif" font-size="11.00" fill="#000000">float4[8,8]</text>
<polygon fill="none" stroke="#000000" points="312,-209.7 312,-231.7 499,-231.7 499,-209.7 312,-209.7"/>
<image xlink:href="../../images/foreignKeys.png" width="11px" height="12px" preserveAspectRatio="xMinYMin meet" x="317" y="-226.7"/>
<text text-anchor="start" x="332" y="-216.8" font-family="Helvetica,sans-Serif" font-size="11.00" fill="#000000">down_cp_geom</text>
<polygon fill="none" stroke="#000000" points="499,-209.7 499,-231.7 700,-231.7 700,-209.7 499,-209.7"/>
<text text-anchor="start" x="502" y="-217.4" font-family="Helvetica,sans-Serif" font-size="11.00" fill="#000000">int4[10]</text>
<polygon fill="none" stroke="#000000" points="312,-187.7 312,-209.7 499,-209.7 499,-187.7 312,-187.7"/>
<image xlink:href="../../images/foreignKeys.png" width="11px" height="12px" preserveAspectRatio="xMinYMin meet" x="317" y="-204.7"/>
<text text-anchor="start" x="332" y="-194.8" font-family="Helvetica,sans-Serif" font-size="11.00" fill="#000000">down_op_geom</text>
<polygon fill="none" stroke="#000000" points="499,-187.7 499,-209.7 700,-209.7 700,-187.7 499,-187.7"/>
<text text-anchor="start" x="502" y="-195.4" font-family="Helvetica,sans-Serif" font-size="11.00" fill="#000000">int4[10]</text>
<polygon fill="none" stroke="#000000" points="312,-165.7 312,-187.7 499,-187.7 499,-165.7 312,-165.7"/>
<image xlink:href="../../images/foreignKeys.png" width="11px" height="12px" preserveAspectRatio="xMinYMin meet" x="317" y="-182.7"/>
<text text-anchor="start" x="332" y="-172.8" font-family="Helvetica,sans-Serif" font-size="11.00" fill="#000000">down_vcs_geom</text>
<polygon fill="none" stroke="#000000" points="499,-165.7 499,-187.7 700,-187.7 700,-165.7 499,-165.7"/>
<text text-anchor="start" x="502" y="-173.4" font-family="Helvetica,sans-Serif" font-size="11.00" fill="#000000">int4[10]</text>
<polygon fill="none" stroke="#000000" points="312,-143.7 312,-165.7 499,-165.7 499,-143.7 312,-143.7"/>
<image xlink:href="../../images/foreignKeys.png" width="11px" height="12px" preserveAspectRatio="xMinYMin meet" x="317" y="-160.7"/>
<text text-anchor="start" x="332" y="-150.8" font-family="Helvetica,sans-Serif" font-size="11.00" fill="#000000">down_vcs_topo_geom</text>
<polygon fill="none" stroke="#000000" points="499,-143.7 499,-165.7 700,-165.7 700,-143.7 499,-143.7"/>
<text text-anchor="start" x="502" y="-151.4" font-family="Helvetica,sans-Serif" font-size="11.00" fill="#000000">int4[10]</text>
<polygon fill="none" stroke="#000000" points="312,-121.7 312,-143.7 499,-143.7 499,-121.7 312,-121.7"/>
<text text-anchor="start" x="332" y="-128.8" font-family="Helvetica,sans-Serif" font-size="11.00" fill="#000000">configuration</text>
<polygon fill="none" stroke="#000000" points="499,-121.7 499,-143.7 700,-143.7 700,-121.7 499,-121.7"/>
<text text-anchor="start" x="502" y="-129.4" font-family="Helvetica,sans-Serif" font-size="11.00" fill="#000000">json[2147483647]</text>
<polygon fill="none" stroke="#000000" points="312,-99.7 312,-121.7 499,-121.7 499,-99.7 312,-99.7"/>
<text text-anchor="start" x="332" y="-106.8" font-family="Helvetica,sans-Serif" font-size="11.00" fill="#000000">validity</text>
<polygon fill="none" stroke="#000000" points="499,-99.7 499,-121.7 700,-121.7 700,-99.7 499,-99.7"/>
<text text-anchor="start" x="502" y="-107.4" font-family="Helvetica,sans-Serif" font-size="11.00" fill="#000000">bool[1]</text>
<polygon fill="none" stroke="#000000" points="312,-77.7 312,-99.7 499,-99.7 499,-77.7 312,-77.7"/>
<text text-anchor="start" x="332" y="-84.8" font-family="Helvetica,sans-Serif" font-size="11.00" fill="#000000">comment</text>
<polygon fill="none" stroke="#000000" points="499,-77.7 499,-99.7 700,-99.7 700,-77.7 499,-77.7"/>
<text text-anchor="start" x="502" y="-85.4" font-family="Helvetica,sans-Serif" font-size="11.00" fill="#000000">varchar[2147483647]</text>
<polygon fill="#ffffff" stroke="transparent" points="312,-58.7 312,-77.7 397,-77.7 397,-58.7 312,-58.7"/>
<polygon fill="none" stroke="#000000" points="312,-58.7 312,-77.7 397,-77.7 397,-58.7 312,-58.7"/>
<text text-anchor="start" x="315" y="-64.8" font-family="Helvetica,sans-Serif" font-size="11.00" fill="#000000">&lt; 9</text>
<polygon fill="#ffffff" stroke="transparent" points="397,-58.7 397,-77.7 499,-77.7 499,-58.7 397,-58.7"/>
<polygon fill="none" stroke="#000000" points="397,-58.7 397,-77.7 499,-77.7 499,-58.7 397,-58.7"/>
<text text-anchor="start" x="463.6105" y="-64.8" font-family="Helvetica,sans-Serif" font-size="11.00" fill="#000000">0 rows</text>
<polygon fill="#ffffff" stroke="transparent" points="499,-58.7 499,-77.7 700,-77.7 700,-58.7 499,-58.7"/>
<polygon fill="none" stroke="#000000" points="499,-58.7 499,-77.7 700,-77.7 700,-58.7 499,-58.7"/>
<text text-anchor="start" x="681.4053" y="-64.8" font-family="Helvetica,sans-Serif" font-size="11.00" fill="#000000">0 &gt;</text>
<polygon fill="none" stroke="#000000" stroke-width="2" points="311,-57.7 311,-783.7 701,-783.7 701,-57.7 311,-57.7"/>
</a>
</g>
</g>
<!-- closed_parametric_geometry -->
<g id="node2" class="node">
<title>closed_parametric_geometry</title>
<g id="a_node2"><a xlink:href="../../tables/closed_parametric_geometry.html" xlink:title="closed_parametric_geometry" target="_top">
<polygon fill="#ffffff" stroke="transparent" points="32,-438.2 32,-543.2 237,-543.2 237,-438.2 32,-438.2"/>
<polygon fill="#f5f5f5" stroke="transparent" points="32.5,-519.7 32.5,-542.7 237.5,-542.7 237.5,-519.7 32.5,-519.7"/>
<polygon fill="none" stroke="#000000" points="32.5,-519.7 32.5,-542.7 237.5,-542.7 237.5,-519.7 32.5,-519.7"/>
<text text-anchor="start" x="37.5" y="-528.3" font-family="Helvetica,sans-Serif" font-weight="bold" font-size="11.00" fill="#000000">closed_parametric_geometry</text>
<text text-anchor="start" x="203.0219" y="-527.8" font-family="Helvetica,sans-Serif" font-size="11.00" fill="#000000">[table]</text>
<polygon fill="none" stroke="#000000" points="32.5,-497.7 32.5,-519.7 237.5,-519.7 237.5,-497.7 32.5,-497.7"/>
<image xlink:href="../../images/primaryKeys.png" width="11px" height="12px" preserveAspectRatio="xMinYMin meet" x="37.5" y="-514.7"/>
<text text-anchor="start" x="61.5" y="-504.8" font-family="Helvetica,sans-Serif" font-size="11.00" fill="#000000">id</text>
<polygon fill="#ffffff" stroke="transparent" points="32.5,-475.7 32.5,-497.7 237.5,-497.7 237.5,-475.7 32.5,-475.7"/>
<polygon fill="none" stroke="#000000" points="32.5,-475.7 32.5,-497.7 237.5,-497.7 237.5,-475.7 32.5,-475.7"/>
<text text-anchor="start" x="61.5" y="-482.8" font-family="Helvetica,sans-Serif" font-size="11.00" fill="#000000">name</text>
<polygon fill="none" stroke="#000000" points="32.5,-456.7 32.5,-475.7 237.5,-475.7 237.5,-456.7 32.5,-456.7"/>
<text text-anchor="start" x="35.5" y="-462.8" font-family="Helvetica,sans-Serif" font-size="11.00" fill="#000000">...</text>
<polygon fill="#ffffff" stroke="transparent" points="32.5,-437.7 32.5,-456.7 111.5,-456.7 111.5,-437.7 32.5,-437.7"/>
<polygon fill="none" stroke="#000000" points="32.5,-437.7 32.5,-456.7 111.5,-456.7 111.5,-437.7 32.5,-437.7"/>
<text text-anchor="start" x="35.5" y="-443.8" font-family="Helvetica,sans-Serif" font-size="11.00" fill="#000000"> &#160;</text>
<polygon fill="#ffffff" stroke="transparent" points="111.5,-437.7 111.5,-456.7 182.5,-456.7 182.5,-437.7 111.5,-437.7"/>
<polygon fill="none" stroke="#000000" points="111.5,-437.7 111.5,-456.7 182.5,-456.7 182.5,-437.7 111.5,-437.7"/>
<text text-anchor="start" x="147.1105" y="-443.8" font-family="Helvetica,sans-Serif" font-size="11.00" fill="#000000">0 rows</text>
<polygon fill="#ffffff" stroke="transparent" points="182.5,-437.7 182.5,-456.7 237.5,-456.7 237.5,-437.7 182.5,-437.7"/>
<polygon fill="none" stroke="#000000" points="182.5,-437.7 182.5,-456.7 237.5,-456.7 237.5,-437.7 182.5,-437.7"/>
<text text-anchor="start" x="218.9053" y="-443.8" font-family="Helvetica,sans-Serif" font-size="11.00" fill="#000000">3 &gt;</text>
</a>
</g>
</g>
<!-- _river_cross_section_profile&#45;&gt;closed_parametric_geometry -->
<g id="edge1" class="edge">
<title>_river_cross_section_profile:w&#45;&gt;closed_parametric_geometry:e</title>
<path fill="none" stroke="#000000" d="M298.3737,-225.9446C254.3425,-264.9782 298.3129,-508.7 237.5,-508.7"/>
<polygon fill="#000000" stroke="#000000" points="304.5339,-223.5737 313.2931,-224.0597 308.267,-222.1368 312,-220.7 312,-220.7 312,-220.7 308.267,-222.1368 310.7069,-217.3403 304.5339,-223.5737 304.5339,-223.5737"/>
<ellipse fill="none" stroke="#000000" cx="301.5475" cy="-224.7231" rx="3.2" ry="3.2"/>
</g>
<!-- _river_cross_section_profile&#45;&gt;closed_parametric_geometry -->
<g id="edge6" class="edge">
<title>_river_cross_section_profile:w&#45;&gt;closed_parametric_geometry:e</title>
<path fill="none" stroke="#000000" d="M297.5192,-465.305C273.1655,-475.036 270.7899,-508.7 237.5,-508.7"/>
<polygon fill="#000000" stroke="#000000" points="304.1264,-464.1164 312.6374,-466.2431 308.0632,-463.4082 312,-462.7 312,-462.7 312,-462.7 308.0632,-463.4082 311.3626,-459.1569 304.1264,-464.1164 304.1264,-464.1164"/>
<ellipse fill="none" stroke="#000000" cx="300.9769" cy="-464.683" rx="3.2" ry="3.2"/>
</g>
<!-- open_parametric_geometry -->
<g id="node3" class="node">
<title>open_parametric_geometry</title>
<g id="a_node3"><a xlink:href="../../tables/open_parametric_geometry.html" xlink:title="open_parametric_geometry" target="_top">
<polygon fill="#ffffff" stroke="transparent" points="36.5,-312.2 36.5,-417.2 232.5,-417.2 232.5,-312.2 36.5,-312.2"/>
<polygon fill="#f5f5f5" stroke="transparent" points="36.5,-393.7 36.5,-416.7 232.5,-416.7 232.5,-393.7 36.5,-393.7"/>
<polygon fill="none" stroke="#000000" points="36.5,-393.7 36.5,-416.7 232.5,-416.7 232.5,-393.7 36.5,-393.7"/>
<text text-anchor="start" x="41.5" y="-402.3" font-family="Helvetica,sans-Serif" font-weight="bold" font-size="11.00" fill="#000000">open_parametric_geometry</text>
<text text-anchor="start" x="198.0219" y="-401.8" font-family="Helvetica,sans-Serif" font-size="11.00" fill="#000000">[table]</text>
<polygon fill="none" stroke="#000000" points="36.5,-371.7 36.5,-393.7 232.5,-393.7 232.5,-371.7 36.5,-371.7"/>
<image xlink:href="../../images/primaryKeys.png" width="11px" height="12px" preserveAspectRatio="xMinYMin meet" x="41.5" y="-388.7"/>
<text text-anchor="start" x="65.5" y="-378.8" font-family="Helvetica,sans-Serif" font-size="11.00" fill="#000000">id</text>
<polygon fill="#ffffff" stroke="transparent" points="36.5,-349.7 36.5,-371.7 232.5,-371.7 232.5,-349.7 36.5,-349.7"/>
<polygon fill="none" stroke="#000000" points="36.5,-349.7 36.5,-371.7 232.5,-371.7 232.5,-349.7 36.5,-349.7"/>
<text text-anchor="start" x="65.5" y="-356.8" font-family="Helvetica,sans-Serif" font-size="11.00" fill="#000000">name</text>
<polygon fill="none" stroke="#000000" points="36.5,-330.7 36.5,-349.7 232.5,-349.7 232.5,-330.7 36.5,-330.7"/>
<text text-anchor="start" x="39.5" y="-336.8" font-family="Helvetica,sans-Serif" font-size="11.00" fill="#000000">...</text>
<polygon fill="#ffffff" stroke="transparent" points="36.5,-311.7 36.5,-330.7 110.5,-330.7 110.5,-311.7 36.5,-311.7"/>
<polygon fill="none" stroke="#000000" points="36.5,-311.7 36.5,-330.7 110.5,-330.7 110.5,-311.7 36.5,-311.7"/>
<text text-anchor="start" x="39.5" y="-317.8" font-family="Helvetica,sans-Serif" font-size="11.00" fill="#000000"> &#160;</text>
<polygon fill="#ffffff" stroke="transparent" points="110.5,-311.7 110.5,-330.7 179.5,-330.7 179.5,-311.7 110.5,-311.7"/>
<polygon fill="none" stroke="#000000" points="110.5,-311.7 110.5,-330.7 179.5,-330.7 179.5,-311.7 110.5,-311.7"/>
<text text-anchor="start" x="144.1105" y="-317.8" font-family="Helvetica,sans-Serif" font-size="11.00" fill="#000000">0 rows</text>
<polygon fill="#ffffff" stroke="transparent" points="179.5,-311.7 179.5,-330.7 232.5,-330.7 232.5,-311.7 179.5,-311.7"/>
<polygon fill="none" stroke="#000000" points="179.5,-311.7 179.5,-330.7 232.5,-330.7 232.5,-311.7 179.5,-311.7"/>
<text text-anchor="start" x="213.9053" y="-317.8" font-family="Helvetica,sans-Serif" font-size="11.00" fill="#000000">3 &gt;</text>
</a>
</g>
</g>
<!-- _river_cross_section_profile&#45;&gt;open_parametric_geometry -->
<g id="edge2" class="edge">
<title>_river_cross_section_profile:w&#45;&gt;open_parametric_geometry:e</title>
<path fill="none" stroke="#000000" d="M297.4052,-200.7664C234.5157,-220.9813 316.0167,-382.7 232.5,-382.7"/>
<polygon fill="#000000" stroke="#000000" points="304.079,-199.8215 312.5047,-202.2645 308.0395,-199.2608 312,-198.7 312,-198.7 312,-198.7 308.0395,-199.2608 311.4953,-195.1355 304.079,-199.8215 304.079,-199.8215"/>
<ellipse fill="none" stroke="#000000" cx="300.9106" cy="-200.2702" rx="3.2" ry="3.2"/>
</g>
<!-- _river_cross_section_profile&#45;&gt;open_parametric_geometry -->
<g id="edge7" class="edge">
<title>_river_cross_section_profile:w&#45;&gt;open_parametric_geometry:e</title>
<path fill="none" stroke="#000000" d="M297.4423,-438.0571C269.4594,-426.7107 270.5992,-382.7 232.5,-382.7"/>
<polygon fill="#000000" stroke="#000000" points="304.1287,-439.271 311.3569,-444.2421 308.0643,-439.9855 312,-440.7 312,-440.7 312,-440.7 308.0643,-439.9855 312.6431,-437.1579 304.1287,-439.271 304.1287,-439.271"/>
<ellipse fill="none" stroke="#000000" cx="300.9801" cy="-438.6993" rx="3.2" ry="3.2"/>
</g>
<!-- valley_cross_section_geometry -->
<g id="node4" class="node">
<title>valley_cross_section_geometry</title>
<g id="a_node4"><a xlink:href="../../tables/valley_cross_section_geometry.html" xlink:title="valley_cross_section_geometry" target="_top">
<polygon fill="#ffffff" stroke="transparent" points="24.5,-164.2 24.5,-291.2 244.5,-291.2 244.5,-164.2 24.5,-164.2"/>
<polygon fill="#f5f5f5" stroke="transparent" points="24.5,-267.7 24.5,-290.7 244.5,-290.7 244.5,-267.7 24.5,-267.7"/>
<polygon fill="none" stroke="#000000" points="24.5,-267.7 24.5,-290.7 244.5,-290.7 244.5,-267.7 24.5,-267.7"/>
<text text-anchor="start" x="29.5" y="-276.3" font-family="Helvetica,sans-Serif" font-weight="bold" font-size="11.00" fill="#000000">valley_cross_section_geometry</text>
<text text-anchor="start" x="210.0219" y="-275.8" font-family="Helvetica,sans-Serif" font-size="11.00" fill="#000000">[table]</text>
<polygon fill="none" stroke="#000000" points="24.5,-245.7 24.5,-267.7 244.5,-267.7 244.5,-245.7 24.5,-245.7"/>
<image xlink:href="../../images/primaryKeys.png" width="11px" height="12px" preserveAspectRatio="xMinYMin meet" x="29.5" y="-262.7"/>
<text text-anchor="start" x="53.5" y="-252.8" font-family="Helvetica,sans-Serif" font-size="11.00" fill="#000000">id</text>
<polygon fill="#ffffff" stroke="transparent" points="24.5,-223.7 24.5,-245.7 244.5,-245.7 244.5,-223.7 24.5,-223.7"/>
<polygon fill="none" stroke="#000000" points="24.5,-223.7 24.5,-245.7 244.5,-245.7 244.5,-223.7 24.5,-223.7"/>
<text text-anchor="start" x="53.5" y="-230.8" font-family="Helvetica,sans-Serif" font-size="11.00" fill="#000000">name</text>
<polygon fill="none" stroke="#000000" points="24.5,-201.7 24.5,-223.7 244.5,-223.7 244.5,-201.7 24.5,-201.7"/>
<image xlink:href="../../images/foreignKeys.png" width="11px" height="12px" preserveAspectRatio="xMinYMin meet" x="29.5" y="-218.7"/>
<text text-anchor="start" x="53.5" y="-208.8" font-family="Helvetica,sans-Serif" font-size="11.00" fill="#000000">transect</text>
<polygon fill="none" stroke="#000000" points="24.5,-182.7 24.5,-201.7 244.5,-201.7 244.5,-182.7 24.5,-182.7"/>
<text text-anchor="start" x="27.5" y="-188.8" font-family="Helvetica,sans-Serif" font-size="11.00" fill="#000000">...</text>
<polygon fill="#ffffff" stroke="transparent" points="24.5,-163.7 24.5,-182.7 115.5,-182.7 115.5,-163.7 24.5,-163.7"/>
<polygon fill="none" stroke="#000000" points="24.5,-163.7 24.5,-182.7 115.5,-182.7 115.5,-163.7 24.5,-163.7"/>
<text text-anchor="start" x="27.5" y="-169.8" font-family="Helvetica,sans-Serif" font-size="11.00" fill="#000000">&lt; 1</text>
<polygon fill="#ffffff" stroke="transparent" points="115.5,-163.7 115.5,-182.7 188.5,-182.7 188.5,-163.7 115.5,-163.7"/>
<polygon fill="none" stroke="#000000" points="115.5,-163.7 115.5,-182.7 188.5,-182.7 188.5,-163.7 115.5,-163.7"/>
<text text-anchor="start" x="153.1105" y="-169.8" font-family="Helvetica,sans-Serif" font-size="11.00" fill="#000000">0 rows</text>
<polygon fill="#ffffff" stroke="transparent" points="188.5,-163.7 188.5,-182.7 244.5,-182.7 244.5,-163.7 188.5,-163.7"/>
<polygon fill="none" stroke="#000000" points="188.5,-163.7 188.5,-182.7 244.5,-182.7 244.5,-163.7 188.5,-163.7"/>
<text text-anchor="start" x="225.9053" y="-169.8" font-family="Helvetica,sans-Serif" font-size="11.00" fill="#000000">2 &gt;</text>
</a>
</g>
</g>
<!-- _river_cross_section_profile&#45;&gt;valley_cross_section_geometry -->
<g id="edge3" class="edge">
<title>_river_cross_section_profile:w&#45;&gt;valley_cross_section_geometry:e</title>
<path fill="none" stroke="#000000" d="M297.6511,-180.1375C270.7386,-195.45 285.2058,-256.7 244.5,-256.7"/>
<polygon fill="#000000" stroke="#000000" points="304.2201,-178.5638 312.8387,-180.2009 308.1101,-177.6319 312,-176.7 312,-176.7 312,-176.7 308.1101,-177.6319 311.1613,-173.1991 304.2201,-178.5638 304.2201,-178.5638"/>
<ellipse fill="none" stroke="#000000" cx="301.1082" cy="-179.3094" rx="3.2" ry="3.2"/>
</g>
<!-- _river_cross_section_profile&#45;&gt;valley_cross_section_geometry -->
<g id="edge8" class="edge">
<title>_river_cross_section_profile:w&#45;&gt;valley_cross_section_geometry:e</title>
<path fill="none" stroke="#000000" d="M297.5727,-416.2842C245.9215,-396.132 316.8633,-256.7 244.5,-256.7"/>
<polygon fill="#000000" stroke="#000000" points="304.1098,-417.3788 311.4055,-422.2506 308.0549,-418.0394 312,-418.7 312,-418.7 312,-418.7 308.0549,-418.0394 312.5945,-415.1494 304.1098,-417.3788 304.1098,-417.3788"/>
<ellipse fill="none" stroke="#000000" cx="300.9538" cy="-416.8503" rx="3.2" ry="3.2"/>
</g>
<!-- valley_cross_section_topo_geometry -->
<g id="node5" class="node">
<title>valley_cross_section_topo_geometry</title>
<g id="a_node5"><a xlink:href="../../tables/valley_cross_section_topo_geometry.html" xlink:title="valley_cross_section_topo_geometry" target="_top">
<polygon fill="#ffffff" stroke="transparent" points="8,-38.2 8,-143.2 261,-143.2 261,-38.2 8,-38.2"/>
<polygon fill="#f5f5f5" stroke="transparent" points="8.5,-119.7 8.5,-142.7 261.5,-142.7 261.5,-119.7 8.5,-119.7"/>
<polygon fill="none" stroke="#000000" points="8.5,-119.7 8.5,-142.7 261.5,-142.7 261.5,-119.7 8.5,-119.7"/>
<text text-anchor="start" x="13.5" y="-128.3" font-family="Helvetica,sans-Serif" font-weight="bold" font-size="11.00" fill="#000000">valley_cross_section_topo_geometry</text>
<text text-anchor="start" x="227.0219" y="-127.8" font-family="Helvetica,sans-Serif" font-size="11.00" fill="#000000">[table]</text>
<polygon fill="none" stroke="#000000" points="8.5,-97.7 8.5,-119.7 261.5,-119.7 261.5,-97.7 8.5,-97.7"/>
<image xlink:href="../../images/primaryKeys.png" width="11px" height="12px" preserveAspectRatio="xMinYMin meet" x="13.5" y="-114.7"/>
<text text-anchor="start" x="37.5" y="-104.8" font-family="Helvetica,sans-Serif" font-size="11.00" fill="#000000">id</text>
<polygon fill="#ffffff" stroke="transparent" points="8.5,-75.7 8.5,-97.7 261.5,-97.7 261.5,-75.7 8.5,-75.7"/>
<polygon fill="none" stroke="#000000" points="8.5,-75.7 8.5,-97.7 261.5,-97.7 261.5,-75.7 8.5,-75.7"/>
<text text-anchor="start" x="37.5" y="-82.8" font-family="Helvetica,sans-Serif" font-size="11.00" fill="#000000">name</text>
<polygon fill="none" stroke="#000000" points="8.5,-56.7 8.5,-75.7 261.5,-75.7 261.5,-56.7 8.5,-56.7"/>
<text text-anchor="start" x="11.5" y="-62.8" font-family="Helvetica,sans-Serif" font-size="11.00" fill="#000000">...</text>
<polygon fill="#ffffff" stroke="transparent" points="8.5,-37.7 8.5,-56.7 111.5,-56.7 111.5,-37.7 8.5,-37.7"/>
<polygon fill="none" stroke="#000000" points="8.5,-37.7 8.5,-56.7 111.5,-56.7 111.5,-37.7 8.5,-37.7"/>
<text text-anchor="start" x="11.5" y="-43.8" font-family="Helvetica,sans-Serif" font-size="11.00" fill="#000000"> &#160;</text>
<polygon fill="#ffffff" stroke="transparent" points="111.5,-37.7 111.5,-56.7 194.5,-56.7 194.5,-37.7 111.5,-37.7"/>
<polygon fill="none" stroke="#000000" points="111.5,-37.7 111.5,-56.7 194.5,-56.7 194.5,-37.7 111.5,-37.7"/>
<text text-anchor="start" x="159.1105" y="-43.8" font-family="Helvetica,sans-Serif" font-size="11.00" fill="#000000">0 rows</text>
<polygon fill="#ffffff" stroke="transparent" points="194.5,-37.7 194.5,-56.7 261.5,-56.7 261.5,-37.7 194.5,-37.7"/>
<polygon fill="none" stroke="#000000" points="194.5,-37.7 194.5,-56.7 261.5,-56.7 261.5,-37.7 194.5,-37.7"/>
<text text-anchor="start" x="242.9053" y="-43.8" font-family="Helvetica,sans-Serif" font-size="11.00" fill="#000000">2 &gt;</text>
</a>
</g>
</g>
<!-- _river_cross_section_profile&#45;&gt;valley_cross_section_topo_geometry -->
<g id="edge4" class="edge">
<title>_river_cross_section_profile:w&#45;&gt;valley_cross_section_topo_geometry:e</title>
<path fill="none" stroke="#000000" d="M298.2503,-150.1212C284.0842,-138.486 285.9303,-108.7 261.5,-108.7"/>
<polygon fill="#000000" stroke="#000000" points="304.4098,-152.1723 310.8626,-158.1156 308.2049,-153.4362 312,-154.7 312,-154.7 312,-154.7 308.2049,-153.4362 313.1374,-151.2844 304.4098,-152.1723 304.4098,-152.1723"/>
<ellipse fill="none" stroke="#000000" cx="301.3737" cy="-151.1613" rx="3.2" ry="3.2"/>
</g>
<!-- _river_cross_section_profile&#45;&gt;valley_cross_section_topo_geometry -->
<g id="edge9" class="edge">
<title>_river_cross_section_profile:w&#45;&gt;valley_cross_section_topo_geometry:e</title>
<path fill="none" stroke="#000000" d="M298.514,-390.9471C259.3504,-350.3564 321.0194,-108.7 261.5,-108.7"/>
<polygon fill="#000000" stroke="#000000" points="304.6416,-393.561 310.5874,-400.0113 308.3208,-395.1305 312,-396.7 312,-396.7 312,-396.7 308.3208,-395.1305 313.4126,-393.3887 304.6416,-393.561 304.6416,-393.561"/>
<ellipse fill="none" stroke="#000000" cx="301.6982" cy="-392.3054" rx="3.2" ry="3.2"/>
</g>
<!-- _river_node -->
<g id="node6" class="node">
<title>_river_node</title>
<g id="a_node6"><a xlink:href="../../tables/_river_node.html" xlink:title="_river_node" target="_top">
<polygon fill="#ffffff" stroke="transparent" points="81,-656.2 81,-783.2 188,-783.2 188,-656.2 81,-656.2"/>
<polygon fill="#f5f5f5" stroke="transparent" points="81.5,-759.7 81.5,-782.7 188.5,-782.7 188.5,-759.7 81.5,-759.7"/>
<polygon fill="none" stroke="#000000" points="81.5,-759.7 81.5,-782.7 188.5,-782.7 188.5,-759.7 81.5,-759.7"/>
<text text-anchor="start" x="86.5" y="-768.3" font-family="Helvetica,sans-Serif" font-weight="bold" font-size="11.00" fill="#000000">_river_node</text>
<text text-anchor="start" x="154.0219" y="-767.8" font-family="Helvetica,sans-Serif" font-size="11.00" fill="#000000">[table]</text>
<polygon fill="#ffffff" stroke="transparent" points="81.5,-737.7 81.5,-759.7 188.5,-759.7 188.5,-737.7 81.5,-737.7"/>
<polygon fill="none" stroke="#000000" points="81.5,-737.7 81.5,-759.7 188.5,-759.7 188.5,-737.7 81.5,-737.7"/>
<image xlink:href="../../images/foreignKeys.png" width="11px" height="12px" preserveAspectRatio="xMinYMin meet" x="86.5" y="-754.7"/>
<text text-anchor="start" x="110.5" y="-744.8" font-family="Helvetica,sans-Serif" font-size="11.00" fill="#000000">id</text>
<polygon fill="none" stroke="#000000" points="81.5,-715.7 81.5,-737.7 188.5,-737.7 188.5,-715.7 81.5,-715.7"/>
<image xlink:href="../../images/foreignKeys.png" width="11px" height="12px" preserveAspectRatio="xMinYMin meet" x="86.5" y="-732.7"/>
<text text-anchor="start" x="110.5" y="-722.8" font-family="Helvetica,sans-Serif" font-size="11.00" fill="#000000">node_type</text>
<polygon fill="none" stroke="#000000" points="81.5,-693.7 81.5,-715.7 188.5,-715.7 188.5,-693.7 81.5,-693.7"/>
<image xlink:href="../../images/foreignKeys.png" width="11px" height="12px" preserveAspectRatio="xMinYMin meet" x="86.5" y="-710.7"/>
<text text-anchor="start" x="110.5" y="-700.8" font-family="Helvetica,sans-Serif" font-size="11.00" fill="#000000">reach</text>
<polygon fill="none" stroke="#000000" points="81.5,-674.7 81.5,-693.7 188.5,-693.7 188.5,-674.7 81.5,-674.7"/>
<text text-anchor="start" x="84.5" y="-680.8" font-family="Helvetica,sans-Serif" font-size="11.00" fill="#000000">...</text>
<polygon fill="#ffffff" stroke="transparent" points="81.5,-655.7 81.5,-674.7 115.5,-674.7 115.5,-655.7 81.5,-655.7"/>
<polygon fill="none" stroke="#000000" points="81.5,-655.7 81.5,-674.7 115.5,-674.7 115.5,-655.7 81.5,-655.7"/>
<text text-anchor="start" x="84.5" y="-661.8" font-family="Helvetica,sans-Serif" font-size="11.00" fill="#000000">&lt; 3</text>
<polygon fill="#ffffff" stroke="transparent" points="115.5,-655.7 115.5,-674.7 160.5,-674.7 160.5,-655.7 115.5,-655.7"/>
<polygon fill="none" stroke="#000000" points="115.5,-655.7 115.5,-674.7 160.5,-674.7 160.5,-655.7 115.5,-655.7"/>
<text text-anchor="start" x="125.1105" y="-661.8" font-family="Helvetica,sans-Serif" font-size="11.00" fill="#000000">0 rows</text>
<polygon fill="#ffffff" stroke="transparent" points="160.5,-655.7 160.5,-674.7 188.5,-674.7 188.5,-655.7 160.5,-655.7"/>
<polygon fill="none" stroke="#000000" points="160.5,-655.7 160.5,-674.7 188.5,-674.7 188.5,-655.7 160.5,-655.7"/>
<text text-anchor="start" x="169.9053" y="-661.8" font-family="Helvetica,sans-Serif" font-size="11.00" fill="#000000">2 &gt;</text>
</a>
</g>
</g>
<!-- _river_cross_section_profile&#45;&gt;_river_node -->
<g id="edge5" class="edge">
<title>_river_cross_section_profile:w&#45;&gt;_river_node:e</title>
<path fill="none" stroke="#000000" d="M301.5856,-748.7C255.1071,-748.7 239.7439,-748.7 188.5,-748.7"/>
<polygon fill="#000000" stroke="#000000" points="311.2,-744.7 311.2,-752.7 309.6,-752.7 309.6,-744.7 311.2,-744.7"/>
<polyline fill="none" stroke="#000000" points="312,-748.7 308,-748.7 "/>
<ellipse fill="none" stroke="#000000" cx="304.8" cy="-748.7001" rx="3.2" ry="3.2"/>
</g>
</g>
</svg>
