<?xml version="1.0" encoding="UTF-8" standalone="no"?>
<!DOCTYPE svg PUBLIC "-//W3C//DTD SVG 1.1//EN"
 "http://www.w3.org/Graphics/SVG/1.1/DTD/svg11.dtd">
<!-- Generated by graphviz version 2.40.1 (20161225.0304)
 -->
<!-- Title: twoDegreesRelationshipsDiagram Pages: 1 -->
<svg width="790pt" height="316pt"
 viewBox="0.00 0.00 790.00 315.70" xmlns="http://www.w3.org/2000/svg" xmlns:xlink="http://www.w3.org/1999/xlink">
<g id="graph0" class="graph" transform="scale(1 1) rotate(0) translate(4 311.7)">
<title>twoDegreesRelationshipsDiagram</title>
<polygon fill="#ffffff" stroke="transparent" points="-4,4 -4,-311.7 786,-311.7 786,4 -4,4"/>
<text text-anchor="middle" x="72.4936" y="-7.3" font-family="Helvetica,sans-Serif" font-size="11.00" fill="#000000">Generated by SchemaSpy</text>
<!-- _link -->
<g id="node1" class="node">
<title>_link</title>
<g id="a_node1"><a xlink:href="../../tables/_link.html" xlink:title="_link" target="_top">
<polygon fill="#ffffff" stroke="transparent" points="333.5,-242.7 333.5,-303.7 419.5,-303.7 419.5,-242.7 333.5,-242.7"/>
<polygon fill="#f5f5f5" stroke="transparent" points="333.5,-280.2 333.5,-303.2 419.5,-303.2 419.5,-280.2 333.5,-280.2"/>
<polygon fill="none" stroke="#000000" points="333.5,-280.2 333.5,-303.2 419.5,-303.2 419.5,-280.2 333.5,-280.2"/>
<text text-anchor="start" x="338.5" y="-288.8" font-family="Helvetica,sans-Serif" font-weight="bold" font-size="11.00" fill="#000000">_link</text>
<text text-anchor="start" x="384.5437" y="-288.3" font-family="Helvetica,sans-Serif" font-size="11.00" fill="#000000">[table]</text>
<polygon fill="none" stroke="#000000" points="333.5,-261.2 333.5,-280.2 419.5,-280.2 419.5,-261.2 333.5,-261.2"/>
<text text-anchor="start" x="336.5" y="-267.3" font-family="Helvetica,sans-Serif" font-size="11.00" fill="#000000">...</text>
<polygon fill="#ffffff" stroke="transparent" points="333.5,-242.2 333.5,-261.2 354.5,-261.2 354.5,-242.2 333.5,-242.2"/>
<polygon fill="none" stroke="#000000" points="333.5,-242.2 333.5,-261.2 354.5,-261.2 354.5,-242.2 333.5,-242.2"/>
<text text-anchor="start" x="336.2027" y="-248.3" font-family="Helvetica,sans-Serif" font-size="11.00" fill="#000000">&lt; 5</text>
<polygon fill="#ffffff" stroke="transparent" points="354.5,-242.2 354.5,-261.2 392.5,-261.2 392.5,-242.2 354.5,-242.2"/>
<polygon fill="none" stroke="#000000" points="354.5,-242.2 354.5,-261.2 392.5,-261.2 392.5,-242.2 354.5,-242.2"/>
<text text-anchor="start" x="357.3053" y="-248.3" font-family="Helvetica,sans-Serif" font-size="11.00" fill="#000000">0 rows</text>
<polygon fill="#ffffff" stroke="transparent" points="392.5,-242.2 392.5,-261.2 419.5,-261.2 419.5,-242.2 392.5,-242.2"/>
<polygon fill="none" stroke="#000000" points="392.5,-242.2 392.5,-261.2 419.5,-261.2 419.5,-242.2 392.5,-242.2"/>
<text text-anchor="start" x="395.1452" y="-248.3" font-family="Helvetica,sans-Serif" font-size="11.00" fill="#000000">60 &gt;</text>
</a>
</g>
</g>
<!-- _node -->
<g id="node2" class="node">
<title>_node</title>
<g id="a_node2"><a xlink:href="../../tables/_node.html" xlink:title="_node" target="_top">
<polygon fill="#ffffff" stroke="transparent" points="188,-219.7 188,-280.7 274,-280.7 274,-219.7 188,-219.7"/>
<polygon fill="#f5f5f5" stroke="transparent" points="188,-257.2 188,-280.2 274,-280.2 274,-257.2 188,-257.2"/>
<polygon fill="none" stroke="#000000" points="188,-257.2 188,-280.2 274,-280.2 274,-257.2 188,-257.2"/>
<text text-anchor="start" x="193" y="-265.8" font-family="Helvetica,sans-Serif" font-weight="bold" font-size="11.00" fill="#000000">_node</text>
<text text-anchor="start" x="239.0437" y="-265.3" font-family="Helvetica,sans-Serif" font-size="11.00" fill="#000000">[table]</text>
<polygon fill="none" stroke="#000000" points="188,-238.2 188,-257.2 274,-257.2 274,-238.2 188,-238.2"/>
<text text-anchor="start" x="191" y="-244.3" font-family="Helvetica,sans-Serif" font-size="11.00" fill="#000000">...</text>
<polygon fill="#ffffff" stroke="transparent" points="188,-219.2 188,-238.2 209,-238.2 209,-219.2 188,-219.2"/>
<polygon fill="none" stroke="#000000" points="188,-219.2 188,-238.2 209,-238.2 209,-219.2 188,-219.2"/>
<text text-anchor="start" x="190.7027" y="-225.3" font-family="Helvetica,sans-Serif" font-size="11.00" fill="#000000">&lt; 1</text>
<polygon fill="#ffffff" stroke="transparent" points="209,-219.2 209,-238.2 247,-238.2 247,-219.2 209,-219.2"/>
<polygon fill="none" stroke="#000000" points="209,-219.2 209,-238.2 247,-238.2 247,-219.2 209,-219.2"/>
<text text-anchor="start" x="211.8053" y="-225.3" font-family="Helvetica,sans-Serif" font-size="11.00" fill="#000000">0 rows</text>
<polygon fill="#ffffff" stroke="transparent" points="247,-219.2 247,-238.2 274,-238.2 274,-219.2 247,-219.2"/>
<polygon fill="none" stroke="#000000" points="247,-219.2 247,-238.2 274,-238.2 274,-219.2 247,-219.2"/>
<text text-anchor="start" x="249.6452" y="-225.3" font-family="Helvetica,sans-Serif" font-size="11.00" fill="#000000">24 &gt;</text>
</a>
</g>
</g>
<!-- _link&#45;&gt;_node -->
<g id="edge1" class="edge">
<title>_link:w&#45;&gt;_node:e</title>
<path fill="none" stroke="#000000" d="M321.887,-261.1763C303.6506,-245.0379 297.9215,-231.1688 274,-247.2"/>
<polygon fill="#000000" stroke="#000000" points="327.1829,-265.2914 331.2911,-273.0427 330.3414,-267.7457 333.5,-270.2 333.5,-270.2 333.5,-270.2 330.3414,-267.7457 335.7089,-267.3573 327.1829,-265.2914 327.1829,-265.2914"/>
<ellipse fill="none" stroke="#000000" cx="324.6561" cy="-263.3279" rx="3.2" ry="3.2"/>
</g>
<!-- _link&#45;&gt;_node -->
<g id="edge2" class="edge">
<title>_link:w&#45;&gt;_node:e</title>
<path fill="none" stroke="#000000" d="M319.9106,-265.3353C303.2013,-256.5945 297.0355,-242.325 274,-247.2"/>
<polygon fill="#000000" stroke="#000000" points="325.9681,-267.5037 332.2867,-273.5894 329.734,-268.8518 333.5,-270.2 333.5,-270.2 333.5,-270.2 329.734,-268.8518 334.7133,-266.8106 325.9681,-267.5037 325.9681,-267.5037"/>
<ellipse fill="none" stroke="#000000" cx="322.9553" cy="-266.4251" rx="3.2" ry="3.2"/>
</g>
<!-- _link&#45;&gt;_node -->
<g id="edge4" class="edge">
<title>_link:w&#45;&gt;_node:e</title>
<path fill="none" stroke="#000000" d="M318.9581,-271.1378C302.9579,-268.5164 296.5925,-252.7781 274,-247.2"/>
<polygon fill="#000000" stroke="#000000" points="325.5166,-270.7149 333.7317,-273.7925 329.5083,-270.4574 333.5,-270.2 333.5,-270.2 333.5,-270.2 329.5083,-270.4574 333.2683,-266.6075 325.5166,-270.7149 325.5166,-270.7149"/>
<ellipse fill="none" stroke="#000000" cx="322.3232" cy="-270.9208" rx="3.2" ry="3.2"/>
</g>
<!-- _link&#45;&gt;_node -->
<g id="edge5" class="edge">
<title>_link:w&#45;&gt;_node:e</title>
<path fill="none" stroke="#000000" d="M320.3956,-277.083C303.3183,-282.0312 297.257,-263.6063 274,-247.2"/>
<polygon fill="#000000" stroke="#000000" points="326.4175,-273.9201 335.174,-273.3871 329.9588,-272.06 333.5,-270.2 333.5,-270.2 333.5,-270.2 329.9588,-272.06 331.826,-267.0129 326.4175,-273.9201 326.4175,-273.9201"/>
<ellipse fill="none" stroke="#000000" cx="323.5845" cy="-275.4081" rx="3.2" ry="3.2"/>
</g>
<!-- generation_step -->
<g id="node3" class="node">
<title>generation_step</title>
<g id="a_node3"><a xlink:href="../../tables/generation_step.html" xlink:title="generation_step" target="_top">
<polygon fill="#ffffff" stroke="transparent" points="8,-176.7 8,-281.7 139,-281.7 139,-176.7 8,-176.7"/>
<polygon fill="#f5f5f5" stroke="transparent" points="8.5,-258.2 8.5,-281.2 139.5,-281.2 139.5,-258.2 8.5,-258.2"/>
<polygon fill="none" stroke="#000000" points="8.5,-258.2 8.5,-281.2 139.5,-281.2 139.5,-258.2 8.5,-258.2"/>
<text text-anchor="start" x="13.5" y="-266.8" font-family="Helvetica,sans-Serif" font-weight="bold" font-size="11.00" fill="#000000">generation_step</text>
<text text-anchor="start" x="105.0219" y="-266.3" font-family="Helvetica,sans-Serif" font-size="11.00" fill="#000000">[table]</text>
<polygon fill="none" stroke="#000000" points="8.5,-236.2 8.5,-258.2 139.5,-258.2 139.5,-236.2 8.5,-236.2"/>
<image xlink:href="../../images/primaryKeys.png" width="11px" height="12px" preserveAspectRatio="xMinYMin meet" x="13.5" y="-253.2"/>
<text text-anchor="start" x="37.5" y="-243.3" font-family="Helvetica,sans-Serif" font-size="11.00" fill="#000000">id</text>
<polygon fill="#ffffff" stroke="transparent" points="8.5,-214.2 8.5,-236.2 139.5,-236.2 139.5,-214.2 8.5,-214.2"/>
<polygon fill="none" stroke="#000000" points="8.5,-214.2 8.5,-236.2 139.5,-236.2 139.5,-214.2 8.5,-214.2"/>
<text text-anchor="start" x="37.5" y="-221.3" font-family="Helvetica,sans-Serif" font-size="11.00" fill="#000000">name</text>
<polygon fill="none" stroke="#000000" points="8.5,-195.2 8.5,-214.2 139.5,-214.2 139.5,-195.2 8.5,-195.2"/>
<text text-anchor="start" x="11.5" y="-201.3" font-family="Helvetica,sans-Serif" font-size="11.00" fill="#000000">...</text>
<polygon fill="#ffffff" stroke="transparent" points="8.5,-176.2 8.5,-195.2 50.5,-195.2 50.5,-176.2 8.5,-176.2"/>
<polygon fill="none" stroke="#000000" points="8.5,-176.2 8.5,-195.2 50.5,-195.2 50.5,-176.2 8.5,-176.2"/>
<text text-anchor="start" x="11.5" y="-182.3" font-family="Helvetica,sans-Serif" font-size="11.00" fill="#000000"> &#160;</text>
<polygon fill="#ffffff" stroke="transparent" points="50.5,-176.2 50.5,-195.2 103.5,-195.2 103.5,-176.2 50.5,-176.2"/>
<polygon fill="none" stroke="#000000" points="50.5,-176.2 50.5,-195.2 103.5,-195.2 103.5,-176.2 50.5,-176.2"/>
<text text-anchor="start" x="68.1105" y="-182.3" font-family="Helvetica,sans-Serif" font-size="11.00" fill="#000000">0 rows</text>
<polygon fill="#ffffff" stroke="transparent" points="103.5,-176.2 103.5,-195.2 139.5,-195.2 139.5,-176.2 103.5,-176.2"/>
<polygon fill="none" stroke="#000000" points="103.5,-176.2 103.5,-195.2 139.5,-195.2 139.5,-176.2 103.5,-176.2"/>
<text text-anchor="start" x="120.9053" y="-182.3" font-family="Helvetica,sans-Serif" font-size="11.00" fill="#000000">3 &gt;</text>
</a>
</g>
</g>
<!-- _link&#45;&gt;generation_step -->
<g id="edge3" class="edge">
<title>_link:w&#45;&gt;generation_step:e</title>
<path fill="none" stroke="#000000" d="M319.2116,-272.52C306.4042,-277.1835 300.5717,-287.5591 282,-291.2 237.5135,-299.9215 221.5145,-309.4114 180,-291.2 155.6604,-280.5228 166.0786,-247.2 139.5,-247.2"/>
<polygon fill="#000000" stroke="#000000" points="325.6034,-271.4822 334.077,-273.7535 329.5517,-270.8411 333.5,-270.2 333.5,-270.2 333.5,-270.2 329.5517,-270.8411 332.923,-266.6465 325.6034,-271.4822 325.6034,-271.4822"/>
<ellipse fill="none" stroke="#000000" cx="322.4448" cy="-271.9951" rx="3.2" ry="3.2"/>
</g>
<!-- _node&#45;&gt;generation_step -->
<g id="edge6" class="edge">
<title>_node:w&#45;&gt;generation_step:e</title>
<path fill="none" stroke="#000000" d="M173.2829,-247.2C162.2886,-247.2 155.1615,-247.2 139.5,-247.2"/>
<polygon fill="#000000" stroke="#000000" points="180,-247.2001 188,-250.8 184,-247.2 188,-247.2 188,-247.2 188,-247.2 184,-247.2 188,-243.6 180,-247.2001 180,-247.2001"/>
<ellipse fill="none" stroke="#000000" cx="176.8" cy="-247.2001" rx="3.2" ry="3.2"/>
</g>
<!-- _river_cross_section_pl1d -->
<g id="node4" class="node">
<title>_river_cross_section_pl1d</title>
<g id="a_node4"><a xlink:href="../../tables/_river_cross_section_pl1d.html" xlink:title="_river_cross_section_pl1d" target="_top">
<polygon fill="#ffffff" stroke="transparent" points="479,-38.2 479,-172.2 774,-172.2 774,-38.2 479,-38.2"/>
<polygon fill="#f5f5f5" stroke="transparent" points="481.5,-147.2 481.5,-170.2 772.5,-170.2 772.5,-147.2 481.5,-147.2"/>
<polygon fill="none" stroke="#000000" points="481.5,-147.2 481.5,-170.2 772.5,-170.2 772.5,-147.2 481.5,-147.2"/>
<text text-anchor="start" x="486.5" y="-155.8" font-family="Helvetica,sans-Serif" font-weight="bold" font-size="11.00" fill="#000000">_river_cross_section_pl1d</text>
<text text-anchor="start" x="737.5437" y="-155.3" font-family="Helvetica,sans-Serif" font-size="11.00" fill="#000000">[table]</text>
<polygon fill="#ffffff" stroke="transparent" points="481.5,-125.2 481.5,-147.2 653.5,-147.2 653.5,-125.2 481.5,-125.2"/>
<polygon fill="none" stroke="#000000" points="481.5,-125.2 481.5,-147.2 653.5,-147.2 653.5,-125.2 481.5,-125.2"/>
<image xlink:href="../../images/foreignKeys.png" width="11px" height="12px" preserveAspectRatio="xMinYMin meet" x="486.5" y="-142.2"/>
<text text-anchor="start" x="501.5" y="-132.3" font-family="Helvetica,sans-Serif" font-size="11.00" fill="#000000">id</text>
<polygon fill="none" stroke="#000000" points="653.5,-125.2 653.5,-147.2 772.5,-147.2 772.5,-125.2 653.5,-125.2"/>
<text text-anchor="start" x="656.5" y="-132.9" font-family="Helvetica,sans-Serif" font-size="11.00" fill="#000000">int4[10]</text>
<polygon fill="#ffffff" stroke="transparent" points="481.5,-103.2 481.5,-125.2 653.5,-125.2 653.5,-103.2 481.5,-103.2"/>
<polygon fill="none" stroke="#000000" points="481.5,-103.2 481.5,-125.2 653.5,-125.2 653.5,-103.2 481.5,-103.2"/>
<text text-anchor="start" x="501.5" y="-110.3" font-family="Helvetica,sans-Serif" font-size="11.00" fill="#000000">name</text>
<polygon fill="none" stroke="#000000" points="653.5,-103.2 653.5,-125.2 772.5,-125.2 772.5,-103.2 653.5,-103.2"/>
<text text-anchor="start" x="656.5" y="-110.9" font-family="Helvetica,sans-Serif" font-size="11.00" fill="#000000">varchar[24]</text>
<polygon fill="none" stroke="#000000" points="481.5,-81.2 481.5,-103.2 653.5,-103.2 653.5,-81.2 481.5,-81.2"/>
<text text-anchor="start" x="501.5" y="-88.3" font-family="Helvetica,sans-Serif" font-size="11.00" fill="#000000">profile</text>
<polygon fill="none" stroke="#000000" points="653.5,-81.2 653.5,-103.2 772.5,-103.2 772.5,-81.2 653.5,-81.2"/>
<text text-anchor="start" x="656.4485" y="-88.9" font-family="Helvetica,sans-Serif" font-size="11.00" fill="#000000">geometry[2147483647]</text>
<polygon fill="none" stroke="#000000" points="481.5,-59.2 481.5,-81.2 653.5,-81.2 653.5,-59.2 481.5,-59.2"/>
<image xlink:href="../../images/foreignKeys.png" width="11px" height="12px" preserveAspectRatio="xMinYMin meet" x="486.5" y="-76.2"/>
<text text-anchor="start" x="501.5" y="-66.3" font-family="Helvetica,sans-Serif" font-size="11.00" fill="#000000">generated</text>
<polygon fill="none" stroke="#000000" points="653.5,-59.2 653.5,-81.2 772.5,-81.2 772.5,-59.2 653.5,-59.2"/>
<text text-anchor="start" x="656.5" y="-66.9" font-family="Helvetica,sans-Serif" font-size="11.00" fill="#000000">int4[10]</text>
<polygon fill="#ffffff" stroke="transparent" points="481.5,-40.2 481.5,-59.2 558.5,-59.2 558.5,-40.2 481.5,-40.2"/>
<polygon fill="none" stroke="#000000" points="481.5,-40.2 481.5,-59.2 558.5,-59.2 558.5,-40.2 481.5,-40.2"/>
<text text-anchor="start" x="484.5" y="-46.3" font-family="Helvetica,sans-Serif" font-size="11.00" fill="#000000">&lt; 2</text>
<polygon fill="#ffffff" stroke="transparent" points="558.5,-40.2 558.5,-59.2 653.5,-59.2 653.5,-40.2 558.5,-40.2"/>
<polygon fill="none" stroke="#000000" points="558.5,-40.2 558.5,-59.2 653.5,-59.2 653.5,-40.2 558.5,-40.2"/>
<text text-anchor="start" x="618.1105" y="-46.3" font-family="Helvetica,sans-Serif" font-size="11.00" fill="#000000">0 rows</text>
<polygon fill="#ffffff" stroke="transparent" points="653.5,-40.2 653.5,-59.2 772.5,-59.2 772.5,-40.2 653.5,-40.2"/>
<polygon fill="none" stroke="#000000" points="653.5,-40.2 653.5,-59.2 772.5,-59.2 772.5,-40.2 653.5,-40.2"/>
<text text-anchor="start" x="753.9053" y="-46.3" font-family="Helvetica,sans-Serif" font-size="11.00" fill="#000000">0 &gt;</text>
<polygon fill="none" stroke="#000000" stroke-width="2" points="480,-39.2 480,-171.2 773,-171.2 773,-39.2 480,-39.2"/>
</a>
</g>
</g>
<!-- _river_cross_section_pl1d&#45;&gt;generation_step -->
<g id="edge7" class="edge">
<title>_river_cross_section_pl1d:w&#45;&gt;generation_step:e</title>
<path fill="none" stroke="#000000" d="M466.7632,-69.9857C341.6893,-66.3663 277.3425,-19.1951 180,-105.2 130.8185,-148.6533 205.1278,-247.2 139.5,-247.2"/>
<polygon fill="#000000" stroke="#000000" points="473.5008,-70.0836 481.4476,-73.7996 477.5004,-70.1418 481.5,-70.2 481.5,-70.2 481.5,-70.2 477.5004,-70.1418 481.5524,-66.6004 473.5008,-70.0836 473.5008,-70.0836"/>
<ellipse fill="none" stroke="#000000" cx="470.3012" cy="-70.0371" rx="3.2" ry="3.2"/>
</g>
<!-- _river_node -->
<g id="node5" class="node">
<title>_river_node</title>
<g id="a_node5"><a xlink:href="../../tables/_river_node.html" xlink:title="_river_node" target="_top">
<polygon fill="#ffffff" stroke="transparent" points="323,-94.7 323,-221.7 430,-221.7 430,-94.7 323,-94.7"/>
<polygon fill="#f5f5f5" stroke="transparent" points="323.5,-198.2 323.5,-221.2 430.5,-221.2 430.5,-198.2 323.5,-198.2"/>
<polygon fill="none" stroke="#000000" points="323.5,-198.2 323.5,-221.2 430.5,-221.2 430.5,-198.2 323.5,-198.2"/>
<text text-anchor="start" x="328.5" y="-206.8" font-family="Helvetica,sans-Serif" font-weight="bold" font-size="11.00" fill="#000000">_river_node</text>
<text text-anchor="start" x="396.0219" y="-206.3" font-family="Helvetica,sans-Serif" font-size="11.00" fill="#000000">[table]</text>
<polygon fill="#ffffff" stroke="transparent" points="323.5,-176.2 323.5,-198.2 430.5,-198.2 430.5,-176.2 323.5,-176.2"/>
<polygon fill="none" stroke="#000000" points="323.5,-176.2 323.5,-198.2 430.5,-198.2 430.5,-176.2 323.5,-176.2"/>
<image xlink:href="../../images/foreignKeys.png" width="11px" height="12px" preserveAspectRatio="xMinYMin meet" x="328.5" y="-193.2"/>
<text text-anchor="start" x="352.5" y="-183.3" font-family="Helvetica,sans-Serif" font-size="11.00" fill="#000000">id</text>
<polygon fill="none" stroke="#000000" points="323.5,-154.2 323.5,-176.2 430.5,-176.2 430.5,-154.2 323.5,-154.2"/>
<image xlink:href="../../images/foreignKeys.png" width="11px" height="12px" preserveAspectRatio="xMinYMin meet" x="328.5" y="-171.2"/>
<text text-anchor="start" x="352.5" y="-161.3" font-family="Helvetica,sans-Serif" font-size="11.00" fill="#000000">node_type</text>
<polygon fill="none" stroke="#000000" points="323.5,-132.2 323.5,-154.2 430.5,-154.2 430.5,-132.2 323.5,-132.2"/>
<image xlink:href="../../images/foreignKeys.png" width="11px" height="12px" preserveAspectRatio="xMinYMin meet" x="328.5" y="-149.2"/>
<text text-anchor="start" x="352.5" y="-139.3" font-family="Helvetica,sans-Serif" font-size="11.00" fill="#000000">reach</text>
<polygon fill="none" stroke="#000000" points="323.5,-113.2 323.5,-132.2 430.5,-132.2 430.5,-113.2 323.5,-113.2"/>
<text text-anchor="start" x="326.5" y="-119.3" font-family="Helvetica,sans-Serif" font-size="11.00" fill="#000000">...</text>
<polygon fill="#ffffff" stroke="transparent" points="323.5,-94.2 323.5,-113.2 357.5,-113.2 357.5,-94.2 323.5,-94.2"/>
<polygon fill="none" stroke="#000000" points="323.5,-94.2 323.5,-113.2 357.5,-113.2 357.5,-94.2 323.5,-94.2"/>
<text text-anchor="start" x="326.5" y="-100.3" font-family="Helvetica,sans-Serif" font-size="11.00" fill="#000000">&lt; 3</text>
<polygon fill="#ffffff" stroke="transparent" points="357.5,-94.2 357.5,-113.2 402.5,-113.2 402.5,-94.2 357.5,-94.2"/>
<polygon fill="none" stroke="#000000" points="357.5,-94.2 357.5,-113.2 402.5,-113.2 402.5,-94.2 357.5,-94.2"/>
<text text-anchor="start" x="367.1105" y="-100.3" font-family="Helvetica,sans-Serif" font-size="11.00" fill="#000000">0 rows</text>
<polygon fill="#ffffff" stroke="transparent" points="402.5,-94.2 402.5,-113.2 430.5,-113.2 430.5,-94.2 402.5,-94.2"/>
<polygon fill="none" stroke="#000000" points="402.5,-94.2 402.5,-113.2 430.5,-113.2 430.5,-94.2 402.5,-94.2"/>
<text text-anchor="start" x="411.9053" y="-100.3" font-family="Helvetica,sans-Serif" font-size="11.00" fill="#000000">2 &gt;</text>
</a>
</g>
</g>
<!-- _river_cross_section_pl1d&#45;&gt;_river_node -->
<g id="edge8" class="edge">
<title>_river_cross_section_pl1d:w&#45;&gt;_river_node:e</title>
<path fill="none" stroke="#000000" d="M471.1616,-138.5239C452.0742,-148.501 458.4234,-187.2 430.5,-187.2"/>
<polygon fill="#000000" stroke="#000000" points="479.8422,-132.4728 481.5967,-140.2781 480.0357,-140.629 478.2812,-132.8237 479.8422,-132.4728"/>
<polyline fill="none" stroke="#000000" points="481.5,-136.2 477.5974,-137.0773 "/>
<ellipse fill="none" stroke="#000000" cx="474.4753" cy="-137.7791" rx="3.2" ry="3.2"/>
</g>
<!-- _river_node&#45;&gt;_node -->
<g id="edge10" class="edge">
<title>_river_node:w&#45;&gt;_node:e</title>
<path fill="none" stroke="#000000" d="M313.1335,-189.6264C292.8914,-200.8514 304.3841,-247.2 274,-247.2"/>
<polygon fill="#000000" stroke="#000000" points="321.8094,-183.4876 323.6327,-191.2771 322.0748,-191.6417 320.2515,-183.8522 321.8094,-183.4876"/>
<polyline fill="none" stroke="#000000" points="323.5,-187.2 319.6053,-188.1116 "/>
<ellipse fill="none" stroke="#000000" cx="316.4895" cy="-188.8409" rx="3.2" ry="3.2"/>
</g>
<!-- _river_node&#45;&gt;_node -->
<g id="edge11" class="edge">
<title>_river_node:w&#45;&gt;_node:e</title>
<path fill="none" stroke="#000000" d="M309.7457,-169.6087C289.4072,-186.6409 310.5835,-247.2 274,-247.2"/>
<polygon fill="#000000" stroke="#000000" points="315.8818,-167.6419 324.5989,-168.6282 319.6909,-166.421 323.5,-165.2 323.5,-165.2 323.5,-165.2 319.6909,-166.421 322.4011,-161.7718 315.8818,-167.6419 315.8818,-167.6419"/>
<ellipse fill="none" stroke="#000000" cx="312.8345" cy="-168.6187" rx="3.2" ry="3.2"/>
</g>
<!-- reach -->
<g id="node7" class="node">
<title>reach</title>
<g id="a_node7"><a xlink:href="../../tables/reach.html" xlink:title="reach" target="_top">
<polygon fill="#ffffff" stroke="transparent" points="195.5,-115.7 195.5,-176.7 266.5,-176.7 266.5,-115.7 195.5,-115.7"/>
<polygon fill="#f5f5f5" stroke="transparent" points="196,-153.2 196,-176.2 267,-176.2 267,-153.2 196,-153.2"/>
<polygon fill="none" stroke="#000000" points="196,-153.2 196,-176.2 267,-176.2 267,-153.2 196,-153.2"/>
<text text-anchor="start" x="201" y="-161.8" font-family="Helvetica,sans-Serif" font-weight="bold" font-size="11.00" fill="#000000">reach</text>
<text text-anchor="start" x="232.5219" y="-161.3" font-family="Helvetica,sans-Serif" font-size="11.00" fill="#000000">[table]</text>
<polygon fill="none" stroke="#000000" points="196,-134.2 196,-153.2 267,-153.2 267,-134.2 196,-134.2"/>
<text text-anchor="start" x="199" y="-140.3" font-family="Helvetica,sans-Serif" font-size="11.00" fill="#000000">...</text>
<polygon fill="#ffffff" stroke="transparent" points="196,-115.2 196,-134.2 208,-134.2 208,-115.2 196,-115.2"/>
<polygon fill="none" stroke="#000000" points="196,-115.2 196,-134.2 208,-134.2 208,-115.2 196,-115.2"/>
<text text-anchor="start" x="198.9431" y="-121.3" font-family="Helvetica,sans-Serif" font-size="11.00" fill="#000000"> &#160;</text>
<polygon fill="#ffffff" stroke="transparent" points="208,-115.2 208,-134.2 246,-134.2 246,-115.2 208,-115.2"/>
<polygon fill="none" stroke="#000000" points="208,-115.2 208,-134.2 246,-134.2 246,-115.2 208,-115.2"/>
<text text-anchor="start" x="210.8053" y="-121.3" font-family="Helvetica,sans-Serif" font-size="11.00" fill="#000000">0 rows</text>
<polygon fill="#ffffff" stroke="transparent" points="246,-115.2 246,-134.2 267,-134.2 267,-115.2 246,-115.2"/>
<polygon fill="none" stroke="#000000" points="246,-115.2 246,-134.2 267,-134.2 267,-115.2 246,-115.2"/>
<text text-anchor="start" x="248.7027" y="-121.3" font-family="Helvetica,sans-Serif" font-size="11.00" fill="#000000">1 &gt;</text>
</a>
</g>
</g>
<!-- _river_node&#45;&gt;reach -->
<g id="edge12" class="edge">
<title>_river_node:w&#45;&gt;reach:e</title>
<path fill="none" stroke="#000000" d="M308.8944,-143.2C294.5775,-143.2 286.4219,-143.2 267,-143.2"/>
<polygon fill="#000000" stroke="#000000" points="315.5,-143.2001 323.5,-146.8 319.5,-143.2 323.5,-143.2 323.5,-143.2 323.5,-143.2 319.5,-143.2 323.5,-139.6 315.5,-143.2001 315.5,-143.2001"/>
<ellipse fill="none" stroke="#000000" cx="312.3" cy="-143.2001" rx="3.2" ry="3.2"/>
</g>
<!-- _river_cross_section_profile -->
<g id="node6" class="node">
<title>_river_cross_section_profile</title>
<g id="a_node6"><a xlink:href="../../tables/_river_cross_section_profile.html" xlink:title="_river_cross_section_profile" target="_top">
<polygon fill="#ffffff" stroke="transparent" points="525.5,-193.7 525.5,-254.7 727.5,-254.7 727.5,-193.7 525.5,-193.7"/>
<polygon fill="#f5f5f5" stroke="transparent" points="525.5,-231.2 525.5,-254.2 727.5,-254.2 727.5,-231.2 525.5,-231.2"/>
<polygon fill="none" stroke="#000000" points="525.5,-231.2 525.5,-254.2 727.5,-254.2 727.5,-231.2 525.5,-231.2"/>
<text text-anchor="start" x="530.5" y="-239.8" font-family="Helvetica,sans-Serif" font-weight="bold" font-size="11.00" fill="#000000">_river_cross_section_profile</text>
<text text-anchor="start" x="693.0219" y="-239.3" font-family="Helvetica,sans-Serif" font-size="11.00" fill="#000000">[table]</text>
<polygon fill="none" stroke="#000000" points="525.5,-212.2 525.5,-231.2 727.5,-231.2 727.5,-212.2 525.5,-212.2"/>
<text text-anchor="start" x="528.5" y="-218.3" font-family="Helvetica,sans-Serif" font-size="11.00" fill="#000000">...</text>
<polygon fill="#ffffff" stroke="transparent" points="525.5,-193.2 525.5,-212.2 611.5,-212.2 611.5,-193.2 525.5,-193.2"/>
<polygon fill="none" stroke="#000000" points="525.5,-193.2 525.5,-212.2 611.5,-212.2 611.5,-193.2 525.5,-193.2"/>
<text text-anchor="start" x="528.5" y="-199.3" font-family="Helvetica,sans-Serif" font-size="11.00" fill="#000000">&lt; 9</text>
<polygon fill="#ffffff" stroke="transparent" points="611.5,-193.2 611.5,-212.2 682.5,-212.2 682.5,-193.2 611.5,-193.2"/>
<polygon fill="none" stroke="#000000" points="611.5,-193.2 611.5,-212.2 682.5,-212.2 682.5,-193.2 611.5,-193.2"/>
<text text-anchor="start" x="647.1105" y="-199.3" font-family="Helvetica,sans-Serif" font-size="11.00" fill="#000000">0 rows</text>
<polygon fill="#ffffff" stroke="transparent" points="682.5,-193.2 682.5,-212.2 727.5,-212.2 727.5,-193.2 682.5,-193.2"/>
<polygon fill="none" stroke="#000000" points="682.5,-193.2 682.5,-212.2 727.5,-212.2 727.5,-193.2 682.5,-193.2"/>
<text text-anchor="start" x="718.3862" y="-199.3" font-family="Helvetica,sans-Serif" font-size="11.00" fill="#000000"> &#160;</text>
</a>
</g>
</g>
<!-- _river_cross_section_profile&#45;&gt;_river_node -->
<g id="edge9" class="edge">
<title>_river_cross_section_profile:w&#45;&gt;_river_node:e</title>
<path fill="none" stroke="#000000" d="M514.7642,-220.4899C479.4505,-215.6073 471.491,-187.2 430.5,-187.2"/>
<polygon fill="#000000" stroke="#000000" points="524.9658,-217.1559 524.4377,-225.1385 522.8412,-225.0329 523.3693,-217.0503 524.9658,-217.1559"/>
<polyline fill="none" stroke="#000000" points="525.5,-221.2 521.5087,-220.936 "/>
<ellipse fill="none" stroke="#000000" cx="518.3157" cy="-220.7247" rx="3.2" ry="3.2"/>
</g>
</g>
</svg>
