<?xml version="1.0" encoding="UTF-8" standalone="no"?>
<!DOCTYPE svg PUBLIC "-//W3C//DTD SVG 1.1//EN"
 "http://www.w3.org/Graphics/SVG/1.1/DTD/svg11.dtd">
<!-- Generated by graphviz version 2.40.1 (20161225.0304)
 -->
<!-- Title: oneDegreeRelationshipsDiagram Pages: 1 -->
<svg width="499pt" height="303pt"
 viewBox="0.00 0.00 499.00 303.20" xmlns="http://www.w3.org/2000/svg" xmlns:xlink="http://www.w3.org/1999/xlink">
<g id="graph0" class="graph" transform="scale(1 1) rotate(0) translate(4 299.2)">
<title>oneDegreeRelationshipsDiagram</title>
<polygon fill="#ffffff" stroke="transparent" points="-4,4 -4,-299.2 495,-299.2 495,4 -4,4"/>
<text text-anchor="middle" x="72.4936" y="-7.3" font-family="Helvetica,sans-Serif" font-size="11.00" fill="#000000">Generated by SchemaSpy</text>
<!-- _river_cross_section_pl1d -->
<g id="node1" class="node">
<title>_river_cross_section_pl1d</title>
<g id="a_node1"><a xlink:href="../../tables/_river_cross_section_pl1d.html" xlink:title="_river_cross_section_pl1d" target="_top">
<polygon fill="#ffffff" stroke="transparent" points="188,-117.7 188,-251.7 483,-251.7 483,-117.7 188,-117.7"/>
<polygon fill="#f5f5f5" stroke="transparent" points="190.5,-226.7 190.5,-249.7 481.5,-249.7 481.5,-226.7 190.5,-226.7"/>
<polygon fill="none" stroke="#000000" points="190.5,-226.7 190.5,-249.7 481.5,-249.7 481.5,-226.7 190.5,-226.7"/>
<text text-anchor="start" x="195.5" y="-235.3" font-family="Helvetica,sans-Serif" font-weight="bold" font-size="11.00" fill="#000000">_river_cross_section_pl1d</text>
<text text-anchor="start" x="446.5437" y="-234.8" font-family="Helvetica,sans-Serif" font-size="11.00" fill="#000000">[table]</text>
<polygon fill="#ffffff" stroke="transparent" points="190.5,-204.7 190.5,-226.7 362.5,-226.7 362.5,-204.7 190.5,-204.7"/>
<polygon fill="none" stroke="#000000" points="190.5,-204.7 190.5,-226.7 362.5,-226.7 362.5,-204.7 190.5,-204.7"/>
<image xlink:href="../../images/foreignKeys.png" width="11px" height="12px" preserveAspectRatio="xMinYMin meet" x="195.5" y="-221.7"/>
<text text-anchor="start" x="210.5" y="-211.8" font-family="Helvetica,sans-Serif" font-size="11.00" fill="#000000">id</text>
<polygon fill="none" stroke="#000000" points="362.5,-204.7 362.5,-226.7 481.5,-226.7 481.5,-204.7 362.5,-204.7"/>
<text text-anchor="start" x="365.5" y="-212.4" font-family="Helvetica,sans-Serif" font-size="11.00" fill="#000000">int4[10]</text>
<polygon fill="#ffffff" stroke="transparent" points="190.5,-182.7 190.5,-204.7 362.5,-204.7 362.5,-182.7 190.5,-182.7"/>
<polygon fill="none" stroke="#000000" points="190.5,-182.7 190.5,-204.7 362.5,-204.7 362.5,-182.7 190.5,-182.7"/>
<text text-anchor="start" x="210.5" y="-189.8" font-family="Helvetica,sans-Serif" font-size="11.00" fill="#000000">name</text>
<polygon fill="none" stroke="#000000" points="362.5,-182.7 362.5,-204.7 481.5,-204.7 481.5,-182.7 362.5,-182.7"/>
<text text-anchor="start" x="365.5" y="-190.4" font-family="Helvetica,sans-Serif" font-size="11.00" fill="#000000">varchar[24]</text>
<polygon fill="none" stroke="#000000" points="190.5,-160.7 190.5,-182.7 362.5,-182.7 362.5,-160.7 190.5,-160.7"/>
<text text-anchor="start" x="210.5" y="-167.8" font-family="Helvetica,sans-Serif" font-size="11.00" fill="#000000">profile</text>
<polygon fill="none" stroke="#000000" points="362.5,-160.7 362.5,-182.7 481.5,-182.7 481.5,-160.7 362.5,-160.7"/>
<text text-anchor="start" x="365.4485" y="-168.4" font-family="Helvetica,sans-Serif" font-size="11.00" fill="#000000">geometry[2147483647]</text>
<polygon fill="none" stroke="#000000" points="190.5,-138.7 190.5,-160.7 362.5,-160.7 362.5,-138.7 190.5,-138.7"/>
<image xlink:href="../../images/foreignKeys.png" width="11px" height="12px" preserveAspectRatio="xMinYMin meet" x="195.5" y="-155.7"/>
<text text-anchor="start" x="210.5" y="-145.8" font-family="Helvetica,sans-Serif" font-size="11.00" fill="#000000">generated</text>
<polygon fill="none" stroke="#000000" points="362.5,-138.7 362.5,-160.7 481.5,-160.7 481.5,-138.7 362.5,-138.7"/>
<text text-anchor="start" x="365.5" y="-146.4" font-family="Helvetica,sans-Serif" font-size="11.00" fill="#000000">int4[10]</text>
<polygon fill="#ffffff" stroke="transparent" points="190.5,-119.7 190.5,-138.7 267.5,-138.7 267.5,-119.7 190.5,-119.7"/>
<polygon fill="none" stroke="#000000" points="190.5,-119.7 190.5,-138.7 267.5,-138.7 267.5,-119.7 190.5,-119.7"/>
<text text-anchor="start" x="193.5" y="-125.8" font-family="Helvetica,sans-Serif" font-size="11.00" fill="#000000">&lt; 2</text>
<polygon fill="#ffffff" stroke="transparent" points="267.5,-119.7 267.5,-138.7 362.5,-138.7 362.5,-119.7 267.5,-119.7"/>
<polygon fill="none" stroke="#000000" points="267.5,-119.7 267.5,-138.7 362.5,-138.7 362.5,-119.7 267.5,-119.7"/>
<text text-anchor="start" x="327.1105" y="-125.8" font-family="Helvetica,sans-Serif" font-size="11.00" fill="#000000">0 rows</text>
<polygon fill="#ffffff" stroke="transparent" points="362.5,-119.7 362.5,-138.7 481.5,-138.7 481.5,-119.7 362.5,-119.7"/>
<polygon fill="none" stroke="#000000" points="362.5,-119.7 362.5,-138.7 481.5,-138.7 481.5,-119.7 362.5,-119.7"/>
<text text-anchor="start" x="462.9053" y="-125.8" font-family="Helvetica,sans-Serif" font-size="11.00" fill="#000000">0 &gt;</text>
<polygon fill="none" stroke="#000000" stroke-width="2" points="189,-118.7 189,-250.7 482,-250.7 482,-118.7 189,-118.7"/>
</a>
</g>
</g>
<!-- generation_step -->
<g id="node2" class="node">
<title>generation_step</title>
<g id="a_node2"><a xlink:href="../../tables/generation_step.html" xlink:title="generation_step" target="_top">
<polygon fill="#ffffff" stroke="transparent" points="8,-38.2 8,-143.2 139,-143.2 139,-38.2 8,-38.2"/>
<polygon fill="#f5f5f5" stroke="transparent" points="8.5,-119.7 8.5,-142.7 139.5,-142.7 139.5,-119.7 8.5,-119.7"/>
<polygon fill="none" stroke="#000000" points="8.5,-119.7 8.5,-142.7 139.5,-142.7 139.5,-119.7 8.5,-119.7"/>
<text text-anchor="start" x="13.5" y="-128.3" font-family="Helvetica,sans-Serif" font-weight="bold" font-size="11.00" fill="#000000">generation_step</text>
<text text-anchor="start" x="105.0219" y="-127.8" font-family="Helvetica,sans-Serif" font-size="11.00" fill="#000000">[table]</text>
<polygon fill="none" stroke="#000000" points="8.5,-97.7 8.5,-119.7 139.5,-119.7 139.5,-97.7 8.5,-97.7"/>
<image xlink:href="../../images/primaryKeys.png" width="11px" height="12px" preserveAspectRatio="xMinYMin meet" x="13.5" y="-114.7"/>
<text text-anchor="start" x="37.5" y="-104.8" font-family="Helvetica,sans-Serif" font-size="11.00" fill="#000000">id</text>
<polygon fill="#ffffff" stroke="transparent" points="8.5,-75.7 8.5,-97.7 139.5,-97.7 139.5,-75.7 8.5,-75.7"/>
<polygon fill="none" stroke="#000000" points="8.5,-75.7 8.5,-97.7 139.5,-97.7 139.5,-75.7 8.5,-75.7"/>
<text text-anchor="start" x="37.5" y="-82.8" font-family="Helvetica,sans-Serif" font-size="11.00" fill="#000000">name</text>
<polygon fill="none" stroke="#000000" points="8.5,-56.7 8.5,-75.7 139.5,-75.7 139.5,-56.7 8.5,-56.7"/>
<text text-anchor="start" x="11.5" y="-62.8" font-family="Helvetica,sans-Serif" font-size="11.00" fill="#000000">...</text>
<polygon fill="#ffffff" stroke="transparent" points="8.5,-37.7 8.5,-56.7 50.5,-56.7 50.5,-37.7 8.5,-37.7"/>
<polygon fill="none" stroke="#000000" points="8.5,-37.7 8.5,-56.7 50.5,-56.7 50.5,-37.7 8.5,-37.7"/>
<text text-anchor="start" x="11.5" y="-43.8" font-family="Helvetica,sans-Serif" font-size="11.00" fill="#000000"> &#160;</text>
<polygon fill="#ffffff" stroke="transparent" points="50.5,-37.7 50.5,-56.7 103.5,-56.7 103.5,-37.7 50.5,-37.7"/>
<polygon fill="none" stroke="#000000" points="50.5,-37.7 50.5,-56.7 103.5,-56.7 103.5,-37.7 50.5,-37.7"/>
<text text-anchor="start" x="68.1105" y="-43.8" font-family="Helvetica,sans-Serif" font-size="11.00" fill="#000000">0 rows</text>
<polygon fill="#ffffff" stroke="transparent" points="103.5,-37.7 103.5,-56.7 139.5,-56.7 139.5,-37.7 103.5,-37.7"/>
<polygon fill="none" stroke="#000000" points="103.5,-37.7 103.5,-56.7 139.5,-56.7 139.5,-37.7 103.5,-37.7"/>
<text text-anchor="start" x="120.9053" y="-43.8" font-family="Helvetica,sans-Serif" font-size="11.00" fill="#000000">3 &gt;</text>
</a>
</g>
</g>
<!-- _river_cross_section_pl1d&#45;&gt;generation_step -->
<g id="edge1" class="edge">
<title>_river_cross_section_pl1d:w&#45;&gt;generation_step:e</title>
<path fill="none" stroke="#000000" d="M176.6568,-145.3123C162.8325,-134.7354 162.6756,-108.7 139.5,-108.7"/>
<polygon fill="#000000" stroke="#000000" points="182.8739,-147.2828 189.4123,-153.1317 186.6869,-148.4914 190.5,-149.7 190.5,-149.7 190.5,-149.7 186.6869,-148.4914 191.5877,-146.2683 182.8739,-147.2828 182.8739,-147.2828"/>
<ellipse fill="none" stroke="#000000" cx="179.8235" cy="-146.3159" rx="3.2" ry="3.2"/>
</g>
<!-- _river_node -->
<g id="node3" class="node">
<title>_river_node</title>
<g id="a_node3"><a xlink:href="../../tables/_river_node.html" xlink:title="_river_node" target="_top">
<polygon fill="#ffffff" stroke="transparent" points="20,-164.2 20,-291.2 127,-291.2 127,-164.2 20,-164.2"/>
<polygon fill="#f5f5f5" stroke="transparent" points="20.5,-267.7 20.5,-290.7 127.5,-290.7 127.5,-267.7 20.5,-267.7"/>
<polygon fill="none" stroke="#000000" points="20.5,-267.7 20.5,-290.7 127.5,-290.7 127.5,-267.7 20.5,-267.7"/>
<text text-anchor="start" x="25.5" y="-276.3" font-family="Helvetica,sans-Serif" font-weight="bold" font-size="11.00" fill="#000000">_river_node</text>
<text text-anchor="start" x="93.0219" y="-275.8" font-family="Helvetica,sans-Serif" font-size="11.00" fill="#000000">[table]</text>
<polygon fill="#ffffff" stroke="transparent" points="20.5,-245.7 20.5,-267.7 127.5,-267.7 127.5,-245.7 20.5,-245.7"/>
<polygon fill="none" stroke="#000000" points="20.5,-245.7 20.5,-267.7 127.5,-267.7 127.5,-245.7 20.5,-245.7"/>
<image xlink:href="../../images/foreignKeys.png" width="11px" height="12px" preserveAspectRatio="xMinYMin meet" x="25.5" y="-262.7"/>
<text text-anchor="start" x="49.5" y="-252.8" font-family="Helvetica,sans-Serif" font-size="11.00" fill="#000000">id</text>
<polygon fill="none" stroke="#000000" points="20.5,-223.7 20.5,-245.7 127.5,-245.7 127.5,-223.7 20.5,-223.7"/>
<image xlink:href="../../images/foreignKeys.png" width="11px" height="12px" preserveAspectRatio="xMinYMin meet" x="25.5" y="-240.7"/>
<text text-anchor="start" x="49.5" y="-230.8" font-family="Helvetica,sans-Serif" font-size="11.00" fill="#000000">node_type</text>
<polygon fill="none" stroke="#000000" points="20.5,-201.7 20.5,-223.7 127.5,-223.7 127.5,-201.7 20.5,-201.7"/>
<image xlink:href="../../images/foreignKeys.png" width="11px" height="12px" preserveAspectRatio="xMinYMin meet" x="25.5" y="-218.7"/>
<text text-anchor="start" x="49.5" y="-208.8" font-family="Helvetica,sans-Serif" font-size="11.00" fill="#000000">reach</text>
<polygon fill="none" stroke="#000000" points="20.5,-182.7 20.5,-201.7 127.5,-201.7 127.5,-182.7 20.5,-182.7"/>
<text text-anchor="start" x="23.5" y="-188.8" font-family="Helvetica,sans-Serif" font-size="11.00" fill="#000000">...</text>
<polygon fill="#ffffff" stroke="transparent" points="20.5,-163.7 20.5,-182.7 54.5,-182.7 54.5,-163.7 20.5,-163.7"/>
<polygon fill="none" stroke="#000000" points="20.5,-163.7 20.5,-182.7 54.5,-182.7 54.5,-163.7 20.5,-163.7"/>
<text text-anchor="start" x="23.5" y="-169.8" font-family="Helvetica,sans-Serif" font-size="11.00" fill="#000000">&lt; 3</text>
<polygon fill="#ffffff" stroke="transparent" points="54.5,-163.7 54.5,-182.7 99.5,-182.7 99.5,-163.7 54.5,-163.7"/>
<polygon fill="none" stroke="#000000" points="54.5,-163.7 54.5,-182.7 99.5,-182.7 99.5,-163.7 54.5,-163.7"/>
<text text-anchor="start" x="64.1105" y="-169.8" font-family="Helvetica,sans-Serif" font-size="11.00" fill="#000000">0 rows</text>
<polygon fill="#ffffff" stroke="transparent" points="99.5,-163.7 99.5,-182.7 127.5,-182.7 127.5,-163.7 99.5,-163.7"/>
<polygon fill="none" stroke="#000000" points="99.5,-163.7 99.5,-182.7 127.5,-182.7 127.5,-163.7 99.5,-163.7"/>
<text text-anchor="start" x="108.9053" y="-169.8" font-family="Helvetica,sans-Serif" font-size="11.00" fill="#000000">2 &gt;</text>
</a>
</g>
</g>
<!-- _river_cross_section_pl1d&#45;&gt;_river_node -->
<g id="edge2" class="edge">
<title>_river_cross_section_pl1d:w&#45;&gt;_river_node:e</title>
<path fill="none" stroke="#000000" d="M180.1689,-217.2572C157.4756,-224.7463 156.9924,-256.7 127.5,-256.7"/>
<polygon fill="#000000" stroke="#000000" points="189.1127,-211.8639 190.3051,-219.7746 188.723,-220.013 187.5306,-212.1024 189.1127,-211.8639"/>
<polyline fill="none" stroke="#000000" points="190.5,-215.7 186.5447,-216.2962 "/>
<ellipse fill="none" stroke="#000000" cx="183.3804" cy="-216.7732" rx="3.2" ry="3.2"/>
</g>
</g>
</svg>
