<?xml version="1.0" encoding="UTF-8" standalone="no"?>
<!DOCTYPE svg PUBLIC "-//W3C//DTD SVG 1.1//EN"
 "http://www.w3.org/Graphics/SVG/1.1/DTD/svg11.dtd">
<!-- Generated by graphviz version 2.40.1 (20161225.0304)
 -->
<!-- Title: oneDegreeRelationshipsDiagram Pages: 1 -->
<svg width="672pt" height="479pt"
 viewBox="0.00 0.00 672.00 479.20" xmlns="http://www.w3.org/2000/svg" xmlns:xlink="http://www.w3.org/1999/xlink">
<g id="graph0" class="graph" transform="scale(1 1) rotate(0) translate(4 475.2)">
<title>oneDegreeRelationshipsDiagram</title>
<polygon fill="#ffffff" stroke="transparent" points="-4,4 -4,-475.2 668,-475.2 668,4 -4,4"/>
<text text-anchor="middle" x="72.4936" y="-7.3" font-family="Helvetica,sans-Serif" font-size="11.00" fill="#000000">Generated by SchemaSpy</text>
<!-- _river_cross_section_pl1d -->
<g id="node1" class="node">
<title>_river_cross_section_pl1d</title>
<g id="a_node1"><a xlink:href="../../tables/_river_cross_section_pl1d.html" xlink:title="_river_cross_section_pl1d" target="_top">
<polygon fill="#ffffff" stroke="transparent" points="460,-340.2 460,-467.2 650,-467.2 650,-340.2 460,-340.2"/>
<polygon fill="#f5f5f5" stroke="transparent" points="460,-443.7 460,-466.7 650,-466.7 650,-443.7 460,-443.7"/>
<polygon fill="none" stroke="#000000" points="460,-443.7 460,-466.7 650,-466.7 650,-443.7 460,-443.7"/>
<text text-anchor="start" x="465" y="-452.3" font-family="Helvetica,sans-Serif" font-weight="bold" font-size="11.00" fill="#000000">_river_cross_section_pl1d</text>
<text text-anchor="start" x="615.5219" y="-451.8" font-family="Helvetica,sans-Serif" font-size="11.00" fill="#000000">[table]</text>
<polygon fill="#ffffff" stroke="transparent" points="460,-421.7 460,-443.7 650,-443.7 650,-421.7 460,-421.7"/>
<polygon fill="none" stroke="#000000" points="460,-421.7 460,-443.7 650,-443.7 650,-421.7 460,-421.7"/>
<image xlink:href="../../images/foreignKeys.png" width="11px" height="12px" preserveAspectRatio="xMinYMin meet" x="465" y="-438.7"/>
<text text-anchor="start" x="489" y="-428.8" font-family="Helvetica,sans-Serif" font-size="11.00" fill="#000000">id</text>
<polygon fill="#ffffff" stroke="transparent" points="460,-399.7 460,-421.7 650,-421.7 650,-399.7 460,-399.7"/>
<polygon fill="none" stroke="#000000" points="460,-399.7 460,-421.7 650,-421.7 650,-399.7 460,-399.7"/>
<text text-anchor="start" x="489" y="-406.8" font-family="Helvetica,sans-Serif" font-size="11.00" fill="#000000">name</text>
<polygon fill="none" stroke="#000000" points="460,-377.7 460,-399.7 650,-399.7 650,-377.7 460,-377.7"/>
<image xlink:href="../../images/foreignKeys.png" width="11px" height="12px" preserveAspectRatio="xMinYMin meet" x="465" y="-394.7"/>
<text text-anchor="start" x="489" y="-384.8" font-family="Helvetica,sans-Serif" font-size="11.00" fill="#000000">generated</text>
<polygon fill="none" stroke="#000000" points="460,-358.7 460,-377.7 650,-377.7 650,-358.7 460,-358.7"/>
<text text-anchor="start" x="463" y="-364.8" font-family="Helvetica,sans-Serif" font-size="11.00" fill="#000000">...</text>
<polygon fill="#ffffff" stroke="transparent" points="460,-339.7 460,-358.7 540,-358.7 540,-339.7 460,-339.7"/>
<polygon fill="none" stroke="#000000" points="460,-339.7 460,-358.7 540,-358.7 540,-339.7 460,-339.7"/>
<text text-anchor="start" x="463" y="-345.8" font-family="Helvetica,sans-Serif" font-size="11.00" fill="#000000">&lt; 2</text>
<polygon fill="#ffffff" stroke="transparent" points="540,-339.7 540,-358.7 608,-358.7 608,-339.7 540,-339.7"/>
<polygon fill="none" stroke="#000000" points="540,-339.7 540,-358.7 608,-358.7 608,-339.7 540,-339.7"/>
<text text-anchor="start" x="572.6105" y="-345.8" font-family="Helvetica,sans-Serif" font-size="11.00" fill="#000000">0 rows</text>
<polygon fill="#ffffff" stroke="transparent" points="608,-339.7 608,-358.7 650,-358.7 650,-339.7 608,-339.7"/>
<polygon fill="none" stroke="#000000" points="608,-339.7 608,-358.7 650,-358.7 650,-339.7 608,-339.7"/>
<text text-anchor="start" x="640.8862" y="-345.8" font-family="Helvetica,sans-Serif" font-size="11.00" fill="#000000"> &#160;</text>
</a>
</g>
</g>
<!-- _river_node -->
<g id="node2" class="node">
<title>_river_node</title>
<g id="a_node2"><a xlink:href="../../tables/_river_node.html" xlink:title="_river_node" target="_top">
<polygon fill="#ffffff" stroke="transparent" points="154,-238.7 154,-394.7 405,-394.7 405,-238.7 154,-238.7"/>
<polygon fill="#f5f5f5" stroke="transparent" points="156.5,-369.7 156.5,-392.7 403.5,-392.7 403.5,-369.7 156.5,-369.7"/>
<polygon fill="none" stroke="#000000" points="156.5,-369.7 156.5,-392.7 403.5,-392.7 403.5,-369.7 156.5,-369.7"/>
<text text-anchor="start" x="161.5" y="-378.3" font-family="Helvetica,sans-Serif" font-weight="bold" font-size="11.00" fill="#000000">_river_node</text>
<text text-anchor="start" x="368.5437" y="-377.8" font-family="Helvetica,sans-Serif" font-size="11.00" fill="#000000">[table]</text>
<polygon fill="#ffffff" stroke="transparent" points="156.5,-347.7 156.5,-369.7 245.5,-369.7 245.5,-347.7 156.5,-347.7"/>
<polygon fill="none" stroke="#000000" points="156.5,-347.7 156.5,-369.7 245.5,-369.7 245.5,-347.7 156.5,-347.7"/>
<image xlink:href="../../images/foreignKeys.png" width="11px" height="12px" preserveAspectRatio="xMinYMin meet" x="161.5" y="-364.7"/>
<text text-anchor="start" x="176.5" y="-354.8" font-family="Helvetica,sans-Serif" font-size="11.00" fill="#000000">id</text>
<polygon fill="none" stroke="#000000" points="245.5,-347.7 245.5,-369.7 403.5,-369.7 403.5,-347.7 245.5,-347.7"/>
<text text-anchor="start" x="248.5" y="-355.4" font-family="Helvetica,sans-Serif" font-size="11.00" fill="#000000">int4[10]</text>
<polygon fill="none" stroke="#000000" points="156.5,-325.7 156.5,-347.7 245.5,-347.7 245.5,-325.7 156.5,-325.7"/>
<image xlink:href="../../images/foreignKeys.png" width="11px" height="12px" preserveAspectRatio="xMinYMin meet" x="161.5" y="-342.7"/>
<text text-anchor="start" x="176.5" y="-332.8" font-family="Helvetica,sans-Serif" font-size="11.00" fill="#000000">node_type</text>
<polygon fill="none" stroke="#000000" points="245.5,-325.7 245.5,-347.7 403.5,-347.7 403.5,-325.7 245.5,-325.7"/>
<text text-anchor="start" x="248.3773" y="-333.4" font-family="Helvetica,sans-Serif" font-size="11.00" fill="#000000">hydra_node_type[2147483647]</text>
<polygon fill="none" stroke="#000000" points="156.5,-303.7 156.5,-325.7 245.5,-325.7 245.5,-303.7 156.5,-303.7"/>
<image xlink:href="../../images/foreignKeys.png" width="11px" height="12px" preserveAspectRatio="xMinYMin meet" x="161.5" y="-320.7"/>
<text text-anchor="start" x="176.5" y="-310.8" font-family="Helvetica,sans-Serif" font-size="11.00" fill="#000000">reach</text>
<polygon fill="none" stroke="#000000" points="245.5,-303.7 245.5,-325.7 403.5,-325.7 403.5,-303.7 245.5,-303.7"/>
<text text-anchor="start" x="248.5" y="-311.4" font-family="Helvetica,sans-Serif" font-size="11.00" fill="#000000">int4[10]</text>
<polygon fill="none" stroke="#000000" points="156.5,-281.7 156.5,-303.7 245.5,-303.7 245.5,-281.7 156.5,-281.7"/>
<text text-anchor="start" x="176.5" y="-288.8" font-family="Helvetica,sans-Serif" font-size="11.00" fill="#000000">z_ground</text>
<polygon fill="none" stroke="#000000" points="245.5,-281.7 245.5,-303.7 403.5,-303.7 403.5,-281.7 245.5,-281.7"/>
<text text-anchor="start" x="248.5" y="-289.4" font-family="Helvetica,sans-Serif" font-size="11.00" fill="#000000">float4[8,8]</text>
<polygon fill="none" stroke="#000000" points="156.5,-259.7 156.5,-281.7 245.5,-281.7 245.5,-259.7 156.5,-259.7"/>
<text text-anchor="start" x="176.5" y="-266.8" font-family="Helvetica,sans-Serif" font-size="11.00" fill="#000000">area</text>
<polygon fill="none" stroke="#000000" points="245.5,-259.7 245.5,-281.7 403.5,-281.7 403.5,-259.7 245.5,-259.7"/>
<text text-anchor="start" x="248.5" y="-267.4" font-family="Helvetica,sans-Serif" font-size="11.00" fill="#000000">float4[8,8]</text>
<polygon fill="#ffffff" stroke="transparent" points="156.5,-240.7 156.5,-259.7 192.5,-259.7 192.5,-240.7 156.5,-240.7"/>
<polygon fill="none" stroke="#000000" points="156.5,-240.7 156.5,-259.7 192.5,-259.7 192.5,-240.7 156.5,-240.7"/>
<text text-anchor="start" x="159.5" y="-246.8" font-family="Helvetica,sans-Serif" font-size="11.00" fill="#000000">&lt; 3</text>
<polygon fill="#ffffff" stroke="transparent" points="192.5,-240.7 192.5,-259.7 245.5,-259.7 245.5,-240.7 192.5,-240.7"/>
<polygon fill="none" stroke="#000000" points="192.5,-240.7 192.5,-259.7 245.5,-259.7 245.5,-240.7 192.5,-240.7"/>
<text text-anchor="start" x="210.1105" y="-246.8" font-family="Helvetica,sans-Serif" font-size="11.00" fill="#000000">0 rows</text>
<polygon fill="#ffffff" stroke="transparent" points="245.5,-240.7 245.5,-259.7 403.5,-259.7 403.5,-240.7 245.5,-240.7"/>
<polygon fill="none" stroke="#000000" points="245.5,-240.7 245.5,-259.7 403.5,-259.7 403.5,-240.7 245.5,-240.7"/>
<text text-anchor="start" x="384.9053" y="-246.8" font-family="Helvetica,sans-Serif" font-size="11.00" fill="#000000">2 &gt;</text>
<polygon fill="none" stroke="#000000" stroke-width="2" points="155,-239.7 155,-393.7 404,-393.7 404,-239.7 155,-239.7"/>
</a>
</g>
</g>
<!-- _river_cross_section_pl1d&#45;&gt;_river_node -->
<g id="edge1" class="edge">
<title>_river_cross_section_pl1d:w&#45;&gt;_river_node:e</title>
<path fill="none" stroke="#000000" d="M449.6863,-430.7207C423.1043,-418.9526 440.8384,-358.7 403.5,-358.7"/>
<polygon fill="#000000" stroke="#000000" points="459.9683,-428.6209 458.4604,-436.4775 456.8891,-436.176 458.3969,-428.3193 459.9683,-428.6209"/>
<polyline fill="none" stroke="#000000" points="460,-432.7 456.0717,-431.9461 "/>
<ellipse fill="none" stroke="#000000" cx="452.929" cy="-431.3429" rx="3.2" ry="3.2"/>
</g>
<!-- _node -->
<g id="node4" class="node">
<title>_node</title>
<g id="a_node4"><a xlink:href="../../tables/_node.html" xlink:title="_node" target="_top">
<polygon fill="#ffffff" stroke="transparent" points="8,-200.2 8,-393.2 105,-393.2 105,-200.2 8,-200.2"/>
<polygon fill="#f5f5f5" stroke="transparent" points="8.5,-369.7 8.5,-392.7 105.5,-392.7 105.5,-369.7 8.5,-369.7"/>
<polygon fill="none" stroke="#000000" points="8.5,-369.7 8.5,-392.7 105.5,-392.7 105.5,-369.7 8.5,-369.7"/>
<text text-anchor="start" x="13.5" y="-378.3" font-family="Helvetica,sans-Serif" font-weight="bold" font-size="11.00" fill="#000000">_node</text>
<text text-anchor="start" x="70.5437" y="-377.8" font-family="Helvetica,sans-Serif" font-size="11.00" fill="#000000">[table]</text>
<polygon fill="none" stroke="#000000" points="8.5,-347.7 8.5,-369.7 105.5,-369.7 105.5,-347.7 8.5,-347.7"/>
<image xlink:href="../../images/primaryKeys.png" width="11px" height="12px" preserveAspectRatio="xMinYMin meet" x="13.5" y="-364.7"/>
<text text-anchor="start" x="28.5" y="-354.8" font-family="Helvetica,sans-Serif" font-size="11.00" fill="#000000">id</text>
<polygon fill="#ffffff" stroke="transparent" points="8.5,-325.7 8.5,-347.7 105.5,-347.7 105.5,-325.7 8.5,-325.7"/>
<polygon fill="none" stroke="#000000" points="8.5,-325.7 8.5,-347.7 105.5,-347.7 105.5,-325.7 8.5,-325.7"/>
<text text-anchor="start" x="28.5" y="-332.8" font-family="Helvetica,sans-Serif" font-size="11.00" fill="#000000">node_type</text>
<polygon fill="#ffffff" stroke="transparent" points="8.5,-303.7 8.5,-325.7 105.5,-325.7 105.5,-303.7 8.5,-303.7"/>
<polygon fill="none" stroke="#000000" points="8.5,-303.7 8.5,-325.7 105.5,-325.7 105.5,-303.7 8.5,-303.7"/>
<text text-anchor="start" x="28.5" y="-310.8" font-family="Helvetica,sans-Serif" font-size="11.00" fill="#000000">name</text>
<polygon fill="#ffffff" stroke="transparent" points="8.5,-281.7 8.5,-303.7 105.5,-303.7 105.5,-281.7 8.5,-281.7"/>
<polygon fill="none" stroke="#000000" points="8.5,-281.7 8.5,-303.7 105.5,-303.7 105.5,-281.7 8.5,-281.7"/>
<text text-anchor="start" x="28.5" y="-288.8" font-family="Helvetica,sans-Serif" font-size="11.00" fill="#000000">geom</text>
<polygon fill="#ffffff" stroke="transparent" points="8.5,-259.7 8.5,-281.7 105.5,-281.7 105.5,-259.7 8.5,-259.7"/>
<polygon fill="none" stroke="#000000" points="8.5,-259.7 8.5,-281.7 105.5,-281.7 105.5,-259.7 8.5,-259.7"/>
<image xlink:href="../../images/foreignKeys.png" width="11px" height="12px" preserveAspectRatio="xMinYMin meet" x="13.5" y="-276.7"/>
<text text-anchor="start" x="28.5" y="-266.8" font-family="Helvetica,sans-Serif" font-size="11.00" fill="#000000">generated</text>
<polygon fill="#ffffff" stroke="transparent" points="8.5,-237.7 8.5,-259.7 105.5,-259.7 105.5,-237.7 8.5,-237.7"/>
<polygon fill="none" stroke="#000000" points="8.5,-237.7 8.5,-259.7 105.5,-259.7 105.5,-237.7 8.5,-237.7"/>
<text text-anchor="start" x="28.5" y="-244.8" font-family="Helvetica,sans-Serif" font-size="11.00" fill="#000000">validity</text>
<polygon fill="none" stroke="#000000" points="8.5,-218.7 8.5,-237.7 105.5,-237.7 105.5,-218.7 8.5,-218.7"/>
<text text-anchor="start" x="11.5" y="-224.8" font-family="Helvetica,sans-Serif" font-size="11.00" fill="#000000">...</text>
<polygon fill="#ffffff" stroke="transparent" points="8.5,-199.7 8.5,-218.7 34.5,-218.7 34.5,-199.7 8.5,-199.7"/>
<polygon fill="none" stroke="#000000" points="8.5,-199.7 8.5,-218.7 34.5,-218.7 34.5,-199.7 8.5,-199.7"/>
<text text-anchor="start" x="11.5" y="-205.8" font-family="Helvetica,sans-Serif" font-size="11.00" fill="#000000">&lt; 1</text>
<polygon fill="#ffffff" stroke="transparent" points="34.5,-199.7 34.5,-218.7 75.5,-218.7 75.5,-199.7 34.5,-199.7"/>
<polygon fill="none" stroke="#000000" points="34.5,-199.7 34.5,-218.7 75.5,-218.7 75.5,-199.7 34.5,-199.7"/>
<text text-anchor="start" x="40.1105" y="-205.8" font-family="Helvetica,sans-Serif" font-size="11.00" fill="#000000">0 rows</text>
<polygon fill="#ffffff" stroke="transparent" points="75.5,-199.7 75.5,-218.7 105.5,-218.7 105.5,-199.7 75.5,-199.7"/>
<polygon fill="none" stroke="#000000" points="75.5,-199.7 75.5,-218.7 105.5,-218.7 105.5,-199.7 75.5,-199.7"/>
<text text-anchor="start" x="80.7904" y="-205.8" font-family="Helvetica,sans-Serif" font-size="11.00" fill="#000000">24 &gt;</text>
</a>
</g>
</g>
<!-- _river_node&#45;&gt;_node -->
<g id="edge3" class="edge">
<title>_river_node:w&#45;&gt;_node:e</title>
<path fill="none" stroke="#000000" d="M145.7307,-358.7C131.248,-358.7 124.0937,-358.7 105.5,-358.7"/>
<polygon fill="#000000" stroke="#000000" points="155.7,-354.7 155.7,-362.7 154.1,-362.7 154.1,-354.7 155.7,-354.7"/>
<polyline fill="none" stroke="#000000" points="156.5,-358.7 152.5,-358.7 "/>
<ellipse fill="none" stroke="#000000" cx="149.3" cy="-358.7001" rx="3.2" ry="3.2"/>
</g>
<!-- _river_node&#45;&gt;_node -->
<g id="edge4" class="edge">
<title>_river_node:w&#45;&gt;_node:e</title>
<path fill="none" stroke="#000000" d="M141.776,-336.7C129.7815,-336.7 122.3229,-336.7 105.5,-336.7"/>
<polygon fill="#000000" stroke="#000000" points="148.5,-336.7001 156.5,-340.3 152.5,-336.7 156.5,-336.7 156.5,-336.7 156.5,-336.7 152.5,-336.7 156.5,-333.1 148.5,-336.7001 148.5,-336.7001"/>
<ellipse fill="none" stroke="#000000" cx="145.3" cy="-336.7001" rx="3.2" ry="3.2"/>
</g>
<!-- reach -->
<g id="node5" class="node">
<title>reach</title>
<g id="a_node5"><a xlink:href="../../tables/reach.html" xlink:title="reach" target="_top">
<polygon fill="#ffffff" stroke="transparent" points="19.5,-52.2 19.5,-179.2 93.5,-179.2 93.5,-52.2 19.5,-52.2"/>
<polygon fill="#f5f5f5" stroke="transparent" points="19.5,-155.7 19.5,-178.7 93.5,-178.7 93.5,-155.7 19.5,-155.7"/>
<polygon fill="none" stroke="#000000" points="19.5,-155.7 19.5,-178.7 93.5,-178.7 93.5,-155.7 19.5,-155.7"/>
<text text-anchor="start" x="24.5" y="-164.3" font-family="Helvetica,sans-Serif" font-weight="bold" font-size="11.00" fill="#000000">reach</text>
<text text-anchor="start" x="58.5437" y="-163.8" font-family="Helvetica,sans-Serif" font-size="11.00" fill="#000000">[table]</text>
<polygon fill="none" stroke="#000000" points="19.5,-133.7 19.5,-155.7 93.5,-155.7 93.5,-133.7 19.5,-133.7"/>
<image xlink:href="../../images/primaryKeys.png" width="11px" height="12px" preserveAspectRatio="xMinYMin meet" x="24.5" y="-150.7"/>
<text text-anchor="start" x="39.5" y="-140.8" font-family="Helvetica,sans-Serif" font-size="11.00" fill="#000000">id</text>
<polygon fill="#ffffff" stroke="transparent" points="19.5,-111.7 19.5,-133.7 93.5,-133.7 93.5,-111.7 19.5,-111.7"/>
<polygon fill="none" stroke="#000000" points="19.5,-111.7 19.5,-133.7 93.5,-133.7 93.5,-111.7 19.5,-111.7"/>
<text text-anchor="start" x="39.5" y="-118.8" font-family="Helvetica,sans-Serif" font-size="11.00" fill="#000000">name</text>
<polygon fill="#ffffff" stroke="transparent" points="19.5,-89.7 19.5,-111.7 93.5,-111.7 93.5,-89.7 19.5,-89.7"/>
<polygon fill="none" stroke="#000000" points="19.5,-89.7 19.5,-111.7 93.5,-111.7 93.5,-89.7 19.5,-89.7"/>
<text text-anchor="start" x="39.5" y="-96.8" font-family="Helvetica,sans-Serif" font-size="11.00" fill="#000000">geom</text>
<polygon fill="none" stroke="#000000" points="19.5,-70.7 19.5,-89.7 93.5,-89.7 93.5,-70.7 19.5,-70.7"/>
<text text-anchor="start" x="22.5" y="-76.8" font-family="Helvetica,sans-Serif" font-size="11.00" fill="#000000">...</text>
<polygon fill="#ffffff" stroke="transparent" points="19.5,-51.7 19.5,-70.7 32.5,-70.7 32.5,-51.7 19.5,-51.7"/>
<polygon fill="none" stroke="#000000" points="19.5,-51.7 19.5,-70.7 32.5,-70.7 32.5,-51.7 19.5,-51.7"/>
<text text-anchor="start" x="22.5" y="-57.8" font-family="Helvetica,sans-Serif" font-size="11.00" fill="#000000"> &#160;</text>
<polygon fill="#ffffff" stroke="transparent" points="32.5,-51.7 32.5,-70.7 71.5,-70.7 71.5,-51.7 32.5,-51.7"/>
<polygon fill="none" stroke="#000000" points="32.5,-51.7 32.5,-70.7 71.5,-70.7 71.5,-51.7 32.5,-51.7"/>
<text text-anchor="start" x="36.1105" y="-57.8" font-family="Helvetica,sans-Serif" font-size="11.00" fill="#000000">0 rows</text>
<polygon fill="#ffffff" stroke="transparent" points="71.5,-51.7 71.5,-70.7 93.5,-70.7 93.5,-51.7 71.5,-51.7"/>
<polygon fill="none" stroke="#000000" points="71.5,-51.7 71.5,-70.7 93.5,-70.7 93.5,-51.7 71.5,-51.7"/>
<text text-anchor="start" x="74.9053" y="-57.8" font-family="Helvetica,sans-Serif" font-size="11.00" fill="#000000">1 &gt;</text>
</a>
</g>
</g>
<!-- _river_node&#45;&gt;reach -->
<g id="edge5" class="edge">
<title>_river_node:w&#45;&gt;reach:e</title>
<path fill="none" stroke="#000000" d="M142.0299,-312.2968C88.8423,-291.6342 168.4114,-144.7 93.5,-144.7"/>
<polygon fill="#000000" stroke="#000000" points="148.6081,-313.3893 155.9102,-318.2514 152.554,-314.0446 156.5,-314.7 156.5,-314.7 156.5,-314.7 152.554,-314.0446 157.0898,-311.1486 148.6081,-313.3893 148.6081,-313.3893"/>
<ellipse fill="none" stroke="#000000" cx="145.4513" cy="-312.865" rx="3.2" ry="3.2"/>
</g>
<!-- _river_cross_section_profile -->
<g id="node3" class="node">
<title>_river_cross_section_profile</title>
<g id="a_node3"><a xlink:href="../../tables/_river_cross_section_profile.html" xlink:title="_river_cross_section_profile" target="_top">
<polygon fill="#ffffff" stroke="transparent" points="454,-38.2 454,-319.2 656,-319.2 656,-38.2 454,-38.2"/>
<polygon fill="#f5f5f5" stroke="transparent" points="454,-295.7 454,-318.7 656,-318.7 656,-295.7 454,-295.7"/>
<polygon fill="none" stroke="#000000" points="454,-295.7 454,-318.7 656,-318.7 656,-295.7 454,-295.7"/>
<text text-anchor="start" x="459" y="-304.3" font-family="Helvetica,sans-Serif" font-weight="bold" font-size="11.00" fill="#000000">_river_cross_section_profile</text>
<text text-anchor="start" x="621.5219" y="-303.8" font-family="Helvetica,sans-Serif" font-size="11.00" fill="#000000">[table]</text>
<polygon fill="#ffffff" stroke="transparent" points="454,-273.7 454,-295.7 656,-295.7 656,-273.7 454,-273.7"/>
<polygon fill="none" stroke="#000000" points="454,-273.7 454,-295.7 656,-295.7 656,-273.7 454,-273.7"/>
<image xlink:href="../../images/foreignKeys.png" width="11px" height="12px" preserveAspectRatio="xMinYMin meet" x="459" y="-290.7"/>
<text text-anchor="start" x="482" y="-280.8" font-family="Helvetica,sans-Serif" font-size="11.00" fill="#000000">id</text>
<polygon fill="#ffffff" stroke="transparent" points="454,-251.7 454,-273.7 656,-273.7 656,-251.7 454,-251.7"/>
<polygon fill="none" stroke="#000000" points="454,-251.7 454,-273.7 656,-273.7 656,-251.7 454,-251.7"/>
<text text-anchor="start" x="482" y="-258.8" font-family="Helvetica,sans-Serif" font-size="11.00" fill="#000000">name</text>
<polygon fill="none" stroke="#000000" points="454,-229.7 454,-251.7 656,-251.7 656,-229.7 454,-229.7"/>
<image xlink:href="../../images/foreignKeys.png" width="11px" height="12px" preserveAspectRatio="xMinYMin meet" x="459" y="-246.7"/>
<text text-anchor="start" x="482" y="-236.8" font-family="Helvetica,sans-Serif" font-size="11.00" fill="#000000">up_cp_geom</text>
<polygon fill="none" stroke="#000000" points="454,-207.7 454,-229.7 656,-229.7 656,-207.7 454,-207.7"/>
<image xlink:href="../../images/foreignKeys.png" width="11px" height="12px" preserveAspectRatio="xMinYMin meet" x="459" y="-224.7"/>
<text text-anchor="start" x="482" y="-214.8" font-family="Helvetica,sans-Serif" font-size="11.00" fill="#000000">up_op_geom</text>
<polygon fill="none" stroke="#000000" points="454,-185.7 454,-207.7 656,-207.7 656,-185.7 454,-185.7"/>
<image xlink:href="../../images/foreignKeys.png" width="11px" height="12px" preserveAspectRatio="xMinYMin meet" x="459" y="-202.7"/>
<text text-anchor="start" x="482" y="-192.8" font-family="Helvetica,sans-Serif" font-size="11.00" fill="#000000">up_vcs_geom</text>
<polygon fill="none" stroke="#000000" points="454,-163.7 454,-185.7 656,-185.7 656,-163.7 454,-163.7"/>
<image xlink:href="../../images/foreignKeys.png" width="11px" height="12px" preserveAspectRatio="xMinYMin meet" x="459" y="-180.7"/>
<text text-anchor="start" x="482" y="-170.8" font-family="Helvetica,sans-Serif" font-size="11.00" fill="#000000">up_vcs_topo_geom</text>
<polygon fill="none" stroke="#000000" points="454,-141.7 454,-163.7 656,-163.7 656,-141.7 454,-141.7"/>
<image xlink:href="../../images/foreignKeys.png" width="11px" height="12px" preserveAspectRatio="xMinYMin meet" x="459" y="-158.7"/>
<text text-anchor="start" x="482" y="-148.8" font-family="Helvetica,sans-Serif" font-size="11.00" fill="#000000">down_cp_geom</text>
<polygon fill="none" stroke="#000000" points="454,-119.7 454,-141.7 656,-141.7 656,-119.7 454,-119.7"/>
<image xlink:href="../../images/foreignKeys.png" width="11px" height="12px" preserveAspectRatio="xMinYMin meet" x="459" y="-136.7"/>
<text text-anchor="start" x="482" y="-126.8" font-family="Helvetica,sans-Serif" font-size="11.00" fill="#000000">down_op_geom</text>
<polygon fill="none" stroke="#000000" points="454,-97.7 454,-119.7 656,-119.7 656,-97.7 454,-97.7"/>
<image xlink:href="../../images/foreignKeys.png" width="11px" height="12px" preserveAspectRatio="xMinYMin meet" x="459" y="-114.7"/>
<text text-anchor="start" x="482" y="-104.8" font-family="Helvetica,sans-Serif" font-size="11.00" fill="#000000">down_vcs_geom</text>
<polygon fill="none" stroke="#000000" points="454,-75.7 454,-97.7 656,-97.7 656,-75.7 454,-75.7"/>
<image xlink:href="../../images/foreignKeys.png" width="11px" height="12px" preserveAspectRatio="xMinYMin meet" x="459" y="-92.7"/>
<text text-anchor="start" x="482" y="-82.8" font-family="Helvetica,sans-Serif" font-size="11.00" fill="#000000">down_vcs_topo_geom</text>
<polygon fill="none" stroke="#000000" points="454,-56.7 454,-75.7 656,-75.7 656,-56.7 454,-56.7"/>
<text text-anchor="start" x="457" y="-62.8" font-family="Helvetica,sans-Serif" font-size="11.00" fill="#000000">...</text>
<polygon fill="#ffffff" stroke="transparent" points="454,-37.7 454,-56.7 540,-56.7 540,-37.7 454,-37.7"/>
<polygon fill="none" stroke="#000000" points="454,-37.7 454,-56.7 540,-56.7 540,-37.7 454,-37.7"/>
<text text-anchor="start" x="457" y="-43.8" font-family="Helvetica,sans-Serif" font-size="11.00" fill="#000000">&lt; 9</text>
<polygon fill="#ffffff" stroke="transparent" points="540,-37.7 540,-56.7 611,-56.7 611,-37.7 540,-37.7"/>
<polygon fill="none" stroke="#000000" points="540,-37.7 540,-56.7 611,-56.7 611,-37.7 540,-37.7"/>
<text text-anchor="start" x="575.6105" y="-43.8" font-family="Helvetica,sans-Serif" font-size="11.00" fill="#000000">0 rows</text>
<polygon fill="#ffffff" stroke="transparent" points="611,-37.7 611,-56.7 656,-56.7 656,-37.7 611,-37.7"/>
<polygon fill="none" stroke="#000000" points="611,-37.7 611,-56.7 656,-56.7 656,-37.7 611,-37.7"/>
<text text-anchor="start" x="646.8862" y="-43.8" font-family="Helvetica,sans-Serif" font-size="11.00" fill="#000000"> &#160;</text>
</a>
</g>
</g>
<!-- _river_cross_section_profile&#45;&gt;_river_node -->
<g id="edge2" class="edge">
<title>_river_cross_section_profile:w&#45;&gt;_river_node:e</title>
<path fill="none" stroke="#000000" d="M443.5407,-286.9958C419.5612,-299.4862 439.118,-358.7 403.5,-358.7"/>
<polygon fill="#000000" stroke="#000000" points="452.361,-280.9645 454.0762,-288.7785 452.5134,-289.1216 450.7982,-281.3076 452.361,-280.9645"/>
<polyline fill="none" stroke="#000000" points="454,-284.7 450.093,-285.5576 "/>
<ellipse fill="none" stroke="#000000" cx="446.9674" cy="-286.2437" rx="3.2" ry="3.2"/>
</g>
</g>
</svg>
