<?xml version="1.0" encoding="UTF-8" standalone="no"?>
<!DOCTYPE svg PUBLIC "-//W3C//DTD SVG 1.1//EN"
 "http://www.w3.org/Graphics/SVG/1.1/DTD/svg11.dtd">
<!-- Generated by graphviz version 2.40.1 (20161225.0304)
 -->
<!-- Title: oneDegreeRelationshipsDiagram Pages: 1 -->
<svg width="434pt" height="371pt"
 viewBox="0.00 0.00 434.00 370.70" xmlns="http://www.w3.org/2000/svg" xmlns:xlink="http://www.w3.org/1999/xlink">
<g id="graph0" class="graph" transform="scale(1 1) rotate(0) translate(4 366.7)">
<title>oneDegreeRelationshipsDiagram</title>
<polygon fill="#ffffff" stroke="transparent" points="-4,4 -4,-366.7 430,-366.7 430,4 -4,4"/>
<text text-anchor="middle" x="72.4936" y="-7.3" font-family="Helvetica,sans-Serif" font-size="11.00" fill="#000000">Generated by SchemaSpy</text>
<!-- _station_node -->
<g id="node1" class="node">
<title>_station_node</title>
<g id="a_node1"><a xlink:href="../../tables/_station_node.html" xlink:title="_station_node" target="_top">
<polygon fill="#ffffff" stroke="transparent" points="154,-202.7 154,-358.7 418,-358.7 418,-202.7 154,-202.7"/>
<polygon fill="#f5f5f5" stroke="transparent" points="156,-333.7 156,-356.7 416,-356.7 416,-333.7 156,-333.7"/>
<polygon fill="none" stroke="#000000" points="156,-333.7 156,-356.7 416,-356.7 416,-333.7 156,-333.7"/>
<text text-anchor="start" x="161" y="-342.3" font-family="Helvetica,sans-Serif" font-weight="bold" font-size="11.00" fill="#000000">_station_node</text>
<text text-anchor="start" x="381.0437" y="-341.8" font-family="Helvetica,sans-Serif" font-size="11.00" fill="#000000">[table]</text>
<polygon fill="#ffffff" stroke="transparent" points="156,-311.7 156,-333.7 258,-333.7 258,-311.7 156,-311.7"/>
<polygon fill="none" stroke="#000000" points="156,-311.7 156,-333.7 258,-333.7 258,-311.7 156,-311.7"/>
<image xlink:href="../../images/foreignKeys.png" width="11px" height="12px" preserveAspectRatio="xMinYMin meet" x="161" y="-328.7"/>
<text text-anchor="start" x="176" y="-318.8" font-family="Helvetica,sans-Serif" font-size="11.00" fill="#000000">id</text>
<polygon fill="none" stroke="#000000" points="258,-311.7 258,-333.7 416,-333.7 416,-311.7 258,-311.7"/>
<text text-anchor="start" x="261" y="-319.4" font-family="Helvetica,sans-Serif" font-size="11.00" fill="#000000">int4[10]</text>
<polygon fill="none" stroke="#000000" points="156,-289.7 156,-311.7 258,-311.7 258,-289.7 156,-289.7"/>
<image xlink:href="../../images/foreignKeys.png" width="11px" height="12px" preserveAspectRatio="xMinYMin meet" x="161" y="-306.7"/>
<text text-anchor="start" x="176" y="-296.8" font-family="Helvetica,sans-Serif" font-size="11.00" fill="#000000">node_type</text>
<polygon fill="none" stroke="#000000" points="258,-289.7 258,-311.7 416,-311.7 416,-289.7 258,-289.7"/>
<text text-anchor="start" x="260.8773" y="-297.4" font-family="Helvetica,sans-Serif" font-size="11.00" fill="#000000">hydra_node_type[2147483647]</text>
<polygon fill="none" stroke="#000000" points="156,-267.7 156,-289.7 258,-289.7 258,-267.7 156,-267.7"/>
<text text-anchor="start" x="176" y="-274.8" font-family="Helvetica,sans-Serif" font-size="11.00" fill="#000000">area</text>
<polygon fill="none" stroke="#000000" points="258,-267.7 258,-289.7 416,-289.7 416,-267.7 258,-267.7"/>
<text text-anchor="start" x="261" y="-275.4" font-family="Helvetica,sans-Serif" font-size="11.00" fill="#000000">float4[8,8]</text>
<polygon fill="none" stroke="#000000" points="156,-245.7 156,-267.7 258,-267.7 258,-245.7 156,-245.7"/>
<text text-anchor="start" x="176" y="-252.8" font-family="Helvetica,sans-Serif" font-size="11.00" fill="#000000">z_invert</text>
<polygon fill="none" stroke="#000000" points="258,-245.7 258,-267.7 416,-267.7 416,-245.7 258,-245.7"/>
<text text-anchor="start" x="261" y="-253.4" font-family="Helvetica,sans-Serif" font-size="11.00" fill="#000000">float4[8,8]</text>
<polygon fill="none" stroke="#000000" points="156,-223.7 156,-245.7 258,-245.7 258,-223.7 156,-223.7"/>
<image xlink:href="../../images/foreignKeys.png" width="11px" height="12px" preserveAspectRatio="xMinYMin meet" x="161" y="-240.7"/>
<text text-anchor="start" x="176" y="-230.8" font-family="Helvetica,sans-Serif" font-size="11.00" fill="#000000">station</text>
<polygon fill="none" stroke="#000000" points="258,-223.7 258,-245.7 416,-245.7 416,-223.7 258,-223.7"/>
<text text-anchor="start" x="261" y="-231.4" font-family="Helvetica,sans-Serif" font-size="11.00" fill="#000000">int4[10]</text>
<polygon fill="#ffffff" stroke="transparent" points="156,-204.7 156,-223.7 198,-223.7 198,-204.7 156,-204.7"/>
<polygon fill="none" stroke="#000000" points="156,-204.7 156,-223.7 198,-223.7 198,-204.7 156,-204.7"/>
<text text-anchor="start" x="159" y="-210.8" font-family="Helvetica,sans-Serif" font-size="11.00" fill="#000000">&lt; 3</text>
<polygon fill="#ffffff" stroke="transparent" points="198,-204.7 198,-223.7 258,-223.7 258,-204.7 198,-204.7"/>
<polygon fill="none" stroke="#000000" points="198,-204.7 198,-223.7 258,-223.7 258,-204.7 198,-204.7"/>
<text text-anchor="start" x="222.6105" y="-210.8" font-family="Helvetica,sans-Serif" font-size="11.00" fill="#000000">0 rows</text>
<polygon fill="#ffffff" stroke="transparent" points="258,-204.7 258,-223.7 416,-223.7 416,-204.7 258,-204.7"/>
<polygon fill="none" stroke="#000000" points="258,-204.7 258,-223.7 416,-223.7 416,-204.7 258,-204.7"/>
<text text-anchor="start" x="397.4053" y="-210.8" font-family="Helvetica,sans-Serif" font-size="11.00" fill="#000000">0 &gt;</text>
<polygon fill="none" stroke="#000000" stroke-width="2" points="155,-203.7 155,-357.7 417,-357.7 417,-203.7 155,-203.7"/>
</a>
</g>
</g>
<!-- _node -->
<g id="node2" class="node">
<title>_node</title>
<g id="a_node2"><a xlink:href="../../tables/_node.html" xlink:title="_node" target="_top">
<polygon fill="#ffffff" stroke="transparent" points="8,-164.2 8,-357.2 105,-357.2 105,-164.2 8,-164.2"/>
<polygon fill="#f5f5f5" stroke="transparent" points="8.5,-333.7 8.5,-356.7 105.5,-356.7 105.5,-333.7 8.5,-333.7"/>
<polygon fill="none" stroke="#000000" points="8.5,-333.7 8.5,-356.7 105.5,-356.7 105.5,-333.7 8.5,-333.7"/>
<text text-anchor="start" x="13.5" y="-342.3" font-family="Helvetica,sans-Serif" font-weight="bold" font-size="11.00" fill="#000000">_node</text>
<text text-anchor="start" x="70.5437" y="-341.8" font-family="Helvetica,sans-Serif" font-size="11.00" fill="#000000">[table]</text>
<polygon fill="none" stroke="#000000" points="8.5,-311.7 8.5,-333.7 105.5,-333.7 105.5,-311.7 8.5,-311.7"/>
<image xlink:href="../../images/primaryKeys.png" width="11px" height="12px" preserveAspectRatio="xMinYMin meet" x="13.5" y="-328.7"/>
<text text-anchor="start" x="28.5" y="-318.8" font-family="Helvetica,sans-Serif" font-size="11.00" fill="#000000">id</text>
<polygon fill="#ffffff" stroke="transparent" points="8.5,-289.7 8.5,-311.7 105.5,-311.7 105.5,-289.7 8.5,-289.7"/>
<polygon fill="none" stroke="#000000" points="8.5,-289.7 8.5,-311.7 105.5,-311.7 105.5,-289.7 8.5,-289.7"/>
<text text-anchor="start" x="28.5" y="-296.8" font-family="Helvetica,sans-Serif" font-size="11.00" fill="#000000">node_type</text>
<polygon fill="#ffffff" stroke="transparent" points="8.5,-267.7 8.5,-289.7 105.5,-289.7 105.5,-267.7 8.5,-267.7"/>
<polygon fill="none" stroke="#000000" points="8.5,-267.7 8.5,-289.7 105.5,-289.7 105.5,-267.7 8.5,-267.7"/>
<text text-anchor="start" x="28.5" y="-274.8" font-family="Helvetica,sans-Serif" font-size="11.00" fill="#000000">name</text>
<polygon fill="#ffffff" stroke="transparent" points="8.5,-245.7 8.5,-267.7 105.5,-267.7 105.5,-245.7 8.5,-245.7"/>
<polygon fill="none" stroke="#000000" points="8.5,-245.7 8.5,-267.7 105.5,-267.7 105.5,-245.7 8.5,-245.7"/>
<text text-anchor="start" x="28.5" y="-252.8" font-family="Helvetica,sans-Serif" font-size="11.00" fill="#000000">geom</text>
<polygon fill="#ffffff" stroke="transparent" points="8.5,-223.7 8.5,-245.7 105.5,-245.7 105.5,-223.7 8.5,-223.7"/>
<polygon fill="none" stroke="#000000" points="8.5,-223.7 8.5,-245.7 105.5,-245.7 105.5,-223.7 8.5,-223.7"/>
<image xlink:href="../../images/foreignKeys.png" width="11px" height="12px" preserveAspectRatio="xMinYMin meet" x="13.5" y="-240.7"/>
<text text-anchor="start" x="28.5" y="-230.8" font-family="Helvetica,sans-Serif" font-size="11.00" fill="#000000">generated</text>
<polygon fill="#ffffff" stroke="transparent" points="8.5,-201.7 8.5,-223.7 105.5,-223.7 105.5,-201.7 8.5,-201.7"/>
<polygon fill="none" stroke="#000000" points="8.5,-201.7 8.5,-223.7 105.5,-223.7 105.5,-201.7 8.5,-201.7"/>
<text text-anchor="start" x="28.5" y="-208.8" font-family="Helvetica,sans-Serif" font-size="11.00" fill="#000000">validity</text>
<polygon fill="none" stroke="#000000" points="8.5,-182.7 8.5,-201.7 105.5,-201.7 105.5,-182.7 8.5,-182.7"/>
<text text-anchor="start" x="11.5" y="-188.8" font-family="Helvetica,sans-Serif" font-size="11.00" fill="#000000">...</text>
<polygon fill="#ffffff" stroke="transparent" points="8.5,-163.7 8.5,-182.7 34.5,-182.7 34.5,-163.7 8.5,-163.7"/>
<polygon fill="none" stroke="#000000" points="8.5,-163.7 8.5,-182.7 34.5,-182.7 34.5,-163.7 8.5,-163.7"/>
<text text-anchor="start" x="11.5" y="-169.8" font-family="Helvetica,sans-Serif" font-size="11.00" fill="#000000">&lt; 1</text>
<polygon fill="#ffffff" stroke="transparent" points="34.5,-163.7 34.5,-182.7 75.5,-182.7 75.5,-163.7 34.5,-163.7"/>
<polygon fill="none" stroke="#000000" points="34.5,-163.7 34.5,-182.7 75.5,-182.7 75.5,-163.7 34.5,-163.7"/>
<text text-anchor="start" x="40.1105" y="-169.8" font-family="Helvetica,sans-Serif" font-size="11.00" fill="#000000">0 rows</text>
<polygon fill="#ffffff" stroke="transparent" points="75.5,-163.7 75.5,-182.7 105.5,-182.7 105.5,-163.7 75.5,-163.7"/>
<polygon fill="none" stroke="#000000" points="75.5,-163.7 75.5,-182.7 105.5,-182.7 105.5,-163.7 75.5,-163.7"/>
<text text-anchor="start" x="80.7904" y="-169.8" font-family="Helvetica,sans-Serif" font-size="11.00" fill="#000000">24 &gt;</text>
</a>
</g>
</g>
<!-- _station_node&#45;&gt;_node -->
<g id="edge1" class="edge">
<title>_station_node:w&#45;&gt;_node:e</title>
<path fill="none" stroke="#000000" d="M145.3362,-322.7C130.9956,-322.7 123.9115,-322.7 105.5,-322.7"/>
<polygon fill="#000000" stroke="#000000" points="155.2,-318.7 155.2,-326.7 153.6,-326.7 153.6,-318.7 155.2,-318.7"/>
<polyline fill="none" stroke="#000000" points="156,-322.7 152,-322.7 "/>
<ellipse fill="none" stroke="#000000" cx="148.8" cy="-322.7001" rx="3.2" ry="3.2"/>
</g>
<!-- _station_node&#45;&gt;_node -->
<g id="edge2" class="edge">
<title>_station_node:w&#45;&gt;_node:e</title>
<path fill="none" stroke="#000000" d="M141.4203,-300.7C129.5435,-300.7 122.158,-300.7 105.5,-300.7"/>
<polygon fill="#000000" stroke="#000000" points="148,-300.7001 156,-304.3 152,-300.7 156,-300.7 156,-300.7 156,-300.7 152,-300.7 156,-297.1 148,-300.7001 148,-300.7001"/>
<ellipse fill="none" stroke="#000000" cx="144.8" cy="-300.7001" rx="3.2" ry="3.2"/>
</g>
<!-- station -->
<g id="node3" class="node">
<title>station</title>
<g id="a_node3"><a xlink:href="../../tables/station.html" xlink:title="station" target="_top">
<polygon fill="#ffffff" stroke="transparent" points="17.5,-38.2 17.5,-143.2 95.5,-143.2 95.5,-38.2 17.5,-38.2"/>
<polygon fill="#f5f5f5" stroke="transparent" points="17.5,-119.7 17.5,-142.7 95.5,-142.7 95.5,-119.7 17.5,-119.7"/>
<polygon fill="none" stroke="#000000" points="17.5,-119.7 17.5,-142.7 95.5,-142.7 95.5,-119.7 17.5,-119.7"/>
<text text-anchor="start" x="22.5" y="-128.3" font-family="Helvetica,sans-Serif" font-weight="bold" font-size="11.00" fill="#000000">station</text>
<text text-anchor="start" x="61.0219" y="-127.8" font-family="Helvetica,sans-Serif" font-size="11.00" fill="#000000">[table]</text>
<polygon fill="none" stroke="#000000" points="17.5,-97.7 17.5,-119.7 95.5,-119.7 95.5,-97.7 17.5,-97.7"/>
<image xlink:href="../../images/primaryKeys.png" width="11px" height="12px" preserveAspectRatio="xMinYMin meet" x="22.5" y="-114.7"/>
<text text-anchor="start" x="39.5" y="-104.8" font-family="Helvetica,sans-Serif" font-size="11.00" fill="#000000">id</text>
<polygon fill="#ffffff" stroke="transparent" points="17.5,-75.7 17.5,-97.7 95.5,-97.7 95.5,-75.7 17.5,-75.7"/>
<polygon fill="none" stroke="#000000" points="17.5,-75.7 17.5,-97.7 95.5,-97.7 95.5,-75.7 17.5,-75.7"/>
<text text-anchor="start" x="39.5" y="-82.8" font-family="Helvetica,sans-Serif" font-size="11.00" fill="#000000">name</text>
<polygon fill="none" stroke="#000000" points="17.5,-56.7 17.5,-75.7 95.5,-75.7 95.5,-56.7 17.5,-56.7"/>
<text text-anchor="start" x="20.5" y="-62.8" font-family="Helvetica,sans-Serif" font-size="11.00" fill="#000000">...</text>
<polygon fill="#ffffff" stroke="transparent" points="17.5,-37.7 17.5,-56.7 32.5,-56.7 32.5,-37.7 17.5,-37.7"/>
<polygon fill="none" stroke="#000000" points="17.5,-37.7 17.5,-56.7 32.5,-56.7 32.5,-37.7 17.5,-37.7"/>
<text text-anchor="start" x="20.5" y="-43.8" font-family="Helvetica,sans-Serif" font-size="11.00" fill="#000000"> &#160;</text>
<polygon fill="#ffffff" stroke="transparent" points="32.5,-37.7 32.5,-56.7 72.5,-56.7 72.5,-37.7 32.5,-37.7"/>
<polygon fill="none" stroke="#000000" points="32.5,-37.7 32.5,-56.7 72.5,-56.7 72.5,-37.7 32.5,-37.7"/>
<text text-anchor="start" x="37.1105" y="-43.8" font-family="Helvetica,sans-Serif" font-size="11.00" fill="#000000">0 rows</text>
<polygon fill="#ffffff" stroke="transparent" points="72.5,-37.7 72.5,-56.7 95.5,-56.7 95.5,-37.7 72.5,-37.7"/>
<polygon fill="none" stroke="#000000" points="72.5,-37.7 72.5,-56.7 95.5,-56.7 95.5,-37.7 72.5,-37.7"/>
<text text-anchor="start" x="76.9053" y="-43.8" font-family="Helvetica,sans-Serif" font-size="11.00" fill="#000000">1 &gt;</text>
</a>
</g>
</g>
<!-- _station_node&#45;&gt;station -->
<g id="edge3" class="edge">
<title>_station_node:w&#45;&gt;station:e</title>
<path fill="none" stroke="#000000" d="M141.6397,-231.5854C104.7244,-212.1824 151.7971,-108.7 95.5,-108.7"/>
<polygon fill="#000000" stroke="#000000" points="148.1818,-233.0043 155.2369,-238.2182 152.0909,-233.8521 156,-234.7 156,-234.7 156,-234.7 152.0909,-233.8521 156.7631,-231.1818 148.1818,-233.0043 148.1818,-233.0043"/>
<ellipse fill="none" stroke="#000000" cx="145.0545" cy="-232.326" rx="3.2" ry="3.2"/>
</g>
</g>
</svg>
