<?xml version="1.0" encoding="UTF-8" standalone="no"?>
<!DOCTYPE svg PUBLIC "-//W3C//DTD SVG 1.1//EN"
 "http://www.w3.org/Graphics/SVG/1.1/DTD/svg11.dtd">
<!-- Generated by graphviz version 2.40.1 (20161225.0304)
 -->
<!-- Title: oneDegreeRelationshipsDiagram Pages: 1 -->
<svg width="449pt" height="371pt"
 viewBox="0.00 0.00 449.00 370.70" xmlns="http://www.w3.org/2000/svg" xmlns:xlink="http://www.w3.org/1999/xlink">
<g id="graph0" class="graph" transform="scale(1 1) rotate(0) translate(4 366.7)">
<title>oneDegreeRelationshipsDiagram</title>
<polygon fill="#ffffff" stroke="transparent" points="-4,4 -4,-366.7 445,-366.7 445,4 -4,4"/>
<text text-anchor="middle" x="72.4936" y="-7.3" font-family="Helvetica,sans-Serif" font-size="11.00" fill="#000000">Generated by SchemaSpy</text>
<!-- _storage_node -->
<g id="node1" class="node">
<title>_storage_node</title>
<g id="a_node1"><a xlink:href="../../tables/_storage_node.html" xlink:title="_storage_node" target="_top">
<polygon fill="#ffffff" stroke="transparent" points="154,-180.7 154,-358.7 433,-358.7 433,-180.7 154,-180.7"/>
<polygon fill="#f5f5f5" stroke="transparent" points="156.5,-333.7 156.5,-356.7 431.5,-356.7 431.5,-333.7 156.5,-333.7"/>
<polygon fill="none" stroke="#000000" points="156.5,-333.7 156.5,-356.7 431.5,-356.7 431.5,-333.7 156.5,-333.7"/>
<text text-anchor="start" x="161.5" y="-342.3" font-family="Helvetica,sans-Serif" font-weight="bold" font-size="11.00" fill="#000000">_storage_node</text>
<text text-anchor="start" x="396.5437" y="-341.8" font-family="Helvetica,sans-Serif" font-size="11.00" fill="#000000">[table]</text>
<polygon fill="#ffffff" stroke="transparent" points="156.5,-311.7 156.5,-333.7 273.5,-333.7 273.5,-311.7 156.5,-311.7"/>
<polygon fill="none" stroke="#000000" points="156.5,-311.7 156.5,-333.7 273.5,-333.7 273.5,-311.7 156.5,-311.7"/>
<image xlink:href="../../images/foreignKeys.png" width="11px" height="12px" preserveAspectRatio="xMinYMin meet" x="161.5" y="-328.7"/>
<text text-anchor="start" x="176.5" y="-318.8" font-family="Helvetica,sans-Serif" font-size="11.00" fill="#000000">id</text>
<polygon fill="none" stroke="#000000" points="273.5,-311.7 273.5,-333.7 431.5,-333.7 431.5,-311.7 273.5,-311.7"/>
<text text-anchor="start" x="276.5" y="-319.4" font-family="Helvetica,sans-Serif" font-size="11.00" fill="#000000">int4[10]</text>
<polygon fill="none" stroke="#000000" points="156.5,-289.7 156.5,-311.7 273.5,-311.7 273.5,-289.7 156.5,-289.7"/>
<image xlink:href="../../images/foreignKeys.png" width="11px" height="12px" preserveAspectRatio="xMinYMin meet" x="161.5" y="-306.7"/>
<text text-anchor="start" x="176.5" y="-296.8" font-family="Helvetica,sans-Serif" font-size="11.00" fill="#000000">node_type</text>
<polygon fill="none" stroke="#000000" points="273.5,-289.7 273.5,-311.7 431.5,-311.7 431.5,-289.7 273.5,-289.7"/>
<text text-anchor="start" x="276.3773" y="-297.4" font-family="Helvetica,sans-Serif" font-size="11.00" fill="#000000">hydra_node_type[2147483647]</text>
<polygon fill="none" stroke="#000000" points="156.5,-267.7 156.5,-289.7 273.5,-289.7 273.5,-267.7 156.5,-267.7"/>
<text text-anchor="start" x="176.5" y="-274.8" font-family="Helvetica,sans-Serif" font-size="11.00" fill="#000000">zs_array</text>
<polygon fill="none" stroke="#000000" points="273.5,-267.7 273.5,-289.7 431.5,-289.7 431.5,-267.7 273.5,-267.7"/>
<text text-anchor="start" x="276.5" y="-275.4" font-family="Helvetica,sans-Serif" font-size="11.00" fill="#000000">_float4[8,8]</text>
<polygon fill="none" stroke="#000000" points="156.5,-245.7 156.5,-267.7 273.5,-267.7 273.5,-245.7 156.5,-245.7"/>
<text text-anchor="start" x="176.5" y="-252.8" font-family="Helvetica,sans-Serif" font-size="11.00" fill="#000000">zini</text>
<polygon fill="none" stroke="#000000" points="273.5,-245.7 273.5,-267.7 431.5,-267.7 431.5,-245.7 273.5,-245.7"/>
<text text-anchor="start" x="276.5" y="-253.4" font-family="Helvetica,sans-Serif" font-size="11.00" fill="#000000">float4[8,8]</text>
<polygon fill="#ffffff" stroke="transparent" points="156.5,-223.7 156.5,-245.7 273.5,-245.7 273.5,-223.7 156.5,-223.7"/>
<polygon fill="none" stroke="#000000" points="156.5,-223.7 156.5,-245.7 273.5,-245.7 273.5,-223.7 156.5,-223.7"/>
<image xlink:href="../../images/foreignKeys.png" width="11px" height="12px" preserveAspectRatio="xMinYMin meet" x="161.5" y="-240.7"/>
<text text-anchor="start" x="176.5" y="-230.8" font-family="Helvetica,sans-Serif" font-size="11.00" fill="#000000">contour</text>
<polygon fill="none" stroke="#000000" points="273.5,-223.7 273.5,-245.7 431.5,-245.7 431.5,-223.7 273.5,-223.7"/>
<text text-anchor="start" x="276.5" y="-231.4" font-family="Helvetica,sans-Serif" font-size="11.00" fill="#000000">int4[10]</text>
<polygon fill="none" stroke="#000000" points="156.5,-201.7 156.5,-223.7 273.5,-223.7 273.5,-201.7 156.5,-201.7"/>
<text text-anchor="start" x="176.5" y="-208.8" font-family="Helvetica,sans-Serif" font-size="11.00" fill="#000000">contraction_coef</text>
<polygon fill="none" stroke="#000000" points="273.5,-201.7 273.5,-223.7 431.5,-223.7 431.5,-201.7 273.5,-201.7"/>
<text text-anchor="start" x="276.5" y="-209.4" font-family="Helvetica,sans-Serif" font-size="11.00" fill="#000000">float4[8,8]</text>
<polygon fill="#ffffff" stroke="transparent" points="156.5,-182.7 156.5,-201.7 206.5,-201.7 206.5,-182.7 156.5,-182.7"/>
<polygon fill="none" stroke="#000000" points="156.5,-182.7 156.5,-201.7 206.5,-201.7 206.5,-182.7 156.5,-182.7"/>
<text text-anchor="start" x="159.5" y="-188.8" font-family="Helvetica,sans-Serif" font-size="11.00" fill="#000000">&lt; 3</text>
<polygon fill="#ffffff" stroke="transparent" points="206.5,-182.7 206.5,-201.7 273.5,-201.7 273.5,-182.7 206.5,-182.7"/>
<polygon fill="none" stroke="#000000" points="206.5,-182.7 206.5,-201.7 273.5,-201.7 273.5,-182.7 206.5,-182.7"/>
<text text-anchor="start" x="238.1105" y="-188.8" font-family="Helvetica,sans-Serif" font-size="11.00" fill="#000000">0 rows</text>
<polygon fill="#ffffff" stroke="transparent" points="273.5,-182.7 273.5,-201.7 431.5,-201.7 431.5,-182.7 273.5,-182.7"/>
<polygon fill="none" stroke="#000000" points="273.5,-182.7 273.5,-201.7 431.5,-201.7 431.5,-182.7 273.5,-182.7"/>
<text text-anchor="start" x="412.9053" y="-188.8" font-family="Helvetica,sans-Serif" font-size="11.00" fill="#000000">0 &gt;</text>
<polygon fill="none" stroke="#000000" stroke-width="2" points="155,-181.7 155,-357.7 432,-357.7 432,-181.7 155,-181.7"/>
</a>
</g>
</g>
<!-- coverage -->
<g id="node2" class="node">
<title>coverage</title>
<g id="a_node2"><a xlink:href="../../tables/coverage.html" xlink:title="coverage" target="_top">
<polygon fill="#ffffff" stroke="transparent" points="9,-38.2 9,-143.2 104,-143.2 104,-38.2 9,-38.2"/>
<polygon fill="#f5f5f5" stroke="transparent" points="9.5,-119.7 9.5,-142.7 104.5,-142.7 104.5,-119.7 9.5,-119.7"/>
<polygon fill="none" stroke="#000000" points="9.5,-119.7 9.5,-142.7 104.5,-142.7 104.5,-119.7 9.5,-119.7"/>
<text text-anchor="start" x="14.5" y="-128.3" font-family="Helvetica,sans-Serif" font-weight="bold" font-size="11.00" fill="#000000">coverage</text>
<text text-anchor="start" x="69.5437" y="-127.8" font-family="Helvetica,sans-Serif" font-size="11.00" fill="#000000">[table]</text>
<polygon fill="none" stroke="#000000" points="9.5,-97.7 9.5,-119.7 104.5,-119.7 104.5,-97.7 9.5,-97.7"/>
<image xlink:href="../../images/primaryKeys.png" width="11px" height="12px" preserveAspectRatio="xMinYMin meet" x="14.5" y="-114.7"/>
<text text-anchor="start" x="29.5" y="-104.8" font-family="Helvetica,sans-Serif" font-size="11.00" fill="#000000">id</text>
<polygon fill="#ffffff" stroke="transparent" points="9.5,-75.7 9.5,-97.7 104.5,-97.7 104.5,-75.7 9.5,-75.7"/>
<polygon fill="none" stroke="#000000" points="9.5,-75.7 9.5,-97.7 104.5,-97.7 104.5,-75.7 9.5,-75.7"/>
<text text-anchor="start" x="29.5" y="-82.8" font-family="Helvetica,sans-Serif" font-size="11.00" fill="#000000">geom</text>
<polygon fill="none" stroke="#000000" points="9.5,-56.7 9.5,-75.7 104.5,-75.7 104.5,-56.7 9.5,-56.7"/>
<text text-anchor="start" x="12.5" y="-62.8" font-family="Helvetica,sans-Serif" font-size="11.00" fill="#000000">...</text>
<polygon fill="#ffffff" stroke="transparent" points="9.5,-37.7 9.5,-56.7 33.5,-56.7 33.5,-37.7 9.5,-37.7"/>
<polygon fill="none" stroke="#000000" points="9.5,-37.7 9.5,-56.7 33.5,-56.7 33.5,-37.7 9.5,-37.7"/>
<text text-anchor="start" x="12.5" y="-43.8" font-family="Helvetica,sans-Serif" font-size="11.00" fill="#000000"> &#160;</text>
<polygon fill="#ffffff" stroke="transparent" points="33.5,-37.7 33.5,-56.7 77.5,-56.7 77.5,-37.7 33.5,-37.7"/>
<polygon fill="none" stroke="#000000" points="33.5,-37.7 33.5,-56.7 77.5,-56.7 77.5,-37.7 33.5,-37.7"/>
<text text-anchor="start" x="42.1105" y="-43.8" font-family="Helvetica,sans-Serif" font-size="11.00" fill="#000000">0 rows</text>
<polygon fill="#ffffff" stroke="transparent" points="77.5,-37.7 77.5,-56.7 104.5,-56.7 104.5,-37.7 77.5,-37.7"/>
<polygon fill="none" stroke="#000000" points="77.5,-37.7 77.5,-56.7 104.5,-56.7 104.5,-37.7 77.5,-37.7"/>
<text text-anchor="start" x="85.9053" y="-43.8" font-family="Helvetica,sans-Serif" font-size="11.00" fill="#000000">1 &gt;</text>
</a>
</g>
</g>
<!-- _storage_node&#45;&gt;coverage -->
<g id="edge1" class="edge">
<title>_storage_node:w&#45;&gt;coverage:e</title>
<path fill="none" stroke="#000000" d="M146.0715,-233.1069C104.532,-218.5213 161.0586,-108.7 104.5,-108.7"/>
<polygon fill="#000000" stroke="#000000" points="156.3133,-230.6251 155.1051,-238.5333 153.5234,-238.2917 154.7316,-230.3834 156.3133,-230.6251"/>
<polyline fill="none" stroke="#000000" points="156.5,-234.7 152.5459,-234.0959 "/>
<ellipse fill="none" stroke="#000000" cx="149.3826" cy="-233.6127" rx="3.2" ry="3.2"/>
</g>
<!-- _node -->
<g id="node3" class="node">
<title>_node</title>
<g id="a_node3"><a xlink:href="../../tables/_node.html" xlink:title="_node" target="_top">
<polygon fill="#ffffff" stroke="transparent" points="8,-164.2 8,-357.2 105,-357.2 105,-164.2 8,-164.2"/>
<polygon fill="#f5f5f5" stroke="transparent" points="8.5,-333.7 8.5,-356.7 105.5,-356.7 105.5,-333.7 8.5,-333.7"/>
<polygon fill="none" stroke="#000000" points="8.5,-333.7 8.5,-356.7 105.5,-356.7 105.5,-333.7 8.5,-333.7"/>
<text text-anchor="start" x="13.5" y="-342.3" font-family="Helvetica,sans-Serif" font-weight="bold" font-size="11.00" fill="#000000">_node</text>
<text text-anchor="start" x="70.5437" y="-341.8" font-family="Helvetica,sans-Serif" font-size="11.00" fill="#000000">[table]</text>
<polygon fill="none" stroke="#000000" points="8.5,-311.7 8.5,-333.7 105.5,-333.7 105.5,-311.7 8.5,-311.7"/>
<image xlink:href="../../images/primaryKeys.png" width="11px" height="12px" preserveAspectRatio="xMinYMin meet" x="13.5" y="-328.7"/>
<text text-anchor="start" x="28.5" y="-318.8" font-family="Helvetica,sans-Serif" font-size="11.00" fill="#000000">id</text>
<polygon fill="#ffffff" stroke="transparent" points="8.5,-289.7 8.5,-311.7 105.5,-311.7 105.5,-289.7 8.5,-289.7"/>
<polygon fill="none" stroke="#000000" points="8.5,-289.7 8.5,-311.7 105.5,-311.7 105.5,-289.7 8.5,-289.7"/>
<text text-anchor="start" x="28.5" y="-296.8" font-family="Helvetica,sans-Serif" font-size="11.00" fill="#000000">node_type</text>
<polygon fill="#ffffff" stroke="transparent" points="8.5,-267.7 8.5,-289.7 105.5,-289.7 105.5,-267.7 8.5,-267.7"/>
<polygon fill="none" stroke="#000000" points="8.5,-267.7 8.5,-289.7 105.5,-289.7 105.5,-267.7 8.5,-267.7"/>
<text text-anchor="start" x="28.5" y="-274.8" font-family="Helvetica,sans-Serif" font-size="11.00" fill="#000000">name</text>
<polygon fill="#ffffff" stroke="transparent" points="8.5,-245.7 8.5,-267.7 105.5,-267.7 105.5,-245.7 8.5,-245.7"/>
<polygon fill="none" stroke="#000000" points="8.5,-245.7 8.5,-267.7 105.5,-267.7 105.5,-245.7 8.5,-245.7"/>
<text text-anchor="start" x="28.5" y="-252.8" font-family="Helvetica,sans-Serif" font-size="11.00" fill="#000000">geom</text>
<polygon fill="#ffffff" stroke="transparent" points="8.5,-223.7 8.5,-245.7 105.5,-245.7 105.5,-223.7 8.5,-223.7"/>
<polygon fill="none" stroke="#000000" points="8.5,-223.7 8.5,-245.7 105.5,-245.7 105.5,-223.7 8.5,-223.7"/>
<image xlink:href="../../images/foreignKeys.png" width="11px" height="12px" preserveAspectRatio="xMinYMin meet" x="13.5" y="-240.7"/>
<text text-anchor="start" x="28.5" y="-230.8" font-family="Helvetica,sans-Serif" font-size="11.00" fill="#000000">generated</text>
<polygon fill="#ffffff" stroke="transparent" points="8.5,-201.7 8.5,-223.7 105.5,-223.7 105.5,-201.7 8.5,-201.7"/>
<polygon fill="none" stroke="#000000" points="8.5,-201.7 8.5,-223.7 105.5,-223.7 105.5,-201.7 8.5,-201.7"/>
<text text-anchor="start" x="28.5" y="-208.8" font-family="Helvetica,sans-Serif" font-size="11.00" fill="#000000">validity</text>
<polygon fill="none" stroke="#000000" points="8.5,-182.7 8.5,-201.7 105.5,-201.7 105.5,-182.7 8.5,-182.7"/>
<text text-anchor="start" x="11.5" y="-188.8" font-family="Helvetica,sans-Serif" font-size="11.00" fill="#000000">...</text>
<polygon fill="#ffffff" stroke="transparent" points="8.5,-163.7 8.5,-182.7 34.5,-182.7 34.5,-163.7 8.5,-163.7"/>
<polygon fill="none" stroke="#000000" points="8.5,-163.7 8.5,-182.7 34.5,-182.7 34.5,-163.7 8.5,-163.7"/>
<text text-anchor="start" x="11.5" y="-169.8" font-family="Helvetica,sans-Serif" font-size="11.00" fill="#000000">&lt; 1</text>
<polygon fill="#ffffff" stroke="transparent" points="34.5,-163.7 34.5,-182.7 75.5,-182.7 75.5,-163.7 34.5,-163.7"/>
<polygon fill="none" stroke="#000000" points="34.5,-163.7 34.5,-182.7 75.5,-182.7 75.5,-163.7 34.5,-163.7"/>
<text text-anchor="start" x="40.1105" y="-169.8" font-family="Helvetica,sans-Serif" font-size="11.00" fill="#000000">0 rows</text>
<polygon fill="#ffffff" stroke="transparent" points="75.5,-163.7 75.5,-182.7 105.5,-182.7 105.5,-163.7 75.5,-163.7"/>
<polygon fill="none" stroke="#000000" points="75.5,-163.7 75.5,-182.7 105.5,-182.7 105.5,-163.7 75.5,-163.7"/>
<text text-anchor="start" x="80.7904" y="-169.8" font-family="Helvetica,sans-Serif" font-size="11.00" fill="#000000">24 &gt;</text>
</a>
</g>
</g>
<!-- _storage_node&#45;&gt;_node -->
<g id="edge2" class="edge">
<title>_storage_node:w&#45;&gt;_node:e</title>
<path fill="none" stroke="#000000" d="M145.7307,-322.7C131.248,-322.7 124.0937,-322.7 105.5,-322.7"/>
<polygon fill="#000000" stroke="#000000" points="155.7,-318.7 155.7,-326.7 154.1,-326.7 154.1,-318.7 155.7,-318.7"/>
<polyline fill="none" stroke="#000000" points="156.5,-322.7 152.5,-322.7 "/>
<ellipse fill="none" stroke="#000000" cx="149.3" cy="-322.7001" rx="3.2" ry="3.2"/>
</g>
<!-- _storage_node&#45;&gt;_node -->
<g id="edge3" class="edge">
<title>_storage_node:w&#45;&gt;_node:e</title>
<path fill="none" stroke="#000000" d="M141.776,-300.7C129.7815,-300.7 122.3229,-300.7 105.5,-300.7"/>
<polygon fill="#000000" stroke="#000000" points="148.5,-300.7001 156.5,-304.3 152.5,-300.7 156.5,-300.7 156.5,-300.7 156.5,-300.7 152.5,-300.7 156.5,-297.1 148.5,-300.7001 148.5,-300.7001"/>
<ellipse fill="none" stroke="#000000" cx="145.3" cy="-300.7001" rx="3.2" ry="3.2"/>
</g>
</g>
</svg>
