<?xml version="1.0" encoding="UTF-8" standalone="no"?>
<!DOCTYPE svg PUBLIC "-//W3C//DTD SVG 1.1//EN"
 "http://www.w3.org/Graphics/SVG/1.1/DTD/svg11.dtd">
<!-- Generated by graphviz version 2.40.1 (20161225.0304)
 -->
<!-- Title: oneDegreeRelationshipsDiagram Pages: 1 -->
<svg width="425pt" height="333pt"
 viewBox="0.00 0.00 425.00 332.70" xmlns="http://www.w3.org/2000/svg" xmlns:xlink="http://www.w3.org/1999/xlink">
<g id="graph0" class="graph" transform="scale(1 1) rotate(0) translate(4 328.7)">
<title>oneDegreeRelationshipsDiagram</title>
<polygon fill="#ffffff" stroke="transparent" points="-4,4 -4,-328.7 421,-328.7 421,4 -4,4"/>
<text text-anchor="middle" x="72.4936" y="-7.3" font-family="Helvetica,sans-Serif" font-size="11.00" fill="#000000">Generated by SchemaSpy</text>
<!-- _strickler_link -->
<g id="node1" class="node">
<title>_strickler_link</title>
<g id="a_node1"><a xlink:href="../../tables/_strickler_link.html" xlink:title="_strickler_link" target="_top">
<polygon fill="#ffffff" stroke="transparent" points="154,-76.7 154,-320.7 409,-320.7 409,-76.7 154,-76.7"/>
<polygon fill="#f5f5f5" stroke="transparent" points="156.5,-295.7 156.5,-318.7 407.5,-318.7 407.5,-295.7 156.5,-295.7"/>
<polygon fill="none" stroke="#000000" points="156.5,-295.7 156.5,-318.7 407.5,-318.7 407.5,-295.7 156.5,-295.7"/>
<text text-anchor="start" x="161.5" y="-304.3" font-family="Helvetica,sans-Serif" font-weight="bold" font-size="11.00" fill="#000000">_strickler_link</text>
<text text-anchor="start" x="372.5437" y="-303.8" font-family="Helvetica,sans-Serif" font-size="11.00" fill="#000000">[table]</text>
<polygon fill="#ffffff" stroke="transparent" points="156.5,-273.7 156.5,-295.7 257.5,-295.7 257.5,-273.7 156.5,-273.7"/>
<polygon fill="none" stroke="#000000" points="156.5,-273.7 156.5,-295.7 257.5,-295.7 257.5,-273.7 156.5,-273.7"/>
<image xlink:href="../../images/foreignKeys.png" width="11px" height="12px" preserveAspectRatio="xMinYMin meet" x="161.5" y="-290.7"/>
<text text-anchor="start" x="176.5" y="-280.8" font-family="Helvetica,sans-Serif" font-size="11.00" fill="#000000">id</text>
<polygon fill="none" stroke="#000000" points="257.5,-273.7 257.5,-295.7 407.5,-295.7 407.5,-273.7 257.5,-273.7"/>
<text text-anchor="start" x="260.5" y="-281.4" font-family="Helvetica,sans-Serif" font-size="11.00" fill="#000000">int4[10]</text>
<polygon fill="none" stroke="#000000" points="156.5,-251.7 156.5,-273.7 257.5,-273.7 257.5,-251.7 156.5,-251.7"/>
<image xlink:href="../../images/foreignKeys.png" width="11px" height="12px" preserveAspectRatio="xMinYMin meet" x="161.5" y="-268.7"/>
<text text-anchor="start" x="176.5" y="-258.8" font-family="Helvetica,sans-Serif" font-size="11.00" fill="#000000">link_type</text>
<polygon fill="none" stroke="#000000" points="257.5,-251.7 257.5,-273.7 407.5,-273.7 407.5,-251.7 257.5,-251.7"/>
<text text-anchor="start" x="260.3587" y="-259.4" font-family="Helvetica,sans-Serif" font-size="11.00" fill="#000000">hydra_link_type[2147483647]</text>
<polygon fill="none" stroke="#000000" points="156.5,-229.7 156.5,-251.7 257.5,-251.7 257.5,-229.7 156.5,-229.7"/>
<text text-anchor="start" x="176.5" y="-236.8" font-family="Helvetica,sans-Serif" font-size="11.00" fill="#000000">z_crest1</text>
<polygon fill="none" stroke="#000000" points="257.5,-229.7 257.5,-251.7 407.5,-251.7 407.5,-229.7 257.5,-229.7"/>
<text text-anchor="start" x="260.5" y="-237.4" font-family="Helvetica,sans-Serif" font-size="11.00" fill="#000000">float4[8,8]</text>
<polygon fill="none" stroke="#000000" points="156.5,-207.7 156.5,-229.7 257.5,-229.7 257.5,-207.7 156.5,-207.7"/>
<text text-anchor="start" x="176.5" y="-214.8" font-family="Helvetica,sans-Serif" font-size="11.00" fill="#000000">width1</text>
<polygon fill="none" stroke="#000000" points="257.5,-207.7 257.5,-229.7 407.5,-229.7 407.5,-207.7 257.5,-207.7"/>
<text text-anchor="start" x="260.5" y="-215.4" font-family="Helvetica,sans-Serif" font-size="11.00" fill="#000000">float4[8,8]</text>
<polygon fill="none" stroke="#000000" points="156.5,-185.7 156.5,-207.7 257.5,-207.7 257.5,-185.7 156.5,-185.7"/>
<text text-anchor="start" x="176.5" y="-192.8" font-family="Helvetica,sans-Serif" font-size="11.00" fill="#000000">length</text>
<polygon fill="none" stroke="#000000" points="257.5,-185.7 257.5,-207.7 407.5,-207.7 407.5,-185.7 257.5,-185.7"/>
<text text-anchor="start" x="260.5" y="-193.4" font-family="Helvetica,sans-Serif" font-size="11.00" fill="#000000">float4[8,8]</text>
<polygon fill="none" stroke="#000000" points="156.5,-163.7 156.5,-185.7 257.5,-185.7 257.5,-163.7 156.5,-163.7"/>
<text text-anchor="start" x="176.5" y="-170.8" font-family="Helvetica,sans-Serif" font-size="11.00" fill="#000000">rk</text>
<polygon fill="none" stroke="#000000" points="257.5,-163.7 257.5,-185.7 407.5,-185.7 407.5,-163.7 257.5,-163.7"/>
<text text-anchor="start" x="260.5" y="-171.4" font-family="Helvetica,sans-Serif" font-size="11.00" fill="#000000">float4[8,8]</text>
<polygon fill="none" stroke="#000000" points="156.5,-141.7 156.5,-163.7 257.5,-163.7 257.5,-141.7 156.5,-141.7"/>
<text text-anchor="start" x="176.5" y="-148.8" font-family="Helvetica,sans-Serif" font-size="11.00" fill="#000000">z_crest2</text>
<polygon fill="none" stroke="#000000" points="257.5,-141.7 257.5,-163.7 407.5,-163.7 407.5,-141.7 257.5,-141.7"/>
<text text-anchor="start" x="260.5" y="-149.4" font-family="Helvetica,sans-Serif" font-size="11.00" fill="#000000">float4[8,8]</text>
<polygon fill="none" stroke="#000000" points="156.5,-119.7 156.5,-141.7 257.5,-141.7 257.5,-119.7 156.5,-119.7"/>
<text text-anchor="start" x="176.5" y="-126.8" font-family="Helvetica,sans-Serif" font-size="11.00" fill="#000000">width2</text>
<polygon fill="none" stroke="#000000" points="257.5,-119.7 257.5,-141.7 407.5,-141.7 407.5,-119.7 257.5,-119.7"/>
<text text-anchor="start" x="260.5" y="-127.4" font-family="Helvetica,sans-Serif" font-size="11.00" fill="#000000">float4[8,8]</text>
<polygon fill="none" stroke="#000000" points="156.5,-97.7 156.5,-119.7 257.5,-119.7 257.5,-97.7 156.5,-97.7"/>
<text text-anchor="start" x="176.5" y="-104.8" font-family="Helvetica,sans-Serif" font-size="11.00" fill="#000000">border</text>
<polygon fill="none" stroke="#000000" points="257.5,-97.7 257.5,-119.7 407.5,-119.7 407.5,-97.7 257.5,-97.7"/>
<text text-anchor="start" x="260.5" y="-105.4" font-family="Helvetica,sans-Serif" font-size="11.00" fill="#000000">geometry[2147483647]</text>
<polygon fill="#ffffff" stroke="transparent" points="156.5,-78.7 156.5,-97.7 198.5,-97.7 198.5,-78.7 156.5,-78.7"/>
<polygon fill="none" stroke="#000000" points="156.5,-78.7 156.5,-97.7 198.5,-97.7 198.5,-78.7 156.5,-78.7"/>
<text text-anchor="start" x="159.5" y="-84.8" font-family="Helvetica,sans-Serif" font-size="11.00" fill="#000000">&lt; 2</text>
<polygon fill="#ffffff" stroke="transparent" points="198.5,-78.7 198.5,-97.7 257.5,-97.7 257.5,-78.7 198.5,-78.7"/>
<polygon fill="none" stroke="#000000" points="198.5,-78.7 198.5,-97.7 257.5,-97.7 257.5,-78.7 198.5,-78.7"/>
<text text-anchor="start" x="222.1105" y="-84.8" font-family="Helvetica,sans-Serif" font-size="11.00" fill="#000000">0 rows</text>
<polygon fill="#ffffff" stroke="transparent" points="257.5,-78.7 257.5,-97.7 407.5,-97.7 407.5,-78.7 257.5,-78.7"/>
<polygon fill="none" stroke="#000000" points="257.5,-78.7 257.5,-97.7 407.5,-97.7 407.5,-78.7 257.5,-78.7"/>
<text text-anchor="start" x="388.9053" y="-84.8" font-family="Helvetica,sans-Serif" font-size="11.00" fill="#000000">0 &gt;</text>
<polygon fill="none" stroke="#000000" stroke-width="2" points="155,-77.7 155,-319.7 408,-319.7 408,-77.7 155,-77.7"/>
</a>
</g>
</g>
<!-- _link -->
<g id="node2" class="node">
<title>_link</title>
<g id="a_node2"><a xlink:href="../../tables/_link.html" xlink:title="_link" target="_top">
<polygon fill="#ffffff" stroke="transparent" points="8,-38.2 8,-319.2 105,-319.2 105,-38.2 8,-38.2"/>
<polygon fill="#f5f5f5" stroke="transparent" points="8.5,-295.7 8.5,-318.7 105.5,-318.7 105.5,-295.7 8.5,-295.7"/>
<polygon fill="none" stroke="#000000" points="8.5,-295.7 8.5,-318.7 105.5,-318.7 105.5,-295.7 8.5,-295.7"/>
<text text-anchor="start" x="13.5" y="-304.3" font-family="Helvetica,sans-Serif" font-weight="bold" font-size="11.00" fill="#000000">_link</text>
<text text-anchor="start" x="70.5437" y="-303.8" font-family="Helvetica,sans-Serif" font-size="11.00" fill="#000000">[table]</text>
<polygon fill="none" stroke="#000000" points="8.5,-273.7 8.5,-295.7 105.5,-295.7 105.5,-273.7 8.5,-273.7"/>
<image xlink:href="../../images/primaryKeys.png" width="11px" height="12px" preserveAspectRatio="xMinYMin meet" x="13.5" y="-290.7"/>
<text text-anchor="start" x="28.5" y="-280.8" font-family="Helvetica,sans-Serif" font-size="11.00" fill="#000000">id</text>
<polygon fill="#ffffff" stroke="transparent" points="8.5,-251.7 8.5,-273.7 105.5,-273.7 105.5,-251.7 8.5,-251.7"/>
<polygon fill="none" stroke="#000000" points="8.5,-251.7 8.5,-273.7 105.5,-273.7 105.5,-251.7 8.5,-251.7"/>
<text text-anchor="start" x="28.5" y="-258.8" font-family="Helvetica,sans-Serif" font-size="11.00" fill="#000000">link_type</text>
<polygon fill="#ffffff" stroke="transparent" points="8.5,-229.7 8.5,-251.7 105.5,-251.7 105.5,-229.7 8.5,-229.7"/>
<polygon fill="none" stroke="#000000" points="8.5,-229.7 8.5,-251.7 105.5,-251.7 105.5,-229.7 8.5,-229.7"/>
<text text-anchor="start" x="28.5" y="-236.8" font-family="Helvetica,sans-Serif" font-size="11.00" fill="#000000">name</text>
<polygon fill="#ffffff" stroke="transparent" points="8.5,-207.7 8.5,-229.7 105.5,-229.7 105.5,-207.7 8.5,-207.7"/>
<polygon fill="none" stroke="#000000" points="8.5,-207.7 8.5,-229.7 105.5,-229.7 105.5,-207.7 8.5,-207.7"/>
<image xlink:href="../../images/foreignKeys.png" width="11px" height="12px" preserveAspectRatio="xMinYMin meet" x="13.5" y="-224.7"/>
<text text-anchor="start" x="28.5" y="-214.8" font-family="Helvetica,sans-Serif" font-size="11.00" fill="#000000">generated</text>
<polygon fill="#ffffff" stroke="transparent" points="8.5,-185.7 8.5,-207.7 105.5,-207.7 105.5,-185.7 8.5,-185.7"/>
<polygon fill="none" stroke="#000000" points="8.5,-185.7 8.5,-207.7 105.5,-207.7 105.5,-185.7 8.5,-185.7"/>
<image xlink:href="../../images/foreignKeys.png" width="11px" height="12px" preserveAspectRatio="xMinYMin meet" x="13.5" y="-202.7"/>
<text text-anchor="start" x="28.5" y="-192.8" font-family="Helvetica,sans-Serif" font-size="11.00" fill="#000000">up</text>
<polygon fill="none" stroke="#000000" points="8.5,-163.7 8.5,-185.7 105.5,-185.7 105.5,-163.7 8.5,-163.7"/>
<image xlink:href="../../images/foreignKeys.png" width="11px" height="12px" preserveAspectRatio="xMinYMin meet" x="13.5" y="-180.7"/>
<text text-anchor="start" x="28.5" y="-170.8" font-family="Helvetica,sans-Serif" font-size="11.00" fill="#000000">up_type</text>
<polygon fill="#ffffff" stroke="transparent" points="8.5,-141.7 8.5,-163.7 105.5,-163.7 105.5,-141.7 8.5,-141.7"/>
<polygon fill="none" stroke="#000000" points="8.5,-141.7 8.5,-163.7 105.5,-163.7 105.5,-141.7 8.5,-141.7"/>
<image xlink:href="../../images/foreignKeys.png" width="11px" height="12px" preserveAspectRatio="xMinYMin meet" x="13.5" y="-158.7"/>
<text text-anchor="start" x="28.5" y="-148.8" font-family="Helvetica,sans-Serif" font-size="11.00" fill="#000000">down</text>
<polygon fill="none" stroke="#000000" points="8.5,-119.7 8.5,-141.7 105.5,-141.7 105.5,-119.7 8.5,-119.7"/>
<image xlink:href="../../images/foreignKeys.png" width="11px" height="12px" preserveAspectRatio="xMinYMin meet" x="13.5" y="-136.7"/>
<text text-anchor="start" x="28.5" y="-126.8" font-family="Helvetica,sans-Serif" font-size="11.00" fill="#000000">down_type</text>
<polygon fill="#ffffff" stroke="transparent" points="8.5,-97.7 8.5,-119.7 105.5,-119.7 105.5,-97.7 8.5,-97.7"/>
<polygon fill="none" stroke="#000000" points="8.5,-97.7 8.5,-119.7 105.5,-119.7 105.5,-97.7 8.5,-97.7"/>
<text text-anchor="start" x="28.5" y="-104.8" font-family="Helvetica,sans-Serif" font-size="11.00" fill="#000000">geom</text>
<polygon fill="#ffffff" stroke="transparent" points="8.5,-75.7 8.5,-97.7 105.5,-97.7 105.5,-75.7 8.5,-75.7"/>
<polygon fill="none" stroke="#000000" points="8.5,-75.7 8.5,-97.7 105.5,-97.7 105.5,-75.7 8.5,-75.7"/>
<text text-anchor="start" x="28.5" y="-82.8" font-family="Helvetica,sans-Serif" font-size="11.00" fill="#000000">validity</text>
<polygon fill="none" stroke="#000000" points="8.5,-56.7 8.5,-75.7 105.5,-75.7 105.5,-56.7 8.5,-56.7"/>
<text text-anchor="start" x="11.5" y="-62.8" font-family="Helvetica,sans-Serif" font-size="11.00" fill="#000000">...</text>
<polygon fill="#ffffff" stroke="transparent" points="8.5,-37.7 8.5,-56.7 34.5,-56.7 34.5,-37.7 8.5,-37.7"/>
<polygon fill="none" stroke="#000000" points="8.5,-37.7 8.5,-56.7 34.5,-56.7 34.5,-37.7 8.5,-37.7"/>
<text text-anchor="start" x="11.5" y="-43.8" font-family="Helvetica,sans-Serif" font-size="11.00" fill="#000000">&lt; 5</text>
<polygon fill="#ffffff" stroke="transparent" points="34.5,-37.7 34.5,-56.7 75.5,-56.7 75.5,-37.7 34.5,-37.7"/>
<polygon fill="none" stroke="#000000" points="34.5,-37.7 34.5,-56.7 75.5,-56.7 75.5,-37.7 34.5,-37.7"/>
<text text-anchor="start" x="40.1105" y="-43.8" font-family="Helvetica,sans-Serif" font-size="11.00" fill="#000000">0 rows</text>
<polygon fill="#ffffff" stroke="transparent" points="75.5,-37.7 75.5,-56.7 105.5,-56.7 105.5,-37.7 75.5,-37.7"/>
<polygon fill="none" stroke="#000000" points="75.5,-37.7 75.5,-56.7 105.5,-56.7 105.5,-37.7 75.5,-37.7"/>
<text text-anchor="start" x="80.7904" y="-43.8" font-family="Helvetica,sans-Serif" font-size="11.00" fill="#000000">60 &gt;</text>
</a>
</g>
</g>
<!-- _strickler_link&#45;&gt;_link -->
<g id="edge1" class="edge">
<title>_strickler_link:w&#45;&gt;_link:e</title>
<path fill="none" stroke="#000000" d="M145.7307,-284.7C131.248,-284.7 124.0937,-284.7 105.5,-284.7"/>
<polygon fill="#000000" stroke="#000000" points="155.7,-280.7 155.7,-288.7 154.1,-288.7 154.1,-280.7 155.7,-280.7"/>
<polyline fill="none" stroke="#000000" points="156.5,-284.7 152.5,-284.7 "/>
<ellipse fill="none" stroke="#000000" cx="149.3" cy="-284.7001" rx="3.2" ry="3.2"/>
</g>
<!-- _strickler_link&#45;&gt;_link -->
<g id="edge2" class="edge">
<title>_strickler_link:w&#45;&gt;_link:e</title>
<path fill="none" stroke="#000000" d="M141.776,-262.7C129.7815,-262.7 122.3229,-262.7 105.5,-262.7"/>
<polygon fill="#000000" stroke="#000000" points="148.5,-262.7001 156.5,-266.3 152.5,-262.7 156.5,-262.7 156.5,-262.7 156.5,-262.7 152.5,-262.7 156.5,-259.1 148.5,-262.7001 148.5,-262.7001"/>
<ellipse fill="none" stroke="#000000" cx="145.3" cy="-262.7001" rx="3.2" ry="3.2"/>
</g>
</g>
</svg>
