<?xml version="1.0" encoding="UTF-8" standalone="no"?>
<!DOCTYPE svg PUBLIC "-//W3C//DTD SVG 1.1//EN"
 "http://www.w3.org/Graphics/SVG/1.1/DTD/svg11.dtd">
<!-- Generated by graphviz version 2.40.1 (20161225.0304)
 -->
<!-- Title: oneDegreeRelationshipsDiagram Pages: 1 -->
<svg width="535pt" height="245pt"
 viewBox="0.00 0.00 535.00 244.70" xmlns="http://www.w3.org/2000/svg" xmlns:xlink="http://www.w3.org/1999/xlink">
<g id="graph0" class="graph" transform="scale(1 1) rotate(0) translate(4 240.7)">
<title>oneDegreeRelationshipsDiagram</title>
<polygon fill="#ffffff" stroke="transparent" points="-4,4 -4,-240.7 531,-240.7 531,4 -4,4"/>
<text text-anchor="middle" x="72.4936" y="-7.3" font-family="Helvetica,sans-Serif" font-size="11.00" fill="#000000">Generated by SchemaSpy</text>
<!-- _strickler_bc_singularity -->
<g id="node1" class="node">
<title>_strickler_bc_singularity</title>
<g id="a_node1"><a xlink:href="../../tables/_strickler_bc_singularity.html" xlink:title="_strickler_bc_singularity" target="_top">
<polygon fill="#ffffff" stroke="transparent" points="170,-76.7 170,-232.7 519,-232.7 519,-76.7 170,-76.7"/>
<polygon fill="#f5f5f5" stroke="transparent" points="172.5,-207.7 172.5,-230.7 517.5,-230.7 517.5,-207.7 172.5,-207.7"/>
<polygon fill="none" stroke="#000000" points="172.5,-207.7 172.5,-230.7 517.5,-230.7 517.5,-207.7 172.5,-207.7"/>
<text text-anchor="start" x="177.5" y="-216.3" font-family="Helvetica,sans-Serif" font-weight="bold" font-size="11.00" fill="#000000">_strickler_bc_singularity</text>
<text text-anchor="start" x="482.5437" y="-215.8" font-family="Helvetica,sans-Serif" font-size="11.00" fill="#000000">[table]</text>
<polygon fill="#ffffff" stroke="transparent" points="172.5,-185.7 172.5,-207.7 334.5,-207.7 334.5,-185.7 172.5,-185.7"/>
<polygon fill="none" stroke="#000000" points="172.5,-185.7 172.5,-207.7 334.5,-207.7 334.5,-185.7 172.5,-185.7"/>
<image xlink:href="../../images/foreignKeys.png" width="11px" height="12px" preserveAspectRatio="xMinYMin meet" x="177.5" y="-202.7"/>
<text text-anchor="start" x="192.5" y="-192.8" font-family="Helvetica,sans-Serif" font-size="11.00" fill="#000000">id</text>
<polygon fill="none" stroke="#000000" points="334.5,-185.7 334.5,-207.7 517.5,-207.7 517.5,-185.7 334.5,-185.7"/>
<text text-anchor="start" x="337.5" y="-193.4" font-family="Helvetica,sans-Serif" font-size="11.00" fill="#000000">int4[10]</text>
<polygon fill="none" stroke="#000000" points="172.5,-163.7 172.5,-185.7 334.5,-185.7 334.5,-163.7 172.5,-163.7"/>
<image xlink:href="../../images/foreignKeys.png" width="11px" height="12px" preserveAspectRatio="xMinYMin meet" x="177.5" y="-180.7"/>
<text text-anchor="start" x="192.5" y="-170.8" font-family="Helvetica,sans-Serif" font-size="11.00" fill="#000000">singularity_type</text>
<polygon fill="none" stroke="#000000" points="334.5,-163.7 334.5,-185.7 517.5,-185.7 517.5,-163.7 334.5,-163.7"/>
<text text-anchor="start" x="337.3565" y="-171.4" font-family="Helvetica,sans-Serif" font-size="11.00" fill="#000000">hydra_singularity_type[2147483647]</text>
<polygon fill="none" stroke="#000000" points="172.5,-141.7 172.5,-163.7 334.5,-163.7 334.5,-141.7 172.5,-141.7"/>
<text text-anchor="start" x="192.5" y="-148.8" font-family="Helvetica,sans-Serif" font-size="11.00" fill="#000000">slope</text>
<polygon fill="none" stroke="#000000" points="334.5,-141.7 334.5,-163.7 517.5,-163.7 517.5,-141.7 334.5,-141.7"/>
<text text-anchor="start" x="337.5" y="-149.4" font-family="Helvetica,sans-Serif" font-size="11.00" fill="#000000">float4[8,8]</text>
<polygon fill="none" stroke="#000000" points="172.5,-119.7 172.5,-141.7 334.5,-141.7 334.5,-119.7 172.5,-119.7"/>
<text text-anchor="start" x="192.5" y="-126.8" font-family="Helvetica,sans-Serif" font-size="11.00" fill="#000000">k</text>
<polygon fill="none" stroke="#000000" points="334.5,-119.7 334.5,-141.7 517.5,-141.7 517.5,-119.7 334.5,-119.7"/>
<text text-anchor="start" x="337.5" y="-127.4" font-family="Helvetica,sans-Serif" font-size="11.00" fill="#000000">float4[8,8]</text>
<polygon fill="none" stroke="#000000" points="172.5,-97.7 172.5,-119.7 334.5,-119.7 334.5,-97.7 172.5,-97.7"/>
<text text-anchor="start" x="192.5" y="-104.8" font-family="Helvetica,sans-Serif" font-size="11.00" fill="#000000">width</text>
<polygon fill="none" stroke="#000000" points="334.5,-97.7 334.5,-119.7 517.5,-119.7 517.5,-97.7 334.5,-97.7"/>
<text text-anchor="start" x="337.5" y="-105.4" font-family="Helvetica,sans-Serif" font-size="11.00" fill="#000000">float4[8,8]</text>
<polygon fill="#ffffff" stroke="transparent" points="172.5,-78.7 172.5,-97.7 244.5,-97.7 244.5,-78.7 172.5,-78.7"/>
<polygon fill="none" stroke="#000000" points="172.5,-78.7 172.5,-97.7 244.5,-97.7 244.5,-78.7 172.5,-78.7"/>
<text text-anchor="start" x="175.5" y="-84.8" font-family="Helvetica,sans-Serif" font-size="11.00" fill="#000000">&lt; 2</text>
<polygon fill="#ffffff" stroke="transparent" points="244.5,-78.7 244.5,-97.7 334.5,-97.7 334.5,-78.7 244.5,-78.7"/>
<polygon fill="none" stroke="#000000" points="244.5,-78.7 244.5,-97.7 334.5,-97.7 334.5,-78.7 244.5,-78.7"/>
<text text-anchor="start" x="299.1105" y="-84.8" font-family="Helvetica,sans-Serif" font-size="11.00" fill="#000000">0 rows</text>
<polygon fill="#ffffff" stroke="transparent" points="334.5,-78.7 334.5,-97.7 517.5,-97.7 517.5,-78.7 334.5,-78.7"/>
<polygon fill="none" stroke="#000000" points="334.5,-78.7 334.5,-97.7 517.5,-97.7 517.5,-78.7 334.5,-78.7"/>
<text text-anchor="start" x="498.9053" y="-84.8" font-family="Helvetica,sans-Serif" font-size="11.00" fill="#000000">0 &gt;</text>
<polygon fill="none" stroke="#000000" stroke-width="2" points="171,-77.7 171,-231.7 518,-231.7 518,-77.7 171,-77.7"/>
</a>
</g>
</g>
<!-- _singularity -->
<g id="node2" class="node">
<title>_singularity</title>
<g id="a_node2"><a xlink:href="../../tables/_singularity.html" xlink:title="_singularity" target="_top">
<polygon fill="#ffffff" stroke="transparent" points="8,-38.2 8,-231.2 121,-231.2 121,-38.2 8,-38.2"/>
<polygon fill="#f5f5f5" stroke="transparent" points="8.5,-207.7 8.5,-230.7 121.5,-230.7 121.5,-207.7 8.5,-207.7"/>
<polygon fill="none" stroke="#000000" points="8.5,-207.7 8.5,-230.7 121.5,-230.7 121.5,-207.7 8.5,-207.7"/>
<text text-anchor="start" x="13.5" y="-216.3" font-family="Helvetica,sans-Serif" font-weight="bold" font-size="11.00" fill="#000000">_singularity</text>
<text text-anchor="start" x="86.5437" y="-215.8" font-family="Helvetica,sans-Serif" font-size="11.00" fill="#000000">[table]</text>
<polygon fill="none" stroke="#000000" points="8.5,-185.7 8.5,-207.7 121.5,-207.7 121.5,-185.7 8.5,-185.7"/>
<image xlink:href="../../images/primaryKeys.png" width="11px" height="12px" preserveAspectRatio="xMinYMin meet" x="13.5" y="-202.7"/>
<text text-anchor="start" x="28.5" y="-192.8" font-family="Helvetica,sans-Serif" font-size="11.00" fill="#000000">id</text>
<polygon fill="#ffffff" stroke="transparent" points="8.5,-163.7 8.5,-185.7 121.5,-185.7 121.5,-163.7 8.5,-163.7"/>
<polygon fill="none" stroke="#000000" points="8.5,-163.7 8.5,-185.7 121.5,-185.7 121.5,-163.7 8.5,-163.7"/>
<text text-anchor="start" x="28.5" y="-170.8" font-family="Helvetica,sans-Serif" font-size="11.00" fill="#000000">singularity_type</text>
<polygon fill="#ffffff" stroke="transparent" points="8.5,-141.7 8.5,-163.7 121.5,-163.7 121.5,-141.7 8.5,-141.7"/>
<polygon fill="none" stroke="#000000" points="8.5,-141.7 8.5,-163.7 121.5,-163.7 121.5,-141.7 8.5,-141.7"/>
<text text-anchor="start" x="28.5" y="-148.8" font-family="Helvetica,sans-Serif" font-size="11.00" fill="#000000">name</text>
<polygon fill="#ffffff" stroke="transparent" points="8.5,-119.7 8.5,-141.7 121.5,-141.7 121.5,-119.7 8.5,-119.7"/>
<polygon fill="none" stroke="#000000" points="8.5,-119.7 8.5,-141.7 121.5,-141.7 121.5,-119.7 8.5,-119.7"/>
<image xlink:href="../../images/foreignKeys.png" width="11px" height="12px" preserveAspectRatio="xMinYMin meet" x="13.5" y="-136.7"/>
<text text-anchor="start" x="28.5" y="-126.8" font-family="Helvetica,sans-Serif" font-size="11.00" fill="#000000">node</text>
<polygon fill="none" stroke="#000000" points="8.5,-97.7 8.5,-119.7 121.5,-119.7 121.5,-97.7 8.5,-97.7"/>
<image xlink:href="../../images/foreignKeys.png" width="11px" height="12px" preserveAspectRatio="xMinYMin meet" x="13.5" y="-114.7"/>
<text text-anchor="start" x="28.5" y="-104.8" font-family="Helvetica,sans-Serif" font-size="11.00" fill="#000000">node_type</text>
<polygon fill="#ffffff" stroke="transparent" points="8.5,-75.7 8.5,-97.7 121.5,-97.7 121.5,-75.7 8.5,-75.7"/>
<polygon fill="none" stroke="#000000" points="8.5,-75.7 8.5,-97.7 121.5,-97.7 121.5,-75.7 8.5,-75.7"/>
<text text-anchor="start" x="28.5" y="-82.8" font-family="Helvetica,sans-Serif" font-size="11.00" fill="#000000">validity</text>
<polygon fill="none" stroke="#000000" points="8.5,-56.7 8.5,-75.7 121.5,-75.7 121.5,-56.7 8.5,-56.7"/>
<text text-anchor="start" x="11.5" y="-62.8" font-family="Helvetica,sans-Serif" font-size="11.00" fill="#000000">...</text>
<polygon fill="#ffffff" stroke="transparent" points="8.5,-37.7 8.5,-56.7 42.5,-56.7 42.5,-37.7 8.5,-37.7"/>
<polygon fill="none" stroke="#000000" points="8.5,-37.7 8.5,-56.7 42.5,-56.7 42.5,-37.7 8.5,-37.7"/>
<text text-anchor="start" x="11.5" y="-43.8" font-family="Helvetica,sans-Serif" font-size="11.00" fill="#000000">&lt; 2</text>
<polygon fill="#ffffff" stroke="transparent" points="42.5,-37.7 42.5,-56.7 87.5,-56.7 87.5,-37.7 42.5,-37.7"/>
<polygon fill="none" stroke="#000000" points="42.5,-37.7 42.5,-56.7 87.5,-56.7 87.5,-37.7 42.5,-37.7"/>
<text text-anchor="start" x="52.1105" y="-43.8" font-family="Helvetica,sans-Serif" font-size="11.00" fill="#000000">0 rows</text>
<polygon fill="#ffffff" stroke="transparent" points="87.5,-37.7 87.5,-56.7 121.5,-56.7 121.5,-37.7 87.5,-37.7"/>
<polygon fill="none" stroke="#000000" points="87.5,-37.7 87.5,-56.7 121.5,-56.7 121.5,-37.7 87.5,-37.7"/>
<text text-anchor="start" x="96.7904" y="-43.8" font-family="Helvetica,sans-Serif" font-size="11.00" fill="#000000">52 &gt;</text>
</a>
</g>
</g>
<!-- _strickler_bc_singularity&#45;&gt;_singularity -->
<g id="edge1" class="edge">
<title>_strickler_bc_singularity:w&#45;&gt;_singularity:e</title>
<path fill="none" stroke="#000000" d="M161.7307,-196.7C147.248,-196.7 140.0938,-196.7 121.5,-196.7"/>
<polygon fill="#000000" stroke="#000000" points="171.7,-192.7 171.7,-200.7 170.1,-200.7 170.1,-192.7 171.7,-192.7"/>
<polyline fill="none" stroke="#000000" points="172.5,-196.7 168.5,-196.7 "/>
<ellipse fill="none" stroke="#000000" cx="165.3" cy="-196.7001" rx="3.2" ry="3.2"/>
</g>
<!-- _strickler_bc_singularity&#45;&gt;_singularity -->
<g id="edge2" class="edge">
<title>_strickler_bc_singularity:w&#45;&gt;_singularity:e</title>
<path fill="none" stroke="#000000" d="M157.776,-174.7C145.7815,-174.7 138.3229,-174.7 121.5,-174.7"/>
<polygon fill="#000000" stroke="#000000" points="164.5,-174.7001 172.5,-178.3 168.5,-174.7 172.5,-174.7 172.5,-174.7 172.5,-174.7 168.5,-174.7 172.5,-171.1 164.5,-174.7001 164.5,-174.7001"/>
<ellipse fill="none" stroke="#000000" cx="161.3" cy="-174.7001" rx="3.2" ry="3.2"/>
</g>
</g>
</svg>
