<?xml version="1.0" encoding="UTF-8" standalone="no"?>
<!DOCTYPE svg PUBLIC "-//W3C//DTD SVG 1.1//EN"
 "http://www.w3.org/Graphics/SVG/1.1/DTD/svg11.dtd">
<!-- Generated by graphviz version 2.40.1 (20161225.0304)
 -->
<!-- Title: oneDegreeRelationshipsDiagram Pages: 1 -->
<svg width="577pt" height="545pt"
 viewBox="0.00 0.00 577.00 545.20" xmlns="http://www.w3.org/2000/svg" xmlns:xlink="http://www.w3.org/1999/xlink">
<g id="graph0" class="graph" transform="scale(1 1) rotate(0) translate(4 541.2)">
<title>oneDegreeRelationshipsDiagram</title>
<polygon fill="#ffffff" stroke="transparent" points="-4,4 -4,-541.2 573,-541.2 573,4 -4,4"/>
<text text-anchor="middle" x="72.4936" y="-7.3" font-family="Helvetica,sans-Serif" font-size="11.00" fill="#000000">Generated by SchemaSpy</text>
<!-- _zq_split_hydrology_singularity -->
<g id="node1" class="node">
<title>_zq_split_hydrology_singularity</title>
<g id="a_node1"><a xlink:href="../../tables/_zq_split_hydrology_singularity.html" xlink:title="_zq_split_hydrology_singularity" target="_top">
<polygon fill="#ffffff" stroke="transparent" points="170,-76.7 170,-430.7 561,-430.7 561,-76.7 170,-76.7"/>
<polygon fill="#f5f5f5" stroke="transparent" points="172.5,-405.7 172.5,-428.7 559.5,-428.7 559.5,-405.7 172.5,-405.7"/>
<polygon fill="none" stroke="#000000" points="172.5,-405.7 172.5,-428.7 559.5,-428.7 559.5,-405.7 172.5,-405.7"/>
<text text-anchor="start" x="177.5" y="-414.3" font-family="Helvetica,sans-Serif" font-weight="bold" font-size="11.00" fill="#000000">_zq_split_hydrology_singularity</text>
<text text-anchor="start" x="524.5437" y="-413.8" font-family="Helvetica,sans-Serif" font-size="11.00" fill="#000000">[table]</text>
<polygon fill="#ffffff" stroke="transparent" points="172.5,-383.7 172.5,-405.7 376.5,-405.7 376.5,-383.7 172.5,-383.7"/>
<polygon fill="none" stroke="#000000" points="172.5,-383.7 172.5,-405.7 376.5,-405.7 376.5,-383.7 172.5,-383.7"/>
<image xlink:href="../../images/foreignKeys.png" width="11px" height="12px" preserveAspectRatio="xMinYMin meet" x="177.5" y="-400.7"/>
<text text-anchor="start" x="192.5" y="-390.8" font-family="Helvetica,sans-Serif" font-size="11.00" fill="#000000">id</text>
<polygon fill="none" stroke="#000000" points="376.5,-383.7 376.5,-405.7 559.5,-405.7 559.5,-383.7 376.5,-383.7"/>
<text text-anchor="start" x="379.5" y="-391.4" font-family="Helvetica,sans-Serif" font-size="11.00" fill="#000000">int4[10]</text>
<polygon fill="none" stroke="#000000" points="172.5,-361.7 172.5,-383.7 376.5,-383.7 376.5,-361.7 172.5,-361.7"/>
<image xlink:href="../../images/foreignKeys.png" width="11px" height="12px" preserveAspectRatio="xMinYMin meet" x="177.5" y="-378.7"/>
<text text-anchor="start" x="192.5" y="-368.8" font-family="Helvetica,sans-Serif" font-size="11.00" fill="#000000">singularity_type</text>
<polygon fill="none" stroke="#000000" points="376.5,-361.7 376.5,-383.7 559.5,-383.7 559.5,-361.7 376.5,-361.7"/>
<text text-anchor="start" x="379.3565" y="-369.4" font-family="Helvetica,sans-Serif" font-size="11.00" fill="#000000">hydra_singularity_type[2147483647]</text>
<polygon fill="none" stroke="#000000" points="172.5,-339.7 172.5,-361.7 376.5,-361.7 376.5,-339.7 172.5,-339.7"/>
<image xlink:href="../../images/foreignKeys.png" width="11px" height="12px" preserveAspectRatio="xMinYMin meet" x="177.5" y="-356.7"/>
<text text-anchor="start" x="192.5" y="-346.8" font-family="Helvetica,sans-Serif" font-size="11.00" fill="#000000">downstream</text>
<polygon fill="none" stroke="#000000" points="376.5,-339.7 376.5,-361.7 559.5,-361.7 559.5,-339.7 376.5,-339.7"/>
<text text-anchor="start" x="379.5" y="-347.4" font-family="Helvetica,sans-Serif" font-size="11.00" fill="#000000">int4[10]</text>
<polygon fill="none" stroke="#000000" points="172.5,-317.7 172.5,-339.7 376.5,-339.7 376.5,-317.7 172.5,-317.7"/>
<image xlink:href="../../images/foreignKeys.png" width="11px" height="12px" preserveAspectRatio="xMinYMin meet" x="177.5" y="-334.7"/>
<text text-anchor="start" x="192.5" y="-324.8" font-family="Helvetica,sans-Serif" font-size="11.00" fill="#000000">downstream_type</text>
<polygon fill="none" stroke="#000000" points="376.5,-317.7 376.5,-339.7 559.5,-339.7 559.5,-317.7 376.5,-317.7"/>
<text text-anchor="start" x="379.5" y="-325.4" font-family="Helvetica,sans-Serif" font-size="11.00" fill="#000000">hydra_link_type[2147483647]</text>
<polygon fill="none" stroke="#000000" points="172.5,-295.7 172.5,-317.7 376.5,-317.7 376.5,-295.7 172.5,-295.7"/>
<image xlink:href="../../images/foreignKeys.png" width="11px" height="12px" preserveAspectRatio="xMinYMin meet" x="177.5" y="-312.7"/>
<text text-anchor="start" x="192.5" y="-302.8" font-family="Helvetica,sans-Serif" font-size="11.00" fill="#000000">split1</text>
<polygon fill="none" stroke="#000000" points="376.5,-295.7 376.5,-317.7 559.5,-317.7 559.5,-295.7 376.5,-295.7"/>
<text text-anchor="start" x="379.5" y="-303.4" font-family="Helvetica,sans-Serif" font-size="11.00" fill="#000000">int4[10]</text>
<polygon fill="none" stroke="#000000" points="172.5,-273.7 172.5,-295.7 376.5,-295.7 376.5,-273.7 172.5,-273.7"/>
<image xlink:href="../../images/foreignKeys.png" width="11px" height="12px" preserveAspectRatio="xMinYMin meet" x="177.5" y="-290.7"/>
<text text-anchor="start" x="192.5" y="-280.8" font-family="Helvetica,sans-Serif" font-size="11.00" fill="#000000">split1_type</text>
<polygon fill="none" stroke="#000000" points="376.5,-273.7 376.5,-295.7 559.5,-295.7 559.5,-273.7 376.5,-273.7"/>
<text text-anchor="start" x="379.5" y="-281.4" font-family="Helvetica,sans-Serif" font-size="11.00" fill="#000000">hydra_link_type[2147483647]</text>
<polygon fill="none" stroke="#000000" points="172.5,-251.7 172.5,-273.7 376.5,-273.7 376.5,-251.7 172.5,-251.7"/>
<image xlink:href="../../images/foreignKeys.png" width="11px" height="12px" preserveAspectRatio="xMinYMin meet" x="177.5" y="-268.7"/>
<text text-anchor="start" x="192.5" y="-258.8" font-family="Helvetica,sans-Serif" font-size="11.00" fill="#000000">split2</text>
<polygon fill="none" stroke="#000000" points="376.5,-251.7 376.5,-273.7 559.5,-273.7 559.5,-251.7 376.5,-251.7"/>
<text text-anchor="start" x="379.5" y="-259.4" font-family="Helvetica,sans-Serif" font-size="11.00" fill="#000000">int4[10]</text>
<polygon fill="none" stroke="#000000" points="172.5,-229.7 172.5,-251.7 376.5,-251.7 376.5,-229.7 172.5,-229.7"/>
<image xlink:href="../../images/foreignKeys.png" width="11px" height="12px" preserveAspectRatio="xMinYMin meet" x="177.5" y="-246.7"/>
<text text-anchor="start" x="192.5" y="-236.8" font-family="Helvetica,sans-Serif" font-size="11.00" fill="#000000">split2_type</text>
<polygon fill="none" stroke="#000000" points="376.5,-229.7 376.5,-251.7 559.5,-251.7 559.5,-229.7 376.5,-229.7"/>
<text text-anchor="start" x="379.5" y="-237.4" font-family="Helvetica,sans-Serif" font-size="11.00" fill="#000000">hydra_link_type[2147483647]</text>
<polygon fill="none" stroke="#000000" points="172.5,-207.7 172.5,-229.7 376.5,-229.7 376.5,-207.7 172.5,-207.7"/>
<text text-anchor="start" x="192.5" y="-214.8" font-family="Helvetica,sans-Serif" font-size="11.00" fill="#000000">downstream_law</text>
<polygon fill="none" stroke="#000000" points="376.5,-207.7 376.5,-229.7 559.5,-229.7 559.5,-207.7 376.5,-207.7"/>
<text text-anchor="start" x="379.5" y="-215.4" font-family="Helvetica,sans-Serif" font-size="11.00" fill="#000000">hydra_split_law_type[2147483647]</text>
<polygon fill="none" stroke="#000000" points="172.5,-185.7 172.5,-207.7 376.5,-207.7 376.5,-185.7 172.5,-185.7"/>
<text text-anchor="start" x="192.5" y="-192.8" font-family="Helvetica,sans-Serif" font-size="11.00" fill="#000000">downstream_param</text>
<polygon fill="none" stroke="#000000" points="376.5,-185.7 376.5,-207.7 559.5,-207.7 559.5,-185.7 376.5,-185.7"/>
<text text-anchor="start" x="379.5" y="-193.4" font-family="Helvetica,sans-Serif" font-size="11.00" fill="#000000">json[2147483647]</text>
<polygon fill="none" stroke="#000000" points="172.5,-163.7 172.5,-185.7 376.5,-185.7 376.5,-163.7 172.5,-163.7"/>
<text text-anchor="start" x="192.5" y="-170.8" font-family="Helvetica,sans-Serif" font-size="11.00" fill="#000000">split1_law</text>
<polygon fill="none" stroke="#000000" points="376.5,-163.7 376.5,-185.7 559.5,-185.7 559.5,-163.7 376.5,-163.7"/>
<text text-anchor="start" x="379.5" y="-171.4" font-family="Helvetica,sans-Serif" font-size="11.00" fill="#000000">hydra_split_law_type[2147483647]</text>
<polygon fill="none" stroke="#000000" points="172.5,-141.7 172.5,-163.7 376.5,-163.7 376.5,-141.7 172.5,-141.7"/>
<text text-anchor="start" x="192.5" y="-148.8" font-family="Helvetica,sans-Serif" font-size="11.00" fill="#000000">split1_param</text>
<polygon fill="none" stroke="#000000" points="376.5,-141.7 376.5,-163.7 559.5,-163.7 559.5,-141.7 376.5,-141.7"/>
<text text-anchor="start" x="379.5" y="-149.4" font-family="Helvetica,sans-Serif" font-size="11.00" fill="#000000">json[2147483647]</text>
<polygon fill="none" stroke="#000000" points="172.5,-119.7 172.5,-141.7 376.5,-141.7 376.5,-119.7 172.5,-119.7"/>
<text text-anchor="start" x="192.5" y="-126.8" font-family="Helvetica,sans-Serif" font-size="11.00" fill="#000000">split2_law</text>
<polygon fill="none" stroke="#000000" points="376.5,-119.7 376.5,-141.7 559.5,-141.7 559.5,-119.7 376.5,-119.7"/>
<text text-anchor="start" x="379.5" y="-127.4" font-family="Helvetica,sans-Serif" font-size="11.00" fill="#000000">hydra_split_law_type[2147483647]</text>
<polygon fill="none" stroke="#000000" points="172.5,-97.7 172.5,-119.7 376.5,-119.7 376.5,-97.7 172.5,-97.7"/>
<text text-anchor="start" x="192.5" y="-104.8" font-family="Helvetica,sans-Serif" font-size="11.00" fill="#000000">split2_param</text>
<polygon fill="none" stroke="#000000" points="376.5,-97.7 376.5,-119.7 559.5,-119.7 559.5,-97.7 376.5,-97.7"/>
<text text-anchor="start" x="379.5" y="-105.4" font-family="Helvetica,sans-Serif" font-size="11.00" fill="#000000">json[2147483647]</text>
<polygon fill="#ffffff" stroke="transparent" points="172.5,-78.7 172.5,-97.7 265.5,-97.7 265.5,-78.7 172.5,-78.7"/>
<polygon fill="none" stroke="#000000" points="172.5,-78.7 172.5,-97.7 265.5,-97.7 265.5,-78.7 172.5,-78.7"/>
<text text-anchor="start" x="175.5" y="-84.8" font-family="Helvetica,sans-Serif" font-size="11.00" fill="#000000">&lt; 8</text>
<polygon fill="#ffffff" stroke="transparent" points="265.5,-78.7 265.5,-97.7 376.5,-97.7 376.5,-78.7 265.5,-78.7"/>
<polygon fill="none" stroke="#000000" points="265.5,-78.7 265.5,-97.7 376.5,-97.7 376.5,-78.7 265.5,-78.7"/>
<text text-anchor="start" x="341.1105" y="-84.8" font-family="Helvetica,sans-Serif" font-size="11.00" fill="#000000">0 rows</text>
<polygon fill="#ffffff" stroke="transparent" points="376.5,-78.7 376.5,-97.7 559.5,-97.7 559.5,-78.7 376.5,-78.7"/>
<polygon fill="none" stroke="#000000" points="376.5,-78.7 376.5,-97.7 559.5,-97.7 559.5,-78.7 376.5,-78.7"/>
<text text-anchor="start" x="540.9053" y="-84.8" font-family="Helvetica,sans-Serif" font-size="11.00" fill="#000000">0 &gt;</text>
<polygon fill="none" stroke="#000000" stroke-width="2" points="171,-77.7 171,-429.7 560,-429.7 560,-77.7 171,-77.7"/>
</a>
</g>
</g>
<!-- _link -->
<g id="node2" class="node">
<title>_link</title>
<g id="a_node2"><a xlink:href="../../tables/_link.html" xlink:title="_link" target="_top">
<polygon fill="#ffffff" stroke="transparent" points="16,-38.2 16,-319.2 113,-319.2 113,-38.2 16,-38.2"/>
<polygon fill="#f5f5f5" stroke="transparent" points="16.5,-295.7 16.5,-318.7 113.5,-318.7 113.5,-295.7 16.5,-295.7"/>
<polygon fill="none" stroke="#000000" points="16.5,-295.7 16.5,-318.7 113.5,-318.7 113.5,-295.7 16.5,-295.7"/>
<text text-anchor="start" x="21.5" y="-304.3" font-family="Helvetica,sans-Serif" font-weight="bold" font-size="11.00" fill="#000000">_link</text>
<text text-anchor="start" x="78.5437" y="-303.8" font-family="Helvetica,sans-Serif" font-size="11.00" fill="#000000">[table]</text>
<polygon fill="none" stroke="#000000" points="16.5,-273.7 16.5,-295.7 113.5,-295.7 113.5,-273.7 16.5,-273.7"/>
<image xlink:href="../../images/primaryKeys.png" width="11px" height="12px" preserveAspectRatio="xMinYMin meet" x="21.5" y="-290.7"/>
<text text-anchor="start" x="36.5" y="-280.8" font-family="Helvetica,sans-Serif" font-size="11.00" fill="#000000">id</text>
<polygon fill="#ffffff" stroke="transparent" points="16.5,-251.7 16.5,-273.7 113.5,-273.7 113.5,-251.7 16.5,-251.7"/>
<polygon fill="none" stroke="#000000" points="16.5,-251.7 16.5,-273.7 113.5,-273.7 113.5,-251.7 16.5,-251.7"/>
<text text-anchor="start" x="36.5" y="-258.8" font-family="Helvetica,sans-Serif" font-size="11.00" fill="#000000">link_type</text>
<polygon fill="#ffffff" stroke="transparent" points="16.5,-229.7 16.5,-251.7 113.5,-251.7 113.5,-229.7 16.5,-229.7"/>
<polygon fill="none" stroke="#000000" points="16.5,-229.7 16.5,-251.7 113.5,-251.7 113.5,-229.7 16.5,-229.7"/>
<text text-anchor="start" x="36.5" y="-236.8" font-family="Helvetica,sans-Serif" font-size="11.00" fill="#000000">name</text>
<polygon fill="#ffffff" stroke="transparent" points="16.5,-207.7 16.5,-229.7 113.5,-229.7 113.5,-207.7 16.5,-207.7"/>
<polygon fill="none" stroke="#000000" points="16.5,-207.7 16.5,-229.7 113.5,-229.7 113.5,-207.7 16.5,-207.7"/>
<image xlink:href="../../images/foreignKeys.png" width="11px" height="12px" preserveAspectRatio="xMinYMin meet" x="21.5" y="-224.7"/>
<text text-anchor="start" x="36.5" y="-214.8" font-family="Helvetica,sans-Serif" font-size="11.00" fill="#000000">generated</text>
<polygon fill="#ffffff" stroke="transparent" points="16.5,-185.7 16.5,-207.7 113.5,-207.7 113.5,-185.7 16.5,-185.7"/>
<polygon fill="none" stroke="#000000" points="16.5,-185.7 16.5,-207.7 113.5,-207.7 113.5,-185.7 16.5,-185.7"/>
<image xlink:href="../../images/foreignKeys.png" width="11px" height="12px" preserveAspectRatio="xMinYMin meet" x="21.5" y="-202.7"/>
<text text-anchor="start" x="36.5" y="-192.8" font-family="Helvetica,sans-Serif" font-size="11.00" fill="#000000">up</text>
<polygon fill="none" stroke="#000000" points="16.5,-163.7 16.5,-185.7 113.5,-185.7 113.5,-163.7 16.5,-163.7"/>
<image xlink:href="../../images/foreignKeys.png" width="11px" height="12px" preserveAspectRatio="xMinYMin meet" x="21.5" y="-180.7"/>
<text text-anchor="start" x="36.5" y="-170.8" font-family="Helvetica,sans-Serif" font-size="11.00" fill="#000000">up_type</text>
<polygon fill="#ffffff" stroke="transparent" points="16.5,-141.7 16.5,-163.7 113.5,-163.7 113.5,-141.7 16.5,-141.7"/>
<polygon fill="none" stroke="#000000" points="16.5,-141.7 16.5,-163.7 113.5,-163.7 113.5,-141.7 16.5,-141.7"/>
<image xlink:href="../../images/foreignKeys.png" width="11px" height="12px" preserveAspectRatio="xMinYMin meet" x="21.5" y="-158.7"/>
<text text-anchor="start" x="36.5" y="-148.8" font-family="Helvetica,sans-Serif" font-size="11.00" fill="#000000">down</text>
<polygon fill="none" stroke="#000000" points="16.5,-119.7 16.5,-141.7 113.5,-141.7 113.5,-119.7 16.5,-119.7"/>
<image xlink:href="../../images/foreignKeys.png" width="11px" height="12px" preserveAspectRatio="xMinYMin meet" x="21.5" y="-136.7"/>
<text text-anchor="start" x="36.5" y="-126.8" font-family="Helvetica,sans-Serif" font-size="11.00" fill="#000000">down_type</text>
<polygon fill="#ffffff" stroke="transparent" points="16.5,-97.7 16.5,-119.7 113.5,-119.7 113.5,-97.7 16.5,-97.7"/>
<polygon fill="none" stroke="#000000" points="16.5,-97.7 16.5,-119.7 113.5,-119.7 113.5,-97.7 16.5,-97.7"/>
<text text-anchor="start" x="36.5" y="-104.8" font-family="Helvetica,sans-Serif" font-size="11.00" fill="#000000">geom</text>
<polygon fill="#ffffff" stroke="transparent" points="16.5,-75.7 16.5,-97.7 113.5,-97.7 113.5,-75.7 16.5,-75.7"/>
<polygon fill="none" stroke="#000000" points="16.5,-75.7 16.5,-97.7 113.5,-97.7 113.5,-75.7 16.5,-75.7"/>
<text text-anchor="start" x="36.5" y="-82.8" font-family="Helvetica,sans-Serif" font-size="11.00" fill="#000000">validity</text>
<polygon fill="none" stroke="#000000" points="16.5,-56.7 16.5,-75.7 113.5,-75.7 113.5,-56.7 16.5,-56.7"/>
<text text-anchor="start" x="19.5" y="-62.8" font-family="Helvetica,sans-Serif" font-size="11.00" fill="#000000">...</text>
<polygon fill="#ffffff" stroke="transparent" points="16.5,-37.7 16.5,-56.7 42.5,-56.7 42.5,-37.7 16.5,-37.7"/>
<polygon fill="none" stroke="#000000" points="16.5,-37.7 16.5,-56.7 42.5,-56.7 42.5,-37.7 16.5,-37.7"/>
<text text-anchor="start" x="19.5" y="-43.8" font-family="Helvetica,sans-Serif" font-size="11.00" fill="#000000">&lt; 5</text>
<polygon fill="#ffffff" stroke="transparent" points="42.5,-37.7 42.5,-56.7 83.5,-56.7 83.5,-37.7 42.5,-37.7"/>
<polygon fill="none" stroke="#000000" points="42.5,-37.7 42.5,-56.7 83.5,-56.7 83.5,-37.7 42.5,-37.7"/>
<text text-anchor="start" x="48.1105" y="-43.8" font-family="Helvetica,sans-Serif" font-size="11.00" fill="#000000">0 rows</text>
<polygon fill="#ffffff" stroke="transparent" points="83.5,-37.7 83.5,-56.7 113.5,-56.7 113.5,-37.7 83.5,-37.7"/>
<polygon fill="none" stroke="#000000" points="83.5,-37.7 83.5,-56.7 113.5,-56.7 113.5,-37.7 83.5,-37.7"/>
<text text-anchor="start" x="88.7904" y="-43.8" font-family="Helvetica,sans-Serif" font-size="11.00" fill="#000000">60 &gt;</text>
</a>
</g>
</g>
<!-- _zq_split_hydrology_singularity&#45;&gt;_link -->
<g id="edge1" class="edge">
<title>_zq_split_hydrology_singularity:w&#45;&gt;_link:e</title>
<path fill="none" stroke="#000000" d="M158.4952,-346.7691C137.6996,-332.5605 147.0049,-284.7 113.5,-284.7"/>
<polygon fill="#000000" stroke="#000000" points="164.7977,-348.538 171.5271,-354.1661 168.6488,-349.619 172.5,-350.7 172.5,-350.7 172.5,-350.7 168.6488,-349.619 173.4729,-347.2339 164.7977,-348.538 164.7977,-348.538"/>
<ellipse fill="none" stroke="#000000" cx="161.7167" cy="-347.6732" rx="3.2" ry="3.2"/>
</g>
<!-- _zq_split_hydrology_singularity&#45;&gt;_link -->
<g id="edge2" class="edge">
<title>_zq_split_hydrology_singularity:w&#45;&gt;_link:e</title>
<path fill="none" stroke="#000000" d="M158.4952,-324.7691C137.6996,-310.5605 147.0049,-262.7 113.5,-262.7"/>
<polygon fill="#000000" stroke="#000000" points="164.7977,-326.538 171.5271,-332.1661 168.6488,-327.619 172.5,-328.7 172.5,-328.7 172.5,-328.7 168.6488,-327.619 173.4729,-325.2339 164.7977,-326.538 164.7977,-326.538"/>
<ellipse fill="none" stroke="#000000" cx="161.7167" cy="-325.6732" rx="3.2" ry="3.2"/>
</g>
<!-- _zq_split_hydrology_singularity&#45;&gt;_link -->
<g id="edge5" class="edge">
<title>_zq_split_hydrology_singularity:w&#45;&gt;_link:e</title>
<path fill="none" stroke="#000000" d="M158.117,-304.3456C142.2541,-298.6702 135.8013,-284.7 113.5,-284.7"/>
<polygon fill="#000000" stroke="#000000" points="164.6051,-305.4076 171.9184,-310.2527 168.5525,-306.0538 172.5,-306.7 172.5,-306.7 172.5,-306.7 168.5525,-306.0538 173.0816,-303.1473 164.6051,-305.4076 164.6051,-305.4076"/>
<ellipse fill="none" stroke="#000000" cx="161.4471" cy="-304.8907" rx="3.2" ry="3.2"/>
</g>
<!-- _zq_split_hydrology_singularity&#45;&gt;_link -->
<g id="edge6" class="edge">
<title>_zq_split_hydrology_singularity:w&#45;&gt;_link:e</title>
<path fill="none" stroke="#000000" d="M158.117,-282.3456C142.2541,-276.6702 135.8013,-262.7 113.5,-262.7"/>
<polygon fill="#000000" stroke="#000000" points="164.6051,-283.4076 171.9184,-288.2527 168.5525,-284.0538 172.5,-284.7 172.5,-284.7 172.5,-284.7 168.5525,-284.0538 173.0816,-281.1473 164.6051,-283.4076 164.6051,-283.4076"/>
<ellipse fill="none" stroke="#000000" cx="161.4471" cy="-282.8907" rx="3.2" ry="3.2"/>
</g>
<!-- _zq_split_hydrology_singularity&#45;&gt;_link -->
<g id="edge7" class="edge">
<title>_zq_split_hydrology_singularity:w&#45;&gt;_link:e</title>
<path fill="none" stroke="#000000" d="M158.117,-265.0544C142.2541,-270.7298 135.8013,-284.7 113.5,-284.7"/>
<polygon fill="#000000" stroke="#000000" points="164.6051,-263.9924 173.0816,-266.2527 168.5525,-263.3462 172.5,-262.7 172.5,-262.7 172.5,-262.7 168.5525,-263.3462 171.9184,-259.1473 164.6051,-263.9924 164.6051,-263.9924"/>
<ellipse fill="none" stroke="#000000" cx="161.4471" cy="-264.5093" rx="3.2" ry="3.2"/>
</g>
<!-- _zq_split_hydrology_singularity&#45;&gt;_link -->
<g id="edge8" class="edge">
<title>_zq_split_hydrology_singularity:w&#45;&gt;_link:e</title>
<path fill="none" stroke="#000000" d="M158.117,-243.0544C142.2541,-248.7298 135.8013,-262.7 113.5,-262.7"/>
<polygon fill="#000000" stroke="#000000" points="164.6051,-241.9924 173.0816,-244.2527 168.5525,-241.3462 172.5,-240.7 172.5,-240.7 172.5,-240.7 168.5525,-241.3462 171.9184,-237.1473 164.6051,-241.9924 164.6051,-241.9924"/>
<ellipse fill="none" stroke="#000000" cx="161.4471" cy="-242.5093" rx="3.2" ry="3.2"/>
</g>
<!-- _singularity -->
<g id="node3" class="node">
<title>_singularity</title>
<g id="a_node3"><a xlink:href="../../tables/_singularity.html" xlink:title="_singularity" target="_top">
<polygon fill="#ffffff" stroke="transparent" points="8,-340.2 8,-533.2 121,-533.2 121,-340.2 8,-340.2"/>
<polygon fill="#f5f5f5" stroke="transparent" points="8.5,-509.7 8.5,-532.7 121.5,-532.7 121.5,-509.7 8.5,-509.7"/>
<polygon fill="none" stroke="#000000" points="8.5,-509.7 8.5,-532.7 121.5,-532.7 121.5,-509.7 8.5,-509.7"/>
<text text-anchor="start" x="13.5" y="-518.3" font-family="Helvetica,sans-Serif" font-weight="bold" font-size="11.00" fill="#000000">_singularity</text>
<text text-anchor="start" x="86.5437" y="-517.8" font-family="Helvetica,sans-Serif" font-size="11.00" fill="#000000">[table]</text>
<polygon fill="none" stroke="#000000" points="8.5,-487.7 8.5,-509.7 121.5,-509.7 121.5,-487.7 8.5,-487.7"/>
<image xlink:href="../../images/primaryKeys.png" width="11px" height="12px" preserveAspectRatio="xMinYMin meet" x="13.5" y="-504.7"/>
<text text-anchor="start" x="28.5" y="-494.8" font-family="Helvetica,sans-Serif" font-size="11.00" fill="#000000">id</text>
<polygon fill="#ffffff" stroke="transparent" points="8.5,-465.7 8.5,-487.7 121.5,-487.7 121.5,-465.7 8.5,-465.7"/>
<polygon fill="none" stroke="#000000" points="8.5,-465.7 8.5,-487.7 121.5,-487.7 121.5,-465.7 8.5,-465.7"/>
<text text-anchor="start" x="28.5" y="-472.8" font-family="Helvetica,sans-Serif" font-size="11.00" fill="#000000">singularity_type</text>
<polygon fill="#ffffff" stroke="transparent" points="8.5,-443.7 8.5,-465.7 121.5,-465.7 121.5,-443.7 8.5,-443.7"/>
<polygon fill="none" stroke="#000000" points="8.5,-443.7 8.5,-465.7 121.5,-465.7 121.5,-443.7 8.5,-443.7"/>
<text text-anchor="start" x="28.5" y="-450.8" font-family="Helvetica,sans-Serif" font-size="11.00" fill="#000000">name</text>
<polygon fill="#ffffff" stroke="transparent" points="8.5,-421.7 8.5,-443.7 121.5,-443.7 121.5,-421.7 8.5,-421.7"/>
<polygon fill="none" stroke="#000000" points="8.5,-421.7 8.5,-443.7 121.5,-443.7 121.5,-421.7 8.5,-421.7"/>
<image xlink:href="../../images/foreignKeys.png" width="11px" height="12px" preserveAspectRatio="xMinYMin meet" x="13.5" y="-438.7"/>
<text text-anchor="start" x="28.5" y="-428.8" font-family="Helvetica,sans-Serif" font-size="11.00" fill="#000000">node</text>
<polygon fill="none" stroke="#000000" points="8.5,-399.7 8.5,-421.7 121.5,-421.7 121.5,-399.7 8.5,-399.7"/>
<image xlink:href="../../images/foreignKeys.png" width="11px" height="12px" preserveAspectRatio="xMinYMin meet" x="13.5" y="-416.7"/>
<text text-anchor="start" x="28.5" y="-406.8" font-family="Helvetica,sans-Serif" font-size="11.00" fill="#000000">node_type</text>
<polygon fill="#ffffff" stroke="transparent" points="8.5,-377.7 8.5,-399.7 121.5,-399.7 121.5,-377.7 8.5,-377.7"/>
<polygon fill="none" stroke="#000000" points="8.5,-377.7 8.5,-399.7 121.5,-399.7 121.5,-377.7 8.5,-377.7"/>
<text text-anchor="start" x="28.5" y="-384.8" font-family="Helvetica,sans-Serif" font-size="11.00" fill="#000000">validity</text>
<polygon fill="none" stroke="#000000" points="8.5,-358.7 8.5,-377.7 121.5,-377.7 121.5,-358.7 8.5,-358.7"/>
<text text-anchor="start" x="11.5" y="-364.8" font-family="Helvetica,sans-Serif" font-size="11.00" fill="#000000">...</text>
<polygon fill="#ffffff" stroke="transparent" points="8.5,-339.7 8.5,-358.7 42.5,-358.7 42.5,-339.7 8.5,-339.7"/>
<polygon fill="none" stroke="#000000" points="8.5,-339.7 8.5,-358.7 42.5,-358.7 42.5,-339.7 8.5,-339.7"/>
<text text-anchor="start" x="11.5" y="-345.8" font-family="Helvetica,sans-Serif" font-size="11.00" fill="#000000">&lt; 2</text>
<polygon fill="#ffffff" stroke="transparent" points="42.5,-339.7 42.5,-358.7 87.5,-358.7 87.5,-339.7 42.5,-339.7"/>
<polygon fill="none" stroke="#000000" points="42.5,-339.7 42.5,-358.7 87.5,-358.7 87.5,-339.7 42.5,-339.7"/>
<text text-anchor="start" x="52.1105" y="-345.8" font-family="Helvetica,sans-Serif" font-size="11.00" fill="#000000">0 rows</text>
<polygon fill="#ffffff" stroke="transparent" points="87.5,-339.7 87.5,-358.7 121.5,-358.7 121.5,-339.7 87.5,-339.7"/>
<polygon fill="none" stroke="#000000" points="87.5,-339.7 87.5,-358.7 121.5,-358.7 121.5,-339.7 87.5,-339.7"/>
<text text-anchor="start" x="96.7904" y="-345.8" font-family="Helvetica,sans-Serif" font-size="11.00" fill="#000000">52 &gt;</text>
</a>
</g>
</g>
<!-- _zq_split_hydrology_singularity&#45;&gt;_singularity -->
<g id="edge3" class="edge">
<title>_zq_split_hydrology_singularity:w&#45;&gt;_singularity:e</title>
<path fill="none" stroke="#000000" d="M162.2296,-396.5051C128.5068,-410.3152 168.9589,-498.7 121.5,-498.7"/>
<polygon fill="#000000" stroke="#000000" points="171.0196,-390.8989 172.4045,-398.7781 170.8287,-399.0551 169.4438,-391.1759 171.0196,-390.8989"/>
<polyline fill="none" stroke="#000000" points="172.5,-394.7 168.5604,-395.3925 "/>
<ellipse fill="none" stroke="#000000" cx="165.4087" cy="-395.9464" rx="3.2" ry="3.2"/>
</g>
<!-- _zq_split_hydrology_singularity&#45;&gt;_singularity -->
<g id="edge4" class="edge">
<title>_zq_split_hydrology_singularity:w&#45;&gt;_singularity:e</title>
<path fill="none" stroke="#000000" d="M158.33,-376.6499C131.7771,-395.6468 166.9479,-476.7 121.5,-476.7"/>
<polygon fill="#000000" stroke="#000000" points="164.7938,-374.8482 173.4667,-376.1678 168.6469,-373.7741 172.5,-372.7 172.5,-372.7 172.5,-372.7 168.6469,-373.7741 171.5333,-369.2322 164.7938,-374.8482 164.7938,-374.8482"/>
<ellipse fill="none" stroke="#000000" cx="161.7113" cy="-375.7074" rx="3.2" ry="3.2"/>
</g>
</g>
</svg>
