<?xml version="1.0" encoding="UTF-8" standalone="no"?>
<!DOCTYPE svg PUBLIC "-//W3C//DTD SVG 1.1//EN"
 "http://www.w3.org/Graphics/SVG/1.1/DTD/svg11.dtd">
<!-- Generated by graphviz version 2.40.1 (20161225.0304)
 -->
<!-- Title: oneDegreeRelationshipsDiagram Pages: 1 -->
<svg width="615pt" height="316pt"
 viewBox="0.00 0.00 615.00 316.20" xmlns="http://www.w3.org/2000/svg" xmlns:xlink="http://www.w3.org/1999/xlink">
<g id="graph0" class="graph" transform="scale(1 1) rotate(0) translate(4 312.2)">
<title>oneDegreeRelationshipsDiagram</title>
<polygon fill="#ffffff" stroke="transparent" points="-4,4 -4,-312.2 611,-312.2 611,4 -4,4"/>
<text text-anchor="middle" x="72.4936" y="-7.3" font-family="Helvetica,sans-Serif" font-size="11.00" fill="#000000">Generated by SchemaSpy</text>
<!-- _zregul_weir_singularity -->
<g id="node1" class="node">
<title>_zregul_weir_singularity</title>
<g id="a_node1"><a xlink:href="../../tables/_zregul_weir_singularity.html" xlink:title="_zregul_weir_singularity" target="_top">
<polygon fill="#ffffff" stroke="transparent" points="170,-38.2 170,-304.2 599,-304.2 599,-38.2 170,-38.2"/>
<polygon fill="#f5f5f5" stroke="transparent" points="172.5,-279.2 172.5,-302.2 597.5,-302.2 597.5,-279.2 172.5,-279.2"/>
<polygon fill="none" stroke="#000000" points="172.5,-279.2 172.5,-302.2 597.5,-302.2 597.5,-279.2 172.5,-279.2"/>
<text text-anchor="start" x="177.5" y="-287.8" font-family="Helvetica,sans-Serif" font-weight="bold" font-size="11.00" fill="#000000">_zregul_weir_singularity</text>
<text text-anchor="start" x="562.5437" y="-287.3" font-family="Helvetica,sans-Serif" font-size="11.00" fill="#000000">[table]</text>
<polygon fill="#ffffff" stroke="transparent" points="172.5,-257.2 172.5,-279.2 404.5,-279.2 404.5,-257.2 172.5,-257.2"/>
<polygon fill="none" stroke="#000000" points="172.5,-257.2 172.5,-279.2 404.5,-279.2 404.5,-257.2 172.5,-257.2"/>
<image xlink:href="../../images/foreignKeys.png" width="11px" height="12px" preserveAspectRatio="xMinYMin meet" x="177.5" y="-274.2"/>
<text text-anchor="start" x="192.5" y="-264.3" font-family="Helvetica,sans-Serif" font-size="11.00" fill="#000000">id</text>
<polygon fill="none" stroke="#000000" points="404.5,-257.2 404.5,-279.2 597.5,-279.2 597.5,-257.2 404.5,-257.2"/>
<text text-anchor="start" x="407.5" y="-264.9" font-family="Helvetica,sans-Serif" font-size="11.00" fill="#000000">int4[10]</text>
<polygon fill="none" stroke="#000000" points="172.5,-235.2 172.5,-257.2 404.5,-257.2 404.5,-235.2 172.5,-235.2"/>
<image xlink:href="../../images/foreignKeys.png" width="11px" height="12px" preserveAspectRatio="xMinYMin meet" x="177.5" y="-252.2"/>
<text text-anchor="start" x="192.5" y="-242.3" font-family="Helvetica,sans-Serif" font-size="11.00" fill="#000000">singularity_type</text>
<polygon fill="none" stroke="#000000" points="404.5,-235.2 404.5,-257.2 597.5,-257.2 597.5,-235.2 404.5,-235.2"/>
<text text-anchor="start" x="407.5" y="-242.9" font-family="Helvetica,sans-Serif" font-size="11.00" fill="#000000">hydra_singularity_type[2147483647]</text>
<polygon fill="none" stroke="#000000" points="172.5,-213.2 172.5,-235.2 404.5,-235.2 404.5,-213.2 172.5,-213.2"/>
<text text-anchor="start" x="192.5" y="-220.3" font-family="Helvetica,sans-Serif" font-size="11.00" fill="#000000">z_invert</text>
<polygon fill="none" stroke="#000000" points="404.5,-213.2 404.5,-235.2 597.5,-235.2 597.5,-213.2 404.5,-213.2"/>
<text text-anchor="start" x="407.5" y="-220.9" font-family="Helvetica,sans-Serif" font-size="11.00" fill="#000000">float4[8,8]</text>
<polygon fill="none" stroke="#000000" points="172.5,-191.2 172.5,-213.2 404.5,-213.2 404.5,-191.2 172.5,-191.2"/>
<text text-anchor="start" x="192.5" y="-198.3" font-family="Helvetica,sans-Serif" font-size="11.00" fill="#000000">z_regul</text>
<polygon fill="none" stroke="#000000" points="404.5,-191.2 404.5,-213.2 597.5,-213.2 597.5,-191.2 404.5,-191.2"/>
<text text-anchor="start" x="407.5" y="-198.9" font-family="Helvetica,sans-Serif" font-size="11.00" fill="#000000">float4[8,8]</text>
<polygon fill="none" stroke="#000000" points="172.5,-169.2 172.5,-191.2 404.5,-191.2 404.5,-169.2 172.5,-169.2"/>
<text text-anchor="start" x="192.5" y="-176.3" font-family="Helvetica,sans-Serif" font-size="11.00" fill="#000000">width</text>
<polygon fill="none" stroke="#000000" points="404.5,-169.2 404.5,-191.2 597.5,-191.2 597.5,-169.2 404.5,-169.2"/>
<text text-anchor="start" x="407.5" y="-176.9" font-family="Helvetica,sans-Serif" font-size="11.00" fill="#000000">float4[8,8]</text>
<polygon fill="none" stroke="#000000" points="172.5,-147.2 172.5,-169.2 404.5,-169.2 404.5,-147.2 172.5,-147.2"/>
<text text-anchor="start" x="192.5" y="-154.3" font-family="Helvetica,sans-Serif" font-size="11.00" fill="#000000">cc</text>
<polygon fill="none" stroke="#000000" points="404.5,-147.2 404.5,-169.2 597.5,-169.2 597.5,-147.2 404.5,-147.2"/>
<text text-anchor="start" x="407.5" y="-154.9" font-family="Helvetica,sans-Serif" font-size="11.00" fill="#000000">float4[8,8]</text>
<polygon fill="none" stroke="#000000" points="172.5,-125.2 172.5,-147.2 404.5,-147.2 404.5,-125.2 172.5,-125.2"/>
<text text-anchor="start" x="192.5" y="-132.3" font-family="Helvetica,sans-Serif" font-size="11.00" fill="#000000">mode_regul</text>
<polygon fill="none" stroke="#000000" points="404.5,-125.2 404.5,-147.2 597.5,-147.2 597.5,-125.2 404.5,-125.2"/>
<text text-anchor="start" x="407.5" y="-132.9" font-family="Helvetica,sans-Serif" font-size="11.00" fill="#000000">hydra_weir_mode_regul[2147483647]</text>
<polygon fill="none" stroke="#000000" points="172.5,-103.2 172.5,-125.2 404.5,-125.2 404.5,-103.2 172.5,-103.2"/>
<text text-anchor="start" x="192.5" y="-110.3" font-family="Helvetica,sans-Serif" font-size="11.00" fill="#000000">reoxy_law</text>
<polygon fill="none" stroke="#000000" points="404.5,-103.2 404.5,-125.2 597.5,-125.2 597.5,-103.2 404.5,-103.2"/>
<text text-anchor="start" x="407.1645" y="-110.9" font-family="Helvetica,sans-Serif" font-size="11.00" fill="#000000">hydra_weir_mode_reoxy[2147483647]</text>
<polygon fill="none" stroke="#000000" points="172.5,-81.2 172.5,-103.2 404.5,-103.2 404.5,-81.2 172.5,-81.2"/>
<text text-anchor="start" x="192.5" y="-88.3" font-family="Helvetica,sans-Serif" font-size="11.00" fill="#000000">reoxy_param</text>
<polygon fill="none" stroke="#000000" points="404.5,-81.2 404.5,-103.2 597.5,-103.2 597.5,-81.2 404.5,-81.2"/>
<text text-anchor="start" x="407.5" y="-88.9" font-family="Helvetica,sans-Serif" font-size="11.00" fill="#000000">json[2147483647]</text>
<polygon fill="none" stroke="#000000" points="172.5,-59.2 172.5,-81.2 404.5,-81.2 404.5,-59.2 172.5,-59.2"/>
<text text-anchor="start" x="192.5" y="-66.3" font-family="Helvetica,sans-Serif" font-size="11.00" fill="#000000">full_section_discharge_for_headloss</text>
<polygon fill="none" stroke="#000000" points="404.5,-59.2 404.5,-81.2 597.5,-81.2 597.5,-59.2 404.5,-59.2"/>
<text text-anchor="start" x="407.5" y="-66.9" font-family="Helvetica,sans-Serif" font-size="11.00" fill="#000000">bool[1]</text>
<polygon fill="#ffffff" stroke="transparent" points="172.5,-40.2 172.5,-59.2 279.5,-59.2 279.5,-40.2 172.5,-40.2"/>
<polygon fill="none" stroke="#000000" points="172.5,-40.2 172.5,-59.2 279.5,-59.2 279.5,-40.2 172.5,-40.2"/>
<text text-anchor="start" x="175.5" y="-46.3" font-family="Helvetica,sans-Serif" font-size="11.00" fill="#000000">&lt; 2</text>
<polygon fill="#ffffff" stroke="transparent" points="279.5,-40.2 279.5,-59.2 404.5,-59.2 404.5,-40.2 279.5,-40.2"/>
<polygon fill="none" stroke="#000000" points="279.5,-40.2 279.5,-59.2 404.5,-59.2 404.5,-40.2 279.5,-40.2"/>
<text text-anchor="start" x="369.1105" y="-46.3" font-family="Helvetica,sans-Serif" font-size="11.00" fill="#000000">0 rows</text>
<polygon fill="#ffffff" stroke="transparent" points="404.5,-40.2 404.5,-59.2 597.5,-59.2 597.5,-40.2 404.5,-40.2"/>
<polygon fill="none" stroke="#000000" points="404.5,-40.2 404.5,-59.2 597.5,-59.2 597.5,-40.2 404.5,-40.2"/>
<text text-anchor="start" x="578.9053" y="-46.3" font-family="Helvetica,sans-Serif" font-size="11.00" fill="#000000">0 &gt;</text>
<polygon fill="none" stroke="#000000" stroke-width="2" points="171,-39.2 171,-303.2 598,-303.2 598,-39.2 171,-39.2"/>
</a>
</g>
</g>
<!-- _singularity -->
<g id="node2" class="node">
<title>_singularity</title>
<g id="a_node2"><a xlink:href="../../tables/_singularity.html" xlink:title="_singularity" target="_top">
<polygon fill="#ffffff" stroke="transparent" points="8,-109.7 8,-302.7 121,-302.7 121,-109.7 8,-109.7"/>
<polygon fill="#f5f5f5" stroke="transparent" points="8.5,-279.2 8.5,-302.2 121.5,-302.2 121.5,-279.2 8.5,-279.2"/>
<polygon fill="none" stroke="#000000" points="8.5,-279.2 8.5,-302.2 121.5,-302.2 121.5,-279.2 8.5,-279.2"/>
<text text-anchor="start" x="13.5" y="-287.8" font-family="Helvetica,sans-Serif" font-weight="bold" font-size="11.00" fill="#000000">_singularity</text>
<text text-anchor="start" x="86.5437" y="-287.3" font-family="Helvetica,sans-Serif" font-size="11.00" fill="#000000">[table]</text>
<polygon fill="none" stroke="#000000" points="8.5,-257.2 8.5,-279.2 121.5,-279.2 121.5,-257.2 8.5,-257.2"/>
<image xlink:href="../../images/primaryKeys.png" width="11px" height="12px" preserveAspectRatio="xMinYMin meet" x="13.5" y="-274.2"/>
<text text-anchor="start" x="28.5" y="-264.3" font-family="Helvetica,sans-Serif" font-size="11.00" fill="#000000">id</text>
<polygon fill="#ffffff" stroke="transparent" points="8.5,-235.2 8.5,-257.2 121.5,-257.2 121.5,-235.2 8.5,-235.2"/>
<polygon fill="none" stroke="#000000" points="8.5,-235.2 8.5,-257.2 121.5,-257.2 121.5,-235.2 8.5,-235.2"/>
<text text-anchor="start" x="28.5" y="-242.3" font-family="Helvetica,sans-Serif" font-size="11.00" fill="#000000">singularity_type</text>
<polygon fill="#ffffff" stroke="transparent" points="8.5,-213.2 8.5,-235.2 121.5,-235.2 121.5,-213.2 8.5,-213.2"/>
<polygon fill="none" stroke="#000000" points="8.5,-213.2 8.5,-235.2 121.5,-235.2 121.5,-213.2 8.5,-213.2"/>
<text text-anchor="start" x="28.5" y="-220.3" font-family="Helvetica,sans-Serif" font-size="11.00" fill="#000000">name</text>
<polygon fill="#ffffff" stroke="transparent" points="8.5,-191.2 8.5,-213.2 121.5,-213.2 121.5,-191.2 8.5,-191.2"/>
<polygon fill="none" stroke="#000000" points="8.5,-191.2 8.5,-213.2 121.5,-213.2 121.5,-191.2 8.5,-191.2"/>
<image xlink:href="../../images/foreignKeys.png" width="11px" height="12px" preserveAspectRatio="xMinYMin meet" x="13.5" y="-208.2"/>
<text text-anchor="start" x="28.5" y="-198.3" font-family="Helvetica,sans-Serif" font-size="11.00" fill="#000000">node</text>
<polygon fill="none" stroke="#000000" points="8.5,-169.2 8.5,-191.2 121.5,-191.2 121.5,-169.2 8.5,-169.2"/>
<image xlink:href="../../images/foreignKeys.png" width="11px" height="12px" preserveAspectRatio="xMinYMin meet" x="13.5" y="-186.2"/>
<text text-anchor="start" x="28.5" y="-176.3" font-family="Helvetica,sans-Serif" font-size="11.00" fill="#000000">node_type</text>
<polygon fill="#ffffff" stroke="transparent" points="8.5,-147.2 8.5,-169.2 121.5,-169.2 121.5,-147.2 8.5,-147.2"/>
<polygon fill="none" stroke="#000000" points="8.5,-147.2 8.5,-169.2 121.5,-169.2 121.5,-147.2 8.5,-147.2"/>
<text text-anchor="start" x="28.5" y="-154.3" font-family="Helvetica,sans-Serif" font-size="11.00" fill="#000000">validity</text>
<polygon fill="none" stroke="#000000" points="8.5,-128.2 8.5,-147.2 121.5,-147.2 121.5,-128.2 8.5,-128.2"/>
<text text-anchor="start" x="11.5" y="-134.3" font-family="Helvetica,sans-Serif" font-size="11.00" fill="#000000">...</text>
<polygon fill="#ffffff" stroke="transparent" points="8.5,-109.2 8.5,-128.2 42.5,-128.2 42.5,-109.2 8.5,-109.2"/>
<polygon fill="none" stroke="#000000" points="8.5,-109.2 8.5,-128.2 42.5,-128.2 42.5,-109.2 8.5,-109.2"/>
<text text-anchor="start" x="11.5" y="-115.3" font-family="Helvetica,sans-Serif" font-size="11.00" fill="#000000">&lt; 2</text>
<polygon fill="#ffffff" stroke="transparent" points="42.5,-109.2 42.5,-128.2 87.5,-128.2 87.5,-109.2 42.5,-109.2"/>
<polygon fill="none" stroke="#000000" points="42.5,-109.2 42.5,-128.2 87.5,-128.2 87.5,-109.2 42.5,-109.2"/>
<text text-anchor="start" x="52.1105" y="-115.3" font-family="Helvetica,sans-Serif" font-size="11.00" fill="#000000">0 rows</text>
<polygon fill="#ffffff" stroke="transparent" points="87.5,-109.2 87.5,-128.2 121.5,-128.2 121.5,-109.2 87.5,-109.2"/>
<polygon fill="none" stroke="#000000" points="87.5,-109.2 87.5,-128.2 121.5,-128.2 121.5,-109.2 87.5,-109.2"/>
<text text-anchor="start" x="96.7904" y="-115.3" font-family="Helvetica,sans-Serif" font-size="11.00" fill="#000000">52 &gt;</text>
</a>
</g>
</g>
<!-- _zregul_weir_singularity&#45;&gt;_singularity -->
<g id="edge1" class="edge">
<title>_zregul_weir_singularity:w&#45;&gt;_singularity:e</title>
<path fill="none" stroke="#000000" d="M161.7307,-268.2C147.248,-268.2 140.0938,-268.2 121.5,-268.2"/>
<polygon fill="#000000" stroke="#000000" points="171.7,-264.2 171.7,-272.2 170.1,-272.2 170.1,-264.2 171.7,-264.2"/>
<polyline fill="none" stroke="#000000" points="172.5,-268.2 168.5,-268.2 "/>
<ellipse fill="none" stroke="#000000" cx="165.3" cy="-268.2001" rx="3.2" ry="3.2"/>
</g>
<!-- _zregul_weir_singularity&#45;&gt;_singularity -->
<g id="edge2" class="edge">
<title>_zregul_weir_singularity:w&#45;&gt;_singularity:e</title>
<path fill="none" stroke="#000000" d="M157.776,-246.2C145.7815,-246.2 138.3229,-246.2 121.5,-246.2"/>
<polygon fill="#000000" stroke="#000000" points="164.5,-246.2001 172.5,-249.8 168.5,-246.2 172.5,-246.2 172.5,-246.2 172.5,-246.2 168.5,-246.2 172.5,-242.6 164.5,-246.2001 164.5,-246.2001"/>
<ellipse fill="none" stroke="#000000" cx="161.3" cy="-246.2001" rx="3.2" ry="3.2"/>
</g>
</g>
</svg>
