<?xml version="1.0" encoding="UTF-8" standalone="no"?>
<!DOCTYPE svg PUBLIC "-//W3C//DTD SVG 1.1//EN"
 "http://www.w3.org/Graphics/SVG/1.1/DTD/svg11.dtd">
<!-- Generated by graphviz version 2.40.1 (20161225.0304)
 -->
<!-- Title: oneDegreeRelationshipsDiagram Pages: 1 -->
<svg width="403pt" height="407pt"
 viewBox="0.00 0.00 403.00 407.20" xmlns="http://www.w3.org/2000/svg" xmlns:xlink="http://www.w3.org/1999/xlink">
<g id="graph0" class="graph" transform="scale(1 1) rotate(0) translate(4 403.2)">
<title>oneDegreeRelationshipsDiagram</title>
<polygon fill="#ffffff" stroke="transparent" points="-4,4 -4,-403.2 399,-403.2 399,4 -4,4"/>
<text text-anchor="middle" x="72.4936" y="-7.3" font-family="Helvetica,sans-Serif" font-size="11.00" fill="#000000">Generated by SchemaSpy</text>
<!-- air_headloss_link -->
<g id="node1" class="node">
<title>air_headloss_link</title>
<g id="a_node1"><a xlink:href="../../tables/air_headloss_link.html" xlink:title="air_headloss_link" target="_top">
<polygon fill="#ffffff" stroke="transparent" points="8,-38.2 8,-395.2 387,-395.2 387,-38.2 8,-38.2"/>
<polygon fill="#f5f5f5" stroke="transparent" points="10.5,-369.7 10.5,-392.7 385.5,-392.7 385.5,-369.7 10.5,-369.7"/>
<polygon fill="none" stroke="#000000" points="10.5,-369.7 10.5,-392.7 385.5,-392.7 385.5,-369.7 10.5,-369.7"/>
<text text-anchor="start" x="15.5" y="-378.3" font-family="Helvetica,sans-Serif" font-weight="bold" font-size="11.00" fill="#000000">air_headloss_link</text>
<text text-anchor="start" x="352.3895" y="-377.8" font-family="Helvetica,sans-Serif" font-size="11.00" fill="#000000">[view]</text>
<polygon fill="none" stroke="#000000" points="10.5,-347.7 10.5,-369.7 227.5,-369.7 227.5,-347.7 10.5,-347.7"/>
<text text-anchor="start" x="30.5" y="-354.8" font-family="Helvetica,sans-Serif" font-size="11.00" fill="#000000">id</text>
<polygon fill="none" stroke="#000000" points="227.5,-347.7 227.5,-369.7 385.5,-369.7 385.5,-347.7 227.5,-347.7"/>
<text text-anchor="start" x="230.5" y="-355.4" font-family="Helvetica,sans-Serif" font-size="11.00" fill="#000000">int4[10]</text>
<polygon fill="none" stroke="#000000" points="10.5,-325.7 10.5,-347.7 227.5,-347.7 227.5,-325.7 10.5,-325.7"/>
<text text-anchor="start" x="30.5" y="-332.8" font-family="Helvetica,sans-Serif" font-size="11.00" fill="#000000">name</text>
<polygon fill="none" stroke="#000000" points="227.5,-325.7 227.5,-347.7 385.5,-347.7 385.5,-325.7 227.5,-325.7"/>
<text text-anchor="start" x="230.5" y="-333.4" font-family="Helvetica,sans-Serif" font-size="11.00" fill="#000000">varchar[24]</text>
<polygon fill="none" stroke="#000000" points="10.5,-303.7 10.5,-325.7 227.5,-325.7 227.5,-303.7 10.5,-303.7"/>
<text text-anchor="start" x="30.5" y="-310.8" font-family="Helvetica,sans-Serif" font-size="11.00" fill="#000000">up</text>
<polygon fill="none" stroke="#000000" points="227.5,-303.7 227.5,-325.7 385.5,-325.7 385.5,-303.7 227.5,-303.7"/>
<text text-anchor="start" x="230.5" y="-311.4" font-family="Helvetica,sans-Serif" font-size="11.00" fill="#000000">int4[10]</text>
<polygon fill="none" stroke="#000000" points="10.5,-281.7 10.5,-303.7 227.5,-303.7 227.5,-281.7 10.5,-281.7"/>
<text text-anchor="start" x="30.5" y="-288.8" font-family="Helvetica,sans-Serif" font-size="11.00" fill="#000000">down</text>
<polygon fill="none" stroke="#000000" points="227.5,-281.7 227.5,-303.7 385.5,-303.7 385.5,-281.7 227.5,-281.7"/>
<text text-anchor="start" x="230.5" y="-289.4" font-family="Helvetica,sans-Serif" font-size="11.00" fill="#000000">int4[10]</text>
<polygon fill="none" stroke="#000000" points="10.5,-259.7 10.5,-281.7 227.5,-281.7 227.5,-259.7 10.5,-259.7"/>
<text text-anchor="start" x="30.5" y="-266.8" font-family="Helvetica,sans-Serif" font-size="11.00" fill="#000000">area</text>
<polygon fill="none" stroke="#000000" points="227.5,-259.7 227.5,-281.7 385.5,-281.7 385.5,-259.7 227.5,-259.7"/>
<text text-anchor="start" x="230.5" y="-267.4" font-family="Helvetica,sans-Serif" font-size="11.00" fill="#000000">float4[8,8]</text>
<polygon fill="none" stroke="#000000" points="10.5,-237.7 10.5,-259.7 227.5,-259.7 227.5,-237.7 10.5,-237.7"/>
<text text-anchor="start" x="30.5" y="-244.8" font-family="Helvetica,sans-Serif" font-size="11.00" fill="#000000">up_to_down_headloss_coefficient</text>
<polygon fill="none" stroke="#000000" points="227.5,-237.7 227.5,-259.7 385.5,-259.7 385.5,-237.7 227.5,-237.7"/>
<text text-anchor="start" x="230.5" y="-245.4" font-family="Helvetica,sans-Serif" font-size="11.00" fill="#000000">float4[8,8]</text>
<polygon fill="none" stroke="#000000" points="10.5,-215.7 10.5,-237.7 227.5,-237.7 227.5,-215.7 10.5,-215.7"/>
<text text-anchor="start" x="30.5" y="-222.8" font-family="Helvetica,sans-Serif" font-size="11.00" fill="#000000">down_to_up_headloss_coefficient</text>
<polygon fill="none" stroke="#000000" points="227.5,-215.7 227.5,-237.7 385.5,-237.7 385.5,-215.7 227.5,-215.7"/>
<text text-anchor="start" x="230.5" y="-223.4" font-family="Helvetica,sans-Serif" font-size="11.00" fill="#000000">float4[8,8]</text>
<polygon fill="none" stroke="#000000" points="10.5,-193.7 10.5,-215.7 227.5,-215.7 227.5,-193.7 10.5,-193.7"/>
<text text-anchor="start" x="30.5" y="-200.8" font-family="Helvetica,sans-Serif" font-size="11.00" fill="#000000">geom</text>
<polygon fill="none" stroke="#000000" points="227.5,-193.7 227.5,-215.7 385.5,-215.7 385.5,-193.7 227.5,-193.7"/>
<text text-anchor="start" x="230.5" y="-201.4" font-family="Helvetica,sans-Serif" font-size="11.00" fill="#000000">geometry[2147483647]</text>
<polygon fill="none" stroke="#000000" points="10.5,-171.7 10.5,-193.7 227.5,-193.7 227.5,-171.7 10.5,-171.7"/>
<text text-anchor="start" x="30.5" y="-178.8" font-family="Helvetica,sans-Serif" font-size="11.00" fill="#000000">configuration</text>
<polygon fill="none" stroke="#000000" points="227.5,-171.7 227.5,-193.7 385.5,-193.7 385.5,-171.7 227.5,-171.7"/>
<text text-anchor="start" x="230.5" y="-179.4" font-family="Helvetica,sans-Serif" font-size="11.00" fill="#000000">varchar[2147483647]</text>
<polygon fill="none" stroke="#000000" points="10.5,-149.7 10.5,-171.7 227.5,-171.7 227.5,-149.7 10.5,-149.7"/>
<text text-anchor="start" x="30.5" y="-156.8" font-family="Helvetica,sans-Serif" font-size="11.00" fill="#000000">generated</text>
<polygon fill="none" stroke="#000000" points="227.5,-149.7 227.5,-171.7 385.5,-171.7 385.5,-149.7 227.5,-149.7"/>
<text text-anchor="start" x="230.5" y="-157.4" font-family="Helvetica,sans-Serif" font-size="11.00" fill="#000000">int4[10]</text>
<polygon fill="none" stroke="#000000" points="10.5,-127.7 10.5,-149.7 227.5,-149.7 227.5,-127.7 10.5,-127.7"/>
<text text-anchor="start" x="30.5" y="-134.8" font-family="Helvetica,sans-Serif" font-size="11.00" fill="#000000">validity</text>
<polygon fill="none" stroke="#000000" points="227.5,-127.7 227.5,-149.7 385.5,-149.7 385.5,-127.7 227.5,-127.7"/>
<text text-anchor="start" x="230.5" y="-135.4" font-family="Helvetica,sans-Serif" font-size="11.00" fill="#000000">bool[1]</text>
<polygon fill="none" stroke="#000000" points="10.5,-105.7 10.5,-127.7 227.5,-127.7 227.5,-105.7 10.5,-105.7"/>
<text text-anchor="start" x="30.5" y="-112.8" font-family="Helvetica,sans-Serif" font-size="11.00" fill="#000000">up_type</text>
<polygon fill="none" stroke="#000000" points="227.5,-105.7 227.5,-127.7 385.5,-127.7 385.5,-105.7 227.5,-105.7"/>
<text text-anchor="start" x="230.3773" y="-113.4" font-family="Helvetica,sans-Serif" font-size="11.00" fill="#000000">hydra_node_type[2147483647]</text>
<polygon fill="none" stroke="#000000" points="10.5,-83.7 10.5,-105.7 227.5,-105.7 227.5,-83.7 10.5,-83.7"/>
<text text-anchor="start" x="30.5" y="-90.8" font-family="Helvetica,sans-Serif" font-size="11.00" fill="#000000">down_type</text>
<polygon fill="none" stroke="#000000" points="227.5,-83.7 227.5,-105.7 385.5,-105.7 385.5,-83.7 227.5,-83.7"/>
<text text-anchor="start" x="230.3773" y="-91.4" font-family="Helvetica,sans-Serif" font-size="11.00" fill="#000000">hydra_node_type[2147483647]</text>
<polygon fill="none" stroke="#000000" points="10.5,-61.7 10.5,-83.7 227.5,-83.7 227.5,-61.7 10.5,-61.7"/>
<text text-anchor="start" x="30.5" y="-68.8" font-family="Helvetica,sans-Serif" font-size="11.00" fill="#000000">configuration_json</text>
<polygon fill="none" stroke="#000000" points="227.5,-61.7 227.5,-83.7 385.5,-83.7 385.5,-61.7 227.5,-61.7"/>
<text text-anchor="start" x="230.5" y="-69.4" font-family="Helvetica,sans-Serif" font-size="11.00" fill="#000000">json[2147483647]</text>
<polygon fill="none" stroke="#000000" points="10.5,-39.7 10.5,-61.7 227.5,-61.7 227.5,-39.7 10.5,-39.7"/>
<text text-anchor="start" x="30.5" y="-46.8" font-family="Helvetica,sans-Serif" font-size="11.00" fill="#000000">comment</text>
<polygon fill="none" stroke="#000000" points="227.5,-39.7 227.5,-61.7 385.5,-61.7 385.5,-39.7 227.5,-39.7"/>
<text text-anchor="start" x="230.5" y="-47.4" font-family="Helvetica,sans-Serif" font-size="11.00" fill="#000000">varchar[2147483647]</text>
<polygon fill="none" stroke="#000000" stroke-width="2" points="9,-39.2 9,-394.2 386,-394.2 386,-39.2 9,-39.2"/>
</a>
</g>
</g>
</g>
</svg>
