<?xml version="1.0" encoding="UTF-8" standalone="no"?>
<!DOCTYPE svg PUBLIC "-//W3C//DTD SVG 1.1//EN"
 "http://www.w3.org/Graphics/SVG/1.1/DTD/svg11.dtd">
<!-- Generated by graphviz version 2.40.1 (20161225.0304)
 -->
<!-- Title: oneDegreeRelationshipsDiagram Pages: 1 -->
<svg width="402pt" height="407pt"
 viewBox="0.00 0.00 402.00 407.20" xmlns="http://www.w3.org/2000/svg" xmlns:xlink="http://www.w3.org/1999/xlink">
<g id="graph0" class="graph" transform="scale(1 1) rotate(0) translate(4 403.2)">
<title>oneDegreeRelationshipsDiagram</title>
<polygon fill="#ffffff" stroke="transparent" points="-4,4 -4,-403.2 398,-403.2 398,4 -4,4"/>
<text text-anchor="middle" x="72.4936" y="-7.3" font-family="Helvetica,sans-Serif" font-size="11.00" fill="#000000">Generated by SchemaSpy</text>
<!-- borda_headloss_link -->
<g id="node1" class="node">
<title>borda_headloss_link</title>
<g id="a_node1"><a xlink:href="../../tables/borda_headloss_link.html" xlink:title="borda_headloss_link" target="_top">
<polygon fill="#ffffff" stroke="transparent" points="8,-38.2 8,-395.2 386,-395.2 386,-38.2 8,-38.2"/>
<polygon fill="#f5f5f5" stroke="transparent" points="10,-369.7 10,-392.7 384,-392.7 384,-369.7 10,-369.7"/>
<polygon fill="none" stroke="#000000" points="10,-369.7 10,-392.7 384,-392.7 384,-369.7 10,-369.7"/>
<text text-anchor="start" x="15" y="-378.3" font-family="Helvetica,sans-Serif" font-weight="bold" font-size="11.00" fill="#000000">borda_headloss_link</text>
<text text-anchor="start" x="350.8895" y="-377.8" font-family="Helvetica,sans-Serif" font-size="11.00" fill="#000000">[view]</text>
<polygon fill="none" stroke="#000000" points="10,-347.7 10,-369.7 150,-369.7 150,-347.7 10,-347.7"/>
<text text-anchor="start" x="30" y="-354.8" font-family="Helvetica,sans-Serif" font-size="11.00" fill="#000000">id</text>
<polygon fill="none" stroke="#000000" points="150,-347.7 150,-369.7 384,-369.7 384,-347.7 150,-347.7"/>
<text text-anchor="start" x="153" y="-355.4" font-family="Helvetica,sans-Serif" font-size="11.00" fill="#000000">int4[10]</text>
<polygon fill="none" stroke="#000000" points="10,-325.7 10,-347.7 150,-347.7 150,-325.7 10,-325.7"/>
<text text-anchor="start" x="30" y="-332.8" font-family="Helvetica,sans-Serif" font-size="11.00" fill="#000000">name</text>
<polygon fill="none" stroke="#000000" points="150,-325.7 150,-347.7 384,-347.7 384,-325.7 150,-325.7"/>
<text text-anchor="start" x="153" y="-333.4" font-family="Helvetica,sans-Serif" font-size="11.00" fill="#000000">varchar[24]</text>
<polygon fill="none" stroke="#000000" points="10,-303.7 10,-325.7 150,-325.7 150,-303.7 10,-303.7"/>
<text text-anchor="start" x="30" y="-310.8" font-family="Helvetica,sans-Serif" font-size="11.00" fill="#000000">up</text>
<polygon fill="none" stroke="#000000" points="150,-303.7 150,-325.7 384,-325.7 384,-303.7 150,-303.7"/>
<text text-anchor="start" x="153" y="-311.4" font-family="Helvetica,sans-Serif" font-size="11.00" fill="#000000">int4[10]</text>
<polygon fill="none" stroke="#000000" points="10,-281.7 10,-303.7 150,-303.7 150,-281.7 10,-281.7"/>
<text text-anchor="start" x="30" y="-288.8" font-family="Helvetica,sans-Serif" font-size="11.00" fill="#000000">down</text>
<polygon fill="none" stroke="#000000" points="150,-281.7 150,-303.7 384,-303.7 384,-281.7 150,-281.7"/>
<text text-anchor="start" x="153" y="-289.4" font-family="Helvetica,sans-Serif" font-size="11.00" fill="#000000">int4[10]</text>
<polygon fill="none" stroke="#000000" points="10,-259.7 10,-281.7 150,-281.7 150,-259.7 10,-259.7"/>
<text text-anchor="start" x="30" y="-266.8" font-family="Helvetica,sans-Serif" font-size="11.00" fill="#000000">law_type</text>
<polygon fill="none" stroke="#000000" points="150,-259.7 150,-281.7 384,-281.7 384,-259.7 150,-259.7"/>
<text text-anchor="start" x="152.6753" y="-267.4" font-family="Helvetica,sans-Serif" font-size="11.00" fill="#000000">hydra_borda_headloss_link_type[2147483647]</text>
<polygon fill="none" stroke="#000000" points="10,-237.7 10,-259.7 150,-259.7 150,-237.7 10,-237.7"/>
<text text-anchor="start" x="30" y="-244.8" font-family="Helvetica,sans-Serif" font-size="11.00" fill="#000000">param</text>
<polygon fill="none" stroke="#000000" points="150,-237.7 150,-259.7 384,-259.7 384,-237.7 150,-237.7"/>
<text text-anchor="start" x="153" y="-245.4" font-family="Helvetica,sans-Serif" font-size="11.00" fill="#000000">varchar[2147483647]</text>
<polygon fill="none" stroke="#000000" points="10,-215.7 10,-237.7 150,-237.7 150,-215.7 10,-215.7"/>
<text text-anchor="start" x="30" y="-222.8" font-family="Helvetica,sans-Serif" font-size="11.00" fill="#000000">param_json</text>
<polygon fill="none" stroke="#000000" points="150,-215.7 150,-237.7 384,-237.7 384,-215.7 150,-215.7"/>
<text text-anchor="start" x="153" y="-223.4" font-family="Helvetica,sans-Serif" font-size="11.00" fill="#000000">json[2147483647]</text>
<polygon fill="none" stroke="#000000" points="10,-193.7 10,-215.7 150,-215.7 150,-193.7 10,-193.7"/>
<text text-anchor="start" x="30" y="-200.8" font-family="Helvetica,sans-Serif" font-size="11.00" fill="#000000">geom</text>
<polygon fill="none" stroke="#000000" points="150,-193.7 150,-215.7 384,-215.7 384,-193.7 150,-193.7"/>
<text text-anchor="start" x="153" y="-201.4" font-family="Helvetica,sans-Serif" font-size="11.00" fill="#000000">geometry[2147483647]</text>
<polygon fill="none" stroke="#000000" points="10,-171.7 10,-193.7 150,-193.7 150,-171.7 10,-171.7"/>
<text text-anchor="start" x="30" y="-178.8" font-family="Helvetica,sans-Serif" font-size="11.00" fill="#000000">configuration</text>
<polygon fill="none" stroke="#000000" points="150,-171.7 150,-193.7 384,-193.7 384,-171.7 150,-171.7"/>
<text text-anchor="start" x="153" y="-179.4" font-family="Helvetica,sans-Serif" font-size="11.00" fill="#000000">varchar[2147483647]</text>
<polygon fill="none" stroke="#000000" points="10,-149.7 10,-171.7 150,-171.7 150,-149.7 10,-149.7"/>
<text text-anchor="start" x="30" y="-156.8" font-family="Helvetica,sans-Serif" font-size="11.00" fill="#000000">generated</text>
<polygon fill="none" stroke="#000000" points="150,-149.7 150,-171.7 384,-171.7 384,-149.7 150,-149.7"/>
<text text-anchor="start" x="153" y="-157.4" font-family="Helvetica,sans-Serif" font-size="11.00" fill="#000000">int4[10]</text>
<polygon fill="none" stroke="#000000" points="10,-127.7 10,-149.7 150,-149.7 150,-127.7 10,-127.7"/>
<text text-anchor="start" x="30" y="-134.8" font-family="Helvetica,sans-Serif" font-size="11.00" fill="#000000">validity</text>
<polygon fill="none" stroke="#000000" points="150,-127.7 150,-149.7 384,-149.7 384,-127.7 150,-127.7"/>
<text text-anchor="start" x="153" y="-135.4" font-family="Helvetica,sans-Serif" font-size="11.00" fill="#000000">bool[1]</text>
<polygon fill="none" stroke="#000000" points="10,-105.7 10,-127.7 150,-127.7 150,-105.7 10,-105.7"/>
<text text-anchor="start" x="30" y="-112.8" font-family="Helvetica,sans-Serif" font-size="11.00" fill="#000000">up_type</text>
<polygon fill="none" stroke="#000000" points="150,-105.7 150,-127.7 384,-127.7 384,-105.7 150,-105.7"/>
<text text-anchor="start" x="153" y="-113.4" font-family="Helvetica,sans-Serif" font-size="11.00" fill="#000000">hydra_node_type[2147483647]</text>
<polygon fill="none" stroke="#000000" points="10,-83.7 10,-105.7 150,-105.7 150,-83.7 10,-83.7"/>
<text text-anchor="start" x="30" y="-90.8" font-family="Helvetica,sans-Serif" font-size="11.00" fill="#000000">down_type</text>
<polygon fill="none" stroke="#000000" points="150,-83.7 150,-105.7 384,-105.7 384,-83.7 150,-83.7"/>
<text text-anchor="start" x="153" y="-91.4" font-family="Helvetica,sans-Serif" font-size="11.00" fill="#000000">hydra_node_type[2147483647]</text>
<polygon fill="none" stroke="#000000" points="10,-61.7 10,-83.7 150,-83.7 150,-61.7 10,-61.7"/>
<text text-anchor="start" x="30" y="-68.8" font-family="Helvetica,sans-Serif" font-size="11.00" fill="#000000">configuration_json</text>
<polygon fill="none" stroke="#000000" points="150,-61.7 150,-83.7 384,-83.7 384,-61.7 150,-61.7"/>
<text text-anchor="start" x="153" y="-69.4" font-family="Helvetica,sans-Serif" font-size="11.00" fill="#000000">json[2147483647]</text>
<polygon fill="none" stroke="#000000" points="10,-39.7 10,-61.7 150,-61.7 150,-39.7 10,-39.7"/>
<text text-anchor="start" x="30" y="-46.8" font-family="Helvetica,sans-Serif" font-size="11.00" fill="#000000">comment</text>
<polygon fill="none" stroke="#000000" points="150,-39.7 150,-61.7 384,-61.7 384,-39.7 150,-39.7"/>
<text text-anchor="start" x="153" y="-47.4" font-family="Helvetica,sans-Serif" font-size="11.00" fill="#000000">varchar[2147483647]</text>
<polygon fill="none" stroke="#000000" stroke-width="2" points="9,-39.2 9,-394.2 385,-394.2 385,-39.2 9,-39.2"/>
</a>
</g>
</g>
</g>
</svg>
