<?xml version="1.0" encoding="UTF-8" standalone="no"?>
<!DOCTYPE svg PUBLIC "-//W3C//DTD SVG 1.1//EN"
 "http://www.w3.org/Graphics/SVG/1.1/DTD/svg11.dtd">
<!-- Generated by graphviz version 2.40.1 (20161225.0304)
 -->
<!-- Title: oneDegreeRelationshipsDiagram Pages: 1 -->
<svg width="396pt" height="363pt"
 viewBox="0.00 0.00 396.00 363.20" xmlns="http://www.w3.org/2000/svg" xmlns:xlink="http://www.w3.org/1999/xlink">
<g id="graph0" class="graph" transform="scale(1 1) rotate(0) translate(4 359.2)">
<title>oneDegreeRelationshipsDiagram</title>
<polygon fill="#ffffff" stroke="transparent" points="-4,4 -4,-359.2 392,-359.2 392,4 -4,4"/>
<text text-anchor="middle" x="72.4936" y="-7.3" font-family="Helvetica,sans-Serif" font-size="11.00" fill="#000000">Generated by SchemaSpy</text>
<!-- bradley_headloss_singularity -->
<g id="node1" class="node">
<title>bradley_headloss_singularity</title>
<g id="a_node1"><a xlink:href="../../tables/bradley_headloss_singularity.html" xlink:title="bradley_headloss_singularity" target="_top">
<polygon fill="#ffffff" stroke="transparent" points="8,-38.2 8,-351.2 380,-351.2 380,-38.2 8,-38.2"/>
<polygon fill="#f5f5f5" stroke="transparent" points="10,-325.7 10,-348.7 378,-348.7 378,-325.7 10,-325.7"/>
<polygon fill="none" stroke="#000000" points="10,-325.7 10,-348.7 378,-348.7 378,-325.7 10,-325.7"/>
<text text-anchor="start" x="15" y="-334.3" font-family="Helvetica,sans-Serif" font-weight="bold" font-size="11.00" fill="#000000">bradley_headloss_singularity</text>
<text text-anchor="start" x="344.8895" y="-333.8" font-family="Helvetica,sans-Serif" font-size="11.00" fill="#000000">[view]</text>
<polygon fill="none" stroke="#000000" points="10,-303.7 10,-325.7 199,-325.7 199,-303.7 10,-303.7"/>
<text text-anchor="start" x="30" y="-310.8" font-family="Helvetica,sans-Serif" font-size="11.00" fill="#000000">id</text>
<polygon fill="none" stroke="#000000" points="199,-303.7 199,-325.7 378,-325.7 378,-303.7 199,-303.7"/>
<text text-anchor="start" x="202" y="-311.4" font-family="Helvetica,sans-Serif" font-size="11.00" fill="#000000">int4[10]</text>
<polygon fill="none" stroke="#000000" points="10,-281.7 10,-303.7 199,-303.7 199,-281.7 10,-281.7"/>
<text text-anchor="start" x="30" y="-288.8" font-family="Helvetica,sans-Serif" font-size="11.00" fill="#000000">name</text>
<polygon fill="none" stroke="#000000" points="199,-281.7 199,-303.7 378,-303.7 378,-281.7 199,-281.7"/>
<text text-anchor="start" x="202" y="-289.4" font-family="Helvetica,sans-Serif" font-size="11.00" fill="#000000">varchar[24]</text>
<polygon fill="none" stroke="#000000" points="10,-259.7 10,-281.7 199,-281.7 199,-259.7 10,-259.7"/>
<text text-anchor="start" x="30" y="-266.8" font-family="Helvetica,sans-Serif" font-size="11.00" fill="#000000">node</text>
<polygon fill="none" stroke="#000000" points="199,-259.7 199,-281.7 378,-281.7 378,-259.7 199,-259.7"/>
<text text-anchor="start" x="202" y="-267.4" font-family="Helvetica,sans-Serif" font-size="11.00" fill="#000000">int4[10]</text>
<polygon fill="none" stroke="#000000" points="10,-237.7 10,-259.7 199,-259.7 199,-237.7 10,-237.7"/>
<text text-anchor="start" x="30" y="-244.8" font-family="Helvetica,sans-Serif" font-size="11.00" fill="#000000">d_abutment_l</text>
<polygon fill="none" stroke="#000000" points="199,-237.7 199,-259.7 378,-259.7 378,-237.7 199,-237.7"/>
<text text-anchor="start" x="202" y="-245.4" font-family="Helvetica,sans-Serif" font-size="11.00" fill="#000000">float4[8,8]</text>
<polygon fill="none" stroke="#000000" points="10,-215.7 10,-237.7 199,-237.7 199,-215.7 10,-215.7"/>
<text text-anchor="start" x="30" y="-222.8" font-family="Helvetica,sans-Serif" font-size="11.00" fill="#000000">d_abutment_r</text>
<polygon fill="none" stroke="#000000" points="199,-215.7 199,-237.7 378,-237.7 378,-215.7 199,-215.7"/>
<text text-anchor="start" x="202" y="-223.4" font-family="Helvetica,sans-Serif" font-size="11.00" fill="#000000">float4[8,8]</text>
<polygon fill="none" stroke="#000000" points="10,-193.7 10,-215.7 199,-215.7 199,-193.7 10,-193.7"/>
<text text-anchor="start" x="30" y="-200.8" font-family="Helvetica,sans-Serif" font-size="11.00" fill="#000000">abutment_type</text>
<polygon fill="none" stroke="#000000" points="199,-193.7 199,-215.7 378,-215.7 378,-193.7 199,-193.7"/>
<text text-anchor="start" x="201.682" y="-201.4" font-family="Helvetica,sans-Serif" font-size="11.00" fill="#000000">hydra_abutment_type[2147483647]</text>
<polygon fill="none" stroke="#000000" points="10,-171.7 10,-193.7 199,-193.7 199,-171.7 10,-171.7"/>
<text text-anchor="start" x="30" y="-178.8" font-family="Helvetica,sans-Serif" font-size="11.00" fill="#000000">zw_array</text>
<polygon fill="none" stroke="#000000" points="199,-171.7 199,-193.7 378,-193.7 378,-171.7 199,-171.7"/>
<text text-anchor="start" x="202" y="-179.4" font-family="Helvetica,sans-Serif" font-size="11.00" fill="#000000">_float4[8,8]</text>
<polygon fill="none" stroke="#000000" points="10,-149.7 10,-171.7 199,-171.7 199,-149.7 10,-149.7"/>
<text text-anchor="start" x="30" y="-156.8" font-family="Helvetica,sans-Serif" font-size="11.00" fill="#000000">z_ceiling</text>
<polygon fill="none" stroke="#000000" points="199,-149.7 199,-171.7 378,-171.7 378,-149.7 199,-149.7"/>
<text text-anchor="start" x="202" y="-157.4" font-family="Helvetica,sans-Serif" font-size="11.00" fill="#000000">float4[8,8]</text>
<polygon fill="none" stroke="#000000" points="10,-127.7 10,-149.7 199,-149.7 199,-127.7 10,-127.7"/>
<text text-anchor="start" x="30" y="-134.8" font-family="Helvetica,sans-Serif" font-size="11.00" fill="#000000">geom</text>
<polygon fill="none" stroke="#000000" points="199,-127.7 199,-149.7 378,-149.7 378,-127.7 199,-127.7"/>
<text text-anchor="start" x="202" y="-135.4" font-family="Helvetica,sans-Serif" font-size="11.00" fill="#000000">geometry[2147483647]</text>
<polygon fill="none" stroke="#000000" points="10,-105.7 10,-127.7 199,-127.7 199,-105.7 10,-105.7"/>
<text text-anchor="start" x="30" y="-112.8" font-family="Helvetica,sans-Serif" font-size="11.00" fill="#000000">configuration</text>
<polygon fill="none" stroke="#000000" points="199,-105.7 199,-127.7 378,-127.7 378,-105.7 199,-105.7"/>
<text text-anchor="start" x="202" y="-113.4" font-family="Helvetica,sans-Serif" font-size="11.00" fill="#000000">varchar[2147483647]</text>
<polygon fill="none" stroke="#000000" points="10,-83.7 10,-105.7 199,-105.7 199,-83.7 10,-83.7"/>
<text text-anchor="start" x="30" y="-90.8" font-family="Helvetica,sans-Serif" font-size="11.00" fill="#000000">validity</text>
<polygon fill="none" stroke="#000000" points="199,-83.7 199,-105.7 378,-105.7 378,-83.7 199,-83.7"/>
<text text-anchor="start" x="202" y="-91.4" font-family="Helvetica,sans-Serif" font-size="11.00" fill="#000000">bool[1]</text>
<polygon fill="none" stroke="#000000" points="10,-61.7 10,-83.7 199,-83.7 199,-61.7 10,-61.7"/>
<text text-anchor="start" x="30" y="-68.8" font-family="Helvetica,sans-Serif" font-size="11.00" fill="#000000">configuration_json</text>
<polygon fill="none" stroke="#000000" points="199,-61.7 199,-83.7 378,-83.7 378,-61.7 199,-61.7"/>
<text text-anchor="start" x="202" y="-69.4" font-family="Helvetica,sans-Serif" font-size="11.00" fill="#000000">json[2147483647]</text>
<polygon fill="none" stroke="#000000" points="10,-39.7 10,-61.7 199,-61.7 199,-39.7 10,-39.7"/>
<text text-anchor="start" x="30" y="-46.8" font-family="Helvetica,sans-Serif" font-size="11.00" fill="#000000">comment</text>
<polygon fill="none" stroke="#000000" points="199,-39.7 199,-61.7 378,-61.7 378,-39.7 199,-39.7"/>
<text text-anchor="start" x="202" y="-47.4" font-family="Helvetica,sans-Serif" font-size="11.00" fill="#000000">varchar[2147483647]</text>
<polygon fill="none" stroke="#000000" stroke-width="2" points="9,-39.2 9,-350.2 379,-350.2 379,-39.2 9,-39.2"/>
</a>
</g>
</g>
</g>
</svg>
