<?xml version="1.0" encoding="UTF-8" standalone="no"?>
<!DOCTYPE svg PUBLIC "-//W3C//DTD SVG 1.1//EN"
 "http://www.w3.org/Graphics/SVG/1.1/DTD/svg11.dtd">
<!-- Generated by graphviz version 2.40.1 (20161225.0304)
 -->
<!-- Title: oneDegreeRelationshipsDiagram Pages: 1 -->
<svg width="410pt" height="249pt"
 viewBox="0.00 0.00 410.00 248.70" xmlns="http://www.w3.org/2000/svg" xmlns:xlink="http://www.w3.org/1999/xlink">
<g id="graph0" class="graph" transform="scale(1 1) rotate(0) translate(4 244.7)">
<title>oneDegreeRelationshipsDiagram</title>
<polygon fill="#ffffff" stroke="transparent" points="-4,4 -4,-244.7 406,-244.7 406,4 -4,4"/>
<text text-anchor="middle" x="72.4936" y="-7.3" font-family="Helvetica,sans-Serif" font-size="11.00" fill="#000000">Generated by SchemaSpy</text>
<!-- _pipe_link -->
<g id="node1" class="node">
<title>_pipe_link</title>
<g id="a_node1"><a xlink:href="../../tables/_pipe_link.html" xlink:title="_pipe_link" target="_top">
<polygon fill="#ffffff" stroke="transparent" points="245,-65.7 245,-236.7 394,-236.7 394,-65.7 245,-65.7"/>
<polygon fill="#f5f5f5" stroke="transparent" points="245.5,-213.2 245.5,-236.2 394.5,-236.2 394.5,-213.2 245.5,-213.2"/>
<polygon fill="none" stroke="#000000" points="245.5,-213.2 245.5,-236.2 394.5,-236.2 394.5,-213.2 245.5,-213.2"/>
<text text-anchor="start" x="250.5" y="-221.8" font-family="Helvetica,sans-Serif" font-weight="bold" font-size="11.00" fill="#000000">_pipe_link</text>
<text text-anchor="start" x="359.5437" y="-221.3" font-family="Helvetica,sans-Serif" font-size="11.00" fill="#000000">[table]</text>
<polygon fill="#ffffff" stroke="transparent" points="245.5,-191.2 245.5,-213.2 394.5,-213.2 394.5,-191.2 245.5,-191.2"/>
<polygon fill="none" stroke="#000000" points="245.5,-191.2 245.5,-213.2 394.5,-213.2 394.5,-191.2 245.5,-191.2"/>
<image xlink:href="../../images/foreignKeys.png" width="11px" height="12px" preserveAspectRatio="xMinYMin meet" x="250.5" y="-208.2"/>
<text text-anchor="start" x="265.5" y="-198.3" font-family="Helvetica,sans-Serif" font-size="11.00" fill="#000000">id</text>
<polygon fill="none" stroke="#000000" points="245.5,-169.2 245.5,-191.2 394.5,-191.2 394.5,-169.2 245.5,-169.2"/>
<image xlink:href="../../images/foreignKeys.png" width="11px" height="12px" preserveAspectRatio="xMinYMin meet" x="250.5" y="-186.2"/>
<text text-anchor="start" x="265.5" y="-176.3" font-family="Helvetica,sans-Serif" font-size="11.00" fill="#000000">link_type</text>
<polygon fill="none" stroke="#000000" points="245.5,-147.2 245.5,-169.2 394.5,-169.2 394.5,-147.2 245.5,-147.2"/>
<image xlink:href="../../images/foreignKeys.png" width="11px" height="12px" preserveAspectRatio="xMinYMin meet" x="250.5" y="-164.2"/>
<text text-anchor="start" x="265.5" y="-154.3" font-family="Helvetica,sans-Serif" font-size="11.00" fill="#000000">branch</text>
<polygon fill="none" stroke="#000000" points="245.5,-125.2 245.5,-147.2 394.5,-147.2 394.5,-125.2 245.5,-125.2"/>
<image xlink:href="../../images/foreignKeys.png" width="11px" height="12px" preserveAspectRatio="xMinYMin meet" x="250.5" y="-142.2"/>
<text text-anchor="start" x="265.5" y="-132.3" font-family="Helvetica,sans-Serif" font-size="11.00" fill="#000000">cp_geom</text>
<polygon fill="none" stroke="#000000" points="245.5,-103.2 245.5,-125.2 394.5,-125.2 394.5,-103.2 245.5,-103.2"/>
<image xlink:href="../../images/foreignKeys.png" width="11px" height="12px" preserveAspectRatio="xMinYMin meet" x="250.5" y="-120.2"/>
<text text-anchor="start" x="265.5" y="-110.3" font-family="Helvetica,sans-Serif" font-size="11.00" fill="#000000">op_geom</text>
<polygon fill="none" stroke="#000000" points="245.5,-84.2 245.5,-103.2 394.5,-103.2 394.5,-84.2 245.5,-84.2"/>
<text text-anchor="start" x="248.5" y="-90.3" font-family="Helvetica,sans-Serif" font-size="11.00" fill="#000000">...</text>
<polygon fill="#ffffff" stroke="transparent" points="245.5,-65.2 245.5,-84.2 305.5,-84.2 305.5,-65.2 245.5,-65.2"/>
<polygon fill="none" stroke="#000000" points="245.5,-65.2 245.5,-84.2 305.5,-84.2 305.5,-65.2 245.5,-65.2"/>
<text text-anchor="start" x="248.5" y="-71.3" font-family="Helvetica,sans-Serif" font-size="11.00" fill="#000000">&lt; 5</text>
<polygon fill="#ffffff" stroke="transparent" points="305.5,-65.2 305.5,-84.2 362.5,-84.2 362.5,-65.2 305.5,-65.2"/>
<polygon fill="none" stroke="#000000" points="305.5,-65.2 305.5,-84.2 362.5,-84.2 362.5,-65.2 305.5,-65.2"/>
<text text-anchor="start" x="327.1105" y="-71.3" font-family="Helvetica,sans-Serif" font-size="11.00" fill="#000000">0 rows</text>
<polygon fill="#ffffff" stroke="transparent" points="362.5,-65.2 362.5,-84.2 394.5,-84.2 394.5,-65.2 362.5,-65.2"/>
<polygon fill="none" stroke="#000000" points="362.5,-65.2 362.5,-84.2 394.5,-84.2 394.5,-65.2 362.5,-65.2"/>
<text text-anchor="start" x="385.3862" y="-71.3" font-family="Helvetica,sans-Serif" font-size="11.00" fill="#000000"> &#160;</text>
</a>
</g>
</g>
<!-- branch -->
<g id="node2" class="node">
<title>branch</title>
<g id="a_node2"><a xlink:href="../../tables/branch.html" xlink:title="branch" target="_top">
<polygon fill="#ffffff" stroke="transparent" points="8,-38.2 8,-194.2 196,-194.2 196,-38.2 8,-38.2"/>
<polygon fill="#f5f5f5" stroke="transparent" points="10,-169.2 10,-192.2 194,-192.2 194,-169.2 10,-169.2"/>
<polygon fill="none" stroke="#000000" points="10,-169.2 10,-192.2 194,-192.2 194,-169.2 10,-169.2"/>
<text text-anchor="start" x="15" y="-177.8" font-family="Helvetica,sans-Serif" font-weight="bold" font-size="11.00" fill="#000000">branch</text>
<text text-anchor="start" x="159.0437" y="-177.3" font-family="Helvetica,sans-Serif" font-size="11.00" fill="#000000">[table]</text>
<polygon fill="none" stroke="#000000" points="10,-147.2 10,-169.2 75,-169.2 75,-147.2 10,-147.2"/>
<image xlink:href="../../images/primaryKeys.png" width="11px" height="12px" preserveAspectRatio="xMinYMin meet" x="15" y="-164.2"/>
<text text-anchor="start" x="30" y="-154.3" font-family="Helvetica,sans-Serif" font-size="11.00" fill="#000000">id</text>
<polygon fill="none" stroke="#000000" points="75,-147.2 75,-169.2 194,-169.2 194,-147.2 75,-147.2"/>
<text text-anchor="start" x="78" y="-154.9" font-family="Helvetica,sans-Serif" font-size="11.00" fill="#000000">int4[10]</text>
<polygon fill="#ffffff" stroke="transparent" points="10,-125.2 10,-147.2 75,-147.2 75,-125.2 10,-125.2"/>
<polygon fill="none" stroke="#000000" points="10,-125.2 10,-147.2 75,-147.2 75,-125.2 10,-125.2"/>
<text text-anchor="start" x="30" y="-132.3" font-family="Helvetica,sans-Serif" font-size="11.00" fill="#000000">name</text>
<polygon fill="none" stroke="#000000" points="75,-125.2 75,-147.2 194,-147.2 194,-125.2 75,-125.2"/>
<text text-anchor="start" x="78" y="-132.9" font-family="Helvetica,sans-Serif" font-size="11.00" fill="#000000">varchar[24]</text>
<polygon fill="none" stroke="#000000" points="10,-103.2 10,-125.2 75,-125.2 75,-103.2 10,-103.2"/>
<text text-anchor="start" x="30" y="-110.3" font-family="Helvetica,sans-Serif" font-size="11.00" fill="#000000">pk0_km</text>
<polygon fill="none" stroke="#000000" points="75,-103.2 75,-125.2 194,-125.2 194,-103.2 75,-103.2"/>
<text text-anchor="start" x="78" y="-110.9" font-family="Helvetica,sans-Serif" font-size="11.00" fill="#000000">float4[8,8]</text>
<polygon fill="none" stroke="#000000" points="10,-81.2 10,-103.2 75,-103.2 75,-81.2 10,-81.2"/>
<text text-anchor="start" x="30" y="-88.3" font-family="Helvetica,sans-Serif" font-size="11.00" fill="#000000">dx</text>
<polygon fill="none" stroke="#000000" points="75,-81.2 75,-103.2 194,-103.2 194,-81.2 75,-81.2"/>
<text text-anchor="start" x="78" y="-88.9" font-family="Helvetica,sans-Serif" font-size="11.00" fill="#000000">float4[8,8]</text>
<polygon fill="none" stroke="#000000" points="10,-59.2 10,-81.2 75,-81.2 75,-59.2 10,-59.2"/>
<text text-anchor="start" x="30" y="-66.3" font-family="Helvetica,sans-Serif" font-size="11.00" fill="#000000">geom</text>
<polygon fill="none" stroke="#000000" points="75,-59.2 75,-81.2 194,-81.2 194,-59.2 75,-59.2"/>
<text text-anchor="start" x="77.9485" y="-66.9" font-family="Helvetica,sans-Serif" font-size="11.00" fill="#000000">geometry[2147483647]</text>
<polygon fill="#ffffff" stroke="transparent" points="10,-40.2 10,-59.2 34,-59.2 34,-40.2 10,-40.2"/>
<polygon fill="none" stroke="#000000" points="10,-40.2 10,-59.2 34,-59.2 34,-40.2 10,-40.2"/>
<text text-anchor="start" x="13" y="-46.3" font-family="Helvetica,sans-Serif" font-size="11.00" fill="#000000">&lt; 0</text>
<polygon fill="#ffffff" stroke="transparent" points="34,-40.2 34,-59.2 75,-59.2 75,-40.2 34,-40.2"/>
<polygon fill="none" stroke="#000000" points="34,-40.2 34,-59.2 75,-59.2 75,-40.2 34,-40.2"/>
<text text-anchor="start" x="39.6105" y="-46.3" font-family="Helvetica,sans-Serif" font-size="11.00" fill="#000000">0 rows</text>
<polygon fill="#ffffff" stroke="transparent" points="75,-40.2 75,-59.2 194,-59.2 194,-40.2 75,-40.2"/>
<polygon fill="none" stroke="#000000" points="75,-40.2 75,-59.2 194,-59.2 194,-40.2 75,-40.2"/>
<text text-anchor="start" x="175.4053" y="-46.3" font-family="Helvetica,sans-Serif" font-size="11.00" fill="#000000">1 &gt;</text>
<polygon fill="none" stroke="#000000" stroke-width="2" points="9,-39.2 9,-193.2 195,-193.2 195,-39.2 9,-39.2"/>
</a>
</g>
</g>
<!-- _pipe_link&#45;&gt;branch -->
<g id="edge1" class="edge">
<title>_pipe_link:w&#45;&gt;branch:e</title>
<path fill="none" stroke="#000000" d="M231.0156,-158.2C218.6771,-158.2 211.1667,-158.2 194,-158.2"/>
<polygon fill="#000000" stroke="#000000" points="237.5,-158.2001 245.5,-161.8 241.5,-158.2 245.5,-158.2 245.5,-158.2 245.5,-158.2 241.5,-158.2 245.5,-154.6 237.5,-158.2001 237.5,-158.2001"/>
<ellipse fill="none" stroke="#000000" cx="234.3" cy="-158.2001" rx="3.2" ry="3.2"/>
</g>
</g>
</svg>
