<?xml version="1.0" encoding="UTF-8" standalone="no"?>
<!DOCTYPE svg PUBLIC "-//W3C//DTD SVG 1.1//EN"
 "http://www.w3.org/Graphics/SVG/1.1/DTD/svg11.dtd">
<!-- Generated by graphviz version 2.40.1 (20161225.0304)
 -->
<!-- Title: twoDegreesRelationshipsDiagram Pages: 1 -->
<svg width="427pt" height="453pt"
 viewBox="0.00 0.00 427.00 453.20" xmlns="http://www.w3.org/2000/svg" xmlns:xlink="http://www.w3.org/1999/xlink">
<g id="graph0" class="graph" transform="scale(1 1) rotate(0) translate(4 449.2)">
<title>twoDegreesRelationshipsDiagram</title>
<polygon fill="#ffffff" stroke="transparent" points="-4,4 -4,-449.2 423,-449.2 423,4 -4,4"/>
<text text-anchor="middle" x="72.4936" y="-7.3" font-family="Helvetica,sans-Serif" font-size="11.00" fill="#000000">Generated by SchemaSpy</text>
<!-- _pipe_link -->
<g id="node1" class="node">
<title>_pipe_link</title>
<g id="a_node1"><a xlink:href="../../tables/_pipe_link.html" xlink:title="_pipe_link" target="_top">
<polygon fill="#ffffff" stroke="transparent" points="262,-230.2 262,-401.2 411,-401.2 411,-230.2 262,-230.2"/>
<polygon fill="#f5f5f5" stroke="transparent" points="262.5,-377.7 262.5,-400.7 411.5,-400.7 411.5,-377.7 262.5,-377.7"/>
<polygon fill="none" stroke="#000000" points="262.5,-377.7 262.5,-400.7 411.5,-400.7 411.5,-377.7 262.5,-377.7"/>
<text text-anchor="start" x="267.5" y="-386.3" font-family="Helvetica,sans-Serif" font-weight="bold" font-size="11.00" fill="#000000">_pipe_link</text>
<text text-anchor="start" x="376.5437" y="-385.8" font-family="Helvetica,sans-Serif" font-size="11.00" fill="#000000">[table]</text>
<polygon fill="#ffffff" stroke="transparent" points="262.5,-355.7 262.5,-377.7 411.5,-377.7 411.5,-355.7 262.5,-355.7"/>
<polygon fill="none" stroke="#000000" points="262.5,-355.7 262.5,-377.7 411.5,-377.7 411.5,-355.7 262.5,-355.7"/>
<image xlink:href="../../images/foreignKeys.png" width="11px" height="12px" preserveAspectRatio="xMinYMin meet" x="267.5" y="-372.7"/>
<text text-anchor="start" x="282.5" y="-362.8" font-family="Helvetica,sans-Serif" font-size="11.00" fill="#000000">id</text>
<polygon fill="none" stroke="#000000" points="262.5,-333.7 262.5,-355.7 411.5,-355.7 411.5,-333.7 262.5,-333.7"/>
<image xlink:href="../../images/foreignKeys.png" width="11px" height="12px" preserveAspectRatio="xMinYMin meet" x="267.5" y="-350.7"/>
<text text-anchor="start" x="282.5" y="-340.8" font-family="Helvetica,sans-Serif" font-size="11.00" fill="#000000">link_type</text>
<polygon fill="none" stroke="#000000" points="262.5,-311.7 262.5,-333.7 411.5,-333.7 411.5,-311.7 262.5,-311.7"/>
<image xlink:href="../../images/foreignKeys.png" width="11px" height="12px" preserveAspectRatio="xMinYMin meet" x="267.5" y="-328.7"/>
<text text-anchor="start" x="282.5" y="-318.8" font-family="Helvetica,sans-Serif" font-size="11.00" fill="#000000">branch</text>
<polygon fill="none" stroke="#000000" points="262.5,-289.7 262.5,-311.7 411.5,-311.7 411.5,-289.7 262.5,-289.7"/>
<image xlink:href="../../images/foreignKeys.png" width="11px" height="12px" preserveAspectRatio="xMinYMin meet" x="267.5" y="-306.7"/>
<text text-anchor="start" x="282.5" y="-296.8" font-family="Helvetica,sans-Serif" font-size="11.00" fill="#000000">cp_geom</text>
<polygon fill="none" stroke="#000000" points="262.5,-267.7 262.5,-289.7 411.5,-289.7 411.5,-267.7 262.5,-267.7"/>
<image xlink:href="../../images/foreignKeys.png" width="11px" height="12px" preserveAspectRatio="xMinYMin meet" x="267.5" y="-284.7"/>
<text text-anchor="start" x="282.5" y="-274.8" font-family="Helvetica,sans-Serif" font-size="11.00" fill="#000000">op_geom</text>
<polygon fill="none" stroke="#000000" points="262.5,-248.7 262.5,-267.7 411.5,-267.7 411.5,-248.7 262.5,-248.7"/>
<text text-anchor="start" x="265.5" y="-254.8" font-family="Helvetica,sans-Serif" font-size="11.00" fill="#000000">...</text>
<polygon fill="#ffffff" stroke="transparent" points="262.5,-229.7 262.5,-248.7 322.5,-248.7 322.5,-229.7 262.5,-229.7"/>
<polygon fill="none" stroke="#000000" points="262.5,-229.7 262.5,-248.7 322.5,-248.7 322.5,-229.7 262.5,-229.7"/>
<text text-anchor="start" x="265.5" y="-235.8" font-family="Helvetica,sans-Serif" font-size="11.00" fill="#000000">&lt; 5</text>
<polygon fill="#ffffff" stroke="transparent" points="322.5,-229.7 322.5,-248.7 379.5,-248.7 379.5,-229.7 322.5,-229.7"/>
<polygon fill="none" stroke="#000000" points="322.5,-229.7 322.5,-248.7 379.5,-248.7 379.5,-229.7 322.5,-229.7"/>
<text text-anchor="start" x="344.1105" y="-235.8" font-family="Helvetica,sans-Serif" font-size="11.00" fill="#000000">0 rows</text>
<polygon fill="#ffffff" stroke="transparent" points="379.5,-229.7 379.5,-248.7 411.5,-248.7 411.5,-229.7 379.5,-229.7"/>
<polygon fill="none" stroke="#000000" points="379.5,-229.7 379.5,-248.7 411.5,-248.7 411.5,-229.7 379.5,-229.7"/>
<text text-anchor="start" x="402.3862" y="-235.8" font-family="Helvetica,sans-Serif" font-size="11.00" fill="#000000"> &#160;</text>
</a>
</g>
</g>
<!-- branch -->
<g id="node2" class="node">
<title>branch</title>
<g id="a_node2"><a xlink:href="../../tables/branch.html" xlink:title="branch" target="_top">
<polygon fill="#ffffff" stroke="transparent" points="16.5,-202.7 16.5,-358.7 204.5,-358.7 204.5,-202.7 16.5,-202.7"/>
<polygon fill="#f5f5f5" stroke="transparent" points="18.5,-333.7 18.5,-356.7 202.5,-356.7 202.5,-333.7 18.5,-333.7"/>
<polygon fill="none" stroke="#000000" points="18.5,-333.7 18.5,-356.7 202.5,-356.7 202.5,-333.7 18.5,-333.7"/>
<text text-anchor="start" x="23.5" y="-342.3" font-family="Helvetica,sans-Serif" font-weight="bold" font-size="11.00" fill="#000000">branch</text>
<text text-anchor="start" x="167.5437" y="-341.8" font-family="Helvetica,sans-Serif" font-size="11.00" fill="#000000">[table]</text>
<polygon fill="none" stroke="#000000" points="18.5,-311.7 18.5,-333.7 83.5,-333.7 83.5,-311.7 18.5,-311.7"/>
<image xlink:href="../../images/primaryKeys.png" width="11px" height="12px" preserveAspectRatio="xMinYMin meet" x="23.5" y="-328.7"/>
<text text-anchor="start" x="38.5" y="-318.8" font-family="Helvetica,sans-Serif" font-size="11.00" fill="#000000">id</text>
<polygon fill="none" stroke="#000000" points="83.5,-311.7 83.5,-333.7 202.5,-333.7 202.5,-311.7 83.5,-311.7"/>
<text text-anchor="start" x="86.5" y="-319.4" font-family="Helvetica,sans-Serif" font-size="11.00" fill="#000000">int4[10]</text>
<polygon fill="#ffffff" stroke="transparent" points="18.5,-289.7 18.5,-311.7 83.5,-311.7 83.5,-289.7 18.5,-289.7"/>
<polygon fill="none" stroke="#000000" points="18.5,-289.7 18.5,-311.7 83.5,-311.7 83.5,-289.7 18.5,-289.7"/>
<text text-anchor="start" x="38.5" y="-296.8" font-family="Helvetica,sans-Serif" font-size="11.00" fill="#000000">name</text>
<polygon fill="none" stroke="#000000" points="83.5,-289.7 83.5,-311.7 202.5,-311.7 202.5,-289.7 83.5,-289.7"/>
<text text-anchor="start" x="86.5" y="-297.4" font-family="Helvetica,sans-Serif" font-size="11.00" fill="#000000">varchar[24]</text>
<polygon fill="none" stroke="#000000" points="18.5,-267.7 18.5,-289.7 83.5,-289.7 83.5,-267.7 18.5,-267.7"/>
<text text-anchor="start" x="38.5" y="-274.8" font-family="Helvetica,sans-Serif" font-size="11.00" fill="#000000">pk0_km</text>
<polygon fill="none" stroke="#000000" points="83.5,-267.7 83.5,-289.7 202.5,-289.7 202.5,-267.7 83.5,-267.7"/>
<text text-anchor="start" x="86.5" y="-275.4" font-family="Helvetica,sans-Serif" font-size="11.00" fill="#000000">float4[8,8]</text>
<polygon fill="none" stroke="#000000" points="18.5,-245.7 18.5,-267.7 83.5,-267.7 83.5,-245.7 18.5,-245.7"/>
<text text-anchor="start" x="38.5" y="-252.8" font-family="Helvetica,sans-Serif" font-size="11.00" fill="#000000">dx</text>
<polygon fill="none" stroke="#000000" points="83.5,-245.7 83.5,-267.7 202.5,-267.7 202.5,-245.7 83.5,-245.7"/>
<text text-anchor="start" x="86.5" y="-253.4" font-family="Helvetica,sans-Serif" font-size="11.00" fill="#000000">float4[8,8]</text>
<polygon fill="none" stroke="#000000" points="18.5,-223.7 18.5,-245.7 83.5,-245.7 83.5,-223.7 18.5,-223.7"/>
<text text-anchor="start" x="38.5" y="-230.8" font-family="Helvetica,sans-Serif" font-size="11.00" fill="#000000">geom</text>
<polygon fill="none" stroke="#000000" points="83.5,-223.7 83.5,-245.7 202.5,-245.7 202.5,-223.7 83.5,-223.7"/>
<text text-anchor="start" x="86.4485" y="-231.4" font-family="Helvetica,sans-Serif" font-size="11.00" fill="#000000">geometry[2147483647]</text>
<polygon fill="#ffffff" stroke="transparent" points="18.5,-204.7 18.5,-223.7 42.5,-223.7 42.5,-204.7 18.5,-204.7"/>
<polygon fill="none" stroke="#000000" points="18.5,-204.7 18.5,-223.7 42.5,-223.7 42.5,-204.7 18.5,-204.7"/>
<text text-anchor="start" x="21.5" y="-210.8" font-family="Helvetica,sans-Serif" font-size="11.00" fill="#000000">&lt; 0</text>
<polygon fill="#ffffff" stroke="transparent" points="42.5,-204.7 42.5,-223.7 83.5,-223.7 83.5,-204.7 42.5,-204.7"/>
<polygon fill="none" stroke="#000000" points="42.5,-204.7 42.5,-223.7 83.5,-223.7 83.5,-204.7 42.5,-204.7"/>
<text text-anchor="start" x="48.1105" y="-210.8" font-family="Helvetica,sans-Serif" font-size="11.00" fill="#000000">0 rows</text>
<polygon fill="#ffffff" stroke="transparent" points="83.5,-204.7 83.5,-223.7 202.5,-223.7 202.5,-204.7 83.5,-204.7"/>
<polygon fill="none" stroke="#000000" points="83.5,-204.7 83.5,-223.7 202.5,-223.7 202.5,-204.7 83.5,-204.7"/>
<text text-anchor="start" x="183.9053" y="-210.8" font-family="Helvetica,sans-Serif" font-size="11.00" fill="#000000">1 &gt;</text>
<polygon fill="none" stroke="#000000" stroke-width="2" points="17.5,-203.7 17.5,-357.7 203.5,-357.7 203.5,-203.7 17.5,-203.7"/>
</a>
</g>
</g>
<!-- _pipe_link&#45;&gt;branch -->
<g id="edge1" class="edge">
<title>_pipe_link:w&#45;&gt;branch:e</title>
<path fill="none" stroke="#000000" d="M247.9193,-322.7C232.1309,-322.7 223.5417,-322.7 202.5,-322.7"/>
<polygon fill="#000000" stroke="#000000" points="254.5,-322.7001 262.5,-326.3 258.5,-322.7 262.5,-322.7 262.5,-322.7 262.5,-322.7 258.5,-322.7 262.5,-319.1 254.5,-322.7001 254.5,-322.7001"/>
<ellipse fill="none" stroke="#000000" cx="251.3" cy="-322.7001" rx="3.2" ry="3.2"/>
</g>
<!-- closed_parametric_geometry -->
<g id="node3" class="node">
<title>closed_parametric_geometry</title>
<g id="a_node3"><a xlink:href="../../tables/closed_parametric_geometry.html" xlink:title="closed_parametric_geometry" target="_top">
<polygon fill="#ffffff" stroke="transparent" points="8,-120.2 8,-181.2 213,-181.2 213,-120.2 8,-120.2"/>
<polygon fill="#f5f5f5" stroke="transparent" points="8.5,-157.7 8.5,-180.7 213.5,-180.7 213.5,-157.7 8.5,-157.7"/>
<polygon fill="none" stroke="#000000" points="8.5,-157.7 8.5,-180.7 213.5,-180.7 213.5,-157.7 8.5,-157.7"/>
<text text-anchor="start" x="13.5" y="-166.3" font-family="Helvetica,sans-Serif" font-weight="bold" font-size="11.00" fill="#000000">closed_parametric_geometry</text>
<text text-anchor="start" x="179.0219" y="-165.8" font-family="Helvetica,sans-Serif" font-size="11.00" fill="#000000">[table]</text>
<polygon fill="none" stroke="#000000" points="8.5,-138.7 8.5,-157.7 213.5,-157.7 213.5,-138.7 8.5,-138.7"/>
<text text-anchor="start" x="11.5" y="-144.8" font-family="Helvetica,sans-Serif" font-size="11.00" fill="#000000">...</text>
<polygon fill="#ffffff" stroke="transparent" points="8.5,-119.7 8.5,-138.7 87.5,-138.7 87.5,-119.7 8.5,-119.7"/>
<polygon fill="none" stroke="#000000" points="8.5,-119.7 8.5,-138.7 87.5,-138.7 87.5,-119.7 8.5,-119.7"/>
<text text-anchor="start" x="11.5" y="-125.8" font-family="Helvetica,sans-Serif" font-size="11.00" fill="#000000"> &#160;</text>
<polygon fill="#ffffff" stroke="transparent" points="87.5,-119.7 87.5,-138.7 158.5,-138.7 158.5,-119.7 87.5,-119.7"/>
<polygon fill="none" stroke="#000000" points="87.5,-119.7 87.5,-138.7 158.5,-138.7 158.5,-119.7 87.5,-119.7"/>
<text text-anchor="start" x="123.1105" y="-125.8" font-family="Helvetica,sans-Serif" font-size="11.00" fill="#000000">0 rows</text>
<polygon fill="#ffffff" stroke="transparent" points="158.5,-119.7 158.5,-138.7 213.5,-138.7 213.5,-119.7 158.5,-119.7"/>
<polygon fill="none" stroke="#000000" points="158.5,-119.7 158.5,-138.7 213.5,-138.7 213.5,-119.7 158.5,-119.7"/>
<text text-anchor="start" x="194.9053" y="-125.8" font-family="Helvetica,sans-Serif" font-size="11.00" fill="#000000">3 &gt;</text>
</a>
</g>
</g>
<!-- _pipe_link&#45;&gt;closed_parametric_geometry -->
<g id="edge2" class="edge">
<title>_pipe_link:w&#45;&gt;closed_parametric_geometry:e</title>
<path fill="none" stroke="#000000" d="M248.3552,-297.9138C205.0618,-277.1772 279.1844,-147.7 213.5,-147.7"/>
<polygon fill="#000000" stroke="#000000" points="254.6508,-299.1538 261.8042,-304.2321 258.5754,-299.9269 262.5,-300.7 262.5,-300.7 262.5,-300.7 258.5754,-299.9269 263.1958,-297.1679 254.6508,-299.1538 254.6508,-299.1538"/>
<ellipse fill="none" stroke="#000000" cx="251.5112" cy="-298.5354" rx="3.2" ry="3.2"/>
</g>
<!-- _link -->
<g id="node4" class="node">
<title>_link</title>
<g id="a_node4"><a xlink:href="../../tables/_link.html" xlink:title="_link" target="_top">
<polygon fill="#ffffff" stroke="transparent" points="67.5,-380.2 67.5,-441.2 153.5,-441.2 153.5,-380.2 67.5,-380.2"/>
<polygon fill="#f5f5f5" stroke="transparent" points="67.5,-417.7 67.5,-440.7 153.5,-440.7 153.5,-417.7 67.5,-417.7"/>
<polygon fill="none" stroke="#000000" points="67.5,-417.7 67.5,-440.7 153.5,-440.7 153.5,-417.7 67.5,-417.7"/>
<text text-anchor="start" x="72.5" y="-426.3" font-family="Helvetica,sans-Serif" font-weight="bold" font-size="11.00" fill="#000000">_link</text>
<text text-anchor="start" x="118.5437" y="-425.8" font-family="Helvetica,sans-Serif" font-size="11.00" fill="#000000">[table]</text>
<polygon fill="none" stroke="#000000" points="67.5,-398.7 67.5,-417.7 153.5,-417.7 153.5,-398.7 67.5,-398.7"/>
<text text-anchor="start" x="70.5" y="-404.8" font-family="Helvetica,sans-Serif" font-size="11.00" fill="#000000">...</text>
<polygon fill="#ffffff" stroke="transparent" points="67.5,-379.7 67.5,-398.7 88.5,-398.7 88.5,-379.7 67.5,-379.7"/>
<polygon fill="none" stroke="#000000" points="67.5,-379.7 67.5,-398.7 88.5,-398.7 88.5,-379.7 67.5,-379.7"/>
<text text-anchor="start" x="70.2027" y="-385.8" font-family="Helvetica,sans-Serif" font-size="11.00" fill="#000000">&lt; 5</text>
<polygon fill="#ffffff" stroke="transparent" points="88.5,-379.7 88.5,-398.7 126.5,-398.7 126.5,-379.7 88.5,-379.7"/>
<polygon fill="none" stroke="#000000" points="88.5,-379.7 88.5,-398.7 126.5,-398.7 126.5,-379.7 88.5,-379.7"/>
<text text-anchor="start" x="91.3053" y="-385.8" font-family="Helvetica,sans-Serif" font-size="11.00" fill="#000000">0 rows</text>
<polygon fill="#ffffff" stroke="transparent" points="126.5,-379.7 126.5,-398.7 153.5,-398.7 153.5,-379.7 126.5,-379.7"/>
<polygon fill="none" stroke="#000000" points="126.5,-379.7 126.5,-398.7 153.5,-398.7 153.5,-379.7 126.5,-379.7"/>
<text text-anchor="start" x="129.1452" y="-385.8" font-family="Helvetica,sans-Serif" font-size="11.00" fill="#000000">60 &gt;</text>
</a>
</g>
</g>
<!-- _pipe_link&#45;&gt;_link -->
<g id="edge3" class="edge">
<title>_pipe_link:w&#45;&gt;_link:e</title>
<path fill="none" stroke="#000000" d="M251.969,-367.3114C209.7076,-372.4117 201.5179,-407.7 153.5,-407.7"/>
<polygon fill="#000000" stroke="#000000" points="261.4695,-362.7531 261.9332,-370.7397 260.3359,-370.8324 259.8722,-362.8458 261.4695,-362.7531"/>
<polyline fill="none" stroke="#000000" points="262.5,-366.7 258.5067,-366.9319 "/>
<ellipse fill="none" stroke="#000000" cx="255.3121" cy="-367.1174" rx="3.2" ry="3.2"/>
</g>
<!-- _pipe_link&#45;&gt;_link -->
<g id="edge4" class="edge">
<title>_pipe_link:w&#45;&gt;_link:e</title>
<path fill="none" stroke="#000000" d="M248.2862,-347.6716C238.8375,-352.4031 234.3731,-361.9099 221,-369.7 191.2519,-387.0288 187.9272,-407.7 153.5,-407.7"/>
<polygon fill="#000000" stroke="#000000" points="254.6693,-346.3372 263.2367,-348.2238 258.5847,-345.5186 262.5,-344.7 262.5,-344.7 262.5,-344.7 258.5847,-345.5186 261.7633,-341.1762 254.6693,-346.3372 254.6693,-346.3372"/>
<ellipse fill="none" stroke="#000000" cx="251.537" cy="-346.9921" rx="3.2" ry="3.2"/>
</g>
<!-- open_parametric_geometry -->
<g id="node5" class="node">
<title>open_parametric_geometry</title>
<g id="a_node5"><a xlink:href="../../tables/open_parametric_geometry.html" xlink:title="open_parametric_geometry" target="_top">
<polygon fill="#ffffff" stroke="transparent" points="12.5,-38.2 12.5,-99.2 208.5,-99.2 208.5,-38.2 12.5,-38.2"/>
<polygon fill="#f5f5f5" stroke="transparent" points="12.5,-75.7 12.5,-98.7 208.5,-98.7 208.5,-75.7 12.5,-75.7"/>
<polygon fill="none" stroke="#000000" points="12.5,-75.7 12.5,-98.7 208.5,-98.7 208.5,-75.7 12.5,-75.7"/>
<text text-anchor="start" x="17.5" y="-84.3" font-family="Helvetica,sans-Serif" font-weight="bold" font-size="11.00" fill="#000000">open_parametric_geometry</text>
<text text-anchor="start" x="174.0219" y="-83.8" font-family="Helvetica,sans-Serif" font-size="11.00" fill="#000000">[table]</text>
<polygon fill="none" stroke="#000000" points="12.5,-56.7 12.5,-75.7 208.5,-75.7 208.5,-56.7 12.5,-56.7"/>
<text text-anchor="start" x="15.5" y="-62.8" font-family="Helvetica,sans-Serif" font-size="11.00" fill="#000000">...</text>
<polygon fill="#ffffff" stroke="transparent" points="12.5,-37.7 12.5,-56.7 86.5,-56.7 86.5,-37.7 12.5,-37.7"/>
<polygon fill="none" stroke="#000000" points="12.5,-37.7 12.5,-56.7 86.5,-56.7 86.5,-37.7 12.5,-37.7"/>
<text text-anchor="start" x="15.5" y="-43.8" font-family="Helvetica,sans-Serif" font-size="11.00" fill="#000000"> &#160;</text>
<polygon fill="#ffffff" stroke="transparent" points="86.5,-37.7 86.5,-56.7 155.5,-56.7 155.5,-37.7 86.5,-37.7"/>
<polygon fill="none" stroke="#000000" points="86.5,-37.7 86.5,-56.7 155.5,-56.7 155.5,-37.7 86.5,-37.7"/>
<text text-anchor="start" x="120.1105" y="-43.8" font-family="Helvetica,sans-Serif" font-size="11.00" fill="#000000">0 rows</text>
<polygon fill="#ffffff" stroke="transparent" points="155.5,-37.7 155.5,-56.7 208.5,-56.7 208.5,-37.7 155.5,-37.7"/>
<polygon fill="none" stroke="#000000" points="155.5,-37.7 155.5,-56.7 208.5,-56.7 208.5,-37.7 155.5,-37.7"/>
<text text-anchor="start" x="189.9053" y="-43.8" font-family="Helvetica,sans-Serif" font-size="11.00" fill="#000000">3 &gt;</text>
</a>
</g>
</g>
<!-- _pipe_link&#45;&gt;open_parametric_geometry -->
<g id="edge5" class="edge">
<title>_pipe_link:w&#45;&gt;open_parametric_geometry:e</title>
<path fill="none" stroke="#000000" d="M248.1184,-276.7274C180.081,-255.2544 300.6299,-65.7 208.5,-65.7"/>
<polygon fill="#000000" stroke="#000000" points="254.5742,-277.6128 262.0108,-282.2666 258.5371,-278.1564 262.5,-278.7 262.5,-278.7 262.5,-278.7 258.5371,-278.1564 262.9892,-275.1334 254.5742,-277.6128 254.5742,-277.6128"/>
<ellipse fill="none" stroke="#000000" cx="251.4039" cy="-277.178" rx="3.2" ry="3.2"/>
</g>
</g>
</svg>
