<?xml version="1.0" encoding="UTF-8" standalone="no"?>
<!DOCTYPE svg PUBLIC "-//W3C//DTD SVG 1.1//EN"
 "http://www.w3.org/Graphics/SVG/1.1/DTD/svg11.dtd">
<!-- Generated by graphviz version 2.40.1 (20161225.0304)
 -->
<!-- Title: twoDegreesRelationshipsDiagram Pages: 1 -->
<svg width="508pt" height="246pt"
 viewBox="0.00 0.00 508.00 245.70" xmlns="http://www.w3.org/2000/svg" xmlns:xlink="http://www.w3.org/1999/xlink">
<g id="graph0" class="graph" transform="scale(1 1) rotate(0) translate(4 241.7)">
<title>twoDegreesRelationshipsDiagram</title>
<polygon fill="#ffffff" stroke="transparent" points="-4,4 -4,-241.7 504,-241.7 504,4 -4,4"/>
<text text-anchor="middle" x="72.4936" y="-7.3" font-family="Helvetica,sans-Serif" font-size="11.00" fill="#000000">Generated by SchemaSpy</text>
<!-- _catchment_node -->
<g id="node1" class="node">
<title>_catchment_node</title>
<g id="a_node1"><a xlink:href="../../tables/_catchment_node.html" xlink:title="_catchment_node" target="_top">
<polygon fill="#ffffff" stroke="transparent" points="261,-106.7 261,-233.7 492,-233.7 492,-106.7 261,-106.7"/>
<polygon fill="#f5f5f5" stroke="transparent" points="261.5,-210.2 261.5,-233.2 492.5,-233.2 492.5,-210.2 261.5,-210.2"/>
<polygon fill="none" stroke="#000000" points="261.5,-210.2 261.5,-233.2 492.5,-233.2 492.5,-210.2 261.5,-210.2"/>
<text text-anchor="start" x="266.5" y="-218.8" font-family="Helvetica,sans-Serif" font-weight="bold" font-size="11.00" fill="#000000">_catchment_node</text>
<text text-anchor="start" x="457.5437" y="-218.3" font-family="Helvetica,sans-Serif" font-size="11.00" fill="#000000">[table]</text>
<polygon fill="#ffffff" stroke="transparent" points="261.5,-188.2 261.5,-210.2 492.5,-210.2 492.5,-188.2 261.5,-188.2"/>
<polygon fill="none" stroke="#000000" points="261.5,-188.2 261.5,-210.2 492.5,-210.2 492.5,-188.2 261.5,-188.2"/>
<image xlink:href="../../images/foreignKeys.png" width="11px" height="12px" preserveAspectRatio="xMinYMin meet" x="266.5" y="-205.2"/>
<text text-anchor="start" x="281.5" y="-195.3" font-family="Helvetica,sans-Serif" font-size="11.00" fill="#000000">id</text>
<polygon fill="none" stroke="#000000" points="261.5,-166.2 261.5,-188.2 492.5,-188.2 492.5,-166.2 261.5,-166.2"/>
<image xlink:href="../../images/foreignKeys.png" width="11px" height="12px" preserveAspectRatio="xMinYMin meet" x="266.5" y="-183.2"/>
<text text-anchor="start" x="281.5" y="-173.3" font-family="Helvetica,sans-Serif" font-size="11.00" fill="#000000">node_type</text>
<polygon fill="none" stroke="#000000" points="261.5,-144.2 261.5,-166.2 492.5,-166.2 492.5,-144.2 261.5,-144.2"/>
<image xlink:href="../../images/foreignKeys.png" width="11px" height="12px" preserveAspectRatio="xMinYMin meet" x="266.5" y="-161.2"/>
<text text-anchor="start" x="281.5" y="-151.3" font-family="Helvetica,sans-Serif" font-size="11.00" fill="#000000">contour</text>
<polygon fill="none" stroke="#000000" points="261.5,-125.2 261.5,-144.2 492.5,-144.2 492.5,-125.2 261.5,-125.2"/>
<text text-anchor="start" x="264.5" y="-131.3" font-family="Helvetica,sans-Serif" font-size="11.00" fill="#000000">...</text>
<polygon fill="#ffffff" stroke="transparent" points="261.5,-106.2 261.5,-125.2 362.5,-125.2 362.5,-106.2 261.5,-106.2"/>
<polygon fill="none" stroke="#000000" points="261.5,-106.2 261.5,-125.2 362.5,-125.2 362.5,-106.2 261.5,-106.2"/>
<text text-anchor="start" x="264.5" y="-112.3" font-family="Helvetica,sans-Serif" font-size="11.00" fill="#000000">&lt; 3</text>
<polygon fill="#ffffff" stroke="transparent" points="362.5,-106.2 362.5,-125.2 440.5,-125.2 440.5,-106.2 362.5,-106.2"/>
<polygon fill="none" stroke="#000000" points="362.5,-106.2 362.5,-125.2 440.5,-125.2 440.5,-106.2 362.5,-106.2"/>
<text text-anchor="start" x="405.1105" y="-112.3" font-family="Helvetica,sans-Serif" font-size="11.00" fill="#000000">0 rows</text>
<polygon fill="#ffffff" stroke="transparent" points="440.5,-106.2 440.5,-125.2 492.5,-125.2 492.5,-106.2 440.5,-106.2"/>
<polygon fill="none" stroke="#000000" points="440.5,-106.2 440.5,-125.2 492.5,-125.2 492.5,-106.2 440.5,-106.2"/>
<text text-anchor="start" x="483.3862" y="-112.3" font-family="Helvetica,sans-Serif" font-size="11.00" fill="#000000"> &#160;</text>
</a>
</g>
</g>
<!-- catchment -->
<g id="node2" class="node">
<title>catchment</title>
<g id="a_node2"><a xlink:href="../../tables/catchment.html" xlink:title="catchment" target="_top">
<polygon fill="#ffffff" stroke="transparent" points="8,-38.2 8,-150.2 212,-150.2 212,-38.2 8,-38.2"/>
<polygon fill="#f5f5f5" stroke="transparent" points="10,-125.2 10,-148.2 210,-148.2 210,-125.2 10,-125.2"/>
<polygon fill="none" stroke="#000000" points="10,-125.2 10,-148.2 210,-148.2 210,-125.2 10,-125.2"/>
<text text-anchor="start" x="15" y="-133.8" font-family="Helvetica,sans-Serif" font-weight="bold" font-size="11.00" fill="#000000">catchment</text>
<text text-anchor="start" x="175.0437" y="-133.3" font-family="Helvetica,sans-Serif" font-size="11.00" fill="#000000">[table]</text>
<polygon fill="none" stroke="#000000" points="10,-103.2 10,-125.2 91,-125.2 91,-103.2 10,-103.2"/>
<image xlink:href="../../images/primaryKeys.png" width="11px" height="12px" preserveAspectRatio="xMinYMin meet" x="15" y="-120.2"/>
<text text-anchor="start" x="30" y="-110.3" font-family="Helvetica,sans-Serif" font-size="11.00" fill="#000000">id</text>
<polygon fill="none" stroke="#000000" points="91,-103.2 91,-125.2 210,-125.2 210,-103.2 91,-103.2"/>
<text text-anchor="start" x="94" y="-110.9" font-family="Helvetica,sans-Serif" font-size="11.00" fill="#000000">serial[10]</text>
<polygon fill="#ffffff" stroke="transparent" points="10,-81.2 10,-103.2 91,-103.2 91,-81.2 10,-81.2"/>
<polygon fill="none" stroke="#000000" points="10,-81.2 10,-103.2 91,-103.2 91,-81.2 10,-81.2"/>
<text text-anchor="start" x="30" y="-88.3" font-family="Helvetica,sans-Serif" font-size="11.00" fill="#000000">name</text>
<polygon fill="none" stroke="#000000" points="91,-81.2 91,-103.2 210,-103.2 210,-81.2 91,-81.2"/>
<text text-anchor="start" x="94" y="-88.9" font-family="Helvetica,sans-Serif" font-size="11.00" fill="#000000">varchar[16]</text>
<polygon fill="none" stroke="#000000" points="10,-59.2 10,-81.2 91,-81.2 91,-59.2 10,-59.2"/>
<text text-anchor="start" x="30" y="-66.3" font-family="Helvetica,sans-Serif" font-size="11.00" fill="#000000">geom</text>
<polygon fill="none" stroke="#000000" points="91,-59.2 91,-81.2 210,-81.2 210,-59.2 91,-59.2"/>
<text text-anchor="start" x="93.9485" y="-66.9" font-family="Helvetica,sans-Serif" font-size="11.00" fill="#000000">geometry[2147483647]</text>
<polygon fill="#ffffff" stroke="transparent" points="10,-40.2 10,-59.2 42,-59.2 42,-40.2 10,-40.2"/>
<polygon fill="none" stroke="#000000" points="10,-40.2 10,-59.2 42,-59.2 42,-40.2 10,-40.2"/>
<text text-anchor="start" x="13" y="-46.3" font-family="Helvetica,sans-Serif" font-size="11.00" fill="#000000">&lt; 0</text>
<polygon fill="#ffffff" stroke="transparent" points="42,-40.2 42,-59.2 91,-59.2 91,-40.2 42,-40.2"/>
<polygon fill="none" stroke="#000000" points="42,-40.2 42,-59.2 91,-59.2 91,-40.2 42,-40.2"/>
<text text-anchor="start" x="55.6105" y="-46.3" font-family="Helvetica,sans-Serif" font-size="11.00" fill="#000000">0 rows</text>
<polygon fill="#ffffff" stroke="transparent" points="91,-40.2 91,-59.2 210,-59.2 210,-40.2 91,-40.2"/>
<polygon fill="none" stroke="#000000" points="91,-40.2 91,-59.2 210,-59.2 210,-40.2 91,-40.2"/>
<text text-anchor="start" x="191.4053" y="-46.3" font-family="Helvetica,sans-Serif" font-size="11.00" fill="#000000">1 &gt;</text>
<polygon fill="none" stroke="#000000" stroke-width="2" points="9,-39.2 9,-149.2 211,-149.2 211,-39.2 9,-39.2"/>
</a>
</g>
</g>
<!-- _catchment_node&#45;&gt;catchment -->
<g id="edge1" class="edge">
<title>_catchment_node:w&#45;&gt;catchment:e</title>
<path fill="none" stroke="#000000" d="M247.5533,-150.8123C233.596,-140.2354 233.3139,-114.2 210,-114.2"/>
<polygon fill="#000000" stroke="#000000" points="253.8687,-152.7991 260.4196,-158.6341 257.6844,-153.9996 261.5,-155.2 261.5,-155.2 261.5,-155.2 257.6844,-153.9996 262.5804,-151.7659 253.8687,-152.7991 253.8687,-152.7991"/>
<ellipse fill="none" stroke="#000000" cx="250.8162" cy="-151.8388" rx="3.2" ry="3.2"/>
</g>
<!-- _node -->
<g id="node3" class="node">
<title>_node</title>
<g id="a_node3"><a xlink:href="../../tables/_node.html" xlink:title="_node" target="_top">
<polygon fill="#ffffff" stroke="transparent" points="67,-171.7 67,-232.7 153,-232.7 153,-171.7 67,-171.7"/>
<polygon fill="#f5f5f5" stroke="transparent" points="67,-209.2 67,-232.2 153,-232.2 153,-209.2 67,-209.2"/>
<polygon fill="none" stroke="#000000" points="67,-209.2 67,-232.2 153,-232.2 153,-209.2 67,-209.2"/>
<text text-anchor="start" x="72" y="-217.8" font-family="Helvetica,sans-Serif" font-weight="bold" font-size="11.00" fill="#000000">_node</text>
<text text-anchor="start" x="118.0437" y="-217.3" font-family="Helvetica,sans-Serif" font-size="11.00" fill="#000000">[table]</text>
<polygon fill="none" stroke="#000000" points="67,-190.2 67,-209.2 153,-209.2 153,-190.2 67,-190.2"/>
<text text-anchor="start" x="70" y="-196.3" font-family="Helvetica,sans-Serif" font-size="11.00" fill="#000000">...</text>
<polygon fill="#ffffff" stroke="transparent" points="67,-171.2 67,-190.2 88,-190.2 88,-171.2 67,-171.2"/>
<polygon fill="none" stroke="#000000" points="67,-171.2 67,-190.2 88,-190.2 88,-171.2 67,-171.2"/>
<text text-anchor="start" x="69.7027" y="-177.3" font-family="Helvetica,sans-Serif" font-size="11.00" fill="#000000">&lt; 1</text>
<polygon fill="#ffffff" stroke="transparent" points="88,-171.2 88,-190.2 126,-190.2 126,-171.2 88,-171.2"/>
<polygon fill="none" stroke="#000000" points="88,-171.2 88,-190.2 126,-190.2 126,-171.2 88,-171.2"/>
<text text-anchor="start" x="90.8053" y="-177.3" font-family="Helvetica,sans-Serif" font-size="11.00" fill="#000000">0 rows</text>
<polygon fill="#ffffff" stroke="transparent" points="126,-171.2 126,-190.2 153,-190.2 153,-171.2 126,-171.2"/>
<polygon fill="none" stroke="#000000" points="126,-171.2 126,-190.2 153,-190.2 153,-171.2 126,-171.2"/>
<text text-anchor="start" x="128.6452" y="-177.3" font-family="Helvetica,sans-Serif" font-size="11.00" fill="#000000">24 &gt;</text>
</a>
</g>
</g>
<!-- _catchment_node&#45;&gt;_node -->
<g id="edge2" class="edge">
<title>_catchment_node:w&#45;&gt;_node:e</title>
<path fill="none" stroke="#000000" d="M251.078,-199.2C211.2313,-199.2 197.549,-199.2 153,-199.2"/>
<polygon fill="#000000" stroke="#000000" points="260.7,-195.2 260.7,-203.2 259.1,-203.2 259.1,-195.2 260.7,-195.2"/>
<polyline fill="none" stroke="#000000" points="261.5,-199.2 257.5,-199.2 "/>
<ellipse fill="none" stroke="#000000" cx="254.3" cy="-199.2001" rx="3.2" ry="3.2"/>
</g>
<!-- _catchment_node&#45;&gt;_node -->
<g id="edge3" class="edge">
<title>_catchment_node:w&#45;&gt;_node:e</title>
<path fill="none" stroke="#000000" d="M246.6564,-177.932C209.6208,-181.7493 196.8219,-199.2 153,-199.2"/>
<polygon fill="#000000" stroke="#000000" points="253.5097,-177.5941 261.6773,-180.7956 257.5049,-177.397 261.5,-177.2 261.5,-177.2 261.5,-177.2 257.5049,-177.397 261.3227,-173.6044 253.5097,-177.5941 253.5097,-177.5941"/>
<ellipse fill="none" stroke="#000000" cx="250.3136" cy="-177.7517" rx="3.2" ry="3.2"/>
</g>
</g>
</svg>
