<?xml version="1.0" encoding="UTF-8" standalone="no"?>
<!DOCTYPE svg PUBLIC "-//W3C//DTD SVG 1.1//EN"
 "http://www.w3.org/Graphics/SVG/1.1/DTD/svg11.dtd">
<!-- Generated by graphviz version 2.40.1 (20161225.0304)
 -->
<!-- Title: oneDegreeRelationshipsDiagram Pages: 1 -->
<svg width="462pt" height="1133pt"
 viewBox="0.00 0.00 462.00 1133.20" xmlns="http://www.w3.org/2000/svg" xmlns:xlink="http://www.w3.org/1999/xlink">
<g id="graph0" class="graph" transform="scale(1 1) rotate(0) translate(4 1129.2)">
<title>oneDegreeRelationshipsDiagram</title>
<polygon fill="#ffffff" stroke="transparent" points="-4,4 -4,-1129.2 458,-1129.2 458,4 -4,4"/>
<text text-anchor="middle" x="72.4936" y="-7.3" font-family="Helvetica,sans-Serif" font-size="11.00" fill="#000000">Generated by SchemaSpy</text>
<!-- catchment_node -->
<g id="node1" class="node">
<title>catchment_node</title>
<g id="a_node1"><a xlink:href="../../tables/catchment_node.html" xlink:title="catchment_node" target="_top">
<polygon fill="#ffffff" stroke="transparent" points="8,-38.2 8,-1121.2 446,-1121.2 446,-38.2 8,-38.2"/>
<polygon fill="#f5f5f5" stroke="transparent" points="10,-1095.7 10,-1118.7 444,-1118.7 444,-1095.7 10,-1095.7"/>
<polygon fill="none" stroke="#000000" points="10,-1095.7 10,-1118.7 444,-1118.7 444,-1095.7 10,-1095.7"/>
<text text-anchor="start" x="15" y="-1104.3" font-family="Helvetica,sans-Serif" font-weight="bold" font-size="11.00" fill="#000000">catchment_node</text>
<text text-anchor="start" x="410.8895" y="-1103.8" font-family="Helvetica,sans-Serif" font-size="11.00" fill="#000000">[view]</text>
<polygon fill="none" stroke="#000000" points="10,-1073.7 10,-1095.7 241,-1095.7 241,-1073.7 10,-1073.7"/>
<text text-anchor="start" x="30" y="-1080.8" font-family="Helvetica,sans-Serif" font-size="11.00" fill="#000000">id</text>
<polygon fill="none" stroke="#000000" points="241,-1073.7 241,-1095.7 444,-1095.7 444,-1073.7 241,-1073.7"/>
<text text-anchor="start" x="244" y="-1081.4" font-family="Helvetica,sans-Serif" font-size="11.00" fill="#000000">int4[10]</text>
<polygon fill="none" stroke="#000000" points="10,-1051.7 10,-1073.7 241,-1073.7 241,-1051.7 10,-1051.7"/>
<text text-anchor="start" x="30" y="-1058.8" font-family="Helvetica,sans-Serif" font-size="11.00" fill="#000000">name</text>
<polygon fill="none" stroke="#000000" points="241,-1051.7 241,-1073.7 444,-1073.7 444,-1051.7 241,-1051.7"/>
<text text-anchor="start" x="244" y="-1059.4" font-family="Helvetica,sans-Serif" font-size="11.00" fill="#000000">varchar[24]</text>
<polygon fill="none" stroke="#000000" points="10,-1029.7 10,-1051.7 241,-1051.7 241,-1029.7 10,-1029.7"/>
<text text-anchor="start" x="30" y="-1036.8" font-family="Helvetica,sans-Serif" font-size="11.00" fill="#000000">area_ha</text>
<polygon fill="none" stroke="#000000" points="241,-1029.7 241,-1051.7 444,-1051.7 444,-1029.7 241,-1029.7"/>
<text text-anchor="start" x="244" y="-1037.4" font-family="Helvetica,sans-Serif" font-size="11.00" fill="#000000">float4[8,8]</text>
<polygon fill="none" stroke="#000000" points="10,-1007.7 10,-1029.7 241,-1029.7 241,-1007.7 10,-1007.7"/>
<text text-anchor="start" x="30" y="-1014.8" font-family="Helvetica,sans-Serif" font-size="11.00" fill="#000000">rl</text>
<polygon fill="none" stroke="#000000" points="241,-1007.7 241,-1029.7 444,-1029.7 444,-1007.7 241,-1007.7"/>
<text text-anchor="start" x="244" y="-1015.4" font-family="Helvetica,sans-Serif" font-size="11.00" fill="#000000">float4[8,8]</text>
<polygon fill="none" stroke="#000000" points="10,-985.7 10,-1007.7 241,-1007.7 241,-985.7 10,-985.7"/>
<text text-anchor="start" x="30" y="-992.8" font-family="Helvetica,sans-Serif" font-size="11.00" fill="#000000">slope</text>
<polygon fill="none" stroke="#000000" points="241,-985.7 241,-1007.7 444,-1007.7 444,-985.7 241,-985.7"/>
<text text-anchor="start" x="244" y="-993.4" font-family="Helvetica,sans-Serif" font-size="11.00" fill="#000000">float4[8,8]</text>
<polygon fill="none" stroke="#000000" points="10,-963.7 10,-985.7 241,-985.7 241,-963.7 10,-963.7"/>
<text text-anchor="start" x="30" y="-970.8" font-family="Helvetica,sans-Serif" font-size="11.00" fill="#000000">c_imp</text>
<polygon fill="none" stroke="#000000" points="241,-963.7 241,-985.7 444,-985.7 444,-963.7 241,-963.7"/>
<text text-anchor="start" x="244" y="-971.4" font-family="Helvetica,sans-Serif" font-size="11.00" fill="#000000">float4[8,8]</text>
<polygon fill="none" stroke="#000000" points="10,-941.7 10,-963.7 241,-963.7 241,-941.7 10,-941.7"/>
<text text-anchor="start" x="30" y="-948.8" font-family="Helvetica,sans-Serif" font-size="11.00" fill="#000000">netflow_type</text>
<polygon fill="none" stroke="#000000" points="241,-941.7 241,-963.7 444,-963.7 444,-941.7 241,-941.7"/>
<text text-anchor="start" x="244" y="-949.4" font-family="Helvetica,sans-Serif" font-size="11.00" fill="#000000">hydra_netflow_type[2147483647]</text>
<polygon fill="none" stroke="#000000" points="10,-919.7 10,-941.7 241,-941.7 241,-919.7 10,-919.7"/>
<text text-anchor="start" x="30" y="-926.8" font-family="Helvetica,sans-Serif" font-size="11.00" fill="#000000">constant_runoff</text>
<polygon fill="none" stroke="#000000" points="241,-919.7 241,-941.7 444,-941.7 444,-919.7 241,-919.7"/>
<text text-anchor="start" x="244" y="-927.4" font-family="Helvetica,sans-Serif" font-size="11.00" fill="#000000">float4[8,8]</text>
<polygon fill="none" stroke="#000000" points="10,-897.7 10,-919.7 241,-919.7 241,-897.7 10,-897.7"/>
<text text-anchor="start" x="30" y="-904.8" font-family="Helvetica,sans-Serif" font-size="11.00" fill="#000000">horner_ini_loss_coef</text>
<polygon fill="none" stroke="#000000" points="241,-897.7 241,-919.7 444,-919.7 444,-897.7 241,-897.7"/>
<text text-anchor="start" x="244" y="-905.4" font-family="Helvetica,sans-Serif" font-size="11.00" fill="#000000">float4[8,8]</text>
<polygon fill="none" stroke="#000000" points="10,-875.7 10,-897.7 241,-897.7 241,-875.7 10,-875.7"/>
<text text-anchor="start" x="30" y="-882.8" font-family="Helvetica,sans-Serif" font-size="11.00" fill="#000000">horner_recharge_coef</text>
<polygon fill="none" stroke="#000000" points="241,-875.7 241,-897.7 444,-897.7 444,-875.7 241,-875.7"/>
<text text-anchor="start" x="244" y="-883.4" font-family="Helvetica,sans-Serif" font-size="11.00" fill="#000000">float4[8,8]</text>
<polygon fill="none" stroke="#000000" points="10,-853.7 10,-875.7 241,-875.7 241,-853.7 10,-853.7"/>
<text text-anchor="start" x="30" y="-860.8" font-family="Helvetica,sans-Serif" font-size="11.00" fill="#000000">holtan_sat_inf_rate_mmh</text>
<polygon fill="none" stroke="#000000" points="241,-853.7 241,-875.7 444,-875.7 444,-853.7 241,-853.7"/>
<text text-anchor="start" x="244" y="-861.4" font-family="Helvetica,sans-Serif" font-size="11.00" fill="#000000">float4[8,8]</text>
<polygon fill="none" stroke="#000000" points="10,-831.7 10,-853.7 241,-853.7 241,-831.7 10,-831.7"/>
<text text-anchor="start" x="30" y="-838.8" font-family="Helvetica,sans-Serif" font-size="11.00" fill="#000000">holtan_dry_inf_rate_mmh</text>
<polygon fill="none" stroke="#000000" points="241,-831.7 241,-853.7 444,-853.7 444,-831.7 241,-831.7"/>
<text text-anchor="start" x="244" y="-839.4" font-family="Helvetica,sans-Serif" font-size="11.00" fill="#000000">float4[8,8]</text>
<polygon fill="none" stroke="#000000" points="10,-809.7 10,-831.7 241,-831.7 241,-809.7 10,-809.7"/>
<text text-anchor="start" x="30" y="-816.8" font-family="Helvetica,sans-Serif" font-size="11.00" fill="#000000">holtan_soil_storage_cap_mm</text>
<polygon fill="none" stroke="#000000" points="241,-809.7 241,-831.7 444,-831.7 444,-809.7 241,-809.7"/>
<text text-anchor="start" x="244" y="-817.4" font-family="Helvetica,sans-Serif" font-size="11.00" fill="#000000">float4[8,8]</text>
<polygon fill="none" stroke="#000000" points="10,-787.7 10,-809.7 241,-809.7 241,-787.7 10,-787.7"/>
<text text-anchor="start" x="30" y="-794.8" font-family="Helvetica,sans-Serif" font-size="11.00" fill="#000000">scs_j_mm</text>
<polygon fill="none" stroke="#000000" points="241,-787.7 241,-809.7 444,-809.7 444,-787.7 241,-787.7"/>
<text text-anchor="start" x="244" y="-795.4" font-family="Helvetica,sans-Serif" font-size="11.00" fill="#000000">float4[8,8]</text>
<polygon fill="none" stroke="#000000" points="10,-765.7 10,-787.7 241,-787.7 241,-765.7 10,-765.7"/>
<text text-anchor="start" x="30" y="-772.8" font-family="Helvetica,sans-Serif" font-size="11.00" fill="#000000">scs_soil_drainage_time_day</text>
<polygon fill="none" stroke="#000000" points="241,-765.7 241,-787.7 444,-787.7 444,-765.7 241,-765.7"/>
<text text-anchor="start" x="244" y="-773.4" font-family="Helvetica,sans-Serif" font-size="11.00" fill="#000000">float4[8,8]</text>
<polygon fill="none" stroke="#000000" points="10,-743.7 10,-765.7 241,-765.7 241,-743.7 10,-743.7"/>
<text text-anchor="start" x="30" y="-750.8" font-family="Helvetica,sans-Serif" font-size="11.00" fill="#000000">scs_rfu_mm</text>
<polygon fill="none" stroke="#000000" points="241,-743.7 241,-765.7 444,-765.7 444,-743.7 241,-743.7"/>
<text text-anchor="start" x="244" y="-751.4" font-family="Helvetica,sans-Serif" font-size="11.00" fill="#000000">float4[8,8]</text>
<polygon fill="none" stroke="#000000" points="10,-721.7 10,-743.7 241,-743.7 241,-721.7 10,-721.7"/>
<text text-anchor="start" x="30" y="-728.8" font-family="Helvetica,sans-Serif" font-size="11.00" fill="#000000">hydra_surface_soil_storage_rfu_mm</text>
<polygon fill="none" stroke="#000000" points="241,-721.7 241,-743.7 444,-743.7 444,-721.7 241,-721.7"/>
<text text-anchor="start" x="244" y="-729.4" font-family="Helvetica,sans-Serif" font-size="11.00" fill="#000000">float4[8,8]</text>
<polygon fill="none" stroke="#000000" points="10,-699.7 10,-721.7 241,-721.7 241,-699.7 10,-699.7"/>
<text text-anchor="start" x="30" y="-706.8" font-family="Helvetica,sans-Serif" font-size="11.00" fill="#000000">hydra_inf_rate_f0_mm_hr</text>
<polygon fill="none" stroke="#000000" points="241,-699.7 241,-721.7 444,-721.7 444,-699.7 241,-699.7"/>
<text text-anchor="start" x="244" y="-707.4" font-family="Helvetica,sans-Serif" font-size="11.00" fill="#000000">float4[8,8]</text>
<polygon fill="none" stroke="#000000" points="10,-677.7 10,-699.7 241,-699.7 241,-677.7 10,-677.7"/>
<text text-anchor="start" x="30" y="-684.8" font-family="Helvetica,sans-Serif" font-size="11.00" fill="#000000">hydra_int_soil_storage_j_mm</text>
<polygon fill="none" stroke="#000000" points="241,-677.7 241,-699.7 444,-699.7 444,-677.7 241,-677.7"/>
<text text-anchor="start" x="244" y="-685.4" font-family="Helvetica,sans-Serif" font-size="11.00" fill="#000000">float4[8,8]</text>
<polygon fill="none" stroke="#000000" points="10,-655.7 10,-677.7 241,-677.7 241,-655.7 10,-655.7"/>
<text text-anchor="start" x="30" y="-662.8" font-family="Helvetica,sans-Serif" font-size="11.00" fill="#000000">hydra_soil_drainage_time_qres_day</text>
<polygon fill="none" stroke="#000000" points="241,-655.7 241,-677.7 444,-677.7 444,-655.7 241,-655.7"/>
<text text-anchor="start" x="244" y="-663.4" font-family="Helvetica,sans-Serif" font-size="11.00" fill="#000000">float4[8,8]</text>
<polygon fill="none" stroke="#000000" points="10,-633.7 10,-655.7 241,-655.7 241,-633.7 10,-633.7"/>
<text text-anchor="start" x="30" y="-640.8" font-family="Helvetica,sans-Serif" font-size="11.00" fill="#000000">hydra_split_coefficient</text>
<polygon fill="none" stroke="#000000" points="241,-633.7 241,-655.7 444,-655.7 444,-633.7 241,-633.7"/>
<text text-anchor="start" x="244" y="-641.4" font-family="Helvetica,sans-Serif" font-size="11.00" fill="#000000">float4[8,8]</text>
<polygon fill="none" stroke="#000000" points="10,-611.7 10,-633.7 241,-633.7 241,-611.7 10,-611.7"/>
<text text-anchor="start" x="30" y="-618.8" font-family="Helvetica,sans-Serif" font-size="11.00" fill="#000000">hydra_catchment_connect_coef</text>
<polygon fill="none" stroke="#000000" points="241,-611.7 241,-633.7 444,-633.7 444,-611.7 241,-611.7"/>
<text text-anchor="start" x="244" y="-619.4" font-family="Helvetica,sans-Serif" font-size="11.00" fill="#000000">float4[8,8]</text>
<polygon fill="none" stroke="#000000" points="10,-589.7 10,-611.7 241,-611.7 241,-589.7 10,-589.7"/>
<text text-anchor="start" x="30" y="-596.8" font-family="Helvetica,sans-Serif" font-size="11.00" fill="#000000">hydra_aquifer_infiltration_rate</text>
<polygon fill="none" stroke="#000000" points="241,-589.7 241,-611.7 444,-611.7 444,-589.7 241,-589.7"/>
<text text-anchor="start" x="244" y="-597.4" font-family="Helvetica,sans-Serif" font-size="11.00" fill="#000000">float4[8,8]</text>
<polygon fill="none" stroke="#000000" points="10,-567.7 10,-589.7 241,-589.7 241,-567.7 10,-567.7"/>
<text text-anchor="start" x="30" y="-574.8" font-family="Helvetica,sans-Serif" font-size="11.00" fill="#000000">hydra_soil_infiltration_type</text>
<polygon fill="none" stroke="#000000" points="241,-567.7 241,-589.7 444,-589.7 444,-567.7 241,-567.7"/>
<text text-anchor="start" x="243.7734" y="-575.4" font-family="Helvetica,sans-Serif" font-size="11.00" fill="#000000">hydra_soil_infiltration_type[2147483647]</text>
<polygon fill="none" stroke="#000000" points="10,-545.7 10,-567.7 241,-567.7 241,-545.7 10,-545.7"/>
<text text-anchor="start" x="30" y="-552.8" font-family="Helvetica,sans-Serif" font-size="11.00" fill="#000000">gr4_k1</text>
<polygon fill="none" stroke="#000000" points="241,-545.7 241,-567.7 444,-567.7 444,-545.7 241,-545.7"/>
<text text-anchor="start" x="244" y="-553.4" font-family="Helvetica,sans-Serif" font-size="11.00" fill="#000000">float4[8,8]</text>
<polygon fill="none" stroke="#000000" points="10,-523.7 10,-545.7 241,-545.7 241,-523.7 10,-523.7"/>
<text text-anchor="start" x="30" y="-530.8" font-family="Helvetica,sans-Serif" font-size="11.00" fill="#000000">gr4_k2</text>
<polygon fill="none" stroke="#000000" points="241,-523.7 241,-545.7 444,-545.7 444,-523.7 241,-523.7"/>
<text text-anchor="start" x="244" y="-531.4" font-family="Helvetica,sans-Serif" font-size="11.00" fill="#000000">float4[8,8]</text>
<polygon fill="none" stroke="#000000" points="10,-501.7 10,-523.7 241,-523.7 241,-501.7 10,-501.7"/>
<text text-anchor="start" x="30" y="-508.8" font-family="Helvetica,sans-Serif" font-size="11.00" fill="#000000">gr4_k3</text>
<polygon fill="none" stroke="#000000" points="241,-501.7 241,-523.7 444,-523.7 444,-501.7 241,-501.7"/>
<text text-anchor="start" x="244" y="-509.4" font-family="Helvetica,sans-Serif" font-size="11.00" fill="#000000">float4[8,8]</text>
<polygon fill="none" stroke="#000000" points="10,-479.7 10,-501.7 241,-501.7 241,-479.7 10,-479.7"/>
<text text-anchor="start" x="30" y="-486.8" font-family="Helvetica,sans-Serif" font-size="11.00" fill="#000000">gr4_k4</text>
<polygon fill="none" stroke="#000000" points="241,-479.7 241,-501.7 444,-501.7 444,-479.7 241,-479.7"/>
<text text-anchor="start" x="244" y="-487.4" font-family="Helvetica,sans-Serif" font-size="11.00" fill="#000000">float4[8,8]</text>
<polygon fill="none" stroke="#000000" points="10,-457.7 10,-479.7 241,-479.7 241,-457.7 10,-457.7"/>
<text text-anchor="start" x="30" y="-464.8" font-family="Helvetica,sans-Serif" font-size="11.00" fill="#000000">runoff_type</text>
<polygon fill="none" stroke="#000000" points="241,-457.7 241,-479.7 444,-479.7 444,-457.7 241,-457.7"/>
<text text-anchor="start" x="244" y="-465.4" font-family="Helvetica,sans-Serif" font-size="11.00" fill="#000000">hydra_runoff_type[2147483647]</text>
<polygon fill="none" stroke="#000000" points="10,-435.7 10,-457.7 241,-457.7 241,-435.7 10,-435.7"/>
<text text-anchor="start" x="30" y="-442.8" font-family="Helvetica,sans-Serif" font-size="11.00" fill="#000000">socose_tc_mn</text>
<polygon fill="none" stroke="#000000" points="241,-435.7 241,-457.7 444,-457.7 444,-435.7 241,-435.7"/>
<text text-anchor="start" x="244" y="-443.4" font-family="Helvetica,sans-Serif" font-size="11.00" fill="#000000">float4[8,8]</text>
<polygon fill="none" stroke="#000000" points="10,-413.7 10,-435.7 241,-435.7 241,-413.7 10,-413.7"/>
<text text-anchor="start" x="30" y="-420.8" font-family="Helvetica,sans-Serif" font-size="11.00" fill="#000000">socose_shape_param_beta</text>
<polygon fill="none" stroke="#000000" points="241,-413.7 241,-435.7 444,-435.7 444,-413.7 241,-413.7"/>
<text text-anchor="start" x="244" y="-421.4" font-family="Helvetica,sans-Serif" font-size="11.00" fill="#000000">float4[8,8]</text>
<polygon fill="none" stroke="#000000" points="10,-391.7 10,-413.7 241,-413.7 241,-391.7 10,-391.7"/>
<text text-anchor="start" x="30" y="-398.8" font-family="Helvetica,sans-Serif" font-size="11.00" fill="#000000">define_k_mn</text>
<polygon fill="none" stroke="#000000" points="241,-391.7 241,-413.7 444,-413.7 444,-391.7 241,-391.7"/>
<text text-anchor="start" x="244" y="-399.4" font-family="Helvetica,sans-Serif" font-size="11.00" fill="#000000">float4[8,8]</text>
<polygon fill="none" stroke="#000000" points="10,-369.7 10,-391.7 241,-391.7 241,-369.7 10,-369.7"/>
<text text-anchor="start" x="30" y="-376.8" font-family="Helvetica,sans-Serif" font-size="11.00" fill="#000000">q_limit</text>
<polygon fill="none" stroke="#000000" points="241,-369.7 241,-391.7 444,-391.7 444,-369.7 241,-369.7"/>
<text text-anchor="start" x="244" y="-377.4" font-family="Helvetica,sans-Serif" font-size="11.00" fill="#000000">float4[8,8]</text>
<polygon fill="none" stroke="#000000" points="10,-347.7 10,-369.7 241,-369.7 241,-347.7 10,-347.7"/>
<text text-anchor="start" x="30" y="-354.8" font-family="Helvetica,sans-Serif" font-size="11.00" fill="#000000">q0</text>
<polygon fill="none" stroke="#000000" points="241,-347.7 241,-369.7 444,-369.7 444,-347.7 241,-347.7"/>
<text text-anchor="start" x="244" y="-355.4" font-family="Helvetica,sans-Serif" font-size="11.00" fill="#000000">float4[8,8]</text>
<polygon fill="none" stroke="#000000" points="10,-325.7 10,-347.7 241,-347.7 241,-325.7 10,-325.7"/>
<text text-anchor="start" x="30" y="-332.8" font-family="Helvetica,sans-Serif" font-size="11.00" fill="#000000">contour</text>
<polygon fill="none" stroke="#000000" points="241,-325.7 241,-347.7 444,-347.7 444,-325.7 241,-325.7"/>
<text text-anchor="start" x="244" y="-333.4" font-family="Helvetica,sans-Serif" font-size="11.00" fill="#000000">int4[10]</text>
<polygon fill="none" stroke="#000000" points="10,-303.7 10,-325.7 241,-325.7 241,-303.7 10,-303.7"/>
<text text-anchor="start" x="30" y="-310.8" font-family="Helvetica,sans-Serif" font-size="11.00" fill="#000000">network_type</text>
<polygon fill="none" stroke="#000000" points="241,-303.7 241,-325.7 444,-325.7 444,-303.7 241,-303.7"/>
<text text-anchor="start" x="244" y="-311.4" font-family="Helvetica,sans-Serif" font-size="11.00" fill="#000000">hydra_network_type[2147483647]</text>
<polygon fill="none" stroke="#000000" points="10,-281.7 10,-303.7 241,-303.7 241,-281.7 10,-281.7"/>
<text text-anchor="start" x="30" y="-288.8" font-family="Helvetica,sans-Serif" font-size="11.00" fill="#000000">rural_land_use</text>
<polygon fill="none" stroke="#000000" points="241,-281.7 241,-303.7 444,-303.7 444,-281.7 241,-281.7"/>
<text text-anchor="start" x="244" y="-289.4" font-family="Helvetica,sans-Serif" font-size="11.00" fill="#000000">float4[8,8]</text>
<polygon fill="none" stroke="#000000" points="10,-259.7 10,-281.7 241,-281.7 241,-259.7 10,-259.7"/>
<text text-anchor="start" x="30" y="-266.8" font-family="Helvetica,sans-Serif" font-size="11.00" fill="#000000">industrial_land_use</text>
<polygon fill="none" stroke="#000000" points="241,-259.7 241,-281.7 444,-281.7 444,-259.7 241,-259.7"/>
<text text-anchor="start" x="244" y="-267.4" font-family="Helvetica,sans-Serif" font-size="11.00" fill="#000000">float4[8,8]</text>
<polygon fill="none" stroke="#000000" points="10,-237.7 10,-259.7 241,-259.7 241,-237.7 10,-237.7"/>
<text text-anchor="start" x="30" y="-244.8" font-family="Helvetica,sans-Serif" font-size="11.00" fill="#000000">suburban_housing_land_use</text>
<polygon fill="none" stroke="#000000" points="241,-237.7 241,-259.7 444,-259.7 444,-237.7 241,-237.7"/>
<text text-anchor="start" x="244" y="-245.4" font-family="Helvetica,sans-Serif" font-size="11.00" fill="#000000">float4[8,8]</text>
<polygon fill="none" stroke="#000000" points="10,-215.7 10,-237.7 241,-237.7 241,-215.7 10,-215.7"/>
<text text-anchor="start" x="30" y="-222.8" font-family="Helvetica,sans-Serif" font-size="11.00" fill="#000000">dense_housing_land_use</text>
<polygon fill="none" stroke="#000000" points="241,-215.7 241,-237.7 444,-237.7 444,-215.7 241,-215.7"/>
<text text-anchor="start" x="244" y="-223.4" font-family="Helvetica,sans-Serif" font-size="11.00" fill="#000000">float4[8,8]</text>
<polygon fill="none" stroke="#000000" points="10,-193.7 10,-215.7 241,-215.7 241,-193.7 10,-193.7"/>
<text text-anchor="start" x="30" y="-200.8" font-family="Helvetica,sans-Serif" font-size="11.00" fill="#000000">_k_mn</text>
<polygon fill="none" stroke="#000000" points="241,-193.7 241,-215.7 444,-215.7 444,-193.7 241,-193.7"/>
<text text-anchor="start" x="244" y="-201.4" font-family="Helvetica,sans-Serif" font-size="11.00" fill="#000000">float8[17,17]</text>
<polygon fill="none" stroke="#000000" points="10,-171.7 10,-193.7 241,-193.7 241,-171.7 10,-171.7"/>
<text text-anchor="start" x="30" y="-178.8" font-family="Helvetica,sans-Serif" font-size="11.00" fill="#000000">_tc_mn</text>
<polygon fill="none" stroke="#000000" points="241,-171.7 241,-193.7 444,-193.7 444,-171.7 241,-171.7"/>
<text text-anchor="start" x="244" y="-179.4" font-family="Helvetica,sans-Serif" font-size="11.00" fill="#000000">float8[17,17]</text>
<polygon fill="none" stroke="#000000" points="10,-149.7 10,-171.7 241,-171.7 241,-149.7 10,-149.7"/>
<text text-anchor="start" x="30" y="-156.8" font-family="Helvetica,sans-Serif" font-size="11.00" fill="#000000">geom</text>
<polygon fill="none" stroke="#000000" points="241,-149.7 241,-171.7 444,-171.7 444,-149.7 241,-149.7"/>
<text text-anchor="start" x="244" y="-157.4" font-family="Helvetica,sans-Serif" font-size="11.00" fill="#000000">geometry[2147483647]</text>
<polygon fill="none" stroke="#000000" points="10,-127.7 10,-149.7 241,-149.7 241,-127.7 10,-127.7"/>
<text text-anchor="start" x="30" y="-134.8" font-family="Helvetica,sans-Serif" font-size="11.00" fill="#000000">configuration</text>
<polygon fill="none" stroke="#000000" points="241,-127.7 241,-149.7 444,-149.7 444,-127.7 241,-127.7"/>
<text text-anchor="start" x="244" y="-135.4" font-family="Helvetica,sans-Serif" font-size="11.00" fill="#000000">varchar[2147483647]</text>
<polygon fill="none" stroke="#000000" points="10,-105.7 10,-127.7 241,-127.7 241,-105.7 10,-105.7"/>
<text text-anchor="start" x="30" y="-112.8" font-family="Helvetica,sans-Serif" font-size="11.00" fill="#000000">generated</text>
<polygon fill="none" stroke="#000000" points="241,-105.7 241,-127.7 444,-127.7 444,-105.7 241,-105.7"/>
<text text-anchor="start" x="244" y="-113.4" font-family="Helvetica,sans-Serif" font-size="11.00" fill="#000000">int4[10]</text>
<polygon fill="none" stroke="#000000" points="10,-83.7 10,-105.7 241,-105.7 241,-83.7 10,-83.7"/>
<text text-anchor="start" x="30" y="-90.8" font-family="Helvetica,sans-Serif" font-size="11.00" fill="#000000">validity</text>
<polygon fill="none" stroke="#000000" points="241,-83.7 241,-105.7 444,-105.7 444,-83.7 241,-83.7"/>
<text text-anchor="start" x="244" y="-91.4" font-family="Helvetica,sans-Serif" font-size="11.00" fill="#000000">bool[1]</text>
<polygon fill="none" stroke="#000000" points="10,-61.7 10,-83.7 241,-83.7 241,-61.7 10,-61.7"/>
<text text-anchor="start" x="30" y="-68.8" font-family="Helvetica,sans-Serif" font-size="11.00" fill="#000000">configuration_json</text>
<polygon fill="none" stroke="#000000" points="241,-61.7 241,-83.7 444,-83.7 444,-61.7 241,-61.7"/>
<text text-anchor="start" x="244" y="-69.4" font-family="Helvetica,sans-Serif" font-size="11.00" fill="#000000">json[2147483647]</text>
<polygon fill="none" stroke="#000000" points="10,-39.7 10,-61.7 241,-61.7 241,-39.7 10,-39.7"/>
<text text-anchor="start" x="30" y="-46.8" font-family="Helvetica,sans-Serif" font-size="11.00" fill="#000000">comment</text>
<polygon fill="none" stroke="#000000" points="241,-39.7 241,-61.7 444,-61.7 444,-39.7 241,-39.7"/>
<text text-anchor="start" x="244" y="-47.4" font-family="Helvetica,sans-Serif" font-size="11.00" fill="#000000">varchar[2147483647]</text>
<polygon fill="none" stroke="#000000" stroke-width="2" points="9,-39.2 9,-1120.2 445,-1120.2 445,-39.2 9,-39.2"/>
</a>
</g>
</g>
</g>
</svg>
