<?xml version="1.0" encoding="UTF-8" standalone="no"?>
<!DOCTYPE svg PUBLIC "-//W3C//DTD SVG 1.1//EN"
 "http://www.w3.org/Graphics/SVG/1.1/DTD/svg11.dtd">
<!-- Generated by graphviz version 2.40.1 (20161225.0304)
 -->
<!-- Title: oneDegreeRelationshipsDiagram Pages: 1 -->
<svg width="508pt" height="205pt"
 viewBox="0.00 0.00 508.00 204.70" xmlns="http://www.w3.org/2000/svg" xmlns:xlink="http://www.w3.org/1999/xlink">
<g id="graph0" class="graph" transform="scale(1 1) rotate(0) translate(4 200.7)">
<title>oneDegreeRelationshipsDiagram</title>
<polygon fill="#ffffff" stroke="transparent" points="-4,4 -4,-200.7 504,-200.7 504,4 -4,4"/>
<text text-anchor="middle" x="72.4936" y="-7.3" font-family="Helvetica,sans-Serif" font-size="11.00" fill="#000000">Generated by SchemaSpy</text>
<!-- _catchment_node -->
<g id="node1" class="node">
<title>_catchment_node</title>
<g id="a_node1"><a xlink:href="../../tables/_catchment_node.html" xlink:title="_catchment_node" target="_top">
<polygon fill="#ffffff" stroke="transparent" points="261,-65.7 261,-192.7 492,-192.7 492,-65.7 261,-65.7"/>
<polygon fill="#f5f5f5" stroke="transparent" points="261.5,-169.2 261.5,-192.2 492.5,-192.2 492.5,-169.2 261.5,-169.2"/>
<polygon fill="none" stroke="#000000" points="261.5,-169.2 261.5,-192.2 492.5,-192.2 492.5,-169.2 261.5,-169.2"/>
<text text-anchor="start" x="266.5" y="-177.8" font-family="Helvetica,sans-Serif" font-weight="bold" font-size="11.00" fill="#000000">_catchment_node</text>
<text text-anchor="start" x="457.5437" y="-177.3" font-family="Helvetica,sans-Serif" font-size="11.00" fill="#000000">[table]</text>
<polygon fill="#ffffff" stroke="transparent" points="261.5,-147.2 261.5,-169.2 492.5,-169.2 492.5,-147.2 261.5,-147.2"/>
<polygon fill="none" stroke="#000000" points="261.5,-147.2 261.5,-169.2 492.5,-169.2 492.5,-147.2 261.5,-147.2"/>
<image xlink:href="../../images/foreignKeys.png" width="11px" height="12px" preserveAspectRatio="xMinYMin meet" x="266.5" y="-164.2"/>
<text text-anchor="start" x="281.5" y="-154.3" font-family="Helvetica,sans-Serif" font-size="11.00" fill="#000000">id</text>
<polygon fill="none" stroke="#000000" points="261.5,-125.2 261.5,-147.2 492.5,-147.2 492.5,-125.2 261.5,-125.2"/>
<image xlink:href="../../images/foreignKeys.png" width="11px" height="12px" preserveAspectRatio="xMinYMin meet" x="266.5" y="-142.2"/>
<text text-anchor="start" x="281.5" y="-132.3" font-family="Helvetica,sans-Serif" font-size="11.00" fill="#000000">node_type</text>
<polygon fill="none" stroke="#000000" points="261.5,-103.2 261.5,-125.2 492.5,-125.2 492.5,-103.2 261.5,-103.2"/>
<image xlink:href="../../images/foreignKeys.png" width="11px" height="12px" preserveAspectRatio="xMinYMin meet" x="266.5" y="-120.2"/>
<text text-anchor="start" x="281.5" y="-110.3" font-family="Helvetica,sans-Serif" font-size="11.00" fill="#000000">contour</text>
<polygon fill="none" stroke="#000000" points="261.5,-84.2 261.5,-103.2 492.5,-103.2 492.5,-84.2 261.5,-84.2"/>
<text text-anchor="start" x="264.5" y="-90.3" font-family="Helvetica,sans-Serif" font-size="11.00" fill="#000000">...</text>
<polygon fill="#ffffff" stroke="transparent" points="261.5,-65.2 261.5,-84.2 362.5,-84.2 362.5,-65.2 261.5,-65.2"/>
<polygon fill="none" stroke="#000000" points="261.5,-65.2 261.5,-84.2 362.5,-84.2 362.5,-65.2 261.5,-65.2"/>
<text text-anchor="start" x="264.5" y="-71.3" font-family="Helvetica,sans-Serif" font-size="11.00" fill="#000000">&lt; 3</text>
<polygon fill="#ffffff" stroke="transparent" points="362.5,-65.2 362.5,-84.2 440.5,-84.2 440.5,-65.2 362.5,-65.2"/>
<polygon fill="none" stroke="#000000" points="362.5,-65.2 362.5,-84.2 440.5,-84.2 440.5,-65.2 362.5,-65.2"/>
<text text-anchor="start" x="405.1105" y="-71.3" font-family="Helvetica,sans-Serif" font-size="11.00" fill="#000000">0 rows</text>
<polygon fill="#ffffff" stroke="transparent" points="440.5,-65.2 440.5,-84.2 492.5,-84.2 492.5,-65.2 440.5,-65.2"/>
<polygon fill="none" stroke="#000000" points="440.5,-65.2 440.5,-84.2 492.5,-84.2 492.5,-65.2 440.5,-65.2"/>
<text text-anchor="start" x="483.3862" y="-71.3" font-family="Helvetica,sans-Serif" font-size="11.00" fill="#000000"> &#160;</text>
</a>
</g>
</g>
<!-- catchment -->
<g id="node2" class="node">
<title>catchment</title>
<g id="a_node2"><a xlink:href="../../tables/catchment.html" xlink:title="catchment" target="_top">
<polygon fill="#ffffff" stroke="transparent" points="8,-38.2 8,-150.2 212,-150.2 212,-38.2 8,-38.2"/>
<polygon fill="#f5f5f5" stroke="transparent" points="10,-125.2 10,-148.2 210,-148.2 210,-125.2 10,-125.2"/>
<polygon fill="none" stroke="#000000" points="10,-125.2 10,-148.2 210,-148.2 210,-125.2 10,-125.2"/>
<text text-anchor="start" x="15" y="-133.8" font-family="Helvetica,sans-Serif" font-weight="bold" font-size="11.00" fill="#000000">catchment</text>
<text text-anchor="start" x="175.0437" y="-133.3" font-family="Helvetica,sans-Serif" font-size="11.00" fill="#000000">[table]</text>
<polygon fill="none" stroke="#000000" points="10,-103.2 10,-125.2 91,-125.2 91,-103.2 10,-103.2"/>
<image xlink:href="../../images/primaryKeys.png" width="11px" height="12px" preserveAspectRatio="xMinYMin meet" x="15" y="-120.2"/>
<text text-anchor="start" x="30" y="-110.3" font-family="Helvetica,sans-Serif" font-size="11.00" fill="#000000">id</text>
<polygon fill="none" stroke="#000000" points="91,-103.2 91,-125.2 210,-125.2 210,-103.2 91,-103.2"/>
<text text-anchor="start" x="94" y="-110.9" font-family="Helvetica,sans-Serif" font-size="11.00" fill="#000000">serial[10]</text>
<polygon fill="#ffffff" stroke="transparent" points="10,-81.2 10,-103.2 91,-103.2 91,-81.2 10,-81.2"/>
<polygon fill="none" stroke="#000000" points="10,-81.2 10,-103.2 91,-103.2 91,-81.2 10,-81.2"/>
<text text-anchor="start" x="30" y="-88.3" font-family="Helvetica,sans-Serif" font-size="11.00" fill="#000000">name</text>
<polygon fill="none" stroke="#000000" points="91,-81.2 91,-103.2 210,-103.2 210,-81.2 91,-81.2"/>
<text text-anchor="start" x="94" y="-88.9" font-family="Helvetica,sans-Serif" font-size="11.00" fill="#000000">varchar[16]</text>
<polygon fill="none" stroke="#000000" points="10,-59.2 10,-81.2 91,-81.2 91,-59.2 10,-59.2"/>
<text text-anchor="start" x="30" y="-66.3" font-family="Helvetica,sans-Serif" font-size="11.00" fill="#000000">geom</text>
<polygon fill="none" stroke="#000000" points="91,-59.2 91,-81.2 210,-81.2 210,-59.2 91,-59.2"/>
<text text-anchor="start" x="93.9485" y="-66.9" font-family="Helvetica,sans-Serif" font-size="11.00" fill="#000000">geometry[2147483647]</text>
<polygon fill="#ffffff" stroke="transparent" points="10,-40.2 10,-59.2 42,-59.2 42,-40.2 10,-40.2"/>
<polygon fill="none" stroke="#000000" points="10,-40.2 10,-59.2 42,-59.2 42,-40.2 10,-40.2"/>
<text text-anchor="start" x="13" y="-46.3" font-family="Helvetica,sans-Serif" font-size="11.00" fill="#000000">&lt; 0</text>
<polygon fill="#ffffff" stroke="transparent" points="42,-40.2 42,-59.2 91,-59.2 91,-40.2 42,-40.2"/>
<polygon fill="none" stroke="#000000" points="42,-40.2 42,-59.2 91,-59.2 91,-40.2 42,-40.2"/>
<text text-anchor="start" x="55.6105" y="-46.3" font-family="Helvetica,sans-Serif" font-size="11.00" fill="#000000">0 rows</text>
<polygon fill="#ffffff" stroke="transparent" points="91,-40.2 91,-59.2 210,-59.2 210,-40.2 91,-40.2"/>
<polygon fill="none" stroke="#000000" points="91,-40.2 91,-59.2 210,-59.2 210,-40.2 91,-40.2"/>
<text text-anchor="start" x="191.4053" y="-46.3" font-family="Helvetica,sans-Serif" font-size="11.00" fill="#000000">1 &gt;</text>
<polygon fill="none" stroke="#000000" stroke-width="2" points="9,-39.2 9,-149.2 211,-149.2 211,-39.2 9,-39.2"/>
</a>
</g>
</g>
<!-- _catchment_node&#45;&gt;catchment -->
<g id="edge1" class="edge">
<title>_catchment_node:w&#45;&gt;catchment:e</title>
<path fill="none" stroke="#000000" d="M247.0156,-114.2C234.6771,-114.2 227.1667,-114.2 210,-114.2"/>
<polygon fill="#000000" stroke="#000000" points="253.5,-114.2001 261.5,-117.8 257.5,-114.2 261.5,-114.2 261.5,-114.2 261.5,-114.2 257.5,-114.2 261.5,-110.6 253.5,-114.2001 253.5,-114.2001"/>
<ellipse fill="none" stroke="#000000" cx="250.3" cy="-114.2001" rx="3.2" ry="3.2"/>
</g>
</g>
</svg>
