<?xml version="1.0" encoding="UTF-8" standalone="no"?>
<!DOCTYPE svg PUBLIC "-//W3C//DTD SVG 1.1//EN"
 "http://www.w3.org/Graphics/SVG/1.1/DTD/svg11.dtd">
<!-- Generated by graphviz version 2.40.1 (20161225.0304)
 -->
<!-- Title: oneDegreeRelationshipsDiagram Pages: 1 -->
<svg width="527pt" height="523pt"
 viewBox="0.00 0.00 527.00 523.20" xmlns="http://www.w3.org/2000/svg" xmlns:xlink="http://www.w3.org/1999/xlink">
<g id="graph0" class="graph" transform="scale(1 1) rotate(0) translate(4 519.2)">
<title>oneDegreeRelationshipsDiagram</title>
<polygon fill="#ffffff" stroke="transparent" points="-4,4 -4,-519.2 523,-519.2 523,4 -4,4"/>
<text text-anchor="middle" x="72.4936" y="-7.3" font-family="Helvetica,sans-Serif" font-size="11.00" fill="#000000">Generated by SchemaSpy</text>
<!-- _pipe_link -->
<g id="node1" class="node">
<title>_pipe_link</title>
<g id="a_node1"><a xlink:href="../../tables/_pipe_link.html" xlink:title="_pipe_link" target="_top">
<polygon fill="#ffffff" stroke="transparent" points="335.5,-340.2 335.5,-511.2 484.5,-511.2 484.5,-340.2 335.5,-340.2"/>
<polygon fill="#f5f5f5" stroke="transparent" points="336,-487.7 336,-510.7 485,-510.7 485,-487.7 336,-487.7"/>
<polygon fill="none" stroke="#000000" points="336,-487.7 336,-510.7 485,-510.7 485,-487.7 336,-487.7"/>
<text text-anchor="start" x="341" y="-496.3" font-family="Helvetica,sans-Serif" font-weight="bold" font-size="11.00" fill="#000000">_pipe_link</text>
<text text-anchor="start" x="450.0437" y="-495.8" font-family="Helvetica,sans-Serif" font-size="11.00" fill="#000000">[table]</text>
<polygon fill="#ffffff" stroke="transparent" points="336,-465.7 336,-487.7 485,-487.7 485,-465.7 336,-465.7"/>
<polygon fill="none" stroke="#000000" points="336,-465.7 336,-487.7 485,-487.7 485,-465.7 336,-465.7"/>
<image xlink:href="../../images/foreignKeys.png" width="11px" height="12px" preserveAspectRatio="xMinYMin meet" x="341" y="-482.7"/>
<text text-anchor="start" x="356" y="-472.8" font-family="Helvetica,sans-Serif" font-size="11.00" fill="#000000">id</text>
<polygon fill="none" stroke="#000000" points="336,-443.7 336,-465.7 485,-465.7 485,-443.7 336,-443.7"/>
<image xlink:href="../../images/foreignKeys.png" width="11px" height="12px" preserveAspectRatio="xMinYMin meet" x="341" y="-460.7"/>
<text text-anchor="start" x="356" y="-450.8" font-family="Helvetica,sans-Serif" font-size="11.00" fill="#000000">link_type</text>
<polygon fill="none" stroke="#000000" points="336,-421.7 336,-443.7 485,-443.7 485,-421.7 336,-421.7"/>
<image xlink:href="../../images/foreignKeys.png" width="11px" height="12px" preserveAspectRatio="xMinYMin meet" x="341" y="-438.7"/>
<text text-anchor="start" x="356" y="-428.8" font-family="Helvetica,sans-Serif" font-size="11.00" fill="#000000">branch</text>
<polygon fill="none" stroke="#000000" points="336,-399.7 336,-421.7 485,-421.7 485,-399.7 336,-399.7"/>
<image xlink:href="../../images/foreignKeys.png" width="11px" height="12px" preserveAspectRatio="xMinYMin meet" x="341" y="-416.7"/>
<text text-anchor="start" x="356" y="-406.8" font-family="Helvetica,sans-Serif" font-size="11.00" fill="#000000">cp_geom</text>
<polygon fill="none" stroke="#000000" points="336,-377.7 336,-399.7 485,-399.7 485,-377.7 336,-377.7"/>
<image xlink:href="../../images/foreignKeys.png" width="11px" height="12px" preserveAspectRatio="xMinYMin meet" x="341" y="-394.7"/>
<text text-anchor="start" x="356" y="-384.8" font-family="Helvetica,sans-Serif" font-size="11.00" fill="#000000">op_geom</text>
<polygon fill="none" stroke="#000000" points="336,-358.7 336,-377.7 485,-377.7 485,-358.7 336,-358.7"/>
<text text-anchor="start" x="339" y="-364.8" font-family="Helvetica,sans-Serif" font-size="11.00" fill="#000000">...</text>
<polygon fill="#ffffff" stroke="transparent" points="336,-339.7 336,-358.7 396,-358.7 396,-339.7 336,-339.7"/>
<polygon fill="none" stroke="#000000" points="336,-339.7 336,-358.7 396,-358.7 396,-339.7 336,-339.7"/>
<text text-anchor="start" x="339" y="-345.8" font-family="Helvetica,sans-Serif" font-size="11.00" fill="#000000">&lt; 5</text>
<polygon fill="#ffffff" stroke="transparent" points="396,-339.7 396,-358.7 453,-358.7 453,-339.7 396,-339.7"/>
<polygon fill="none" stroke="#000000" points="396,-339.7 396,-358.7 453,-358.7 453,-339.7 396,-339.7"/>
<text text-anchor="start" x="417.6105" y="-345.8" font-family="Helvetica,sans-Serif" font-size="11.00" fill="#000000">0 rows</text>
<polygon fill="#ffffff" stroke="transparent" points="453,-339.7 453,-358.7 485,-358.7 485,-339.7 453,-339.7"/>
<polygon fill="none" stroke="#000000" points="453,-339.7 453,-358.7 485,-358.7 485,-339.7 453,-339.7"/>
<text text-anchor="start" x="475.8862" y="-345.8" font-family="Helvetica,sans-Serif" font-size="11.00" fill="#000000"> &#160;</text>
</a>
</g>
</g>
<!-- closed_parametric_geometry -->
<g id="node2" class="node">
<title>closed_parametric_geometry</title>
<g id="a_node2"><a xlink:href="../../tables/closed_parametric_geometry.html" xlink:title="closed_parametric_geometry" target="_top">
<polygon fill="#ffffff" stroke="transparent" points="8,-164.7 8,-276.7 260,-276.7 260,-164.7 8,-164.7"/>
<polygon fill="#f5f5f5" stroke="transparent" points="10,-251.7 10,-274.7 258,-274.7 258,-251.7 10,-251.7"/>
<polygon fill="none" stroke="#000000" points="10,-251.7 10,-274.7 258,-274.7 258,-251.7 10,-251.7"/>
<text text-anchor="start" x="15" y="-260.3" font-family="Helvetica,sans-Serif" font-weight="bold" font-size="11.00" fill="#000000">closed_parametric_geometry</text>
<text text-anchor="start" x="223.0437" y="-259.8" font-family="Helvetica,sans-Serif" font-size="11.00" fill="#000000">[table]</text>
<polygon fill="none" stroke="#000000" points="10,-229.7 10,-251.7 197,-251.7 197,-229.7 10,-229.7"/>
<image xlink:href="../../images/primaryKeys.png" width="11px" height="12px" preserveAspectRatio="xMinYMin meet" x="15" y="-246.7"/>
<text text-anchor="start" x="30" y="-236.8" font-family="Helvetica,sans-Serif" font-size="11.00" fill="#000000">id</text>
<polygon fill="none" stroke="#000000" points="197,-229.7 197,-251.7 258,-251.7 258,-229.7 197,-229.7"/>
<text text-anchor="start" x="200" y="-237.4" font-family="Helvetica,sans-Serif" font-size="11.00" fill="#000000">serial[10]</text>
<polygon fill="#ffffff" stroke="transparent" points="10,-207.7 10,-229.7 197,-229.7 197,-207.7 10,-207.7"/>
<polygon fill="none" stroke="#000000" points="10,-207.7 10,-229.7 197,-229.7 197,-207.7 10,-207.7"/>
<text text-anchor="start" x="30" y="-214.8" font-family="Helvetica,sans-Serif" font-size="11.00" fill="#000000">name</text>
<polygon fill="none" stroke="#000000" points="197,-207.7 197,-229.7 258,-229.7 258,-207.7 197,-207.7"/>
<text text-anchor="start" x="199.994" y="-215.4" font-family="Helvetica,sans-Serif" font-size="11.00" fill="#000000">varchar[24]</text>
<polygon fill="none" stroke="#000000" points="10,-185.7 10,-207.7 197,-207.7 197,-185.7 10,-185.7"/>
<text text-anchor="start" x="30" y="-192.8" font-family="Helvetica,sans-Serif" font-size="11.00" fill="#000000">zbmin_array</text>
<polygon fill="none" stroke="#000000" points="197,-185.7 197,-207.7 258,-207.7 258,-185.7 197,-185.7"/>
<text text-anchor="start" x="200" y="-193.4" font-family="Helvetica,sans-Serif" font-size="11.00" fill="#000000">_float4[8,8]</text>
<polygon fill="#ffffff" stroke="transparent" points="10,-166.7 10,-185.7 95,-185.7 95,-166.7 10,-166.7"/>
<polygon fill="none" stroke="#000000" points="10,-166.7 10,-185.7 95,-185.7 95,-166.7 10,-166.7"/>
<text text-anchor="start" x="13" y="-172.8" font-family="Helvetica,sans-Serif" font-size="11.00" fill="#000000">&lt; 0</text>
<polygon fill="#ffffff" stroke="transparent" points="95,-166.7 95,-185.7 197,-185.7 197,-166.7 95,-166.7"/>
<polygon fill="none" stroke="#000000" points="95,-166.7 95,-185.7 197,-185.7 197,-166.7 95,-166.7"/>
<text text-anchor="start" x="161.6105" y="-172.8" font-family="Helvetica,sans-Serif" font-size="11.00" fill="#000000">0 rows</text>
<polygon fill="#ffffff" stroke="transparent" points="197,-166.7 197,-185.7 258,-185.7 258,-166.7 197,-166.7"/>
<polygon fill="none" stroke="#000000" points="197,-166.7 197,-185.7 258,-185.7 258,-166.7 197,-166.7"/>
<text text-anchor="start" x="239.4053" y="-172.8" font-family="Helvetica,sans-Serif" font-size="11.00" fill="#000000">3 &gt;</text>
<polygon fill="none" stroke="#000000" stroke-width="2" points="9,-165.7 9,-275.7 259,-275.7 259,-165.7 9,-165.7"/>
</a>
</g>
</g>
<!-- _pipe_link&#45;&gt;closed_parametric_geometry -->
<g id="edge1" class="edge">
<title>_pipe_link:w&#45;&gt;closed_parametric_geometry:e</title>
<path fill="none" stroke="#000000" d="M321.6061,-408.5506C263.837,-388.8715 335.6087,-240.7 258,-240.7"/>
<polygon fill="#000000" stroke="#000000" points="328.0877,-409.5184 335.4683,-414.2605 332.0439,-410.1092 336,-410.7 336,-410.7 336,-410.7 332.0439,-410.1092 336.5317,-407.1395 328.0877,-409.5184 328.0877,-409.5184"/>
<ellipse fill="none" stroke="#000000" cx="324.9228" cy="-409.0458" rx="3.2" ry="3.2"/>
</g>
<!-- _river_cross_section_profile -->
<g id="node3" class="node">
<title>_river_cross_section_profile</title>
<g id="a_node3"><a xlink:href="../../tables/_river_cross_section_profile.html" xlink:title="_river_cross_section_profile" target="_top">
<polygon fill="#ffffff" stroke="transparent" points="309,-38.2 309,-319.2 511,-319.2 511,-38.2 309,-38.2"/>
<polygon fill="#f5f5f5" stroke="transparent" points="309,-295.7 309,-318.7 511,-318.7 511,-295.7 309,-295.7"/>
<polygon fill="none" stroke="#000000" points="309,-295.7 309,-318.7 511,-318.7 511,-295.7 309,-295.7"/>
<text text-anchor="start" x="314" y="-304.3" font-family="Helvetica,sans-Serif" font-weight="bold" font-size="11.00" fill="#000000">_river_cross_section_profile</text>
<text text-anchor="start" x="476.5219" y="-303.8" font-family="Helvetica,sans-Serif" font-size="11.00" fill="#000000">[table]</text>
<polygon fill="#ffffff" stroke="transparent" points="309,-273.7 309,-295.7 511,-295.7 511,-273.7 309,-273.7"/>
<polygon fill="none" stroke="#000000" points="309,-273.7 309,-295.7 511,-295.7 511,-273.7 309,-273.7"/>
<image xlink:href="../../images/foreignKeys.png" width="11px" height="12px" preserveAspectRatio="xMinYMin meet" x="314" y="-290.7"/>
<text text-anchor="start" x="337" y="-280.8" font-family="Helvetica,sans-Serif" font-size="11.00" fill="#000000">id</text>
<polygon fill="#ffffff" stroke="transparent" points="309,-251.7 309,-273.7 511,-273.7 511,-251.7 309,-251.7"/>
<polygon fill="none" stroke="#000000" points="309,-251.7 309,-273.7 511,-273.7 511,-251.7 309,-251.7"/>
<text text-anchor="start" x="337" y="-258.8" font-family="Helvetica,sans-Serif" font-size="11.00" fill="#000000">name</text>
<polygon fill="none" stroke="#000000" points="309,-229.7 309,-251.7 511,-251.7 511,-229.7 309,-229.7"/>
<image xlink:href="../../images/foreignKeys.png" width="11px" height="12px" preserveAspectRatio="xMinYMin meet" x="314" y="-246.7"/>
<text text-anchor="start" x="337" y="-236.8" font-family="Helvetica,sans-Serif" font-size="11.00" fill="#000000">up_cp_geom</text>
<polygon fill="none" stroke="#000000" points="309,-207.7 309,-229.7 511,-229.7 511,-207.7 309,-207.7"/>
<image xlink:href="../../images/foreignKeys.png" width="11px" height="12px" preserveAspectRatio="xMinYMin meet" x="314" y="-224.7"/>
<text text-anchor="start" x="337" y="-214.8" font-family="Helvetica,sans-Serif" font-size="11.00" fill="#000000">up_op_geom</text>
<polygon fill="none" stroke="#000000" points="309,-185.7 309,-207.7 511,-207.7 511,-185.7 309,-185.7"/>
<image xlink:href="../../images/foreignKeys.png" width="11px" height="12px" preserveAspectRatio="xMinYMin meet" x="314" y="-202.7"/>
<text text-anchor="start" x="337" y="-192.8" font-family="Helvetica,sans-Serif" font-size="11.00" fill="#000000">up_vcs_geom</text>
<polygon fill="none" stroke="#000000" points="309,-163.7 309,-185.7 511,-185.7 511,-163.7 309,-163.7"/>
<image xlink:href="../../images/foreignKeys.png" width="11px" height="12px" preserveAspectRatio="xMinYMin meet" x="314" y="-180.7"/>
<text text-anchor="start" x="337" y="-170.8" font-family="Helvetica,sans-Serif" font-size="11.00" fill="#000000">up_vcs_topo_geom</text>
<polygon fill="none" stroke="#000000" points="309,-141.7 309,-163.7 511,-163.7 511,-141.7 309,-141.7"/>
<image xlink:href="../../images/foreignKeys.png" width="11px" height="12px" preserveAspectRatio="xMinYMin meet" x="314" y="-158.7"/>
<text text-anchor="start" x="337" y="-148.8" font-family="Helvetica,sans-Serif" font-size="11.00" fill="#000000">down_cp_geom</text>
<polygon fill="none" stroke="#000000" points="309,-119.7 309,-141.7 511,-141.7 511,-119.7 309,-119.7"/>
<image xlink:href="../../images/foreignKeys.png" width="11px" height="12px" preserveAspectRatio="xMinYMin meet" x="314" y="-136.7"/>
<text text-anchor="start" x="337" y="-126.8" font-family="Helvetica,sans-Serif" font-size="11.00" fill="#000000">down_op_geom</text>
<polygon fill="none" stroke="#000000" points="309,-97.7 309,-119.7 511,-119.7 511,-97.7 309,-97.7"/>
<image xlink:href="../../images/foreignKeys.png" width="11px" height="12px" preserveAspectRatio="xMinYMin meet" x="314" y="-114.7"/>
<text text-anchor="start" x="337" y="-104.8" font-family="Helvetica,sans-Serif" font-size="11.00" fill="#000000">down_vcs_geom</text>
<polygon fill="none" stroke="#000000" points="309,-75.7 309,-97.7 511,-97.7 511,-75.7 309,-75.7"/>
<image xlink:href="../../images/foreignKeys.png" width="11px" height="12px" preserveAspectRatio="xMinYMin meet" x="314" y="-92.7"/>
<text text-anchor="start" x="337" y="-82.8" font-family="Helvetica,sans-Serif" font-size="11.00" fill="#000000">down_vcs_topo_geom</text>
<polygon fill="none" stroke="#000000" points="309,-56.7 309,-75.7 511,-75.7 511,-56.7 309,-56.7"/>
<text text-anchor="start" x="312" y="-62.8" font-family="Helvetica,sans-Serif" font-size="11.00" fill="#000000">...</text>
<polygon fill="#ffffff" stroke="transparent" points="309,-37.7 309,-56.7 395,-56.7 395,-37.7 309,-37.7"/>
<polygon fill="none" stroke="#000000" points="309,-37.7 309,-56.7 395,-56.7 395,-37.7 309,-37.7"/>
<text text-anchor="start" x="312" y="-43.8" font-family="Helvetica,sans-Serif" font-size="11.00" fill="#000000">&lt; 9</text>
<polygon fill="#ffffff" stroke="transparent" points="395,-37.7 395,-56.7 466,-56.7 466,-37.7 395,-37.7"/>
<polygon fill="none" stroke="#000000" points="395,-37.7 395,-56.7 466,-56.7 466,-37.7 395,-37.7"/>
<text text-anchor="start" x="430.6105" y="-43.8" font-family="Helvetica,sans-Serif" font-size="11.00" fill="#000000">0 rows</text>
<polygon fill="#ffffff" stroke="transparent" points="466,-37.7 466,-56.7 511,-56.7 511,-37.7 466,-37.7"/>
<polygon fill="none" stroke="#000000" points="466,-37.7 466,-56.7 511,-56.7 511,-37.7 466,-37.7"/>
<text text-anchor="start" x="501.8862" y="-43.8" font-family="Helvetica,sans-Serif" font-size="11.00" fill="#000000"> &#160;</text>
</a>
</g>
</g>
<!-- _river_cross_section_profile&#45;&gt;closed_parametric_geometry -->
<g id="edge2" class="edge">
<title>_river_cross_section_profile:w&#45;&gt;closed_parametric_geometry:e</title>
<path fill="none" stroke="#000000" d="M295.0699,-156.9444C272.7709,-174.5228 297.2009,-240.7 258,-240.7"/>
<polygon fill="#000000" stroke="#000000" points="301.3473,-155.0318 310.0493,-156.1437 305.1737,-153.8659 309,-152.7 309,-152.7 309,-152.7 305.1737,-153.8659 307.9507,-149.2563 301.3473,-155.0318 301.3473,-155.0318"/>
<ellipse fill="none" stroke="#000000" cx="298.2863" cy="-155.9645" rx="3.2" ry="3.2"/>
</g>
<!-- _river_cross_section_profile&#45;&gt;closed_parametric_geometry -->
<g id="edge3" class="edge">
<title>_river_cross_section_profile:w&#45;&gt;closed_parametric_geometry:e</title>
<path fill="none" stroke="#000000" d="M294.276,-240.7C282.2815,-240.7 274.8229,-240.7 258,-240.7"/>
<polygon fill="#000000" stroke="#000000" points="301,-240.7001 309,-244.3 305,-240.7 309,-240.7 309,-240.7 309,-240.7 305,-240.7 309,-237.1 301,-240.7001 301,-240.7001"/>
<ellipse fill="none" stroke="#000000" cx="297.8" cy="-240.7001" rx="3.2" ry="3.2"/>
</g>
</g>
</svg>
