<?xml version="1.0" encoding="UTF-8" standalone="no"?>
<!DOCTYPE svg PUBLIC "-//W3C//DTD SVG 1.1//EN"
 "http://www.w3.org/Graphics/SVG/1.1/DTD/svg11.dtd">
<!-- Generated by graphviz version 2.40.1 (20161225.0304)
 -->
<!-- Title: twoDegreesRelationshipsDiagram Pages: 1 -->
<svg width="528pt" height="655pt"
 viewBox="0.00 0.00 528.00 655.20" xmlns="http://www.w3.org/2000/svg" xmlns:xlink="http://www.w3.org/1999/xlink">
<g id="graph0" class="graph" transform="scale(1 1) rotate(0) translate(4 651.2)">
<title>twoDegreesRelationshipsDiagram</title>
<polygon fill="#ffffff" stroke="transparent" points="-4,4 -4,-651.2 524,-651.2 524,4 -4,4"/>
<text text-anchor="middle" x="72.4936" y="-7.3" font-family="Helvetica,sans-Serif" font-size="11.00" fill="#000000">Generated by SchemaSpy</text>
<!-- _pipe_link -->
<g id="node1" class="node">
<title>_pipe_link</title>
<g id="a_node1"><a xlink:href="../../tables/_pipe_link.html" xlink:title="_pipe_link" target="_top">
<polygon fill="#ffffff" stroke="transparent" points="336.5,-435.2 336.5,-606.2 485.5,-606.2 485.5,-435.2 336.5,-435.2"/>
<polygon fill="#f5f5f5" stroke="transparent" points="337,-582.7 337,-605.7 486,-605.7 486,-582.7 337,-582.7"/>
<polygon fill="none" stroke="#000000" points="337,-582.7 337,-605.7 486,-605.7 486,-582.7 337,-582.7"/>
<text text-anchor="start" x="342" y="-591.3" font-family="Helvetica,sans-Serif" font-weight="bold" font-size="11.00" fill="#000000">_pipe_link</text>
<text text-anchor="start" x="451.0437" y="-590.8" font-family="Helvetica,sans-Serif" font-size="11.00" fill="#000000">[table]</text>
<polygon fill="#ffffff" stroke="transparent" points="337,-560.7 337,-582.7 486,-582.7 486,-560.7 337,-560.7"/>
<polygon fill="none" stroke="#000000" points="337,-560.7 337,-582.7 486,-582.7 486,-560.7 337,-560.7"/>
<image xlink:href="../../images/foreignKeys.png" width="11px" height="12px" preserveAspectRatio="xMinYMin meet" x="342" y="-577.7"/>
<text text-anchor="start" x="357" y="-567.8" font-family="Helvetica,sans-Serif" font-size="11.00" fill="#000000">id</text>
<polygon fill="none" stroke="#000000" points="337,-538.7 337,-560.7 486,-560.7 486,-538.7 337,-538.7"/>
<image xlink:href="../../images/foreignKeys.png" width="11px" height="12px" preserveAspectRatio="xMinYMin meet" x="342" y="-555.7"/>
<text text-anchor="start" x="357" y="-545.8" font-family="Helvetica,sans-Serif" font-size="11.00" fill="#000000">link_type</text>
<polygon fill="none" stroke="#000000" points="337,-516.7 337,-538.7 486,-538.7 486,-516.7 337,-516.7"/>
<image xlink:href="../../images/foreignKeys.png" width="11px" height="12px" preserveAspectRatio="xMinYMin meet" x="342" y="-533.7"/>
<text text-anchor="start" x="357" y="-523.8" font-family="Helvetica,sans-Serif" font-size="11.00" fill="#000000">branch</text>
<polygon fill="none" stroke="#000000" points="337,-494.7 337,-516.7 486,-516.7 486,-494.7 337,-494.7"/>
<image xlink:href="../../images/foreignKeys.png" width="11px" height="12px" preserveAspectRatio="xMinYMin meet" x="342" y="-511.7"/>
<text text-anchor="start" x="357" y="-501.8" font-family="Helvetica,sans-Serif" font-size="11.00" fill="#000000">cp_geom</text>
<polygon fill="none" stroke="#000000" points="337,-472.7 337,-494.7 486,-494.7 486,-472.7 337,-472.7"/>
<image xlink:href="../../images/foreignKeys.png" width="11px" height="12px" preserveAspectRatio="xMinYMin meet" x="342" y="-489.7"/>
<text text-anchor="start" x="357" y="-479.8" font-family="Helvetica,sans-Serif" font-size="11.00" fill="#000000">op_geom</text>
<polygon fill="none" stroke="#000000" points="337,-453.7 337,-472.7 486,-472.7 486,-453.7 337,-453.7"/>
<text text-anchor="start" x="340" y="-459.8" font-family="Helvetica,sans-Serif" font-size="11.00" fill="#000000">...</text>
<polygon fill="#ffffff" stroke="transparent" points="337,-434.7 337,-453.7 397,-453.7 397,-434.7 337,-434.7"/>
<polygon fill="none" stroke="#000000" points="337,-434.7 337,-453.7 397,-453.7 397,-434.7 337,-434.7"/>
<text text-anchor="start" x="340" y="-440.8" font-family="Helvetica,sans-Serif" font-size="11.00" fill="#000000">&lt; 5</text>
<polygon fill="#ffffff" stroke="transparent" points="397,-434.7 397,-453.7 454,-453.7 454,-434.7 397,-434.7"/>
<polygon fill="none" stroke="#000000" points="397,-434.7 397,-453.7 454,-453.7 454,-434.7 397,-434.7"/>
<text text-anchor="start" x="418.6105" y="-440.8" font-family="Helvetica,sans-Serif" font-size="11.00" fill="#000000">0 rows</text>
<polygon fill="#ffffff" stroke="transparent" points="454,-434.7 454,-453.7 486,-453.7 486,-434.7 454,-434.7"/>
<polygon fill="none" stroke="#000000" points="454,-434.7 454,-453.7 486,-453.7 486,-434.7 454,-434.7"/>
<text text-anchor="start" x="476.8862" y="-440.8" font-family="Helvetica,sans-Serif" font-size="11.00" fill="#000000"> &#160;</text>
</a>
</g>
</g>
<!-- branch -->
<g id="node2" class="node">
<title>branch</title>
<g id="a_node2"><a xlink:href="../../tables/branch.html" xlink:title="branch" target="_top">
<polygon fill="#ffffff" stroke="transparent" points="95,-500.2 95,-561.2 174,-561.2 174,-500.2 95,-500.2"/>
<polygon fill="#f5f5f5" stroke="transparent" points="95.5,-537.7 95.5,-560.7 174.5,-560.7 174.5,-537.7 95.5,-537.7"/>
<polygon fill="none" stroke="#000000" points="95.5,-537.7 95.5,-560.7 174.5,-560.7 174.5,-537.7 95.5,-537.7"/>
<text text-anchor="start" x="100.5" y="-546.3" font-family="Helvetica,sans-Serif" font-weight="bold" font-size="11.00" fill="#000000">branch</text>
<text text-anchor="start" x="140.0219" y="-545.8" font-family="Helvetica,sans-Serif" font-size="11.00" fill="#000000">[table]</text>
<polygon fill="none" stroke="#000000" points="95.5,-518.7 95.5,-537.7 174.5,-537.7 174.5,-518.7 95.5,-518.7"/>
<text text-anchor="start" x="98.5" y="-524.8" font-family="Helvetica,sans-Serif" font-size="11.00" fill="#000000">...</text>
<polygon fill="#ffffff" stroke="transparent" points="95.5,-499.7 95.5,-518.7 111.5,-518.7 111.5,-499.7 95.5,-499.7"/>
<polygon fill="none" stroke="#000000" points="95.5,-499.7 95.5,-518.7 111.5,-518.7 111.5,-499.7 95.5,-499.7"/>
<text text-anchor="start" x="98.5" y="-505.8" font-family="Helvetica,sans-Serif" font-size="11.00" fill="#000000"> &#160;</text>
<polygon fill="#ffffff" stroke="transparent" points="111.5,-499.7 111.5,-518.7 151.5,-518.7 151.5,-499.7 111.5,-499.7"/>
<polygon fill="none" stroke="#000000" points="111.5,-499.7 111.5,-518.7 151.5,-518.7 151.5,-499.7 111.5,-499.7"/>
<text text-anchor="start" x="116.1105" y="-505.8" font-family="Helvetica,sans-Serif" font-size="11.00" fill="#000000">0 rows</text>
<polygon fill="#ffffff" stroke="transparent" points="151.5,-499.7 151.5,-518.7 174.5,-518.7 174.5,-499.7 151.5,-499.7"/>
<polygon fill="none" stroke="#000000" points="151.5,-499.7 151.5,-518.7 174.5,-518.7 174.5,-499.7 151.5,-499.7"/>
<text text-anchor="start" x="155.9053" y="-505.8" font-family="Helvetica,sans-Serif" font-size="11.00" fill="#000000">1 &gt;</text>
</a>
</g>
</g>
<!-- _pipe_link&#45;&gt;branch -->
<g id="edge1" class="edge">
<title>_pipe_link:w&#45;&gt;branch:e</title>
<path fill="none" stroke="#000000" d="M322.5313,-527.7C261.9709,-527.7 241.6441,-527.7 174.5,-527.7"/>
<polygon fill="#000000" stroke="#000000" points="329,-527.7001 337,-531.3 333,-527.7 337,-527.7 337,-527.7 337,-527.7 333,-527.7 337,-524.1 329,-527.7001 329,-527.7001"/>
<ellipse fill="none" stroke="#000000" cx="325.8" cy="-527.7001" rx="3.2" ry="3.2"/>
</g>
<!-- closed_parametric_geometry -->
<g id="node3" class="node">
<title>closed_parametric_geometry</title>
<g id="a_node3"><a xlink:href="../../tables/closed_parametric_geometry.html" xlink:title="closed_parametric_geometry" target="_top">
<polygon fill="#ffffff" stroke="transparent" points="8.5,-284.7 8.5,-396.7 260.5,-396.7 260.5,-284.7 8.5,-284.7"/>
<polygon fill="#f5f5f5" stroke="transparent" points="10.5,-371.7 10.5,-394.7 258.5,-394.7 258.5,-371.7 10.5,-371.7"/>
<polygon fill="none" stroke="#000000" points="10.5,-371.7 10.5,-394.7 258.5,-394.7 258.5,-371.7 10.5,-371.7"/>
<text text-anchor="start" x="15.5" y="-380.3" font-family="Helvetica,sans-Serif" font-weight="bold" font-size="11.00" fill="#000000">closed_parametric_geometry</text>
<text text-anchor="start" x="223.5437" y="-379.8" font-family="Helvetica,sans-Serif" font-size="11.00" fill="#000000">[table]</text>
<polygon fill="none" stroke="#000000" points="10.5,-349.7 10.5,-371.7 197.5,-371.7 197.5,-349.7 10.5,-349.7"/>
<image xlink:href="../../images/primaryKeys.png" width="11px" height="12px" preserveAspectRatio="xMinYMin meet" x="15.5" y="-366.7"/>
<text text-anchor="start" x="30.5" y="-356.8" font-family="Helvetica,sans-Serif" font-size="11.00" fill="#000000">id</text>
<polygon fill="none" stroke="#000000" points="197.5,-349.7 197.5,-371.7 258.5,-371.7 258.5,-349.7 197.5,-349.7"/>
<text text-anchor="start" x="200.5" y="-357.4" font-family="Helvetica,sans-Serif" font-size="11.00" fill="#000000">serial[10]</text>
<polygon fill="#ffffff" stroke="transparent" points="10.5,-327.7 10.5,-349.7 197.5,-349.7 197.5,-327.7 10.5,-327.7"/>
<polygon fill="none" stroke="#000000" points="10.5,-327.7 10.5,-349.7 197.5,-349.7 197.5,-327.7 10.5,-327.7"/>
<text text-anchor="start" x="30.5" y="-334.8" font-family="Helvetica,sans-Serif" font-size="11.00" fill="#000000">name</text>
<polygon fill="none" stroke="#000000" points="197.5,-327.7 197.5,-349.7 258.5,-349.7 258.5,-327.7 197.5,-327.7"/>
<text text-anchor="start" x="200.494" y="-335.4" font-family="Helvetica,sans-Serif" font-size="11.00" fill="#000000">varchar[24]</text>
<polygon fill="none" stroke="#000000" points="10.5,-305.7 10.5,-327.7 197.5,-327.7 197.5,-305.7 10.5,-305.7"/>
<text text-anchor="start" x="30.5" y="-312.8" font-family="Helvetica,sans-Serif" font-size="11.00" fill="#000000">zbmin_array</text>
<polygon fill="none" stroke="#000000" points="197.5,-305.7 197.5,-327.7 258.5,-327.7 258.5,-305.7 197.5,-305.7"/>
<text text-anchor="start" x="200.5" y="-313.4" font-family="Helvetica,sans-Serif" font-size="11.00" fill="#000000">_float4[8,8]</text>
<polygon fill="#ffffff" stroke="transparent" points="10.5,-286.7 10.5,-305.7 95.5,-305.7 95.5,-286.7 10.5,-286.7"/>
<polygon fill="none" stroke="#000000" points="10.5,-286.7 10.5,-305.7 95.5,-305.7 95.5,-286.7 10.5,-286.7"/>
<text text-anchor="start" x="13.5" y="-292.8" font-family="Helvetica,sans-Serif" font-size="11.00" fill="#000000">&lt; 0</text>
<polygon fill="#ffffff" stroke="transparent" points="95.5,-286.7 95.5,-305.7 197.5,-305.7 197.5,-286.7 95.5,-286.7"/>
<polygon fill="none" stroke="#000000" points="95.5,-286.7 95.5,-305.7 197.5,-305.7 197.5,-286.7 95.5,-286.7"/>
<text text-anchor="start" x="162.1105" y="-292.8" font-family="Helvetica,sans-Serif" font-size="11.00" fill="#000000">0 rows</text>
<polygon fill="#ffffff" stroke="transparent" points="197.5,-286.7 197.5,-305.7 258.5,-305.7 258.5,-286.7 197.5,-286.7"/>
<polygon fill="none" stroke="#000000" points="197.5,-286.7 197.5,-305.7 258.5,-305.7 258.5,-286.7 197.5,-286.7"/>
<text text-anchor="start" x="239.9053" y="-292.8" font-family="Helvetica,sans-Serif" font-size="11.00" fill="#000000">3 &gt;</text>
<polygon fill="none" stroke="#000000" stroke-width="2" points="9.5,-285.7 9.5,-395.7 259.5,-395.7 259.5,-285.7 9.5,-285.7"/>
</a>
</g>
</g>
<!-- _pipe_link&#45;&gt;closed_parametric_geometry -->
<g id="edge2" class="edge">
<title>_pipe_link:w&#45;&gt;closed_parametric_geometry:e</title>
<path fill="none" stroke="#000000" d="M322.5892,-503.3042C273.2667,-484.4515 326.2004,-360.7 258.5,-360.7"/>
<polygon fill="#000000" stroke="#000000" points="329.1083,-504.388 336.4096,-509.2513 333.0542,-505.044 337,-505.7 337,-505.7 337,-505.7 333.0542,-505.044 337.5904,-502.1487 329.1083,-504.388 329.1083,-504.388"/>
<ellipse fill="none" stroke="#000000" cx="325.9516" cy="-503.8632" rx="3.2" ry="3.2"/>
</g>
<!-- _link -->
<g id="node4" class="node">
<title>_link</title>
<g id="a_node4"><a xlink:href="../../tables/_link.html" xlink:title="_link" target="_top">
<polygon fill="#ffffff" stroke="transparent" points="91.5,-582.2 91.5,-643.2 177.5,-643.2 177.5,-582.2 91.5,-582.2"/>
<polygon fill="#f5f5f5" stroke="transparent" points="91.5,-619.7 91.5,-642.7 177.5,-642.7 177.5,-619.7 91.5,-619.7"/>
<polygon fill="none" stroke="#000000" points="91.5,-619.7 91.5,-642.7 177.5,-642.7 177.5,-619.7 91.5,-619.7"/>
<text text-anchor="start" x="96.5" y="-628.3" font-family="Helvetica,sans-Serif" font-weight="bold" font-size="11.00" fill="#000000">_link</text>
<text text-anchor="start" x="142.5437" y="-627.8" font-family="Helvetica,sans-Serif" font-size="11.00" fill="#000000">[table]</text>
<polygon fill="none" stroke="#000000" points="91.5,-600.7 91.5,-619.7 177.5,-619.7 177.5,-600.7 91.5,-600.7"/>
<text text-anchor="start" x="94.5" y="-606.8" font-family="Helvetica,sans-Serif" font-size="11.00" fill="#000000">...</text>
<polygon fill="#ffffff" stroke="transparent" points="91.5,-581.7 91.5,-600.7 112.5,-600.7 112.5,-581.7 91.5,-581.7"/>
<polygon fill="none" stroke="#000000" points="91.5,-581.7 91.5,-600.7 112.5,-600.7 112.5,-581.7 91.5,-581.7"/>
<text text-anchor="start" x="94.2027" y="-587.8" font-family="Helvetica,sans-Serif" font-size="11.00" fill="#000000">&lt; 5</text>
<polygon fill="#ffffff" stroke="transparent" points="112.5,-581.7 112.5,-600.7 150.5,-600.7 150.5,-581.7 112.5,-581.7"/>
<polygon fill="none" stroke="#000000" points="112.5,-581.7 112.5,-600.7 150.5,-600.7 150.5,-581.7 112.5,-581.7"/>
<text text-anchor="start" x="115.3053" y="-587.8" font-family="Helvetica,sans-Serif" font-size="11.00" fill="#000000">0 rows</text>
<polygon fill="#ffffff" stroke="transparent" points="150.5,-581.7 150.5,-600.7 177.5,-600.7 177.5,-581.7 150.5,-581.7"/>
<polygon fill="none" stroke="#000000" points="150.5,-581.7 150.5,-600.7 177.5,-600.7 177.5,-581.7 150.5,-581.7"/>
<text text-anchor="start" x="153.1452" y="-587.8" font-family="Helvetica,sans-Serif" font-size="11.00" fill="#000000">60 &gt;</text>
</a>
</g>
</g>
<!-- _pipe_link&#45;&gt;_link -->
<g id="edge3" class="edge">
<title>_pipe_link:w&#45;&gt;_link:e</title>
<path fill="none" stroke="#000000" d="M326.3401,-571.984C262.5777,-575.4614 246.6724,-609.7 177.5,-609.7"/>
<polygon fill="#000000" stroke="#000000" points="336.0937,-567.7227 336.3069,-575.7199 334.7074,-575.7625 334.4943,-567.7654 336.0937,-567.7227"/>
<polyline fill="none" stroke="#000000" points="337,-571.7 333.0014,-571.8066 "/>
<ellipse fill="none" stroke="#000000" cx="329.8026" cy="-571.8918" rx="3.2" ry="3.2"/>
</g>
<!-- _pipe_link&#45;&gt;_link -->
<g id="edge4" class="edge">
<title>_pipe_link:w&#45;&gt;_link:e</title>
<path fill="none" stroke="#000000" d="M322.497,-551.8354C280.7424,-562.5238 211.0794,-609.7 177.5,-609.7"/>
<polygon fill="#000000" stroke="#000000" points="329.0853,-550.8654 337.5244,-553.2616 333.0427,-550.2827 337,-549.7 337,-549.7 337,-549.7 333.0427,-550.2827 336.4756,-546.1384 329.0853,-550.8654 329.0853,-550.8654"/>
<ellipse fill="none" stroke="#000000" cx="325.9195" cy="-551.3316" rx="3.2" ry="3.2"/>
</g>
<!-- open_parametric_geometry -->
<g id="node5" class="node">
<title>open_parametric_geometry</title>
<g id="a_node5"><a xlink:href="../../tables/open_parametric_geometry.html" xlink:title="open_parametric_geometry" target="_top">
<polygon fill="#ffffff" stroke="transparent" points="36.5,-202.2 36.5,-263.2 232.5,-263.2 232.5,-202.2 36.5,-202.2"/>
<polygon fill="#f5f5f5" stroke="transparent" points="36.5,-239.7 36.5,-262.7 232.5,-262.7 232.5,-239.7 36.5,-239.7"/>
<polygon fill="none" stroke="#000000" points="36.5,-239.7 36.5,-262.7 232.5,-262.7 232.5,-239.7 36.5,-239.7"/>
<text text-anchor="start" x="41.5" y="-248.3" font-family="Helvetica,sans-Serif" font-weight="bold" font-size="11.00" fill="#000000">open_parametric_geometry</text>
<text text-anchor="start" x="198.0219" y="-247.8" font-family="Helvetica,sans-Serif" font-size="11.00" fill="#000000">[table]</text>
<polygon fill="none" stroke="#000000" points="36.5,-220.7 36.5,-239.7 232.5,-239.7 232.5,-220.7 36.5,-220.7"/>
<text text-anchor="start" x="39.5" y="-226.8" font-family="Helvetica,sans-Serif" font-size="11.00" fill="#000000">...</text>
<polygon fill="#ffffff" stroke="transparent" points="36.5,-201.7 36.5,-220.7 110.5,-220.7 110.5,-201.7 36.5,-201.7"/>
<polygon fill="none" stroke="#000000" points="36.5,-201.7 36.5,-220.7 110.5,-220.7 110.5,-201.7 36.5,-201.7"/>
<text text-anchor="start" x="39.5" y="-207.8" font-family="Helvetica,sans-Serif" font-size="11.00" fill="#000000"> &#160;</text>
<polygon fill="#ffffff" stroke="transparent" points="110.5,-201.7 110.5,-220.7 179.5,-220.7 179.5,-201.7 110.5,-201.7"/>
<polygon fill="none" stroke="#000000" points="110.5,-201.7 110.5,-220.7 179.5,-220.7 179.5,-201.7 110.5,-201.7"/>
<text text-anchor="start" x="144.1105" y="-207.8" font-family="Helvetica,sans-Serif" font-size="11.00" fill="#000000">0 rows</text>
<polygon fill="#ffffff" stroke="transparent" points="179.5,-201.7 179.5,-220.7 232.5,-220.7 232.5,-201.7 179.5,-201.7"/>
<polygon fill="none" stroke="#000000" points="179.5,-201.7 179.5,-220.7 232.5,-220.7 232.5,-201.7 179.5,-201.7"/>
<text text-anchor="start" x="213.9053" y="-207.8" font-family="Helvetica,sans-Serif" font-size="11.00" fill="#000000">3 &gt;</text>
</a>
</g>
</g>
<!-- _pipe_link&#45;&gt;open_parametric_geometry -->
<g id="edge5" class="edge">
<title>_pipe_link:w&#45;&gt;open_parametric_geometry:e</title>
<path fill="none" stroke="#000000" d="M322.3786,-482.2715C226.698,-461.8663 349.2052,-229.7 232.5,-229.7"/>
<polygon fill="#000000" stroke="#000000" points="329.0379,-482.9221 336.6499,-487.2829 333.019,-483.311 337,-483.7 337,-483.7 337,-483.7 333.019,-483.311 337.3501,-480.1171 329.0379,-482.9221 329.0379,-482.9221"/>
<ellipse fill="none" stroke="#000000" cx="325.8531" cy="-482.6109" rx="3.2" ry="3.2"/>
</g>
<!-- _river_cross_section_profile -->
<g id="node6" class="node">
<title>_river_cross_section_profile</title>
<g id="a_node6"><a xlink:href="../../tables/_river_cross_section_profile.html" xlink:title="_river_cross_section_profile" target="_top">
<polygon fill="#ffffff" stroke="transparent" points="310,-77.2 310,-358.2 512,-358.2 512,-77.2 310,-77.2"/>
<polygon fill="#f5f5f5" stroke="transparent" points="310,-334.7 310,-357.7 512,-357.7 512,-334.7 310,-334.7"/>
<polygon fill="none" stroke="#000000" points="310,-334.7 310,-357.7 512,-357.7 512,-334.7 310,-334.7"/>
<text text-anchor="start" x="315" y="-343.3" font-family="Helvetica,sans-Serif" font-weight="bold" font-size="11.00" fill="#000000">_river_cross_section_profile</text>
<text text-anchor="start" x="477.5219" y="-342.8" font-family="Helvetica,sans-Serif" font-size="11.00" fill="#000000">[table]</text>
<polygon fill="#ffffff" stroke="transparent" points="310,-312.7 310,-334.7 512,-334.7 512,-312.7 310,-312.7"/>
<polygon fill="none" stroke="#000000" points="310,-312.7 310,-334.7 512,-334.7 512,-312.7 310,-312.7"/>
<image xlink:href="../../images/foreignKeys.png" width="11px" height="12px" preserveAspectRatio="xMinYMin meet" x="315" y="-329.7"/>
<text text-anchor="start" x="338" y="-319.8" font-family="Helvetica,sans-Serif" font-size="11.00" fill="#000000">id</text>
<polygon fill="#ffffff" stroke="transparent" points="310,-290.7 310,-312.7 512,-312.7 512,-290.7 310,-290.7"/>
<polygon fill="none" stroke="#000000" points="310,-290.7 310,-312.7 512,-312.7 512,-290.7 310,-290.7"/>
<text text-anchor="start" x="338" y="-297.8" font-family="Helvetica,sans-Serif" font-size="11.00" fill="#000000">name</text>
<polygon fill="none" stroke="#000000" points="310,-268.7 310,-290.7 512,-290.7 512,-268.7 310,-268.7"/>
<image xlink:href="../../images/foreignKeys.png" width="11px" height="12px" preserveAspectRatio="xMinYMin meet" x="315" y="-285.7"/>
<text text-anchor="start" x="338" y="-275.8" font-family="Helvetica,sans-Serif" font-size="11.00" fill="#000000">up_cp_geom</text>
<polygon fill="none" stroke="#000000" points="310,-246.7 310,-268.7 512,-268.7 512,-246.7 310,-246.7"/>
<image xlink:href="../../images/foreignKeys.png" width="11px" height="12px" preserveAspectRatio="xMinYMin meet" x="315" y="-263.7"/>
<text text-anchor="start" x="338" y="-253.8" font-family="Helvetica,sans-Serif" font-size="11.00" fill="#000000">up_op_geom</text>
<polygon fill="none" stroke="#000000" points="310,-224.7 310,-246.7 512,-246.7 512,-224.7 310,-224.7"/>
<image xlink:href="../../images/foreignKeys.png" width="11px" height="12px" preserveAspectRatio="xMinYMin meet" x="315" y="-241.7"/>
<text text-anchor="start" x="338" y="-231.8" font-family="Helvetica,sans-Serif" font-size="11.00" fill="#000000">up_vcs_geom</text>
<polygon fill="none" stroke="#000000" points="310,-202.7 310,-224.7 512,-224.7 512,-202.7 310,-202.7"/>
<image xlink:href="../../images/foreignKeys.png" width="11px" height="12px" preserveAspectRatio="xMinYMin meet" x="315" y="-219.7"/>
<text text-anchor="start" x="338" y="-209.8" font-family="Helvetica,sans-Serif" font-size="11.00" fill="#000000">up_vcs_topo_geom</text>
<polygon fill="none" stroke="#000000" points="310,-180.7 310,-202.7 512,-202.7 512,-180.7 310,-180.7"/>
<image xlink:href="../../images/foreignKeys.png" width="11px" height="12px" preserveAspectRatio="xMinYMin meet" x="315" y="-197.7"/>
<text text-anchor="start" x="338" y="-187.8" font-family="Helvetica,sans-Serif" font-size="11.00" fill="#000000">down_cp_geom</text>
<polygon fill="none" stroke="#000000" points="310,-158.7 310,-180.7 512,-180.7 512,-158.7 310,-158.7"/>
<image xlink:href="../../images/foreignKeys.png" width="11px" height="12px" preserveAspectRatio="xMinYMin meet" x="315" y="-175.7"/>
<text text-anchor="start" x="338" y="-165.8" font-family="Helvetica,sans-Serif" font-size="11.00" fill="#000000">down_op_geom</text>
<polygon fill="none" stroke="#000000" points="310,-136.7 310,-158.7 512,-158.7 512,-136.7 310,-136.7"/>
<image xlink:href="../../images/foreignKeys.png" width="11px" height="12px" preserveAspectRatio="xMinYMin meet" x="315" y="-153.7"/>
<text text-anchor="start" x="338" y="-143.8" font-family="Helvetica,sans-Serif" font-size="11.00" fill="#000000">down_vcs_geom</text>
<polygon fill="none" stroke="#000000" points="310,-114.7 310,-136.7 512,-136.7 512,-114.7 310,-114.7"/>
<image xlink:href="../../images/foreignKeys.png" width="11px" height="12px" preserveAspectRatio="xMinYMin meet" x="315" y="-131.7"/>
<text text-anchor="start" x="338" y="-121.8" font-family="Helvetica,sans-Serif" font-size="11.00" fill="#000000">down_vcs_topo_geom</text>
<polygon fill="none" stroke="#000000" points="310,-95.7 310,-114.7 512,-114.7 512,-95.7 310,-95.7"/>
<text text-anchor="start" x="313" y="-101.8" font-family="Helvetica,sans-Serif" font-size="11.00" fill="#000000">...</text>
<polygon fill="#ffffff" stroke="transparent" points="310,-76.7 310,-95.7 396,-95.7 396,-76.7 310,-76.7"/>
<polygon fill="none" stroke="#000000" points="310,-76.7 310,-95.7 396,-95.7 396,-76.7 310,-76.7"/>
<text text-anchor="start" x="313" y="-82.8" font-family="Helvetica,sans-Serif" font-size="11.00" fill="#000000">&lt; 9</text>
<polygon fill="#ffffff" stroke="transparent" points="396,-76.7 396,-95.7 467,-95.7 467,-76.7 396,-76.7"/>
<polygon fill="none" stroke="#000000" points="396,-76.7 396,-95.7 467,-95.7 467,-76.7 396,-76.7"/>
<text text-anchor="start" x="431.6105" y="-82.8" font-family="Helvetica,sans-Serif" font-size="11.00" fill="#000000">0 rows</text>
<polygon fill="#ffffff" stroke="transparent" points="467,-76.7 467,-95.7 512,-95.7 512,-76.7 467,-76.7"/>
<polygon fill="none" stroke="#000000" points="467,-76.7 467,-95.7 512,-95.7 512,-76.7 467,-76.7"/>
<text text-anchor="start" x="502.8862" y="-82.8" font-family="Helvetica,sans-Serif" font-size="11.00" fill="#000000"> &#160;</text>
</a>
</g>
</g>
<!-- _river_cross_section_profile&#45;&gt;closed_parametric_geometry -->
<g id="edge6" class="edge">
<title>_river_cross_section_profile:w&#45;&gt;closed_parametric_geometry:e</title>
<path fill="none" stroke="#000000" d="M295.7216,-194.2202C245.7717,-215.2432 331.3468,-360.7 258.5,-360.7"/>
<polygon fill="#000000" stroke="#000000" points="302.1218,-193.0906 310.6258,-195.2452 306.0609,-192.3953 310,-191.7 310,-191.7 310,-191.7 306.0609,-192.3953 309.3742,-188.1548 302.1218,-193.0906 302.1218,-193.0906"/>
<ellipse fill="none" stroke="#000000" cx="298.9705" cy="-193.6468" rx="3.2" ry="3.2"/>
</g>
<!-- _river_cross_section_profile&#45;&gt;closed_parametric_geometry -->
<g id="edge11" class="edge">
<title>_river_cross_section_profile:w&#45;&gt;closed_parametric_geometry:e</title>
<path fill="none" stroke="#000000" d="M296.1146,-284.0549C275.3393,-300.8794 295.1612,-360.7 258.5,-360.7"/>
<polygon fill="#000000" stroke="#000000" points="302.3666,-282.0941 311.0774,-283.135 306.1833,-280.8971 310,-279.7 310,-279.7 310,-279.7 306.1833,-280.8971 308.9226,-276.265 302.3666,-282.0941 302.3666,-282.0941"/>
<ellipse fill="none" stroke="#000000" cx="299.3133" cy="-283.0518" rx="3.2" ry="3.2"/>
</g>
<!-- _river_cross_section_profile&#45;&gt;open_parametric_geometry -->
<g id="edge7" class="edge">
<title>_river_cross_section_profile:w&#45;&gt;open_parametric_geometry:e</title>
<path fill="none" stroke="#000000" d="M295.5776,-172.434C268.0361,-184.1717 270.4454,-229.7 232.5,-229.7"/>
<polygon fill="#000000" stroke="#000000" points="302.14,-171.19 310.6705,-173.237 306.07,-170.445 310,-169.7 310,-169.7 310,-169.7 306.07,-170.445 309.3295,-166.163 302.14,-171.19 302.14,-171.19"/>
<ellipse fill="none" stroke="#000000" cx="298.996" cy="-171.786" rx="3.2" ry="3.2"/>
</g>
<!-- _river_cross_section_profile&#45;&gt;open_parametric_geometry -->
<g id="edge12" class="edge">
<title>_river_cross_section_profile:w&#45;&gt;open_parametric_geometry:e</title>
<path fill="none" stroke="#000000" d="M295.6191,-256.0323C271.4006,-250.0044 263.6872,-229.7 232.5,-229.7"/>
<polygon fill="#000000" stroke="#000000" points="302.0533,-256.7784 309.5853,-261.276 306.0266,-257.2392 310,-257.7 310,-257.7 310,-257.7 306.0266,-257.2392 310.4147,-254.124 302.0533,-256.7784 302.0533,-256.7784"/>
<ellipse fill="none" stroke="#000000" cx="298.8746" cy="-256.4098" rx="3.2" ry="3.2"/>
</g>
<!-- valley_cross_section_geometry -->
<g id="node7" class="node">
<title>valley_cross_section_geometry</title>
<g id="a_node7"><a xlink:href="../../tables/valley_cross_section_geometry.html" xlink:title="valley_cross_section_geometry" target="_top">
<polygon fill="#ffffff" stroke="transparent" points="24.5,-120.2 24.5,-181.2 244.5,-181.2 244.5,-120.2 24.5,-120.2"/>
<polygon fill="#f5f5f5" stroke="transparent" points="24.5,-157.7 24.5,-180.7 244.5,-180.7 244.5,-157.7 24.5,-157.7"/>
<polygon fill="none" stroke="#000000" points="24.5,-157.7 24.5,-180.7 244.5,-180.7 244.5,-157.7 24.5,-157.7"/>
<text text-anchor="start" x="29.5" y="-166.3" font-family="Helvetica,sans-Serif" font-weight="bold" font-size="11.00" fill="#000000">valley_cross_section_geometry</text>
<text text-anchor="start" x="210.0219" y="-165.8" font-family="Helvetica,sans-Serif" font-size="11.00" fill="#000000">[table]</text>
<polygon fill="none" stroke="#000000" points="24.5,-138.7 24.5,-157.7 244.5,-157.7 244.5,-138.7 24.5,-138.7"/>
<text text-anchor="start" x="27.5" y="-144.8" font-family="Helvetica,sans-Serif" font-size="11.00" fill="#000000">...</text>
<polygon fill="#ffffff" stroke="transparent" points="24.5,-119.7 24.5,-138.7 115.5,-138.7 115.5,-119.7 24.5,-119.7"/>
<polygon fill="none" stroke="#000000" points="24.5,-119.7 24.5,-138.7 115.5,-138.7 115.5,-119.7 24.5,-119.7"/>
<text text-anchor="start" x="27.5" y="-125.8" font-family="Helvetica,sans-Serif" font-size="11.00" fill="#000000">&lt; 1</text>
<polygon fill="#ffffff" stroke="transparent" points="115.5,-119.7 115.5,-138.7 188.5,-138.7 188.5,-119.7 115.5,-119.7"/>
<polygon fill="none" stroke="#000000" points="115.5,-119.7 115.5,-138.7 188.5,-138.7 188.5,-119.7 115.5,-119.7"/>
<text text-anchor="start" x="153.1105" y="-125.8" font-family="Helvetica,sans-Serif" font-size="11.00" fill="#000000">0 rows</text>
<polygon fill="#ffffff" stroke="transparent" points="188.5,-119.7 188.5,-138.7 244.5,-138.7 244.5,-119.7 188.5,-119.7"/>
<polygon fill="none" stroke="#000000" points="188.5,-119.7 188.5,-138.7 244.5,-138.7 244.5,-119.7 188.5,-119.7"/>
<text text-anchor="start" x="225.9053" y="-125.8" font-family="Helvetica,sans-Serif" font-size="11.00" fill="#000000">2 &gt;</text>
</a>
</g>
</g>
<!-- _river_cross_section_profile&#45;&gt;valley_cross_section_geometry -->
<g id="edge8" class="edge">
<title>_river_cross_section_profile:w&#45;&gt;valley_cross_section_geometry:e</title>
<path fill="none" stroke="#000000" d="M295.3773,-147.7C277.303,-147.7 268.0391,-147.7 244.5,-147.7"/>
<polygon fill="#000000" stroke="#000000" points="302,-147.7001 310,-151.3 306,-147.7 310,-147.7 310,-147.7 310,-147.7 306,-147.7 310,-144.1 302,-147.7001 302,-147.7001"/>
<ellipse fill="none" stroke="#000000" cx="298.8" cy="-147.7001" rx="3.2" ry="3.2"/>
</g>
<!-- _river_cross_section_profile&#45;&gt;valley_cross_section_geometry -->
<g id="edge13" class="edge">
<title>_river_cross_section_profile:w&#45;&gt;valley_cross_section_geometry:e</title>
<path fill="none" stroke="#000000" d="M295.9268,-232.3578C267.6377,-216.2835 287.5423,-147.7 244.5,-147.7"/>
<polygon fill="#000000" stroke="#000000" points="302.2165,-233.8514 309.1682,-239.2026 306.1082,-234.7757 310,-235.7 310,-235.7 310,-235.7 306.1082,-234.7757 310.8318,-232.1974 302.2165,-233.8514 302.2165,-233.8514"/>
<ellipse fill="none" stroke="#000000" cx="299.1031" cy="-233.112" rx="3.2" ry="3.2"/>
</g>
<!-- valley_cross_section_topo_geometry -->
<g id="node8" class="node">
<title>valley_cross_section_topo_geometry</title>
<g id="a_node8"><a xlink:href="../../tables/valley_cross_section_topo_geometry.html" xlink:title="valley_cross_section_topo_geometry" target="_top">
<polygon fill="#ffffff" stroke="transparent" points="8,-38.2 8,-99.2 261,-99.2 261,-38.2 8,-38.2"/>
<polygon fill="#f5f5f5" stroke="transparent" points="8.5,-75.7 8.5,-98.7 261.5,-98.7 261.5,-75.7 8.5,-75.7"/>
<polygon fill="none" stroke="#000000" points="8.5,-75.7 8.5,-98.7 261.5,-98.7 261.5,-75.7 8.5,-75.7"/>
<text text-anchor="start" x="13.5" y="-84.3" font-family="Helvetica,sans-Serif" font-weight="bold" font-size="11.00" fill="#000000">valley_cross_section_topo_geometry</text>
<text text-anchor="start" x="227.0219" y="-83.8" font-family="Helvetica,sans-Serif" font-size="11.00" fill="#000000">[table]</text>
<polygon fill="none" stroke="#000000" points="8.5,-56.7 8.5,-75.7 261.5,-75.7 261.5,-56.7 8.5,-56.7"/>
<text text-anchor="start" x="11.5" y="-62.8" font-family="Helvetica,sans-Serif" font-size="11.00" fill="#000000">...</text>
<polygon fill="#ffffff" stroke="transparent" points="8.5,-37.7 8.5,-56.7 111.5,-56.7 111.5,-37.7 8.5,-37.7"/>
<polygon fill="none" stroke="#000000" points="8.5,-37.7 8.5,-56.7 111.5,-56.7 111.5,-37.7 8.5,-37.7"/>
<text text-anchor="start" x="11.5" y="-43.8" font-family="Helvetica,sans-Serif" font-size="11.00" fill="#000000"> &#160;</text>
<polygon fill="#ffffff" stroke="transparent" points="111.5,-37.7 111.5,-56.7 194.5,-56.7 194.5,-37.7 111.5,-37.7"/>
<polygon fill="none" stroke="#000000" points="111.5,-37.7 111.5,-56.7 194.5,-56.7 194.5,-37.7 111.5,-37.7"/>
<text text-anchor="start" x="159.1105" y="-43.8" font-family="Helvetica,sans-Serif" font-size="11.00" fill="#000000">0 rows</text>
<polygon fill="#ffffff" stroke="transparent" points="194.5,-37.7 194.5,-56.7 261.5,-56.7 261.5,-37.7 194.5,-37.7"/>
<polygon fill="none" stroke="#000000" points="194.5,-37.7 194.5,-56.7 261.5,-56.7 261.5,-37.7 194.5,-37.7"/>
<text text-anchor="start" x="242.9053" y="-43.8" font-family="Helvetica,sans-Serif" font-size="11.00" fill="#000000">2 &gt;</text>
</a>
</g>
</g>
<!-- _river_cross_section_profile&#45;&gt;valley_cross_section_topo_geometry -->
<g id="edge9" class="edge">
<title>_river_cross_section_profile:w&#45;&gt;valley_cross_section_topo_geometry:e</title>
<path fill="none" stroke="#000000" d="M296.1513,-120.5844C281.1711,-106.0748 289.6279,-65.7 261.5,-65.7"/>
<polygon fill="#000000" stroke="#000000" points="302.4956,-122.9279 308.7526,-129.077 306.2478,-124.314 310,-125.7 310,-125.7 310,-125.7 306.2478,-124.314 311.2474,-122.323 302.4956,-122.9279 302.4956,-122.9279"/>
<ellipse fill="none" stroke="#000000" cx="299.4939" cy="-121.8191" rx="3.2" ry="3.2"/>
</g>
<!-- _river_cross_section_profile&#45;&gt;valley_cross_section_topo_geometry -->
<g id="edge14" class="edge">
<title>_river_cross_section_profile:w&#45;&gt;valley_cross_section_topo_geometry:e</title>
<path fill="none" stroke="#000000" d="M295.7392,-210.7436C254.7647,-189.8845 324.9063,-65.7 261.5,-65.7"/>
<polygon fill="#000000" stroke="#000000" points="302.1666,-212.076 309.2692,-217.2251 306.0833,-212.888 310,-213.7 310,-213.7 310,-213.7 306.0833,-212.888 310.7308,-210.1749 302.1666,-212.076 302.1666,-212.076"/>
<ellipse fill="none" stroke="#000000" cx="299.0332" cy="-211.4265" rx="3.2" ry="3.2"/>
</g>
<!-- _river_node -->
<g id="node9" class="node">
<title>_river_node</title>
<g id="a_node9"><a xlink:href="../../tables/_river_node.html" xlink:title="_river_node" target="_top">
<polygon fill="#ffffff" stroke="transparent" points="81,-418.2 81,-479.2 188,-479.2 188,-418.2 81,-418.2"/>
<polygon fill="#f5f5f5" stroke="transparent" points="81.5,-455.7 81.5,-478.7 188.5,-478.7 188.5,-455.7 81.5,-455.7"/>
<polygon fill="none" stroke="#000000" points="81.5,-455.7 81.5,-478.7 188.5,-478.7 188.5,-455.7 81.5,-455.7"/>
<text text-anchor="start" x="86.5" y="-464.3" font-family="Helvetica,sans-Serif" font-weight="bold" font-size="11.00" fill="#000000">_river_node</text>
<text text-anchor="start" x="154.0219" y="-463.8" font-family="Helvetica,sans-Serif" font-size="11.00" fill="#000000">[table]</text>
<polygon fill="none" stroke="#000000" points="81.5,-436.7 81.5,-455.7 188.5,-455.7 188.5,-436.7 81.5,-436.7"/>
<text text-anchor="start" x="84.5" y="-442.8" font-family="Helvetica,sans-Serif" font-size="11.00" fill="#000000">...</text>
<polygon fill="#ffffff" stroke="transparent" points="81.5,-417.7 81.5,-436.7 115.5,-436.7 115.5,-417.7 81.5,-417.7"/>
<polygon fill="none" stroke="#000000" points="81.5,-417.7 81.5,-436.7 115.5,-436.7 115.5,-417.7 81.5,-417.7"/>
<text text-anchor="start" x="84.5" y="-423.8" font-family="Helvetica,sans-Serif" font-size="11.00" fill="#000000">&lt; 3</text>
<polygon fill="#ffffff" stroke="transparent" points="115.5,-417.7 115.5,-436.7 160.5,-436.7 160.5,-417.7 115.5,-417.7"/>
<polygon fill="none" stroke="#000000" points="115.5,-417.7 115.5,-436.7 160.5,-436.7 160.5,-417.7 115.5,-417.7"/>
<text text-anchor="start" x="125.1105" y="-423.8" font-family="Helvetica,sans-Serif" font-size="11.00" fill="#000000">0 rows</text>
<polygon fill="#ffffff" stroke="transparent" points="160.5,-417.7 160.5,-436.7 188.5,-436.7 188.5,-417.7 160.5,-417.7"/>
<polygon fill="none" stroke="#000000" points="160.5,-417.7 160.5,-436.7 188.5,-436.7 188.5,-417.7 160.5,-417.7"/>
<text text-anchor="start" x="169.9053" y="-423.8" font-family="Helvetica,sans-Serif" font-size="11.00" fill="#000000">2 &gt;</text>
</a>
</g>
</g>
<!-- _river_cross_section_profile&#45;&gt;_river_node -->
<g id="edge10" class="edge">
<title>_river_cross_section_profile:w&#45;&gt;_river_node:e</title>
<path fill="none" stroke="#000000" d="M299.422,-325.312C273.9573,-334.5702 295.5635,-381.4807 269,-407.7 240.8425,-435.4927 228.0637,-445.7 188.5,-445.7"/>
<polygon fill="#000000" stroke="#000000" points="308.6065,-319.8662 309.8118,-327.7749 308.23,-328.0159 307.0247,-320.1072 308.6065,-319.8662"/>
<polyline fill="none" stroke="#000000" points="310,-323.7 306.0457,-324.3026 "/>
<ellipse fill="none" stroke="#000000" cx="302.8822" cy="-324.7848" rx="3.2" ry="3.2"/>
</g>
</g>
</svg>
