<?xml version="1.0" encoding="UTF-8" standalone="no"?>
<!DOCTYPE svg PUBLIC "-//W3C//DTD SVG 1.1//EN"
 "http://www.w3.org/Graphics/SVG/1.1/DTD/svg11.dtd">
<!-- Generated by graphviz version 2.40.1 (20161225.0304)
 -->
<!-- Title: oneDegreeRelationshipsDiagram Pages: 1 -->
<svg width="244pt" height="209pt"
 viewBox="0.00 0.00 244.00 209.20" xmlns="http://www.w3.org/2000/svg" xmlns:xlink="http://www.w3.org/1999/xlink">
<g id="graph0" class="graph" transform="scale(1 1) rotate(0) translate(4 205.2)">
<title>oneDegreeRelationshipsDiagram</title>
<polygon fill="#ffffff" stroke="transparent" points="-4,4 -4,-205.2 240,-205.2 240,4 -4,4"/>
<text text-anchor="middle" x="72.4936" y="-7.3" font-family="Helvetica,sans-Serif" font-size="11.00" fill="#000000">Generated by SchemaSpy</text>
<!-- configured -->
<g id="node1" class="node">
<title>configured</title>
<g id="a_node1"><a xlink:href="../../tables/configured.html" xlink:title="configured" target="_top">
<polygon fill="#ffffff" stroke="transparent" points="8,-38.2 8,-197.2 228,-197.2 228,-38.2 8,-38.2"/>
<polygon fill="#f5f5f5" stroke="transparent" points="10,-171.7 10,-194.7 226,-194.7 226,-171.7 10,-171.7"/>
<polygon fill="none" stroke="#000000" points="10,-171.7 10,-194.7 226,-194.7 226,-171.7 10,-171.7"/>
<text text-anchor="start" x="15" y="-180.3" font-family="Helvetica,sans-Serif" font-weight="bold" font-size="11.00" fill="#000000">configured</text>
<text text-anchor="start" x="192.8895" y="-179.8" font-family="Helvetica,sans-Serif" font-size="11.00" fill="#000000">[view]</text>
<polygon fill="none" stroke="#000000" points="10,-149.7 10,-171.7 107,-171.7 107,-149.7 10,-149.7"/>
<text text-anchor="start" x="30" y="-156.8" font-family="Helvetica,sans-Serif" font-size="11.00" fill="#000000">id</text>
<polygon fill="none" stroke="#000000" points="107,-149.7 107,-171.7 226,-171.7 226,-149.7 107,-149.7"/>
<text text-anchor="start" x="110" y="-157.4" font-family="Helvetica,sans-Serif" font-size="11.00" fill="#000000">text[2147483647]</text>
<polygon fill="none" stroke="#000000" points="10,-127.7 10,-149.7 107,-149.7 107,-127.7 10,-127.7"/>
<text text-anchor="start" x="30" y="-134.8" font-family="Helvetica,sans-Serif" font-size="11.00" fill="#000000">configuration</text>
<polygon fill="none" stroke="#000000" points="107,-127.7 107,-149.7 226,-149.7 226,-127.7 107,-127.7"/>
<text text-anchor="start" x="110" y="-135.4" font-family="Helvetica,sans-Serif" font-size="11.00" fill="#000000">json[2147483647]</text>
<polygon fill="none" stroke="#000000" points="10,-105.7 10,-127.7 107,-127.7 107,-105.7 10,-105.7"/>
<text text-anchor="start" x="30" y="-112.8" font-family="Helvetica,sans-Serif" font-size="11.00" fill="#000000">name</text>
<polygon fill="none" stroke="#000000" points="107,-105.7 107,-127.7 226,-127.7 226,-105.7 107,-105.7"/>
<text text-anchor="start" x="110" y="-113.4" font-family="Helvetica,sans-Serif" font-size="11.00" fill="#000000">varchar[24]</text>
<polygon fill="none" stroke="#000000" points="10,-83.7 10,-105.7 107,-105.7 107,-83.7 10,-83.7"/>
<text text-anchor="start" x="30" y="-90.8" font-family="Helvetica,sans-Serif" font-size="11.00" fill="#000000">type</text>
<polygon fill="none" stroke="#000000" points="107,-83.7 107,-105.7 226,-105.7 226,-83.7 107,-83.7"/>
<text text-anchor="start" x="110" y="-91.4" font-family="Helvetica,sans-Serif" font-size="11.00" fill="#000000">varchar[2147483647]</text>
<polygon fill="none" stroke="#000000" points="10,-61.7 10,-83.7 107,-83.7 107,-61.7 10,-61.7"/>
<text text-anchor="start" x="30" y="-68.8" font-family="Helvetica,sans-Serif" font-size="11.00" fill="#000000">subtype</text>
<polygon fill="none" stroke="#000000" points="107,-61.7 107,-83.7 226,-83.7 226,-61.7 107,-61.7"/>
<text text-anchor="start" x="110" y="-69.4" font-family="Helvetica,sans-Serif" font-size="11.00" fill="#000000">varchar[2147483647]</text>
<polygon fill="none" stroke="#000000" points="10,-39.7 10,-61.7 107,-61.7 107,-39.7 10,-39.7"/>
<text text-anchor="start" x="30" y="-46.8" font-family="Helvetica,sans-Serif" font-size="11.00" fill="#000000">geom</text>
<polygon fill="none" stroke="#000000" points="107,-39.7 107,-61.7 226,-61.7 226,-39.7 107,-39.7"/>
<text text-anchor="start" x="109.9485" y="-47.4" font-family="Helvetica,sans-Serif" font-size="11.00" fill="#000000">geometry[2147483647]</text>
<polygon fill="none" stroke="#000000" stroke-width="2" points="9,-39.2 9,-196.2 227,-196.2 227,-39.2 9,-39.2"/>
</a>
</g>
</g>
</g>
</svg>
