<?xml version="1.0" encoding="UTF-8" standalone="no"?>
<!DOCTYPE svg PUBLIC "-//W3C//DTD SVG 1.1//EN"
 "http://www.w3.org/Graphics/SVG/1.1/DTD/svg11.dtd">
<!-- Generated by graphviz version 2.40.1 (20161225.0304)
 -->
<!-- Title: oneDegreeRelationshipsDiagram Pages: 1 -->
<svg width="278pt" height="209pt"
 viewBox="0.00 0.00 278.00 209.20" xmlns="http://www.w3.org/2000/svg" xmlns:xlink="http://www.w3.org/1999/xlink">
<g id="graph0" class="graph" transform="scale(1 1) rotate(0) translate(4 205.2)">
<title>oneDegreeRelationshipsDiagram</title>
<polygon fill="#ffffff" stroke="transparent" points="-4,4 -4,-205.2 274,-205.2 274,4 -4,4"/>
<text text-anchor="middle" x="72.4936" y="-7.3" font-family="Helvetica,sans-Serif" font-size="11.00" fill="#000000">Generated by SchemaSpy</text>
<!-- configured_current -->
<g id="node1" class="node">
<title>configured_current</title>
<g id="a_node1"><a xlink:href="../../tables/configured_current.html" xlink:title="configured_current" target="_top">
<polygon fill="#ffffff" stroke="transparent" points="8,-38.2 8,-197.2 262,-197.2 262,-38.2 8,-38.2"/>
<polygon fill="#f5f5f5" stroke="transparent" points="10,-171.7 10,-194.7 260,-194.7 260,-171.7 10,-171.7"/>
<polygon fill="none" stroke="#000000" points="10,-171.7 10,-194.7 260,-194.7 260,-171.7 10,-171.7"/>
<text text-anchor="start" x="15" y="-180.3" font-family="Helvetica,sans-Serif" font-weight="bold" font-size="11.00" fill="#000000">configured_current</text>
<text text-anchor="start" x="226.8895" y="-179.8" font-family="Helvetica,sans-Serif" font-size="11.00" fill="#000000">[view]</text>
<polygon fill="none" stroke="#000000" points="10,-149.7 10,-171.7 141,-171.7 141,-149.7 10,-149.7"/>
<text text-anchor="start" x="30" y="-156.8" font-family="Helvetica,sans-Serif" font-size="11.00" fill="#000000">id</text>
<polygon fill="none" stroke="#000000" points="141,-149.7 141,-171.7 260,-171.7 260,-149.7 141,-149.7"/>
<text text-anchor="start" x="144" y="-157.4" font-family="Helvetica,sans-Serif" font-size="11.00" fill="#000000">text[2147483647]</text>
<polygon fill="none" stroke="#000000" points="10,-127.7 10,-149.7 141,-149.7 141,-127.7 10,-127.7"/>
<text text-anchor="start" x="30" y="-134.8" font-family="Helvetica,sans-Serif" font-size="11.00" fill="#000000">configuration</text>
<polygon fill="none" stroke="#000000" points="141,-127.7 141,-149.7 260,-149.7 260,-127.7 141,-127.7"/>
<text text-anchor="start" x="144" y="-135.4" font-family="Helvetica,sans-Serif" font-size="11.00" fill="#000000">json[2147483647]</text>
<polygon fill="none" stroke="#000000" points="10,-105.7 10,-127.7 141,-127.7 141,-105.7 10,-105.7"/>
<text text-anchor="start" x="30" y="-112.8" font-family="Helvetica,sans-Serif" font-size="11.00" fill="#000000">name</text>
<polygon fill="none" stroke="#000000" points="141,-105.7 141,-127.7 260,-127.7 260,-105.7 141,-105.7"/>
<text text-anchor="start" x="144" y="-113.4" font-family="Helvetica,sans-Serif" font-size="11.00" fill="#000000">varchar[24]</text>
<polygon fill="none" stroke="#000000" points="10,-83.7 10,-105.7 141,-105.7 141,-83.7 10,-83.7"/>
<text text-anchor="start" x="30" y="-90.8" font-family="Helvetica,sans-Serif" font-size="11.00" fill="#000000">type</text>
<polygon fill="none" stroke="#000000" points="141,-83.7 141,-105.7 260,-105.7 260,-83.7 141,-83.7"/>
<text text-anchor="start" x="144" y="-91.4" font-family="Helvetica,sans-Serif" font-size="11.00" fill="#000000">varchar[2147483647]</text>
<polygon fill="none" stroke="#000000" points="10,-61.7 10,-83.7 141,-83.7 141,-61.7 10,-61.7"/>
<text text-anchor="start" x="30" y="-68.8" font-family="Helvetica,sans-Serif" font-size="11.00" fill="#000000">subtype</text>
<polygon fill="none" stroke="#000000" points="141,-61.7 141,-83.7 260,-83.7 260,-61.7 141,-61.7"/>
<text text-anchor="start" x="144" y="-69.4" font-family="Helvetica,sans-Serif" font-size="11.00" fill="#000000">varchar[2147483647]</text>
<polygon fill="none" stroke="#000000" points="10,-39.7 10,-61.7 141,-61.7 141,-39.7 10,-39.7"/>
<text text-anchor="start" x="30" y="-46.8" font-family="Helvetica,sans-Serif" font-size="11.00" fill="#000000">geom</text>
<polygon fill="none" stroke="#000000" points="141,-39.7 141,-61.7 260,-61.7 260,-39.7 141,-39.7"/>
<text text-anchor="start" x="143.9485" y="-47.4" font-family="Helvetica,sans-Serif" font-size="11.00" fill="#000000">geometry[2147483647]</text>
<polygon fill="none" stroke="#000000" stroke-width="2" points="9,-39.2 9,-196.2 261,-196.2 261,-39.2 9,-39.2"/>
</a>
</g>
</g>
</g>
</svg>
