<?xml version="1.0" encoding="UTF-8" standalone="no"?>
<!DOCTYPE svg PUBLIC "-//W3C//DTD SVG 1.1//EN"
 "http://www.w3.org/Graphics/SVG/1.1/DTD/svg11.dtd">
<!-- Generated by graphviz version 2.40.1 (20161225.0304)
 -->
<!-- Title: oneDegreeRelationshipsDiagram Pages: 1 -->
<svg width="401pt" height="183pt"
 viewBox="0.00 0.00 401.00 182.70" xmlns="http://www.w3.org/2000/svg" xmlns:xlink="http://www.w3.org/1999/xlink">
<g id="graph0" class="graph" transform="scale(1 1) rotate(0) translate(4 178.7)">
<title>oneDegreeRelationshipsDiagram</title>
<polygon fill="#ffffff" stroke="transparent" points="-4,4 -4,-178.7 397,-178.7 397,4 -4,4"/>
<text text-anchor="middle" x="72.4936" y="-7.3" font-family="Helvetica,sans-Serif" font-size="11.00" fill="#000000">Generated by SchemaSpy</text>
<!-- metadata -->
<g id="node1" class="node">
<title>metadata</title>
<g id="a_node1"><a xlink:href="../../tables/metadata.html" xlink:title="metadata" target="_top">
<polygon fill="#ffffff" stroke="transparent" points="267,-65.7 267,-170.7 385,-170.7 385,-65.7 267,-65.7"/>
<polygon fill="#f5f5f5" stroke="transparent" points="267,-147.2 267,-170.2 385,-170.2 385,-147.2 267,-147.2"/>
<polygon fill="none" stroke="#000000" points="267,-147.2 267,-170.2 385,-170.2 385,-147.2 267,-147.2"/>
<text text-anchor="start" x="272" y="-155.8" font-family="Helvetica,sans-Serif" font-weight="bold" font-size="11.00" fill="#000000">metadata</text>
<text text-anchor="start" x="350.0437" y="-155.3" font-family="Helvetica,sans-Serif" font-size="11.00" fill="#000000">[table]</text>
<polygon fill="#ffffff" stroke="transparent" points="267,-125.2 267,-147.2 385,-147.2 385,-125.2 267,-125.2"/>
<polygon fill="none" stroke="#000000" points="267,-125.2 267,-147.2 385,-147.2 385,-125.2 267,-125.2"/>
<text text-anchor="start" x="287" y="-132.3" font-family="Helvetica,sans-Serif" font-size="11.00" fill="#000000">id</text>
<polygon fill="none" stroke="#000000" points="267,-103.2 267,-125.2 385,-125.2 385,-103.2 267,-103.2"/>
<image xlink:href="../../images/foreignKeys.png" width="11px" height="12px" preserveAspectRatio="xMinYMin meet" x="272" y="-120.2"/>
<text text-anchor="start" x="287" y="-110.3" font-family="Helvetica,sans-Serif" font-size="11.00" fill="#000000">configuration</text>
<polygon fill="none" stroke="#000000" points="267,-84.2 267,-103.2 385,-103.2 385,-84.2 267,-84.2"/>
<text text-anchor="start" x="270" y="-90.3" font-family="Helvetica,sans-Serif" font-size="11.00" fill="#000000">...</text>
<polygon fill="#ffffff" stroke="transparent" points="267,-65.2 267,-84.2 311,-84.2 311,-65.2 267,-65.2"/>
<polygon fill="none" stroke="#000000" points="267,-65.2 267,-84.2 311,-84.2 311,-65.2 267,-65.2"/>
<text text-anchor="start" x="270" y="-71.3" font-family="Helvetica,sans-Serif" font-size="11.00" fill="#000000">&lt; 1</text>
<polygon fill="#ffffff" stroke="transparent" points="311,-65.2 311,-84.2 361,-84.2 361,-65.2 311,-65.2"/>
<polygon fill="none" stroke="#000000" points="311,-65.2 311,-84.2 361,-84.2 361,-65.2 311,-65.2"/>
<text text-anchor="start" x="325.6105" y="-71.3" font-family="Helvetica,sans-Serif" font-size="11.00" fill="#000000">0 rows</text>
<polygon fill="#ffffff" stroke="transparent" points="361,-65.2 361,-84.2 385,-84.2 385,-65.2 361,-65.2"/>
<polygon fill="none" stroke="#000000" points="361,-65.2 361,-84.2 385,-84.2 385,-65.2 361,-65.2"/>
<text text-anchor="start" x="375.8862" y="-71.3" font-family="Helvetica,sans-Serif" font-size="11.00" fill="#000000"> &#160;</text>
</a>
</g>
</g>
<!-- configuration -->
<g id="node2" class="node">
<title>configuration</title>
<g id="a_node2"><a xlink:href="../../tables/configuration.html" xlink:title="configuration" target="_top">
<polygon fill="#ffffff" stroke="transparent" points="8,-38.2 8,-150.2 218,-150.2 218,-38.2 8,-38.2"/>
<polygon fill="#f5f5f5" stroke="transparent" points="10,-125.2 10,-148.2 216,-148.2 216,-125.2 10,-125.2"/>
<polygon fill="none" stroke="#000000" points="10,-125.2 10,-148.2 216,-148.2 216,-125.2 10,-125.2"/>
<text text-anchor="start" x="15" y="-133.8" font-family="Helvetica,sans-Serif" font-weight="bold" font-size="11.00" fill="#000000">configuration</text>
<text text-anchor="start" x="181.0437" y="-133.3" font-family="Helvetica,sans-Serif" font-size="11.00" fill="#000000">[table]</text>
<polygon fill="none" stroke="#000000" points="10,-103.2 10,-125.2 107,-125.2 107,-103.2 10,-103.2"/>
<image xlink:href="../../images/primaryKeys.png" width="11px" height="12px" preserveAspectRatio="xMinYMin meet" x="15" y="-120.2"/>
<text text-anchor="start" x="30" y="-110.3" font-family="Helvetica,sans-Serif" font-size="11.00" fill="#000000">id</text>
<polygon fill="none" stroke="#000000" points="107,-103.2 107,-125.2 216,-125.2 216,-103.2 107,-103.2"/>
<text text-anchor="start" x="110" y="-110.9" font-family="Helvetica,sans-Serif" font-size="11.00" fill="#000000">serial[10]</text>
<polygon fill="#ffffff" stroke="transparent" points="10,-81.2 10,-103.2 107,-103.2 107,-81.2 10,-81.2"/>
<polygon fill="none" stroke="#000000" points="10,-81.2 10,-103.2 107,-103.2 107,-81.2 10,-81.2"/>
<text text-anchor="start" x="30" y="-88.3" font-family="Helvetica,sans-Serif" font-size="11.00" fill="#000000">name</text>
<polygon fill="none" stroke="#000000" points="107,-81.2 107,-103.2 216,-103.2 216,-81.2 107,-81.2"/>
<text text-anchor="start" x="110" y="-88.9" font-family="Helvetica,sans-Serif" font-size="11.00" fill="#000000">varchar[24]</text>
<polygon fill="none" stroke="#000000" points="10,-59.2 10,-81.2 107,-81.2 107,-59.2 10,-59.2"/>
<text text-anchor="start" x="30" y="-66.3" font-family="Helvetica,sans-Serif" font-size="11.00" fill="#000000">description</text>
<polygon fill="none" stroke="#000000" points="107,-59.2 107,-81.2 216,-81.2 216,-59.2 107,-59.2"/>
<text text-anchor="start" x="109.5344" y="-66.9" font-family="Helvetica,sans-Serif" font-size="11.00" fill="#000000">varchar[2147483647]</text>
<polygon fill="#ffffff" stroke="transparent" points="10,-40.2 10,-59.2 50,-59.2 50,-40.2 10,-40.2"/>
<polygon fill="none" stroke="#000000" points="10,-40.2 10,-59.2 50,-59.2 50,-40.2 10,-40.2"/>
<text text-anchor="start" x="13" y="-46.3" font-family="Helvetica,sans-Serif" font-size="11.00" fill="#000000">&lt; 0</text>
<polygon fill="#ffffff" stroke="transparent" points="50,-40.2 50,-59.2 107,-59.2 107,-40.2 50,-40.2"/>
<polygon fill="none" stroke="#000000" points="50,-40.2 50,-59.2 107,-59.2 107,-40.2 50,-40.2"/>
<text text-anchor="start" x="71.6105" y="-46.3" font-family="Helvetica,sans-Serif" font-size="11.00" fill="#000000">0 rows</text>
<polygon fill="#ffffff" stroke="transparent" points="107,-40.2 107,-59.2 216,-59.2 216,-40.2 107,-40.2"/>
<polygon fill="none" stroke="#000000" points="107,-40.2 107,-59.2 216,-59.2 216,-40.2 107,-40.2"/>
<text text-anchor="start" x="197.4053" y="-46.3" font-family="Helvetica,sans-Serif" font-size="11.00" fill="#000000">1 &gt;</text>
<polygon fill="none" stroke="#000000" stroke-width="2" points="9,-39.2 9,-149.2 217,-149.2 217,-39.2 9,-39.2"/>
</a>
</g>
</g>
<!-- metadata&#45;&gt;configuration -->
<g id="edge1" class="edge">
<title>metadata:w&#45;&gt;configuration:e</title>
<path fill="none" stroke="#000000" d="M252.276,-114.2C240.2815,-114.2 232.8229,-114.2 216,-114.2"/>
<polygon fill="#000000" stroke="#000000" points="259,-114.2001 267,-117.8 263,-114.2 267,-114.2 267,-114.2 267,-114.2 263,-114.2 267,-110.6 259,-114.2001 259,-114.2001"/>
<ellipse fill="none" stroke="#000000" cx="255.8" cy="-114.2001" rx="3.2" ry="3.2"/>
</g>
</g>
</svg>
