<?xml version="1.0" encoding="UTF-8" standalone="no"?>
<!DOCTYPE svg PUBLIC "-//W3C//DTD SVG 1.1//EN"
 "http://www.w3.org/Graphics/SVG/1.1/DTD/svg11.dtd">
<!-- Generated by graphviz version 2.40.1 (20161225.0304)
 -->
<!-- Title: oneDegreeRelationshipsDiagram Pages: 1 -->
<svg width="357pt" height="363pt"
 viewBox="0.00 0.00 357.00 363.20" xmlns="http://www.w3.org/2000/svg" xmlns:xlink="http://www.w3.org/1999/xlink">
<g id="graph0" class="graph" transform="scale(1 1) rotate(0) translate(4 359.2)">
<title>oneDegreeRelationshipsDiagram</title>
<polygon fill="#ffffff" stroke="transparent" points="-4,4 -4,-359.2 353,-359.2 353,4 -4,4"/>
<text text-anchor="middle" x="72.4936" y="-7.3" font-family="Helvetica,sans-Serif" font-size="11.00" fill="#000000">Generated by SchemaSpy</text>
<!-- connector_hydrology_link -->
<g id="node1" class="node">
<title>connector_hydrology_link</title>
<g id="a_node1"><a xlink:href="../../tables/connector_hydrology_link.html" xlink:title="connector_hydrology_link" target="_top">
<polygon fill="#ffffff" stroke="transparent" points="8,-38.2 8,-351.2 341,-351.2 341,-38.2 8,-38.2"/>
<polygon fill="#f5f5f5" stroke="transparent" points="10.5,-325.7 10.5,-348.7 339.5,-348.7 339.5,-325.7 10.5,-325.7"/>
<polygon fill="none" stroke="#000000" points="10.5,-325.7 10.5,-348.7 339.5,-348.7 339.5,-325.7 10.5,-325.7"/>
<text text-anchor="start" x="15.5" y="-334.3" font-family="Helvetica,sans-Serif" font-weight="bold" font-size="11.00" fill="#000000">connector_hydrology_link</text>
<text text-anchor="start" x="306.3895" y="-333.8" font-family="Helvetica,sans-Serif" font-size="11.00" fill="#000000">[view]</text>
<polygon fill="none" stroke="#000000" points="10.5,-303.7 10.5,-325.7 181.5,-325.7 181.5,-303.7 10.5,-303.7"/>
<text text-anchor="start" x="30.5" y="-310.8" font-family="Helvetica,sans-Serif" font-size="11.00" fill="#000000">id</text>
<polygon fill="none" stroke="#000000" points="181.5,-303.7 181.5,-325.7 339.5,-325.7 339.5,-303.7 181.5,-303.7"/>
<text text-anchor="start" x="184.5" y="-311.4" font-family="Helvetica,sans-Serif" font-size="11.00" fill="#000000">int4[10]</text>
<polygon fill="none" stroke="#000000" points="10.5,-281.7 10.5,-303.7 181.5,-303.7 181.5,-281.7 10.5,-281.7"/>
<text text-anchor="start" x="30.5" y="-288.8" font-family="Helvetica,sans-Serif" font-size="11.00" fill="#000000">name</text>
<polygon fill="none" stroke="#000000" points="181.5,-281.7 181.5,-303.7 339.5,-303.7 339.5,-281.7 181.5,-281.7"/>
<text text-anchor="start" x="184.5" y="-289.4" font-family="Helvetica,sans-Serif" font-size="11.00" fill="#000000">varchar[24]</text>
<polygon fill="none" stroke="#000000" points="10.5,-259.7 10.5,-281.7 181.5,-281.7 181.5,-259.7 10.5,-259.7"/>
<text text-anchor="start" x="30.5" y="-266.8" font-family="Helvetica,sans-Serif" font-size="11.00" fill="#000000">up</text>
<polygon fill="none" stroke="#000000" points="181.5,-259.7 181.5,-281.7 339.5,-281.7 339.5,-259.7 181.5,-259.7"/>
<text text-anchor="start" x="184.5" y="-267.4" font-family="Helvetica,sans-Serif" font-size="11.00" fill="#000000">int4[10]</text>
<polygon fill="none" stroke="#000000" points="10.5,-237.7 10.5,-259.7 181.5,-259.7 181.5,-237.7 10.5,-237.7"/>
<text text-anchor="start" x="30.5" y="-244.8" font-family="Helvetica,sans-Serif" font-size="11.00" fill="#000000">down</text>
<polygon fill="none" stroke="#000000" points="181.5,-237.7 181.5,-259.7 339.5,-259.7 339.5,-237.7 181.5,-237.7"/>
<text text-anchor="start" x="184.5" y="-245.4" font-family="Helvetica,sans-Serif" font-size="11.00" fill="#000000">int4[10]</text>
<polygon fill="none" stroke="#000000" points="10.5,-215.7 10.5,-237.7 181.5,-237.7 181.5,-215.7 10.5,-215.7"/>
<text text-anchor="start" x="30.5" y="-222.8" font-family="Helvetica,sans-Serif" font-size="11.00" fill="#000000">hydrograph</text>
<polygon fill="none" stroke="#000000" points="181.5,-215.7 181.5,-237.7 339.5,-237.7 339.5,-215.7 181.5,-215.7"/>
<text text-anchor="start" x="184.5" y="-223.4" font-family="Helvetica,sans-Serif" font-size="11.00" fill="#000000">int4[10]</text>
<polygon fill="none" stroke="#000000" points="10.5,-193.7 10.5,-215.7 181.5,-215.7 181.5,-193.7 10.5,-193.7"/>
<text text-anchor="start" x="30.5" y="-200.8" font-family="Helvetica,sans-Serif" font-size="11.00" fill="#000000">geom</text>
<polygon fill="none" stroke="#000000" points="181.5,-193.7 181.5,-215.7 339.5,-215.7 339.5,-193.7 181.5,-193.7"/>
<text text-anchor="start" x="184.5" y="-201.4" font-family="Helvetica,sans-Serif" font-size="11.00" fill="#000000">geometry[2147483647]</text>
<polygon fill="none" stroke="#000000" points="10.5,-171.7 10.5,-193.7 181.5,-193.7 181.5,-171.7 10.5,-171.7"/>
<text text-anchor="start" x="30.5" y="-178.8" font-family="Helvetica,sans-Serif" font-size="11.00" fill="#000000">configuration</text>
<polygon fill="none" stroke="#000000" points="181.5,-171.7 181.5,-193.7 339.5,-193.7 339.5,-171.7 181.5,-171.7"/>
<text text-anchor="start" x="184.5" y="-179.4" font-family="Helvetica,sans-Serif" font-size="11.00" fill="#000000">varchar[2147483647]</text>
<polygon fill="none" stroke="#000000" points="10.5,-149.7 10.5,-171.7 181.5,-171.7 181.5,-149.7 10.5,-149.7"/>
<text text-anchor="start" x="30.5" y="-156.8" font-family="Helvetica,sans-Serif" font-size="11.00" fill="#000000">generated</text>
<polygon fill="none" stroke="#000000" points="181.5,-149.7 181.5,-171.7 339.5,-171.7 339.5,-149.7 181.5,-149.7"/>
<text text-anchor="start" x="184.5" y="-157.4" font-family="Helvetica,sans-Serif" font-size="11.00" fill="#000000">int4[10]</text>
<polygon fill="none" stroke="#000000" points="10.5,-127.7 10.5,-149.7 181.5,-149.7 181.5,-127.7 10.5,-127.7"/>
<text text-anchor="start" x="30.5" y="-134.8" font-family="Helvetica,sans-Serif" font-size="11.00" fill="#000000">validity</text>
<polygon fill="none" stroke="#000000" points="181.5,-127.7 181.5,-149.7 339.5,-149.7 339.5,-127.7 181.5,-127.7"/>
<text text-anchor="start" x="184.5" y="-135.4" font-family="Helvetica,sans-Serif" font-size="11.00" fill="#000000">bool[1]</text>
<polygon fill="none" stroke="#000000" points="10.5,-105.7 10.5,-127.7 181.5,-127.7 181.5,-105.7 10.5,-105.7"/>
<text text-anchor="start" x="30.5" y="-112.8" font-family="Helvetica,sans-Serif" font-size="11.00" fill="#000000">up_type</text>
<polygon fill="none" stroke="#000000" points="181.5,-105.7 181.5,-127.7 339.5,-127.7 339.5,-105.7 181.5,-105.7"/>
<text text-anchor="start" x="184.3773" y="-113.4" font-family="Helvetica,sans-Serif" font-size="11.00" fill="#000000">hydra_node_type[2147483647]</text>
<polygon fill="none" stroke="#000000" points="10.5,-83.7 10.5,-105.7 181.5,-105.7 181.5,-83.7 10.5,-83.7"/>
<text text-anchor="start" x="30.5" y="-90.8" font-family="Helvetica,sans-Serif" font-size="11.00" fill="#000000">down_type</text>
<polygon fill="none" stroke="#000000" points="181.5,-83.7 181.5,-105.7 339.5,-105.7 339.5,-83.7 181.5,-83.7"/>
<text text-anchor="start" x="184.3773" y="-91.4" font-family="Helvetica,sans-Serif" font-size="11.00" fill="#000000">hydra_node_type[2147483647]</text>
<polygon fill="none" stroke="#000000" points="10.5,-61.7 10.5,-83.7 181.5,-83.7 181.5,-61.7 10.5,-61.7"/>
<text text-anchor="start" x="30.5" y="-68.8" font-family="Helvetica,sans-Serif" font-size="11.00" fill="#000000">configuration_json</text>
<polygon fill="none" stroke="#000000" points="181.5,-61.7 181.5,-83.7 339.5,-83.7 339.5,-61.7 181.5,-61.7"/>
<text text-anchor="start" x="184.5" y="-69.4" font-family="Helvetica,sans-Serif" font-size="11.00" fill="#000000">json[2147483647]</text>
<polygon fill="none" stroke="#000000" points="10.5,-39.7 10.5,-61.7 181.5,-61.7 181.5,-39.7 10.5,-39.7"/>
<text text-anchor="start" x="30.5" y="-46.8" font-family="Helvetica,sans-Serif" font-size="11.00" fill="#000000">comment</text>
<polygon fill="none" stroke="#000000" points="181.5,-39.7 181.5,-61.7 339.5,-61.7 339.5,-39.7 181.5,-39.7"/>
<text text-anchor="start" x="184.5" y="-47.4" font-family="Helvetica,sans-Serif" font-size="11.00" fill="#000000">varchar[2147483647]</text>
<polygon fill="none" stroke="#000000" stroke-width="2" points="9,-39.2 9,-350.2 340,-350.2 340,-39.2 9,-39.2"/>
</a>
</g>
</g>
</g>
</svg>
