<?xml version="1.0" encoding="UTF-8" standalone="no"?>
<!DOCTYPE svg PUBLIC "-//W3C//DTD SVG 1.1//EN"
 "http://www.w3.org/Graphics/SVG/1.1/DTD/svg11.dtd">
<!-- Generated by graphviz version 2.40.1 (20161225.0304)
 -->
<!-- Title: oneDegreeRelationshipsDiagram Pages: 1 -->
<svg width="349pt" height="363pt"
 viewBox="0.00 0.00 349.00 363.20" xmlns="http://www.w3.org/2000/svg" xmlns:xlink="http://www.w3.org/1999/xlink">
<g id="graph0" class="graph" transform="scale(1 1) rotate(0) translate(4 359.2)">
<title>oneDegreeRelationshipsDiagram</title>
<polygon fill="#ffffff" stroke="transparent" points="-4,4 -4,-359.2 345,-359.2 345,4 -4,4"/>
<text text-anchor="middle" x="72.4936" y="-7.3" font-family="Helvetica,sans-Serif" font-size="11.00" fill="#000000">Generated by SchemaSpy</text>
<!-- constrain -->
<g id="node1" class="node">
<title>constrain</title>
<g id="a_node1"><a xlink:href="../../tables/constrain.html" xlink:title="constrain" target="_top">
<polygon fill="#ffffff" stroke="transparent" points="8,-38.2 8,-351.2 333,-351.2 333,-38.2 8,-38.2"/>
<polygon fill="#f5f5f5" stroke="transparent" points="10.5,-325.7 10.5,-348.7 331.5,-348.7 331.5,-325.7 10.5,-325.7"/>
<polygon fill="none" stroke="#000000" points="10.5,-325.7 10.5,-348.7 331.5,-348.7 331.5,-325.7 10.5,-325.7"/>
<text text-anchor="start" x="15.5" y="-334.3" font-family="Helvetica,sans-Serif" font-weight="bold" font-size="11.00" fill="#000000">constrain</text>
<text text-anchor="start" x="298.3895" y="-333.8" font-family="Helvetica,sans-Serif" font-size="11.00" fill="#000000">[view]</text>
<polygon fill="none" stroke="#000000" points="10.5,-303.7 10.5,-325.7 153.5,-325.7 153.5,-303.7 10.5,-303.7"/>
<text text-anchor="start" x="30.5" y="-310.8" font-family="Helvetica,sans-Serif" font-size="11.00" fill="#000000">id</text>
<polygon fill="none" stroke="#000000" points="153.5,-303.7 153.5,-325.7 331.5,-325.7 331.5,-303.7 153.5,-303.7"/>
<text text-anchor="start" x="156.5" y="-311.4" font-family="Helvetica,sans-Serif" font-size="11.00" fill="#000000">int4[10]</text>
<polygon fill="none" stroke="#000000" points="10.5,-281.7 10.5,-303.7 153.5,-303.7 153.5,-281.7 10.5,-281.7"/>
<text text-anchor="start" x="30.5" y="-288.8" font-family="Helvetica,sans-Serif" font-size="11.00" fill="#000000">name</text>
<polygon fill="none" stroke="#000000" points="153.5,-281.7 153.5,-303.7 331.5,-303.7 331.5,-281.7 153.5,-281.7"/>
<text text-anchor="start" x="156.5" y="-289.4" font-family="Helvetica,sans-Serif" font-size="11.00" fill="#000000">varchar[16]</text>
<polygon fill="none" stroke="#000000" points="10.5,-259.7 10.5,-281.7 153.5,-281.7 153.5,-259.7 10.5,-259.7"/>
<text text-anchor="start" x="30.5" y="-266.8" font-family="Helvetica,sans-Serif" font-size="11.00" fill="#000000">geom</text>
<polygon fill="none" stroke="#000000" points="153.5,-259.7 153.5,-281.7 331.5,-281.7 331.5,-259.7 153.5,-259.7"/>
<text text-anchor="start" x="156.5" y="-267.4" font-family="Helvetica,sans-Serif" font-size="11.00" fill="#000000">geometry[2147483647]</text>
<polygon fill="none" stroke="#000000" points="10.5,-237.7 10.5,-259.7 153.5,-259.7 153.5,-237.7 10.5,-237.7"/>
<text text-anchor="start" x="30.5" y="-244.8" font-family="Helvetica,sans-Serif" font-size="11.00" fill="#000000">discretized</text>
<polygon fill="none" stroke="#000000" points="153.5,-237.7 153.5,-259.7 331.5,-259.7 331.5,-237.7 153.5,-237.7"/>
<text text-anchor="start" x="156.5" y="-245.4" font-family="Helvetica,sans-Serif" font-size="11.00" fill="#000000">geometry[2147483647]</text>
<polygon fill="none" stroke="#000000" points="10.5,-215.7 10.5,-237.7 153.5,-237.7 153.5,-215.7 10.5,-215.7"/>
<text text-anchor="start" x="30.5" y="-222.8" font-family="Helvetica,sans-Serif" font-size="11.00" fill="#000000">elem_length</text>
<polygon fill="none" stroke="#000000" points="153.5,-215.7 153.5,-237.7 331.5,-237.7 331.5,-215.7 153.5,-215.7"/>
<text text-anchor="start" x="156.5" y="-223.4" font-family="Helvetica,sans-Serif" font-size="11.00" fill="#000000">float4[8,8]</text>
<polygon fill="none" stroke="#000000" points="10.5,-193.7 10.5,-215.7 153.5,-215.7 153.5,-193.7 10.5,-193.7"/>
<text text-anchor="start" x="30.5" y="-200.8" font-family="Helvetica,sans-Serif" font-size="11.00" fill="#000000">constrain_type</text>
<polygon fill="none" stroke="#000000" points="153.5,-193.7 153.5,-215.7 331.5,-215.7 331.5,-193.7 153.5,-193.7"/>
<text text-anchor="start" x="156.2974" y="-201.4" font-family="Helvetica,sans-Serif" font-size="11.00" fill="#000000">hydra_constrain_type[2147483647]</text>
<polygon fill="none" stroke="#000000" points="10.5,-171.7 10.5,-193.7 153.5,-193.7 153.5,-171.7 10.5,-171.7"/>
<text text-anchor="start" x="30.5" y="-178.8" font-family="Helvetica,sans-Serif" font-size="11.00" fill="#000000">link_attributes</text>
<polygon fill="none" stroke="#000000" points="153.5,-171.7 153.5,-193.7 331.5,-193.7 331.5,-171.7 153.5,-171.7"/>
<text text-anchor="start" x="156.5" y="-179.4" font-family="Helvetica,sans-Serif" font-size="11.00" fill="#000000">json[2147483647]</text>
<polygon fill="none" stroke="#000000" points="10.5,-149.7 10.5,-171.7 153.5,-171.7 153.5,-149.7 10.5,-149.7"/>
<text text-anchor="start" x="30.5" y="-156.8" font-family="Helvetica,sans-Serif" font-size="11.00" fill="#000000">points_xyz</text>
<polygon fill="none" stroke="#000000" points="153.5,-149.7 153.5,-171.7 331.5,-171.7 331.5,-149.7 153.5,-149.7"/>
<text text-anchor="start" x="156.5" y="-157.4" font-family="Helvetica,sans-Serif" font-size="11.00" fill="#000000">int4[10]</text>
<polygon fill="none" stroke="#000000" points="10.5,-127.7 10.5,-149.7 153.5,-149.7 153.5,-127.7 10.5,-127.7"/>
<text text-anchor="start" x="30.5" y="-134.8" font-family="Helvetica,sans-Serif" font-size="11.00" fill="#000000">points_xyz_proximity</text>
<polygon fill="none" stroke="#000000" points="153.5,-127.7 153.5,-149.7 331.5,-149.7 331.5,-127.7 153.5,-127.7"/>
<text text-anchor="start" x="156.5" y="-135.4" font-family="Helvetica,sans-Serif" font-size="11.00" fill="#000000">float4[8,8]</text>
<polygon fill="none" stroke="#000000" points="10.5,-105.7 10.5,-127.7 153.5,-127.7 153.5,-105.7 10.5,-105.7"/>
<text text-anchor="start" x="30.5" y="-112.8" font-family="Helvetica,sans-Serif" font-size="11.00" fill="#000000">_is_3d</text>
<polygon fill="none" stroke="#000000" points="153.5,-105.7 153.5,-127.7 331.5,-127.7 331.5,-105.7 153.5,-105.7"/>
<text text-anchor="start" x="156.5" y="-113.4" font-family="Helvetica,sans-Serif" font-size="11.00" fill="#000000">bool[1]</text>
<polygon fill="none" stroke="#000000" points="10.5,-83.7 10.5,-105.7 153.5,-105.7 153.5,-83.7 10.5,-83.7"/>
<text text-anchor="start" x="30.5" y="-90.8" font-family="Helvetica,sans-Serif" font-size="11.00" fill="#000000">line_xyz</text>
<polygon fill="none" stroke="#000000" points="153.5,-83.7 153.5,-105.7 331.5,-105.7 331.5,-83.7 153.5,-83.7"/>
<text text-anchor="start" x="156.5" y="-91.4" font-family="Helvetica,sans-Serif" font-size="11.00" fill="#000000">int4[10]</text>
<polygon fill="none" stroke="#000000" points="10.5,-61.7 10.5,-83.7 153.5,-83.7 153.5,-61.7 10.5,-61.7"/>
<text text-anchor="start" x="30.5" y="-68.8" font-family="Helvetica,sans-Serif" font-size="11.00" fill="#000000">topo</text>
<polygon fill="none" stroke="#000000" points="153.5,-61.7 153.5,-83.7 331.5,-83.7 331.5,-61.7 153.5,-61.7"/>
<text text-anchor="start" x="156.5" y="-69.4" font-family="Helvetica,sans-Serif" font-size="11.00" fill="#000000">geometry[2147483647]</text>
<polygon fill="none" stroke="#000000" points="10.5,-39.7 10.5,-61.7 153.5,-61.7 153.5,-39.7 10.5,-39.7"/>
<text text-anchor="start" x="30.5" y="-46.8" font-family="Helvetica,sans-Serif" font-size="11.00" fill="#000000">comment</text>
<polygon fill="none" stroke="#000000" points="153.5,-39.7 153.5,-61.7 331.5,-61.7 331.5,-39.7 153.5,-39.7"/>
<text text-anchor="start" x="156.5" y="-47.4" font-family="Helvetica,sans-Serif" font-size="11.00" fill="#000000">varchar[2147483647]</text>
<polygon fill="none" stroke="#000000" stroke-width="2" points="9,-39.2 9,-350.2 332,-350.2 332,-39.2 9,-39.2"/>
</a>
</g>
</g>
</g>
</svg>
