<?xml version="1.0" encoding="UTF-8" standalone="no"?>
<!DOCTYPE svg PUBLIC "-//W3C//DTD SVG 1.1//EN"
 "http://www.w3.org/Graphics/SVG/1.1/DTD/svg11.dtd">
<!-- Generated by graphviz version 2.40.1 (20161225.0304)
 -->
<!-- Title: oneDegreeRelationshipsDiagram Pages: 1 -->
<svg width="306pt" height="297pt"
 viewBox="0.00 0.00 306.00 297.20" xmlns="http://www.w3.org/2000/svg" xmlns:xlink="http://www.w3.org/1999/xlink">
<g id="graph0" class="graph" transform="scale(1 1) rotate(0) translate(4 293.2)">
<title>oneDegreeRelationshipsDiagram</title>
<polygon fill="#ffffff" stroke="transparent" points="-4,4 -4,-293.2 302,-293.2 302,4 -4,4"/>
<text text-anchor="middle" x="72.4936" y="-7.3" font-family="Helvetica,sans-Serif" font-size="11.00" fill="#000000">Generated by SchemaSpy</text>
<!-- coted_point_with_interp -->
<g id="node1" class="node">
<title>coted_point_with_interp</title>
<g id="a_node1"><a xlink:href="../../tables/coted_point_with_interp.html" xlink:title="coted_point_with_interp" target="_top">
<polygon fill="#ffffff" stroke="transparent" points="8,-38.2 8,-285.2 290,-285.2 290,-38.2 8,-38.2"/>
<polygon fill="#f5f5f5" stroke="transparent" points="10,-259.7 10,-282.7 288,-282.7 288,-259.7 10,-259.7"/>
<polygon fill="none" stroke="#000000" points="10,-259.7 10,-282.7 288,-282.7 288,-259.7 10,-259.7"/>
<text text-anchor="start" x="15" y="-268.3" font-family="Helvetica,sans-Serif" font-weight="bold" font-size="11.00" fill="#000000">coted_point_with_interp</text>
<text text-anchor="start" x="254.8895" y="-267.8" font-family="Helvetica,sans-Serif" font-size="11.00" fill="#000000">[view]</text>
<polygon fill="none" stroke="#000000" points="10,-237.7 10,-259.7 169,-259.7 169,-237.7 10,-237.7"/>
<text text-anchor="start" x="30" y="-244.8" font-family="Helvetica,sans-Serif" font-size="11.00" fill="#000000">id</text>
<polygon fill="none" stroke="#000000" points="169,-237.7 169,-259.7 288,-259.7 288,-237.7 169,-237.7"/>
<text text-anchor="start" x="172" y="-245.4" font-family="Helvetica,sans-Serif" font-size="11.00" fill="#000000">int8[19]</text>
<polygon fill="none" stroke="#000000" points="10,-215.7 10,-237.7 169,-237.7 169,-215.7 10,-215.7"/>
<text text-anchor="start" x="30" y="-222.8" font-family="Helvetica,sans-Serif" font-size="11.00" fill="#000000">geom</text>
<polygon fill="none" stroke="#000000" points="169,-215.7 169,-237.7 288,-237.7 288,-215.7 169,-215.7"/>
<text text-anchor="start" x="171.9485" y="-223.4" font-family="Helvetica,sans-Serif" font-size="11.00" fill="#000000">geometry[2147483647]</text>
<polygon fill="none" stroke="#000000" points="10,-193.7 10,-215.7 169,-215.7 169,-193.7 10,-193.7"/>
<text text-anchor="start" x="30" y="-200.8" font-family="Helvetica,sans-Serif" font-size="11.00" fill="#000000">strt</text>
<polygon fill="none" stroke="#000000" points="169,-193.7 169,-215.7 288,-215.7 288,-193.7 169,-193.7"/>
<text text-anchor="start" x="172" y="-201.4" font-family="Helvetica,sans-Serif" font-size="11.00" fill="#000000">int4[10]</text>
<polygon fill="none" stroke="#000000" points="10,-171.7 10,-193.7 169,-193.7 169,-171.7 10,-171.7"/>
<text text-anchor="start" x="30" y="-178.8" font-family="Helvetica,sans-Serif" font-size="11.00" fill="#000000">nd</text>
<polygon fill="none" stroke="#000000" points="169,-171.7 169,-193.7 288,-193.7 288,-171.7 169,-171.7"/>
<text text-anchor="start" x="172" y="-179.4" font-family="Helvetica,sans-Serif" font-size="11.00" fill="#000000">int4[10]</text>
<polygon fill="none" stroke="#000000" points="10,-149.7 10,-171.7 169,-171.7 169,-149.7 10,-149.7"/>
<text text-anchor="start" x="30" y="-156.8" font-family="Helvetica,sans-Serif" font-size="11.00" fill="#000000">reach_rel_abs_strt</text>
<polygon fill="none" stroke="#000000" points="169,-149.7 169,-171.7 288,-171.7 288,-149.7 169,-149.7"/>
<text text-anchor="start" x="172" y="-157.4" font-family="Helvetica,sans-Serif" font-size="11.00" fill="#000000">float8[17,17]</text>
<polygon fill="none" stroke="#000000" points="10,-127.7 10,-149.7 169,-149.7 169,-127.7 10,-127.7"/>
<text text-anchor="start" x="30" y="-134.8" font-family="Helvetica,sans-Serif" font-size="11.00" fill="#000000">reach_rel_abs</text>
<polygon fill="none" stroke="#000000" points="169,-127.7 169,-149.7 288,-149.7 288,-127.7 169,-127.7"/>
<text text-anchor="start" x="172" y="-135.4" font-family="Helvetica,sans-Serif" font-size="11.00" fill="#000000">float8[17,17]</text>
<polygon fill="none" stroke="#000000" points="10,-105.7 10,-127.7 169,-127.7 169,-105.7 10,-105.7"/>
<text text-anchor="start" x="30" y="-112.8" font-family="Helvetica,sans-Serif" font-size="11.00" fill="#000000">reach_rel_abs_nd</text>
<polygon fill="none" stroke="#000000" points="169,-105.7 169,-127.7 288,-127.7 288,-105.7 169,-105.7"/>
<text text-anchor="start" x="172" y="-113.4" font-family="Helvetica,sans-Serif" font-size="11.00" fill="#000000">float8[17,17]</text>
<polygon fill="none" stroke="#000000" points="10,-83.7 10,-105.7 169,-105.7 169,-83.7 10,-83.7"/>
<text text-anchor="start" x="30" y="-90.8" font-family="Helvetica,sans-Serif" font-size="11.00" fill="#000000">lnk</text>
<polygon fill="none" stroke="#000000" points="169,-83.7 169,-105.7 288,-105.7 288,-83.7 169,-83.7"/>
<text text-anchor="start" x="171.9485" y="-91.4" font-family="Helvetica,sans-Serif" font-size="11.00" fill="#000000">geometry[2147483647]</text>
<polygon fill="none" stroke="#000000" points="10,-61.7 10,-83.7 169,-83.7 169,-61.7 10,-61.7"/>
<text text-anchor="start" x="30" y="-68.8" font-family="Helvetica,sans-Serif" font-size="11.00" fill="#000000">weight_strt</text>
<polygon fill="none" stroke="#000000" points="169,-61.7 169,-83.7 288,-83.7 288,-61.7 169,-61.7"/>
<text text-anchor="start" x="172" y="-69.4" font-family="Helvetica,sans-Serif" font-size="11.00" fill="#000000">float8[17,17]</text>
<polygon fill="none" stroke="#000000" points="10,-39.7 10,-61.7 169,-61.7 169,-39.7 10,-39.7"/>
<text text-anchor="start" x="30" y="-46.8" font-family="Helvetica,sans-Serif" font-size="11.00" fill="#000000">weight_nd</text>
<polygon fill="none" stroke="#000000" points="169,-39.7 169,-61.7 288,-61.7 288,-39.7 169,-39.7"/>
<text text-anchor="start" x="172" y="-47.4" font-family="Helvetica,sans-Serif" font-size="11.00" fill="#000000">float8[17,17]</text>
<polygon fill="none" stroke="#000000" stroke-width="2" points="9,-39.2 9,-284.2 289,-284.2 289,-39.2 9,-39.2"/>
</a>
</g>
</g>
</g>
</svg>
