<?xml version="1.0" encoding="UTF-8" standalone="no"?>
<!DOCTYPE svg PUBLIC "-//W3C//DTD SVG 1.1//EN"
 "http://www.w3.org/Graphics/SVG/1.1/DTD/svg11.dtd">
<!-- Generated by graphviz version 2.40.1 (20161225.0304)
 -->
<!-- Title: twoDegreesRelationshipsDiagram Pages: 1 -->
<svg width="475pt" height="246pt"
 viewBox="0.00 0.00 475.00 245.70" xmlns="http://www.w3.org/2000/svg" xmlns:xlink="http://www.w3.org/1999/xlink">
<g id="graph0" class="graph" transform="scale(1 1) rotate(0) translate(4 241.7)">
<title>twoDegreesRelationshipsDiagram</title>
<polygon fill="#ffffff" stroke="transparent" points="-4,4 -4,-241.7 471,-241.7 471,4 -4,4"/>
<text text-anchor="middle" x="72.4936" y="-7.3" font-family="Helvetica,sans-Serif" font-size="11.00" fill="#000000">Generated by SchemaSpy</text>
<!-- _storage_node -->
<g id="node1" class="node">
<title>_storage_node</title>
<g id="a_node1"><a xlink:href="../../tables/_storage_node.html" xlink:title="_storage_node" target="_top">
<polygon fill="#ffffff" stroke="transparent" points="335,-106.7 335,-233.7 459,-233.7 459,-106.7 335,-106.7"/>
<polygon fill="#f5f5f5" stroke="transparent" points="335,-210.2 335,-233.2 459,-233.2 459,-210.2 335,-210.2"/>
<polygon fill="none" stroke="#000000" points="335,-210.2 335,-233.2 459,-233.2 459,-210.2 335,-210.2"/>
<text text-anchor="start" x="340" y="-218.8" font-family="Helvetica,sans-Serif" font-weight="bold" font-size="11.00" fill="#000000">_storage_node</text>
<text text-anchor="start" x="424.5219" y="-218.3" font-family="Helvetica,sans-Serif" font-size="11.00" fill="#000000">[table]</text>
<polygon fill="#ffffff" stroke="transparent" points="335,-188.2 335,-210.2 459,-210.2 459,-188.2 335,-188.2"/>
<polygon fill="none" stroke="#000000" points="335,-188.2 335,-210.2 459,-210.2 459,-188.2 335,-188.2"/>
<image xlink:href="../../images/foreignKeys.png" width="11px" height="12px" preserveAspectRatio="xMinYMin meet" x="340" y="-205.2"/>
<text text-anchor="start" x="359" y="-195.3" font-family="Helvetica,sans-Serif" font-size="11.00" fill="#000000">id</text>
<polygon fill="none" stroke="#000000" points="335,-166.2 335,-188.2 459,-188.2 459,-166.2 335,-166.2"/>
<image xlink:href="../../images/foreignKeys.png" width="11px" height="12px" preserveAspectRatio="xMinYMin meet" x="340" y="-183.2"/>
<text text-anchor="start" x="359" y="-173.3" font-family="Helvetica,sans-Serif" font-size="11.00" fill="#000000">node_type</text>
<polygon fill="#ffffff" stroke="transparent" points="335,-144.2 335,-166.2 459,-166.2 459,-144.2 335,-144.2"/>
<polygon fill="none" stroke="#000000" points="335,-144.2 335,-166.2 459,-166.2 459,-144.2 335,-144.2"/>
<image xlink:href="../../images/foreignKeys.png" width="11px" height="12px" preserveAspectRatio="xMinYMin meet" x="340" y="-161.2"/>
<text text-anchor="start" x="359" y="-151.3" font-family="Helvetica,sans-Serif" font-size="11.00" fill="#000000">contour</text>
<polygon fill="none" stroke="#000000" points="335,-125.2 335,-144.2 459,-144.2 459,-125.2 335,-125.2"/>
<text text-anchor="start" x="338" y="-131.3" font-family="Helvetica,sans-Serif" font-size="11.00" fill="#000000">...</text>
<polygon fill="#ffffff" stroke="transparent" points="335,-106.2 335,-125.2 382,-125.2 382,-106.2 335,-106.2"/>
<polygon fill="none" stroke="#000000" points="335,-106.2 335,-125.2 382,-125.2 382,-106.2 335,-106.2"/>
<text text-anchor="start" x="338" y="-112.3" font-family="Helvetica,sans-Serif" font-size="11.00" fill="#000000">&lt; 3</text>
<polygon fill="#ffffff" stroke="transparent" points="382,-106.2 382,-125.2 433,-125.2 433,-106.2 382,-106.2"/>
<polygon fill="none" stroke="#000000" points="382,-106.2 382,-125.2 433,-125.2 433,-106.2 382,-106.2"/>
<text text-anchor="start" x="397.6105" y="-112.3" font-family="Helvetica,sans-Serif" font-size="11.00" fill="#000000">0 rows</text>
<polygon fill="#ffffff" stroke="transparent" points="433,-106.2 433,-125.2 459,-125.2 459,-106.2 433,-106.2"/>
<polygon fill="none" stroke="#000000" points="433,-106.2 433,-125.2 459,-125.2 459,-106.2 433,-106.2"/>
<text text-anchor="start" x="449.8862" y="-112.3" font-family="Helvetica,sans-Serif" font-size="11.00" fill="#000000"> &#160;</text>
</a>
</g>
</g>
<!-- coverage -->
<g id="node2" class="node">
<title>coverage</title>
<g id="a_node2"><a xlink:href="../../tables/coverage.html" xlink:title="coverage" target="_top">
<polygon fill="#ffffff" stroke="transparent" points="8,-38.2 8,-150.2 286,-150.2 286,-38.2 8,-38.2"/>
<polygon fill="#f5f5f5" stroke="transparent" points="10,-125.2 10,-148.2 284,-148.2 284,-125.2 10,-125.2"/>
<polygon fill="none" stroke="#000000" points="10,-125.2 10,-148.2 284,-148.2 284,-125.2 10,-125.2"/>
<text text-anchor="start" x="15" y="-133.8" font-family="Helvetica,sans-Serif" font-weight="bold" font-size="11.00" fill="#000000">coverage</text>
<text text-anchor="start" x="249.0437" y="-133.3" font-family="Helvetica,sans-Serif" font-size="11.00" fill="#000000">[table]</text>
<polygon fill="none" stroke="#000000" points="10,-103.2 10,-125.2 105,-125.2 105,-103.2 10,-103.2"/>
<image xlink:href="../../images/primaryKeys.png" width="11px" height="12px" preserveAspectRatio="xMinYMin meet" x="15" y="-120.2"/>
<text text-anchor="start" x="30" y="-110.3" font-family="Helvetica,sans-Serif" font-size="11.00" fill="#000000">id</text>
<polygon fill="none" stroke="#000000" points="105,-103.2 105,-125.2 284,-125.2 284,-103.2 105,-103.2"/>
<text text-anchor="start" x="108" y="-110.9" font-family="Helvetica,sans-Serif" font-size="11.00" fill="#000000">serial[10]</text>
<polygon fill="none" stroke="#000000" points="10,-81.2 10,-103.2 105,-103.2 105,-81.2 10,-81.2"/>
<text text-anchor="start" x="30" y="-88.3" font-family="Helvetica,sans-Serif" font-size="11.00" fill="#000000">domain_type</text>
<polygon fill="none" stroke="#000000" points="105,-81.2 105,-103.2 284,-103.2 284,-81.2 105,-81.2"/>
<text text-anchor="start" x="107.9889" y="-88.9" font-family="Helvetica,sans-Serif" font-size="11.00" fill="#000000">hydra_coverage_type[2147483647]</text>
<polygon fill="#ffffff" stroke="transparent" points="10,-59.2 10,-81.2 105,-81.2 105,-59.2 10,-59.2"/>
<polygon fill="none" stroke="#000000" points="10,-59.2 10,-81.2 105,-81.2 105,-59.2 10,-59.2"/>
<text text-anchor="start" x="30" y="-66.3" font-family="Helvetica,sans-Serif" font-size="11.00" fill="#000000">geom</text>
<polygon fill="none" stroke="#000000" points="105,-59.2 105,-81.2 284,-81.2 284,-59.2 105,-59.2"/>
<text text-anchor="start" x="108" y="-66.9" font-family="Helvetica,sans-Serif" font-size="11.00" fill="#000000">geometry[2147483647]</text>
<polygon fill="#ffffff" stroke="transparent" points="10,-40.2 10,-59.2 49,-59.2 49,-40.2 10,-40.2"/>
<polygon fill="none" stroke="#000000" points="10,-40.2 10,-59.2 49,-59.2 49,-40.2 10,-40.2"/>
<text text-anchor="start" x="13" y="-46.3" font-family="Helvetica,sans-Serif" font-size="11.00" fill="#000000">&lt; 0</text>
<polygon fill="#ffffff" stroke="transparent" points="49,-40.2 49,-59.2 105,-59.2 105,-40.2 49,-40.2"/>
<polygon fill="none" stroke="#000000" points="49,-40.2 49,-59.2 105,-59.2 105,-40.2 49,-40.2"/>
<text text-anchor="start" x="69.6105" y="-46.3" font-family="Helvetica,sans-Serif" font-size="11.00" fill="#000000">0 rows</text>
<polygon fill="#ffffff" stroke="transparent" points="105,-40.2 105,-59.2 284,-59.2 284,-40.2 105,-40.2"/>
<polygon fill="none" stroke="#000000" points="105,-40.2 105,-59.2 284,-59.2 284,-40.2 105,-40.2"/>
<text text-anchor="start" x="265.4053" y="-46.3" font-family="Helvetica,sans-Serif" font-size="11.00" fill="#000000">1 &gt;</text>
<polygon fill="none" stroke="#000000" stroke-width="2" points="9,-39.2 9,-149.2 285,-149.2 285,-39.2 9,-39.2"/>
</a>
</g>
</g>
<!-- _storage_node&#45;&gt;coverage -->
<g id="edge1" class="edge">
<title>_storage_node:w&#45;&gt;coverage:e</title>
<path fill="none" stroke="#000000" d="M324.6795,-152.9957C307.2155,-144.4795 308.9933,-114.2 284,-114.2"/>
<polygon fill="#000000" stroke="#000000" points="335.0532,-151.1211 333.3821,-158.9447 331.8174,-158.6104 333.4885,-150.7869 335.0532,-151.1211"/>
<polyline fill="none" stroke="#000000" points="335,-155.2 331.0882,-154.3645 "/>
<ellipse fill="none" stroke="#000000" cx="327.9588" cy="-153.696" rx="3.2" ry="3.2"/>
</g>
<!-- _node -->
<g id="node3" class="node">
<title>_node</title>
<g id="a_node3"><a xlink:href="../../tables/_node.html" xlink:title="_node" target="_top">
<polygon fill="#ffffff" stroke="transparent" points="104,-171.7 104,-232.7 190,-232.7 190,-171.7 104,-171.7"/>
<polygon fill="#f5f5f5" stroke="transparent" points="104,-209.2 104,-232.2 190,-232.2 190,-209.2 104,-209.2"/>
<polygon fill="none" stroke="#000000" points="104,-209.2 104,-232.2 190,-232.2 190,-209.2 104,-209.2"/>
<text text-anchor="start" x="109" y="-217.8" font-family="Helvetica,sans-Serif" font-weight="bold" font-size="11.00" fill="#000000">_node</text>
<text text-anchor="start" x="155.0437" y="-217.3" font-family="Helvetica,sans-Serif" font-size="11.00" fill="#000000">[table]</text>
<polygon fill="none" stroke="#000000" points="104,-190.2 104,-209.2 190,-209.2 190,-190.2 104,-190.2"/>
<text text-anchor="start" x="107" y="-196.3" font-family="Helvetica,sans-Serif" font-size="11.00" fill="#000000">...</text>
<polygon fill="#ffffff" stroke="transparent" points="104,-171.2 104,-190.2 125,-190.2 125,-171.2 104,-171.2"/>
<polygon fill="none" stroke="#000000" points="104,-171.2 104,-190.2 125,-190.2 125,-171.2 104,-171.2"/>
<text text-anchor="start" x="106.7027" y="-177.3" font-family="Helvetica,sans-Serif" font-size="11.00" fill="#000000">&lt; 1</text>
<polygon fill="#ffffff" stroke="transparent" points="125,-171.2 125,-190.2 163,-190.2 163,-171.2 125,-171.2"/>
<polygon fill="none" stroke="#000000" points="125,-171.2 125,-190.2 163,-190.2 163,-171.2 125,-171.2"/>
<text text-anchor="start" x="127.8053" y="-177.3" font-family="Helvetica,sans-Serif" font-size="11.00" fill="#000000">0 rows</text>
<polygon fill="#ffffff" stroke="transparent" points="163,-171.2 163,-190.2 190,-190.2 190,-171.2 163,-171.2"/>
<polygon fill="none" stroke="#000000" points="163,-171.2 163,-190.2 190,-190.2 190,-171.2 163,-171.2"/>
<text text-anchor="start" x="165.6452" y="-177.3" font-family="Helvetica,sans-Serif" font-size="11.00" fill="#000000">24 &gt;</text>
</a>
</g>
</g>
<!-- _storage_node&#45;&gt;_node -->
<g id="edge2" class="edge">
<title>_storage_node:w&#45;&gt;_node:e</title>
<path fill="none" stroke="#000000" d="M324.4971,-199.2C268.5754,-199.2 250.7943,-199.2 190,-199.2"/>
<polygon fill="#000000" stroke="#000000" points="334.2,-195.2 334.2,-203.2 332.6,-203.2 332.6,-195.2 334.2,-195.2"/>
<polyline fill="none" stroke="#000000" points="335,-199.2 331,-199.2 "/>
<ellipse fill="none" stroke="#000000" cx="327.8" cy="-199.2001" rx="3.2" ry="3.2"/>
</g>
<!-- _storage_node&#45;&gt;_node -->
<g id="edge3" class="edge">
<title>_storage_node:w&#45;&gt;_node:e</title>
<path fill="none" stroke="#000000" d="M320.6003,-177.5819C267.2226,-180.5032 250.0896,-199.2 190,-199.2"/>
<polygon fill="#000000" stroke="#000000" points="327.0028,-177.4121 335.0955,-180.7987 331.0014,-177.3061 335,-177.2 335,-177.2 335,-177.2 331.0014,-177.3061 334.9045,-173.6013 327.0028,-177.4121 327.0028,-177.4121"/>
<ellipse fill="none" stroke="#000000" cx="323.8039" cy="-177.497" rx="3.2" ry="3.2"/>
</g>
</g>
</svg>
