<?xml version="1.0" encoding="UTF-8" standalone="no"?>
<!DOCTYPE svg PUBLIC "-//W3C//DTD SVG 1.1//EN"
 "http://www.w3.org/Graphics/SVG/1.1/DTD/svg11.dtd">
<!-- Generated by graphviz version 2.40.1 (20161225.0304)
 -->
<!-- Title: oneDegreeRelationshipsDiagram Pages: 1 -->
<svg width="267pt" height="206pt"
 viewBox="0.00 0.00 267.00 206.20" xmlns="http://www.w3.org/2000/svg" xmlns:xlink="http://www.w3.org/1999/xlink">
<g id="graph0" class="graph" transform="scale(1 1) rotate(0) translate(4 202.2)">
<title>oneDegreeRelationshipsDiagram</title>
<polygon fill="#ffffff" stroke="transparent" points="-4,4 -4,-202.2 263,-202.2 263,4 -4,4"/>
<text text-anchor="middle" x="72.4936" y="-7.3" font-family="Helvetica,sans-Serif" font-size="11.00" fill="#000000">Generated by SchemaSpy</text>
<!-- coverage_marker -->
<g id="node1" class="node">
<title>coverage_marker</title>
<g id="a_node1"><a xlink:href="../../tables/coverage_marker.html" xlink:title="coverage_marker" target="_top">
<polygon fill="#ffffff" stroke="transparent" points="8,-38.2 8,-194.2 251,-194.2 251,-38.2 8,-38.2"/>
<polygon fill="#f5f5f5" stroke="transparent" points="10.5,-169.2 10.5,-192.2 249.5,-192.2 249.5,-169.2 10.5,-169.2"/>
<polygon fill="none" stroke="#000000" points="10.5,-169.2 10.5,-192.2 249.5,-192.2 249.5,-169.2 10.5,-169.2"/>
<text text-anchor="start" x="15.5" y="-177.8" font-family="Helvetica,sans-Serif" font-weight="bold" font-size="11.00" fill="#000000">coverage_marker</text>
<text text-anchor="start" x="214.5437" y="-177.3" font-family="Helvetica,sans-Serif" font-size="11.00" fill="#000000">[table]</text>
<polygon fill="none" stroke="#000000" points="10.5,-147.2 10.5,-169.2 130.5,-169.2 130.5,-147.2 10.5,-147.2"/>
<image xlink:href="../../images/primaryKeys.png" width="11px" height="12px" preserveAspectRatio="xMinYMin meet" x="15.5" y="-164.2"/>
<text text-anchor="start" x="30.5" y="-154.3" font-family="Helvetica,sans-Serif" font-size="11.00" fill="#000000">id</text>
<polygon fill="none" stroke="#000000" points="130.5,-147.2 130.5,-169.2 249.5,-169.2 249.5,-147.2 130.5,-147.2"/>
<text text-anchor="start" x="133.5" y="-154.9" font-family="Helvetica,sans-Serif" font-size="11.00" fill="#000000">serial[10]</text>
<polygon fill="#ffffff" stroke="transparent" points="10.5,-125.2 10.5,-147.2 130.5,-147.2 130.5,-125.2 10.5,-125.2"/>
<polygon fill="none" stroke="#000000" points="10.5,-125.2 10.5,-147.2 130.5,-147.2 130.5,-125.2 10.5,-125.2"/>
<text text-anchor="start" x="30.5" y="-132.3" font-family="Helvetica,sans-Serif" font-size="11.00" fill="#000000">name</text>
<polygon fill="none" stroke="#000000" points="130.5,-125.2 130.5,-147.2 249.5,-147.2 249.5,-125.2 130.5,-125.2"/>
<text text-anchor="start" x="133.5" y="-132.9" font-family="Helvetica,sans-Serif" font-size="11.00" fill="#000000">varchar[24]</text>
<polygon fill="none" stroke="#000000" points="10.5,-103.2 10.5,-125.2 130.5,-125.2 130.5,-103.2 10.5,-103.2"/>
<text text-anchor="start" x="30.5" y="-110.3" font-family="Helvetica,sans-Serif" font-size="11.00" fill="#000000">comment</text>
<polygon fill="none" stroke="#000000" points="130.5,-103.2 130.5,-125.2 249.5,-125.2 249.5,-103.2 130.5,-103.2"/>
<text text-anchor="start" x="133.5" y="-110.9" font-family="Helvetica,sans-Serif" font-size="11.00" fill="#000000">varchar[256]</text>
<polygon fill="none" stroke="#000000" points="10.5,-81.2 10.5,-103.2 130.5,-103.2 130.5,-81.2 10.5,-81.2"/>
<text text-anchor="start" x="30.5" y="-88.3" font-family="Helvetica,sans-Serif" font-size="11.00" fill="#000000">protected</text>
<polygon fill="none" stroke="#000000" points="130.5,-81.2 130.5,-103.2 249.5,-103.2 249.5,-81.2 130.5,-81.2"/>
<text text-anchor="start" x="133.5" y="-88.9" font-family="Helvetica,sans-Serif" font-size="11.00" fill="#000000">bool[1]</text>
<polygon fill="none" stroke="#000000" points="10.5,-59.2 10.5,-81.2 130.5,-81.2 130.5,-59.2 10.5,-59.2"/>
<text text-anchor="start" x="30.5" y="-66.3" font-family="Helvetica,sans-Serif" font-size="11.00" fill="#000000">geom</text>
<polygon fill="none" stroke="#000000" points="130.5,-59.2 130.5,-81.2 249.5,-81.2 249.5,-59.2 130.5,-59.2"/>
<text text-anchor="start" x="133.4485" y="-66.9" font-family="Helvetica,sans-Serif" font-size="11.00" fill="#000000">geometry[2147483647]</text>
<polygon fill="#ffffff" stroke="transparent" points="10.5,-40.2 10.5,-59.2 61.5,-59.2 61.5,-40.2 10.5,-40.2"/>
<polygon fill="none" stroke="#000000" points="10.5,-40.2 10.5,-59.2 61.5,-59.2 61.5,-40.2 10.5,-40.2"/>
<text text-anchor="start" x="13.5" y="-46.3" font-family="Helvetica,sans-Serif" font-size="11.00" fill="#000000">&lt; 0</text>
<polygon fill="#ffffff" stroke="transparent" points="61.5,-40.2 61.5,-59.2 130.5,-59.2 130.5,-40.2 61.5,-40.2"/>
<polygon fill="none" stroke="#000000" points="61.5,-40.2 61.5,-59.2 130.5,-59.2 130.5,-40.2 61.5,-40.2"/>
<text text-anchor="start" x="95.1105" y="-46.3" font-family="Helvetica,sans-Serif" font-size="11.00" fill="#000000">0 rows</text>
<polygon fill="#ffffff" stroke="transparent" points="130.5,-40.2 130.5,-59.2 249.5,-59.2 249.5,-40.2 130.5,-40.2"/>
<polygon fill="none" stroke="#000000" points="130.5,-40.2 130.5,-59.2 249.5,-59.2 249.5,-40.2 130.5,-40.2"/>
<text text-anchor="start" x="230.9053" y="-46.3" font-family="Helvetica,sans-Serif" font-size="11.00" fill="#000000">0 &gt;</text>
<polygon fill="none" stroke="#000000" stroke-width="2" points="9,-39.2 9,-193.2 250,-193.2 250,-39.2 9,-39.2"/>
</a>
</g>
</g>
</g>
</svg>
