<?xml version="1.0" encoding="UTF-8" standalone="no"?>
<!DOCTYPE svg PUBLIC "-//W3C//DTD SVG 1.1//EN"
 "http://www.w3.org/Graphics/SVG/1.1/DTD/svg11.dtd">
<!-- Generated by graphviz version 2.40.1 (20161225.0304)
 -->
<!-- Title: oneDegreeRelationshipsDiagram Pages: 1 -->
<svg width="475pt" height="205pt"
 viewBox="0.00 0.00 475.00 204.70" xmlns="http://www.w3.org/2000/svg" xmlns:xlink="http://www.w3.org/1999/xlink">
<g id="graph0" class="graph" transform="scale(1 1) rotate(0) translate(4 200.7)">
<title>oneDegreeRelationshipsDiagram</title>
<polygon fill="#ffffff" stroke="transparent" points="-4,4 -4,-200.7 471,-200.7 471,4 -4,4"/>
<text text-anchor="middle" x="72.4936" y="-7.3" font-family="Helvetica,sans-Serif" font-size="11.00" fill="#000000">Generated by SchemaSpy</text>
<!-- _storage_node -->
<g id="node1" class="node">
<title>_storage_node</title>
<g id="a_node1"><a xlink:href="../../tables/_storage_node.html" xlink:title="_storage_node" target="_top">
<polygon fill="#ffffff" stroke="transparent" points="335,-65.7 335,-192.7 459,-192.7 459,-65.7 335,-65.7"/>
<polygon fill="#f5f5f5" stroke="transparent" points="335,-169.2 335,-192.2 459,-192.2 459,-169.2 335,-169.2"/>
<polygon fill="none" stroke="#000000" points="335,-169.2 335,-192.2 459,-192.2 459,-169.2 335,-169.2"/>
<text text-anchor="start" x="340" y="-177.8" font-family="Helvetica,sans-Serif" font-weight="bold" font-size="11.00" fill="#000000">_storage_node</text>
<text text-anchor="start" x="424.5219" y="-177.3" font-family="Helvetica,sans-Serif" font-size="11.00" fill="#000000">[table]</text>
<polygon fill="#ffffff" stroke="transparent" points="335,-147.2 335,-169.2 459,-169.2 459,-147.2 335,-147.2"/>
<polygon fill="none" stroke="#000000" points="335,-147.2 335,-169.2 459,-169.2 459,-147.2 335,-147.2"/>
<image xlink:href="../../images/foreignKeys.png" width="11px" height="12px" preserveAspectRatio="xMinYMin meet" x="340" y="-164.2"/>
<text text-anchor="start" x="359" y="-154.3" font-family="Helvetica,sans-Serif" font-size="11.00" fill="#000000">id</text>
<polygon fill="none" stroke="#000000" points="335,-125.2 335,-147.2 459,-147.2 459,-125.2 335,-125.2"/>
<image xlink:href="../../images/foreignKeys.png" width="11px" height="12px" preserveAspectRatio="xMinYMin meet" x="340" y="-142.2"/>
<text text-anchor="start" x="359" y="-132.3" font-family="Helvetica,sans-Serif" font-size="11.00" fill="#000000">node_type</text>
<polygon fill="#ffffff" stroke="transparent" points="335,-103.2 335,-125.2 459,-125.2 459,-103.2 335,-103.2"/>
<polygon fill="none" stroke="#000000" points="335,-103.2 335,-125.2 459,-125.2 459,-103.2 335,-103.2"/>
<image xlink:href="../../images/foreignKeys.png" width="11px" height="12px" preserveAspectRatio="xMinYMin meet" x="340" y="-120.2"/>
<text text-anchor="start" x="359" y="-110.3" font-family="Helvetica,sans-Serif" font-size="11.00" fill="#000000">contour</text>
<polygon fill="none" stroke="#000000" points="335,-84.2 335,-103.2 459,-103.2 459,-84.2 335,-84.2"/>
<text text-anchor="start" x="338" y="-90.3" font-family="Helvetica,sans-Serif" font-size="11.00" fill="#000000">...</text>
<polygon fill="#ffffff" stroke="transparent" points="335,-65.2 335,-84.2 382,-84.2 382,-65.2 335,-65.2"/>
<polygon fill="none" stroke="#000000" points="335,-65.2 335,-84.2 382,-84.2 382,-65.2 335,-65.2"/>
<text text-anchor="start" x="338" y="-71.3" font-family="Helvetica,sans-Serif" font-size="11.00" fill="#000000">&lt; 3</text>
<polygon fill="#ffffff" stroke="transparent" points="382,-65.2 382,-84.2 433,-84.2 433,-65.2 382,-65.2"/>
<polygon fill="none" stroke="#000000" points="382,-65.2 382,-84.2 433,-84.2 433,-65.2 382,-65.2"/>
<text text-anchor="start" x="397.6105" y="-71.3" font-family="Helvetica,sans-Serif" font-size="11.00" fill="#000000">0 rows</text>
<polygon fill="#ffffff" stroke="transparent" points="433,-65.2 433,-84.2 459,-84.2 459,-65.2 433,-65.2"/>
<polygon fill="none" stroke="#000000" points="433,-65.2 433,-84.2 459,-84.2 459,-65.2 433,-65.2"/>
<text text-anchor="start" x="449.8862" y="-71.3" font-family="Helvetica,sans-Serif" font-size="11.00" fill="#000000"> &#160;</text>
</a>
</g>
</g>
<!-- coverage -->
<g id="node2" class="node">
<title>coverage</title>
<g id="a_node2"><a xlink:href="../../tables/coverage.html" xlink:title="coverage" target="_top">
<polygon fill="#ffffff" stroke="transparent" points="8,-38.2 8,-150.2 286,-150.2 286,-38.2 8,-38.2"/>
<polygon fill="#f5f5f5" stroke="transparent" points="10,-125.2 10,-148.2 284,-148.2 284,-125.2 10,-125.2"/>
<polygon fill="none" stroke="#000000" points="10,-125.2 10,-148.2 284,-148.2 284,-125.2 10,-125.2"/>
<text text-anchor="start" x="15" y="-133.8" font-family="Helvetica,sans-Serif" font-weight="bold" font-size="11.00" fill="#000000">coverage</text>
<text text-anchor="start" x="249.0437" y="-133.3" font-family="Helvetica,sans-Serif" font-size="11.00" fill="#000000">[table]</text>
<polygon fill="none" stroke="#000000" points="10,-103.2 10,-125.2 105,-125.2 105,-103.2 10,-103.2"/>
<image xlink:href="../../images/primaryKeys.png" width="11px" height="12px" preserveAspectRatio="xMinYMin meet" x="15" y="-120.2"/>
<text text-anchor="start" x="30" y="-110.3" font-family="Helvetica,sans-Serif" font-size="11.00" fill="#000000">id</text>
<polygon fill="none" stroke="#000000" points="105,-103.2 105,-125.2 284,-125.2 284,-103.2 105,-103.2"/>
<text text-anchor="start" x="108" y="-110.9" font-family="Helvetica,sans-Serif" font-size="11.00" fill="#000000">serial[10]</text>
<polygon fill="none" stroke="#000000" points="10,-81.2 10,-103.2 105,-103.2 105,-81.2 10,-81.2"/>
<text text-anchor="start" x="30" y="-88.3" font-family="Helvetica,sans-Serif" font-size="11.00" fill="#000000">domain_type</text>
<polygon fill="none" stroke="#000000" points="105,-81.2 105,-103.2 284,-103.2 284,-81.2 105,-81.2"/>
<text text-anchor="start" x="107.9889" y="-88.9" font-family="Helvetica,sans-Serif" font-size="11.00" fill="#000000">hydra_coverage_type[2147483647]</text>
<polygon fill="#ffffff" stroke="transparent" points="10,-59.2 10,-81.2 105,-81.2 105,-59.2 10,-59.2"/>
<polygon fill="none" stroke="#000000" points="10,-59.2 10,-81.2 105,-81.2 105,-59.2 10,-59.2"/>
<text text-anchor="start" x="30" y="-66.3" font-family="Helvetica,sans-Serif" font-size="11.00" fill="#000000">geom</text>
<polygon fill="none" stroke="#000000" points="105,-59.2 105,-81.2 284,-81.2 284,-59.2 105,-59.2"/>
<text text-anchor="start" x="108" y="-66.9" font-family="Helvetica,sans-Serif" font-size="11.00" fill="#000000">geometry[2147483647]</text>
<polygon fill="#ffffff" stroke="transparent" points="10,-40.2 10,-59.2 49,-59.2 49,-40.2 10,-40.2"/>
<polygon fill="none" stroke="#000000" points="10,-40.2 10,-59.2 49,-59.2 49,-40.2 10,-40.2"/>
<text text-anchor="start" x="13" y="-46.3" font-family="Helvetica,sans-Serif" font-size="11.00" fill="#000000">&lt; 0</text>
<polygon fill="#ffffff" stroke="transparent" points="49,-40.2 49,-59.2 105,-59.2 105,-40.2 49,-40.2"/>
<polygon fill="none" stroke="#000000" points="49,-40.2 49,-59.2 105,-59.2 105,-40.2 49,-40.2"/>
<text text-anchor="start" x="69.6105" y="-46.3" font-family="Helvetica,sans-Serif" font-size="11.00" fill="#000000">0 rows</text>
<polygon fill="#ffffff" stroke="transparent" points="105,-40.2 105,-59.2 284,-59.2 284,-40.2 105,-40.2"/>
<polygon fill="none" stroke="#000000" points="105,-40.2 105,-59.2 284,-59.2 284,-40.2 105,-40.2"/>
<text text-anchor="start" x="265.4053" y="-46.3" font-family="Helvetica,sans-Serif" font-size="11.00" fill="#000000">1 &gt;</text>
<polygon fill="none" stroke="#000000" stroke-width="2" points="9,-39.2 9,-149.2 285,-149.2 285,-39.2 9,-39.2"/>
</a>
</g>
</g>
<!-- _storage_node&#45;&gt;coverage -->
<g id="edge1" class="edge">
<title>_storage_node:w&#45;&gt;coverage:e</title>
<path fill="none" stroke="#000000" d="M324.2307,-114.2C309.748,-114.2 302.5938,-114.2 284,-114.2"/>
<polygon fill="#000000" stroke="#000000" points="334.2,-110.2 334.2,-118.2 332.6,-118.2 332.6,-110.2 334.2,-110.2"/>
<polyline fill="none" stroke="#000000" points="335,-114.2 331,-114.2 "/>
<ellipse fill="none" stroke="#000000" cx="327.8" cy="-114.2001" rx="3.2" ry="3.2"/>
</g>
</g>
</svg>
