<?xml version="1.0" encoding="UTF-8" standalone="no"?>
<!DOCTYPE svg PUBLIC "-//W3C//DTD SVG 1.1//EN"
 "http://www.w3.org/Graphics/SVG/1.1/DTD/svg11.dtd">
<!-- Generated by graphviz version 2.40.1 (20161225.0304)
 -->
<!-- Title: twoDegreesRelationshipsDiagram Pages: 1 -->
<svg width="429pt" height="347pt"
 viewBox="0.00 0.00 429.00 347.20" xmlns="http://www.w3.org/2000/svg" xmlns:xlink="http://www.w3.org/1999/xlink">
<g id="graph0" class="graph" transform="scale(1 1) rotate(0) translate(4 343.2)">
<title>twoDegreesRelationshipsDiagram</title>
<polygon fill="#ffffff" stroke="transparent" points="-4,4 -4,-343.2 425,-343.2 425,4 -4,4"/>
<text text-anchor="middle" x="72.4936" y="-7.3" font-family="Helvetica,sans-Serif" font-size="11.00" fill="#000000">Generated by SchemaSpy</text>
<!-- _elem_2d_node -->
<g id="node1" class="node">
<title>_elem_2d_node</title>
<g id="a_node1"><a xlink:href="../../tables/_elem_2d_node.html" xlink:title="_elem_2d_node" target="_top">
<polygon fill="#ffffff" stroke="transparent" points="274,-186.2 274,-335.2 403,-335.2 403,-186.2 274,-186.2"/>
<polygon fill="#f5f5f5" stroke="transparent" points="274.5,-311.7 274.5,-334.7 403.5,-334.7 403.5,-311.7 274.5,-311.7"/>
<polygon fill="none" stroke="#000000" points="274.5,-311.7 274.5,-334.7 403.5,-334.7 403.5,-311.7 274.5,-311.7"/>
<text text-anchor="start" x="279.5" y="-320.3" font-family="Helvetica,sans-Serif" font-weight="bold" font-size="11.00" fill="#000000">_elem_2d_node</text>
<text text-anchor="start" x="369.0219" y="-319.8" font-family="Helvetica,sans-Serif" font-size="11.00" fill="#000000">[table]</text>
<polygon fill="#ffffff" stroke="transparent" points="274.5,-289.7 274.5,-311.7 403.5,-311.7 403.5,-289.7 274.5,-289.7"/>
<polygon fill="none" stroke="#000000" points="274.5,-289.7 274.5,-311.7 403.5,-311.7 403.5,-289.7 274.5,-289.7"/>
<image xlink:href="../../images/foreignKeys.png" width="11px" height="12px" preserveAspectRatio="xMinYMin meet" x="279.5" y="-306.7"/>
<text text-anchor="start" x="303.5" y="-296.8" font-family="Helvetica,sans-Serif" font-size="11.00" fill="#000000">id</text>
<polygon fill="none" stroke="#000000" points="274.5,-267.7 274.5,-289.7 403.5,-289.7 403.5,-267.7 274.5,-267.7"/>
<image xlink:href="../../images/foreignKeys.png" width="11px" height="12px" preserveAspectRatio="xMinYMin meet" x="279.5" y="-284.7"/>
<text text-anchor="start" x="303.5" y="-274.8" font-family="Helvetica,sans-Serif" font-size="11.00" fill="#000000">node_type</text>
<polygon fill="none" stroke="#000000" points="274.5,-245.7 274.5,-267.7 403.5,-267.7 403.5,-245.7 274.5,-245.7"/>
<image xlink:href="../../images/foreignKeys.png" width="11px" height="12px" preserveAspectRatio="xMinYMin meet" x="279.5" y="-262.7"/>
<text text-anchor="start" x="303.5" y="-252.8" font-family="Helvetica,sans-Serif" font-size="11.00" fill="#000000">domain_2d</text>
<polygon fill="#ffffff" stroke="transparent" points="274.5,-223.7 274.5,-245.7 403.5,-245.7 403.5,-223.7 274.5,-223.7"/>
<polygon fill="none" stroke="#000000" points="274.5,-223.7 274.5,-245.7 403.5,-245.7 403.5,-223.7 274.5,-223.7"/>
<text text-anchor="start" x="303.5" y="-230.8" font-family="Helvetica,sans-Serif" font-size="11.00" fill="#000000">contour</text>
<polygon fill="none" stroke="#000000" points="274.5,-204.7 274.5,-223.7 403.5,-223.7 403.5,-204.7 274.5,-204.7"/>
<text text-anchor="start" x="277.5" y="-210.8" font-family="Helvetica,sans-Serif" font-size="11.00" fill="#000000">...</text>
<polygon fill="#ffffff" stroke="transparent" points="274.5,-185.7 274.5,-204.7 324.5,-204.7 324.5,-185.7 274.5,-185.7"/>
<polygon fill="none" stroke="#000000" points="274.5,-185.7 274.5,-204.7 324.5,-204.7 324.5,-185.7 274.5,-185.7"/>
<text text-anchor="start" x="277.5" y="-191.8" font-family="Helvetica,sans-Serif" font-size="11.00" fill="#000000">&lt; 3</text>
<polygon fill="#ffffff" stroke="transparent" points="324.5,-185.7 324.5,-204.7 376.5,-204.7 376.5,-185.7 324.5,-185.7"/>
<polygon fill="none" stroke="#000000" points="324.5,-185.7 324.5,-204.7 376.5,-204.7 376.5,-185.7 324.5,-185.7"/>
<text text-anchor="start" x="341.1105" y="-191.8" font-family="Helvetica,sans-Serif" font-size="11.00" fill="#000000">0 rows</text>
<polygon fill="#ffffff" stroke="transparent" points="376.5,-185.7 376.5,-204.7 403.5,-204.7 403.5,-185.7 376.5,-185.7"/>
<polygon fill="none" stroke="#000000" points="376.5,-185.7 376.5,-204.7 403.5,-204.7 403.5,-185.7 376.5,-185.7"/>
<text text-anchor="start" x="394.3862" y="-191.8" font-family="Helvetica,sans-Serif" font-size="11.00" fill="#000000"> &#160;</text>
</a>
</g>
</g>
<!-- domain_2d -->
<g id="node2" class="node">
<title>domain_2d</title>
<g id="a_node2"><a xlink:href="../../tables/domain_2d.html" xlink:title="domain_2d" target="_top">
<polygon fill="#ffffff" stroke="transparent" points="8,-53.7 8,-187.7 215,-187.7 215,-53.7 8,-53.7"/>
<polygon fill="#f5f5f5" stroke="transparent" points="10.5,-162.7 10.5,-185.7 213.5,-185.7 213.5,-162.7 10.5,-162.7"/>
<polygon fill="none" stroke="#000000" points="10.5,-162.7 10.5,-185.7 213.5,-185.7 213.5,-162.7 10.5,-162.7"/>
<text text-anchor="start" x="15.5" y="-171.3" font-family="Helvetica,sans-Serif" font-weight="bold" font-size="11.00" fill="#000000">domain_2d</text>
<text text-anchor="start" x="178.5437" y="-170.8" font-family="Helvetica,sans-Serif" font-size="11.00" fill="#000000">[table]</text>
<polygon fill="none" stroke="#000000" points="10.5,-140.7 10.5,-162.7 94.5,-162.7 94.5,-140.7 10.5,-140.7"/>
<image xlink:href="../../images/primaryKeys.png" width="11px" height="12px" preserveAspectRatio="xMinYMin meet" x="15.5" y="-157.7"/>
<text text-anchor="start" x="30.5" y="-147.8" font-family="Helvetica,sans-Serif" font-size="11.00" fill="#000000">id</text>
<polygon fill="none" stroke="#000000" points="94.5,-140.7 94.5,-162.7 213.5,-162.7 213.5,-140.7 94.5,-140.7"/>
<text text-anchor="start" x="97.5" y="-148.4" font-family="Helvetica,sans-Serif" font-size="11.00" fill="#000000">serial[10]</text>
<polygon fill="#ffffff" stroke="transparent" points="10.5,-118.7 10.5,-140.7 94.5,-140.7 94.5,-118.7 10.5,-118.7"/>
<polygon fill="none" stroke="#000000" points="10.5,-118.7 10.5,-140.7 94.5,-140.7 94.5,-118.7 10.5,-118.7"/>
<text text-anchor="start" x="30.5" y="-125.8" font-family="Helvetica,sans-Serif" font-size="11.00" fill="#000000">name</text>
<polygon fill="none" stroke="#000000" points="94.5,-118.7 94.5,-140.7 213.5,-140.7 213.5,-118.7 94.5,-118.7"/>
<text text-anchor="start" x="97.5" y="-126.4" font-family="Helvetica,sans-Serif" font-size="11.00" fill="#000000">varchar[16]</text>
<polygon fill="none" stroke="#000000" points="10.5,-96.7 10.5,-118.7 94.5,-118.7 94.5,-96.7 10.5,-96.7"/>
<text text-anchor="start" x="30.5" y="-103.8" font-family="Helvetica,sans-Serif" font-size="11.00" fill="#000000">geom</text>
<polygon fill="none" stroke="#000000" points="94.5,-96.7 94.5,-118.7 213.5,-118.7 213.5,-96.7 94.5,-96.7"/>
<text text-anchor="start" x="97.4485" y="-104.4" font-family="Helvetica,sans-Serif" font-size="11.00" fill="#000000">geometry[2147483647]</text>
<polygon fill="none" stroke="#000000" points="10.5,-74.7 10.5,-96.7 94.5,-96.7 94.5,-74.7 10.5,-74.7"/>
<text text-anchor="start" x="30.5" y="-81.8" font-family="Helvetica,sans-Serif" font-size="11.00" fill="#000000">comment</text>
<polygon fill="none" stroke="#000000" points="94.5,-74.7 94.5,-96.7 213.5,-96.7 213.5,-74.7 94.5,-74.7"/>
<text text-anchor="start" x="97.5" y="-82.4" font-family="Helvetica,sans-Serif" font-size="11.00" fill="#000000">varchar[256]</text>
<polygon fill="#ffffff" stroke="transparent" points="10.5,-55.7 10.5,-74.7 43.5,-74.7 43.5,-55.7 10.5,-55.7"/>
<polygon fill="none" stroke="#000000" points="10.5,-55.7 10.5,-74.7 43.5,-74.7 43.5,-55.7 10.5,-55.7"/>
<text text-anchor="start" x="13.5" y="-61.8" font-family="Helvetica,sans-Serif" font-size="11.00" fill="#000000">&lt; 0</text>
<polygon fill="#ffffff" stroke="transparent" points="43.5,-55.7 43.5,-74.7 94.5,-74.7 94.5,-55.7 43.5,-55.7"/>
<polygon fill="none" stroke="#000000" points="43.5,-55.7 43.5,-74.7 94.5,-74.7 94.5,-55.7 43.5,-55.7"/>
<text text-anchor="start" x="59.1105" y="-61.8" font-family="Helvetica,sans-Serif" font-size="11.00" fill="#000000">0 rows</text>
<polygon fill="#ffffff" stroke="transparent" points="94.5,-55.7 94.5,-74.7 213.5,-74.7 213.5,-55.7 94.5,-55.7"/>
<polygon fill="none" stroke="#000000" points="94.5,-55.7 94.5,-74.7 213.5,-74.7 213.5,-55.7 94.5,-55.7"/>
<text text-anchor="start" x="194.9053" y="-61.8" font-family="Helvetica,sans-Serif" font-size="11.00" fill="#000000">2 &gt;</text>
<polygon fill="none" stroke="#000000" stroke-width="2" points="9,-54.7 9,-186.7 214,-186.7 214,-54.7 9,-54.7"/>
</a>
</g>
</g>
<!-- _elem_2d_node&#45;&gt;domain_2d -->
<g id="edge1" class="edge">
<title>_elem_2d_node:w&#45;&gt;domain_2d:e</title>
<path fill="none" stroke="#000000" d="M260.1485,-253.2065C229.5908,-234.9874 261.5673,-151.7 213.5,-151.7"/>
<polygon fill="#000000" stroke="#000000" points="266.727,-254.8078 273.6485,-260.1979 270.6135,-255.7539 274.5,-256.7 274.5,-256.7 274.5,-256.7 270.6135,-255.7539 275.3515,-253.2021 266.727,-254.8078 266.727,-254.8078"/>
<ellipse fill="none" stroke="#000000" cx="263.6178" cy="-254.0509" rx="3.2" ry="3.2"/>
</g>
<!-- _node -->
<g id="node3" class="node">
<title>_node</title>
<g id="a_node3"><a xlink:href="../../tables/_node.html" xlink:title="_node" target="_top">
<polygon fill="#ffffff" stroke="transparent" points="68.5,-262.2 68.5,-323.2 154.5,-323.2 154.5,-262.2 68.5,-262.2"/>
<polygon fill="#f5f5f5" stroke="transparent" points="68.5,-299.7 68.5,-322.7 154.5,-322.7 154.5,-299.7 68.5,-299.7"/>
<polygon fill="none" stroke="#000000" points="68.5,-299.7 68.5,-322.7 154.5,-322.7 154.5,-299.7 68.5,-299.7"/>
<text text-anchor="start" x="73.5" y="-308.3" font-family="Helvetica,sans-Serif" font-weight="bold" font-size="11.00" fill="#000000">_node</text>
<text text-anchor="start" x="119.5437" y="-307.8" font-family="Helvetica,sans-Serif" font-size="11.00" fill="#000000">[table]</text>
<polygon fill="none" stroke="#000000" points="68.5,-280.7 68.5,-299.7 154.5,-299.7 154.5,-280.7 68.5,-280.7"/>
<text text-anchor="start" x="71.5" y="-286.8" font-family="Helvetica,sans-Serif" font-size="11.00" fill="#000000">...</text>
<polygon fill="#ffffff" stroke="transparent" points="68.5,-261.7 68.5,-280.7 89.5,-280.7 89.5,-261.7 68.5,-261.7"/>
<polygon fill="none" stroke="#000000" points="68.5,-261.7 68.5,-280.7 89.5,-280.7 89.5,-261.7 68.5,-261.7"/>
<text text-anchor="start" x="71.2027" y="-267.8" font-family="Helvetica,sans-Serif" font-size="11.00" fill="#000000">&lt; 1</text>
<polygon fill="#ffffff" stroke="transparent" points="89.5,-261.7 89.5,-280.7 127.5,-280.7 127.5,-261.7 89.5,-261.7"/>
<polygon fill="none" stroke="#000000" points="89.5,-261.7 89.5,-280.7 127.5,-280.7 127.5,-261.7 89.5,-261.7"/>
<text text-anchor="start" x="92.3053" y="-267.8" font-family="Helvetica,sans-Serif" font-size="11.00" fill="#000000">0 rows</text>
<polygon fill="#ffffff" stroke="transparent" points="127.5,-261.7 127.5,-280.7 154.5,-280.7 154.5,-261.7 127.5,-261.7"/>
<polygon fill="none" stroke="#000000" points="127.5,-261.7 127.5,-280.7 154.5,-280.7 154.5,-261.7 127.5,-261.7"/>
<text text-anchor="start" x="130.1452" y="-267.8" font-family="Helvetica,sans-Serif" font-size="11.00" fill="#000000">24 &gt;</text>
</a>
</g>
</g>
<!-- _elem_2d_node&#45;&gt;_node -->
<g id="edge2" class="edge">
<title>_elem_2d_node:w&#45;&gt;_node:e</title>
<path fill="none" stroke="#000000" d="M264.0608,-300.5528C218.9912,-299.2475 204.3958,-289.7 154.5,-289.7"/>
<polygon fill="#000000" stroke="#000000" points="273.7565,-296.6891 273.6437,-304.6883 272.0438,-304.6657 272.1567,-296.6665 273.7565,-296.6891"/>
<polyline fill="none" stroke="#000000" points="274.5,-300.7 270.5004,-300.6436 "/>
<ellipse fill="none" stroke="#000000" cx="267.3007" cy="-300.5984" rx="3.2" ry="3.2"/>
</g>
<!-- _elem_2d_node&#45;&gt;_node -->
<g id="edge3" class="edge">
<title>_elem_2d_node:w&#45;&gt;_node:e</title>
<path fill="none" stroke="#000000" d="M259.8973,-278.9942C218.0384,-280.7435 202.8268,-289.7 154.5,-289.7"/>
<polygon fill="#000000" stroke="#000000" points="266.5016,-278.8612 274.5725,-282.2993 270.5008,-278.7806 274.5,-278.7 274.5,-278.7 274.5,-278.7 270.5008,-278.7806 274.4275,-275.1007 266.5016,-278.8612 266.5016,-278.8612"/>
<ellipse fill="none" stroke="#000000" cx="263.3023" cy="-278.9257" rx="3.2" ry="3.2"/>
</g>
<!-- domain_2d_marker -->
<g id="node4" class="node">
<title>domain_2d_marker</title>
<g id="a_node4"><a xlink:href="../../tables/domain_2d_marker.html" xlink:title="domain_2d_marker" target="_top">
<polygon fill="#ffffff" stroke="transparent" points="264,-38.2 264,-165.2 413,-165.2 413,-38.2 264,-38.2"/>
<polygon fill="#f5f5f5" stroke="transparent" points="264.5,-141.7 264.5,-164.7 413.5,-164.7 413.5,-141.7 264.5,-141.7"/>
<polygon fill="none" stroke="#000000" points="264.5,-141.7 264.5,-164.7 413.5,-164.7 413.5,-141.7 264.5,-141.7"/>
<text text-anchor="start" x="269.5" y="-150.3" font-family="Helvetica,sans-Serif" font-weight="bold" font-size="11.00" fill="#000000">domain_2d_marker</text>
<text text-anchor="start" x="379.0219" y="-149.8" font-family="Helvetica,sans-Serif" font-size="11.00" fill="#000000">[table]</text>
<polygon fill="none" stroke="#000000" points="264.5,-119.7 264.5,-141.7 413.5,-141.7 413.5,-119.7 264.5,-119.7"/>
<image xlink:href="../../images/primaryKeys.png" width="11px" height="12px" preserveAspectRatio="xMinYMin meet" x="269.5" y="-136.7"/>
<text text-anchor="start" x="293.5" y="-126.8" font-family="Helvetica,sans-Serif" font-size="11.00" fill="#000000">id</text>
<polygon fill="#ffffff" stroke="transparent" points="264.5,-97.7 264.5,-119.7 413.5,-119.7 413.5,-97.7 264.5,-97.7"/>
<polygon fill="none" stroke="#000000" points="264.5,-97.7 264.5,-119.7 413.5,-119.7 413.5,-97.7 264.5,-97.7"/>
<text text-anchor="start" x="293.5" y="-104.8" font-family="Helvetica,sans-Serif" font-size="11.00" fill="#000000">name</text>
<polygon fill="none" stroke="#000000" points="264.5,-75.7 264.5,-97.7 413.5,-97.7 413.5,-75.7 264.5,-75.7"/>
<image xlink:href="../../images/foreignKeys.png" width="11px" height="12px" preserveAspectRatio="xMinYMin meet" x="269.5" y="-92.7"/>
<text text-anchor="start" x="293.5" y="-82.8" font-family="Helvetica,sans-Serif" font-size="11.00" fill="#000000">domain_2d</text>
<polygon fill="none" stroke="#000000" points="264.5,-56.7 264.5,-75.7 413.5,-75.7 413.5,-56.7 264.5,-56.7"/>
<text text-anchor="start" x="267.5" y="-62.8" font-family="Helvetica,sans-Serif" font-size="11.00" fill="#000000">...</text>
<polygon fill="#ffffff" stroke="transparent" points="264.5,-37.7 264.5,-56.7 324.5,-56.7 324.5,-37.7 264.5,-37.7"/>
<polygon fill="none" stroke="#000000" points="264.5,-37.7 264.5,-56.7 324.5,-56.7 324.5,-37.7 264.5,-37.7"/>
<text text-anchor="start" x="267.5" y="-43.8" font-family="Helvetica,sans-Serif" font-size="11.00" fill="#000000">&lt; 1</text>
<polygon fill="#ffffff" stroke="transparent" points="324.5,-37.7 324.5,-56.7 381.5,-56.7 381.5,-37.7 324.5,-37.7"/>
<polygon fill="none" stroke="#000000" points="324.5,-37.7 324.5,-56.7 381.5,-56.7 381.5,-37.7 324.5,-37.7"/>
<text text-anchor="start" x="346.1105" y="-43.8" font-family="Helvetica,sans-Serif" font-size="11.00" fill="#000000">0 rows</text>
<polygon fill="#ffffff" stroke="transparent" points="381.5,-37.7 381.5,-56.7 413.5,-56.7 413.5,-37.7 381.5,-37.7"/>
<polygon fill="none" stroke="#000000" points="381.5,-37.7 381.5,-56.7 413.5,-56.7 413.5,-37.7 381.5,-37.7"/>
<text text-anchor="start" x="404.3862" y="-43.8" font-family="Helvetica,sans-Serif" font-size="11.00" fill="#000000"> &#160;</text>
</a>
</g>
</g>
<!-- domain_2d_marker&#45;&gt;domain_2d -->
<g id="edge4" class="edge">
<title>domain_2d_marker:w&#45;&gt;domain_2d:e</title>
<path fill="none" stroke="#000000" d="M250.6816,-91.3746C233.5508,-106.2786 244.1955,-151.7 213.5,-151.7"/>
<polygon fill="#000000" stroke="#000000" points="256.9219,-89.2636 265.6536,-90.1102 260.7109,-87.9818 264.5,-86.7 264.5,-86.7 264.5,-86.7 260.7109,-87.9818 263.3464,-83.2898 256.9219,-89.2636 256.9219,-89.2636"/>
<ellipse fill="none" stroke="#000000" cx="253.8906" cy="-90.2891" rx="3.2" ry="3.2"/>
</g>
</g>
</svg>
