<?xml version="1.0" encoding="UTF-8" standalone="no"?>
<!DOCTYPE svg PUBLIC "-//W3C//DTD SVG 1.1//EN"
 "http://www.w3.org/Graphics/SVG/1.1/DTD/svg11.dtd">
<!-- Generated by graphviz version 2.40.1 (20161225.0304)
 -->
<!-- Title: oneDegreeRelationshipsDiagram Pages: 1 -->
<svg width="429pt" height="206pt"
 viewBox="0.00 0.00 429.00 206.20" xmlns="http://www.w3.org/2000/svg" xmlns:xlink="http://www.w3.org/1999/xlink">
<g id="graph0" class="graph" transform="scale(1 1) rotate(0) translate(4 202.2)">
<title>oneDegreeRelationshipsDiagram</title>
<polygon fill="#ffffff" stroke="transparent" points="-4,4 -4,-202.2 425,-202.2 425,4 -4,4"/>
<text text-anchor="middle" x="72.4936" y="-7.3" font-family="Helvetica,sans-Serif" font-size="11.00" fill="#000000">Generated by SchemaSpy</text>
<!-- domain_2d_marker -->
<g id="node1" class="node">
<title>domain_2d_marker</title>
<g id="a_node1"><a xlink:href="../../tables/domain_2d_marker.html" xlink:title="domain_2d_marker" target="_top">
<polygon fill="#ffffff" stroke="transparent" points="159,-38.2 159,-194.2 413,-194.2 413,-38.2 159,-38.2"/>
<polygon fill="#f5f5f5" stroke="transparent" points="161,-169.2 161,-192.2 411,-192.2 411,-169.2 161,-169.2"/>
<polygon fill="none" stroke="#000000" points="161,-169.2 161,-192.2 411,-192.2 411,-169.2 161,-169.2"/>
<text text-anchor="start" x="166" y="-177.8" font-family="Helvetica,sans-Serif" font-weight="bold" font-size="11.00" fill="#000000">domain_2d_marker</text>
<text text-anchor="start" x="376.0437" y="-177.3" font-family="Helvetica,sans-Serif" font-size="11.00" fill="#000000">[table]</text>
<polygon fill="none" stroke="#000000" points="161,-147.2 161,-169.2 292,-169.2 292,-147.2 161,-147.2"/>
<image xlink:href="../../images/primaryKeys.png" width="11px" height="12px" preserveAspectRatio="xMinYMin meet" x="166" y="-164.2"/>
<text text-anchor="start" x="181" y="-154.3" font-family="Helvetica,sans-Serif" font-size="11.00" fill="#000000">id</text>
<polygon fill="none" stroke="#000000" points="292,-147.2 292,-169.2 411,-169.2 411,-147.2 292,-147.2"/>
<text text-anchor="start" x="295" y="-154.9" font-family="Helvetica,sans-Serif" font-size="11.00" fill="#000000">serial[10]</text>
<polygon fill="#ffffff" stroke="transparent" points="161,-125.2 161,-147.2 292,-147.2 292,-125.2 161,-125.2"/>
<polygon fill="none" stroke="#000000" points="161,-125.2 161,-147.2 292,-147.2 292,-125.2 161,-125.2"/>
<text text-anchor="start" x="181" y="-132.3" font-family="Helvetica,sans-Serif" font-size="11.00" fill="#000000">name</text>
<polygon fill="none" stroke="#000000" points="292,-125.2 292,-147.2 411,-147.2 411,-125.2 292,-125.2"/>
<text text-anchor="start" x="295" y="-132.9" font-family="Helvetica,sans-Serif" font-size="11.00" fill="#000000">varchar[24]</text>
<polygon fill="none" stroke="#000000" points="161,-103.2 161,-125.2 292,-125.2 292,-103.2 161,-103.2"/>
<image xlink:href="../../images/foreignKeys.png" width="11px" height="12px" preserveAspectRatio="xMinYMin meet" x="166" y="-120.2"/>
<text text-anchor="start" x="181" y="-110.3" font-family="Helvetica,sans-Serif" font-size="11.00" fill="#000000">domain_2d</text>
<polygon fill="none" stroke="#000000" points="292,-103.2 292,-125.2 411,-125.2 411,-103.2 292,-103.2"/>
<text text-anchor="start" x="295" y="-110.9" font-family="Helvetica,sans-Serif" font-size="11.00" fill="#000000">int4[10]</text>
<polygon fill="none" stroke="#000000" points="161,-81.2 161,-103.2 292,-103.2 292,-81.2 161,-81.2"/>
<text text-anchor="start" x="181" y="-88.3" font-family="Helvetica,sans-Serif" font-size="11.00" fill="#000000">geom</text>
<polygon fill="none" stroke="#000000" points="292,-81.2 292,-103.2 411,-103.2 411,-81.2 292,-81.2"/>
<text text-anchor="start" x="294.9485" y="-88.9" font-family="Helvetica,sans-Serif" font-size="11.00" fill="#000000">geometry[2147483647]</text>
<polygon fill="none" stroke="#000000" points="161,-59.2 161,-81.2 292,-81.2 292,-59.2 161,-59.2"/>
<text text-anchor="start" x="181" y="-66.3" font-family="Helvetica,sans-Serif" font-size="11.00" fill="#000000">comment</text>
<polygon fill="none" stroke="#000000" points="292,-59.2 292,-81.2 411,-81.2 411,-59.2 292,-59.2"/>
<text text-anchor="start" x="295" y="-66.9" font-family="Helvetica,sans-Serif" font-size="11.00" fill="#000000">varchar[256]</text>
<polygon fill="#ffffff" stroke="transparent" points="161,-40.2 161,-59.2 218,-59.2 218,-40.2 161,-40.2"/>
<polygon fill="none" stroke="#000000" points="161,-40.2 161,-59.2 218,-59.2 218,-40.2 161,-40.2"/>
<text text-anchor="start" x="164" y="-46.3" font-family="Helvetica,sans-Serif" font-size="11.00" fill="#000000">&lt; 1</text>
<polygon fill="#ffffff" stroke="transparent" points="218,-40.2 218,-59.2 292,-59.2 292,-40.2 218,-40.2"/>
<polygon fill="none" stroke="#000000" points="218,-40.2 218,-59.2 292,-59.2 292,-40.2 218,-40.2"/>
<text text-anchor="start" x="256.6105" y="-46.3" font-family="Helvetica,sans-Serif" font-size="11.00" fill="#000000">0 rows</text>
<polygon fill="#ffffff" stroke="transparent" points="292,-40.2 292,-59.2 411,-59.2 411,-40.2 292,-40.2"/>
<polygon fill="none" stroke="#000000" points="292,-40.2 292,-59.2 411,-59.2 411,-40.2 292,-40.2"/>
<text text-anchor="start" x="392.4053" y="-46.3" font-family="Helvetica,sans-Serif" font-size="11.00" fill="#000000">0 &gt;</text>
<polygon fill="none" stroke="#000000" stroke-width="2" points="160,-39.2 160,-193.2 412,-193.2 412,-39.2 160,-39.2"/>
</a>
</g>
</g>
<!-- domain_2d -->
<g id="node2" class="node">
<title>domain_2d</title>
<g id="a_node2"><a xlink:href="../../tables/domain_2d.html" xlink:title="domain_2d" target="_top">
<polygon fill="#ffffff" stroke="transparent" points="8,-43.7 8,-148.7 110,-148.7 110,-43.7 8,-43.7"/>
<polygon fill="#f5f5f5" stroke="transparent" points="8,-125.2 8,-148.2 110,-148.2 110,-125.2 8,-125.2"/>
<polygon fill="none" stroke="#000000" points="8,-125.2 8,-148.2 110,-148.2 110,-125.2 8,-125.2"/>
<text text-anchor="start" x="13" y="-133.8" font-family="Helvetica,sans-Serif" font-weight="bold" font-size="11.00" fill="#000000">domain_2d</text>
<text text-anchor="start" x="75.5219" y="-133.3" font-family="Helvetica,sans-Serif" font-size="11.00" fill="#000000">[table]</text>
<polygon fill="none" stroke="#000000" points="8,-103.2 8,-125.2 110,-125.2 110,-103.2 8,-103.2"/>
<image xlink:href="../../images/primaryKeys.png" width="11px" height="12px" preserveAspectRatio="xMinYMin meet" x="13" y="-120.2"/>
<text text-anchor="start" x="37" y="-110.3" font-family="Helvetica,sans-Serif" font-size="11.00" fill="#000000">id</text>
<polygon fill="#ffffff" stroke="transparent" points="8,-81.2 8,-103.2 110,-103.2 110,-81.2 8,-81.2"/>
<polygon fill="none" stroke="#000000" points="8,-81.2 8,-103.2 110,-103.2 110,-81.2 8,-81.2"/>
<text text-anchor="start" x="37" y="-88.3" font-family="Helvetica,sans-Serif" font-size="11.00" fill="#000000">name</text>
<polygon fill="none" stroke="#000000" points="8,-62.2 8,-81.2 110,-81.2 110,-62.2 8,-62.2"/>
<text text-anchor="start" x="11" y="-68.3" font-family="Helvetica,sans-Serif" font-size="11.00" fill="#000000">...</text>
<polygon fill="#ffffff" stroke="transparent" points="8,-43.2 8,-62.2 35,-62.2 35,-43.2 8,-43.2"/>
<polygon fill="none" stroke="#000000" points="8,-43.2 8,-62.2 35,-62.2 35,-43.2 8,-43.2"/>
<text text-anchor="start" x="11" y="-49.3" font-family="Helvetica,sans-Serif" font-size="11.00" fill="#000000"> &#160;</text>
<polygon fill="#ffffff" stroke="transparent" points="35,-43.2 35,-62.2 81,-62.2 81,-43.2 35,-43.2"/>
<polygon fill="none" stroke="#000000" points="35,-43.2 35,-62.2 81,-62.2 81,-43.2 35,-43.2"/>
<text text-anchor="start" x="45.6105" y="-49.3" font-family="Helvetica,sans-Serif" font-size="11.00" fill="#000000">0 rows</text>
<polygon fill="#ffffff" stroke="transparent" points="81,-43.2 81,-62.2 110,-62.2 110,-43.2 81,-43.2"/>
<polygon fill="none" stroke="#000000" points="81,-43.2 81,-62.2 110,-62.2 110,-43.2 81,-43.2"/>
<text text-anchor="start" x="91.4053" y="-49.3" font-family="Helvetica,sans-Serif" font-size="11.00" fill="#000000">2 &gt;</text>
</a>
</g>
</g>
<!-- domain_2d_marker&#45;&gt;domain_2d -->
<g id="edge1" class="edge">
<title>domain_2d_marker:w&#45;&gt;domain_2d:e</title>
<path fill="none" stroke="#000000" d="M146.276,-114.2C134.2815,-114.2 126.8229,-114.2 110,-114.2"/>
<polygon fill="#000000" stroke="#000000" points="153,-114.2001 161,-117.8 157,-114.2 161,-114.2 161,-114.2 161,-114.2 157,-114.2 161,-110.6 153,-114.2001 153,-114.2001"/>
<ellipse fill="none" stroke="#000000" cx="149.8" cy="-114.2001" rx="3.2" ry="3.2"/>
</g>
</g>
</svg>
