<?xml version="1.0" encoding="UTF-8" standalone="no"?>
<!DOCTYPE svg PUBLIC "-//W3C//DTD SVG 1.1//EN"
 "http://www.w3.org/Graphics/SVG/1.1/DTD/svg11.dtd">
<!-- Generated by graphviz version 2.40.1 (20161225.0304)
 -->
<!-- Title: oneDegreeRelationshipsDiagram Pages: 1 -->
<svg width="429pt" height="347pt"
 viewBox="0.00 0.00 429.00 347.20" xmlns="http://www.w3.org/2000/svg" xmlns:xlink="http://www.w3.org/1999/xlink">
<g id="graph0" class="graph" transform="scale(1 1) rotate(0) translate(4 343.2)">
<title>oneDegreeRelationshipsDiagram</title>
<polygon fill="#ffffff" stroke="transparent" points="-4,4 -4,-343.2 425,-343.2 425,4 -4,4"/>
<text text-anchor="middle" x="72.4936" y="-7.3" font-family="Helvetica,sans-Serif" font-size="11.00" fill="#000000">Generated by SchemaSpy</text>
<!-- _elem_2d_node -->
<g id="node1" class="node">
<title>_elem_2d_node</title>
<g id="a_node1"><a xlink:href="../../tables/_elem_2d_node.html" xlink:title="_elem_2d_node" target="_top">
<polygon fill="#ffffff" stroke="transparent" points="274,-186.2 274,-335.2 403,-335.2 403,-186.2 274,-186.2"/>
<polygon fill="#f5f5f5" stroke="transparent" points="274.5,-311.7 274.5,-334.7 403.5,-334.7 403.5,-311.7 274.5,-311.7"/>
<polygon fill="none" stroke="#000000" points="274.5,-311.7 274.5,-334.7 403.5,-334.7 403.5,-311.7 274.5,-311.7"/>
<text text-anchor="start" x="279.5" y="-320.3" font-family="Helvetica,sans-Serif" font-weight="bold" font-size="11.00" fill="#000000">_elem_2d_node</text>
<text text-anchor="start" x="369.0219" y="-319.8" font-family="Helvetica,sans-Serif" font-size="11.00" fill="#000000">[table]</text>
<polygon fill="#ffffff" stroke="transparent" points="274.5,-289.7 274.5,-311.7 403.5,-311.7 403.5,-289.7 274.5,-289.7"/>
<polygon fill="none" stroke="#000000" points="274.5,-289.7 274.5,-311.7 403.5,-311.7 403.5,-289.7 274.5,-289.7"/>
<image xlink:href="../../images/foreignKeys.png" width="11px" height="12px" preserveAspectRatio="xMinYMin meet" x="279.5" y="-306.7"/>
<text text-anchor="start" x="303.5" y="-296.8" font-family="Helvetica,sans-Serif" font-size="11.00" fill="#000000">id</text>
<polygon fill="none" stroke="#000000" points="274.5,-267.7 274.5,-289.7 403.5,-289.7 403.5,-267.7 274.5,-267.7"/>
<image xlink:href="../../images/foreignKeys.png" width="11px" height="12px" preserveAspectRatio="xMinYMin meet" x="279.5" y="-284.7"/>
<text text-anchor="start" x="303.5" y="-274.8" font-family="Helvetica,sans-Serif" font-size="11.00" fill="#000000">node_type</text>
<polygon fill="none" stroke="#000000" points="274.5,-245.7 274.5,-267.7 403.5,-267.7 403.5,-245.7 274.5,-245.7"/>
<image xlink:href="../../images/foreignKeys.png" width="11px" height="12px" preserveAspectRatio="xMinYMin meet" x="279.5" y="-262.7"/>
<text text-anchor="start" x="303.5" y="-252.8" font-family="Helvetica,sans-Serif" font-size="11.00" fill="#000000">domain_2d</text>
<polygon fill="#ffffff" stroke="transparent" points="274.5,-223.7 274.5,-245.7 403.5,-245.7 403.5,-223.7 274.5,-223.7"/>
<polygon fill="none" stroke="#000000" points="274.5,-223.7 274.5,-245.7 403.5,-245.7 403.5,-223.7 274.5,-223.7"/>
<text text-anchor="start" x="303.5" y="-230.8" font-family="Helvetica,sans-Serif" font-size="11.00" fill="#000000">contour</text>
<polygon fill="none" stroke="#000000" points="274.5,-204.7 274.5,-223.7 403.5,-223.7 403.5,-204.7 274.5,-204.7"/>
<text text-anchor="start" x="277.5" y="-210.8" font-family="Helvetica,sans-Serif" font-size="11.00" fill="#000000">...</text>
<polygon fill="#ffffff" stroke="transparent" points="274.5,-185.7 274.5,-204.7 324.5,-204.7 324.5,-185.7 274.5,-185.7"/>
<polygon fill="none" stroke="#000000" points="274.5,-185.7 274.5,-204.7 324.5,-204.7 324.5,-185.7 274.5,-185.7"/>
<text text-anchor="start" x="277.5" y="-191.8" font-family="Helvetica,sans-Serif" font-size="11.00" fill="#000000">&lt; 3</text>
<polygon fill="#ffffff" stroke="transparent" points="324.5,-185.7 324.5,-204.7 376.5,-204.7 376.5,-185.7 324.5,-185.7"/>
<polygon fill="none" stroke="#000000" points="324.5,-185.7 324.5,-204.7 376.5,-204.7 376.5,-185.7 324.5,-185.7"/>
<text text-anchor="start" x="341.1105" y="-191.8" font-family="Helvetica,sans-Serif" font-size="11.00" fill="#000000">0 rows</text>
<polygon fill="#ffffff" stroke="transparent" points="376.5,-185.7 376.5,-204.7 403.5,-204.7 403.5,-185.7 376.5,-185.7"/>
<polygon fill="none" stroke="#000000" points="376.5,-185.7 376.5,-204.7 403.5,-204.7 403.5,-185.7 376.5,-185.7"/>
<text text-anchor="start" x="394.3862" y="-191.8" font-family="Helvetica,sans-Serif" font-size="11.00" fill="#000000"> &#160;</text>
</a>
</g>
</g>
<!-- domain_2d -->
<g id="node2" class="node">
<title>domain_2d</title>
<g id="a_node2"><a xlink:href="../../tables/domain_2d.html" xlink:title="domain_2d" target="_top">
<polygon fill="#ffffff" stroke="transparent" points="8,-73.7 8,-207.7 215,-207.7 215,-73.7 8,-73.7"/>
<polygon fill="#f5f5f5" stroke="transparent" points="10.5,-182.7 10.5,-205.7 213.5,-205.7 213.5,-182.7 10.5,-182.7"/>
<polygon fill="none" stroke="#000000" points="10.5,-182.7 10.5,-205.7 213.5,-205.7 213.5,-182.7 10.5,-182.7"/>
<text text-anchor="start" x="15.5" y="-191.3" font-family="Helvetica,sans-Serif" font-weight="bold" font-size="11.00" fill="#000000">domain_2d</text>
<text text-anchor="start" x="178.5437" y="-190.8" font-family="Helvetica,sans-Serif" font-size="11.00" fill="#000000">[table]</text>
<polygon fill="none" stroke="#000000" points="10.5,-160.7 10.5,-182.7 94.5,-182.7 94.5,-160.7 10.5,-160.7"/>
<image xlink:href="../../images/primaryKeys.png" width="11px" height="12px" preserveAspectRatio="xMinYMin meet" x="15.5" y="-177.7"/>
<text text-anchor="start" x="30.5" y="-167.8" font-family="Helvetica,sans-Serif" font-size="11.00" fill="#000000">id</text>
<polygon fill="none" stroke="#000000" points="94.5,-160.7 94.5,-182.7 213.5,-182.7 213.5,-160.7 94.5,-160.7"/>
<text text-anchor="start" x="97.5" y="-168.4" font-family="Helvetica,sans-Serif" font-size="11.00" fill="#000000">serial[10]</text>
<polygon fill="#ffffff" stroke="transparent" points="10.5,-138.7 10.5,-160.7 94.5,-160.7 94.5,-138.7 10.5,-138.7"/>
<polygon fill="none" stroke="#000000" points="10.5,-138.7 10.5,-160.7 94.5,-160.7 94.5,-138.7 10.5,-138.7"/>
<text text-anchor="start" x="30.5" y="-145.8" font-family="Helvetica,sans-Serif" font-size="11.00" fill="#000000">name</text>
<polygon fill="none" stroke="#000000" points="94.5,-138.7 94.5,-160.7 213.5,-160.7 213.5,-138.7 94.5,-138.7"/>
<text text-anchor="start" x="97.5" y="-146.4" font-family="Helvetica,sans-Serif" font-size="11.00" fill="#000000">varchar[16]</text>
<polygon fill="none" stroke="#000000" points="10.5,-116.7 10.5,-138.7 94.5,-138.7 94.5,-116.7 10.5,-116.7"/>
<text text-anchor="start" x="30.5" y="-123.8" font-family="Helvetica,sans-Serif" font-size="11.00" fill="#000000">geom</text>
<polygon fill="none" stroke="#000000" points="94.5,-116.7 94.5,-138.7 213.5,-138.7 213.5,-116.7 94.5,-116.7"/>
<text text-anchor="start" x="97.4485" y="-124.4" font-family="Helvetica,sans-Serif" font-size="11.00" fill="#000000">geometry[2147483647]</text>
<polygon fill="none" stroke="#000000" points="10.5,-94.7 10.5,-116.7 94.5,-116.7 94.5,-94.7 10.5,-94.7"/>
<text text-anchor="start" x="30.5" y="-101.8" font-family="Helvetica,sans-Serif" font-size="11.00" fill="#000000">comment</text>
<polygon fill="none" stroke="#000000" points="94.5,-94.7 94.5,-116.7 213.5,-116.7 213.5,-94.7 94.5,-94.7"/>
<text text-anchor="start" x="97.5" y="-102.4" font-family="Helvetica,sans-Serif" font-size="11.00" fill="#000000">varchar[256]</text>
<polygon fill="#ffffff" stroke="transparent" points="10.5,-75.7 10.5,-94.7 43.5,-94.7 43.5,-75.7 10.5,-75.7"/>
<polygon fill="none" stroke="#000000" points="10.5,-75.7 10.5,-94.7 43.5,-94.7 43.5,-75.7 10.5,-75.7"/>
<text text-anchor="start" x="13.5" y="-81.8" font-family="Helvetica,sans-Serif" font-size="11.00" fill="#000000">&lt; 0</text>
<polygon fill="#ffffff" stroke="transparent" points="43.5,-75.7 43.5,-94.7 94.5,-94.7 94.5,-75.7 43.5,-75.7"/>
<polygon fill="none" stroke="#000000" points="43.5,-75.7 43.5,-94.7 94.5,-94.7 94.5,-75.7 43.5,-75.7"/>
<text text-anchor="start" x="59.1105" y="-81.8" font-family="Helvetica,sans-Serif" font-size="11.00" fill="#000000">0 rows</text>
<polygon fill="#ffffff" stroke="transparent" points="94.5,-75.7 94.5,-94.7 213.5,-94.7 213.5,-75.7 94.5,-75.7"/>
<polygon fill="none" stroke="#000000" points="94.5,-75.7 94.5,-94.7 213.5,-94.7 213.5,-75.7 94.5,-75.7"/>
<text text-anchor="start" x="194.9053" y="-81.8" font-family="Helvetica,sans-Serif" font-size="11.00" fill="#000000">2 &gt;</text>
<polygon fill="none" stroke="#000000" stroke-width="2" points="9,-74.7 9,-206.7 214,-206.7 214,-74.7 9,-74.7"/>
</a>
</g>
</g>
<!-- _elem_2d_node&#45;&gt;domain_2d -->
<g id="edge1" class="edge">
<title>_elem_2d_node:w&#45;&gt;domain_2d:e</title>
<path fill="none" stroke="#000000" d="M260.4358,-253.0477C234.7739,-236.7781 254.1868,-171.7 213.5,-171.7"/>
<polygon fill="#000000" stroke="#000000" points="266.7568,-254.6891 273.5951,-260.1844 270.6284,-255.6946 274.5,-256.7 274.5,-256.7 274.5,-256.7 270.6284,-255.6946 275.4049,-253.2156 266.7568,-254.6891 266.7568,-254.6891"/>
<ellipse fill="none" stroke="#000000" cx="263.6596" cy="-253.8848" rx="3.2" ry="3.2"/>
</g>
<!-- domain_2d_marker -->
<g id="node3" class="node">
<title>domain_2d_marker</title>
<g id="a_node3"><a xlink:href="../../tables/domain_2d_marker.html" xlink:title="domain_2d_marker" target="_top">
<polygon fill="#ffffff" stroke="transparent" points="264,-38.2 264,-165.2 413,-165.2 413,-38.2 264,-38.2"/>
<polygon fill="#f5f5f5" stroke="transparent" points="264.5,-141.7 264.5,-164.7 413.5,-164.7 413.5,-141.7 264.5,-141.7"/>
<polygon fill="none" stroke="#000000" points="264.5,-141.7 264.5,-164.7 413.5,-164.7 413.5,-141.7 264.5,-141.7"/>
<text text-anchor="start" x="269.5" y="-150.3" font-family="Helvetica,sans-Serif" font-weight="bold" font-size="11.00" fill="#000000">domain_2d_marker</text>
<text text-anchor="start" x="379.0219" y="-149.8" font-family="Helvetica,sans-Serif" font-size="11.00" fill="#000000">[table]</text>
<polygon fill="none" stroke="#000000" points="264.5,-119.7 264.5,-141.7 413.5,-141.7 413.5,-119.7 264.5,-119.7"/>
<image xlink:href="../../images/primaryKeys.png" width="11px" height="12px" preserveAspectRatio="xMinYMin meet" x="269.5" y="-136.7"/>
<text text-anchor="start" x="293.5" y="-126.8" font-family="Helvetica,sans-Serif" font-size="11.00" fill="#000000">id</text>
<polygon fill="#ffffff" stroke="transparent" points="264.5,-97.7 264.5,-119.7 413.5,-119.7 413.5,-97.7 264.5,-97.7"/>
<polygon fill="none" stroke="#000000" points="264.5,-97.7 264.5,-119.7 413.5,-119.7 413.5,-97.7 264.5,-97.7"/>
<text text-anchor="start" x="293.5" y="-104.8" font-family="Helvetica,sans-Serif" font-size="11.00" fill="#000000">name</text>
<polygon fill="none" stroke="#000000" points="264.5,-75.7 264.5,-97.7 413.5,-97.7 413.5,-75.7 264.5,-75.7"/>
<image xlink:href="../../images/foreignKeys.png" width="11px" height="12px" preserveAspectRatio="xMinYMin meet" x="269.5" y="-92.7"/>
<text text-anchor="start" x="293.5" y="-82.8" font-family="Helvetica,sans-Serif" font-size="11.00" fill="#000000">domain_2d</text>
<polygon fill="none" stroke="#000000" points="264.5,-56.7 264.5,-75.7 413.5,-75.7 413.5,-56.7 264.5,-56.7"/>
<text text-anchor="start" x="267.5" y="-62.8" font-family="Helvetica,sans-Serif" font-size="11.00" fill="#000000">...</text>
<polygon fill="#ffffff" stroke="transparent" points="264.5,-37.7 264.5,-56.7 324.5,-56.7 324.5,-37.7 264.5,-37.7"/>
<polygon fill="none" stroke="#000000" points="264.5,-37.7 264.5,-56.7 324.5,-56.7 324.5,-37.7 264.5,-37.7"/>
<text text-anchor="start" x="267.5" y="-43.8" font-family="Helvetica,sans-Serif" font-size="11.00" fill="#000000">&lt; 1</text>
<polygon fill="#ffffff" stroke="transparent" points="324.5,-37.7 324.5,-56.7 381.5,-56.7 381.5,-37.7 324.5,-37.7"/>
<polygon fill="none" stroke="#000000" points="324.5,-37.7 324.5,-56.7 381.5,-56.7 381.5,-37.7 324.5,-37.7"/>
<text text-anchor="start" x="346.1105" y="-43.8" font-family="Helvetica,sans-Serif" font-size="11.00" fill="#000000">0 rows</text>
<polygon fill="#ffffff" stroke="transparent" points="381.5,-37.7 381.5,-56.7 413.5,-56.7 413.5,-37.7 381.5,-37.7"/>
<polygon fill="none" stroke="#000000" points="381.5,-37.7 381.5,-56.7 413.5,-56.7 413.5,-37.7 381.5,-37.7"/>
<text text-anchor="start" x="404.3862" y="-43.8" font-family="Helvetica,sans-Serif" font-size="11.00" fill="#000000"> &#160;</text>
</a>
</g>
</g>
<!-- domain_2d_marker&#45;&gt;domain_2d -->
<g id="edge2" class="edge">
<title>domain_2d_marker:w&#45;&gt;domain_2d:e</title>
<path fill="none" stroke="#000000" d="M250.5669,-91.032C229.0746,-108.3534 251.5328,-171.7 213.5,-171.7"/>
<polygon fill="#000000" stroke="#000000" points="256.8607,-89.0752 265.5688,-90.1377 260.6804,-87.8876 264.5,-86.7 264.5,-86.7 264.5,-86.7 260.6804,-87.8876 263.4312,-83.2623 256.8607,-89.0752 256.8607,-89.0752"/>
<ellipse fill="none" stroke="#000000" cx="253.805" cy="-90.0253" rx="3.2" ry="3.2"/>
</g>
</g>
</svg>
