<?xml version="1.0" encoding="UTF-8" standalone="no"?>
<!DOCTYPE svg PUBLIC "-//W3C//DTD SVG 1.1//EN"
 "http://www.w3.org/Graphics/SVG/1.1/DTD/svg11.dtd">
<!-- Generated by graphviz version 2.40.1 (20161225.0304)
 -->
<!-- Title: oneDegreeRelationshipsDiagram Pages: 1 -->
<svg width="231pt" height="121pt"
 viewBox="0.00 0.00 231.00 121.20" xmlns="http://www.w3.org/2000/svg" xmlns:xlink="http://www.w3.org/1999/xlink">
<g id="graph0" class="graph" transform="scale(1 1) rotate(0) translate(4 117.2)">
<title>oneDegreeRelationshipsDiagram</title>
<polygon fill="#ffffff" stroke="transparent" points="-4,4 -4,-117.2 227,-117.2 227,4 -4,4"/>
<text text-anchor="middle" x="72.4936" y="-7.3" font-family="Helvetica,sans-Serif" font-size="11.00" fill="#000000">Generated by SchemaSpy</text>
<!-- flood_plain -->
<g id="node1" class="node">
<title>flood_plain</title>
<g id="a_node1"><a xlink:href="../../tables/flood_plain.html" xlink:title="flood_plain" target="_top">
<polygon fill="#ffffff" stroke="transparent" points="8,-38.2 8,-109.2 215,-109.2 215,-38.2 8,-38.2"/>
<polygon fill="#f5f5f5" stroke="transparent" points="10.5,-83.7 10.5,-106.7 213.5,-106.7 213.5,-83.7 10.5,-83.7"/>
<polygon fill="none" stroke="#000000" points="10.5,-83.7 10.5,-106.7 213.5,-106.7 213.5,-83.7 10.5,-83.7"/>
<text text-anchor="start" x="15.5" y="-92.3" font-family="Helvetica,sans-Serif" font-weight="bold" font-size="11.00" fill="#000000">flood_plain</text>
<text text-anchor="start" x="180.3895" y="-91.8" font-family="Helvetica,sans-Serif" font-size="11.00" fill="#000000">[view]</text>
<polygon fill="none" stroke="#000000" points="10.5,-61.7 10.5,-83.7 94.5,-83.7 94.5,-61.7 10.5,-61.7"/>
<text text-anchor="start" x="30.5" y="-68.8" font-family="Helvetica,sans-Serif" font-size="11.00" fill="#000000">id</text>
<polygon fill="none" stroke="#000000" points="94.5,-61.7 94.5,-83.7 213.5,-83.7 213.5,-61.7 94.5,-61.7"/>
<text text-anchor="start" x="97.5" y="-69.4" font-family="Helvetica,sans-Serif" font-size="11.00" fill="#000000">int8[19]</text>
<polygon fill="none" stroke="#000000" points="10.5,-39.7 10.5,-61.7 94.5,-61.7 94.5,-39.7 10.5,-39.7"/>
<text text-anchor="start" x="30.5" y="-46.8" font-family="Helvetica,sans-Serif" font-size="11.00" fill="#000000">geom</text>
<polygon fill="none" stroke="#000000" points="94.5,-39.7 94.5,-61.7 213.5,-61.7 213.5,-39.7 94.5,-39.7"/>
<text text-anchor="start" x="97.4485" y="-47.4" font-family="Helvetica,sans-Serif" font-size="11.00" fill="#000000">geometry[2147483647]</text>
<polygon fill="none" stroke="#000000" stroke-width="2" points="9,-39.2 9,-108.2 214,-108.2 214,-39.2 9,-39.2"/>
</a>
</g>
</g>
</g>
</svg>
