<?xml version="1.0" encoding="UTF-8" standalone="no"?>
<!DOCTYPE svg PUBLIC "-//W3C//DTD SVG 1.1//EN"
 "http://www.w3.org/Graphics/SVG/1.1/DTD/svg11.dtd">
<!-- Generated by graphviz version 2.40.1 (20161225.0304)
 -->
<!-- Title: oneDegreeRelationshipsDiagram Pages: 1 -->
<svg width="354pt" height="297pt"
 viewBox="0.00 0.00 354.00 297.20" xmlns="http://www.w3.org/2000/svg" xmlns:xlink="http://www.w3.org/1999/xlink">
<g id="graph0" class="graph" transform="scale(1 1) rotate(0) translate(4 293.2)">
<title>oneDegreeRelationshipsDiagram</title>
<polygon fill="#ffffff" stroke="transparent" points="-4,4 -4,-293.2 350,-293.2 350,4 -4,4"/>
<text text-anchor="middle" x="72.4936" y="-7.3" font-family="Helvetica,sans-Serif" font-size="11.00" fill="#000000">Generated by SchemaSpy</text>
<!-- flood_plain_bluff_point_transect -->
<g id="node1" class="node">
<title>flood_plain_bluff_point_transect</title>
<g id="a_node1"><a xlink:href="../../tables/flood_plain_bluff_point_transect.html" xlink:title="flood_plain_bluff_point_transect" target="_top">
<polygon fill="#ffffff" stroke="transparent" points="8,-38.2 8,-285.2 338,-285.2 338,-38.2 8,-38.2"/>
<polygon fill="#f5f5f5" stroke="transparent" points="10,-259.7 10,-282.7 336,-282.7 336,-259.7 10,-259.7"/>
<polygon fill="none" stroke="#000000" points="10,-259.7 10,-282.7 336,-282.7 336,-259.7 10,-259.7"/>
<text text-anchor="start" x="15" y="-268.3" font-family="Helvetica,sans-Serif" font-weight="bold" font-size="11.00" fill="#000000">flood_plain_bluff_point_transect</text>
<text text-anchor="start" x="302.8895" y="-267.8" font-family="Helvetica,sans-Serif" font-size="11.00" fill="#000000">[view]</text>
<polygon fill="none" stroke="#000000" points="10,-237.7 10,-259.7 217,-259.7 217,-237.7 10,-237.7"/>
<text text-anchor="start" x="30" y="-244.8" font-family="Helvetica,sans-Serif" font-size="11.00" fill="#000000">id</text>
<polygon fill="none" stroke="#000000" points="217,-237.7 217,-259.7 336,-259.7 336,-237.7 217,-237.7"/>
<text text-anchor="start" x="220" y="-245.4" font-family="Helvetica,sans-Serif" font-size="11.00" fill="#000000">int8[19]</text>
<polygon fill="none" stroke="#000000" points="10,-215.7 10,-237.7 217,-237.7 217,-215.7 10,-215.7"/>
<text text-anchor="start" x="30" y="-222.8" font-family="Helvetica,sans-Serif" font-size="11.00" fill="#000000">bluff</text>
<polygon fill="none" stroke="#000000" points="217,-215.7 217,-237.7 336,-237.7 336,-215.7 217,-215.7"/>
<text text-anchor="start" x="220" y="-223.4" font-family="Helvetica,sans-Serif" font-size="11.00" fill="#000000">int8[19]</text>
<polygon fill="none" stroke="#000000" points="10,-193.7 10,-215.7 217,-215.7 217,-193.7 10,-193.7"/>
<text text-anchor="start" x="30" y="-200.8" font-family="Helvetica,sans-Serif" font-size="11.00" fill="#000000">geom</text>
<polygon fill="none" stroke="#000000" points="217,-193.7 217,-215.7 336,-215.7 336,-193.7 217,-193.7"/>
<text text-anchor="start" x="219.9485" y="-201.4" font-family="Helvetica,sans-Serif" font-size="11.00" fill="#000000">geometry[2147483647]</text>
<polygon fill="none" stroke="#000000" points="10,-171.7 10,-193.7 217,-193.7 217,-171.7 10,-171.7"/>
<text text-anchor="start" x="30" y="-178.8" font-family="Helvetica,sans-Serif" font-size="11.00" fill="#000000">section</text>
<polygon fill="none" stroke="#000000" points="217,-171.7 217,-193.7 336,-193.7 336,-171.7 217,-171.7"/>
<text text-anchor="start" x="220" y="-179.4" font-family="Helvetica,sans-Serif" font-size="11.00" fill="#000000">_float4[8,8]</text>
<polygon fill="none" stroke="#000000" points="10,-149.7 10,-171.7 217,-171.7 217,-149.7 10,-149.7"/>
<text text-anchor="start" x="30" y="-156.8" font-family="Helvetica,sans-Serif" font-size="11.00" fill="#000000">frac_maj_l</text>
<polygon fill="none" stroke="#000000" points="217,-149.7 217,-171.7 336,-171.7 336,-149.7 217,-149.7"/>
<text text-anchor="start" x="220" y="-157.4" font-family="Helvetica,sans-Serif" font-size="11.00" fill="#000000">float4[8,8]</text>
<polygon fill="none" stroke="#000000" points="10,-127.7 10,-149.7 217,-149.7 217,-127.7 10,-127.7"/>
<text text-anchor="start" x="30" y="-134.8" font-family="Helvetica,sans-Serif" font-size="11.00" fill="#000000">frac_min</text>
<polygon fill="none" stroke="#000000" points="217,-127.7 217,-149.7 336,-149.7 336,-127.7 217,-127.7"/>
<text text-anchor="start" x="220" y="-135.4" font-family="Helvetica,sans-Serif" font-size="11.00" fill="#000000">float4[8,8]</text>
<polygon fill="none" stroke="#000000" points="10,-105.7 10,-127.7 217,-127.7 217,-105.7 10,-105.7"/>
<text text-anchor="start" x="30" y="-112.8" font-family="Helvetica,sans-Serif" font-size="11.00" fill="#000000">frac_maj_r</text>
<polygon fill="none" stroke="#000000" points="217,-105.7 217,-127.7 336,-127.7 336,-105.7 217,-105.7"/>
<text text-anchor="start" x="220" y="-113.4" font-family="Helvetica,sans-Serif" font-size="11.00" fill="#000000">float4[8,8]</text>
<polygon fill="none" stroke="#000000" points="10,-83.7 10,-105.7 217,-105.7 217,-83.7 10,-83.7"/>
<text text-anchor="start" x="30" y="-90.8" font-family="Helvetica,sans-Serif" font-size="11.00" fill="#000000">side</text>
<polygon fill="none" stroke="#000000" points="217,-83.7 217,-105.7 336,-105.7 336,-83.7 217,-83.7"/>
<text text-anchor="start" x="220" y="-91.4" font-family="Helvetica,sans-Serif" font-size="11.00" fill="#000000">text[2147483647]</text>
<polygon fill="none" stroke="#000000" points="10,-61.7 10,-83.7 217,-83.7 217,-61.7 10,-61.7"/>
<text text-anchor="start" x="30" y="-68.8" font-family="Helvetica,sans-Serif" font-size="11.00" fill="#000000">reach</text>
<polygon fill="none" stroke="#000000" points="217,-61.7 217,-83.7 336,-83.7 336,-61.7 217,-61.7"/>
<text text-anchor="start" x="220" y="-69.4" font-family="Helvetica,sans-Serif" font-size="11.00" fill="#000000">int4[10]</text>
<polygon fill="none" stroke="#000000" points="10,-39.7 10,-61.7 217,-61.7 217,-39.7 10,-39.7"/>
<text text-anchor="start" x="30" y="-46.8" font-family="Helvetica,sans-Serif" font-size="11.00" fill="#000000">reach_rel_abs</text>
<polygon fill="none" stroke="#000000" points="217,-39.7 217,-61.7 336,-61.7 336,-39.7 217,-39.7"/>
<text text-anchor="start" x="220" y="-47.4" font-family="Helvetica,sans-Serif" font-size="11.00" fill="#000000">float8[17,17]</text>
<polygon fill="none" stroke="#000000" stroke-width="2" points="9,-39.2 9,-284.2 337,-284.2 337,-39.2 9,-39.2"/>
</a>
</g>
</g>
</g>
</svg>
