<?xml version="1.0" encoding="UTF-8" standalone="no"?>
<!DOCTYPE svg PUBLIC "-//W3C//DTD SVG 1.1//EN"
 "http://www.w3.org/Graphics/SVG/1.1/DTD/svg11.dtd">
<!-- Generated by graphviz version 2.40.1 (20161225.0304)
 -->
<!-- Title: oneDegreeRelationshipsDiagram Pages: 1 -->
<svg width="407pt" height="231pt"
 viewBox="0.00 0.00 407.00 231.20" xmlns="http://www.w3.org/2000/svg" xmlns:xlink="http://www.w3.org/1999/xlink">
<g id="graph0" class="graph" transform="scale(1 1) rotate(0) translate(4 227.2)">
<title>oneDegreeRelationshipsDiagram</title>
<polygon fill="#ffffff" stroke="transparent" points="-4,4 -4,-227.2 403,-227.2 403,4 -4,4"/>
<text text-anchor="middle" x="72.4936" y="-7.3" font-family="Helvetica,sans-Serif" font-size="11.00" fill="#000000">Generated by SchemaSpy</text>
<!-- flood_plain_transect_candidate -->
<g id="node1" class="node">
<title>flood_plain_transect_candidate</title>
<g id="a_node1"><a xlink:href="../../tables/flood_plain_transect_candidate.html" xlink:title="flood_plain_transect_candidate" target="_top">
<polygon fill="#ffffff" stroke="transparent" points="8,-38.2 8,-219.2 391,-219.2 391,-38.2 8,-38.2"/>
<polygon fill="#f5f5f5" stroke="transparent" points="10.5,-193.7 10.5,-216.7 389.5,-216.7 389.5,-193.7 10.5,-193.7"/>
<polygon fill="none" stroke="#000000" points="10.5,-193.7 10.5,-216.7 389.5,-216.7 389.5,-193.7 10.5,-193.7"/>
<text text-anchor="start" x="15.5" y="-202.3" font-family="Helvetica,sans-Serif" font-weight="bold" font-size="11.00" fill="#000000">flood_plain_transect_candidate</text>
<text text-anchor="start" x="356.3895" y="-201.8" font-family="Helvetica,sans-Serif" font-size="11.00" fill="#000000">[view]</text>
<polygon fill="none" stroke="#000000" points="10.5,-171.7 10.5,-193.7 211.5,-193.7 211.5,-171.7 10.5,-171.7"/>
<text text-anchor="start" x="30.5" y="-178.8" font-family="Helvetica,sans-Serif" font-size="11.00" fill="#000000">id</text>
<polygon fill="none" stroke="#000000" points="211.5,-171.7 211.5,-193.7 389.5,-193.7 389.5,-171.7 211.5,-171.7"/>
<text text-anchor="start" x="214.5" y="-179.4" font-family="Helvetica,sans-Serif" font-size="11.00" fill="#000000">int4[10]</text>
<polygon fill="none" stroke="#000000" points="10.5,-149.7 10.5,-171.7 211.5,-171.7 211.5,-149.7 10.5,-149.7"/>
<text text-anchor="start" x="30.5" y="-156.8" font-family="Helvetica,sans-Serif" font-size="11.00" fill="#000000">name</text>
<polygon fill="none" stroke="#000000" points="211.5,-149.7 211.5,-171.7 389.5,-171.7 389.5,-149.7 211.5,-149.7"/>
<text text-anchor="start" x="214.5" y="-157.4" font-family="Helvetica,sans-Serif" font-size="11.00" fill="#000000">varchar[24]</text>
<polygon fill="none" stroke="#000000" points="10.5,-127.7 10.5,-149.7 211.5,-149.7 211.5,-127.7 10.5,-127.7"/>
<text text-anchor="start" x="30.5" y="-134.8" font-family="Helvetica,sans-Serif" font-size="11.00" fill="#000000">line_xyz</text>
<polygon fill="none" stroke="#000000" points="211.5,-127.7 211.5,-149.7 389.5,-149.7 389.5,-127.7 211.5,-127.7"/>
<text text-anchor="start" x="214.5" y="-135.4" font-family="Helvetica,sans-Serif" font-size="11.00" fill="#000000">int4[10]</text>
<polygon fill="none" stroke="#000000" points="10.5,-105.7 10.5,-127.7 211.5,-127.7 211.5,-105.7 10.5,-105.7"/>
<text text-anchor="start" x="30.5" y="-112.8" font-family="Helvetica,sans-Serif" font-size="11.00" fill="#000000">geom</text>
<polygon fill="none" stroke="#000000" points="211.5,-105.7 211.5,-127.7 389.5,-127.7 389.5,-105.7 211.5,-105.7"/>
<text text-anchor="start" x="214.5" y="-113.4" font-family="Helvetica,sans-Serif" font-size="11.00" fill="#000000">geometry[2147483647]</text>
<polygon fill="none" stroke="#000000" points="10.5,-83.7 10.5,-105.7 211.5,-105.7 211.5,-83.7 10.5,-83.7"/>
<text text-anchor="start" x="30.5" y="-90.8" font-family="Helvetica,sans-Serif" font-size="11.00" fill="#000000">constrain_type</text>
<polygon fill="none" stroke="#000000" points="211.5,-83.7 211.5,-105.7 389.5,-105.7 389.5,-83.7 211.5,-83.7"/>
<text text-anchor="start" x="214.2974" y="-91.4" font-family="Helvetica,sans-Serif" font-size="11.00" fill="#000000">hydra_constrain_type[2147483647]</text>
<polygon fill="none" stroke="#000000" points="10.5,-61.7 10.5,-83.7 211.5,-83.7 211.5,-61.7 10.5,-61.7"/>
<text text-anchor="start" x="30.5" y="-68.8" font-family="Helvetica,sans-Serif" font-size="11.00" fill="#000000">reach_intersection</text>
<polygon fill="none" stroke="#000000" points="211.5,-61.7 211.5,-83.7 389.5,-83.7 389.5,-61.7 211.5,-61.7"/>
<text text-anchor="start" x="214.5" y="-69.4" font-family="Helvetica,sans-Serif" font-size="11.00" fill="#000000">geometry[2147483647]</text>
<polygon fill="none" stroke="#000000" points="10.5,-39.7 10.5,-61.7 211.5,-61.7 211.5,-39.7 10.5,-39.7"/>
<text text-anchor="start" x="30.5" y="-46.8" font-family="Helvetica,sans-Serif" font-size="11.00" fill="#000000">topo</text>
<polygon fill="none" stroke="#000000" points="211.5,-39.7 211.5,-61.7 389.5,-61.7 389.5,-39.7 211.5,-39.7"/>
<text text-anchor="start" x="214.5" y="-47.4" font-family="Helvetica,sans-Serif" font-size="11.00" fill="#000000">geometry[2147483647]</text>
<polygon fill="none" stroke="#000000" stroke-width="2" points="9,-39.2 9,-218.2 390,-218.2 390,-39.2 9,-39.2"/>
</a>
</g>
</g>
</g>
</svg>
