<?xml version="1.0" encoding="UTF-8" standalone="no"?>
<!DOCTYPE svg PUBLIC "-//W3C//DTD SVG 1.1//EN"
 "http://www.w3.org/Graphics/SVG/1.1/DTD/svg11.dtd">
<!-- Generated by graphviz version 2.40.1 (20161225.0304)
 -->
<!-- Title: oneDegreeRelationshipsDiagram Pages: 1 -->
<svg width="290pt" height="121pt"
 viewBox="0.00 0.00 290.00 121.20" xmlns="http://www.w3.org/2000/svg" xmlns:xlink="http://www.w3.org/1999/xlink">
<g id="graph0" class="graph" transform="scale(1 1) rotate(0) translate(4 117.2)">
<title>oneDegreeRelationshipsDiagram</title>
<polygon fill="#ffffff" stroke="transparent" points="-4,4 -4,-117.2 286,-117.2 286,4 -4,4"/>
<text text-anchor="middle" x="72.4936" y="-7.3" font-family="Helvetica,sans-Serif" font-size="11.00" fill="#000000">Generated by SchemaSpy</text>
<!-- flood_plain_flow_line -->
<g id="node1" class="node">
<title>flood_plain_flow_line</title>
<g id="a_node1"><a xlink:href="../../tables/flood_plain_flow_line.html" xlink:title="flood_plain_flow_line" target="_top">
<polygon fill="#ffffff" stroke="transparent" points="8,-38.2 8,-109.2 274,-109.2 274,-38.2 8,-38.2"/>
<polygon fill="#f5f5f5" stroke="transparent" points="10,-83.7 10,-106.7 272,-106.7 272,-83.7 10,-83.7"/>
<polygon fill="none" stroke="#000000" points="10,-83.7 10,-106.7 272,-106.7 272,-83.7 10,-83.7"/>
<text text-anchor="start" x="15" y="-92.3" font-family="Helvetica,sans-Serif" font-weight="bold" font-size="11.00" fill="#000000">flood_plain_flow_line</text>
<text text-anchor="start" x="238.8895" y="-91.8" font-family="Helvetica,sans-Serif" font-size="11.00" fill="#000000">[view]</text>
<polygon fill="none" stroke="#000000" points="10,-61.7 10,-83.7 153,-83.7 153,-61.7 10,-61.7"/>
<text text-anchor="start" x="30" y="-68.8" font-family="Helvetica,sans-Serif" font-size="11.00" fill="#000000">id</text>
<polygon fill="none" stroke="#000000" points="153,-61.7 153,-83.7 272,-83.7 272,-61.7 153,-61.7"/>
<text text-anchor="start" x="156" y="-69.4" font-family="Helvetica,sans-Serif" font-size="11.00" fill="#000000">int8[19]</text>
<polygon fill="none" stroke="#000000" points="10,-39.7 10,-61.7 153,-61.7 153,-39.7 10,-39.7"/>
<text text-anchor="start" x="30" y="-46.8" font-family="Helvetica,sans-Serif" font-size="11.00" fill="#000000">geom</text>
<polygon fill="none" stroke="#000000" points="153,-39.7 153,-61.7 272,-61.7 272,-39.7 153,-39.7"/>
<text text-anchor="start" x="155.9485" y="-47.4" font-family="Helvetica,sans-Serif" font-size="11.00" fill="#000000">geometry[2147483647]</text>
<polygon fill="none" stroke="#000000" stroke-width="2" points="9,-39.2 9,-108.2 273,-108.2 273,-39.2 9,-39.2"/>
</a>
</g>
</g>
</g>
</svg>
