<?xml version="1.0" encoding="UTF-8" standalone="no"?>
<!DOCTYPE svg PUBLIC "-//W3C//DTD SVG 1.1//EN"
 "http://www.w3.org/Graphics/SVG/1.1/DTD/svg11.dtd">
<!-- Generated by graphviz version 2.40.1 (20161225.0304)
 -->
<!-- Title: oneDegreeRelationshipsDiagram Pages: 1 -->
<svg width="396pt" height="517pt"
 viewBox="0.00 0.00 396.00 517.20" xmlns="http://www.w3.org/2000/svg" xmlns:xlink="http://www.w3.org/1999/xlink">
<g id="graph0" class="graph" transform="scale(1 1) rotate(0) translate(4 513.2)">
<title>oneDegreeRelationshipsDiagram</title>
<polygon fill="#ffffff" stroke="transparent" points="-4,4 -4,-513.2 392,-513.2 392,4 -4,4"/>
<text text-anchor="middle" x="72.4936" y="-7.3" font-family="Helvetica,sans-Serif" font-size="11.00" fill="#000000">Generated by SchemaSpy</text>
<!-- fuse_spillway_link -->
<g id="node1" class="node">
<title>fuse_spillway_link</title>
<g id="a_node1"><a xlink:href="../../tables/fuse_spillway_link.html" xlink:title="fuse_spillway_link" target="_top">
<polygon fill="#ffffff" stroke="transparent" points="8,-38.2 8,-505.2 380,-505.2 380,-38.2 8,-38.2"/>
<polygon fill="#f5f5f5" stroke="transparent" points="10,-479.7 10,-502.7 378,-502.7 378,-479.7 10,-479.7"/>
<polygon fill="none" stroke="#000000" points="10,-479.7 10,-502.7 378,-502.7 378,-479.7 10,-479.7"/>
<text text-anchor="start" x="15" y="-488.3" font-family="Helvetica,sans-Serif" font-weight="bold" font-size="11.00" fill="#000000">fuse_spillway_link</text>
<text text-anchor="start" x="344.8895" y="-487.8" font-family="Helvetica,sans-Serif" font-size="11.00" fill="#000000">[view]</text>
<polygon fill="none" stroke="#000000" points="10,-457.7 10,-479.7 139,-479.7 139,-457.7 10,-457.7"/>
<text text-anchor="start" x="30" y="-464.8" font-family="Helvetica,sans-Serif" font-size="11.00" fill="#000000">id</text>
<polygon fill="none" stroke="#000000" points="139,-457.7 139,-479.7 378,-479.7 378,-457.7 139,-457.7"/>
<text text-anchor="start" x="142" y="-465.4" font-family="Helvetica,sans-Serif" font-size="11.00" fill="#000000">int4[10]</text>
<polygon fill="none" stroke="#000000" points="10,-435.7 10,-457.7 139,-457.7 139,-435.7 10,-435.7"/>
<text text-anchor="start" x="30" y="-442.8" font-family="Helvetica,sans-Serif" font-size="11.00" fill="#000000">name</text>
<polygon fill="none" stroke="#000000" points="139,-435.7 139,-457.7 378,-457.7 378,-435.7 139,-435.7"/>
<text text-anchor="start" x="142" y="-443.4" font-family="Helvetica,sans-Serif" font-size="11.00" fill="#000000">varchar[24]</text>
<polygon fill="none" stroke="#000000" points="10,-413.7 10,-435.7 139,-435.7 139,-413.7 10,-413.7"/>
<text text-anchor="start" x="30" y="-420.8" font-family="Helvetica,sans-Serif" font-size="11.00" fill="#000000">up</text>
<polygon fill="none" stroke="#000000" points="139,-413.7 139,-435.7 378,-435.7 378,-413.7 139,-413.7"/>
<text text-anchor="start" x="142" y="-421.4" font-family="Helvetica,sans-Serif" font-size="11.00" fill="#000000">int4[10]</text>
<polygon fill="none" stroke="#000000" points="10,-391.7 10,-413.7 139,-413.7 139,-391.7 10,-391.7"/>
<text text-anchor="start" x="30" y="-398.8" font-family="Helvetica,sans-Serif" font-size="11.00" fill="#000000">down</text>
<polygon fill="none" stroke="#000000" points="139,-391.7 139,-413.7 378,-413.7 378,-391.7 139,-391.7"/>
<text text-anchor="start" x="142" y="-399.4" font-family="Helvetica,sans-Serif" font-size="11.00" fill="#000000">int4[10]</text>
<polygon fill="none" stroke="#000000" points="10,-369.7 10,-391.7 139,-391.7 139,-369.7 10,-369.7"/>
<text text-anchor="start" x="30" y="-376.8" font-family="Helvetica,sans-Serif" font-size="11.00" fill="#000000">z_invert</text>
<polygon fill="none" stroke="#000000" points="139,-369.7 139,-391.7 378,-391.7 378,-369.7 139,-369.7"/>
<text text-anchor="start" x="142" y="-377.4" font-family="Helvetica,sans-Serif" font-size="11.00" fill="#000000">float4[8,8]</text>
<polygon fill="none" stroke="#000000" points="10,-347.7 10,-369.7 139,-369.7 139,-347.7 10,-347.7"/>
<text text-anchor="start" x="30" y="-354.8" font-family="Helvetica,sans-Serif" font-size="11.00" fill="#000000">width</text>
<polygon fill="none" stroke="#000000" points="139,-347.7 139,-369.7 378,-369.7 378,-347.7 139,-347.7"/>
<text text-anchor="start" x="142" y="-355.4" font-family="Helvetica,sans-Serif" font-size="11.00" fill="#000000">float4[8,8]</text>
<polygon fill="none" stroke="#000000" points="10,-325.7 10,-347.7 139,-347.7 139,-325.7 10,-325.7"/>
<text text-anchor="start" x="30" y="-332.8" font-family="Helvetica,sans-Serif" font-size="11.00" fill="#000000">cc</text>
<polygon fill="none" stroke="#000000" points="139,-325.7 139,-347.7 378,-347.7 378,-325.7 139,-325.7"/>
<text text-anchor="start" x="142" y="-333.4" font-family="Helvetica,sans-Serif" font-size="11.00" fill="#000000">float4[8,8]</text>
<polygon fill="none" stroke="#000000" points="10,-303.7 10,-325.7 139,-325.7 139,-303.7 10,-303.7"/>
<text text-anchor="start" x="30" y="-310.8" font-family="Helvetica,sans-Serif" font-size="11.00" fill="#000000">break_mode</text>
<polygon fill="none" stroke="#000000" points="139,-303.7 139,-325.7 378,-325.7 378,-303.7 139,-303.7"/>
<text text-anchor="start" x="141.7388" y="-311.4" font-family="Helvetica,sans-Serif" font-size="11.00" fill="#000000">hydra_fuse_spillway_break_mode[2147483647]</text>
<polygon fill="none" stroke="#000000" points="10,-281.7 10,-303.7 139,-303.7 139,-281.7 10,-281.7"/>
<text text-anchor="start" x="30" y="-288.8" font-family="Helvetica,sans-Serif" font-size="11.00" fill="#000000">z_break</text>
<polygon fill="none" stroke="#000000" points="139,-281.7 139,-303.7 378,-303.7 378,-281.7 139,-281.7"/>
<text text-anchor="start" x="142" y="-289.4" font-family="Helvetica,sans-Serif" font-size="11.00" fill="#000000">float4[8,8]</text>
<polygon fill="none" stroke="#000000" points="10,-259.7 10,-281.7 139,-281.7 139,-259.7 10,-259.7"/>
<text text-anchor="start" x="30" y="-266.8" font-family="Helvetica,sans-Serif" font-size="11.00" fill="#000000">t_break</text>
<polygon fill="none" stroke="#000000" points="139,-259.7 139,-281.7 378,-281.7 378,-259.7 139,-259.7"/>
<text text-anchor="start" x="142" y="-267.4" font-family="Helvetica,sans-Serif" font-size="11.00" fill="#000000">float4[8,8]</text>
<polygon fill="none" stroke="#000000" points="10,-237.7 10,-259.7 139,-259.7 139,-237.7 10,-237.7"/>
<text text-anchor="start" x="30" y="-244.8" font-family="Helvetica,sans-Serif" font-size="11.00" fill="#000000">grp</text>
<polygon fill="none" stroke="#000000" points="139,-237.7 139,-259.7 378,-259.7 378,-237.7 139,-237.7"/>
<text text-anchor="start" x="142" y="-245.4" font-family="Helvetica,sans-Serif" font-size="11.00" fill="#000000">int4[10]</text>
<polygon fill="none" stroke="#000000" points="10,-215.7 10,-237.7 139,-237.7 139,-215.7 10,-215.7"/>
<text text-anchor="start" x="30" y="-222.8" font-family="Helvetica,sans-Serif" font-size="11.00" fill="#000000">dt_fracw_array</text>
<polygon fill="none" stroke="#000000" points="139,-215.7 139,-237.7 378,-237.7 378,-215.7 139,-215.7"/>
<text text-anchor="start" x="142" y="-223.4" font-family="Helvetica,sans-Serif" font-size="11.00" fill="#000000">_float4[8,8]</text>
<polygon fill="none" stroke="#000000" points="10,-193.7 10,-215.7 139,-215.7 139,-193.7 10,-193.7"/>
<text text-anchor="start" x="30" y="-200.8" font-family="Helvetica,sans-Serif" font-size="11.00" fill="#000000">geom</text>
<polygon fill="none" stroke="#000000" points="139,-193.7 139,-215.7 378,-215.7 378,-193.7 139,-193.7"/>
<text text-anchor="start" x="142" y="-201.4" font-family="Helvetica,sans-Serif" font-size="11.00" fill="#000000">geometry[2147483647]</text>
<polygon fill="none" stroke="#000000" points="10,-171.7 10,-193.7 139,-193.7 139,-171.7 10,-171.7"/>
<text text-anchor="start" x="30" y="-178.8" font-family="Helvetica,sans-Serif" font-size="11.00" fill="#000000">configuration</text>
<polygon fill="none" stroke="#000000" points="139,-171.7 139,-193.7 378,-193.7 378,-171.7 139,-171.7"/>
<text text-anchor="start" x="142" y="-179.4" font-family="Helvetica,sans-Serif" font-size="11.00" fill="#000000">varchar[2147483647]</text>
<polygon fill="none" stroke="#000000" points="10,-149.7 10,-171.7 139,-171.7 139,-149.7 10,-149.7"/>
<text text-anchor="start" x="30" y="-156.8" font-family="Helvetica,sans-Serif" font-size="11.00" fill="#000000">generated</text>
<polygon fill="none" stroke="#000000" points="139,-149.7 139,-171.7 378,-171.7 378,-149.7 139,-149.7"/>
<text text-anchor="start" x="142" y="-157.4" font-family="Helvetica,sans-Serif" font-size="11.00" fill="#000000">int4[10]</text>
<polygon fill="none" stroke="#000000" points="10,-127.7 10,-149.7 139,-149.7 139,-127.7 10,-127.7"/>
<text text-anchor="start" x="30" y="-134.8" font-family="Helvetica,sans-Serif" font-size="11.00" fill="#000000">validity</text>
<polygon fill="none" stroke="#000000" points="139,-127.7 139,-149.7 378,-149.7 378,-127.7 139,-127.7"/>
<text text-anchor="start" x="142" y="-135.4" font-family="Helvetica,sans-Serif" font-size="11.00" fill="#000000">bool[1]</text>
<polygon fill="none" stroke="#000000" points="10,-105.7 10,-127.7 139,-127.7 139,-105.7 10,-105.7"/>
<text text-anchor="start" x="30" y="-112.8" font-family="Helvetica,sans-Serif" font-size="11.00" fill="#000000">up_type</text>
<polygon fill="none" stroke="#000000" points="139,-105.7 139,-127.7 378,-127.7 378,-105.7 139,-105.7"/>
<text text-anchor="start" x="142" y="-113.4" font-family="Helvetica,sans-Serif" font-size="11.00" fill="#000000">hydra_node_type[2147483647]</text>
<polygon fill="none" stroke="#000000" points="10,-83.7 10,-105.7 139,-105.7 139,-83.7 10,-83.7"/>
<text text-anchor="start" x="30" y="-90.8" font-family="Helvetica,sans-Serif" font-size="11.00" fill="#000000">down_type</text>
<polygon fill="none" stroke="#000000" points="139,-83.7 139,-105.7 378,-105.7 378,-83.7 139,-83.7"/>
<text text-anchor="start" x="142" y="-91.4" font-family="Helvetica,sans-Serif" font-size="11.00" fill="#000000">hydra_node_type[2147483647]</text>
<polygon fill="none" stroke="#000000" points="10,-61.7 10,-83.7 139,-83.7 139,-61.7 10,-61.7"/>
<text text-anchor="start" x="30" y="-68.8" font-family="Helvetica,sans-Serif" font-size="11.00" fill="#000000">configuration_json</text>
<polygon fill="none" stroke="#000000" points="139,-61.7 139,-83.7 378,-83.7 378,-61.7 139,-61.7"/>
<text text-anchor="start" x="142" y="-69.4" font-family="Helvetica,sans-Serif" font-size="11.00" fill="#000000">json[2147483647]</text>
<polygon fill="none" stroke="#000000" points="10,-39.7 10,-61.7 139,-61.7 139,-39.7 10,-39.7"/>
<text text-anchor="start" x="30" y="-46.8" font-family="Helvetica,sans-Serif" font-size="11.00" fill="#000000">comment</text>
<polygon fill="none" stroke="#000000" points="139,-39.7 139,-61.7 378,-61.7 378,-39.7 139,-39.7"/>
<text text-anchor="start" x="142" y="-47.4" font-family="Helvetica,sans-Serif" font-size="11.00" fill="#000000">varchar[2147483647]</text>
<polygon fill="none" stroke="#000000" stroke-width="2" points="9,-39.2 9,-504.2 379,-504.2 379,-39.2 9,-39.2"/>
</a>
</g>
</g>
</g>
</svg>
