<?xml version="1.0" encoding="UTF-8" standalone="no"?>
<!DOCTYPE svg PUBLIC "-//W3C//DTD SVG 1.1//EN"
 "http://www.w3.org/Graphics/SVG/1.1/DTD/svg11.dtd">
<!-- Generated by graphviz version 2.40.1 (20161225.0304)
 -->
<!-- Title: oneDegreeRelationshipsDiagram Pages: 1 -->
<svg width="635pt" height="516pt"
 viewBox="0.00 0.00 635.00 516.20" xmlns="http://www.w3.org/2000/svg" xmlns:xlink="http://www.w3.org/1999/xlink">
<g id="graph0" class="graph" transform="scale(1 1) rotate(0) translate(4 512.2)">
<title>oneDegreeRelationshipsDiagram</title>
<polygon fill="#ffffff" stroke="transparent" points="-4,4 -4,-512.2 631,-512.2 631,4 -4,4"/>
<text text-anchor="middle" x="72.4936" y="-7.3" font-family="Helvetica,sans-Serif" font-size="11.00" fill="#000000">Generated by SchemaSpy</text>
<!-- _link -->
<g id="node1" class="node">
<title>_link</title>
<g id="a_node1"><a xlink:href="../../tables/_link.html" xlink:title="_link" target="_top">
<polygon fill="#ffffff" stroke="transparent" points="522,-223.2 522,-504.2 619,-504.2 619,-223.2 522,-223.2"/>
<polygon fill="#f5f5f5" stroke="transparent" points="522.5,-480.7 522.5,-503.7 619.5,-503.7 619.5,-480.7 522.5,-480.7"/>
<polygon fill="none" stroke="#000000" points="522.5,-480.7 522.5,-503.7 619.5,-503.7 619.5,-480.7 522.5,-480.7"/>
<text text-anchor="start" x="527.5" y="-489.3" font-family="Helvetica,sans-Serif" font-weight="bold" font-size="11.00" fill="#000000">_link</text>
<text text-anchor="start" x="584.5437" y="-488.8" font-family="Helvetica,sans-Serif" font-size="11.00" fill="#000000">[table]</text>
<polygon fill="none" stroke="#000000" points="522.5,-458.7 522.5,-480.7 619.5,-480.7 619.5,-458.7 522.5,-458.7"/>
<image xlink:href="../../images/primaryKeys.png" width="11px" height="12px" preserveAspectRatio="xMinYMin meet" x="527.5" y="-475.7"/>
<text text-anchor="start" x="542.5" y="-465.8" font-family="Helvetica,sans-Serif" font-size="11.00" fill="#000000">id</text>
<polygon fill="#ffffff" stroke="transparent" points="522.5,-436.7 522.5,-458.7 619.5,-458.7 619.5,-436.7 522.5,-436.7"/>
<polygon fill="none" stroke="#000000" points="522.5,-436.7 522.5,-458.7 619.5,-458.7 619.5,-436.7 522.5,-436.7"/>
<text text-anchor="start" x="542.5" y="-443.8" font-family="Helvetica,sans-Serif" font-size="11.00" fill="#000000">link_type</text>
<polygon fill="#ffffff" stroke="transparent" points="522.5,-414.7 522.5,-436.7 619.5,-436.7 619.5,-414.7 522.5,-414.7"/>
<polygon fill="none" stroke="#000000" points="522.5,-414.7 522.5,-436.7 619.5,-436.7 619.5,-414.7 522.5,-414.7"/>
<text text-anchor="start" x="542.5" y="-421.8" font-family="Helvetica,sans-Serif" font-size="11.00" fill="#000000">name</text>
<polygon fill="#ffffff" stroke="transparent" points="522.5,-392.7 522.5,-414.7 619.5,-414.7 619.5,-392.7 522.5,-392.7"/>
<polygon fill="none" stroke="#000000" points="522.5,-392.7 522.5,-414.7 619.5,-414.7 619.5,-392.7 522.5,-392.7"/>
<image xlink:href="../../images/foreignKeys.png" width="11px" height="12px" preserveAspectRatio="xMinYMin meet" x="527.5" y="-409.7"/>
<text text-anchor="start" x="542.5" y="-399.8" font-family="Helvetica,sans-Serif" font-size="11.00" fill="#000000">generated</text>
<polygon fill="#ffffff" stroke="transparent" points="522.5,-370.7 522.5,-392.7 619.5,-392.7 619.5,-370.7 522.5,-370.7"/>
<polygon fill="none" stroke="#000000" points="522.5,-370.7 522.5,-392.7 619.5,-392.7 619.5,-370.7 522.5,-370.7"/>
<image xlink:href="../../images/foreignKeys.png" width="11px" height="12px" preserveAspectRatio="xMinYMin meet" x="527.5" y="-387.7"/>
<text text-anchor="start" x="542.5" y="-377.8" font-family="Helvetica,sans-Serif" font-size="11.00" fill="#000000">up</text>
<polygon fill="none" stroke="#000000" points="522.5,-348.7 522.5,-370.7 619.5,-370.7 619.5,-348.7 522.5,-348.7"/>
<image xlink:href="../../images/foreignKeys.png" width="11px" height="12px" preserveAspectRatio="xMinYMin meet" x="527.5" y="-365.7"/>
<text text-anchor="start" x="542.5" y="-355.8" font-family="Helvetica,sans-Serif" font-size="11.00" fill="#000000">up_type</text>
<polygon fill="#ffffff" stroke="transparent" points="522.5,-326.7 522.5,-348.7 619.5,-348.7 619.5,-326.7 522.5,-326.7"/>
<polygon fill="none" stroke="#000000" points="522.5,-326.7 522.5,-348.7 619.5,-348.7 619.5,-326.7 522.5,-326.7"/>
<image xlink:href="../../images/foreignKeys.png" width="11px" height="12px" preserveAspectRatio="xMinYMin meet" x="527.5" y="-343.7"/>
<text text-anchor="start" x="542.5" y="-333.8" font-family="Helvetica,sans-Serif" font-size="11.00" fill="#000000">down</text>
<polygon fill="none" stroke="#000000" points="522.5,-304.7 522.5,-326.7 619.5,-326.7 619.5,-304.7 522.5,-304.7"/>
<image xlink:href="../../images/foreignKeys.png" width="11px" height="12px" preserveAspectRatio="xMinYMin meet" x="527.5" y="-321.7"/>
<text text-anchor="start" x="542.5" y="-311.8" font-family="Helvetica,sans-Serif" font-size="11.00" fill="#000000">down_type</text>
<polygon fill="#ffffff" stroke="transparent" points="522.5,-282.7 522.5,-304.7 619.5,-304.7 619.5,-282.7 522.5,-282.7"/>
<polygon fill="none" stroke="#000000" points="522.5,-282.7 522.5,-304.7 619.5,-304.7 619.5,-282.7 522.5,-282.7"/>
<text text-anchor="start" x="542.5" y="-289.8" font-family="Helvetica,sans-Serif" font-size="11.00" fill="#000000">geom</text>
<polygon fill="#ffffff" stroke="transparent" points="522.5,-260.7 522.5,-282.7 619.5,-282.7 619.5,-260.7 522.5,-260.7"/>
<polygon fill="none" stroke="#000000" points="522.5,-260.7 522.5,-282.7 619.5,-282.7 619.5,-260.7 522.5,-260.7"/>
<text text-anchor="start" x="542.5" y="-267.8" font-family="Helvetica,sans-Serif" font-size="11.00" fill="#000000">validity</text>
<polygon fill="none" stroke="#000000" points="522.5,-241.7 522.5,-260.7 619.5,-260.7 619.5,-241.7 522.5,-241.7"/>
<text text-anchor="start" x="525.5" y="-247.8" font-family="Helvetica,sans-Serif" font-size="11.00" fill="#000000">...</text>
<polygon fill="#ffffff" stroke="transparent" points="522.5,-222.7 522.5,-241.7 548.5,-241.7 548.5,-222.7 522.5,-222.7"/>
<polygon fill="none" stroke="#000000" points="522.5,-222.7 522.5,-241.7 548.5,-241.7 548.5,-222.7 522.5,-222.7"/>
<text text-anchor="start" x="525.5" y="-228.8" font-family="Helvetica,sans-Serif" font-size="11.00" fill="#000000">&lt; 5</text>
<polygon fill="#ffffff" stroke="transparent" points="548.5,-222.7 548.5,-241.7 589.5,-241.7 589.5,-222.7 548.5,-222.7"/>
<polygon fill="none" stroke="#000000" points="548.5,-222.7 548.5,-241.7 589.5,-241.7 589.5,-222.7 548.5,-222.7"/>
<text text-anchor="start" x="554.1105" y="-228.8" font-family="Helvetica,sans-Serif" font-size="11.00" fill="#000000">0 rows</text>
<polygon fill="#ffffff" stroke="transparent" points="589.5,-222.7 589.5,-241.7 619.5,-241.7 619.5,-222.7 589.5,-222.7"/>
<polygon fill="none" stroke="#000000" points="589.5,-222.7 589.5,-241.7 619.5,-241.7 619.5,-222.7 589.5,-222.7"/>
<text text-anchor="start" x="594.7904" y="-228.8" font-family="Helvetica,sans-Serif" font-size="11.00" fill="#000000">60 &gt;</text>
</a>
</g>
</g>
<!-- _node -->
<g id="node2" class="node">
<title>_node</title>
<g id="a_node2"><a xlink:href="../../tables/_node.html" xlink:title="_node" target="_top">
<polygon fill="#ffffff" stroke="transparent" points="329.5,-186.2 329.5,-379.2 426.5,-379.2 426.5,-186.2 329.5,-186.2"/>
<polygon fill="#f5f5f5" stroke="transparent" points="330,-355.7 330,-378.7 427,-378.7 427,-355.7 330,-355.7"/>
<polygon fill="none" stroke="#000000" points="330,-355.7 330,-378.7 427,-378.7 427,-355.7 330,-355.7"/>
<text text-anchor="start" x="335" y="-364.3" font-family="Helvetica,sans-Serif" font-weight="bold" font-size="11.00" fill="#000000">_node</text>
<text text-anchor="start" x="392.0437" y="-363.8" font-family="Helvetica,sans-Serif" font-size="11.00" fill="#000000">[table]</text>
<polygon fill="none" stroke="#000000" points="330,-333.7 330,-355.7 427,-355.7 427,-333.7 330,-333.7"/>
<image xlink:href="../../images/primaryKeys.png" width="11px" height="12px" preserveAspectRatio="xMinYMin meet" x="335" y="-350.7"/>
<text text-anchor="start" x="350" y="-340.8" font-family="Helvetica,sans-Serif" font-size="11.00" fill="#000000">id</text>
<polygon fill="#ffffff" stroke="transparent" points="330,-311.7 330,-333.7 427,-333.7 427,-311.7 330,-311.7"/>
<polygon fill="none" stroke="#000000" points="330,-311.7 330,-333.7 427,-333.7 427,-311.7 330,-311.7"/>
<text text-anchor="start" x="350" y="-318.8" font-family="Helvetica,sans-Serif" font-size="11.00" fill="#000000">node_type</text>
<polygon fill="#ffffff" stroke="transparent" points="330,-289.7 330,-311.7 427,-311.7 427,-289.7 330,-289.7"/>
<polygon fill="none" stroke="#000000" points="330,-289.7 330,-311.7 427,-311.7 427,-289.7 330,-289.7"/>
<text text-anchor="start" x="350" y="-296.8" font-family="Helvetica,sans-Serif" font-size="11.00" fill="#000000">name</text>
<polygon fill="#ffffff" stroke="transparent" points="330,-267.7 330,-289.7 427,-289.7 427,-267.7 330,-267.7"/>
<polygon fill="none" stroke="#000000" points="330,-267.7 330,-289.7 427,-289.7 427,-267.7 330,-267.7"/>
<text text-anchor="start" x="350" y="-274.8" font-family="Helvetica,sans-Serif" font-size="11.00" fill="#000000">geom</text>
<polygon fill="#ffffff" stroke="transparent" points="330,-245.7 330,-267.7 427,-267.7 427,-245.7 330,-245.7"/>
<polygon fill="none" stroke="#000000" points="330,-245.7 330,-267.7 427,-267.7 427,-245.7 330,-245.7"/>
<image xlink:href="../../images/foreignKeys.png" width="11px" height="12px" preserveAspectRatio="xMinYMin meet" x="335" y="-262.7"/>
<text text-anchor="start" x="350" y="-252.8" font-family="Helvetica,sans-Serif" font-size="11.00" fill="#000000">generated</text>
<polygon fill="#ffffff" stroke="transparent" points="330,-223.7 330,-245.7 427,-245.7 427,-223.7 330,-223.7"/>
<polygon fill="none" stroke="#000000" points="330,-223.7 330,-245.7 427,-245.7 427,-223.7 330,-223.7"/>
<text text-anchor="start" x="350" y="-230.8" font-family="Helvetica,sans-Serif" font-size="11.00" fill="#000000">validity</text>
<polygon fill="none" stroke="#000000" points="330,-204.7 330,-223.7 427,-223.7 427,-204.7 330,-204.7"/>
<text text-anchor="start" x="333" y="-210.8" font-family="Helvetica,sans-Serif" font-size="11.00" fill="#000000">...</text>
<polygon fill="#ffffff" stroke="transparent" points="330,-185.7 330,-204.7 356,-204.7 356,-185.7 330,-185.7"/>
<polygon fill="none" stroke="#000000" points="330,-185.7 330,-204.7 356,-204.7 356,-185.7 330,-185.7"/>
<text text-anchor="start" x="333" y="-191.8" font-family="Helvetica,sans-Serif" font-size="11.00" fill="#000000">&lt; 1</text>
<polygon fill="#ffffff" stroke="transparent" points="356,-185.7 356,-204.7 397,-204.7 397,-185.7 356,-185.7"/>
<polygon fill="none" stroke="#000000" points="356,-185.7 356,-204.7 397,-204.7 397,-185.7 356,-185.7"/>
<text text-anchor="start" x="361.6105" y="-191.8" font-family="Helvetica,sans-Serif" font-size="11.00" fill="#000000">0 rows</text>
<polygon fill="#ffffff" stroke="transparent" points="397,-185.7 397,-204.7 427,-204.7 427,-185.7 397,-185.7"/>
<polygon fill="none" stroke="#000000" points="397,-185.7 397,-204.7 427,-204.7 427,-185.7 397,-185.7"/>
<text text-anchor="start" x="402.2904" y="-191.8" font-family="Helvetica,sans-Serif" font-size="11.00" fill="#000000">24 &gt;</text>
</a>
</g>
</g>
<!-- _link&#45;&gt;_node -->
<g id="edge1" class="edge">
<title>_link:w&#45;&gt;_node:e</title>
<path fill="none" stroke="#000000" d="M507.9231,-338.0008C476.8431,-339.3406 464.2385,-344.7 427,-344.7"/>
<polygon fill="#000000" stroke="#000000" points="514.5017,-337.8651 522.5743,-341.2992 518.5009,-337.7825 522.5,-337.7 522.5,-337.7 522.5,-337.7 518.5009,-337.7825 522.4257,-334.1008 514.5017,-337.8651 514.5017,-337.8651"/>
<ellipse fill="none" stroke="#000000" cx="511.3024" cy="-337.9311" rx="3.2" ry="3.2"/>
</g>
<!-- _link&#45;&gt;_node -->
<g id="edge2" class="edge">
<title>_link:w&#45;&gt;_node:e</title>
<path fill="none" stroke="#000000" d="M507.9231,-316.0008C476.8431,-317.3406 464.2385,-322.7 427,-322.7"/>
<polygon fill="#000000" stroke="#000000" points="514.5017,-315.8651 522.5743,-319.2992 518.5009,-315.7825 522.5,-315.7 522.5,-315.7 522.5,-315.7 518.5009,-315.7825 522.4257,-312.1008 514.5017,-315.8651 514.5017,-315.8651"/>
<ellipse fill="none" stroke="#000000" cx="511.3024" cy="-315.9311" rx="3.2" ry="3.2"/>
</g>
<!-- _link&#45;&gt;_node -->
<g id="edge4" class="edge">
<title>_link:w&#45;&gt;_node:e</title>
<path fill="none" stroke="#000000" d="M508.0566,-380.2947C475.3716,-373.5362 467.1845,-344.7 427,-344.7"/>
<polygon fill="#000000" stroke="#000000" points="514.5376,-380.9252 522.1514,-385.2831 518.5188,-381.3126 522.5,-381.7 522.5,-381.7 522.5,-381.7 518.5188,-381.3126 522.8486,-378.1169 514.5376,-380.9252 514.5376,-380.9252"/>
<ellipse fill="none" stroke="#000000" cx="511.3526" cy="-380.6153" rx="3.2" ry="3.2"/>
</g>
<!-- _link&#45;&gt;_node -->
<g id="edge5" class="edge">
<title>_link:w&#45;&gt;_node:e</title>
<path fill="none" stroke="#000000" d="M508.0566,-358.2947C475.3716,-351.5362 467.1845,-322.7 427,-322.7"/>
<polygon fill="#000000" stroke="#000000" points="514.5376,-358.9252 522.1514,-363.2831 518.5188,-359.3126 522.5,-359.7 522.5,-359.7 522.5,-359.7 518.5188,-359.3126 522.8486,-356.1169 514.5376,-358.9252 514.5376,-358.9252"/>
<ellipse fill="none" stroke="#000000" cx="511.3526" cy="-358.6153" rx="3.2" ry="3.2"/>
</g>
<!-- generation_step -->
<g id="node3" class="node">
<title>generation_step</title>
<g id="a_node3"><a xlink:href="../../tables/generation_step.html" xlink:title="generation_step" target="_top">
<polygon fill="#ffffff" stroke="transparent" points="8,-180.7 8,-292.7 234,-292.7 234,-180.7 8,-180.7"/>
<polygon fill="#f5f5f5" stroke="transparent" points="10,-267.7 10,-290.7 232,-290.7 232,-267.7 10,-267.7"/>
<polygon fill="none" stroke="#000000" points="10,-267.7 10,-290.7 232,-290.7 232,-267.7 10,-267.7"/>
<text text-anchor="start" x="15" y="-276.3" font-family="Helvetica,sans-Serif" font-weight="bold" font-size="11.00" fill="#000000">generation_step</text>
<text text-anchor="start" x="197.0437" y="-275.8" font-family="Helvetica,sans-Serif" font-size="11.00" fill="#000000">[table]</text>
<polygon fill="none" stroke="#000000" points="10,-245.7 10,-267.7 123,-267.7 123,-245.7 10,-245.7"/>
<image xlink:href="../../images/primaryKeys.png" width="11px" height="12px" preserveAspectRatio="xMinYMin meet" x="15" y="-262.7"/>
<text text-anchor="start" x="30" y="-252.8" font-family="Helvetica,sans-Serif" font-size="11.00" fill="#000000">id</text>
<polygon fill="none" stroke="#000000" points="123,-245.7 123,-267.7 232,-267.7 232,-245.7 123,-245.7"/>
<text text-anchor="start" x="126" y="-253.4" font-family="Helvetica,sans-Serif" font-size="11.00" fill="#000000">serial[10]</text>
<polygon fill="#ffffff" stroke="transparent" points="10,-223.7 10,-245.7 123,-245.7 123,-223.7 10,-223.7"/>
<polygon fill="none" stroke="#000000" points="10,-223.7 10,-245.7 123,-245.7 123,-223.7 10,-223.7"/>
<text text-anchor="start" x="30" y="-230.8" font-family="Helvetica,sans-Serif" font-size="11.00" fill="#000000">name</text>
<polygon fill="none" stroke="#000000" points="123,-223.7 123,-245.7 232,-245.7 232,-223.7 123,-223.7"/>
<text text-anchor="start" x="126" y="-231.4" font-family="Helvetica,sans-Serif" font-size="11.00" fill="#000000">varchar[24]</text>
<polygon fill="none" stroke="#000000" points="10,-201.7 10,-223.7 123,-223.7 123,-201.7 10,-201.7"/>
<text text-anchor="start" x="30" y="-208.8" font-family="Helvetica,sans-Serif" font-size="11.00" fill="#000000">description</text>
<polygon fill="none" stroke="#000000" points="123,-201.7 123,-223.7 232,-223.7 232,-201.7 123,-201.7"/>
<text text-anchor="start" x="125.5344" y="-209.4" font-family="Helvetica,sans-Serif" font-size="11.00" fill="#000000">varchar[2147483647]</text>
<polygon fill="#ffffff" stroke="transparent" points="10,-182.7 10,-201.7 58,-201.7 58,-182.7 10,-182.7"/>
<polygon fill="none" stroke="#000000" points="10,-182.7 10,-201.7 58,-201.7 58,-182.7 10,-182.7"/>
<text text-anchor="start" x="13" y="-188.8" font-family="Helvetica,sans-Serif" font-size="11.00" fill="#000000">&lt; 0</text>
<polygon fill="#ffffff" stroke="transparent" points="58,-182.7 58,-201.7 123,-201.7 123,-182.7 58,-182.7"/>
<polygon fill="none" stroke="#000000" points="58,-182.7 58,-201.7 123,-201.7 123,-182.7 58,-182.7"/>
<text text-anchor="start" x="87.6105" y="-188.8" font-family="Helvetica,sans-Serif" font-size="11.00" fill="#000000">0 rows</text>
<polygon fill="#ffffff" stroke="transparent" points="123,-182.7 123,-201.7 232,-201.7 232,-182.7 123,-182.7"/>
<polygon fill="none" stroke="#000000" points="123,-182.7 123,-201.7 232,-201.7 232,-182.7 123,-182.7"/>
<text text-anchor="start" x="213.4053" y="-188.8" font-family="Helvetica,sans-Serif" font-size="11.00" fill="#000000">3 &gt;</text>
<polygon fill="none" stroke="#000000" stroke-width="2" points="9,-181.7 9,-291.7 233,-291.7 233,-181.7 9,-181.7"/>
</a>
</g>
</g>
<!-- _link&#45;&gt;generation_step -->
<g id="edge3" class="edge">
<title>_link:w&#45;&gt;generation_step:e</title>
<path fill="none" stroke="#000000" d="M508.0069,-404.007C407.7477,-408.2466 358.302,-453.9915 275,-389.7 225.8201,-351.7435 294.1237,-256.7 232,-256.7"/>
<polygon fill="#000000" stroke="#000000" points="514.5018,-403.8695 522.5763,-407.2992 518.5009,-403.7847 522.5,-403.7 522.5,-403.7 522.5,-403.7 518.5009,-403.7847 522.4237,-400.1008 514.5018,-403.8695 514.5018,-403.8695"/>
<ellipse fill="none" stroke="#000000" cx="511.3025" cy="-403.9373" rx="3.2" ry="3.2"/>
</g>
<!-- _node&#45;&gt;generation_step -->
<g id="edge6" class="edge">
<title>_node:w&#45;&gt;generation_step:e</title>
<path fill="none" stroke="#000000" d="M315.4981,-256.7C283.3283,-256.7 270.2813,-256.7 232,-256.7"/>
<polygon fill="#000000" stroke="#000000" points="322,-256.7001 330,-260.3 326,-256.7 330,-256.7 330,-256.7 330,-256.7 326,-256.7 330,-253.1 322,-256.7001 322,-256.7001"/>
<ellipse fill="none" stroke="#000000" cx="318.8" cy="-256.7001" rx="3.2" ry="3.2"/>
</g>
<!-- _river_cross_section_pl1d -->
<g id="node4" class="node">
<title>_river_cross_section_pl1d</title>
<g id="a_node4"><a xlink:href="../../tables/_river_cross_section_pl1d.html" xlink:title="_river_cross_section_pl1d" target="_top">
<polygon fill="#ffffff" stroke="transparent" points="283,-38.2 283,-165.2 473,-165.2 473,-38.2 283,-38.2"/>
<polygon fill="#f5f5f5" stroke="transparent" points="283,-141.7 283,-164.7 473,-164.7 473,-141.7 283,-141.7"/>
<polygon fill="none" stroke="#000000" points="283,-141.7 283,-164.7 473,-164.7 473,-141.7 283,-141.7"/>
<text text-anchor="start" x="288" y="-150.3" font-family="Helvetica,sans-Serif" font-weight="bold" font-size="11.00" fill="#000000">_river_cross_section_pl1d</text>
<text text-anchor="start" x="438.5219" y="-149.8" font-family="Helvetica,sans-Serif" font-size="11.00" fill="#000000">[table]</text>
<polygon fill="#ffffff" stroke="transparent" points="283,-119.7 283,-141.7 473,-141.7 473,-119.7 283,-119.7"/>
<polygon fill="none" stroke="#000000" points="283,-119.7 283,-141.7 473,-141.7 473,-119.7 283,-119.7"/>
<image xlink:href="../../images/foreignKeys.png" width="11px" height="12px" preserveAspectRatio="xMinYMin meet" x="288" y="-136.7"/>
<text text-anchor="start" x="312" y="-126.8" font-family="Helvetica,sans-Serif" font-size="11.00" fill="#000000">id</text>
<polygon fill="#ffffff" stroke="transparent" points="283,-97.7 283,-119.7 473,-119.7 473,-97.7 283,-97.7"/>
<polygon fill="none" stroke="#000000" points="283,-97.7 283,-119.7 473,-119.7 473,-97.7 283,-97.7"/>
<text text-anchor="start" x="312" y="-104.8" font-family="Helvetica,sans-Serif" font-size="11.00" fill="#000000">name</text>
<polygon fill="none" stroke="#000000" points="283,-75.7 283,-97.7 473,-97.7 473,-75.7 283,-75.7"/>
<image xlink:href="../../images/foreignKeys.png" width="11px" height="12px" preserveAspectRatio="xMinYMin meet" x="288" y="-92.7"/>
<text text-anchor="start" x="312" y="-82.8" font-family="Helvetica,sans-Serif" font-size="11.00" fill="#000000">generated</text>
<polygon fill="none" stroke="#000000" points="283,-56.7 283,-75.7 473,-75.7 473,-56.7 283,-56.7"/>
<text text-anchor="start" x="286" y="-62.8" font-family="Helvetica,sans-Serif" font-size="11.00" fill="#000000">...</text>
<polygon fill="#ffffff" stroke="transparent" points="283,-37.7 283,-56.7 363,-56.7 363,-37.7 283,-37.7"/>
<polygon fill="none" stroke="#000000" points="283,-37.7 283,-56.7 363,-56.7 363,-37.7 283,-37.7"/>
<text text-anchor="start" x="286" y="-43.8" font-family="Helvetica,sans-Serif" font-size="11.00" fill="#000000">&lt; 2</text>
<polygon fill="#ffffff" stroke="transparent" points="363,-37.7 363,-56.7 431,-56.7 431,-37.7 363,-37.7"/>
<polygon fill="none" stroke="#000000" points="363,-37.7 363,-56.7 431,-56.7 431,-37.7 363,-37.7"/>
<text text-anchor="start" x="395.6105" y="-43.8" font-family="Helvetica,sans-Serif" font-size="11.00" fill="#000000">0 rows</text>
<polygon fill="#ffffff" stroke="transparent" points="431,-37.7 431,-56.7 473,-56.7 473,-37.7 431,-37.7"/>
<polygon fill="none" stroke="#000000" points="431,-37.7 431,-56.7 473,-56.7 473,-37.7 431,-37.7"/>
<text text-anchor="start" x="463.8862" y="-43.8" font-family="Helvetica,sans-Serif" font-size="11.00" fill="#000000"> &#160;</text>
</a>
</g>
</g>
<!-- _river_cross_section_pl1d&#45;&gt;generation_step -->
<g id="edge7" class="edge">
<title>_river_cross_section_pl1d:w&#45;&gt;generation_step:e</title>
<path fill="none" stroke="#000000" d="M268.667,-89.2351C218.579,-110.3825 305.1818,-256.7 232,-256.7"/>
<polygon fill="#000000" stroke="#000000" points="275.1223,-88.0934 283.627,-90.245 279.0611,-87.3967 283,-86.7 283,-86.7 283,-86.7 279.0611,-87.3967 282.373,-83.155 275.1223,-88.0934 275.1223,-88.0934"/>
<ellipse fill="none" stroke="#000000" cx="271.9712" cy="-88.6507" rx="3.2" ry="3.2"/>
</g>
</g>
</svg>
