<?xml version="1.0" encoding="UTF-8" standalone="no"?>
<!DOCTYPE svg PUBLIC "-//W3C//DTD SVG 1.1//EN"
 "http://www.w3.org/Graphics/SVG/1.1/DTD/svg11.dtd">
<!-- Generated by graphviz version 2.40.1 (20161225.0304)
 -->
<!-- Title: oneDegreeRelationshipsDiagram Pages: 1 -->
<svg width="330pt" height="473pt"
 viewBox="0.00 0.00 330.00 473.20" xmlns="http://www.w3.org/2000/svg" xmlns:xlink="http://www.w3.org/1999/xlink">
<g id="graph0" class="graph" transform="scale(1 1) rotate(0) translate(4 469.2)">
<title>oneDegreeRelationshipsDiagram</title>
<polygon fill="#ffffff" stroke="transparent" points="-4,4 -4,-469.2 326,-469.2 326,4 -4,4"/>
<text text-anchor="middle" x="72.4936" y="-7.3" font-family="Helvetica,sans-Serif" font-size="11.00" fill="#000000">Generated by SchemaSpy</text>
<!-- hydrograph_bc_singularity -->
<g id="node1" class="node">
<title>hydrograph_bc_singularity</title>
<g id="a_node1"><a xlink:href="../../tables/hydrograph_bc_singularity.html" xlink:title="hydrograph_bc_singularity" target="_top">
<polygon fill="#ffffff" stroke="transparent" points="8,-38.2 8,-461.2 314,-461.2 314,-38.2 8,-38.2"/>
<polygon fill="#f5f5f5" stroke="transparent" points="10,-435.7 10,-458.7 312,-458.7 312,-435.7 10,-435.7"/>
<polygon fill="none" stroke="#000000" points="10,-435.7 10,-458.7 312,-458.7 312,-435.7 10,-435.7"/>
<text text-anchor="start" x="15" y="-444.3" font-family="Helvetica,sans-Serif" font-weight="bold" font-size="11.00" fill="#000000">hydrograph_bc_singularity</text>
<text text-anchor="start" x="278.8895" y="-443.8" font-family="Helvetica,sans-Serif" font-size="11.00" fill="#000000">[view]</text>
<polygon fill="none" stroke="#000000" points="10,-413.7 10,-435.7 193,-435.7 193,-413.7 10,-413.7"/>
<text text-anchor="start" x="30" y="-420.8" font-family="Helvetica,sans-Serif" font-size="11.00" fill="#000000">id</text>
<polygon fill="none" stroke="#000000" points="193,-413.7 193,-435.7 312,-435.7 312,-413.7 193,-413.7"/>
<text text-anchor="start" x="196" y="-421.4" font-family="Helvetica,sans-Serif" font-size="11.00" fill="#000000">int4[10]</text>
<polygon fill="none" stroke="#000000" points="10,-391.7 10,-413.7 193,-413.7 193,-391.7 10,-391.7"/>
<text text-anchor="start" x="30" y="-398.8" font-family="Helvetica,sans-Serif" font-size="11.00" fill="#000000">name</text>
<polygon fill="none" stroke="#000000" points="193,-391.7 193,-413.7 312,-413.7 312,-391.7 193,-391.7"/>
<text text-anchor="start" x="196" y="-399.4" font-family="Helvetica,sans-Serif" font-size="11.00" fill="#000000">varchar[24]</text>
<polygon fill="none" stroke="#000000" points="10,-369.7 10,-391.7 193,-391.7 193,-369.7 10,-369.7"/>
<text text-anchor="start" x="30" y="-376.8" font-family="Helvetica,sans-Serif" font-size="11.00" fill="#000000">node</text>
<polygon fill="none" stroke="#000000" points="193,-369.7 193,-391.7 312,-391.7 312,-369.7 193,-369.7"/>
<text text-anchor="start" x="196" y="-377.4" font-family="Helvetica,sans-Serif" font-size="11.00" fill="#000000">int4[10]</text>
<polygon fill="none" stroke="#000000" points="10,-347.7 10,-369.7 193,-369.7 193,-347.7 10,-347.7"/>
<text text-anchor="start" x="30" y="-354.8" font-family="Helvetica,sans-Serif" font-size="11.00" fill="#000000">storage_area</text>
<polygon fill="none" stroke="#000000" points="193,-347.7 193,-369.7 312,-369.7 312,-347.7 193,-347.7"/>
<text text-anchor="start" x="196" y="-355.4" font-family="Helvetica,sans-Serif" font-size="11.00" fill="#000000">float4[8,8]</text>
<polygon fill="none" stroke="#000000" points="10,-325.7 10,-347.7 193,-347.7 193,-325.7 10,-325.7"/>
<text text-anchor="start" x="30" y="-332.8" font-family="Helvetica,sans-Serif" font-size="11.00" fill="#000000">tq_array</text>
<polygon fill="none" stroke="#000000" points="193,-325.7 193,-347.7 312,-347.7 312,-325.7 193,-325.7"/>
<text text-anchor="start" x="196" y="-333.4" font-family="Helvetica,sans-Serif" font-size="11.00" fill="#000000">_float4[8,8]</text>
<polygon fill="none" stroke="#000000" points="10,-303.7 10,-325.7 193,-325.7 193,-303.7 10,-303.7"/>
<text text-anchor="start" x="30" y="-310.8" font-family="Helvetica,sans-Serif" font-size="11.00" fill="#000000">constant_dry_flow</text>
<polygon fill="none" stroke="#000000" points="193,-303.7 193,-325.7 312,-325.7 312,-303.7 193,-303.7"/>
<text text-anchor="start" x="196" y="-311.4" font-family="Helvetica,sans-Serif" font-size="11.00" fill="#000000">float4[8,8]</text>
<polygon fill="none" stroke="#000000" points="10,-281.7 10,-303.7 193,-303.7 193,-281.7 10,-281.7"/>
<text text-anchor="start" x="30" y="-288.8" font-family="Helvetica,sans-Serif" font-size="11.00" fill="#000000">distrib_coef</text>
<polygon fill="none" stroke="#000000" points="193,-281.7 193,-303.7 312,-303.7 312,-281.7 193,-281.7"/>
<text text-anchor="start" x="196" y="-289.4" font-family="Helvetica,sans-Serif" font-size="11.00" fill="#000000">float4[8,8]</text>
<polygon fill="none" stroke="#000000" points="10,-259.7 10,-281.7 193,-281.7 193,-259.7 10,-259.7"/>
<text text-anchor="start" x="30" y="-266.8" font-family="Helvetica,sans-Serif" font-size="11.00" fill="#000000">lag_time_hr</text>
<polygon fill="none" stroke="#000000" points="193,-259.7 193,-281.7 312,-281.7 312,-259.7 193,-259.7"/>
<text text-anchor="start" x="196" y="-267.4" font-family="Helvetica,sans-Serif" font-size="11.00" fill="#000000">float4[8,8]</text>
<polygon fill="none" stroke="#000000" points="10,-237.7 10,-259.7 193,-259.7 193,-237.7 10,-237.7"/>
<text text-anchor="start" x="30" y="-244.8" font-family="Helvetica,sans-Serif" font-size="11.00" fill="#000000">sector</text>
<polygon fill="none" stroke="#000000" points="193,-237.7 193,-259.7 312,-259.7 312,-237.7 193,-237.7"/>
<text text-anchor="start" x="196" y="-245.4" font-family="Helvetica,sans-Serif" font-size="11.00" fill="#000000">int4[10]</text>
<polygon fill="none" stroke="#000000" points="10,-215.7 10,-237.7 193,-237.7 193,-215.7 10,-215.7"/>
<text text-anchor="start" x="30" y="-222.8" font-family="Helvetica,sans-Serif" font-size="11.00" fill="#000000">hourly_modulation</text>
<polygon fill="none" stroke="#000000" points="193,-215.7 193,-237.7 312,-237.7 312,-215.7 193,-215.7"/>
<text text-anchor="start" x="196" y="-223.4" font-family="Helvetica,sans-Serif" font-size="11.00" fill="#000000">int4[10]</text>
<polygon fill="none" stroke="#000000" points="10,-193.7 10,-215.7 193,-215.7 193,-193.7 10,-193.7"/>
<text text-anchor="start" x="30" y="-200.8" font-family="Helvetica,sans-Serif" font-size="11.00" fill="#000000">pollution_dryweather_runoff</text>
<polygon fill="none" stroke="#000000" points="193,-193.7 193,-215.7 312,-215.7 312,-193.7 193,-193.7"/>
<text text-anchor="start" x="196" y="-201.4" font-family="Helvetica,sans-Serif" font-size="11.00" fill="#000000">_float4[8,8]</text>
<polygon fill="none" stroke="#000000" points="10,-171.7 10,-193.7 193,-193.7 193,-171.7 10,-171.7"/>
<text text-anchor="start" x="30" y="-178.8" font-family="Helvetica,sans-Serif" font-size="11.00" fill="#000000">quality_dryweather_runoff</text>
<polygon fill="none" stroke="#000000" points="193,-171.7 193,-193.7 312,-193.7 312,-171.7 193,-171.7"/>
<text text-anchor="start" x="196" y="-179.4" font-family="Helvetica,sans-Serif" font-size="11.00" fill="#000000">_float4[8,8]</text>
<polygon fill="none" stroke="#000000" points="10,-149.7 10,-171.7 193,-171.7 193,-149.7 10,-149.7"/>
<text text-anchor="start" x="30" y="-156.8" font-family="Helvetica,sans-Serif" font-size="11.00" fill="#000000">external_file_data</text>
<polygon fill="none" stroke="#000000" points="193,-149.7 193,-171.7 312,-171.7 312,-149.7 193,-149.7"/>
<text text-anchor="start" x="196" y="-157.4" font-family="Helvetica,sans-Serif" font-size="11.00" fill="#000000">bool[1]</text>
<polygon fill="none" stroke="#000000" points="10,-127.7 10,-149.7 193,-149.7 193,-127.7 10,-127.7"/>
<text text-anchor="start" x="30" y="-134.8" font-family="Helvetica,sans-Serif" font-size="11.00" fill="#000000">geom</text>
<polygon fill="none" stroke="#000000" points="193,-127.7 193,-149.7 312,-149.7 312,-127.7 193,-127.7"/>
<text text-anchor="start" x="195.9485" y="-135.4" font-family="Helvetica,sans-Serif" font-size="11.00" fill="#000000">geometry[2147483647]</text>
<polygon fill="none" stroke="#000000" points="10,-105.7 10,-127.7 193,-127.7 193,-105.7 10,-105.7"/>
<text text-anchor="start" x="30" y="-112.8" font-family="Helvetica,sans-Serif" font-size="11.00" fill="#000000">configuration</text>
<polygon fill="none" stroke="#000000" points="193,-105.7 193,-127.7 312,-127.7 312,-105.7 193,-105.7"/>
<text text-anchor="start" x="196" y="-113.4" font-family="Helvetica,sans-Serif" font-size="11.00" fill="#000000">varchar[2147483647]</text>
<polygon fill="none" stroke="#000000" points="10,-83.7 10,-105.7 193,-105.7 193,-83.7 10,-83.7"/>
<text text-anchor="start" x="30" y="-90.8" font-family="Helvetica,sans-Serif" font-size="11.00" fill="#000000">validity</text>
<polygon fill="none" stroke="#000000" points="193,-83.7 193,-105.7 312,-105.7 312,-83.7 193,-83.7"/>
<text text-anchor="start" x="196" y="-91.4" font-family="Helvetica,sans-Serif" font-size="11.00" fill="#000000">bool[1]</text>
<polygon fill="none" stroke="#000000" points="10,-61.7 10,-83.7 193,-83.7 193,-61.7 10,-61.7"/>
<text text-anchor="start" x="30" y="-68.8" font-family="Helvetica,sans-Serif" font-size="11.00" fill="#000000">configuration_json</text>
<polygon fill="none" stroke="#000000" points="193,-61.7 193,-83.7 312,-83.7 312,-61.7 193,-61.7"/>
<text text-anchor="start" x="196" y="-69.4" font-family="Helvetica,sans-Serif" font-size="11.00" fill="#000000">json[2147483647]</text>
<polygon fill="none" stroke="#000000" points="10,-39.7 10,-61.7 193,-61.7 193,-39.7 10,-39.7"/>
<text text-anchor="start" x="30" y="-46.8" font-family="Helvetica,sans-Serif" font-size="11.00" fill="#000000">comment</text>
<polygon fill="none" stroke="#000000" points="193,-39.7 193,-61.7 312,-61.7 312,-39.7 193,-39.7"/>
<text text-anchor="start" x="196" y="-47.4" font-family="Helvetica,sans-Serif" font-size="11.00" fill="#000000">varchar[2147483647]</text>
<polygon fill="none" stroke="#000000" stroke-width="2" points="9,-39.2 9,-460.2 313,-460.2 313,-39.2 9,-39.2"/>
</a>
</g>
</g>
</g>
</svg>
