<?xml version="1.0" encoding="UTF-8" standalone="no"?>
<!DOCTYPE svg PUBLIC "-//W3C//DTD SVG 1.1//EN"
 "http://www.w3.org/Graphics/SVG/1.1/DTD/svg11.dtd">
<!-- Generated by graphviz version 2.40.1 (20161225.0304)
 -->
<!-- Title: oneDegreeRelationshipsDiagram Pages: 1 -->
<svg width="214pt" height="231pt"
 viewBox="0.00 0.00 214.00 231.20" xmlns="http://www.w3.org/2000/svg" xmlns:xlink="http://www.w3.org/1999/xlink">
<g id="graph0" class="graph" transform="scale(1 1) rotate(0) translate(4 227.2)">
<title>oneDegreeRelationshipsDiagram</title>
<polygon fill="#ffffff" stroke="transparent" points="-4,4 -4,-227.2 210,-227.2 210,4 -4,4"/>
<text text-anchor="middle" x="72.4936" y="-7.3" font-family="Helvetica,sans-Serif" font-size="11.00" fill="#000000">Generated by SchemaSpy</text>
<!-- invalid -->
<g id="node1" class="node">
<title>invalid</title>
<g id="a_node1"><a xlink:href="../../tables/invalid.html" xlink:title="invalid" target="_top">
<polygon fill="#ffffff" stroke="transparent" points="8,-38.2 8,-219.2 198,-219.2 198,-38.2 8,-38.2"/>
<polygon fill="#f5f5f5" stroke="transparent" points="10,-193.7 10,-216.7 196,-216.7 196,-193.7 10,-193.7"/>
<polygon fill="none" stroke="#000000" points="10,-193.7 10,-216.7 196,-216.7 196,-193.7 10,-193.7"/>
<text text-anchor="start" x="15" y="-202.3" font-family="Helvetica,sans-Serif" font-weight="bold" font-size="11.00" fill="#000000">invalid</text>
<text text-anchor="start" x="162.8895" y="-201.8" font-family="Helvetica,sans-Serif" font-size="11.00" fill="#000000">[view]</text>
<polygon fill="none" stroke="#000000" points="10,-171.7 10,-193.7 77,-193.7 77,-171.7 10,-171.7"/>
<text text-anchor="start" x="30" y="-178.8" font-family="Helvetica,sans-Serif" font-size="11.00" fill="#000000">id</text>
<polygon fill="none" stroke="#000000" points="77,-171.7 77,-193.7 196,-193.7 196,-171.7 77,-171.7"/>
<text text-anchor="start" x="80" y="-179.4" font-family="Helvetica,sans-Serif" font-size="11.00" fill="#000000">text[2147483647]</text>
<polygon fill="none" stroke="#000000" points="10,-149.7 10,-171.7 77,-171.7 77,-149.7 10,-149.7"/>
<text text-anchor="start" x="30" y="-156.8" font-family="Helvetica,sans-Serif" font-size="11.00" fill="#000000">validity</text>
<polygon fill="none" stroke="#000000" points="77,-149.7 77,-171.7 196,-171.7 196,-149.7 77,-149.7"/>
<text text-anchor="start" x="80" y="-157.4" font-family="Helvetica,sans-Serif" font-size="11.00" fill="#000000">bool[1]</text>
<polygon fill="none" stroke="#000000" points="10,-127.7 10,-149.7 77,-149.7 77,-127.7 10,-127.7"/>
<text text-anchor="start" x="30" y="-134.8" font-family="Helvetica,sans-Serif" font-size="11.00" fill="#000000">name</text>
<polygon fill="none" stroke="#000000" points="77,-127.7 77,-149.7 196,-149.7 196,-127.7 77,-127.7"/>
<text text-anchor="start" x="80" y="-135.4" font-family="Helvetica,sans-Serif" font-size="11.00" fill="#000000">varchar[24]</text>
<polygon fill="none" stroke="#000000" points="10,-105.7 10,-127.7 77,-127.7 77,-105.7 10,-105.7"/>
<text text-anchor="start" x="30" y="-112.8" font-family="Helvetica,sans-Serif" font-size="11.00" fill="#000000">type</text>
<polygon fill="none" stroke="#000000" points="77,-105.7 77,-127.7 196,-127.7 196,-105.7 77,-105.7"/>
<text text-anchor="start" x="80" y="-113.4" font-family="Helvetica,sans-Serif" font-size="11.00" fill="#000000">varchar[2147483647]</text>
<polygon fill="none" stroke="#000000" points="10,-83.7 10,-105.7 77,-105.7 77,-83.7 10,-83.7"/>
<text text-anchor="start" x="30" y="-90.8" font-family="Helvetica,sans-Serif" font-size="11.00" fill="#000000">subtype</text>
<polygon fill="none" stroke="#000000" points="77,-83.7 77,-105.7 196,-105.7 196,-83.7 77,-83.7"/>
<text text-anchor="start" x="80" y="-91.4" font-family="Helvetica,sans-Serif" font-size="11.00" fill="#000000">varchar[2147483647]</text>
<polygon fill="none" stroke="#000000" points="10,-61.7 10,-83.7 77,-83.7 77,-61.7 10,-61.7"/>
<text text-anchor="start" x="30" y="-68.8" font-family="Helvetica,sans-Serif" font-size="11.00" fill="#000000">geom</text>
<polygon fill="none" stroke="#000000" points="77,-61.7 77,-83.7 196,-83.7 196,-61.7 77,-61.7"/>
<text text-anchor="start" x="79.9485" y="-69.4" font-family="Helvetica,sans-Serif" font-size="11.00" fill="#000000">geometry[2147483647]</text>
<polygon fill="none" stroke="#000000" points="10,-39.7 10,-61.7 77,-61.7 77,-39.7 10,-39.7"/>
<text text-anchor="start" x="30" y="-46.8" font-family="Helvetica,sans-Serif" font-size="11.00" fill="#000000">reason</text>
<polygon fill="none" stroke="#000000" points="77,-39.7 77,-61.7 196,-61.7 196,-39.7 77,-39.7"/>
<text text-anchor="start" x="80" y="-47.4" font-family="Helvetica,sans-Serif" font-size="11.00" fill="#000000">text[2147483647]</text>
<polygon fill="none" stroke="#000000" stroke-width="2" points="9,-39.2 9,-218.2 197,-218.2 197,-39.2 9,-39.2"/>
</a>
</g>
</g>
</g>
</svg>
