<?xml version="1.0" encoding="UTF-8" standalone="no"?>
<!DOCTYPE svg PUBLIC "-//W3C//DTD SVG 1.1//EN"
 "http://www.w3.org/Graphics/SVG/1.1/DTD/svg11.dtd">
<!-- Generated by graphviz version 2.40.1 (20161225.0304)
 -->
<!-- Title: oneDegreeRelationshipsDiagram Pages: 1 -->
<svg width="153pt" height="187pt"
 viewBox="0.00 0.00 152.99 187.20" xmlns="http://www.w3.org/2000/svg" xmlns:xlink="http://www.w3.org/1999/xlink">
<g id="graph0" class="graph" transform="scale(1 1) rotate(0) translate(4 183.2)">
<title>oneDegreeRelationshipsDiagram</title>
<polygon fill="#ffffff" stroke="transparent" points="-4,4 -4,-183.2 148.9871,-183.2 148.9871,4 -4,4"/>
<text text-anchor="middle" x="72.4936" y="-7.3" font-family="Helvetica,sans-Serif" font-size="11.00" fill="#000000">Generated by SchemaSpy</text>
<!-- l2d -->
<g id="node1" class="node">
<title>l2d</title>
<g id="a_node1"><a xlink:href="../../tables/l2d.html" xlink:title="l2d" target="_top">
<polygon fill="#ffffff" stroke="transparent" points="11.4935,-38.2 11.4935,-175.2 133.4936,-175.2 133.4936,-38.2 11.4935,-38.2"/>
<polygon fill="#f5f5f5" stroke="transparent" points="13.4936,-149.7 13.4936,-172.7 131.4936,-172.7 131.4936,-149.7 13.4936,-149.7"/>
<polygon fill="none" stroke="#000000" points="13.4936,-149.7 13.4936,-172.7 131.4936,-172.7 131.4936,-149.7 13.4936,-149.7"/>
<text text-anchor="start" x="17.6582" y="-158.3" font-family="Helvetica,sans-Serif" font-weight="bold" font-size="11.00" fill="#000000">l2d</text>
<text text-anchor="start" x="98.3831" y="-157.8" font-family="Helvetica,sans-Serif" font-size="11.00" fill="#000000">[view]</text>
<polygon fill="none" stroke="#000000" points="13.4936,-127.7 13.4936,-149.7 65.4936,-149.7 65.4936,-127.7 13.4936,-127.7"/>
<text text-anchor="start" x="33.2403" y="-134.8" font-family="Helvetica,sans-Serif" font-size="11.00" fill="#000000">name</text>
<polygon fill="none" stroke="#000000" points="65.4936,-127.7 65.4936,-149.7 131.4936,-149.7 131.4936,-127.7 65.4936,-127.7"/>
<text text-anchor="start" x="68.4936" y="-135.4" font-family="Helvetica,sans-Serif" font-size="11.00" fill="#000000">varchar[24]</text>
<polygon fill="none" stroke="#000000" points="13.4936,-105.7 13.4936,-127.7 65.4936,-127.7 65.4936,-105.7 13.4936,-105.7"/>
<text text-anchor="start" x="33.4936" y="-112.8" font-family="Helvetica,sans-Serif" font-size="11.00" fill="#000000">xb</text>
<polygon fill="none" stroke="#000000" points="65.4936,-105.7 65.4936,-127.7 131.4936,-127.7 131.4936,-105.7 65.4936,-105.7"/>
<text text-anchor="start" x="68.2287" y="-113.4" font-family="Helvetica,sans-Serif" font-size="11.00" fill="#000000">float8[17,17]</text>
<polygon fill="none" stroke="#000000" points="13.4936,-83.7 13.4936,-105.7 65.4936,-105.7 65.4936,-83.7 13.4936,-83.7"/>
<text text-anchor="start" x="33.4936" y="-90.8" font-family="Helvetica,sans-Serif" font-size="11.00" fill="#000000">yb</text>
<polygon fill="none" stroke="#000000" points="65.4936,-83.7 65.4936,-105.7 131.4936,-105.7 131.4936,-83.7 65.4936,-83.7"/>
<text text-anchor="start" x="68.2287" y="-91.4" font-family="Helvetica,sans-Serif" font-size="11.00" fill="#000000">float8[17,17]</text>
<polygon fill="none" stroke="#000000" points="13.4936,-61.7 13.4936,-83.7 65.4936,-83.7 65.4936,-61.7 13.4936,-61.7"/>
<text text-anchor="start" x="33.4936" y="-68.8" font-family="Helvetica,sans-Serif" font-size="11.00" fill="#000000">xa</text>
<polygon fill="none" stroke="#000000" points="65.4936,-61.7 65.4936,-83.7 131.4936,-83.7 131.4936,-61.7 65.4936,-61.7"/>
<text text-anchor="start" x="68.2287" y="-69.4" font-family="Helvetica,sans-Serif" font-size="11.00" fill="#000000">float8[17,17]</text>
<polygon fill="none" stroke="#000000" points="13.4936,-39.7 13.4936,-61.7 65.4936,-61.7 65.4936,-39.7 13.4936,-39.7"/>
<text text-anchor="start" x="33.4936" y="-46.8" font-family="Helvetica,sans-Serif" font-size="11.00" fill="#000000">ya</text>
<polygon fill="none" stroke="#000000" points="65.4936,-39.7 65.4936,-61.7 131.4936,-61.7 131.4936,-39.7 65.4936,-39.7"/>
<text text-anchor="start" x="68.2287" y="-47.4" font-family="Helvetica,sans-Serif" font-size="11.00" fill="#000000">float8[17,17]</text>
<polygon fill="none" stroke="#000000" stroke-width="2" points="12.4935,-39.2 12.4935,-174.2 132.4936,-174.2 132.4936,-39.2 12.4935,-39.2"/>
</a>
</g>
</g>
</g>
</svg>
