<?xml version="1.0" encoding="UTF-8" standalone="no"?>
<!DOCTYPE svg PUBLIC "-//W3C//DTD SVG 1.1//EN"
 "http://www.w3.org/Graphics/SVG/1.1/DTD/svg11.dtd">
<!-- Generated by graphviz version 2.40.1 (20161225.0304)
 -->
<!-- Title: oneDegreeRelationshipsDiagram Pages: 1 -->
<svg width="418pt" height="407pt"
 viewBox="0.00 0.00 418.00 407.20" xmlns="http://www.w3.org/2000/svg" xmlns:xlink="http://www.w3.org/1999/xlink">
<g id="graph0" class="graph" transform="scale(1 1) rotate(0) translate(4 403.2)">
<title>oneDegreeRelationshipsDiagram</title>
<polygon fill="#ffffff" stroke="transparent" points="-4,4 -4,-403.2 414,-403.2 414,4 -4,4"/>
<text text-anchor="middle" x="72.4936" y="-7.3" font-family="Helvetica,sans-Serif" font-size="11.00" fill="#000000">Generated by SchemaSpy</text>
<!-- manhole_node -->
<g id="node1" class="node">
<title>manhole_node</title>
<g id="a_node1"><a xlink:href="../../tables/manhole_node.html" xlink:title="manhole_node" target="_top">
<polygon fill="#ffffff" stroke="transparent" points="8,-38.2 8,-395.2 402,-395.2 402,-38.2 8,-38.2"/>
<polygon fill="#f5f5f5" stroke="transparent" points="10,-369.7 10,-392.7 400,-392.7 400,-369.7 10,-369.7"/>
<polygon fill="none" stroke="#000000" points="10,-369.7 10,-392.7 400,-392.7 400,-369.7 10,-369.7"/>
<text text-anchor="start" x="15" y="-378.3" font-family="Helvetica,sans-Serif" font-weight="bold" font-size="11.00" fill="#000000">manhole_node</text>
<text text-anchor="start" x="366.8895" y="-377.8" font-family="Helvetica,sans-Serif" font-size="11.00" fill="#000000">[view]</text>
<polygon fill="none" stroke="#000000" points="10,-347.7 10,-369.7 165,-369.7 165,-347.7 10,-347.7"/>
<text text-anchor="start" x="30" y="-354.8" font-family="Helvetica,sans-Serif" font-size="11.00" fill="#000000">id</text>
<polygon fill="none" stroke="#000000" points="165,-347.7 165,-369.7 400,-369.7 400,-347.7 165,-347.7"/>
<text text-anchor="start" x="168" y="-355.4" font-family="Helvetica,sans-Serif" font-size="11.00" fill="#000000">int4[10]</text>
<polygon fill="none" stroke="#000000" points="10,-325.7 10,-347.7 165,-347.7 165,-325.7 10,-325.7"/>
<text text-anchor="start" x="30" y="-332.8" font-family="Helvetica,sans-Serif" font-size="11.00" fill="#000000">name</text>
<polygon fill="none" stroke="#000000" points="165,-325.7 165,-347.7 400,-347.7 400,-325.7 165,-325.7"/>
<text text-anchor="start" x="168" y="-333.4" font-family="Helvetica,sans-Serif" font-size="11.00" fill="#000000">varchar[24]</text>
<polygon fill="none" stroke="#000000" points="10,-303.7 10,-325.7 165,-325.7 165,-303.7 10,-303.7"/>
<text text-anchor="start" x="30" y="-310.8" font-family="Helvetica,sans-Serif" font-size="11.00" fill="#000000">area</text>
<polygon fill="none" stroke="#000000" points="165,-303.7 165,-325.7 400,-325.7 400,-303.7 165,-303.7"/>
<text text-anchor="start" x="168" y="-311.4" font-family="Helvetica,sans-Serif" font-size="11.00" fill="#000000">float4[8,8]</text>
<polygon fill="none" stroke="#000000" points="10,-281.7 10,-303.7 165,-303.7 165,-281.7 10,-281.7"/>
<text text-anchor="start" x="30" y="-288.8" font-family="Helvetica,sans-Serif" font-size="11.00" fill="#000000">z_ground</text>
<polygon fill="none" stroke="#000000" points="165,-281.7 165,-303.7 400,-303.7 400,-281.7 165,-281.7"/>
<text text-anchor="start" x="168" y="-289.4" font-family="Helvetica,sans-Serif" font-size="11.00" fill="#000000">float4[8,8]</text>
<polygon fill="none" stroke="#000000" points="10,-259.7 10,-281.7 165,-281.7 165,-259.7 10,-259.7"/>
<text text-anchor="start" x="30" y="-266.8" font-family="Helvetica,sans-Serif" font-size="11.00" fill="#000000">cover_diameter</text>
<polygon fill="none" stroke="#000000" points="165,-259.7 165,-281.7 400,-281.7 400,-259.7 165,-259.7"/>
<text text-anchor="start" x="168" y="-267.4" font-family="Helvetica,sans-Serif" font-size="11.00" fill="#000000">float4[8,8]</text>
<polygon fill="none" stroke="#000000" points="10,-237.7 10,-259.7 165,-259.7 165,-237.7 10,-237.7"/>
<text text-anchor="start" x="30" y="-244.8" font-family="Helvetica,sans-Serif" font-size="11.00" fill="#000000">cover_critical_pressure</text>
<polygon fill="none" stroke="#000000" points="165,-237.7 165,-259.7 400,-259.7 400,-237.7 165,-237.7"/>
<text text-anchor="start" x="168" y="-245.4" font-family="Helvetica,sans-Serif" font-size="11.00" fill="#000000">float4[8,8]</text>
<polygon fill="none" stroke="#000000" points="10,-215.7 10,-237.7 165,-237.7 165,-215.7 10,-215.7"/>
<text text-anchor="start" x="30" y="-222.8" font-family="Helvetica,sans-Serif" font-size="11.00" fill="#000000">inlet_width</text>
<polygon fill="none" stroke="#000000" points="165,-215.7 165,-237.7 400,-237.7 400,-215.7 165,-215.7"/>
<text text-anchor="start" x="168" y="-223.4" font-family="Helvetica,sans-Serif" font-size="11.00" fill="#000000">float4[8,8]</text>
<polygon fill="none" stroke="#000000" points="10,-193.7 10,-215.7 165,-215.7 165,-193.7 10,-193.7"/>
<text text-anchor="start" x="30" y="-200.8" font-family="Helvetica,sans-Serif" font-size="11.00" fill="#000000">inlet_height</text>
<polygon fill="none" stroke="#000000" points="165,-193.7 165,-215.7 400,-215.7 400,-193.7 165,-193.7"/>
<text text-anchor="start" x="168" y="-201.4" font-family="Helvetica,sans-Serif" font-size="11.00" fill="#000000">float4[8,8]</text>
<polygon fill="none" stroke="#000000" points="10,-171.7 10,-193.7 165,-193.7 165,-171.7 10,-171.7"/>
<text text-anchor="start" x="30" y="-178.8" font-family="Helvetica,sans-Serif" font-size="11.00" fill="#000000">connection_law</text>
<polygon fill="none" stroke="#000000" points="165,-171.7 165,-193.7 400,-193.7 400,-171.7 165,-171.7"/>
<text text-anchor="start" x="167.8673" y="-179.4" font-family="Helvetica,sans-Serif" font-size="11.00" fill="#000000">hydra_manhole_connection_type[2147483647]</text>
<polygon fill="none" stroke="#000000" points="10,-149.7 10,-171.7 165,-171.7 165,-149.7 10,-149.7"/>
<text text-anchor="start" x="30" y="-156.8" font-family="Helvetica,sans-Serif" font-size="11.00" fill="#000000">geom</text>
<polygon fill="none" stroke="#000000" points="165,-149.7 165,-171.7 400,-171.7 400,-149.7 165,-149.7"/>
<text text-anchor="start" x="168" y="-157.4" font-family="Helvetica,sans-Serif" font-size="11.00" fill="#000000">geometry[2147483647]</text>
<polygon fill="none" stroke="#000000" points="10,-127.7 10,-149.7 165,-149.7 165,-127.7 10,-127.7"/>
<text text-anchor="start" x="30" y="-134.8" font-family="Helvetica,sans-Serif" font-size="11.00" fill="#000000">configuration</text>
<polygon fill="none" stroke="#000000" points="165,-127.7 165,-149.7 400,-149.7 400,-127.7 165,-127.7"/>
<text text-anchor="start" x="168" y="-135.4" font-family="Helvetica,sans-Serif" font-size="11.00" fill="#000000">varchar[2147483647]</text>
<polygon fill="none" stroke="#000000" points="10,-105.7 10,-127.7 165,-127.7 165,-105.7 10,-105.7"/>
<text text-anchor="start" x="30" y="-112.8" font-family="Helvetica,sans-Serif" font-size="11.00" fill="#000000">generated</text>
<polygon fill="none" stroke="#000000" points="165,-105.7 165,-127.7 400,-127.7 400,-105.7 165,-105.7"/>
<text text-anchor="start" x="168" y="-113.4" font-family="Helvetica,sans-Serif" font-size="11.00" fill="#000000">int4[10]</text>
<polygon fill="none" stroke="#000000" points="10,-83.7 10,-105.7 165,-105.7 165,-83.7 10,-83.7"/>
<text text-anchor="start" x="30" y="-90.8" font-family="Helvetica,sans-Serif" font-size="11.00" fill="#000000">validity</text>
<polygon fill="none" stroke="#000000" points="165,-83.7 165,-105.7 400,-105.7 400,-83.7 165,-83.7"/>
<text text-anchor="start" x="168" y="-91.4" font-family="Helvetica,sans-Serif" font-size="11.00" fill="#000000">bool[1]</text>
<polygon fill="none" stroke="#000000" points="10,-61.7 10,-83.7 165,-83.7 165,-61.7 10,-61.7"/>
<text text-anchor="start" x="30" y="-68.8" font-family="Helvetica,sans-Serif" font-size="11.00" fill="#000000">configuration_json</text>
<polygon fill="none" stroke="#000000" points="165,-61.7 165,-83.7 400,-83.7 400,-61.7 165,-61.7"/>
<text text-anchor="start" x="168" y="-69.4" font-family="Helvetica,sans-Serif" font-size="11.00" fill="#000000">json[2147483647]</text>
<polygon fill="none" stroke="#000000" points="10,-39.7 10,-61.7 165,-61.7 165,-39.7 10,-39.7"/>
<text text-anchor="start" x="30" y="-46.8" font-family="Helvetica,sans-Serif" font-size="11.00" fill="#000000">comment</text>
<polygon fill="none" stroke="#000000" points="165,-39.7 165,-61.7 400,-61.7 400,-39.7 165,-39.7"/>
<text text-anchor="start" x="168" y="-47.4" font-family="Helvetica,sans-Serif" font-size="11.00" fill="#000000">varchar[2147483647]</text>
<polygon fill="none" stroke="#000000" stroke-width="2" points="9,-39.2 9,-394.2 401,-394.2 401,-39.2 9,-39.2"/>
</a>
</g>
</g>
</g>
</svg>
