<?xml version="1.0" encoding="UTF-8" standalone="no"?>
<!DOCTYPE svg PUBLIC "-//W3C//DTD SVG 1.1//EN"
 "http://www.w3.org/Graphics/SVG/1.1/DTD/svg11.dtd">
<!-- Generated by graphviz version 2.40.1 (20161225.0304)
 -->
<!-- Title: oneDegreeRelationshipsDiagram Pages: 1 -->
<svg width="258pt" height="583pt"
 viewBox="0.00 0.00 258.00 583.20" xmlns="http://www.w3.org/2000/svg" xmlns:xlink="http://www.w3.org/1999/xlink">
<g id="graph0" class="graph" transform="scale(1 1) rotate(0) translate(4 579.2)">
<title>oneDegreeRelationshipsDiagram</title>
<polygon fill="#ffffff" stroke="transparent" points="-4,4 -4,-579.2 254,-579.2 254,4 -4,4"/>
<text text-anchor="middle" x="72.4936" y="-7.3" font-family="Helvetica,sans-Serif" font-size="11.00" fill="#000000">Generated by SchemaSpy</text>
<!-- mesh_1d_coted -->
<g id="node1" class="node">
<title>mesh_1d_coted</title>
<g id="a_node1"><a xlink:href="../../tables/mesh_1d_coted.html" xlink:title="mesh_1d_coted" target="_top">
<polygon fill="#ffffff" stroke="transparent" points="8,-38.2 8,-571.2 242,-571.2 242,-38.2 8,-38.2"/>
<polygon fill="#f5f5f5" stroke="transparent" points="10,-545.7 10,-568.7 240,-568.7 240,-545.7 10,-545.7"/>
<polygon fill="none" stroke="#000000" points="10,-545.7 10,-568.7 240,-568.7 240,-545.7 10,-545.7"/>
<text text-anchor="start" x="15" y="-554.3" font-family="Helvetica,sans-Serif" font-weight="bold" font-size="11.00" fill="#000000">mesh_1d_coted</text>
<text text-anchor="start" x="206.8895" y="-553.8" font-family="Helvetica,sans-Serif" font-size="11.00" fill="#000000">[view]</text>
<polygon fill="none" stroke="#000000" points="10,-523.7 10,-545.7 121,-545.7 121,-523.7 10,-523.7"/>
<text text-anchor="start" x="30" y="-530.8" font-family="Helvetica,sans-Serif" font-size="11.00" fill="#000000">id</text>
<polygon fill="none" stroke="#000000" points="121,-523.7 121,-545.7 240,-545.7 240,-523.7 121,-523.7"/>
<text text-anchor="start" x="124" y="-531.4" font-family="Helvetica,sans-Serif" font-size="11.00" fill="#000000">int8[19]</text>
<polygon fill="none" stroke="#000000" points="10,-501.7 10,-523.7 121,-523.7 121,-501.7 10,-501.7"/>
<text text-anchor="start" x="30" y="-508.8" font-family="Helvetica,sans-Serif" font-size="11.00" fill="#000000">a</text>
<polygon fill="none" stroke="#000000" points="121,-501.7 121,-523.7 240,-523.7 240,-501.7 121,-501.7"/>
<text text-anchor="start" x="124" y="-509.4" font-family="Helvetica,sans-Serif" font-size="11.00" fill="#000000">int8[19]</text>
<polygon fill="none" stroke="#000000" points="10,-479.7 10,-501.7 121,-501.7 121,-479.7 10,-479.7"/>
<text text-anchor="start" x="30" y="-486.8" font-family="Helvetica,sans-Serif" font-size="11.00" fill="#000000">a_strt</text>
<polygon fill="none" stroke="#000000" points="121,-479.7 121,-501.7 240,-501.7 240,-479.7 121,-479.7"/>
<text text-anchor="start" x="124" y="-487.4" font-family="Helvetica,sans-Serif" font-size="11.00" fill="#000000">int4[10]</text>
<polygon fill="none" stroke="#000000" points="10,-457.7 10,-479.7 121,-479.7 121,-457.7 10,-457.7"/>
<text text-anchor="start" x="30" y="-464.8" font-family="Helvetica,sans-Serif" font-size="11.00" fill="#000000">a_strt_w</text>
<polygon fill="none" stroke="#000000" points="121,-457.7 121,-479.7 240,-479.7 240,-457.7 121,-457.7"/>
<text text-anchor="start" x="124" y="-465.4" font-family="Helvetica,sans-Serif" font-size="11.00" fill="#000000">float8[17,17]</text>
<polygon fill="none" stroke="#000000" points="10,-435.7 10,-457.7 121,-457.7 121,-435.7 10,-435.7"/>
<text text-anchor="start" x="30" y="-442.8" font-family="Helvetica,sans-Serif" font-size="11.00" fill="#000000">a_nd</text>
<polygon fill="none" stroke="#000000" points="121,-435.7 121,-457.7 240,-457.7 240,-435.7 121,-435.7"/>
<text text-anchor="start" x="124" y="-443.4" font-family="Helvetica,sans-Serif" font-size="11.00" fill="#000000">int4[10]</text>
<polygon fill="none" stroke="#000000" points="10,-413.7 10,-435.7 121,-435.7 121,-413.7 10,-413.7"/>
<text text-anchor="start" x="30" y="-420.8" font-family="Helvetica,sans-Serif" font-size="11.00" fill="#000000">a_nd_w</text>
<polygon fill="none" stroke="#000000" points="121,-413.7 121,-435.7 240,-435.7 240,-413.7 121,-413.7"/>
<text text-anchor="start" x="124" y="-421.4" font-family="Helvetica,sans-Serif" font-size="11.00" fill="#000000">float8[17,17]</text>
<polygon fill="none" stroke="#000000" points="10,-391.7 10,-413.7 121,-413.7 121,-391.7 10,-391.7"/>
<text text-anchor="start" x="30" y="-398.8" font-family="Helvetica,sans-Serif" font-size="11.00" fill="#000000">b</text>
<polygon fill="none" stroke="#000000" points="121,-391.7 121,-413.7 240,-413.7 240,-391.7 121,-391.7"/>
<text text-anchor="start" x="124" y="-399.4" font-family="Helvetica,sans-Serif" font-size="11.00" fill="#000000">int8[19]</text>
<polygon fill="none" stroke="#000000" points="10,-369.7 10,-391.7 121,-391.7 121,-369.7 10,-369.7"/>
<text text-anchor="start" x="30" y="-376.8" font-family="Helvetica,sans-Serif" font-size="11.00" fill="#000000">b_strt</text>
<polygon fill="none" stroke="#000000" points="121,-369.7 121,-391.7 240,-391.7 240,-369.7 121,-369.7"/>
<text text-anchor="start" x="124" y="-377.4" font-family="Helvetica,sans-Serif" font-size="11.00" fill="#000000">int4[10]</text>
<polygon fill="none" stroke="#000000" points="10,-347.7 10,-369.7 121,-369.7 121,-347.7 10,-347.7"/>
<text text-anchor="start" x="30" y="-354.8" font-family="Helvetica,sans-Serif" font-size="11.00" fill="#000000">b_strt_w</text>
<polygon fill="none" stroke="#000000" points="121,-347.7 121,-369.7 240,-369.7 240,-347.7 121,-347.7"/>
<text text-anchor="start" x="124" y="-355.4" font-family="Helvetica,sans-Serif" font-size="11.00" fill="#000000">float8[17,17]</text>
<polygon fill="none" stroke="#000000" points="10,-325.7 10,-347.7 121,-347.7 121,-325.7 10,-325.7"/>
<text text-anchor="start" x="30" y="-332.8" font-family="Helvetica,sans-Serif" font-size="11.00" fill="#000000">b_nd</text>
<polygon fill="none" stroke="#000000" points="121,-325.7 121,-347.7 240,-347.7 240,-325.7 121,-325.7"/>
<text text-anchor="start" x="124" y="-333.4" font-family="Helvetica,sans-Serif" font-size="11.00" fill="#000000">int4[10]</text>
<polygon fill="none" stroke="#000000" points="10,-303.7 10,-325.7 121,-325.7 121,-303.7 10,-303.7"/>
<text text-anchor="start" x="30" y="-310.8" font-family="Helvetica,sans-Serif" font-size="11.00" fill="#000000">b_nd_w</text>
<polygon fill="none" stroke="#000000" points="121,-303.7 121,-325.7 240,-325.7 240,-303.7 121,-303.7"/>
<text text-anchor="start" x="124" y="-311.4" font-family="Helvetica,sans-Serif" font-size="11.00" fill="#000000">float8[17,17]</text>
<polygon fill="none" stroke="#000000" points="10,-281.7 10,-303.7 121,-303.7 121,-281.7 10,-281.7"/>
<text text-anchor="start" x="30" y="-288.8" font-family="Helvetica,sans-Serif" font-size="11.00" fill="#000000">c</text>
<polygon fill="none" stroke="#000000" points="121,-281.7 121,-303.7 240,-303.7 240,-281.7 121,-281.7"/>
<text text-anchor="start" x="124" y="-289.4" font-family="Helvetica,sans-Serif" font-size="11.00" fill="#000000">int8[19]</text>
<polygon fill="none" stroke="#000000" points="10,-259.7 10,-281.7 121,-281.7 121,-259.7 10,-259.7"/>
<text text-anchor="start" x="30" y="-266.8" font-family="Helvetica,sans-Serif" font-size="11.00" fill="#000000">c_strt</text>
<polygon fill="none" stroke="#000000" points="121,-259.7 121,-281.7 240,-281.7 240,-259.7 121,-259.7"/>
<text text-anchor="start" x="124" y="-267.4" font-family="Helvetica,sans-Serif" font-size="11.00" fill="#000000">int4[10]</text>
<polygon fill="none" stroke="#000000" points="10,-237.7 10,-259.7 121,-259.7 121,-237.7 10,-237.7"/>
<text text-anchor="start" x="30" y="-244.8" font-family="Helvetica,sans-Serif" font-size="11.00" fill="#000000">c_strt_w</text>
<polygon fill="none" stroke="#000000" points="121,-237.7 121,-259.7 240,-259.7 240,-237.7 121,-237.7"/>
<text text-anchor="start" x="124" y="-245.4" font-family="Helvetica,sans-Serif" font-size="11.00" fill="#000000">float8[17,17]</text>
<polygon fill="none" stroke="#000000" points="10,-215.7 10,-237.7 121,-237.7 121,-215.7 10,-215.7"/>
<text text-anchor="start" x="30" y="-222.8" font-family="Helvetica,sans-Serif" font-size="11.00" fill="#000000">c_nd</text>
<polygon fill="none" stroke="#000000" points="121,-215.7 121,-237.7 240,-237.7 240,-215.7 121,-215.7"/>
<text text-anchor="start" x="124" y="-223.4" font-family="Helvetica,sans-Serif" font-size="11.00" fill="#000000">int4[10]</text>
<polygon fill="none" stroke="#000000" points="10,-193.7 10,-215.7 121,-215.7 121,-193.7 10,-193.7"/>
<text text-anchor="start" x="30" y="-200.8" font-family="Helvetica,sans-Serif" font-size="11.00" fill="#000000">c_nd_w</text>
<polygon fill="none" stroke="#000000" points="121,-193.7 121,-215.7 240,-215.7 240,-193.7 121,-193.7"/>
<text text-anchor="start" x="124" y="-201.4" font-family="Helvetica,sans-Serif" font-size="11.00" fill="#000000">float8[17,17]</text>
<polygon fill="none" stroke="#000000" points="10,-171.7 10,-193.7 121,-193.7 121,-171.7 10,-171.7"/>
<text text-anchor="start" x="30" y="-178.8" font-family="Helvetica,sans-Serif" font-size="11.00" fill="#000000">z_mean</text>
<polygon fill="none" stroke="#000000" points="121,-171.7 121,-193.7 240,-193.7 240,-171.7 121,-171.7"/>
<text text-anchor="start" x="124" y="-179.4" font-family="Helvetica,sans-Serif" font-size="11.00" fill="#000000">float8[17,17]</text>
<polygon fill="none" stroke="#000000" points="10,-149.7 10,-171.7 121,-171.7 121,-149.7 10,-149.7"/>
<text text-anchor="start" x="30" y="-156.8" font-family="Helvetica,sans-Serif" font-size="11.00" fill="#000000">z_a</text>
<polygon fill="none" stroke="#000000" points="121,-149.7 121,-171.7 240,-171.7 240,-149.7 121,-149.7"/>
<text text-anchor="start" x="124" y="-157.4" font-family="Helvetica,sans-Serif" font-size="11.00" fill="#000000">float8[17,17]</text>
<polygon fill="none" stroke="#000000" points="10,-127.7 10,-149.7 121,-149.7 121,-127.7 10,-127.7"/>
<text text-anchor="start" x="30" y="-134.8" font-family="Helvetica,sans-Serif" font-size="11.00" fill="#000000">z_b</text>
<polygon fill="none" stroke="#000000" points="121,-127.7 121,-149.7 240,-149.7 240,-127.7 121,-127.7"/>
<text text-anchor="start" x="124" y="-135.4" font-family="Helvetica,sans-Serif" font-size="11.00" fill="#000000">float8[17,17]</text>
<polygon fill="none" stroke="#000000" points="10,-105.7 10,-127.7 121,-127.7 121,-105.7 10,-105.7"/>
<text text-anchor="start" x="30" y="-112.8" font-family="Helvetica,sans-Serif" font-size="11.00" fill="#000000">z_c</text>
<polygon fill="none" stroke="#000000" points="121,-105.7 121,-127.7 240,-127.7 240,-105.7 121,-105.7"/>
<text text-anchor="start" x="124" y="-113.4" font-family="Helvetica,sans-Serif" font-size="11.00" fill="#000000">float8[17,17]</text>
<polygon fill="none" stroke="#000000" points="10,-83.7 10,-105.7 121,-105.7 121,-83.7 10,-83.7"/>
<text text-anchor="start" x="30" y="-90.8" font-family="Helvetica,sans-Serif" font-size="11.00" fill="#000000">geom</text>
<polygon fill="none" stroke="#000000" points="121,-83.7 121,-105.7 240,-105.7 240,-83.7 121,-83.7"/>
<text text-anchor="start" x="123.9485" y="-91.4" font-family="Helvetica,sans-Serif" font-size="11.00" fill="#000000">geometry[2147483647]</text>
<polygon fill="none" stroke="#000000" points="10,-61.7 10,-83.7 121,-83.7 121,-61.7 10,-61.7"/>
<text text-anchor="start" x="30" y="-68.8" font-family="Helvetica,sans-Serif" font-size="11.00" fill="#000000">lnk</text>
<polygon fill="none" stroke="#000000" points="121,-61.7 121,-83.7 240,-83.7 240,-61.7 121,-61.7"/>
<text text-anchor="start" x="123.9485" y="-69.4" font-family="Helvetica,sans-Serif" font-size="11.00" fill="#000000">geometry[2147483647]</text>
<polygon fill="none" stroke="#000000" points="10,-39.7 10,-61.7 121,-61.7 121,-39.7 10,-39.7"/>
<text text-anchor="start" x="30" y="-46.8" font-family="Helvetica,sans-Serif" font-size="11.00" fill="#000000">last_refresh</text>
<polygon fill="none" stroke="#000000" points="121,-39.7 121,-61.7 240,-61.7 240,-39.7 121,-39.7"/>
<text text-anchor="start" x="124" y="-47.4" font-family="Helvetica,sans-Serif" font-size="11.00" fill="#000000">timestamptz[35,6]</text>
<polygon fill="none" stroke="#000000" stroke-width="2" points="9,-39.2 9,-570.2 241,-570.2 241,-39.2 9,-39.2"/>
</a>
</g>
</g>
</g>
</svg>
