<?xml version="1.0" encoding="UTF-8" standalone="no"?>
<!DOCTYPE svg PUBLIC "-//W3C//DTD SVG 1.1//EN"
 "http://www.w3.org/Graphics/SVG/1.1/DTD/svg11.dtd">
<!-- Generated by graphviz version 2.40.1 (20161225.0304)
 -->
<!-- Title: oneDegreeRelationshipsDiagram Pages: 1 -->
<svg width="220pt" height="121pt"
 viewBox="0.00 0.00 220.00 121.20" xmlns="http://www.w3.org/2000/svg" xmlns:xlink="http://www.w3.org/1999/xlink">
<g id="graph0" class="graph" transform="scale(1 1) rotate(0) translate(4 117.2)">
<title>oneDegreeRelationshipsDiagram</title>
<polygon fill="#ffffff" stroke="transparent" points="-4,4 -4,-117.2 216,-117.2 216,4 -4,4"/>
<text text-anchor="middle" x="72.4936" y="-7.3" font-family="Helvetica,sans-Serif" font-size="11.00" fill="#000000">Generated by SchemaSpy</text>
<!-- mesh_1d -->
<g id="node1" class="node">
<title>mesh_1d</title>
<g id="a_node1"><a xlink:href="../../tables/mesh_1d.html" xlink:title="mesh_1d" target="_top">
<polygon fill="#ffffff" stroke="transparent" points="8,-38.2 8,-109.2 204,-109.2 204,-38.2 8,-38.2"/>
<polygon fill="#f5f5f5" stroke="transparent" points="10,-83.7 10,-106.7 202,-106.7 202,-83.7 10,-83.7"/>
<polygon fill="none" stroke="#000000" points="10,-83.7 10,-106.7 202,-106.7 202,-83.7 10,-83.7"/>
<text text-anchor="start" x="15" y="-92.3" font-family="Helvetica,sans-Serif" font-weight="bold" font-size="11.00" fill="#000000">mesh_1d</text>
<text text-anchor="start" x="168.8895" y="-91.8" font-family="Helvetica,sans-Serif" font-size="11.00" fill="#000000">[view]</text>
<polygon fill="none" stroke="#000000" points="10,-61.7 10,-83.7 83,-83.7 83,-61.7 10,-61.7"/>
<text text-anchor="start" x="30" y="-68.8" font-family="Helvetica,sans-Serif" font-size="11.00" fill="#000000">id</text>
<polygon fill="none" stroke="#000000" points="83,-61.7 83,-83.7 202,-83.7 202,-61.7 83,-61.7"/>
<text text-anchor="start" x="86" y="-69.4" font-family="Helvetica,sans-Serif" font-size="11.00" fill="#000000">int8[19]</text>
<polygon fill="none" stroke="#000000" points="10,-39.7 10,-61.7 83,-61.7 83,-39.7 10,-39.7"/>
<text text-anchor="start" x="30" y="-46.8" font-family="Helvetica,sans-Serif" font-size="11.00" fill="#000000">geom</text>
<polygon fill="none" stroke="#000000" points="83,-39.7 83,-61.7 202,-61.7 202,-39.7 83,-39.7"/>
<text text-anchor="start" x="85.9485" y="-47.4" font-family="Helvetica,sans-Serif" font-size="11.00" fill="#000000">geometry[2147483647]</text>
<polygon fill="none" stroke="#000000" stroke-width="2" points="9,-39.2 9,-108.2 203,-108.2 203,-39.2 9,-39.2"/>
</a>
</g>
</g>
</g>
</svg>
