<?xml version="1.0" encoding="UTF-8" standalone="no"?>
<!DOCTYPE svg PUBLIC "-//W3C//DTD SVG 1.1//EN"
 "http://www.w3.org/Graphics/SVG/1.1/DTD/svg11.dtd">
<!-- Generated by graphviz version 2.40.1 (20161225.0304)
 -->
<!-- Title: oneDegreeRelationshipsDiagram Pages: 1 -->
<svg width="394pt" height="267pt"
 viewBox="0.00 0.00 394.00 266.70" xmlns="http://www.w3.org/2000/svg" xmlns:xlink="http://www.w3.org/1999/xlink">
<g id="graph0" class="graph" transform="scale(1 1) rotate(0) translate(4 262.7)">
<title>oneDegreeRelationshipsDiagram</title>
<polygon fill="#ffffff" stroke="transparent" points="-4,4 -4,-262.7 390,-262.7 390,4 -4,4"/>
<text text-anchor="middle" x="72.4936" y="-7.3" font-family="Helvetica,sans-Serif" font-size="11.00" fill="#000000">Generated by SchemaSpy</text>
<!-- metadata -->
<g id="node1" class="node">
<title>metadata</title>
<g id="a_node1"><a xlink:href="../../tables/metadata.html" xlink:title="metadata" target="_top">
<polygon fill="#ffffff" stroke="transparent" points="172,-54.7 172,-254.7 378,-254.7 378,-54.7 172,-54.7"/>
<polygon fill="#f5f5f5" stroke="transparent" points="174,-229.7 174,-252.7 376,-252.7 376,-229.7 174,-229.7"/>
<polygon fill="none" stroke="#000000" points="174,-229.7 174,-252.7 376,-252.7 376,-229.7 174,-229.7"/>
<text text-anchor="start" x="179" y="-238.3" font-family="Helvetica,sans-Serif" font-weight="bold" font-size="11.00" fill="#000000">metadata</text>
<text text-anchor="start" x="341.0437" y="-237.8" font-family="Helvetica,sans-Serif" font-size="11.00" fill="#000000">[table]</text>
<polygon fill="#ffffff" stroke="transparent" points="174,-207.7 174,-229.7 292,-229.7 292,-207.7 174,-207.7"/>
<polygon fill="none" stroke="#000000" points="174,-207.7 174,-229.7 292,-229.7 292,-207.7 174,-207.7"/>
<text text-anchor="start" x="194" y="-214.8" font-family="Helvetica,sans-Serif" font-size="11.00" fill="#000000">id</text>
<polygon fill="none" stroke="#000000" points="292,-207.7 292,-229.7 376,-229.7 376,-207.7 292,-207.7"/>
<text text-anchor="start" x="295" y="-215.4" font-family="Helvetica,sans-Serif" font-size="11.00" fill="#000000">int4[10]</text>
<polygon fill="none" stroke="#000000" points="174,-185.7 174,-207.7 292,-207.7 292,-185.7 174,-185.7"/>
<text text-anchor="start" x="194" y="-192.8" font-family="Helvetica,sans-Serif" font-size="11.00" fill="#000000">version</text>
<polygon fill="none" stroke="#000000" points="292,-185.7 292,-207.7 376,-207.7 376,-185.7 292,-185.7"/>
<text text-anchor="start" x="295" y="-193.4" font-family="Helvetica,sans-Serif" font-size="11.00" fill="#000000">varchar[24]</text>
<polygon fill="none" stroke="#000000" points="174,-163.7 174,-185.7 292,-185.7 292,-163.7 174,-163.7"/>
<text text-anchor="start" x="194" y="-170.8" font-family="Helvetica,sans-Serif" font-size="11.00" fill="#000000">creation_date</text>
<polygon fill="none" stroke="#000000" points="292,-163.7 292,-185.7 376,-185.7 376,-163.7 292,-163.7"/>
<text text-anchor="start" x="294.8807" y="-171.4" font-family="Helvetica,sans-Serif" font-size="11.00" fill="#000000">timestamp[29,6]</text>
<polygon fill="none" stroke="#000000" points="174,-141.7 174,-163.7 292,-163.7 292,-141.7 174,-141.7"/>
<text text-anchor="start" x="194" y="-148.8" font-family="Helvetica,sans-Serif" font-size="11.00" fill="#000000">trigger_coverage</text>
<polygon fill="none" stroke="#000000" points="292,-141.7 292,-163.7 376,-163.7 376,-141.7 292,-141.7"/>
<text text-anchor="start" x="295" y="-149.4" font-family="Helvetica,sans-Serif" font-size="11.00" fill="#000000">bool[1]</text>
<polygon fill="none" stroke="#000000" points="174,-119.7 174,-141.7 292,-141.7 292,-119.7 174,-119.7"/>
<text text-anchor="start" x="194" y="-126.8" font-family="Helvetica,sans-Serif" font-size="11.00" fill="#000000">trigger_branch</text>
<polygon fill="none" stroke="#000000" points="292,-119.7 292,-141.7 376,-141.7 376,-119.7 292,-119.7"/>
<text text-anchor="start" x="295" y="-127.4" font-family="Helvetica,sans-Serif" font-size="11.00" fill="#000000">bool[1]</text>
<polygon fill="none" stroke="#000000" points="174,-97.7 174,-119.7 292,-119.7 292,-97.7 174,-97.7"/>
<image xlink:href="../../images/foreignKeys.png" width="11px" height="12px" preserveAspectRatio="xMinYMin meet" x="179" y="-114.7"/>
<text text-anchor="start" x="194" y="-104.8" font-family="Helvetica,sans-Serif" font-size="11.00" fill="#000000">configuration</text>
<polygon fill="none" stroke="#000000" points="292,-97.7 292,-119.7 376,-119.7 376,-97.7 292,-97.7"/>
<text text-anchor="start" x="295" y="-105.4" font-family="Helvetica,sans-Serif" font-size="11.00" fill="#000000">int4[10]</text>
<polygon fill="none" stroke="#000000" points="174,-75.7 174,-97.7 292,-97.7 292,-75.7 174,-75.7"/>
<text text-anchor="start" x="194" y="-82.8" font-family="Helvetica,sans-Serif" font-size="11.00" fill="#000000">is_switching</text>
<polygon fill="none" stroke="#000000" points="292,-75.7 292,-97.7 376,-97.7 376,-75.7 292,-75.7"/>
<text text-anchor="start" x="295" y="-83.4" font-family="Helvetica,sans-Serif" font-size="11.00" fill="#000000">bool[1]</text>
<polygon fill="#ffffff" stroke="transparent" points="174,-56.7 174,-75.7 224,-75.7 224,-56.7 174,-56.7"/>
<polygon fill="none" stroke="#000000" points="174,-56.7 174,-75.7 224,-75.7 224,-56.7 174,-56.7"/>
<text text-anchor="start" x="177" y="-62.8" font-family="Helvetica,sans-Serif" font-size="11.00" fill="#000000">&lt; 1</text>
<polygon fill="#ffffff" stroke="transparent" points="224,-56.7 224,-75.7 292,-75.7 292,-56.7 224,-56.7"/>
<polygon fill="none" stroke="#000000" points="224,-56.7 224,-75.7 292,-75.7 292,-56.7 224,-56.7"/>
<text text-anchor="start" x="256.6105" y="-62.8" font-family="Helvetica,sans-Serif" font-size="11.00" fill="#000000">0 rows</text>
<polygon fill="#ffffff" stroke="transparent" points="292,-56.7 292,-75.7 376,-75.7 376,-56.7 292,-56.7"/>
<polygon fill="none" stroke="#000000" points="292,-56.7 292,-75.7 376,-75.7 376,-56.7 292,-56.7"/>
<text text-anchor="start" x="357.4053" y="-62.8" font-family="Helvetica,sans-Serif" font-size="11.00" fill="#000000">0 &gt;</text>
<polygon fill="none" stroke="#000000" stroke-width="2" points="173,-55.7 173,-253.7 377,-253.7 377,-55.7 173,-55.7"/>
</a>
</g>
</g>
<!-- configuration -->
<g id="node2" class="node">
<title>configuration</title>
<g id="a_node2"><a xlink:href="../../tables/configuration.html" xlink:title="configuration" target="_top">
<polygon fill="#ffffff" stroke="transparent" points="8,-38.2 8,-143.2 123,-143.2 123,-38.2 8,-38.2"/>
<polygon fill="#f5f5f5" stroke="transparent" points="8.5,-119.7 8.5,-142.7 123.5,-142.7 123.5,-119.7 8.5,-119.7"/>
<polygon fill="none" stroke="#000000" points="8.5,-119.7 8.5,-142.7 123.5,-142.7 123.5,-119.7 8.5,-119.7"/>
<text text-anchor="start" x="13.5" y="-128.3" font-family="Helvetica,sans-Serif" font-weight="bold" font-size="11.00" fill="#000000">configuration</text>
<text text-anchor="start" x="89.0219" y="-127.8" font-family="Helvetica,sans-Serif" font-size="11.00" fill="#000000">[table]</text>
<polygon fill="none" stroke="#000000" points="8.5,-97.7 8.5,-119.7 123.5,-119.7 123.5,-97.7 8.5,-97.7"/>
<image xlink:href="../../images/primaryKeys.png" width="11px" height="12px" preserveAspectRatio="xMinYMin meet" x="13.5" y="-114.7"/>
<text text-anchor="start" x="37.5" y="-104.8" font-family="Helvetica,sans-Serif" font-size="11.00" fill="#000000">id</text>
<polygon fill="#ffffff" stroke="transparent" points="8.5,-75.7 8.5,-97.7 123.5,-97.7 123.5,-75.7 8.5,-75.7"/>
<polygon fill="none" stroke="#000000" points="8.5,-75.7 8.5,-97.7 123.5,-97.7 123.5,-75.7 8.5,-75.7"/>
<text text-anchor="start" x="37.5" y="-82.8" font-family="Helvetica,sans-Serif" font-size="11.00" fill="#000000">name</text>
<polygon fill="none" stroke="#000000" points="8.5,-56.7 8.5,-75.7 123.5,-75.7 123.5,-56.7 8.5,-56.7"/>
<text text-anchor="start" x="11.5" y="-62.8" font-family="Helvetica,sans-Serif" font-size="11.00" fill="#000000">...</text>
<polygon fill="#ffffff" stroke="transparent" points="8.5,-37.7 8.5,-56.7 42.5,-56.7 42.5,-37.7 8.5,-37.7"/>
<polygon fill="none" stroke="#000000" points="8.5,-37.7 8.5,-56.7 42.5,-56.7 42.5,-37.7 8.5,-37.7"/>
<text text-anchor="start" x="11.5" y="-43.8" font-family="Helvetica,sans-Serif" font-size="11.00" fill="#000000"> &#160;</text>
<polygon fill="#ffffff" stroke="transparent" points="42.5,-37.7 42.5,-56.7 91.5,-56.7 91.5,-37.7 42.5,-37.7"/>
<polygon fill="none" stroke="#000000" points="42.5,-37.7 42.5,-56.7 91.5,-56.7 91.5,-37.7 42.5,-37.7"/>
<text text-anchor="start" x="56.1105" y="-43.8" font-family="Helvetica,sans-Serif" font-size="11.00" fill="#000000">0 rows</text>
<polygon fill="#ffffff" stroke="transparent" points="91.5,-37.7 91.5,-56.7 123.5,-56.7 123.5,-37.7 91.5,-37.7"/>
<polygon fill="none" stroke="#000000" points="91.5,-37.7 91.5,-56.7 123.5,-56.7 123.5,-37.7 91.5,-37.7"/>
<text text-anchor="start" x="104.9053" y="-43.8" font-family="Helvetica,sans-Serif" font-size="11.00" fill="#000000">1 &gt;</text>
</a>
</g>
</g>
<!-- metadata&#45;&gt;configuration -->
<g id="edge1" class="edge">
<title>metadata:w&#45;&gt;configuration:e</title>
<path fill="none" stroke="#000000" d="M159.4203,-108.7C147.5435,-108.7 140.158,-108.7 123.5,-108.7"/>
<polygon fill="#000000" stroke="#000000" points="166,-108.7001 174,-112.3 170,-108.7 174,-108.7 174,-108.7 174,-108.7 170,-108.7 174,-105.1 166,-108.7001 166,-108.7001"/>
<ellipse fill="none" stroke="#000000" cx="162.8" cy="-108.7001" rx="3.2" ry="3.2"/>
</g>
</g>
</svg>
