<?xml version="1.0" encoding="UTF-8" standalone="no"?>
<!DOCTYPE svg PUBLIC "-//W3C//DTD SVG 1.1//EN"
 "http://www.w3.org/Graphics/SVG/1.1/DTD/svg11.dtd">
<!-- Generated by graphviz version 2.40.1 (20161225.0304)
 -->
<!-- Title: oneDegreeRelationshipsDiagram Pages: 1 -->
<svg width="440pt" height="341pt"
 viewBox="0.00 0.00 440.00 341.20" xmlns="http://www.w3.org/2000/svg" xmlns:xlink="http://www.w3.org/1999/xlink">
<g id="graph0" class="graph" transform="scale(1 1) rotate(0) translate(4 337.2)">
<title>oneDegreeRelationshipsDiagram</title>
<polygon fill="#ffffff" stroke="transparent" points="-4,4 -4,-337.2 436,-337.2 436,4 -4,4"/>
<text text-anchor="middle" x="72.4936" y="-7.3" font-family="Helvetica,sans-Serif" font-size="11.00" fill="#000000">Generated by SchemaSpy</text>
<!-- model_connect_bc_singularity -->
<g id="node1" class="node">
<title>model_connect_bc_singularity</title>
<g id="a_node1"><a xlink:href="../../tables/model_connect_bc_singularity.html" xlink:title="model_connect_bc_singularity" target="_top">
<polygon fill="#ffffff" stroke="transparent" points="8,-38.2 8,-329.2 424,-329.2 424,-38.2 8,-38.2"/>
<polygon fill="#f5f5f5" stroke="transparent" points="10,-303.7 10,-326.7 422,-326.7 422,-303.7 10,-303.7"/>
<polygon fill="none" stroke="#000000" points="10,-303.7 10,-326.7 422,-326.7 422,-303.7 10,-303.7"/>
<text text-anchor="start" x="15" y="-312.3" font-family="Helvetica,sans-Serif" font-weight="bold" font-size="11.00" fill="#000000">model_connect_bc_singularity</text>
<text text-anchor="start" x="388.8895" y="-311.8" font-family="Helvetica,sans-Serif" font-size="11.00" fill="#000000">[view]</text>
<polygon fill="none" stroke="#000000" points="10,-281.7 10,-303.7 207,-303.7 207,-281.7 10,-281.7"/>
<text text-anchor="start" x="30" y="-288.8" font-family="Helvetica,sans-Serif" font-size="11.00" fill="#000000">id</text>
<polygon fill="none" stroke="#000000" points="207,-281.7 207,-303.7 422,-303.7 422,-281.7 207,-281.7"/>
<text text-anchor="start" x="210" y="-289.4" font-family="Helvetica,sans-Serif" font-size="11.00" fill="#000000">int4[10]</text>
<polygon fill="none" stroke="#000000" points="10,-259.7 10,-281.7 207,-281.7 207,-259.7 10,-259.7"/>
<text text-anchor="start" x="30" y="-266.8" font-family="Helvetica,sans-Serif" font-size="11.00" fill="#000000">name</text>
<polygon fill="none" stroke="#000000" points="207,-259.7 207,-281.7 422,-281.7 422,-259.7 207,-259.7"/>
<text text-anchor="start" x="210" y="-267.4" font-family="Helvetica,sans-Serif" font-size="11.00" fill="#000000">varchar[24]</text>
<polygon fill="none" stroke="#000000" points="10,-237.7 10,-259.7 207,-259.7 207,-237.7 10,-237.7"/>
<text text-anchor="start" x="30" y="-244.8" font-family="Helvetica,sans-Serif" font-size="11.00" fill="#000000">node</text>
<polygon fill="none" stroke="#000000" points="207,-237.7 207,-259.7 422,-259.7 422,-237.7 207,-237.7"/>
<text text-anchor="start" x="210" y="-245.4" font-family="Helvetica,sans-Serif" font-size="11.00" fill="#000000">int4[10]</text>
<polygon fill="none" stroke="#000000" points="10,-215.7 10,-237.7 207,-237.7 207,-215.7 10,-215.7"/>
<text text-anchor="start" x="30" y="-222.8" font-family="Helvetica,sans-Serif" font-size="11.00" fill="#000000">cascade_mode</text>
<polygon fill="none" stroke="#000000" points="207,-215.7 207,-237.7 422,-237.7 422,-215.7 207,-215.7"/>
<text text-anchor="start" x="209.9577" y="-223.4" font-family="Helvetica,sans-Serif" font-size="11.00" fill="#000000">hydra_model_connect_mode[2147483647]</text>
<polygon fill="none" stroke="#000000" points="10,-193.7 10,-215.7 207,-215.7 207,-193.7 10,-193.7"/>
<text text-anchor="start" x="30" y="-200.8" font-family="Helvetica,sans-Serif" font-size="11.00" fill="#000000">zq_array</text>
<polygon fill="none" stroke="#000000" points="207,-193.7 207,-215.7 422,-215.7 422,-193.7 207,-193.7"/>
<text text-anchor="start" x="210" y="-201.4" font-family="Helvetica,sans-Serif" font-size="11.00" fill="#000000">_float4[8,8]</text>
<polygon fill="none" stroke="#000000" points="10,-171.7 10,-193.7 207,-193.7 207,-171.7 10,-171.7"/>
<text text-anchor="start" x="30" y="-178.8" font-family="Helvetica,sans-Serif" font-size="11.00" fill="#000000">tz_array</text>
<polygon fill="none" stroke="#000000" points="207,-171.7 207,-193.7 422,-193.7 422,-171.7 207,-171.7"/>
<text text-anchor="start" x="210" y="-179.4" font-family="Helvetica,sans-Serif" font-size="11.00" fill="#000000">_float4[8,8]</text>
<polygon fill="none" stroke="#000000" points="10,-149.7 10,-171.7 207,-171.7 207,-149.7 10,-149.7"/>
<text text-anchor="start" x="30" y="-156.8" font-family="Helvetica,sans-Serif" font-size="11.00" fill="#000000">quality</text>
<polygon fill="none" stroke="#000000" points="207,-149.7 207,-171.7 422,-171.7 422,-149.7 207,-149.7"/>
<text text-anchor="start" x="210" y="-157.4" font-family="Helvetica,sans-Serif" font-size="11.00" fill="#000000">_float4[8,8]</text>
<polygon fill="none" stroke="#000000" points="10,-127.7 10,-149.7 207,-149.7 207,-127.7 10,-127.7"/>
<text text-anchor="start" x="30" y="-134.8" font-family="Helvetica,sans-Serif" font-size="11.00" fill="#000000">geom</text>
<polygon fill="none" stroke="#000000" points="207,-127.7 207,-149.7 422,-149.7 422,-127.7 207,-127.7"/>
<text text-anchor="start" x="210" y="-135.4" font-family="Helvetica,sans-Serif" font-size="11.00" fill="#000000">geometry[2147483647]</text>
<polygon fill="none" stroke="#000000" points="10,-105.7 10,-127.7 207,-127.7 207,-105.7 10,-105.7"/>
<text text-anchor="start" x="30" y="-112.8" font-family="Helvetica,sans-Serif" font-size="11.00" fill="#000000">configuration</text>
<polygon fill="none" stroke="#000000" points="207,-105.7 207,-127.7 422,-127.7 422,-105.7 207,-105.7"/>
<text text-anchor="start" x="210" y="-113.4" font-family="Helvetica,sans-Serif" font-size="11.00" fill="#000000">varchar[2147483647]</text>
<polygon fill="none" stroke="#000000" points="10,-83.7 10,-105.7 207,-105.7 207,-83.7 10,-83.7"/>
<text text-anchor="start" x="30" y="-90.8" font-family="Helvetica,sans-Serif" font-size="11.00" fill="#000000">validity</text>
<polygon fill="none" stroke="#000000" points="207,-83.7 207,-105.7 422,-105.7 422,-83.7 207,-83.7"/>
<text text-anchor="start" x="210" y="-91.4" font-family="Helvetica,sans-Serif" font-size="11.00" fill="#000000">bool[1]</text>
<polygon fill="none" stroke="#000000" points="10,-61.7 10,-83.7 207,-83.7 207,-61.7 10,-61.7"/>
<text text-anchor="start" x="30" y="-68.8" font-family="Helvetica,sans-Serif" font-size="11.00" fill="#000000">configuration_json</text>
<polygon fill="none" stroke="#000000" points="207,-61.7 207,-83.7 422,-83.7 422,-61.7 207,-61.7"/>
<text text-anchor="start" x="210" y="-69.4" font-family="Helvetica,sans-Serif" font-size="11.00" fill="#000000">json[2147483647]</text>
<polygon fill="none" stroke="#000000" points="10,-39.7 10,-61.7 207,-61.7 207,-39.7 10,-39.7"/>
<text text-anchor="start" x="30" y="-46.8" font-family="Helvetica,sans-Serif" font-size="11.00" fill="#000000">comment</text>
<polygon fill="none" stroke="#000000" points="207,-39.7 207,-61.7 422,-61.7 422,-39.7 207,-39.7"/>
<text text-anchor="start" x="210" y="-47.4" font-family="Helvetica,sans-Serif" font-size="11.00" fill="#000000">varchar[2147483647]</text>
<polygon fill="none" stroke="#000000" stroke-width="2" points="9,-39.2 9,-328.2 423,-328.2 423,-39.2 9,-39.2"/>
</a>
</g>
</g>
</g>
</svg>
