<?xml version="1.0" encoding="UTF-8" standalone="no"?>
<!DOCTYPE svg PUBLIC "-//W3C//DTD SVG 1.1//EN"
 "http://www.w3.org/Graphics/SVG/1.1/DTD/svg11.dtd">
<!-- Generated by graphviz version 2.40.1 (20161225.0304)
 -->
<!-- Title: twoDegreesRelationshipsDiagram Pages: 1 -->
<svg width="528pt" height="721pt"
 viewBox="0.00 0.00 528.00 721.20" xmlns="http://www.w3.org/2000/svg" xmlns:xlink="http://www.w3.org/1999/xlink">
<g id="graph0" class="graph" transform="scale(1 1) rotate(0) translate(4 717.2)">
<title>twoDegreesRelationshipsDiagram</title>
<polygon fill="#ffffff" stroke="transparent" points="-4,4 -4,-717.2 524,-717.2 524,4 -4,4"/>
<text text-anchor="middle" x="72.4936" y="-7.3" font-family="Helvetica,sans-Serif" font-size="11.00" fill="#000000">Generated by SchemaSpy</text>
<!-- _pipe_link -->
<g id="node1" class="node">
<title>_pipe_link</title>
<g id="a_node1"><a xlink:href="../../tables/_pipe_link.html" xlink:title="_pipe_link" target="_top">
<polygon fill="#ffffff" stroke="transparent" points="336.5,-501.2 336.5,-672.2 485.5,-672.2 485.5,-501.2 336.5,-501.2"/>
<polygon fill="#f5f5f5" stroke="transparent" points="337,-648.7 337,-671.7 486,-671.7 486,-648.7 337,-648.7"/>
<polygon fill="none" stroke="#000000" points="337,-648.7 337,-671.7 486,-671.7 486,-648.7 337,-648.7"/>
<text text-anchor="start" x="342" y="-657.3" font-family="Helvetica,sans-Serif" font-weight="bold" font-size="11.00" fill="#000000">_pipe_link</text>
<text text-anchor="start" x="451.0437" y="-656.8" font-family="Helvetica,sans-Serif" font-size="11.00" fill="#000000">[table]</text>
<polygon fill="#ffffff" stroke="transparent" points="337,-626.7 337,-648.7 486,-648.7 486,-626.7 337,-626.7"/>
<polygon fill="none" stroke="#000000" points="337,-626.7 337,-648.7 486,-648.7 486,-626.7 337,-626.7"/>
<image xlink:href="../../images/foreignKeys.png" width="11px" height="12px" preserveAspectRatio="xMinYMin meet" x="342" y="-643.7"/>
<text text-anchor="start" x="357" y="-633.8" font-family="Helvetica,sans-Serif" font-size="11.00" fill="#000000">id</text>
<polygon fill="none" stroke="#000000" points="337,-604.7 337,-626.7 486,-626.7 486,-604.7 337,-604.7"/>
<image xlink:href="../../images/foreignKeys.png" width="11px" height="12px" preserveAspectRatio="xMinYMin meet" x="342" y="-621.7"/>
<text text-anchor="start" x="357" y="-611.8" font-family="Helvetica,sans-Serif" font-size="11.00" fill="#000000">link_type</text>
<polygon fill="none" stroke="#000000" points="337,-582.7 337,-604.7 486,-604.7 486,-582.7 337,-582.7"/>
<image xlink:href="../../images/foreignKeys.png" width="11px" height="12px" preserveAspectRatio="xMinYMin meet" x="342" y="-599.7"/>
<text text-anchor="start" x="357" y="-589.8" font-family="Helvetica,sans-Serif" font-size="11.00" fill="#000000">branch</text>
<polygon fill="none" stroke="#000000" points="337,-560.7 337,-582.7 486,-582.7 486,-560.7 337,-560.7"/>
<image xlink:href="../../images/foreignKeys.png" width="11px" height="12px" preserveAspectRatio="xMinYMin meet" x="342" y="-577.7"/>
<text text-anchor="start" x="357" y="-567.8" font-family="Helvetica,sans-Serif" font-size="11.00" fill="#000000">cp_geom</text>
<polygon fill="none" stroke="#000000" points="337,-538.7 337,-560.7 486,-560.7 486,-538.7 337,-538.7"/>
<image xlink:href="../../images/foreignKeys.png" width="11px" height="12px" preserveAspectRatio="xMinYMin meet" x="342" y="-555.7"/>
<text text-anchor="start" x="357" y="-545.8" font-family="Helvetica,sans-Serif" font-size="11.00" fill="#000000">op_geom</text>
<polygon fill="none" stroke="#000000" points="337,-519.7 337,-538.7 486,-538.7 486,-519.7 337,-519.7"/>
<text text-anchor="start" x="340" y="-525.8" font-family="Helvetica,sans-Serif" font-size="11.00" fill="#000000">...</text>
<polygon fill="#ffffff" stroke="transparent" points="337,-500.7 337,-519.7 397,-519.7 397,-500.7 337,-500.7"/>
<polygon fill="none" stroke="#000000" points="337,-500.7 337,-519.7 397,-519.7 397,-500.7 337,-500.7"/>
<text text-anchor="start" x="340" y="-506.8" font-family="Helvetica,sans-Serif" font-size="11.00" fill="#000000">&lt; 5</text>
<polygon fill="#ffffff" stroke="transparent" points="397,-500.7 397,-519.7 454,-519.7 454,-500.7 397,-500.7"/>
<polygon fill="none" stroke="#000000" points="397,-500.7 397,-519.7 454,-519.7 454,-500.7 397,-500.7"/>
<text text-anchor="start" x="418.6105" y="-506.8" font-family="Helvetica,sans-Serif" font-size="11.00" fill="#000000">0 rows</text>
<polygon fill="#ffffff" stroke="transparent" points="454,-500.7 454,-519.7 486,-519.7 486,-500.7 454,-500.7"/>
<polygon fill="none" stroke="#000000" points="454,-500.7 454,-519.7 486,-519.7 486,-500.7 454,-500.7"/>
<text text-anchor="start" x="476.8862" y="-506.8" font-family="Helvetica,sans-Serif" font-size="11.00" fill="#000000"> &#160;</text>
</a>
</g>
</g>
<!-- branch -->
<g id="node2" class="node">
<title>branch</title>
<g id="a_node2"><a xlink:href="../../tables/branch.html" xlink:title="branch" target="_top">
<polygon fill="#ffffff" stroke="transparent" points="95,-566.2 95,-627.2 174,-627.2 174,-566.2 95,-566.2"/>
<polygon fill="#f5f5f5" stroke="transparent" points="95.5,-603.7 95.5,-626.7 174.5,-626.7 174.5,-603.7 95.5,-603.7"/>
<polygon fill="none" stroke="#000000" points="95.5,-603.7 95.5,-626.7 174.5,-626.7 174.5,-603.7 95.5,-603.7"/>
<text text-anchor="start" x="100.5" y="-612.3" font-family="Helvetica,sans-Serif" font-weight="bold" font-size="11.00" fill="#000000">branch</text>
<text text-anchor="start" x="140.0219" y="-611.8" font-family="Helvetica,sans-Serif" font-size="11.00" fill="#000000">[table]</text>
<polygon fill="none" stroke="#000000" points="95.5,-584.7 95.5,-603.7 174.5,-603.7 174.5,-584.7 95.5,-584.7"/>
<text text-anchor="start" x="98.5" y="-590.8" font-family="Helvetica,sans-Serif" font-size="11.00" fill="#000000">...</text>
<polygon fill="#ffffff" stroke="transparent" points="95.5,-565.7 95.5,-584.7 111.5,-584.7 111.5,-565.7 95.5,-565.7"/>
<polygon fill="none" stroke="#000000" points="95.5,-565.7 95.5,-584.7 111.5,-584.7 111.5,-565.7 95.5,-565.7"/>
<text text-anchor="start" x="98.5" y="-571.8" font-family="Helvetica,sans-Serif" font-size="11.00" fill="#000000"> &#160;</text>
<polygon fill="#ffffff" stroke="transparent" points="111.5,-565.7 111.5,-584.7 151.5,-584.7 151.5,-565.7 111.5,-565.7"/>
<polygon fill="none" stroke="#000000" points="111.5,-565.7 111.5,-584.7 151.5,-584.7 151.5,-565.7 111.5,-565.7"/>
<text text-anchor="start" x="116.1105" y="-571.8" font-family="Helvetica,sans-Serif" font-size="11.00" fill="#000000">0 rows</text>
<polygon fill="#ffffff" stroke="transparent" points="151.5,-565.7 151.5,-584.7 174.5,-584.7 174.5,-565.7 151.5,-565.7"/>
<polygon fill="none" stroke="#000000" points="151.5,-565.7 151.5,-584.7 174.5,-584.7 174.5,-565.7 151.5,-565.7"/>
<text text-anchor="start" x="155.9053" y="-571.8" font-family="Helvetica,sans-Serif" font-size="11.00" fill="#000000">1 &gt;</text>
</a>
</g>
</g>
<!-- _pipe_link&#45;&gt;branch -->
<g id="edge1" class="edge">
<title>_pipe_link:w&#45;&gt;branch:e</title>
<path fill="none" stroke="#000000" d="M322.5313,-593.7C261.9709,-593.7 241.6441,-593.7 174.5,-593.7"/>
<polygon fill="#000000" stroke="#000000" points="329,-593.7001 337,-597.3 333,-593.7 337,-593.7 337,-593.7 337,-593.7 333,-593.7 337,-590.1 329,-593.7001 329,-593.7001"/>
<ellipse fill="none" stroke="#000000" cx="325.8" cy="-593.7001" rx="3.2" ry="3.2"/>
</g>
<!-- closed_parametric_geometry -->
<g id="node3" class="node">
<title>closed_parametric_geometry</title>
<g id="a_node3"><a xlink:href="../../tables/closed_parametric_geometry.html" xlink:title="closed_parametric_geometry" target="_top">
<polygon fill="#ffffff" stroke="transparent" points="32,-402.2 32,-463.2 237,-463.2 237,-402.2 32,-402.2"/>
<polygon fill="#f5f5f5" stroke="transparent" points="32.5,-439.7 32.5,-462.7 237.5,-462.7 237.5,-439.7 32.5,-439.7"/>
<polygon fill="none" stroke="#000000" points="32.5,-439.7 32.5,-462.7 237.5,-462.7 237.5,-439.7 32.5,-439.7"/>
<text text-anchor="start" x="37.5" y="-448.3" font-family="Helvetica,sans-Serif" font-weight="bold" font-size="11.00" fill="#000000">closed_parametric_geometry</text>
<text text-anchor="start" x="203.0219" y="-447.8" font-family="Helvetica,sans-Serif" font-size="11.00" fill="#000000">[table]</text>
<polygon fill="none" stroke="#000000" points="32.5,-420.7 32.5,-439.7 237.5,-439.7 237.5,-420.7 32.5,-420.7"/>
<text text-anchor="start" x="35.5" y="-426.8" font-family="Helvetica,sans-Serif" font-size="11.00" fill="#000000">...</text>
<polygon fill="#ffffff" stroke="transparent" points="32.5,-401.7 32.5,-420.7 111.5,-420.7 111.5,-401.7 32.5,-401.7"/>
<polygon fill="none" stroke="#000000" points="32.5,-401.7 32.5,-420.7 111.5,-420.7 111.5,-401.7 32.5,-401.7"/>
<text text-anchor="start" x="35.5" y="-407.8" font-family="Helvetica,sans-Serif" font-size="11.00" fill="#000000"> &#160;</text>
<polygon fill="#ffffff" stroke="transparent" points="111.5,-401.7 111.5,-420.7 182.5,-420.7 182.5,-401.7 111.5,-401.7"/>
<polygon fill="none" stroke="#000000" points="111.5,-401.7 111.5,-420.7 182.5,-420.7 182.5,-401.7 111.5,-401.7"/>
<text text-anchor="start" x="147.1105" y="-407.8" font-family="Helvetica,sans-Serif" font-size="11.00" fill="#000000">0 rows</text>
<polygon fill="#ffffff" stroke="transparent" points="182.5,-401.7 182.5,-420.7 237.5,-420.7 237.5,-401.7 182.5,-401.7"/>
<polygon fill="none" stroke="#000000" points="182.5,-401.7 182.5,-420.7 237.5,-420.7 237.5,-401.7 182.5,-401.7"/>
<text text-anchor="start" x="218.9053" y="-407.8" font-family="Helvetica,sans-Serif" font-size="11.00" fill="#000000">3 &gt;</text>
</a>
</g>
</g>
<!-- _pipe_link&#45;&gt;closed_parametric_geometry -->
<g id="edge2" class="edge">
<title>_pipe_link:w&#45;&gt;closed_parametric_geometry:e</title>
<path fill="none" stroke="#000000" d="M322.6062,-569.6926C266.9682,-552.4333 309.144,-429.7 237.5,-429.7"/>
<polygon fill="#000000" stroke="#000000" points="329.0767,-570.595 336.5027,-575.2655 333.0383,-571.1475 337,-571.7 337,-571.7 337,-571.7 333.0383,-571.1475 337.4973,-568.1345 329.0767,-570.595 329.0767,-570.595"/>
<ellipse fill="none" stroke="#000000" cx="325.9074" cy="-570.153" rx="3.2" ry="3.2"/>
</g>
<!-- _link -->
<g id="node4" class="node">
<title>_link</title>
<g id="a_node4"><a xlink:href="../../tables/_link.html" xlink:title="_link" target="_top">
<polygon fill="#ffffff" stroke="transparent" points="91.5,-648.2 91.5,-709.2 177.5,-709.2 177.5,-648.2 91.5,-648.2"/>
<polygon fill="#f5f5f5" stroke="transparent" points="91.5,-685.7 91.5,-708.7 177.5,-708.7 177.5,-685.7 91.5,-685.7"/>
<polygon fill="none" stroke="#000000" points="91.5,-685.7 91.5,-708.7 177.5,-708.7 177.5,-685.7 91.5,-685.7"/>
<text text-anchor="start" x="96.5" y="-694.3" font-family="Helvetica,sans-Serif" font-weight="bold" font-size="11.00" fill="#000000">_link</text>
<text text-anchor="start" x="142.5437" y="-693.8" font-family="Helvetica,sans-Serif" font-size="11.00" fill="#000000">[table]</text>
<polygon fill="none" stroke="#000000" points="91.5,-666.7 91.5,-685.7 177.5,-685.7 177.5,-666.7 91.5,-666.7"/>
<text text-anchor="start" x="94.5" y="-672.8" font-family="Helvetica,sans-Serif" font-size="11.00" fill="#000000">...</text>
<polygon fill="#ffffff" stroke="transparent" points="91.5,-647.7 91.5,-666.7 112.5,-666.7 112.5,-647.7 91.5,-647.7"/>
<polygon fill="none" stroke="#000000" points="91.5,-647.7 91.5,-666.7 112.5,-666.7 112.5,-647.7 91.5,-647.7"/>
<text text-anchor="start" x="94.2027" y="-653.8" font-family="Helvetica,sans-Serif" font-size="11.00" fill="#000000">&lt; 5</text>
<polygon fill="#ffffff" stroke="transparent" points="112.5,-647.7 112.5,-666.7 150.5,-666.7 150.5,-647.7 112.5,-647.7"/>
<polygon fill="none" stroke="#000000" points="112.5,-647.7 112.5,-666.7 150.5,-666.7 150.5,-647.7 112.5,-647.7"/>
<text text-anchor="start" x="115.3053" y="-653.8" font-family="Helvetica,sans-Serif" font-size="11.00" fill="#000000">0 rows</text>
<polygon fill="#ffffff" stroke="transparent" points="150.5,-647.7 150.5,-666.7 177.5,-666.7 177.5,-647.7 150.5,-647.7"/>
<polygon fill="none" stroke="#000000" points="150.5,-647.7 150.5,-666.7 177.5,-666.7 177.5,-647.7 150.5,-647.7"/>
<text text-anchor="start" x="153.1452" y="-653.8" font-family="Helvetica,sans-Serif" font-size="11.00" fill="#000000">60 &gt;</text>
</a>
</g>
</g>
<!-- _pipe_link&#45;&gt;_link -->
<g id="edge3" class="edge">
<title>_pipe_link:w&#45;&gt;_link:e</title>
<path fill="none" stroke="#000000" d="M326.3401,-637.984C262.5777,-641.4614 246.6724,-675.7 177.5,-675.7"/>
<polygon fill="#000000" stroke="#000000" points="336.0937,-633.7227 336.3069,-641.7199 334.7074,-641.7625 334.4943,-633.7654 336.0937,-633.7227"/>
<polyline fill="none" stroke="#000000" points="337,-637.7 333.0014,-637.8066 "/>
<ellipse fill="none" stroke="#000000" cx="329.8026" cy="-637.8918" rx="3.2" ry="3.2"/>
</g>
<!-- _pipe_link&#45;&gt;_link -->
<g id="edge4" class="edge">
<title>_pipe_link:w&#45;&gt;_link:e</title>
<path fill="none" stroke="#000000" d="M322.497,-617.8354C280.7424,-628.5238 211.0794,-675.7 177.5,-675.7"/>
<polygon fill="#000000" stroke="#000000" points="329.0853,-616.8654 337.5244,-619.2616 333.0427,-616.2827 337,-615.7 337,-615.7 337,-615.7 333.0427,-616.2827 336.4756,-612.1384 329.0853,-616.8654 329.0853,-616.8654"/>
<ellipse fill="none" stroke="#000000" cx="325.9195" cy="-617.3316" rx="3.2" ry="3.2"/>
</g>
<!-- open_parametric_geometry -->
<g id="node5" class="node">
<title>open_parametric_geometry</title>
<g id="a_node5"><a xlink:href="../../tables/open_parametric_geometry.html" xlink:title="open_parametric_geometry" target="_top">
<polygon fill="#ffffff" stroke="transparent" points="13,-202.7 13,-380.7 256,-380.7 256,-202.7 13,-202.7"/>
<polygon fill="#f5f5f5" stroke="transparent" points="15.5,-355.7 15.5,-378.7 254.5,-378.7 254.5,-355.7 15.5,-355.7"/>
<polygon fill="none" stroke="#000000" points="15.5,-355.7 15.5,-378.7 254.5,-378.7 254.5,-355.7 15.5,-355.7"/>
<text text-anchor="start" x="20.5" y="-364.3" font-family="Helvetica,sans-Serif" font-weight="bold" font-size="11.00" fill="#000000">open_parametric_geometry</text>
<text text-anchor="start" x="219.5437" y="-363.8" font-family="Helvetica,sans-Serif" font-size="11.00" fill="#000000">[table]</text>
<polygon fill="none" stroke="#000000" points="15.5,-333.7 15.5,-355.7 193.5,-355.7 193.5,-333.7 15.5,-333.7"/>
<image xlink:href="../../images/primaryKeys.png" width="11px" height="12px" preserveAspectRatio="xMinYMin meet" x="20.5" y="-350.7"/>
<text text-anchor="start" x="35.5" y="-340.8" font-family="Helvetica,sans-Serif" font-size="11.00" fill="#000000">id</text>
<polygon fill="none" stroke="#000000" points="193.5,-333.7 193.5,-355.7 254.5,-355.7 254.5,-333.7 193.5,-333.7"/>
<text text-anchor="start" x="196.5" y="-341.4" font-family="Helvetica,sans-Serif" font-size="11.00" fill="#000000">serial[10]</text>
<polygon fill="#ffffff" stroke="transparent" points="15.5,-311.7 15.5,-333.7 193.5,-333.7 193.5,-311.7 15.5,-311.7"/>
<polygon fill="none" stroke="#000000" points="15.5,-311.7 15.5,-333.7 193.5,-333.7 193.5,-311.7 15.5,-311.7"/>
<text text-anchor="start" x="35.5" y="-318.8" font-family="Helvetica,sans-Serif" font-size="11.00" fill="#000000">name</text>
<polygon fill="none" stroke="#000000" points="193.5,-311.7 193.5,-333.7 254.5,-333.7 254.5,-311.7 193.5,-311.7"/>
<text text-anchor="start" x="196.494" y="-319.4" font-family="Helvetica,sans-Serif" font-size="11.00" fill="#000000">varchar[24]</text>
<polygon fill="none" stroke="#000000" points="15.5,-289.7 15.5,-311.7 193.5,-311.7 193.5,-289.7 15.5,-289.7"/>
<text text-anchor="start" x="35.5" y="-296.8" font-family="Helvetica,sans-Serif" font-size="11.00" fill="#000000">zbmin_array</text>
<polygon fill="none" stroke="#000000" points="193.5,-289.7 193.5,-311.7 254.5,-311.7 254.5,-289.7 193.5,-289.7"/>
<text text-anchor="start" x="196.5" y="-297.4" font-family="Helvetica,sans-Serif" font-size="11.00" fill="#000000">_float4[8,8]</text>
<polygon fill="none" stroke="#000000" points="15.5,-267.7 15.5,-289.7 193.5,-289.7 193.5,-267.7 15.5,-267.7"/>
<text text-anchor="start" x="35.5" y="-274.8" font-family="Helvetica,sans-Serif" font-size="11.00" fill="#000000">with_flood_plain</text>
<polygon fill="none" stroke="#000000" points="193.5,-267.7 193.5,-289.7 254.5,-289.7 254.5,-267.7 193.5,-267.7"/>
<text text-anchor="start" x="196.5" y="-275.4" font-family="Helvetica,sans-Serif" font-size="11.00" fill="#000000">bool[1]</text>
<polygon fill="none" stroke="#000000" points="15.5,-245.7 15.5,-267.7 193.5,-267.7 193.5,-245.7 15.5,-245.7"/>
<text text-anchor="start" x="35.5" y="-252.8" font-family="Helvetica,sans-Serif" font-size="11.00" fill="#000000">flood_plain_width</text>
<polygon fill="none" stroke="#000000" points="193.5,-245.7 193.5,-267.7 254.5,-267.7 254.5,-245.7 193.5,-245.7"/>
<text text-anchor="start" x="196.5" y="-253.4" font-family="Helvetica,sans-Serif" font-size="11.00" fill="#000000">float4[8,8]</text>
<polygon fill="none" stroke="#000000" points="15.5,-223.7 15.5,-245.7 193.5,-245.7 193.5,-223.7 15.5,-223.7"/>
<text text-anchor="start" x="35.5" y="-230.8" font-family="Helvetica,sans-Serif" font-size="11.00" fill="#000000">flood_plain_lateral_slope</text>
<polygon fill="none" stroke="#000000" points="193.5,-223.7 193.5,-245.7 254.5,-245.7 254.5,-223.7 193.5,-223.7"/>
<text text-anchor="start" x="196.5" y="-231.4" font-family="Helvetica,sans-Serif" font-size="11.00" fill="#000000">float4[8,8]</text>
<polygon fill="#ffffff" stroke="transparent" points="15.5,-204.7 15.5,-223.7 95.5,-223.7 95.5,-204.7 15.5,-204.7"/>
<polygon fill="none" stroke="#000000" points="15.5,-204.7 15.5,-223.7 95.5,-223.7 95.5,-204.7 15.5,-204.7"/>
<text text-anchor="start" x="18.5" y="-210.8" font-family="Helvetica,sans-Serif" font-size="11.00" fill="#000000">&lt; 0</text>
<polygon fill="#ffffff" stroke="transparent" points="95.5,-204.7 95.5,-223.7 193.5,-223.7 193.5,-204.7 95.5,-204.7"/>
<polygon fill="none" stroke="#000000" points="95.5,-204.7 95.5,-223.7 193.5,-223.7 193.5,-204.7 95.5,-204.7"/>
<text text-anchor="start" x="158.1105" y="-210.8" font-family="Helvetica,sans-Serif" font-size="11.00" fill="#000000">0 rows</text>
<polygon fill="#ffffff" stroke="transparent" points="193.5,-204.7 193.5,-223.7 254.5,-223.7 254.5,-204.7 193.5,-204.7"/>
<polygon fill="none" stroke="#000000" points="193.5,-204.7 193.5,-223.7 254.5,-223.7 254.5,-204.7 193.5,-204.7"/>
<text text-anchor="start" x="235.9053" y="-210.8" font-family="Helvetica,sans-Serif" font-size="11.00" fill="#000000">3 &gt;</text>
<polygon fill="none" stroke="#000000" stroke-width="2" points="14,-203.7 14,-379.7 255,-379.7 255,-203.7 14,-203.7"/>
</a>
</g>
</g>
<!-- _pipe_link&#45;&gt;open_parametric_geometry -->
<g id="edge5" class="edge">
<title>_pipe_link:w&#45;&gt;open_parametric_geometry:e</title>
<path fill="none" stroke="#000000" d="M322.2762,-547.8015C251.0126,-527.135 347.1496,-344.7 254.5,-344.7"/>
<polygon fill="#000000" stroke="#000000" points="329.0657,-548.6769 336.5396,-553.2704 333.0328,-549.1884 337,-549.7 337,-549.7 337,-549.7 333.0328,-549.1884 337.4604,-546.1296 329.0657,-548.6769 329.0657,-548.6769"/>
<ellipse fill="none" stroke="#000000" cx="325.892" cy="-548.2676" rx="3.2" ry="3.2"/>
</g>
<!-- _river_cross_section_profile -->
<g id="node6" class="node">
<title>_river_cross_section_profile</title>
<g id="a_node6"><a xlink:href="../../tables/_river_cross_section_profile.html" xlink:title="_river_cross_section_profile" target="_top">
<polygon fill="#ffffff" stroke="transparent" points="310,-164.2 310,-445.2 512,-445.2 512,-164.2 310,-164.2"/>
<polygon fill="#f5f5f5" stroke="transparent" points="310,-421.7 310,-444.7 512,-444.7 512,-421.7 310,-421.7"/>
<polygon fill="none" stroke="#000000" points="310,-421.7 310,-444.7 512,-444.7 512,-421.7 310,-421.7"/>
<text text-anchor="start" x="315" y="-430.3" font-family="Helvetica,sans-Serif" font-weight="bold" font-size="11.00" fill="#000000">_river_cross_section_profile</text>
<text text-anchor="start" x="477.5219" y="-429.8" font-family="Helvetica,sans-Serif" font-size="11.00" fill="#000000">[table]</text>
<polygon fill="#ffffff" stroke="transparent" points="310,-399.7 310,-421.7 512,-421.7 512,-399.7 310,-399.7"/>
<polygon fill="none" stroke="#000000" points="310,-399.7 310,-421.7 512,-421.7 512,-399.7 310,-399.7"/>
<image xlink:href="../../images/foreignKeys.png" width="11px" height="12px" preserveAspectRatio="xMinYMin meet" x="315" y="-416.7"/>
<text text-anchor="start" x="338" y="-406.8" font-family="Helvetica,sans-Serif" font-size="11.00" fill="#000000">id</text>
<polygon fill="#ffffff" stroke="transparent" points="310,-377.7 310,-399.7 512,-399.7 512,-377.7 310,-377.7"/>
<polygon fill="none" stroke="#000000" points="310,-377.7 310,-399.7 512,-399.7 512,-377.7 310,-377.7"/>
<text text-anchor="start" x="338" y="-384.8" font-family="Helvetica,sans-Serif" font-size="11.00" fill="#000000">name</text>
<polygon fill="none" stroke="#000000" points="310,-355.7 310,-377.7 512,-377.7 512,-355.7 310,-355.7"/>
<image xlink:href="../../images/foreignKeys.png" width="11px" height="12px" preserveAspectRatio="xMinYMin meet" x="315" y="-372.7"/>
<text text-anchor="start" x="338" y="-362.8" font-family="Helvetica,sans-Serif" font-size="11.00" fill="#000000">up_cp_geom</text>
<polygon fill="none" stroke="#000000" points="310,-333.7 310,-355.7 512,-355.7 512,-333.7 310,-333.7"/>
<image xlink:href="../../images/foreignKeys.png" width="11px" height="12px" preserveAspectRatio="xMinYMin meet" x="315" y="-350.7"/>
<text text-anchor="start" x="338" y="-340.8" font-family="Helvetica,sans-Serif" font-size="11.00" fill="#000000">up_op_geom</text>
<polygon fill="none" stroke="#000000" points="310,-311.7 310,-333.7 512,-333.7 512,-311.7 310,-311.7"/>
<image xlink:href="../../images/foreignKeys.png" width="11px" height="12px" preserveAspectRatio="xMinYMin meet" x="315" y="-328.7"/>
<text text-anchor="start" x="338" y="-318.8" font-family="Helvetica,sans-Serif" font-size="11.00" fill="#000000">up_vcs_geom</text>
<polygon fill="none" stroke="#000000" points="310,-289.7 310,-311.7 512,-311.7 512,-289.7 310,-289.7"/>
<image xlink:href="../../images/foreignKeys.png" width="11px" height="12px" preserveAspectRatio="xMinYMin meet" x="315" y="-306.7"/>
<text text-anchor="start" x="338" y="-296.8" font-family="Helvetica,sans-Serif" font-size="11.00" fill="#000000">up_vcs_topo_geom</text>
<polygon fill="none" stroke="#000000" points="310,-267.7 310,-289.7 512,-289.7 512,-267.7 310,-267.7"/>
<image xlink:href="../../images/foreignKeys.png" width="11px" height="12px" preserveAspectRatio="xMinYMin meet" x="315" y="-284.7"/>
<text text-anchor="start" x="338" y="-274.8" font-family="Helvetica,sans-Serif" font-size="11.00" fill="#000000">down_cp_geom</text>
<polygon fill="none" stroke="#000000" points="310,-245.7 310,-267.7 512,-267.7 512,-245.7 310,-245.7"/>
<image xlink:href="../../images/foreignKeys.png" width="11px" height="12px" preserveAspectRatio="xMinYMin meet" x="315" y="-262.7"/>
<text text-anchor="start" x="338" y="-252.8" font-family="Helvetica,sans-Serif" font-size="11.00" fill="#000000">down_op_geom</text>
<polygon fill="none" stroke="#000000" points="310,-223.7 310,-245.7 512,-245.7 512,-223.7 310,-223.7"/>
<image xlink:href="../../images/foreignKeys.png" width="11px" height="12px" preserveAspectRatio="xMinYMin meet" x="315" y="-240.7"/>
<text text-anchor="start" x="338" y="-230.8" font-family="Helvetica,sans-Serif" font-size="11.00" fill="#000000">down_vcs_geom</text>
<polygon fill="none" stroke="#000000" points="310,-201.7 310,-223.7 512,-223.7 512,-201.7 310,-201.7"/>
<image xlink:href="../../images/foreignKeys.png" width="11px" height="12px" preserveAspectRatio="xMinYMin meet" x="315" y="-218.7"/>
<text text-anchor="start" x="338" y="-208.8" font-family="Helvetica,sans-Serif" font-size="11.00" fill="#000000">down_vcs_topo_geom</text>
<polygon fill="none" stroke="#000000" points="310,-182.7 310,-201.7 512,-201.7 512,-182.7 310,-182.7"/>
<text text-anchor="start" x="313" y="-188.8" font-family="Helvetica,sans-Serif" font-size="11.00" fill="#000000">...</text>
<polygon fill="#ffffff" stroke="transparent" points="310,-163.7 310,-182.7 396,-182.7 396,-163.7 310,-163.7"/>
<polygon fill="none" stroke="#000000" points="310,-163.7 310,-182.7 396,-182.7 396,-163.7 310,-163.7"/>
<text text-anchor="start" x="313" y="-169.8" font-family="Helvetica,sans-Serif" font-size="11.00" fill="#000000">&lt; 9</text>
<polygon fill="#ffffff" stroke="transparent" points="396,-163.7 396,-182.7 467,-182.7 467,-163.7 396,-163.7"/>
<polygon fill="none" stroke="#000000" points="396,-163.7 396,-182.7 467,-182.7 467,-163.7 396,-163.7"/>
<text text-anchor="start" x="431.6105" y="-169.8" font-family="Helvetica,sans-Serif" font-size="11.00" fill="#000000">0 rows</text>
<polygon fill="#ffffff" stroke="transparent" points="467,-163.7 467,-182.7 512,-182.7 512,-163.7 467,-163.7"/>
<polygon fill="none" stroke="#000000" points="467,-163.7 467,-182.7 512,-182.7 512,-163.7 467,-163.7"/>
<text text-anchor="start" x="502.8862" y="-169.8" font-family="Helvetica,sans-Serif" font-size="11.00" fill="#000000"> &#160;</text>
</a>
</g>
</g>
<!-- _river_cross_section_profile&#45;&gt;closed_parametric_geometry -->
<g id="edge6" class="edge">
<title>_river_cross_section_profile:w&#45;&gt;closed_parametric_geometry:e</title>
<path fill="none" stroke="#000000" d="M295.7935,-281.0718C246.0627,-300.2823 306.4205,-429.7 237.5,-429.7"/>
<polygon fill="#000000" stroke="#000000" points="302.1092,-280.0175 310.5929,-282.2509 306.0546,-279.3587 310,-278.7 310,-278.7 310,-278.7 306.0546,-279.3587 309.4071,-275.1491 302.1092,-280.0175 302.1092,-280.0175"/>
<ellipse fill="none" stroke="#000000" cx="298.9529" cy="-280.5444" rx="3.2" ry="3.2"/>
</g>
<!-- _river_cross_section_profile&#45;&gt;closed_parametric_geometry -->
<g id="edge11" class="edge">
<title>_river_cross_section_profile:w&#45;&gt;closed_parametric_geometry:e</title>
<path fill="none" stroke="#000000" d="M295.6714,-369.7386C269.752,-382.3231 274.5186,-429.7 237.5,-429.7"/>
<polygon fill="#000000" stroke="#000000" points="302.174,-368.3597 310.7469,-370.2217 306.087,-367.5298 310,-366.7 310,-366.7 310,-366.7 306.087,-367.5298 309.2531,-363.1783 302.174,-368.3597 302.174,-368.3597"/>
<ellipse fill="none" stroke="#000000" cx="299.0437" cy="-369.0235" rx="3.2" ry="3.2"/>
</g>
<!-- _river_cross_section_profile&#45;&gt;open_parametric_geometry -->
<g id="edge7" class="edge">
<title>_river_cross_section_profile:w&#45;&gt;open_parametric_geometry:e</title>
<path fill="none" stroke="#000000" d="M295.9102,-260.7098C271.9111,-277.9252 294.7792,-344.7 254.5,-344.7"/>
<polygon fill="#000000" stroke="#000000" points="302.3055,-258.8898 310.9854,-260.1625 306.1528,-257.7949 310,-256.7 310,-256.7 310,-256.7 306.1528,-257.7949 309.0146,-253.2375 302.3055,-258.8898 302.3055,-258.8898"/>
<ellipse fill="none" stroke="#000000" cx="299.2277" cy="-259.7658" rx="3.2" ry="3.2"/>
</g>
<!-- _river_cross_section_profile&#45;&gt;open_parametric_geometry -->
<g id="edge12" class="edge">
<title>_river_cross_section_profile:w&#45;&gt;open_parametric_geometry:e</title>
<path fill="none" stroke="#000000" d="M295.2286,-344.7C281.4265,-344.7 273.3854,-344.7 254.5,-344.7"/>
<polygon fill="#000000" stroke="#000000" points="302,-344.7001 310,-348.3 306,-344.7 310,-344.7 310,-344.7 310,-344.7 306,-344.7 310,-341.1 302,-344.7001 302,-344.7001"/>
<ellipse fill="none" stroke="#000000" cx="298.8" cy="-344.7001" rx="3.2" ry="3.2"/>
</g>
<!-- valley_cross_section_geometry -->
<g id="node7" class="node">
<title>valley_cross_section_geometry</title>
<g id="a_node7"><a xlink:href="../../tables/valley_cross_section_geometry.html" xlink:title="valley_cross_section_geometry" target="_top">
<polygon fill="#ffffff" stroke="transparent" points="24.5,-120.2 24.5,-181.2 244.5,-181.2 244.5,-120.2 24.5,-120.2"/>
<polygon fill="#f5f5f5" stroke="transparent" points="24.5,-157.7 24.5,-180.7 244.5,-180.7 244.5,-157.7 24.5,-157.7"/>
<polygon fill="none" stroke="#000000" points="24.5,-157.7 24.5,-180.7 244.5,-180.7 244.5,-157.7 24.5,-157.7"/>
<text text-anchor="start" x="29.5" y="-166.3" font-family="Helvetica,sans-Serif" font-weight="bold" font-size="11.00" fill="#000000">valley_cross_section_geometry</text>
<text text-anchor="start" x="210.0219" y="-165.8" font-family="Helvetica,sans-Serif" font-size="11.00" fill="#000000">[table]</text>
<polygon fill="none" stroke="#000000" points="24.5,-138.7 24.5,-157.7 244.5,-157.7 244.5,-138.7 24.5,-138.7"/>
<text text-anchor="start" x="27.5" y="-144.8" font-family="Helvetica,sans-Serif" font-size="11.00" fill="#000000">...</text>
<polygon fill="#ffffff" stroke="transparent" points="24.5,-119.7 24.5,-138.7 115.5,-138.7 115.5,-119.7 24.5,-119.7"/>
<polygon fill="none" stroke="#000000" points="24.5,-119.7 24.5,-138.7 115.5,-138.7 115.5,-119.7 24.5,-119.7"/>
<text text-anchor="start" x="27.5" y="-125.8" font-family="Helvetica,sans-Serif" font-size="11.00" fill="#000000">&lt; 1</text>
<polygon fill="#ffffff" stroke="transparent" points="115.5,-119.7 115.5,-138.7 188.5,-138.7 188.5,-119.7 115.5,-119.7"/>
<polygon fill="none" stroke="#000000" points="115.5,-119.7 115.5,-138.7 188.5,-138.7 188.5,-119.7 115.5,-119.7"/>
<text text-anchor="start" x="153.1105" y="-125.8" font-family="Helvetica,sans-Serif" font-size="11.00" fill="#000000">0 rows</text>
<polygon fill="#ffffff" stroke="transparent" points="188.5,-119.7 188.5,-138.7 244.5,-138.7 244.5,-119.7 188.5,-119.7"/>
<polygon fill="none" stroke="#000000" points="188.5,-119.7 188.5,-138.7 244.5,-138.7 244.5,-119.7 188.5,-119.7"/>
<text text-anchor="start" x="225.9053" y="-125.8" font-family="Helvetica,sans-Serif" font-size="11.00" fill="#000000">2 &gt;</text>
</a>
</g>
</g>
<!-- _river_cross_section_profile&#45;&gt;valley_cross_section_geometry -->
<g id="edge8" class="edge">
<title>_river_cross_section_profile:w&#45;&gt;valley_cross_section_geometry:e</title>
<path fill="none" stroke="#000000" d="M295.6402,-231.1817C268.0117,-214.9054 287.0391,-147.7 244.5,-147.7"/>
<polygon fill="#000000" stroke="#000000" points="302.2298,-232.7962 309.1433,-238.1966 306.1149,-233.7481 310,-234.7 310,-234.7 310,-234.7 306.1149,-233.7481 310.8567,-231.2034 302.2298,-232.7962 302.2298,-232.7962"/>
<ellipse fill="none" stroke="#000000" cx="299.1217" cy="-232.0347" rx="3.2" ry="3.2"/>
</g>
<!-- _river_cross_section_profile&#45;&gt;valley_cross_section_geometry -->
<g id="edge13" class="edge">
<title>_river_cross_section_profile:w&#45;&gt;valley_cross_section_geometry:e</title>
<path fill="none" stroke="#000000" d="M295.426,-320.3585C239.8478,-299.592 321.8702,-147.7 244.5,-147.7"/>
<polygon fill="#000000" stroke="#000000" points="302.1013,-321.4309 309.4289,-326.2544 306.0506,-322.0655 310,-322.7 310,-322.7 310,-322.7 306.0506,-322.0655 310.5711,-319.1456 302.1013,-321.4309 302.1013,-321.4309"/>
<ellipse fill="none" stroke="#000000" cx="298.9418" cy="-320.9233" rx="3.2" ry="3.2"/>
</g>
<!-- valley_cross_section_topo_geometry -->
<g id="node8" class="node">
<title>valley_cross_section_topo_geometry</title>
<g id="a_node8"><a xlink:href="../../tables/valley_cross_section_topo_geometry.html" xlink:title="valley_cross_section_topo_geometry" target="_top">
<polygon fill="#ffffff" stroke="transparent" points="8,-38.2 8,-99.2 261,-99.2 261,-38.2 8,-38.2"/>
<polygon fill="#f5f5f5" stroke="transparent" points="8.5,-75.7 8.5,-98.7 261.5,-98.7 261.5,-75.7 8.5,-75.7"/>
<polygon fill="none" stroke="#000000" points="8.5,-75.7 8.5,-98.7 261.5,-98.7 261.5,-75.7 8.5,-75.7"/>
<text text-anchor="start" x="13.5" y="-84.3" font-family="Helvetica,sans-Serif" font-weight="bold" font-size="11.00" fill="#000000">valley_cross_section_topo_geometry</text>
<text text-anchor="start" x="227.0219" y="-83.8" font-family="Helvetica,sans-Serif" font-size="11.00" fill="#000000">[table]</text>
<polygon fill="none" stroke="#000000" points="8.5,-56.7 8.5,-75.7 261.5,-75.7 261.5,-56.7 8.5,-56.7"/>
<text text-anchor="start" x="11.5" y="-62.8" font-family="Helvetica,sans-Serif" font-size="11.00" fill="#000000">...</text>
<polygon fill="#ffffff" stroke="transparent" points="8.5,-37.7 8.5,-56.7 111.5,-56.7 111.5,-37.7 8.5,-37.7"/>
<polygon fill="none" stroke="#000000" points="8.5,-37.7 8.5,-56.7 111.5,-56.7 111.5,-37.7 8.5,-37.7"/>
<text text-anchor="start" x="11.5" y="-43.8" font-family="Helvetica,sans-Serif" font-size="11.00" fill="#000000"> &#160;</text>
<polygon fill="#ffffff" stroke="transparent" points="111.5,-37.7 111.5,-56.7 194.5,-56.7 194.5,-37.7 111.5,-37.7"/>
<polygon fill="none" stroke="#000000" points="111.5,-37.7 111.5,-56.7 194.5,-56.7 194.5,-37.7 111.5,-37.7"/>
<text text-anchor="start" x="159.1105" y="-43.8" font-family="Helvetica,sans-Serif" font-size="11.00" fill="#000000">0 rows</text>
<polygon fill="#ffffff" stroke="transparent" points="194.5,-37.7 194.5,-56.7 261.5,-56.7 261.5,-37.7 194.5,-37.7"/>
<polygon fill="none" stroke="#000000" points="194.5,-37.7 194.5,-56.7 261.5,-56.7 261.5,-37.7 194.5,-37.7"/>
<text text-anchor="start" x="242.9053" y="-43.8" font-family="Helvetica,sans-Serif" font-size="11.00" fill="#000000">2 &gt;</text>
</a>
</g>
</g>
<!-- _river_cross_section_profile&#45;&gt;valley_cross_section_topo_geometry -->
<g id="edge9" class="edge">
<title>_river_cross_section_profile:w&#45;&gt;valley_cross_section_topo_geometry:e</title>
<path fill="none" stroke="#000000" d="M295.8202,-209.7636C255.054,-189.0454 324.5195,-65.7 261.5,-65.7"/>
<polygon fill="#000000" stroke="#000000" points="302.1662,-211.0777 309.27,-216.2252 306.0831,-211.8889 310,-212.7 310,-212.7 310,-212.7 306.0831,-211.8889 310.73,-209.1748 302.1662,-211.0777 302.1662,-211.0777"/>
<ellipse fill="none" stroke="#000000" cx="299.0327" cy="-210.4288" rx="3.2" ry="3.2"/>
</g>
<!-- _river_cross_section_profile&#45;&gt;valley_cross_section_topo_geometry -->
<g id="edge14" class="edge">
<title>_river_cross_section_profile:w&#45;&gt;valley_cross_section_topo_geometry:e</title>
<path fill="none" stroke="#000000" d="M295.3132,-298.8084C219.9799,-276.5684 362.5217,-65.7 261.5,-65.7"/>
<polygon fill="#000000" stroke="#000000" points="302.0655,-299.678 309.5401,-304.2705 306.0328,-300.189 310,-300.7 310,-300.7 310,-300.7 306.0328,-300.189 310.4599,-297.1295 302.0655,-299.678 302.0655,-299.678"/>
<ellipse fill="none" stroke="#000000" cx="298.8918" cy="-299.2692" rx="3.2" ry="3.2"/>
</g>
<!-- _river_node -->
<g id="node9" class="node">
<title>_river_node</title>
<g id="a_node9"><a xlink:href="../../tables/_river_node.html" xlink:title="_river_node" target="_top">
<polygon fill="#ffffff" stroke="transparent" points="81,-484.2 81,-545.2 188,-545.2 188,-484.2 81,-484.2"/>
<polygon fill="#f5f5f5" stroke="transparent" points="81.5,-521.7 81.5,-544.7 188.5,-544.7 188.5,-521.7 81.5,-521.7"/>
<polygon fill="none" stroke="#000000" points="81.5,-521.7 81.5,-544.7 188.5,-544.7 188.5,-521.7 81.5,-521.7"/>
<text text-anchor="start" x="86.5" y="-530.3" font-family="Helvetica,sans-Serif" font-weight="bold" font-size="11.00" fill="#000000">_river_node</text>
<text text-anchor="start" x="154.0219" y="-529.8" font-family="Helvetica,sans-Serif" font-size="11.00" fill="#000000">[table]</text>
<polygon fill="none" stroke="#000000" points="81.5,-502.7 81.5,-521.7 188.5,-521.7 188.5,-502.7 81.5,-502.7"/>
<text text-anchor="start" x="84.5" y="-508.8" font-family="Helvetica,sans-Serif" font-size="11.00" fill="#000000">...</text>
<polygon fill="#ffffff" stroke="transparent" points="81.5,-483.7 81.5,-502.7 115.5,-502.7 115.5,-483.7 81.5,-483.7"/>
<polygon fill="none" stroke="#000000" points="81.5,-483.7 81.5,-502.7 115.5,-502.7 115.5,-483.7 81.5,-483.7"/>
<text text-anchor="start" x="84.5" y="-489.8" font-family="Helvetica,sans-Serif" font-size="11.00" fill="#000000">&lt; 3</text>
<polygon fill="#ffffff" stroke="transparent" points="115.5,-483.7 115.5,-502.7 160.5,-502.7 160.5,-483.7 115.5,-483.7"/>
<polygon fill="none" stroke="#000000" points="115.5,-483.7 115.5,-502.7 160.5,-502.7 160.5,-483.7 115.5,-483.7"/>
<text text-anchor="start" x="125.1105" y="-489.8" font-family="Helvetica,sans-Serif" font-size="11.00" fill="#000000">0 rows</text>
<polygon fill="#ffffff" stroke="transparent" points="160.5,-483.7 160.5,-502.7 188.5,-502.7 188.5,-483.7 160.5,-483.7"/>
<polygon fill="none" stroke="#000000" points="160.5,-483.7 160.5,-502.7 188.5,-502.7 188.5,-483.7 160.5,-483.7"/>
<text text-anchor="start" x="169.9053" y="-489.8" font-family="Helvetica,sans-Serif" font-size="11.00" fill="#000000">2 &gt;</text>
</a>
</g>
</g>
<!-- _river_cross_section_profile&#45;&gt;_river_node -->
<g id="edge10" class="edge">
<title>_river_cross_section_profile:w&#45;&gt;_river_node:e</title>
<path fill="none" stroke="#000000" d="M299.6792,-412.5062C280.3195,-420.661 291.0254,-454.4813 269,-473.7 239.1894,-499.7118 228.0637,-511.7 188.5,-511.7"/>
<polygon fill="#000000" stroke="#000000" points="308.5224,-406.8978 309.9015,-414.778 308.3255,-415.0539 306.9464,-407.1736 308.5224,-406.8978"/>
<polyline fill="none" stroke="#000000" points="310,-410.7 306.0599,-411.3896 "/>
<ellipse fill="none" stroke="#000000" cx="302.9078" cy="-411.9412" rx="3.2" ry="3.2"/>
</g>
</g>
</svg>
