<?xml version="1.0" encoding="UTF-8" standalone="no"?>
<!DOCTYPE svg PUBLIC "-//W3C//DTD SVG 1.1//EN"
 "http://www.w3.org/Graphics/SVG/1.1/DTD/svg11.dtd">
<!-- Generated by graphviz version 2.40.1 (20161225.0304)
 -->
<!-- Title: oneDegreeRelationshipsDiagram Pages: 1 -->
<svg width="518pt" height="523pt"
 viewBox="0.00 0.00 518.00 523.20" xmlns="http://www.w3.org/2000/svg" xmlns:xlink="http://www.w3.org/1999/xlink">
<g id="graph0" class="graph" transform="scale(1 1) rotate(0) translate(4 519.2)">
<title>oneDegreeRelationshipsDiagram</title>
<polygon fill="#ffffff" stroke="transparent" points="-4,4 -4,-519.2 514,-519.2 514,4 -4,4"/>
<text text-anchor="middle" x="72.4936" y="-7.3" font-family="Helvetica,sans-Serif" font-size="11.00" fill="#000000">Generated by SchemaSpy</text>
<!-- _pipe_link -->
<g id="node1" class="node">
<title>_pipe_link</title>
<g id="a_node1"><a xlink:href="../../tables/_pipe_link.html" xlink:title="_pipe_link" target="_top">
<polygon fill="#ffffff" stroke="transparent" points="326.5,-340.2 326.5,-511.2 475.5,-511.2 475.5,-340.2 326.5,-340.2"/>
<polygon fill="#f5f5f5" stroke="transparent" points="327,-487.7 327,-510.7 476,-510.7 476,-487.7 327,-487.7"/>
<polygon fill="none" stroke="#000000" points="327,-487.7 327,-510.7 476,-510.7 476,-487.7 327,-487.7"/>
<text text-anchor="start" x="332" y="-496.3" font-family="Helvetica,sans-Serif" font-weight="bold" font-size="11.00" fill="#000000">_pipe_link</text>
<text text-anchor="start" x="441.0437" y="-495.8" font-family="Helvetica,sans-Serif" font-size="11.00" fill="#000000">[table]</text>
<polygon fill="#ffffff" stroke="transparent" points="327,-465.7 327,-487.7 476,-487.7 476,-465.7 327,-465.7"/>
<polygon fill="none" stroke="#000000" points="327,-465.7 327,-487.7 476,-487.7 476,-465.7 327,-465.7"/>
<image xlink:href="../../images/foreignKeys.png" width="11px" height="12px" preserveAspectRatio="xMinYMin meet" x="332" y="-482.7"/>
<text text-anchor="start" x="347" y="-472.8" font-family="Helvetica,sans-Serif" font-size="11.00" fill="#000000">id</text>
<polygon fill="none" stroke="#000000" points="327,-443.7 327,-465.7 476,-465.7 476,-443.7 327,-443.7"/>
<image xlink:href="../../images/foreignKeys.png" width="11px" height="12px" preserveAspectRatio="xMinYMin meet" x="332" y="-460.7"/>
<text text-anchor="start" x="347" y="-450.8" font-family="Helvetica,sans-Serif" font-size="11.00" fill="#000000">link_type</text>
<polygon fill="none" stroke="#000000" points="327,-421.7 327,-443.7 476,-443.7 476,-421.7 327,-421.7"/>
<image xlink:href="../../images/foreignKeys.png" width="11px" height="12px" preserveAspectRatio="xMinYMin meet" x="332" y="-438.7"/>
<text text-anchor="start" x="347" y="-428.8" font-family="Helvetica,sans-Serif" font-size="11.00" fill="#000000">branch</text>
<polygon fill="none" stroke="#000000" points="327,-399.7 327,-421.7 476,-421.7 476,-399.7 327,-399.7"/>
<image xlink:href="../../images/foreignKeys.png" width="11px" height="12px" preserveAspectRatio="xMinYMin meet" x="332" y="-416.7"/>
<text text-anchor="start" x="347" y="-406.8" font-family="Helvetica,sans-Serif" font-size="11.00" fill="#000000">cp_geom</text>
<polygon fill="none" stroke="#000000" points="327,-377.7 327,-399.7 476,-399.7 476,-377.7 327,-377.7"/>
<image xlink:href="../../images/foreignKeys.png" width="11px" height="12px" preserveAspectRatio="xMinYMin meet" x="332" y="-394.7"/>
<text text-anchor="start" x="347" y="-384.8" font-family="Helvetica,sans-Serif" font-size="11.00" fill="#000000">op_geom</text>
<polygon fill="none" stroke="#000000" points="327,-358.7 327,-377.7 476,-377.7 476,-358.7 327,-358.7"/>
<text text-anchor="start" x="330" y="-364.8" font-family="Helvetica,sans-Serif" font-size="11.00" fill="#000000">...</text>
<polygon fill="#ffffff" stroke="transparent" points="327,-339.7 327,-358.7 387,-358.7 387,-339.7 327,-339.7"/>
<polygon fill="none" stroke="#000000" points="327,-339.7 327,-358.7 387,-358.7 387,-339.7 327,-339.7"/>
<text text-anchor="start" x="330" y="-345.8" font-family="Helvetica,sans-Serif" font-size="11.00" fill="#000000">&lt; 5</text>
<polygon fill="#ffffff" stroke="transparent" points="387,-339.7 387,-358.7 444,-358.7 444,-339.7 387,-339.7"/>
<polygon fill="none" stroke="#000000" points="387,-339.7 387,-358.7 444,-358.7 444,-339.7 387,-339.7"/>
<text text-anchor="start" x="408.6105" y="-345.8" font-family="Helvetica,sans-Serif" font-size="11.00" fill="#000000">0 rows</text>
<polygon fill="#ffffff" stroke="transparent" points="444,-339.7 444,-358.7 476,-358.7 476,-339.7 444,-339.7"/>
<polygon fill="none" stroke="#000000" points="444,-339.7 444,-358.7 476,-358.7 476,-339.7 444,-339.7"/>
<text text-anchor="start" x="466.8862" y="-345.8" font-family="Helvetica,sans-Serif" font-size="11.00" fill="#000000"> &#160;</text>
</a>
</g>
</g>
<!-- open_parametric_geometry -->
<g id="node2" class="node">
<title>open_parametric_geometry</title>
<g id="a_node2"><a xlink:href="../../tables/open_parametric_geometry.html" xlink:title="open_parametric_geometry" target="_top">
<polygon fill="#ffffff" stroke="transparent" points="8,-76.7 8,-254.7 251,-254.7 251,-76.7 8,-76.7"/>
<polygon fill="#f5f5f5" stroke="transparent" points="10.5,-229.7 10.5,-252.7 249.5,-252.7 249.5,-229.7 10.5,-229.7"/>
<polygon fill="none" stroke="#000000" points="10.5,-229.7 10.5,-252.7 249.5,-252.7 249.5,-229.7 10.5,-229.7"/>
<text text-anchor="start" x="15.5" y="-238.3" font-family="Helvetica,sans-Serif" font-weight="bold" font-size="11.00" fill="#000000">open_parametric_geometry</text>
<text text-anchor="start" x="214.5437" y="-237.8" font-family="Helvetica,sans-Serif" font-size="11.00" fill="#000000">[table]</text>
<polygon fill="none" stroke="#000000" points="10.5,-207.7 10.5,-229.7 188.5,-229.7 188.5,-207.7 10.5,-207.7"/>
<image xlink:href="../../images/primaryKeys.png" width="11px" height="12px" preserveAspectRatio="xMinYMin meet" x="15.5" y="-224.7"/>
<text text-anchor="start" x="30.5" y="-214.8" font-family="Helvetica,sans-Serif" font-size="11.00" fill="#000000">id</text>
<polygon fill="none" stroke="#000000" points="188.5,-207.7 188.5,-229.7 249.5,-229.7 249.5,-207.7 188.5,-207.7"/>
<text text-anchor="start" x="191.5" y="-215.4" font-family="Helvetica,sans-Serif" font-size="11.00" fill="#000000">serial[10]</text>
<polygon fill="#ffffff" stroke="transparent" points="10.5,-185.7 10.5,-207.7 188.5,-207.7 188.5,-185.7 10.5,-185.7"/>
<polygon fill="none" stroke="#000000" points="10.5,-185.7 10.5,-207.7 188.5,-207.7 188.5,-185.7 10.5,-185.7"/>
<text text-anchor="start" x="30.5" y="-192.8" font-family="Helvetica,sans-Serif" font-size="11.00" fill="#000000">name</text>
<polygon fill="none" stroke="#000000" points="188.5,-185.7 188.5,-207.7 249.5,-207.7 249.5,-185.7 188.5,-185.7"/>
<text text-anchor="start" x="191.494" y="-193.4" font-family="Helvetica,sans-Serif" font-size="11.00" fill="#000000">varchar[24]</text>
<polygon fill="none" stroke="#000000" points="10.5,-163.7 10.5,-185.7 188.5,-185.7 188.5,-163.7 10.5,-163.7"/>
<text text-anchor="start" x="30.5" y="-170.8" font-family="Helvetica,sans-Serif" font-size="11.00" fill="#000000">zbmin_array</text>
<polygon fill="none" stroke="#000000" points="188.5,-163.7 188.5,-185.7 249.5,-185.7 249.5,-163.7 188.5,-163.7"/>
<text text-anchor="start" x="191.5" y="-171.4" font-family="Helvetica,sans-Serif" font-size="11.00" fill="#000000">_float4[8,8]</text>
<polygon fill="none" stroke="#000000" points="10.5,-141.7 10.5,-163.7 188.5,-163.7 188.5,-141.7 10.5,-141.7"/>
<text text-anchor="start" x="30.5" y="-148.8" font-family="Helvetica,sans-Serif" font-size="11.00" fill="#000000">with_flood_plain</text>
<polygon fill="none" stroke="#000000" points="188.5,-141.7 188.5,-163.7 249.5,-163.7 249.5,-141.7 188.5,-141.7"/>
<text text-anchor="start" x="191.5" y="-149.4" font-family="Helvetica,sans-Serif" font-size="11.00" fill="#000000">bool[1]</text>
<polygon fill="none" stroke="#000000" points="10.5,-119.7 10.5,-141.7 188.5,-141.7 188.5,-119.7 10.5,-119.7"/>
<text text-anchor="start" x="30.5" y="-126.8" font-family="Helvetica,sans-Serif" font-size="11.00" fill="#000000">flood_plain_width</text>
<polygon fill="none" stroke="#000000" points="188.5,-119.7 188.5,-141.7 249.5,-141.7 249.5,-119.7 188.5,-119.7"/>
<text text-anchor="start" x="191.5" y="-127.4" font-family="Helvetica,sans-Serif" font-size="11.00" fill="#000000">float4[8,8]</text>
<polygon fill="none" stroke="#000000" points="10.5,-97.7 10.5,-119.7 188.5,-119.7 188.5,-97.7 10.5,-97.7"/>
<text text-anchor="start" x="30.5" y="-104.8" font-family="Helvetica,sans-Serif" font-size="11.00" fill="#000000">flood_plain_lateral_slope</text>
<polygon fill="none" stroke="#000000" points="188.5,-97.7 188.5,-119.7 249.5,-119.7 249.5,-97.7 188.5,-97.7"/>
<text text-anchor="start" x="191.5" y="-105.4" font-family="Helvetica,sans-Serif" font-size="11.00" fill="#000000">float4[8,8]</text>
<polygon fill="#ffffff" stroke="transparent" points="10.5,-78.7 10.5,-97.7 90.5,-97.7 90.5,-78.7 10.5,-78.7"/>
<polygon fill="none" stroke="#000000" points="10.5,-78.7 10.5,-97.7 90.5,-97.7 90.5,-78.7 10.5,-78.7"/>
<text text-anchor="start" x="13.5" y="-84.8" font-family="Helvetica,sans-Serif" font-size="11.00" fill="#000000">&lt; 0</text>
<polygon fill="#ffffff" stroke="transparent" points="90.5,-78.7 90.5,-97.7 188.5,-97.7 188.5,-78.7 90.5,-78.7"/>
<polygon fill="none" stroke="#000000" points="90.5,-78.7 90.5,-97.7 188.5,-97.7 188.5,-78.7 90.5,-78.7"/>
<text text-anchor="start" x="153.1105" y="-84.8" font-family="Helvetica,sans-Serif" font-size="11.00" fill="#000000">0 rows</text>
<polygon fill="#ffffff" stroke="transparent" points="188.5,-78.7 188.5,-97.7 249.5,-97.7 249.5,-78.7 188.5,-78.7"/>
<polygon fill="none" stroke="#000000" points="188.5,-78.7 188.5,-97.7 249.5,-97.7 249.5,-78.7 188.5,-78.7"/>
<text text-anchor="start" x="230.9053" y="-84.8" font-family="Helvetica,sans-Serif" font-size="11.00" fill="#000000">3 &gt;</text>
<polygon fill="none" stroke="#000000" stroke-width="2" points="9,-77.7 9,-253.7 250,-253.7 250,-77.7 9,-77.7"/>
</a>
</g>
</g>
<!-- _pipe_link&#45;&gt;open_parametric_geometry -->
<g id="edge1" class="edge">
<title>_pipe_link:w&#45;&gt;open_parametric_geometry:e</title>
<path fill="none" stroke="#000000" d="M312.6273,-386.5506C254.9703,-366.8715 327.0224,-218.7 249.5,-218.7"/>
<polygon fill="#000000" stroke="#000000" points="319.088,-387.5167 326.4675,-392.2604 323.044,-388.1084 327,-388.7 327,-388.7 327,-388.7 323.044,-388.1084 327.5325,-385.1396 319.088,-387.5167 319.088,-387.5167"/>
<ellipse fill="none" stroke="#000000" cx="315.9232" cy="-387.0434" rx="3.2" ry="3.2"/>
</g>
<!-- _river_cross_section_profile -->
<g id="node3" class="node">
<title>_river_cross_section_profile</title>
<g id="a_node3"><a xlink:href="../../tables/_river_cross_section_profile.html" xlink:title="_river_cross_section_profile" target="_top">
<polygon fill="#ffffff" stroke="transparent" points="300,-38.2 300,-319.2 502,-319.2 502,-38.2 300,-38.2"/>
<polygon fill="#f5f5f5" stroke="transparent" points="300,-295.7 300,-318.7 502,-318.7 502,-295.7 300,-295.7"/>
<polygon fill="none" stroke="#000000" points="300,-295.7 300,-318.7 502,-318.7 502,-295.7 300,-295.7"/>
<text text-anchor="start" x="305" y="-304.3" font-family="Helvetica,sans-Serif" font-weight="bold" font-size="11.00" fill="#000000">_river_cross_section_profile</text>
<text text-anchor="start" x="467.5219" y="-303.8" font-family="Helvetica,sans-Serif" font-size="11.00" fill="#000000">[table]</text>
<polygon fill="#ffffff" stroke="transparent" points="300,-273.7 300,-295.7 502,-295.7 502,-273.7 300,-273.7"/>
<polygon fill="none" stroke="#000000" points="300,-273.7 300,-295.7 502,-295.7 502,-273.7 300,-273.7"/>
<image xlink:href="../../images/foreignKeys.png" width="11px" height="12px" preserveAspectRatio="xMinYMin meet" x="305" y="-290.7"/>
<text text-anchor="start" x="328" y="-280.8" font-family="Helvetica,sans-Serif" font-size="11.00" fill="#000000">id</text>
<polygon fill="#ffffff" stroke="transparent" points="300,-251.7 300,-273.7 502,-273.7 502,-251.7 300,-251.7"/>
<polygon fill="none" stroke="#000000" points="300,-251.7 300,-273.7 502,-273.7 502,-251.7 300,-251.7"/>
<text text-anchor="start" x="328" y="-258.8" font-family="Helvetica,sans-Serif" font-size="11.00" fill="#000000">name</text>
<polygon fill="none" stroke="#000000" points="300,-229.7 300,-251.7 502,-251.7 502,-229.7 300,-229.7"/>
<image xlink:href="../../images/foreignKeys.png" width="11px" height="12px" preserveAspectRatio="xMinYMin meet" x="305" y="-246.7"/>
<text text-anchor="start" x="328" y="-236.8" font-family="Helvetica,sans-Serif" font-size="11.00" fill="#000000">up_cp_geom</text>
<polygon fill="none" stroke="#000000" points="300,-207.7 300,-229.7 502,-229.7 502,-207.7 300,-207.7"/>
<image xlink:href="../../images/foreignKeys.png" width="11px" height="12px" preserveAspectRatio="xMinYMin meet" x="305" y="-224.7"/>
<text text-anchor="start" x="328" y="-214.8" font-family="Helvetica,sans-Serif" font-size="11.00" fill="#000000">up_op_geom</text>
<polygon fill="none" stroke="#000000" points="300,-185.7 300,-207.7 502,-207.7 502,-185.7 300,-185.7"/>
<image xlink:href="../../images/foreignKeys.png" width="11px" height="12px" preserveAspectRatio="xMinYMin meet" x="305" y="-202.7"/>
<text text-anchor="start" x="328" y="-192.8" font-family="Helvetica,sans-Serif" font-size="11.00" fill="#000000">up_vcs_geom</text>
<polygon fill="none" stroke="#000000" points="300,-163.7 300,-185.7 502,-185.7 502,-163.7 300,-163.7"/>
<image xlink:href="../../images/foreignKeys.png" width="11px" height="12px" preserveAspectRatio="xMinYMin meet" x="305" y="-180.7"/>
<text text-anchor="start" x="328" y="-170.8" font-family="Helvetica,sans-Serif" font-size="11.00" fill="#000000">up_vcs_topo_geom</text>
<polygon fill="none" stroke="#000000" points="300,-141.7 300,-163.7 502,-163.7 502,-141.7 300,-141.7"/>
<image xlink:href="../../images/foreignKeys.png" width="11px" height="12px" preserveAspectRatio="xMinYMin meet" x="305" y="-158.7"/>
<text text-anchor="start" x="328" y="-148.8" font-family="Helvetica,sans-Serif" font-size="11.00" fill="#000000">down_cp_geom</text>
<polygon fill="none" stroke="#000000" points="300,-119.7 300,-141.7 502,-141.7 502,-119.7 300,-119.7"/>
<image xlink:href="../../images/foreignKeys.png" width="11px" height="12px" preserveAspectRatio="xMinYMin meet" x="305" y="-136.7"/>
<text text-anchor="start" x="328" y="-126.8" font-family="Helvetica,sans-Serif" font-size="11.00" fill="#000000">down_op_geom</text>
<polygon fill="none" stroke="#000000" points="300,-97.7 300,-119.7 502,-119.7 502,-97.7 300,-97.7"/>
<image xlink:href="../../images/foreignKeys.png" width="11px" height="12px" preserveAspectRatio="xMinYMin meet" x="305" y="-114.7"/>
<text text-anchor="start" x="328" y="-104.8" font-family="Helvetica,sans-Serif" font-size="11.00" fill="#000000">down_vcs_geom</text>
<polygon fill="none" stroke="#000000" points="300,-75.7 300,-97.7 502,-97.7 502,-75.7 300,-75.7"/>
<image xlink:href="../../images/foreignKeys.png" width="11px" height="12px" preserveAspectRatio="xMinYMin meet" x="305" y="-92.7"/>
<text text-anchor="start" x="328" y="-82.8" font-family="Helvetica,sans-Serif" font-size="11.00" fill="#000000">down_vcs_topo_geom</text>
<polygon fill="none" stroke="#000000" points="300,-56.7 300,-75.7 502,-75.7 502,-56.7 300,-56.7"/>
<text text-anchor="start" x="303" y="-62.8" font-family="Helvetica,sans-Serif" font-size="11.00" fill="#000000">...</text>
<polygon fill="#ffffff" stroke="transparent" points="300,-37.7 300,-56.7 386,-56.7 386,-37.7 300,-37.7"/>
<polygon fill="none" stroke="#000000" points="300,-37.7 300,-56.7 386,-56.7 386,-37.7 300,-37.7"/>
<text text-anchor="start" x="303" y="-43.8" font-family="Helvetica,sans-Serif" font-size="11.00" fill="#000000">&lt; 9</text>
<polygon fill="#ffffff" stroke="transparent" points="386,-37.7 386,-56.7 457,-56.7 457,-37.7 386,-37.7"/>
<polygon fill="none" stroke="#000000" points="386,-37.7 386,-56.7 457,-56.7 457,-37.7 386,-37.7"/>
<text text-anchor="start" x="421.6105" y="-43.8" font-family="Helvetica,sans-Serif" font-size="11.00" fill="#000000">0 rows</text>
<polygon fill="#ffffff" stroke="transparent" points="457,-37.7 457,-56.7 502,-56.7 502,-37.7 457,-37.7"/>
<polygon fill="none" stroke="#000000" points="457,-37.7 457,-56.7 502,-56.7 502,-37.7 457,-37.7"/>
<text text-anchor="start" x="492.8862" y="-43.8" font-family="Helvetica,sans-Serif" font-size="11.00" fill="#000000"> &#160;</text>
</a>
</g>
</g>
<!-- _river_cross_section_profile&#45;&gt;open_parametric_geometry -->
<g id="edge2" class="edge">
<title>_river_cross_section_profile:w&#45;&gt;open_parametric_geometry:e</title>
<path fill="none" stroke="#000000" d="M286.1222,-134.9444C263.9529,-152.5228 288.6046,-218.7 249.5,-218.7"/>
<polygon fill="#000000" stroke="#000000" points="292.3498,-133.0398 301.0529,-134.1426 296.1749,-131.8699 300,-130.7 300,-130.7 300,-130.7 296.1749,-131.8699 298.9471,-127.2574 292.3498,-133.0398 292.3498,-133.0398"/>
<ellipse fill="none" stroke="#000000" cx="289.2897" cy="-133.9757" rx="3.2" ry="3.2"/>
</g>
<!-- _river_cross_section_profile&#45;&gt;open_parametric_geometry -->
<g id="edge3" class="edge">
<title>_river_cross_section_profile:w&#45;&gt;open_parametric_geometry:e</title>
<path fill="none" stroke="#000000" d="M285.4203,-218.7C273.5435,-218.7 266.158,-218.7 249.5,-218.7"/>
<polygon fill="#000000" stroke="#000000" points="292,-218.7001 300,-222.3 296,-218.7 300,-218.7 300,-218.7 300,-218.7 296,-218.7 300,-215.1 292,-218.7001 292,-218.7001"/>
<ellipse fill="none" stroke="#000000" cx="288.8" cy="-218.7001" rx="3.2" ry="3.2"/>
</g>
</g>
</svg>
