<?xml version="1.0" encoding="UTF-8" standalone="no"?>
<!DOCTYPE svg PUBLIC "-//W3C//DTD SVG 1.1//EN"
 "http://www.w3.org/Graphics/SVG/1.1/DTD/svg11.dtd">
<!-- Generated by graphviz version 2.40.1 (20161225.0304)
 -->
<!-- Title: oneDegreeRelationshipsDiagram Pages: 1 -->
<svg width="235pt" height="143pt"
 viewBox="0.00 0.00 235.00 143.20" xmlns="http://www.w3.org/2000/svg" xmlns:xlink="http://www.w3.org/1999/xlink">
<g id="graph0" class="graph" transform="scale(1 1) rotate(0) translate(4 139.2)">
<title>oneDegreeRelationshipsDiagram</title>
<polygon fill="#ffffff" stroke="transparent" points="-4,4 -4,-139.2 231,-139.2 231,4 -4,4"/>
<text text-anchor="middle" x="72.4936" y="-7.3" font-family="Helvetica,sans-Serif" font-size="11.00" fill="#000000">Generated by SchemaSpy</text>
<!-- open_reach -->
<g id="node1" class="node">
<title>open_reach</title>
<g id="a_node1"><a xlink:href="../../tables/open_reach.html" xlink:title="open_reach" target="_top">
<polygon fill="#ffffff" stroke="transparent" points="8,-38.2 8,-131.2 219,-131.2 219,-38.2 8,-38.2"/>
<polygon fill="#f5f5f5" stroke="transparent" points="10.5,-105.7 10.5,-128.7 217.5,-128.7 217.5,-105.7 10.5,-105.7"/>
<polygon fill="none" stroke="#000000" points="10.5,-105.7 10.5,-128.7 217.5,-128.7 217.5,-105.7 10.5,-105.7"/>
<text text-anchor="start" x="15.5" y="-114.3" font-family="Helvetica,sans-Serif" font-weight="bold" font-size="11.00" fill="#000000">open_reach</text>
<text text-anchor="start" x="184.3895" y="-113.8" font-family="Helvetica,sans-Serif" font-size="11.00" fill="#000000">[view]</text>
<polygon fill="none" stroke="#000000" points="10.5,-83.7 10.5,-105.7 98.5,-105.7 98.5,-83.7 10.5,-83.7"/>
<text text-anchor="start" x="30.5" y="-90.8" font-family="Helvetica,sans-Serif" font-size="11.00" fill="#000000">id</text>
<polygon fill="none" stroke="#000000" points="98.5,-83.7 98.5,-105.7 217.5,-105.7 217.5,-83.7 98.5,-83.7"/>
<text text-anchor="start" x="101.5" y="-91.4" font-family="Helvetica,sans-Serif" font-size="11.00" fill="#000000">int8[19]</text>
<polygon fill="none" stroke="#000000" points="10.5,-61.7 10.5,-83.7 98.5,-83.7 98.5,-61.7 10.5,-61.7"/>
<text text-anchor="start" x="30.5" y="-68.8" font-family="Helvetica,sans-Serif" font-size="11.00" fill="#000000">geom</text>
<polygon fill="none" stroke="#000000" points="98.5,-61.7 98.5,-83.7 217.5,-83.7 217.5,-61.7 98.5,-61.7"/>
<text text-anchor="start" x="101.4485" y="-69.4" font-family="Helvetica,sans-Serif" font-size="11.00" fill="#000000">geometry[2147483647]</text>
<polygon fill="none" stroke="#000000" points="10.5,-39.7 10.5,-61.7 98.5,-61.7 98.5,-39.7 10.5,-39.7"/>
<text text-anchor="start" x="30.5" y="-46.8" font-family="Helvetica,sans-Serif" font-size="11.00" fill="#000000">reach</text>
<polygon fill="none" stroke="#000000" points="98.5,-39.7 98.5,-61.7 217.5,-61.7 217.5,-39.7 98.5,-39.7"/>
<text text-anchor="start" x="101.5" y="-47.4" font-family="Helvetica,sans-Serif" font-size="11.00" fill="#000000">int4[10]</text>
<polygon fill="none" stroke="#000000" stroke-width="2" points="9,-39.2 9,-130.2 218,-130.2 218,-39.2 9,-39.2"/>
</a>
</g>
</g>
</g>
</svg>
