<?xml version="1.0" encoding="UTF-8" standalone="no"?>
<!DOCTYPE svg PUBLIC "-//W3C//DTD SVG 1.1//EN"
 "http://www.w3.org/Graphics/SVG/1.1/DTD/svg11.dtd">
<!-- Generated by graphviz version 2.40.1 (20161225.0304)
 -->
<!-- Title: oneDegreeRelationshipsDiagram Pages: 1 -->
<svg width="426pt" height="649pt"
 viewBox="0.00 0.00 426.00 649.20" xmlns="http://www.w3.org/2000/svg" xmlns:xlink="http://www.w3.org/1999/xlink">
<g id="graph0" class="graph" transform="scale(1 1) rotate(0) translate(4 645.2)">
<title>oneDegreeRelationshipsDiagram</title>
<polygon fill="#ffffff" stroke="transparent" points="-4,4 -4,-645.2 422,-645.2 422,4 -4,4"/>
<text text-anchor="middle" x="72.4936" y="-7.3" font-family="Helvetica,sans-Serif" font-size="11.00" fill="#000000">Generated by SchemaSpy</text>
<!-- overflow_link -->
<g id="node1" class="node">
<title>overflow_link</title>
<g id="a_node1"><a xlink:href="../../tables/overflow_link.html" xlink:title="overflow_link" target="_top">
<polygon fill="#ffffff" stroke="transparent" points="8,-38.2 8,-637.2 410,-637.2 410,-38.2 8,-38.2"/>
<polygon fill="#f5f5f5" stroke="transparent" points="10,-611.7 10,-634.7 408,-634.7 408,-611.7 10,-611.7"/>
<polygon fill="none" stroke="#000000" points="10,-611.7 10,-634.7 408,-634.7 408,-611.7 10,-611.7"/>
<text text-anchor="start" x="15" y="-620.3" font-family="Helvetica,sans-Serif" font-weight="bold" font-size="11.00" fill="#000000">overflow_link</text>
<text text-anchor="start" x="374.8895" y="-619.8" font-family="Helvetica,sans-Serif" font-size="11.00" fill="#000000">[view]</text>
<polygon fill="none" stroke="#000000" points="10,-589.7 10,-611.7 169,-611.7 169,-589.7 10,-589.7"/>
<text text-anchor="start" x="30" y="-596.8" font-family="Helvetica,sans-Serif" font-size="11.00" fill="#000000">id</text>
<polygon fill="none" stroke="#000000" points="169,-589.7 169,-611.7 408,-611.7 408,-589.7 169,-589.7"/>
<text text-anchor="start" x="172" y="-597.4" font-family="Helvetica,sans-Serif" font-size="11.00" fill="#000000">int4[10]</text>
<polygon fill="none" stroke="#000000" points="10,-567.7 10,-589.7 169,-589.7 169,-567.7 10,-567.7"/>
<text text-anchor="start" x="30" y="-574.8" font-family="Helvetica,sans-Serif" font-size="11.00" fill="#000000">name</text>
<polygon fill="none" stroke="#000000" points="169,-567.7 169,-589.7 408,-589.7 408,-567.7 169,-567.7"/>
<text text-anchor="start" x="172" y="-575.4" font-family="Helvetica,sans-Serif" font-size="11.00" fill="#000000">varchar[24]</text>
<polygon fill="none" stroke="#000000" points="10,-545.7 10,-567.7 169,-567.7 169,-545.7 10,-545.7"/>
<text text-anchor="start" x="30" y="-552.8" font-family="Helvetica,sans-Serif" font-size="11.00" fill="#000000">up</text>
<polygon fill="none" stroke="#000000" points="169,-545.7 169,-567.7 408,-567.7 408,-545.7 169,-545.7"/>
<text text-anchor="start" x="172" y="-553.4" font-family="Helvetica,sans-Serif" font-size="11.00" fill="#000000">int4[10]</text>
<polygon fill="none" stroke="#000000" points="10,-523.7 10,-545.7 169,-545.7 169,-523.7 10,-523.7"/>
<text text-anchor="start" x="30" y="-530.8" font-family="Helvetica,sans-Serif" font-size="11.00" fill="#000000">down</text>
<polygon fill="none" stroke="#000000" points="169,-523.7 169,-545.7 408,-545.7 408,-523.7 169,-523.7"/>
<text text-anchor="start" x="172" y="-531.4" font-family="Helvetica,sans-Serif" font-size="11.00" fill="#000000">int4[10]</text>
<polygon fill="none" stroke="#000000" points="10,-501.7 10,-523.7 169,-523.7 169,-501.7 10,-501.7"/>
<text text-anchor="start" x="30" y="-508.8" font-family="Helvetica,sans-Serif" font-size="11.00" fill="#000000">z_crest1</text>
<polygon fill="none" stroke="#000000" points="169,-501.7 169,-523.7 408,-523.7 408,-501.7 169,-501.7"/>
<text text-anchor="start" x="172" y="-509.4" font-family="Helvetica,sans-Serif" font-size="11.00" fill="#000000">float4[8,8]</text>
<polygon fill="none" stroke="#000000" points="10,-479.7 10,-501.7 169,-501.7 169,-479.7 10,-479.7"/>
<text text-anchor="start" x="30" y="-486.8" font-family="Helvetica,sans-Serif" font-size="11.00" fill="#000000">width1</text>
<polygon fill="none" stroke="#000000" points="169,-479.7 169,-501.7 408,-501.7 408,-479.7 169,-479.7"/>
<text text-anchor="start" x="172" y="-487.4" font-family="Helvetica,sans-Serif" font-size="11.00" fill="#000000">float4[8,8]</text>
<polygon fill="none" stroke="#000000" points="10,-457.7 10,-479.7 169,-479.7 169,-457.7 10,-457.7"/>
<text text-anchor="start" x="30" y="-464.8" font-family="Helvetica,sans-Serif" font-size="11.00" fill="#000000">z_crest2</text>
<polygon fill="none" stroke="#000000" points="169,-457.7 169,-479.7 408,-479.7 408,-457.7 169,-457.7"/>
<text text-anchor="start" x="172" y="-465.4" font-family="Helvetica,sans-Serif" font-size="11.00" fill="#000000">float4[8,8]</text>
<polygon fill="none" stroke="#000000" points="10,-435.7 10,-457.7 169,-457.7 169,-435.7 10,-435.7"/>
<text text-anchor="start" x="30" y="-442.8" font-family="Helvetica,sans-Serif" font-size="11.00" fill="#000000">width2</text>
<polygon fill="none" stroke="#000000" points="169,-435.7 169,-457.7 408,-457.7 408,-435.7 169,-435.7"/>
<text text-anchor="start" x="172" y="-443.4" font-family="Helvetica,sans-Serif" font-size="11.00" fill="#000000">float4[8,8]</text>
<polygon fill="none" stroke="#000000" points="10,-413.7 10,-435.7 169,-435.7 169,-413.7 10,-413.7"/>
<text text-anchor="start" x="30" y="-420.8" font-family="Helvetica,sans-Serif" font-size="11.00" fill="#000000">cc</text>
<polygon fill="none" stroke="#000000" points="169,-413.7 169,-435.7 408,-435.7 408,-413.7 169,-413.7"/>
<text text-anchor="start" x="172" y="-421.4" font-family="Helvetica,sans-Serif" font-size="11.00" fill="#000000">float4[8,8]</text>
<polygon fill="none" stroke="#000000" points="10,-391.7 10,-413.7 169,-413.7 169,-391.7 10,-391.7"/>
<text text-anchor="start" x="30" y="-398.8" font-family="Helvetica,sans-Serif" font-size="11.00" fill="#000000">lateral_contraction_coef</text>
<polygon fill="none" stroke="#000000" points="169,-391.7 169,-413.7 408,-413.7 408,-391.7 169,-391.7"/>
<text text-anchor="start" x="172" y="-399.4" font-family="Helvetica,sans-Serif" font-size="11.00" fill="#000000">float4[8,8]</text>
<polygon fill="none" stroke="#000000" points="10,-369.7 10,-391.7 169,-391.7 169,-369.7 10,-369.7"/>
<text text-anchor="start" x="30" y="-376.8" font-family="Helvetica,sans-Serif" font-size="11.00" fill="#000000">break_mode</text>
<polygon fill="none" stroke="#000000" points="169,-369.7 169,-391.7 408,-391.7 408,-369.7 169,-369.7"/>
<text text-anchor="start" x="171.7388" y="-377.4" font-family="Helvetica,sans-Serif" font-size="11.00" fill="#000000">hydra_fuse_spillway_break_mode[2147483647]</text>
<polygon fill="none" stroke="#000000" points="10,-347.7 10,-369.7 169,-369.7 169,-347.7 10,-347.7"/>
<text text-anchor="start" x="30" y="-354.8" font-family="Helvetica,sans-Serif" font-size="11.00" fill="#000000">z_break</text>
<polygon fill="none" stroke="#000000" points="169,-347.7 169,-369.7 408,-369.7 408,-347.7 169,-347.7"/>
<text text-anchor="start" x="172" y="-355.4" font-family="Helvetica,sans-Serif" font-size="11.00" fill="#000000">float4[8,8]</text>
<polygon fill="none" stroke="#000000" points="10,-325.7 10,-347.7 169,-347.7 169,-325.7 10,-325.7"/>
<text text-anchor="start" x="30" y="-332.8" font-family="Helvetica,sans-Serif" font-size="11.00" fill="#000000">t_break</text>
<polygon fill="none" stroke="#000000" points="169,-325.7 169,-347.7 408,-347.7 408,-325.7 169,-325.7"/>
<text text-anchor="start" x="172" y="-333.4" font-family="Helvetica,sans-Serif" font-size="11.00" fill="#000000">float4[8,8]</text>
<polygon fill="none" stroke="#000000" points="10,-303.7 10,-325.7 169,-325.7 169,-303.7 10,-303.7"/>
<text text-anchor="start" x="30" y="-310.8" font-family="Helvetica,sans-Serif" font-size="11.00" fill="#000000">z_invert</text>
<polygon fill="none" stroke="#000000" points="169,-303.7 169,-325.7 408,-325.7 408,-303.7 169,-303.7"/>
<text text-anchor="start" x="172" y="-311.4" font-family="Helvetica,sans-Serif" font-size="11.00" fill="#000000">float4[8,8]</text>
<polygon fill="none" stroke="#000000" points="10,-281.7 10,-303.7 169,-303.7 169,-281.7 10,-281.7"/>
<text text-anchor="start" x="30" y="-288.8" font-family="Helvetica,sans-Serif" font-size="11.00" fill="#000000">width_breach</text>
<polygon fill="none" stroke="#000000" points="169,-281.7 169,-303.7 408,-303.7 408,-281.7 169,-281.7"/>
<text text-anchor="start" x="172" y="-289.4" font-family="Helvetica,sans-Serif" font-size="11.00" fill="#000000">float4[8,8]</text>
<polygon fill="none" stroke="#000000" points="10,-259.7 10,-281.7 169,-281.7 169,-259.7 10,-259.7"/>
<text text-anchor="start" x="30" y="-266.8" font-family="Helvetica,sans-Serif" font-size="11.00" fill="#000000">grp</text>
<polygon fill="none" stroke="#000000" points="169,-259.7 169,-281.7 408,-281.7 408,-259.7 169,-259.7"/>
<text text-anchor="start" x="172" y="-267.4" font-family="Helvetica,sans-Serif" font-size="11.00" fill="#000000">int4[10]</text>
<polygon fill="none" stroke="#000000" points="10,-237.7 10,-259.7 169,-259.7 169,-237.7 10,-237.7"/>
<text text-anchor="start" x="30" y="-244.8" font-family="Helvetica,sans-Serif" font-size="11.00" fill="#000000">dt_fracw_array</text>
<polygon fill="none" stroke="#000000" points="169,-237.7 169,-259.7 408,-259.7 408,-237.7 169,-237.7"/>
<text text-anchor="start" x="172" y="-245.4" font-family="Helvetica,sans-Serif" font-size="11.00" fill="#000000">_float4[8,8]</text>
<polygon fill="none" stroke="#000000" points="10,-215.7 10,-237.7 169,-237.7 169,-215.7 10,-215.7"/>
<text text-anchor="start" x="30" y="-222.8" font-family="Helvetica,sans-Serif" font-size="11.00" fill="#000000">border</text>
<polygon fill="none" stroke="#000000" points="169,-215.7 169,-237.7 408,-237.7 408,-215.7 169,-215.7"/>
<text text-anchor="start" x="172" y="-223.4" font-family="Helvetica,sans-Serif" font-size="11.00" fill="#000000">geometry[2147483647]</text>
<polygon fill="none" stroke="#000000" points="10,-193.7 10,-215.7 169,-215.7 169,-193.7 10,-193.7"/>
<text text-anchor="start" x="30" y="-200.8" font-family="Helvetica,sans-Serif" font-size="11.00" fill="#000000">geom</text>
<polygon fill="none" stroke="#000000" points="169,-193.7 169,-215.7 408,-215.7 408,-193.7 169,-193.7"/>
<text text-anchor="start" x="172" y="-201.4" font-family="Helvetica,sans-Serif" font-size="11.00" fill="#000000">geometry[2147483647]</text>
<polygon fill="none" stroke="#000000" points="10,-171.7 10,-193.7 169,-193.7 169,-171.7 10,-171.7"/>
<text text-anchor="start" x="30" y="-178.8" font-family="Helvetica,sans-Serif" font-size="11.00" fill="#000000">configuration</text>
<polygon fill="none" stroke="#000000" points="169,-171.7 169,-193.7 408,-193.7 408,-171.7 169,-171.7"/>
<text text-anchor="start" x="172" y="-179.4" font-family="Helvetica,sans-Serif" font-size="11.00" fill="#000000">varchar[2147483647]</text>
<polygon fill="none" stroke="#000000" points="10,-149.7 10,-171.7 169,-171.7 169,-149.7 10,-149.7"/>
<text text-anchor="start" x="30" y="-156.8" font-family="Helvetica,sans-Serif" font-size="11.00" fill="#000000">generated</text>
<polygon fill="none" stroke="#000000" points="169,-149.7 169,-171.7 408,-171.7 408,-149.7 169,-149.7"/>
<text text-anchor="start" x="172" y="-157.4" font-family="Helvetica,sans-Serif" font-size="11.00" fill="#000000">int4[10]</text>
<polygon fill="none" stroke="#000000" points="10,-127.7 10,-149.7 169,-149.7 169,-127.7 10,-127.7"/>
<text text-anchor="start" x="30" y="-134.8" font-family="Helvetica,sans-Serif" font-size="11.00" fill="#000000">validity</text>
<polygon fill="none" stroke="#000000" points="169,-127.7 169,-149.7 408,-149.7 408,-127.7 169,-127.7"/>
<text text-anchor="start" x="172" y="-135.4" font-family="Helvetica,sans-Serif" font-size="11.00" fill="#000000">bool[1]</text>
<polygon fill="none" stroke="#000000" points="10,-105.7 10,-127.7 169,-127.7 169,-105.7 10,-105.7"/>
<text text-anchor="start" x="30" y="-112.8" font-family="Helvetica,sans-Serif" font-size="11.00" fill="#000000">up_type</text>
<polygon fill="none" stroke="#000000" points="169,-105.7 169,-127.7 408,-127.7 408,-105.7 169,-105.7"/>
<text text-anchor="start" x="172" y="-113.4" font-family="Helvetica,sans-Serif" font-size="11.00" fill="#000000">hydra_node_type[2147483647]</text>
<polygon fill="none" stroke="#000000" points="10,-83.7 10,-105.7 169,-105.7 169,-83.7 10,-83.7"/>
<text text-anchor="start" x="30" y="-90.8" font-family="Helvetica,sans-Serif" font-size="11.00" fill="#000000">down_type</text>
<polygon fill="none" stroke="#000000" points="169,-83.7 169,-105.7 408,-105.7 408,-83.7 169,-83.7"/>
<text text-anchor="start" x="172" y="-91.4" font-family="Helvetica,sans-Serif" font-size="11.00" fill="#000000">hydra_node_type[2147483647]</text>
<polygon fill="none" stroke="#000000" points="10,-61.7 10,-83.7 169,-83.7 169,-61.7 10,-61.7"/>
<text text-anchor="start" x="30" y="-68.8" font-family="Helvetica,sans-Serif" font-size="11.00" fill="#000000">configuration_json</text>
<polygon fill="none" stroke="#000000" points="169,-61.7 169,-83.7 408,-83.7 408,-61.7 169,-61.7"/>
<text text-anchor="start" x="172" y="-69.4" font-family="Helvetica,sans-Serif" font-size="11.00" fill="#000000">json[2147483647]</text>
<polygon fill="none" stroke="#000000" points="10,-39.7 10,-61.7 169,-61.7 169,-39.7 10,-39.7"/>
<text text-anchor="start" x="30" y="-46.8" font-family="Helvetica,sans-Serif" font-size="11.00" fill="#000000">comment</text>
<polygon fill="none" stroke="#000000" points="169,-39.7 169,-61.7 408,-61.7 408,-39.7 169,-39.7"/>
<text text-anchor="start" x="172" y="-47.4" font-family="Helvetica,sans-Serif" font-size="11.00" fill="#000000">varchar[2147483647]</text>
<polygon fill="none" stroke="#000000" stroke-width="2" points="9,-39.2 9,-636.2 409,-636.2 409,-39.2 9,-39.2"/>
</a>
</g>
</g>
</g>
</svg>
