<?xml version="1.0" encoding="UTF-8" standalone="no"?>
<!DOCTYPE svg PUBLIC "-//W3C//DTD SVG 1.1//EN"
 "http://www.w3.org/Graphics/SVG/1.1/DTD/svg11.dtd">
<!-- Generated by graphviz version 2.40.1 (20161225.0304)
 -->
<!-- Title: oneDegreeRelationshipsDiagram Pages: 1 -->
<svg width="378pt" height="781pt"
 viewBox="0.00 0.00 378.00 781.20" xmlns="http://www.w3.org/2000/svg" xmlns:xlink="http://www.w3.org/1999/xlink">
<g id="graph0" class="graph" transform="scale(1 1) rotate(0) translate(4 777.2)">
<title>oneDegreeRelationshipsDiagram</title>
<polygon fill="#ffffff" stroke="transparent" points="-4,4 -4,-777.2 374,-777.2 374,4 -4,4"/>
<text text-anchor="middle" x="72.4936" y="-7.3" font-family="Helvetica,sans-Serif" font-size="11.00" fill="#000000">Generated by SchemaSpy</text>
<!-- pipe_link -->
<g id="node1" class="node">
<title>pipe_link</title>
<g id="a_node1"><a xlink:href="../../tables/pipe_link.html" xlink:title="pipe_link" target="_top">
<polygon fill="#ffffff" stroke="transparent" points="8,-38.2 8,-769.2 362,-769.2 362,-38.2 8,-38.2"/>
<polygon fill="#f5f5f5" stroke="transparent" points="10,-743.7 10,-766.7 360,-766.7 360,-743.7 10,-743.7"/>
<polygon fill="none" stroke="#000000" points="10,-743.7 10,-766.7 360,-766.7 360,-743.7 10,-743.7"/>
<text text-anchor="start" x="15" y="-752.3" font-family="Helvetica,sans-Serif" font-weight="bold" font-size="11.00" fill="#000000">pipe_link</text>
<text text-anchor="start" x="326.8895" y="-751.8" font-family="Helvetica,sans-Serif" font-size="11.00" fill="#000000">[view]</text>
<polygon fill="none" stroke="#000000" points="10,-721.7 10,-743.7 159,-743.7 159,-721.7 10,-721.7"/>
<text text-anchor="start" x="30" y="-728.8" font-family="Helvetica,sans-Serif" font-size="11.00" fill="#000000">id</text>
<polygon fill="none" stroke="#000000" points="159,-721.7 159,-743.7 360,-743.7 360,-721.7 159,-721.7"/>
<text text-anchor="start" x="162" y="-729.4" font-family="Helvetica,sans-Serif" font-size="11.00" fill="#000000">int4[10]</text>
<polygon fill="none" stroke="#000000" points="10,-699.7 10,-721.7 159,-721.7 159,-699.7 10,-699.7"/>
<text text-anchor="start" x="30" y="-706.8" font-family="Helvetica,sans-Serif" font-size="11.00" fill="#000000">name</text>
<polygon fill="none" stroke="#000000" points="159,-699.7 159,-721.7 360,-721.7 360,-699.7 159,-699.7"/>
<text text-anchor="start" x="162" y="-707.4" font-family="Helvetica,sans-Serif" font-size="11.00" fill="#000000">varchar[24]</text>
<polygon fill="none" stroke="#000000" points="10,-677.7 10,-699.7 159,-699.7 159,-677.7 10,-677.7"/>
<text text-anchor="start" x="30" y="-684.8" font-family="Helvetica,sans-Serif" font-size="11.00" fill="#000000">up</text>
<polygon fill="none" stroke="#000000" points="159,-677.7 159,-699.7 360,-699.7 360,-677.7 159,-677.7"/>
<text text-anchor="start" x="162" y="-685.4" font-family="Helvetica,sans-Serif" font-size="11.00" fill="#000000">int4[10]</text>
<polygon fill="none" stroke="#000000" points="10,-655.7 10,-677.7 159,-677.7 159,-655.7 10,-655.7"/>
<text text-anchor="start" x="30" y="-662.8" font-family="Helvetica,sans-Serif" font-size="11.00" fill="#000000">down</text>
<polygon fill="none" stroke="#000000" points="159,-655.7 159,-677.7 360,-677.7 360,-655.7 159,-655.7"/>
<text text-anchor="start" x="162" y="-663.4" font-family="Helvetica,sans-Serif" font-size="11.00" fill="#000000">int4[10]</text>
<polygon fill="none" stroke="#000000" points="10,-633.7 10,-655.7 159,-655.7 159,-633.7 10,-633.7"/>
<text text-anchor="start" x="30" y="-640.8" font-family="Helvetica,sans-Serif" font-size="11.00" fill="#000000">z_invert_up</text>
<polygon fill="none" stroke="#000000" points="159,-633.7 159,-655.7 360,-655.7 360,-633.7 159,-633.7"/>
<text text-anchor="start" x="162" y="-641.4" font-family="Helvetica,sans-Serif" font-size="11.00" fill="#000000">float4[8,8]</text>
<polygon fill="none" stroke="#000000" points="10,-611.7 10,-633.7 159,-633.7 159,-611.7 10,-611.7"/>
<text text-anchor="start" x="30" y="-618.8" font-family="Helvetica,sans-Serif" font-size="11.00" fill="#000000">z_invert_down</text>
<polygon fill="none" stroke="#000000" points="159,-611.7 159,-633.7 360,-633.7 360,-611.7 159,-611.7"/>
<text text-anchor="start" x="162" y="-619.4" font-family="Helvetica,sans-Serif" font-size="11.00" fill="#000000">float4[8,8]</text>
<polygon fill="none" stroke="#000000" points="10,-589.7 10,-611.7 159,-611.7 159,-589.7 10,-589.7"/>
<text text-anchor="start" x="30" y="-596.8" font-family="Helvetica,sans-Serif" font-size="11.00" fill="#000000">cross_section_type</text>
<polygon fill="none" stroke="#000000" points="159,-589.7 159,-611.7 360,-611.7 360,-589.7 159,-589.7"/>
<text text-anchor="start" x="161.99" y="-597.4" font-family="Helvetica,sans-Serif" font-size="11.00" fill="#000000">hydra_cross_section_type[2147483647]</text>
<polygon fill="none" stroke="#000000" points="10,-567.7 10,-589.7 159,-589.7 159,-567.7 10,-567.7"/>
<text text-anchor="start" x="30" y="-574.8" font-family="Helvetica,sans-Serif" font-size="11.00" fill="#000000">h_sable</text>
<polygon fill="none" stroke="#000000" points="159,-567.7 159,-589.7 360,-589.7 360,-567.7 159,-567.7"/>
<text text-anchor="start" x="162" y="-575.4" font-family="Helvetica,sans-Serif" font-size="11.00" fill="#000000">float4[8,8]</text>
<polygon fill="none" stroke="#000000" points="10,-545.7 10,-567.7 159,-567.7 159,-545.7 10,-545.7"/>
<text text-anchor="start" x="30" y="-552.8" font-family="Helvetica,sans-Serif" font-size="11.00" fill="#000000">branch</text>
<polygon fill="none" stroke="#000000" points="159,-545.7 159,-567.7 360,-567.7 360,-545.7 159,-545.7"/>
<text text-anchor="start" x="162" y="-553.4" font-family="Helvetica,sans-Serif" font-size="11.00" fill="#000000">int4[10]</text>
<polygon fill="none" stroke="#000000" points="10,-523.7 10,-545.7 159,-545.7 159,-523.7 10,-523.7"/>
<text text-anchor="start" x="30" y="-530.8" font-family="Helvetica,sans-Serif" font-size="11.00" fill="#000000">exclude_from_branch</text>
<polygon fill="none" stroke="#000000" points="159,-523.7 159,-545.7 360,-545.7 360,-523.7 159,-523.7"/>
<text text-anchor="start" x="162" y="-531.4" font-family="Helvetica,sans-Serif" font-size="11.00" fill="#000000">bool[1]</text>
<polygon fill="none" stroke="#000000" points="10,-501.7 10,-523.7 159,-523.7 159,-501.7 10,-501.7"/>
<text text-anchor="start" x="30" y="-508.8" font-family="Helvetica,sans-Serif" font-size="11.00" fill="#000000">rk</text>
<polygon fill="none" stroke="#000000" points="159,-501.7 159,-523.7 360,-523.7 360,-501.7 159,-501.7"/>
<text text-anchor="start" x="162" y="-509.4" font-family="Helvetica,sans-Serif" font-size="11.00" fill="#000000">float4[8,8]</text>
<polygon fill="none" stroke="#000000" points="10,-479.7 10,-501.7 159,-501.7 159,-479.7 10,-479.7"/>
<text text-anchor="start" x="30" y="-486.8" font-family="Helvetica,sans-Serif" font-size="11.00" fill="#000000">custom_length</text>
<polygon fill="none" stroke="#000000" points="159,-479.7 159,-501.7 360,-501.7 360,-479.7 159,-479.7"/>
<text text-anchor="start" x="162" y="-487.4" font-family="Helvetica,sans-Serif" font-size="11.00" fill="#000000">float4[8,8]</text>
<polygon fill="none" stroke="#000000" points="10,-457.7 10,-479.7 159,-479.7 159,-457.7 10,-457.7"/>
<text text-anchor="start" x="30" y="-464.8" font-family="Helvetica,sans-Serif" font-size="11.00" fill="#000000">circular_diameter</text>
<polygon fill="none" stroke="#000000" points="159,-457.7 159,-479.7 360,-479.7 360,-457.7 159,-457.7"/>
<text text-anchor="start" x="162" y="-465.4" font-family="Helvetica,sans-Serif" font-size="11.00" fill="#000000">float4[8,8]</text>
<polygon fill="none" stroke="#000000" points="10,-435.7 10,-457.7 159,-457.7 159,-435.7 10,-435.7"/>
<text text-anchor="start" x="30" y="-442.8" font-family="Helvetica,sans-Serif" font-size="11.00" fill="#000000">ovoid_height</text>
<polygon fill="none" stroke="#000000" points="159,-435.7 159,-457.7 360,-457.7 360,-435.7 159,-435.7"/>
<text text-anchor="start" x="162" y="-443.4" font-family="Helvetica,sans-Serif" font-size="11.00" fill="#000000">float4[8,8]</text>
<polygon fill="none" stroke="#000000" points="10,-413.7 10,-435.7 159,-435.7 159,-413.7 10,-413.7"/>
<text text-anchor="start" x="30" y="-420.8" font-family="Helvetica,sans-Serif" font-size="11.00" fill="#000000">ovoid_top_diameter</text>
<polygon fill="none" stroke="#000000" points="159,-413.7 159,-435.7 360,-435.7 360,-413.7 159,-413.7"/>
<text text-anchor="start" x="162" y="-421.4" font-family="Helvetica,sans-Serif" font-size="11.00" fill="#000000">float4[8,8]</text>
<polygon fill="none" stroke="#000000" points="10,-391.7 10,-413.7 159,-413.7 159,-391.7 10,-391.7"/>
<text text-anchor="start" x="30" y="-398.8" font-family="Helvetica,sans-Serif" font-size="11.00" fill="#000000">ovoid_invert_diameter</text>
<polygon fill="none" stroke="#000000" points="159,-391.7 159,-413.7 360,-413.7 360,-391.7 159,-391.7"/>
<text text-anchor="start" x="162" y="-399.4" font-family="Helvetica,sans-Serif" font-size="11.00" fill="#000000">float4[8,8]</text>
<polygon fill="none" stroke="#000000" points="10,-369.7 10,-391.7 159,-391.7 159,-369.7 10,-369.7"/>
<text text-anchor="start" x="30" y="-376.8" font-family="Helvetica,sans-Serif" font-size="11.00" fill="#000000">cp_geom</text>
<polygon fill="none" stroke="#000000" points="159,-369.7 159,-391.7 360,-391.7 360,-369.7 159,-369.7"/>
<text text-anchor="start" x="162" y="-377.4" font-family="Helvetica,sans-Serif" font-size="11.00" fill="#000000">int4[10]</text>
<polygon fill="none" stroke="#000000" points="10,-347.7 10,-369.7 159,-369.7 159,-347.7 10,-347.7"/>
<text text-anchor="start" x="30" y="-354.8" font-family="Helvetica,sans-Serif" font-size="11.00" fill="#000000">op_geom</text>
<polygon fill="none" stroke="#000000" points="159,-347.7 159,-369.7 360,-369.7 360,-347.7 159,-347.7"/>
<text text-anchor="start" x="162" y="-355.4" font-family="Helvetica,sans-Serif" font-size="11.00" fill="#000000">int4[10]</text>
<polygon fill="none" stroke="#000000" points="10,-325.7 10,-347.7 159,-347.7 159,-325.7 10,-325.7"/>
<text text-anchor="start" x="30" y="-332.8" font-family="Helvetica,sans-Serif" font-size="11.00" fill="#000000">rk_maj</text>
<polygon fill="none" stroke="#000000" points="159,-325.7 159,-347.7 360,-347.7 360,-325.7 159,-325.7"/>
<text text-anchor="start" x="162" y="-333.4" font-family="Helvetica,sans-Serif" font-size="11.00" fill="#000000">float4[8,8]</text>
<polygon fill="none" stroke="#000000" points="10,-303.7 10,-325.7 159,-325.7 159,-303.7 10,-303.7"/>
<text text-anchor="start" x="30" y="-310.8" font-family="Helvetica,sans-Serif" font-size="11.00" fill="#000000">geom</text>
<polygon fill="none" stroke="#000000" points="159,-303.7 159,-325.7 360,-325.7 360,-303.7 159,-303.7"/>
<text text-anchor="start" x="162" y="-311.4" font-family="Helvetica,sans-Serif" font-size="11.00" fill="#000000">geometry[2147483647]</text>
<polygon fill="none" stroke="#000000" points="10,-281.7 10,-303.7 159,-303.7 159,-281.7 10,-281.7"/>
<text text-anchor="start" x="30" y="-288.8" font-family="Helvetica,sans-Serif" font-size="11.00" fill="#000000">configuration</text>
<polygon fill="none" stroke="#000000" points="159,-281.7 159,-303.7 360,-303.7 360,-281.7 159,-281.7"/>
<text text-anchor="start" x="162" y="-289.4" font-family="Helvetica,sans-Serif" font-size="11.00" fill="#000000">varchar[2147483647]</text>
<polygon fill="none" stroke="#000000" points="10,-259.7 10,-281.7 159,-281.7 159,-259.7 10,-259.7"/>
<text text-anchor="start" x="30" y="-266.8" font-family="Helvetica,sans-Serif" font-size="11.00" fill="#000000">generated</text>
<polygon fill="none" stroke="#000000" points="159,-259.7 159,-281.7 360,-281.7 360,-259.7 159,-259.7"/>
<text text-anchor="start" x="162" y="-267.4" font-family="Helvetica,sans-Serif" font-size="11.00" fill="#000000">int4[10]</text>
<polygon fill="none" stroke="#000000" points="10,-237.7 10,-259.7 159,-259.7 159,-237.7 10,-237.7"/>
<text text-anchor="start" x="30" y="-244.8" font-family="Helvetica,sans-Serif" font-size="11.00" fill="#000000">validity</text>
<polygon fill="none" stroke="#000000" points="159,-237.7 159,-259.7 360,-259.7 360,-237.7 159,-237.7"/>
<text text-anchor="start" x="162" y="-245.4" font-family="Helvetica,sans-Serif" font-size="11.00" fill="#000000">bool[1]</text>
<polygon fill="none" stroke="#000000" points="10,-215.7 10,-237.7 159,-237.7 159,-215.7 10,-215.7"/>
<text text-anchor="start" x="30" y="-222.8" font-family="Helvetica,sans-Serif" font-size="11.00" fill="#000000">up_type</text>
<polygon fill="none" stroke="#000000" points="159,-215.7 159,-237.7 360,-237.7 360,-215.7 159,-215.7"/>
<text text-anchor="start" x="162" y="-223.4" font-family="Helvetica,sans-Serif" font-size="11.00" fill="#000000">hydra_node_type[2147483647]</text>
<polygon fill="none" stroke="#000000" points="10,-193.7 10,-215.7 159,-215.7 159,-193.7 10,-193.7"/>
<text text-anchor="start" x="30" y="-200.8" font-family="Helvetica,sans-Serif" font-size="11.00" fill="#000000">down_type</text>
<polygon fill="none" stroke="#000000" points="159,-193.7 159,-215.7 360,-215.7 360,-193.7 159,-193.7"/>
<text text-anchor="start" x="162" y="-201.4" font-family="Helvetica,sans-Serif" font-size="11.00" fill="#000000">hydra_node_type[2147483647]</text>
<polygon fill="none" stroke="#000000" points="10,-171.7 10,-193.7 159,-193.7 159,-171.7 10,-171.7"/>
<text text-anchor="start" x="30" y="-178.8" font-family="Helvetica,sans-Serif" font-size="11.00" fill="#000000">configuration_json</text>
<polygon fill="none" stroke="#000000" points="159,-171.7 159,-193.7 360,-193.7 360,-171.7 159,-171.7"/>
<text text-anchor="start" x="162" y="-179.4" font-family="Helvetica,sans-Serif" font-size="11.00" fill="#000000">json[2147483647]</text>
<polygon fill="none" stroke="#000000" points="10,-149.7 10,-171.7 159,-171.7 159,-149.7 10,-149.7"/>
<text text-anchor="start" x="30" y="-156.8" font-family="Helvetica,sans-Serif" font-size="11.00" fill="#000000">comment</text>
<polygon fill="none" stroke="#000000" points="159,-149.7 159,-171.7 360,-171.7 360,-149.7 159,-149.7"/>
<text text-anchor="start" x="162" y="-157.4" font-family="Helvetica,sans-Serif" font-size="11.00" fill="#000000">varchar[2147483647]</text>
<polygon fill="none" stroke="#000000" points="10,-127.7 10,-149.7 159,-149.7 159,-127.7 10,-127.7"/>
<text text-anchor="start" x="30" y="-134.8" font-family="Helvetica,sans-Serif" font-size="11.00" fill="#000000">qcap</text>
<polygon fill="none" stroke="#000000" points="159,-127.7 159,-149.7 360,-149.7 360,-127.7 159,-127.7"/>
<text text-anchor="start" x="162" y="-135.4" font-family="Helvetica,sans-Serif" font-size="11.00" fill="#000000">float8[17,17]</text>
<polygon fill="none" stroke="#000000" points="10,-105.7 10,-127.7 159,-127.7 159,-105.7 10,-105.7"/>
<text text-anchor="start" x="30" y="-112.8" font-family="Helvetica,sans-Serif" font-size="11.00" fill="#000000">z_vault_up</text>
<polygon fill="none" stroke="#000000" points="159,-105.7 159,-127.7 360,-127.7 360,-105.7 159,-105.7"/>
<text text-anchor="start" x="162" y="-113.4" font-family="Helvetica,sans-Serif" font-size="11.00" fill="#000000">float4[8,8]</text>
<polygon fill="none" stroke="#000000" points="10,-83.7 10,-105.7 159,-105.7 159,-83.7 10,-83.7"/>
<text text-anchor="start" x="30" y="-90.8" font-family="Helvetica,sans-Serif" font-size="11.00" fill="#000000">z_vault_down</text>
<polygon fill="none" stroke="#000000" points="159,-83.7 159,-105.7 360,-105.7 360,-83.7 159,-83.7"/>
<text text-anchor="start" x="162" y="-91.4" font-family="Helvetica,sans-Serif" font-size="11.00" fill="#000000">float4[8,8]</text>
<polygon fill="none" stroke="#000000" points="10,-61.7 10,-83.7 159,-83.7 159,-61.7 10,-61.7"/>
<text text-anchor="start" x="30" y="-68.8" font-family="Helvetica,sans-Serif" font-size="11.00" fill="#000000">z_tn_up</text>
<polygon fill="none" stroke="#000000" points="159,-61.7 159,-83.7 360,-83.7 360,-61.7 159,-61.7"/>
<text text-anchor="start" x="162" y="-69.4" font-family="Helvetica,sans-Serif" font-size="11.00" fill="#000000">float8[17,17]</text>
<polygon fill="none" stroke="#000000" points="10,-39.7 10,-61.7 159,-61.7 159,-39.7 10,-39.7"/>
<text text-anchor="start" x="30" y="-46.8" font-family="Helvetica,sans-Serif" font-size="11.00" fill="#000000">z_tn_down</text>
<polygon fill="none" stroke="#000000" points="159,-39.7 159,-61.7 360,-61.7 360,-39.7 159,-39.7"/>
<text text-anchor="start" x="162" y="-47.4" font-family="Helvetica,sans-Serif" font-size="11.00" fill="#000000">float8[17,17]</text>
<polygon fill="none" stroke="#000000" stroke-width="2" points="9,-39.2 9,-768.2 361,-768.2 361,-39.2 9,-39.2"/>
</a>
</g>
</g>
</g>
</svg>
