<?xml version="1.0" encoding="UTF-8" standalone="no"?>
<!DOCTYPE svg PUBLIC "-//W3C//DTD SVG 1.1//EN"
 "http://www.w3.org/Graphics/SVG/1.1/DTD/svg11.dtd">
<!-- Generated by graphviz version 2.40.1 (20161225.0304)
 -->
<!-- Title: oneDegreeRelationshipsDiagram Pages: 1 -->
<svg width="318pt" height="429pt"
 viewBox="0.00 0.00 318.00 429.20" xmlns="http://www.w3.org/2000/svg" xmlns:xlink="http://www.w3.org/1999/xlink">
<g id="graph0" class="graph" transform="scale(1 1) rotate(0) translate(4 425.2)">
<title>oneDegreeRelationshipsDiagram</title>
<polygon fill="#ffffff" stroke="transparent" points="-4,4 -4,-425.2 314,-425.2 314,4 -4,4"/>
<text text-anchor="middle" x="72.4936" y="-7.3" font-family="Helvetica,sans-Serif" font-size="11.00" fill="#000000">Generated by SchemaSpy</text>
<!-- pump_link -->
<g id="node1" class="node">
<title>pump_link</title>
<g id="a_node1"><a xlink:href="../../tables/pump_link.html" xlink:title="pump_link" target="_top">
<polygon fill="#ffffff" stroke="transparent" points="8,-38.2 8,-417.2 302,-417.2 302,-38.2 8,-38.2"/>
<polygon fill="#f5f5f5" stroke="transparent" points="10,-391.7 10,-414.7 300,-414.7 300,-391.7 10,-391.7"/>
<polygon fill="none" stroke="#000000" points="10,-391.7 10,-414.7 300,-414.7 300,-391.7 10,-391.7"/>
<text text-anchor="start" x="15" y="-400.3" font-family="Helvetica,sans-Serif" font-weight="bold" font-size="11.00" fill="#000000">pump_link</text>
<text text-anchor="start" x="266.8895" y="-399.8" font-family="Helvetica,sans-Serif" font-size="11.00" fill="#000000">[view]</text>
<polygon fill="none" stroke="#000000" points="10,-369.7 10,-391.7 142,-391.7 142,-369.7 10,-369.7"/>
<text text-anchor="start" x="30" y="-376.8" font-family="Helvetica,sans-Serif" font-size="11.00" fill="#000000">id</text>
<polygon fill="none" stroke="#000000" points="142,-369.7 142,-391.7 300,-391.7 300,-369.7 142,-369.7"/>
<text text-anchor="start" x="145" y="-377.4" font-family="Helvetica,sans-Serif" font-size="11.00" fill="#000000">int4[10]</text>
<polygon fill="none" stroke="#000000" points="10,-347.7 10,-369.7 142,-369.7 142,-347.7 10,-347.7"/>
<text text-anchor="start" x="30" y="-354.8" font-family="Helvetica,sans-Serif" font-size="11.00" fill="#000000">name</text>
<polygon fill="none" stroke="#000000" points="142,-347.7 142,-369.7 300,-369.7 300,-347.7 142,-347.7"/>
<text text-anchor="start" x="145" y="-355.4" font-family="Helvetica,sans-Serif" font-size="11.00" fill="#000000">varchar[24]</text>
<polygon fill="none" stroke="#000000" points="10,-325.7 10,-347.7 142,-347.7 142,-325.7 10,-325.7"/>
<text text-anchor="start" x="30" y="-332.8" font-family="Helvetica,sans-Serif" font-size="11.00" fill="#000000">up</text>
<polygon fill="none" stroke="#000000" points="142,-325.7 142,-347.7 300,-347.7 300,-325.7 142,-325.7"/>
<text text-anchor="start" x="145" y="-333.4" font-family="Helvetica,sans-Serif" font-size="11.00" fill="#000000">int4[10]</text>
<polygon fill="none" stroke="#000000" points="10,-303.7 10,-325.7 142,-325.7 142,-303.7 10,-303.7"/>
<text text-anchor="start" x="30" y="-310.8" font-family="Helvetica,sans-Serif" font-size="11.00" fill="#000000">down</text>
<polygon fill="none" stroke="#000000" points="142,-303.7 142,-325.7 300,-325.7 300,-303.7 142,-303.7"/>
<text text-anchor="start" x="145" y="-311.4" font-family="Helvetica,sans-Serif" font-size="11.00" fill="#000000">int4[10]</text>
<polygon fill="none" stroke="#000000" points="10,-281.7 10,-303.7 142,-303.7 142,-281.7 10,-281.7"/>
<text text-anchor="start" x="30" y="-288.8" font-family="Helvetica,sans-Serif" font-size="11.00" fill="#000000">npump</text>
<polygon fill="none" stroke="#000000" points="142,-281.7 142,-303.7 300,-303.7 300,-281.7 142,-281.7"/>
<text text-anchor="start" x="145" y="-289.4" font-family="Helvetica,sans-Serif" font-size="11.00" fill="#000000">int4[10]</text>
<polygon fill="none" stroke="#000000" points="10,-259.7 10,-281.7 142,-281.7 142,-259.7 10,-259.7"/>
<text text-anchor="start" x="30" y="-266.8" font-family="Helvetica,sans-Serif" font-size="11.00" fill="#000000">zregul_array</text>
<polygon fill="none" stroke="#000000" points="142,-259.7 142,-281.7 300,-281.7 300,-259.7 142,-259.7"/>
<text text-anchor="start" x="145" y="-267.4" font-family="Helvetica,sans-Serif" font-size="11.00" fill="#000000">_float4[8,8]</text>
<polygon fill="none" stroke="#000000" points="10,-237.7 10,-259.7 142,-259.7 142,-237.7 10,-237.7"/>
<text text-anchor="start" x="30" y="-244.8" font-family="Helvetica,sans-Serif" font-size="11.00" fill="#000000">hq_array</text>
<polygon fill="none" stroke="#000000" points="142,-237.7 142,-259.7 300,-259.7 300,-237.7 142,-237.7"/>
<text text-anchor="start" x="145" y="-245.4" font-family="Helvetica,sans-Serif" font-size="11.00" fill="#000000">_float4[8,8]</text>
<polygon fill="none" stroke="#000000" points="10,-215.7 10,-237.7 142,-237.7 142,-215.7 10,-215.7"/>
<text text-anchor="start" x="30" y="-222.8" font-family="Helvetica,sans-Serif" font-size="11.00" fill="#000000">response_time_sec</text>
<polygon fill="none" stroke="#000000" points="142,-215.7 142,-237.7 300,-237.7 300,-215.7 142,-215.7"/>
<text text-anchor="start" x="145" y="-223.4" font-family="Helvetica,sans-Serif" font-size="11.00" fill="#000000">float4[8,8]</text>
<polygon fill="none" stroke="#000000" points="10,-193.7 10,-215.7 142,-215.7 142,-193.7 10,-193.7"/>
<text text-anchor="start" x="30" y="-200.8" font-family="Helvetica,sans-Serif" font-size="11.00" fill="#000000">geom</text>
<polygon fill="none" stroke="#000000" points="142,-193.7 142,-215.7 300,-215.7 300,-193.7 142,-193.7"/>
<text text-anchor="start" x="145" y="-201.4" font-family="Helvetica,sans-Serif" font-size="11.00" fill="#000000">geometry[2147483647]</text>
<polygon fill="none" stroke="#000000" points="10,-171.7 10,-193.7 142,-193.7 142,-171.7 10,-171.7"/>
<text text-anchor="start" x="30" y="-178.8" font-family="Helvetica,sans-Serif" font-size="11.00" fill="#000000">configuration</text>
<polygon fill="none" stroke="#000000" points="142,-171.7 142,-193.7 300,-193.7 300,-171.7 142,-171.7"/>
<text text-anchor="start" x="145" y="-179.4" font-family="Helvetica,sans-Serif" font-size="11.00" fill="#000000">varchar[2147483647]</text>
<polygon fill="none" stroke="#000000" points="10,-149.7 10,-171.7 142,-171.7 142,-149.7 10,-149.7"/>
<text text-anchor="start" x="30" y="-156.8" font-family="Helvetica,sans-Serif" font-size="11.00" fill="#000000">generated</text>
<polygon fill="none" stroke="#000000" points="142,-149.7 142,-171.7 300,-171.7 300,-149.7 142,-149.7"/>
<text text-anchor="start" x="145" y="-157.4" font-family="Helvetica,sans-Serif" font-size="11.00" fill="#000000">int4[10]</text>
<polygon fill="none" stroke="#000000" points="10,-127.7 10,-149.7 142,-149.7 142,-127.7 10,-127.7"/>
<text text-anchor="start" x="30" y="-134.8" font-family="Helvetica,sans-Serif" font-size="11.00" fill="#000000">validity</text>
<polygon fill="none" stroke="#000000" points="142,-127.7 142,-149.7 300,-149.7 300,-127.7 142,-127.7"/>
<text text-anchor="start" x="145" y="-135.4" font-family="Helvetica,sans-Serif" font-size="11.00" fill="#000000">bool[1]</text>
<polygon fill="none" stroke="#000000" points="10,-105.7 10,-127.7 142,-127.7 142,-105.7 10,-105.7"/>
<text text-anchor="start" x="30" y="-112.8" font-family="Helvetica,sans-Serif" font-size="11.00" fill="#000000">up_type</text>
<polygon fill="none" stroke="#000000" points="142,-105.7 142,-127.7 300,-127.7 300,-105.7 142,-105.7"/>
<text text-anchor="start" x="144.8773" y="-113.4" font-family="Helvetica,sans-Serif" font-size="11.00" fill="#000000">hydra_node_type[2147483647]</text>
<polygon fill="none" stroke="#000000" points="10,-83.7 10,-105.7 142,-105.7 142,-83.7 10,-83.7"/>
<text text-anchor="start" x="30" y="-90.8" font-family="Helvetica,sans-Serif" font-size="11.00" fill="#000000">down_type</text>
<polygon fill="none" stroke="#000000" points="142,-83.7 142,-105.7 300,-105.7 300,-83.7 142,-83.7"/>
<text text-anchor="start" x="144.8773" y="-91.4" font-family="Helvetica,sans-Serif" font-size="11.00" fill="#000000">hydra_node_type[2147483647]</text>
<polygon fill="none" stroke="#000000" points="10,-61.7 10,-83.7 142,-83.7 142,-61.7 10,-61.7"/>
<text text-anchor="start" x="30" y="-68.8" font-family="Helvetica,sans-Serif" font-size="11.00" fill="#000000">configuration_json</text>
<polygon fill="none" stroke="#000000" points="142,-61.7 142,-83.7 300,-83.7 300,-61.7 142,-61.7"/>
<text text-anchor="start" x="145" y="-69.4" font-family="Helvetica,sans-Serif" font-size="11.00" fill="#000000">json[2147483647]</text>
<polygon fill="none" stroke="#000000" points="10,-39.7 10,-61.7 142,-61.7 142,-39.7 10,-39.7"/>
<text text-anchor="start" x="30" y="-46.8" font-family="Helvetica,sans-Serif" font-size="11.00" fill="#000000">comment</text>
<polygon fill="none" stroke="#000000" points="142,-39.7 142,-61.7 300,-61.7 300,-39.7 142,-39.7"/>
<text text-anchor="start" x="145" y="-47.4" font-family="Helvetica,sans-Serif" font-size="11.00" fill="#000000">varchar[2147483647]</text>
<polygon fill="none" stroke="#000000" stroke-width="2" points="9,-39.2 9,-416.2 301,-416.2 301,-39.2 9,-39.2"/>
</a>
</g>
</g>
</g>
</svg>
