<?xml version="1.0" encoding="UTF-8" standalone="no"?>
<!DOCTYPE svg PUBLIC "-//W3C//DTD SVG 1.1//EN"
 "http://www.w3.org/Graphics/SVG/1.1/DTD/svg11.dtd">
<!-- Generated by graphviz version 2.40.1 (20161225.0304)
 -->
<!-- Title: twoDegreesRelationshipsDiagram Pages: 1 -->
<svg width="628pt" height="352pt"
 viewBox="0.00 0.00 628.00 351.70" xmlns="http://www.w3.org/2000/svg" xmlns:xlink="http://www.w3.org/1999/xlink">
<g id="graph0" class="graph" transform="scale(1 1) rotate(0) translate(4 347.7)">
<title>twoDegreesRelationshipsDiagram</title>
<polygon fill="#ffffff" stroke="transparent" points="-4,4 -4,-347.7 624,-347.7 624,4 -4,4"/>
<text text-anchor="middle" x="72.4936" y="-7.3" font-family="Helvetica,sans-Serif" font-size="11.00" fill="#000000">Generated by SchemaSpy</text>
<!-- _river_cross_section_pl1d -->
<g id="node1" class="node">
<title>_river_cross_section_pl1d</title>
<g id="a_node1"><a xlink:href="../../tables/_river_cross_section_pl1d.html" xlink:title="_river_cross_section_pl1d" target="_top">
<polygon fill="#ffffff" stroke="transparent" points="416,-278.7 416,-339.7 606,-339.7 606,-278.7 416,-278.7"/>
<polygon fill="#f5f5f5" stroke="transparent" points="416,-316.2 416,-339.2 606,-339.2 606,-316.2 416,-316.2"/>
<polygon fill="none" stroke="#000000" points="416,-316.2 416,-339.2 606,-339.2 606,-316.2 416,-316.2"/>
<text text-anchor="start" x="421" y="-324.8" font-family="Helvetica,sans-Serif" font-weight="bold" font-size="11.00" fill="#000000">_river_cross_section_pl1d</text>
<text text-anchor="start" x="571.5219" y="-324.3" font-family="Helvetica,sans-Serif" font-size="11.00" fill="#000000">[table]</text>
<polygon fill="none" stroke="#000000" points="416,-297.2 416,-316.2 606,-316.2 606,-297.2 416,-297.2"/>
<text text-anchor="start" x="419" y="-303.3" font-family="Helvetica,sans-Serif" font-size="11.00" fill="#000000">...</text>
<polygon fill="#ffffff" stroke="transparent" points="416,-278.2 416,-297.2 496,-297.2 496,-278.2 416,-278.2"/>
<polygon fill="none" stroke="#000000" points="416,-278.2 416,-297.2 496,-297.2 496,-278.2 416,-278.2"/>
<text text-anchor="start" x="419" y="-284.3" font-family="Helvetica,sans-Serif" font-size="11.00" fill="#000000">&lt; 2</text>
<polygon fill="#ffffff" stroke="transparent" points="496,-278.2 496,-297.2 564,-297.2 564,-278.2 496,-278.2"/>
<polygon fill="none" stroke="#000000" points="496,-278.2 496,-297.2 564,-297.2 564,-278.2 496,-278.2"/>
<text text-anchor="start" x="528.6105" y="-284.3" font-family="Helvetica,sans-Serif" font-size="11.00" fill="#000000">0 rows</text>
<polygon fill="#ffffff" stroke="transparent" points="564,-278.2 564,-297.2 606,-297.2 606,-278.2 564,-278.2"/>
<polygon fill="none" stroke="#000000" points="564,-278.2 564,-297.2 606,-297.2 606,-278.2 564,-278.2"/>
<text text-anchor="start" x="596.8862" y="-284.3" font-family="Helvetica,sans-Serif" font-size="11.00" fill="#000000"> &#160;</text>
</a>
</g>
</g>
<!-- _river_node -->
<g id="node2" class="node">
<title>_river_node</title>
<g id="a_node2"><a xlink:href="../../tables/_river_node.html" xlink:title="_river_node" target="_top">
<polygon fill="#ffffff" stroke="transparent" points="254,-172.7 254,-299.7 361,-299.7 361,-172.7 254,-172.7"/>
<polygon fill="#f5f5f5" stroke="transparent" points="254.5,-276.2 254.5,-299.2 361.5,-299.2 361.5,-276.2 254.5,-276.2"/>
<polygon fill="none" stroke="#000000" points="254.5,-276.2 254.5,-299.2 361.5,-299.2 361.5,-276.2 254.5,-276.2"/>
<text text-anchor="start" x="259.5" y="-284.8" font-family="Helvetica,sans-Serif" font-weight="bold" font-size="11.00" fill="#000000">_river_node</text>
<text text-anchor="start" x="327.0219" y="-284.3" font-family="Helvetica,sans-Serif" font-size="11.00" fill="#000000">[table]</text>
<polygon fill="#ffffff" stroke="transparent" points="254.5,-254.2 254.5,-276.2 361.5,-276.2 361.5,-254.2 254.5,-254.2"/>
<polygon fill="none" stroke="#000000" points="254.5,-254.2 254.5,-276.2 361.5,-276.2 361.5,-254.2 254.5,-254.2"/>
<image xlink:href="../../images/foreignKeys.png" width="11px" height="12px" preserveAspectRatio="xMinYMin meet" x="259.5" y="-271.2"/>
<text text-anchor="start" x="283.5" y="-261.3" font-family="Helvetica,sans-Serif" font-size="11.00" fill="#000000">id</text>
<polygon fill="none" stroke="#000000" points="254.5,-232.2 254.5,-254.2 361.5,-254.2 361.5,-232.2 254.5,-232.2"/>
<image xlink:href="../../images/foreignKeys.png" width="11px" height="12px" preserveAspectRatio="xMinYMin meet" x="259.5" y="-249.2"/>
<text text-anchor="start" x="283.5" y="-239.3" font-family="Helvetica,sans-Serif" font-size="11.00" fill="#000000">node_type</text>
<polygon fill="none" stroke="#000000" points="254.5,-210.2 254.5,-232.2 361.5,-232.2 361.5,-210.2 254.5,-210.2"/>
<image xlink:href="../../images/foreignKeys.png" width="11px" height="12px" preserveAspectRatio="xMinYMin meet" x="259.5" y="-227.2"/>
<text text-anchor="start" x="283.5" y="-217.3" font-family="Helvetica,sans-Serif" font-size="11.00" fill="#000000">reach</text>
<polygon fill="none" stroke="#000000" points="254.5,-191.2 254.5,-210.2 361.5,-210.2 361.5,-191.2 254.5,-191.2"/>
<text text-anchor="start" x="257.5" y="-197.3" font-family="Helvetica,sans-Serif" font-size="11.00" fill="#000000">...</text>
<polygon fill="#ffffff" stroke="transparent" points="254.5,-172.2 254.5,-191.2 288.5,-191.2 288.5,-172.2 254.5,-172.2"/>
<polygon fill="none" stroke="#000000" points="254.5,-172.2 254.5,-191.2 288.5,-191.2 288.5,-172.2 254.5,-172.2"/>
<text text-anchor="start" x="257.5" y="-178.3" font-family="Helvetica,sans-Serif" font-size="11.00" fill="#000000">&lt; 3</text>
<polygon fill="#ffffff" stroke="transparent" points="288.5,-172.2 288.5,-191.2 333.5,-191.2 333.5,-172.2 288.5,-172.2"/>
<polygon fill="none" stroke="#000000" points="288.5,-172.2 288.5,-191.2 333.5,-191.2 333.5,-172.2 288.5,-172.2"/>
<text text-anchor="start" x="298.1105" y="-178.3" font-family="Helvetica,sans-Serif" font-size="11.00" fill="#000000">0 rows</text>
<polygon fill="#ffffff" stroke="transparent" points="333.5,-172.2 333.5,-191.2 361.5,-191.2 361.5,-172.2 333.5,-172.2"/>
<polygon fill="none" stroke="#000000" points="333.5,-172.2 333.5,-191.2 361.5,-191.2 361.5,-172.2 333.5,-172.2"/>
<text text-anchor="start" x="342.9053" y="-178.3" font-family="Helvetica,sans-Serif" font-size="11.00" fill="#000000">2 &gt;</text>
</a>
</g>
</g>
<!-- _river_cross_section_pl1d&#45;&gt;_river_node -->
<g id="edge1" class="edge">
<title>_river_cross_section_pl1d:w&#45;&gt;_river_node:e</title>
<path fill="none" stroke="#000000" d="M405.6802,-304.2225C386.6724,-296.0326 387.7854,-265.2 361.5,-265.2"/>
<polygon fill="#000000" stroke="#000000" points="415.9671,-302.1209 414.4615,-309.978 412.8901,-309.6768 414.3957,-301.8198 415.9671,-302.1209"/>
<polyline fill="none" stroke="#000000" points="416,-306.2 412.0715,-305.4472 "/>
<ellipse fill="none" stroke="#000000" cx="408.9287" cy="-304.8449" rx="3.2" ry="3.2"/>
</g>
<!-- _node -->
<g id="node4" class="node">
<title>_node</title>
<g id="a_node4"><a xlink:href="../../tables/_node.html" xlink:title="_node" target="_top">
<polygon fill="#ffffff" stroke="transparent" points="63.5,-237.7 63.5,-298.7 149.5,-298.7 149.5,-237.7 63.5,-237.7"/>
<polygon fill="#f5f5f5" stroke="transparent" points="63.5,-275.2 63.5,-298.2 149.5,-298.2 149.5,-275.2 63.5,-275.2"/>
<polygon fill="none" stroke="#000000" points="63.5,-275.2 63.5,-298.2 149.5,-298.2 149.5,-275.2 63.5,-275.2"/>
<text text-anchor="start" x="68.5" y="-283.8" font-family="Helvetica,sans-Serif" font-weight="bold" font-size="11.00" fill="#000000">_node</text>
<text text-anchor="start" x="114.5437" y="-283.3" font-family="Helvetica,sans-Serif" font-size="11.00" fill="#000000">[table]</text>
<polygon fill="none" stroke="#000000" points="63.5,-256.2 63.5,-275.2 149.5,-275.2 149.5,-256.2 63.5,-256.2"/>
<text text-anchor="start" x="66.5" y="-262.3" font-family="Helvetica,sans-Serif" font-size="11.00" fill="#000000">...</text>
<polygon fill="#ffffff" stroke="transparent" points="63.5,-237.2 63.5,-256.2 84.5,-256.2 84.5,-237.2 63.5,-237.2"/>
<polygon fill="none" stroke="#000000" points="63.5,-237.2 63.5,-256.2 84.5,-256.2 84.5,-237.2 63.5,-237.2"/>
<text text-anchor="start" x="66.2027" y="-243.3" font-family="Helvetica,sans-Serif" font-size="11.00" fill="#000000">&lt; 1</text>
<polygon fill="#ffffff" stroke="transparent" points="84.5,-237.2 84.5,-256.2 122.5,-256.2 122.5,-237.2 84.5,-237.2"/>
<polygon fill="none" stroke="#000000" points="84.5,-237.2 84.5,-256.2 122.5,-256.2 122.5,-237.2 84.5,-237.2"/>
<text text-anchor="start" x="87.3053" y="-243.3" font-family="Helvetica,sans-Serif" font-size="11.00" fill="#000000">0 rows</text>
<polygon fill="#ffffff" stroke="transparent" points="122.5,-237.2 122.5,-256.2 149.5,-256.2 149.5,-237.2 122.5,-237.2"/>
<polygon fill="none" stroke="#000000" points="122.5,-237.2 122.5,-256.2 149.5,-256.2 149.5,-237.2 122.5,-237.2"/>
<text text-anchor="start" x="125.1452" y="-243.3" font-family="Helvetica,sans-Serif" font-size="11.00" fill="#000000">24 &gt;</text>
</a>
</g>
</g>
<!-- _river_node&#45;&gt;_node -->
<g id="edge3" class="edge">
<title>_river_node:w&#45;&gt;_node:e</title>
<path fill="none" stroke="#000000" d="M243.6835,-265.2C205.6838,-265.2 192.3385,-265.2 149.5,-265.2"/>
<polygon fill="#000000" stroke="#000000" points="253.7,-261.2 253.7,-269.2 252.1,-269.2 252.1,-261.2 253.7,-261.2"/>
<polyline fill="none" stroke="#000000" points="254.5,-265.2 250.5,-265.2 "/>
<ellipse fill="none" stroke="#000000" cx="247.3" cy="-265.2001" rx="3.2" ry="3.2"/>
</g>
<!-- _river_node&#45;&gt;_node -->
<g id="edge4" class="edge">
<title>_river_node:w&#45;&gt;_node:e</title>
<path fill="none" stroke="#000000" d="M239.6501,-243.983C204.1478,-247.9021 191.7788,-265.2 149.5,-265.2"/>
<polygon fill="#000000" stroke="#000000" points="246.5111,-243.6213 254.6896,-246.795 250.5055,-243.4106 254.5,-243.2 254.5,-243.2 254.5,-243.2 250.5055,-243.4106 254.3104,-239.605 246.5111,-243.6213 246.5111,-243.6213"/>
<ellipse fill="none" stroke="#000000" cx="243.3155" cy="-243.7898" rx="3.2" ry="3.2"/>
</g>
<!-- reach -->
<g id="node5" class="node">
<title>reach</title>
<g id="a_node5"><a xlink:href="../../tables/reach.html" xlink:title="reach" target="_top">
<polygon fill="#ffffff" stroke="transparent" points="8,-38.2 8,-216.2 205,-216.2 205,-38.2 8,-38.2"/>
<polygon fill="#f5f5f5" stroke="transparent" points="10.5,-191.2 10.5,-214.2 203.5,-214.2 203.5,-191.2 10.5,-191.2"/>
<polygon fill="none" stroke="#000000" points="10.5,-191.2 10.5,-214.2 203.5,-214.2 203.5,-191.2 10.5,-191.2"/>
<text text-anchor="start" x="15.5" y="-199.8" font-family="Helvetica,sans-Serif" font-weight="bold" font-size="11.00" fill="#000000">reach</text>
<text text-anchor="start" x="168.5437" y="-199.3" font-family="Helvetica,sans-Serif" font-size="11.00" fill="#000000">[table]</text>
<polygon fill="none" stroke="#000000" points="10.5,-169.2 10.5,-191.2 84.5,-191.2 84.5,-169.2 10.5,-169.2"/>
<image xlink:href="../../images/primaryKeys.png" width="11px" height="12px" preserveAspectRatio="xMinYMin meet" x="15.5" y="-186.2"/>
<text text-anchor="start" x="30.5" y="-176.3" font-family="Helvetica,sans-Serif" font-size="11.00" fill="#000000">id</text>
<polygon fill="none" stroke="#000000" points="84.5,-169.2 84.5,-191.2 203.5,-191.2 203.5,-169.2 84.5,-169.2"/>
<text text-anchor="start" x="87.5" y="-176.9" font-family="Helvetica,sans-Serif" font-size="11.00" fill="#000000">serial[10]</text>
<polygon fill="#ffffff" stroke="transparent" points="10.5,-147.2 10.5,-169.2 84.5,-169.2 84.5,-147.2 10.5,-147.2"/>
<polygon fill="none" stroke="#000000" points="10.5,-147.2 10.5,-169.2 84.5,-169.2 84.5,-147.2 10.5,-147.2"/>
<text text-anchor="start" x="30.5" y="-154.3" font-family="Helvetica,sans-Serif" font-size="11.00" fill="#000000">name</text>
<polygon fill="none" stroke="#000000" points="84.5,-147.2 84.5,-169.2 203.5,-169.2 203.5,-147.2 84.5,-147.2"/>
<text text-anchor="start" x="87.5" y="-154.9" font-family="Helvetica,sans-Serif" font-size="11.00" fill="#000000">varchar[16]</text>
<polygon fill="none" stroke="#000000" points="10.5,-125.2 10.5,-147.2 84.5,-147.2 84.5,-125.2 10.5,-125.2"/>
<text text-anchor="start" x="30.5" y="-132.3" font-family="Helvetica,sans-Serif" font-size="11.00" fill="#000000">pk0_km</text>
<polygon fill="none" stroke="#000000" points="84.5,-125.2 84.5,-147.2 203.5,-147.2 203.5,-125.2 84.5,-125.2"/>
<text text-anchor="start" x="87.5" y="-132.9" font-family="Helvetica,sans-Serif" font-size="11.00" fill="#000000">float4[8,8]</text>
<polygon fill="none" stroke="#000000" points="10.5,-103.2 10.5,-125.2 84.5,-125.2 84.5,-103.2 10.5,-103.2"/>
<text text-anchor="start" x="30.5" y="-110.3" font-family="Helvetica,sans-Serif" font-size="11.00" fill="#000000">dx</text>
<polygon fill="none" stroke="#000000" points="84.5,-103.2 84.5,-125.2 203.5,-125.2 203.5,-103.2 84.5,-103.2"/>
<text text-anchor="start" x="87.5" y="-110.9" font-family="Helvetica,sans-Serif" font-size="11.00" fill="#000000">float4[8,8]</text>
<polygon fill="#ffffff" stroke="transparent" points="10.5,-81.2 10.5,-103.2 84.5,-103.2 84.5,-81.2 10.5,-81.2"/>
<polygon fill="none" stroke="#000000" points="10.5,-81.2 10.5,-103.2 84.5,-103.2 84.5,-81.2 10.5,-81.2"/>
<text text-anchor="start" x="30.5" y="-88.3" font-family="Helvetica,sans-Serif" font-size="11.00" fill="#000000">geom</text>
<polygon fill="none" stroke="#000000" points="84.5,-81.2 84.5,-103.2 203.5,-103.2 203.5,-81.2 84.5,-81.2"/>
<text text-anchor="start" x="87.4485" y="-88.9" font-family="Helvetica,sans-Serif" font-size="11.00" fill="#000000">geometry[2147483647]</text>
<polygon fill="none" stroke="#000000" points="10.5,-59.2 10.5,-81.2 84.5,-81.2 84.5,-59.2 10.5,-59.2"/>
<text text-anchor="start" x="30.5" y="-66.3" font-family="Helvetica,sans-Serif" font-size="11.00" fill="#000000">comment</text>
<polygon fill="none" stroke="#000000" points="84.5,-59.2 84.5,-81.2 203.5,-81.2 203.5,-59.2 84.5,-59.2"/>
<text text-anchor="start" x="87.5" y="-66.9" font-family="Helvetica,sans-Serif" font-size="11.00" fill="#000000">varchar[256]</text>
<polygon fill="#ffffff" stroke="transparent" points="10.5,-40.2 10.5,-59.2 38.5,-59.2 38.5,-40.2 10.5,-40.2"/>
<polygon fill="none" stroke="#000000" points="10.5,-40.2 10.5,-59.2 38.5,-59.2 38.5,-40.2 10.5,-40.2"/>
<text text-anchor="start" x="13.5" y="-46.3" font-family="Helvetica,sans-Serif" font-size="11.00" fill="#000000">&lt; 0</text>
<polygon fill="#ffffff" stroke="transparent" points="38.5,-40.2 38.5,-59.2 84.5,-59.2 84.5,-40.2 38.5,-40.2"/>
<polygon fill="none" stroke="#000000" points="38.5,-40.2 38.5,-59.2 84.5,-59.2 84.5,-40.2 38.5,-40.2"/>
<text text-anchor="start" x="49.1105" y="-46.3" font-family="Helvetica,sans-Serif" font-size="11.00" fill="#000000">0 rows</text>
<polygon fill="#ffffff" stroke="transparent" points="84.5,-40.2 84.5,-59.2 203.5,-59.2 203.5,-40.2 84.5,-40.2"/>
<polygon fill="none" stroke="#000000" points="84.5,-40.2 84.5,-59.2 203.5,-59.2 203.5,-40.2 84.5,-40.2"/>
<text text-anchor="start" x="184.9053" y="-46.3" font-family="Helvetica,sans-Serif" font-size="11.00" fill="#000000">1 &gt;</text>
<polygon fill="none" stroke="#000000" stroke-width="2" points="9,-39.2 9,-215.2 204,-215.2 204,-39.2 9,-39.2"/>
</a>
</g>
</g>
<!-- _river_node&#45;&gt;reach -->
<g id="edge5" class="edge">
<title>_river_node:w&#45;&gt;reach:e</title>
<path fill="none" stroke="#000000" d="M240.6568,-216.8123C226.8325,-206.2354 226.6756,-180.2 203.5,-180.2"/>
<polygon fill="#000000" stroke="#000000" points="246.8739,-218.7828 253.4123,-224.6317 250.6869,-219.9914 254.5,-221.2 254.5,-221.2 254.5,-221.2 250.6869,-219.9914 255.5877,-217.7683 246.8739,-218.7828 246.8739,-218.7828"/>
<ellipse fill="none" stroke="#000000" cx="243.8235" cy="-217.8159" rx="3.2" ry="3.2"/>
</g>
<!-- _river_cross_section_profile -->
<g id="node3" class="node">
<title>_river_cross_section_profile</title>
<g id="a_node3"><a xlink:href="../../tables/_river_cross_section_profile.html" xlink:title="_river_cross_section_profile" target="_top">
<polygon fill="#ffffff" stroke="transparent" points="410,-196.7 410,-257.7 612,-257.7 612,-196.7 410,-196.7"/>
<polygon fill="#f5f5f5" stroke="transparent" points="410,-234.2 410,-257.2 612,-257.2 612,-234.2 410,-234.2"/>
<polygon fill="none" stroke="#000000" points="410,-234.2 410,-257.2 612,-257.2 612,-234.2 410,-234.2"/>
<text text-anchor="start" x="415" y="-242.8" font-family="Helvetica,sans-Serif" font-weight="bold" font-size="11.00" fill="#000000">_river_cross_section_profile</text>
<text text-anchor="start" x="577.5219" y="-242.3" font-family="Helvetica,sans-Serif" font-size="11.00" fill="#000000">[table]</text>
<polygon fill="none" stroke="#000000" points="410,-215.2 410,-234.2 612,-234.2 612,-215.2 410,-215.2"/>
<text text-anchor="start" x="413" y="-221.3" font-family="Helvetica,sans-Serif" font-size="11.00" fill="#000000">...</text>
<polygon fill="#ffffff" stroke="transparent" points="410,-196.2 410,-215.2 496,-215.2 496,-196.2 410,-196.2"/>
<polygon fill="none" stroke="#000000" points="410,-196.2 410,-215.2 496,-215.2 496,-196.2 410,-196.2"/>
<text text-anchor="start" x="413" y="-202.3" font-family="Helvetica,sans-Serif" font-size="11.00" fill="#000000">&lt; 9</text>
<polygon fill="#ffffff" stroke="transparent" points="496,-196.2 496,-215.2 567,-215.2 567,-196.2 496,-196.2"/>
<polygon fill="none" stroke="#000000" points="496,-196.2 496,-215.2 567,-215.2 567,-196.2 496,-196.2"/>
<text text-anchor="start" x="531.6105" y="-202.3" font-family="Helvetica,sans-Serif" font-size="11.00" fill="#000000">0 rows</text>
<polygon fill="#ffffff" stroke="transparent" points="567,-196.2 567,-215.2 612,-215.2 612,-196.2 567,-196.2"/>
<polygon fill="none" stroke="#000000" points="567,-196.2 567,-215.2 612,-215.2 612,-196.2 567,-196.2"/>
<text text-anchor="start" x="602.8862" y="-202.3" font-family="Helvetica,sans-Serif" font-size="11.00" fill="#000000"> &#160;</text>
</a>
</g>
</g>
<!-- _river_cross_section_profile&#45;&gt;_river_node -->
<g id="edge2" class="edge">
<title>_river_cross_section_profile:w&#45;&gt;_river_node:e</title>
<path fill="none" stroke="#000000" d="M399.5854,-226.642C383.3377,-235.4685 385.536,-265.2 361.5,-265.2"/>
<polygon fill="#000000" stroke="#000000" points="408.308,-220.4883 410.1343,-228.277 408.5765,-228.6423 406.7502,-220.8535 408.308,-220.4883"/>
<polyline fill="none" stroke="#000000" points="410,-224.2 406.1056,-225.1132 "/>
<ellipse fill="none" stroke="#000000" cx="402.9901" cy="-225.8437" rx="3.2" ry="3.2"/>
</g>
</g>
</svg>
