<?xml version="1.0" encoding="UTF-8" standalone="no"?>
<!DOCTYPE svg PUBLIC "-//W3C//DTD SVG 1.1//EN"
 "http://www.w3.org/Graphics/SVG/1.1/DTD/svg11.dtd">
<!-- Generated by graphviz version 2.40.1 (20161225.0304)
 -->
<!-- Title: oneDegreeRelationshipsDiagram Pages: 1 -->
<svg width="377pt" height="271pt"
 viewBox="0.00 0.00 377.00 270.70" xmlns="http://www.w3.org/2000/svg" xmlns:xlink="http://www.w3.org/1999/xlink">
<g id="graph0" class="graph" transform="scale(1 1) rotate(0) translate(4 266.7)">
<title>oneDegreeRelationshipsDiagram</title>
<polygon fill="#ffffff" stroke="transparent" points="-4,4 -4,-266.7 373,-266.7 373,4 -4,4"/>
<text text-anchor="middle" x="72.4936" y="-7.3" font-family="Helvetica,sans-Serif" font-size="11.00" fill="#000000">Generated by SchemaSpy</text>
<!-- _river_node -->
<g id="node1" class="node">
<title>_river_node</title>
<g id="a_node1"><a xlink:href="../../tables/_river_node.html" xlink:title="_river_node" target="_top">
<polygon fill="#ffffff" stroke="transparent" points="254,-131.7 254,-258.7 361,-258.7 361,-131.7 254,-131.7"/>
<polygon fill="#f5f5f5" stroke="transparent" points="254.5,-235.2 254.5,-258.2 361.5,-258.2 361.5,-235.2 254.5,-235.2"/>
<polygon fill="none" stroke="#000000" points="254.5,-235.2 254.5,-258.2 361.5,-258.2 361.5,-235.2 254.5,-235.2"/>
<text text-anchor="start" x="259.5" y="-243.8" font-family="Helvetica,sans-Serif" font-weight="bold" font-size="11.00" fill="#000000">_river_node</text>
<text text-anchor="start" x="327.0219" y="-243.3" font-family="Helvetica,sans-Serif" font-size="11.00" fill="#000000">[table]</text>
<polygon fill="#ffffff" stroke="transparent" points="254.5,-213.2 254.5,-235.2 361.5,-235.2 361.5,-213.2 254.5,-213.2"/>
<polygon fill="none" stroke="#000000" points="254.5,-213.2 254.5,-235.2 361.5,-235.2 361.5,-213.2 254.5,-213.2"/>
<image xlink:href="../../images/foreignKeys.png" width="11px" height="12px" preserveAspectRatio="xMinYMin meet" x="259.5" y="-230.2"/>
<text text-anchor="start" x="283.5" y="-220.3" font-family="Helvetica,sans-Serif" font-size="11.00" fill="#000000">id</text>
<polygon fill="none" stroke="#000000" points="254.5,-191.2 254.5,-213.2 361.5,-213.2 361.5,-191.2 254.5,-191.2"/>
<image xlink:href="../../images/foreignKeys.png" width="11px" height="12px" preserveAspectRatio="xMinYMin meet" x="259.5" y="-208.2"/>
<text text-anchor="start" x="283.5" y="-198.3" font-family="Helvetica,sans-Serif" font-size="11.00" fill="#000000">node_type</text>
<polygon fill="none" stroke="#000000" points="254.5,-169.2 254.5,-191.2 361.5,-191.2 361.5,-169.2 254.5,-169.2"/>
<image xlink:href="../../images/foreignKeys.png" width="11px" height="12px" preserveAspectRatio="xMinYMin meet" x="259.5" y="-186.2"/>
<text text-anchor="start" x="283.5" y="-176.3" font-family="Helvetica,sans-Serif" font-size="11.00" fill="#000000">reach</text>
<polygon fill="none" stroke="#000000" points="254.5,-150.2 254.5,-169.2 361.5,-169.2 361.5,-150.2 254.5,-150.2"/>
<text text-anchor="start" x="257.5" y="-156.3" font-family="Helvetica,sans-Serif" font-size="11.00" fill="#000000">...</text>
<polygon fill="#ffffff" stroke="transparent" points="254.5,-131.2 254.5,-150.2 288.5,-150.2 288.5,-131.2 254.5,-131.2"/>
<polygon fill="none" stroke="#000000" points="254.5,-131.2 254.5,-150.2 288.5,-150.2 288.5,-131.2 254.5,-131.2"/>
<text text-anchor="start" x="257.5" y="-137.3" font-family="Helvetica,sans-Serif" font-size="11.00" fill="#000000">&lt; 3</text>
<polygon fill="#ffffff" stroke="transparent" points="288.5,-131.2 288.5,-150.2 333.5,-150.2 333.5,-131.2 288.5,-131.2"/>
<polygon fill="none" stroke="#000000" points="288.5,-131.2 288.5,-150.2 333.5,-150.2 333.5,-131.2 288.5,-131.2"/>
<text text-anchor="start" x="298.1105" y="-137.3" font-family="Helvetica,sans-Serif" font-size="11.00" fill="#000000">0 rows</text>
<polygon fill="#ffffff" stroke="transparent" points="333.5,-131.2 333.5,-150.2 361.5,-150.2 361.5,-131.2 333.5,-131.2"/>
<polygon fill="none" stroke="#000000" points="333.5,-131.2 333.5,-150.2 361.5,-150.2 361.5,-131.2 333.5,-131.2"/>
<text text-anchor="start" x="342.9053" y="-137.3" font-family="Helvetica,sans-Serif" font-size="11.00" fill="#000000">2 &gt;</text>
</a>
</g>
</g>
<!-- reach -->
<g id="node2" class="node">
<title>reach</title>
<g id="a_node2"><a xlink:href="../../tables/reach.html" xlink:title="reach" target="_top">
<polygon fill="#ffffff" stroke="transparent" points="8,-38.2 8,-216.2 205,-216.2 205,-38.2 8,-38.2"/>
<polygon fill="#f5f5f5" stroke="transparent" points="10.5,-191.2 10.5,-214.2 203.5,-214.2 203.5,-191.2 10.5,-191.2"/>
<polygon fill="none" stroke="#000000" points="10.5,-191.2 10.5,-214.2 203.5,-214.2 203.5,-191.2 10.5,-191.2"/>
<text text-anchor="start" x="15.5" y="-199.8" font-family="Helvetica,sans-Serif" font-weight="bold" font-size="11.00" fill="#000000">reach</text>
<text text-anchor="start" x="168.5437" y="-199.3" font-family="Helvetica,sans-Serif" font-size="11.00" fill="#000000">[table]</text>
<polygon fill="none" stroke="#000000" points="10.5,-169.2 10.5,-191.2 84.5,-191.2 84.5,-169.2 10.5,-169.2"/>
<image xlink:href="../../images/primaryKeys.png" width="11px" height="12px" preserveAspectRatio="xMinYMin meet" x="15.5" y="-186.2"/>
<text text-anchor="start" x="30.5" y="-176.3" font-family="Helvetica,sans-Serif" font-size="11.00" fill="#000000">id</text>
<polygon fill="none" stroke="#000000" points="84.5,-169.2 84.5,-191.2 203.5,-191.2 203.5,-169.2 84.5,-169.2"/>
<text text-anchor="start" x="87.5" y="-176.9" font-family="Helvetica,sans-Serif" font-size="11.00" fill="#000000">serial[10]</text>
<polygon fill="#ffffff" stroke="transparent" points="10.5,-147.2 10.5,-169.2 84.5,-169.2 84.5,-147.2 10.5,-147.2"/>
<polygon fill="none" stroke="#000000" points="10.5,-147.2 10.5,-169.2 84.5,-169.2 84.5,-147.2 10.5,-147.2"/>
<text text-anchor="start" x="30.5" y="-154.3" font-family="Helvetica,sans-Serif" font-size="11.00" fill="#000000">name</text>
<polygon fill="none" stroke="#000000" points="84.5,-147.2 84.5,-169.2 203.5,-169.2 203.5,-147.2 84.5,-147.2"/>
<text text-anchor="start" x="87.5" y="-154.9" font-family="Helvetica,sans-Serif" font-size="11.00" fill="#000000">varchar[16]</text>
<polygon fill="none" stroke="#000000" points="10.5,-125.2 10.5,-147.2 84.5,-147.2 84.5,-125.2 10.5,-125.2"/>
<text text-anchor="start" x="30.5" y="-132.3" font-family="Helvetica,sans-Serif" font-size="11.00" fill="#000000">pk0_km</text>
<polygon fill="none" stroke="#000000" points="84.5,-125.2 84.5,-147.2 203.5,-147.2 203.5,-125.2 84.5,-125.2"/>
<text text-anchor="start" x="87.5" y="-132.9" font-family="Helvetica,sans-Serif" font-size="11.00" fill="#000000">float4[8,8]</text>
<polygon fill="none" stroke="#000000" points="10.5,-103.2 10.5,-125.2 84.5,-125.2 84.5,-103.2 10.5,-103.2"/>
<text text-anchor="start" x="30.5" y="-110.3" font-family="Helvetica,sans-Serif" font-size="11.00" fill="#000000">dx</text>
<polygon fill="none" stroke="#000000" points="84.5,-103.2 84.5,-125.2 203.5,-125.2 203.5,-103.2 84.5,-103.2"/>
<text text-anchor="start" x="87.5" y="-110.9" font-family="Helvetica,sans-Serif" font-size="11.00" fill="#000000">float4[8,8]</text>
<polygon fill="#ffffff" stroke="transparent" points="10.5,-81.2 10.5,-103.2 84.5,-103.2 84.5,-81.2 10.5,-81.2"/>
<polygon fill="none" stroke="#000000" points="10.5,-81.2 10.5,-103.2 84.5,-103.2 84.5,-81.2 10.5,-81.2"/>
<text text-anchor="start" x="30.5" y="-88.3" font-family="Helvetica,sans-Serif" font-size="11.00" fill="#000000">geom</text>
<polygon fill="none" stroke="#000000" points="84.5,-81.2 84.5,-103.2 203.5,-103.2 203.5,-81.2 84.5,-81.2"/>
<text text-anchor="start" x="87.4485" y="-88.9" font-family="Helvetica,sans-Serif" font-size="11.00" fill="#000000">geometry[2147483647]</text>
<polygon fill="none" stroke="#000000" points="10.5,-59.2 10.5,-81.2 84.5,-81.2 84.5,-59.2 10.5,-59.2"/>
<text text-anchor="start" x="30.5" y="-66.3" font-family="Helvetica,sans-Serif" font-size="11.00" fill="#000000">comment</text>
<polygon fill="none" stroke="#000000" points="84.5,-59.2 84.5,-81.2 203.5,-81.2 203.5,-59.2 84.5,-59.2"/>
<text text-anchor="start" x="87.5" y="-66.9" font-family="Helvetica,sans-Serif" font-size="11.00" fill="#000000">varchar[256]</text>
<polygon fill="#ffffff" stroke="transparent" points="10.5,-40.2 10.5,-59.2 38.5,-59.2 38.5,-40.2 10.5,-40.2"/>
<polygon fill="none" stroke="#000000" points="10.5,-40.2 10.5,-59.2 38.5,-59.2 38.5,-40.2 10.5,-40.2"/>
<text text-anchor="start" x="13.5" y="-46.3" font-family="Helvetica,sans-Serif" font-size="11.00" fill="#000000">&lt; 0</text>
<polygon fill="#ffffff" stroke="transparent" points="38.5,-40.2 38.5,-59.2 84.5,-59.2 84.5,-40.2 38.5,-40.2"/>
<polygon fill="none" stroke="#000000" points="38.5,-40.2 38.5,-59.2 84.5,-59.2 84.5,-40.2 38.5,-40.2"/>
<text text-anchor="start" x="49.1105" y="-46.3" font-family="Helvetica,sans-Serif" font-size="11.00" fill="#000000">0 rows</text>
<polygon fill="#ffffff" stroke="transparent" points="84.5,-40.2 84.5,-59.2 203.5,-59.2 203.5,-40.2 84.5,-40.2"/>
<polygon fill="none" stroke="#000000" points="84.5,-40.2 84.5,-59.2 203.5,-59.2 203.5,-40.2 84.5,-40.2"/>
<text text-anchor="start" x="184.9053" y="-46.3" font-family="Helvetica,sans-Serif" font-size="11.00" fill="#000000">1 &gt;</text>
<polygon fill="none" stroke="#000000" stroke-width="2" points="9,-39.2 9,-215.2 204,-215.2 204,-39.2 9,-39.2"/>
</a>
</g>
</g>
<!-- _river_node&#45;&gt;reach -->
<g id="edge1" class="edge">
<title>_river_node:w&#45;&gt;reach:e</title>
<path fill="none" stroke="#000000" d="M239.776,-180.2C227.7815,-180.2 220.3229,-180.2 203.5,-180.2"/>
<polygon fill="#000000" stroke="#000000" points="246.5,-180.2001 254.5,-183.8 250.5,-180.2 254.5,-180.2 254.5,-180.2 254.5,-180.2 250.5,-180.2 254.5,-176.6 246.5,-180.2001 246.5,-180.2001"/>
<ellipse fill="none" stroke="#000000" cx="243.3" cy="-180.2001" rx="3.2" ry="3.2"/>
</g>
</g>
</svg>
