<?xml version="1.0" encoding="UTF-8" standalone="no"?>
<!DOCTYPE svg PUBLIC "-//W3C//DTD SVG 1.1//EN"
 "http://www.w3.org/Graphics/SVG/1.1/DTD/svg11.dtd">
<!-- Generated by graphviz version 2.40.1 (20161225.0304)
 -->
<!-- Title: oneDegreeRelationshipsDiagram Pages: 1 -->
<svg width="349pt" height="781pt"
 viewBox="0.00 0.00 349.00 781.20" xmlns="http://www.w3.org/2000/svg" xmlns:xlink="http://www.w3.org/1999/xlink">
<g id="graph0" class="graph" transform="scale(1 1) rotate(0) translate(4 777.2)">
<title>oneDegreeRelationshipsDiagram</title>
<polygon fill="#ffffff" stroke="transparent" points="-4,4 -4,-777.2 345,-777.2 345,4 -4,4"/>
<text text-anchor="middle" x="72.4936" y="-7.3" font-family="Helvetica,sans-Serif" font-size="11.00" fill="#000000">Generated by SchemaSpy</text>
<!-- regul_gate_link -->
<g id="node1" class="node">
<title>regul_gate_link</title>
<g id="a_node1"><a xlink:href="../../tables/regul_gate_link.html" xlink:title="regul_gate_link" target="_top">
<polygon fill="#ffffff" stroke="transparent" points="8,-38.2 8,-769.2 333,-769.2 333,-38.2 8,-38.2"/>
<polygon fill="#f5f5f5" stroke="transparent" points="10.5,-743.7 10.5,-766.7 331.5,-766.7 331.5,-743.7 10.5,-743.7"/>
<polygon fill="none" stroke="#000000" points="10.5,-743.7 10.5,-766.7 331.5,-766.7 331.5,-743.7 10.5,-743.7"/>
<text text-anchor="start" x="15.5" y="-752.3" font-family="Helvetica,sans-Serif" font-weight="bold" font-size="11.00" fill="#000000">regul_gate_link</text>
<text text-anchor="start" x="298.3895" y="-751.8" font-family="Helvetica,sans-Serif" font-size="11.00" fill="#000000">[view]</text>
<polygon fill="none" stroke="#000000" points="10.5,-721.7 10.5,-743.7 139.5,-743.7 139.5,-721.7 10.5,-721.7"/>
<text text-anchor="start" x="30.5" y="-728.8" font-family="Helvetica,sans-Serif" font-size="11.00" fill="#000000">id</text>
<polygon fill="none" stroke="#000000" points="139.5,-721.7 139.5,-743.7 331.5,-743.7 331.5,-721.7 139.5,-721.7"/>
<text text-anchor="start" x="142.5" y="-729.4" font-family="Helvetica,sans-Serif" font-size="11.00" fill="#000000">int4[10]</text>
<polygon fill="none" stroke="#000000" points="10.5,-699.7 10.5,-721.7 139.5,-721.7 139.5,-699.7 10.5,-699.7"/>
<text text-anchor="start" x="30.5" y="-706.8" font-family="Helvetica,sans-Serif" font-size="11.00" fill="#000000">name</text>
<polygon fill="none" stroke="#000000" points="139.5,-699.7 139.5,-721.7 331.5,-721.7 331.5,-699.7 139.5,-699.7"/>
<text text-anchor="start" x="142.5" y="-707.4" font-family="Helvetica,sans-Serif" font-size="11.00" fill="#000000">varchar[24]</text>
<polygon fill="none" stroke="#000000" points="10.5,-677.7 10.5,-699.7 139.5,-699.7 139.5,-677.7 10.5,-677.7"/>
<text text-anchor="start" x="30.5" y="-684.8" font-family="Helvetica,sans-Serif" font-size="11.00" fill="#000000">up</text>
<polygon fill="none" stroke="#000000" points="139.5,-677.7 139.5,-699.7 331.5,-699.7 331.5,-677.7 139.5,-677.7"/>
<text text-anchor="start" x="142.5" y="-685.4" font-family="Helvetica,sans-Serif" font-size="11.00" fill="#000000">int4[10]</text>
<polygon fill="none" stroke="#000000" points="10.5,-655.7 10.5,-677.7 139.5,-677.7 139.5,-655.7 10.5,-655.7"/>
<text text-anchor="start" x="30.5" y="-662.8" font-family="Helvetica,sans-Serif" font-size="11.00" fill="#000000">down</text>
<polygon fill="none" stroke="#000000" points="139.5,-655.7 139.5,-677.7 331.5,-677.7 331.5,-655.7 139.5,-655.7"/>
<text text-anchor="start" x="142.5" y="-663.4" font-family="Helvetica,sans-Serif" font-size="11.00" fill="#000000">int4[10]</text>
<polygon fill="none" stroke="#000000" points="10.5,-633.7 10.5,-655.7 139.5,-655.7 139.5,-633.7 10.5,-633.7"/>
<text text-anchor="start" x="30.5" y="-640.8" font-family="Helvetica,sans-Serif" font-size="11.00" fill="#000000">z_invert</text>
<polygon fill="none" stroke="#000000" points="139.5,-633.7 139.5,-655.7 331.5,-655.7 331.5,-633.7 139.5,-633.7"/>
<text text-anchor="start" x="142.5" y="-641.4" font-family="Helvetica,sans-Serif" font-size="11.00" fill="#000000">float4[8,8]</text>
<polygon fill="none" stroke="#000000" points="10.5,-611.7 10.5,-633.7 139.5,-633.7 139.5,-611.7 10.5,-611.7"/>
<text text-anchor="start" x="30.5" y="-618.8" font-family="Helvetica,sans-Serif" font-size="11.00" fill="#000000">z_ceiling</text>
<polygon fill="none" stroke="#000000" points="139.5,-611.7 139.5,-633.7 331.5,-633.7 331.5,-611.7 139.5,-611.7"/>
<text text-anchor="start" x="142.5" y="-619.4" font-family="Helvetica,sans-Serif" font-size="11.00" fill="#000000">float4[8,8]</text>
<polygon fill="none" stroke="#000000" points="10.5,-589.7 10.5,-611.7 139.5,-611.7 139.5,-589.7 10.5,-589.7"/>
<text text-anchor="start" x="30.5" y="-596.8" font-family="Helvetica,sans-Serif" font-size="11.00" fill="#000000">width</text>
<polygon fill="none" stroke="#000000" points="139.5,-589.7 139.5,-611.7 331.5,-611.7 331.5,-589.7 139.5,-589.7"/>
<text text-anchor="start" x="142.5" y="-597.4" font-family="Helvetica,sans-Serif" font-size="11.00" fill="#000000">float4[8,8]</text>
<polygon fill="none" stroke="#000000" points="10.5,-567.7 10.5,-589.7 139.5,-589.7 139.5,-567.7 10.5,-567.7"/>
<text text-anchor="start" x="30.5" y="-574.8" font-family="Helvetica,sans-Serif" font-size="11.00" fill="#000000">cc</text>
<polygon fill="none" stroke="#000000" points="139.5,-567.7 139.5,-589.7 331.5,-589.7 331.5,-567.7 139.5,-567.7"/>
<text text-anchor="start" x="142.5" y="-575.4" font-family="Helvetica,sans-Serif" font-size="11.00" fill="#000000">float4[8,8]</text>
<polygon fill="none" stroke="#000000" points="10.5,-545.7 10.5,-567.7 139.5,-567.7 139.5,-545.7 10.5,-545.7"/>
<text text-anchor="start" x="30.5" y="-552.8" font-family="Helvetica,sans-Serif" font-size="11.00" fill="#000000">action_gate_type</text>
<polygon fill="none" stroke="#000000" points="139.5,-545.7 139.5,-567.7 331.5,-567.7 331.5,-545.7 139.5,-545.7"/>
<text text-anchor="start" x="142.5" y="-553.4" font-family="Helvetica,sans-Serif" font-size="11.00" fill="#000000">hydra_action_gate_type[2147483647]</text>
<polygon fill="none" stroke="#000000" points="10.5,-523.7 10.5,-545.7 139.5,-545.7 139.5,-523.7 10.5,-523.7"/>
<text text-anchor="start" x="30.5" y="-530.8" font-family="Helvetica,sans-Serif" font-size="11.00" fill="#000000">z_invert_stop</text>
<polygon fill="none" stroke="#000000" points="139.5,-523.7 139.5,-545.7 331.5,-545.7 331.5,-523.7 139.5,-523.7"/>
<text text-anchor="start" x="142.5" y="-531.4" font-family="Helvetica,sans-Serif" font-size="11.00" fill="#000000">float4[8,8]</text>
<polygon fill="none" stroke="#000000" points="10.5,-501.7 10.5,-523.7 139.5,-523.7 139.5,-501.7 10.5,-501.7"/>
<text text-anchor="start" x="30.5" y="-508.8" font-family="Helvetica,sans-Serif" font-size="11.00" fill="#000000">z_ceiling_stop</text>
<polygon fill="none" stroke="#000000" points="139.5,-501.7 139.5,-523.7 331.5,-523.7 331.5,-501.7 139.5,-501.7"/>
<text text-anchor="start" x="142.5" y="-509.4" font-family="Helvetica,sans-Serif" font-size="11.00" fill="#000000">float4[8,8]</text>
<polygon fill="none" stroke="#000000" points="10.5,-479.7 10.5,-501.7 139.5,-501.7 139.5,-479.7 10.5,-479.7"/>
<text text-anchor="start" x="30.5" y="-486.8" font-family="Helvetica,sans-Serif" font-size="11.00" fill="#000000">v_max_cms</text>
<polygon fill="none" stroke="#000000" points="139.5,-479.7 139.5,-501.7 331.5,-501.7 331.5,-479.7 139.5,-479.7"/>
<text text-anchor="start" x="142.5" y="-487.4" font-family="Helvetica,sans-Serif" font-size="11.00" fill="#000000">float4[8,8]</text>
<polygon fill="none" stroke="#000000" points="10.5,-457.7 10.5,-479.7 139.5,-479.7 139.5,-457.7 10.5,-457.7"/>
<text text-anchor="start" x="30.5" y="-464.8" font-family="Helvetica,sans-Serif" font-size="11.00" fill="#000000">dt_regul_hr</text>
<polygon fill="none" stroke="#000000" points="139.5,-457.7 139.5,-479.7 331.5,-479.7 331.5,-457.7 139.5,-457.7"/>
<text text-anchor="start" x="142.5" y="-465.4" font-family="Helvetica,sans-Serif" font-size="11.00" fill="#000000">float4[8,8]</text>
<polygon fill="none" stroke="#000000" points="10.5,-435.7 10.5,-457.7 139.5,-457.7 139.5,-435.7 10.5,-435.7"/>
<text text-anchor="start" x="30.5" y="-442.8" font-family="Helvetica,sans-Serif" font-size="11.00" fill="#000000">mode_regul</text>
<polygon fill="none" stroke="#000000" points="139.5,-435.7 139.5,-457.7 331.5,-457.7 331.5,-435.7 139.5,-435.7"/>
<text text-anchor="start" x="142.2651" y="-443.4" font-family="Helvetica,sans-Serif" font-size="11.00" fill="#000000">hydra_gate_mode_regul[2147483647]</text>
<polygon fill="none" stroke="#000000" points="10.5,-413.7 10.5,-435.7 139.5,-435.7 139.5,-413.7 10.5,-413.7"/>
<text text-anchor="start" x="30.5" y="-420.8" font-family="Helvetica,sans-Serif" font-size="11.00" fill="#000000">z_control_node</text>
<polygon fill="none" stroke="#000000" points="139.5,-413.7 139.5,-435.7 331.5,-435.7 331.5,-413.7 139.5,-413.7"/>
<text text-anchor="start" x="142.5" y="-421.4" font-family="Helvetica,sans-Serif" font-size="11.00" fill="#000000">int4[10]</text>
<polygon fill="none" stroke="#000000" points="10.5,-391.7 10.5,-413.7 139.5,-413.7 139.5,-391.7 10.5,-391.7"/>
<text text-anchor="start" x="30.5" y="-398.8" font-family="Helvetica,sans-Serif" font-size="11.00" fill="#000000">z_pid_array</text>
<polygon fill="none" stroke="#000000" points="139.5,-391.7 139.5,-413.7 331.5,-413.7 331.5,-391.7 139.5,-391.7"/>
<text text-anchor="start" x="142.5" y="-399.4" font-family="Helvetica,sans-Serif" font-size="11.00" fill="#000000">_float4[8,8]</text>
<polygon fill="none" stroke="#000000" points="10.5,-369.7 10.5,-391.7 139.5,-391.7 139.5,-369.7 10.5,-369.7"/>
<text text-anchor="start" x="30.5" y="-376.8" font-family="Helvetica,sans-Serif" font-size="11.00" fill="#000000">z_tz_array</text>
<polygon fill="none" stroke="#000000" points="139.5,-369.7 139.5,-391.7 331.5,-391.7 331.5,-369.7 139.5,-369.7"/>
<text text-anchor="start" x="142.5" y="-377.4" font-family="Helvetica,sans-Serif" font-size="11.00" fill="#000000">_float4[8,8]</text>
<polygon fill="none" stroke="#000000" points="10.5,-347.7 10.5,-369.7 139.5,-369.7 139.5,-347.7 10.5,-347.7"/>
<text text-anchor="start" x="30.5" y="-354.8" font-family="Helvetica,sans-Serif" font-size="11.00" fill="#000000">q_z_crit</text>
<polygon fill="none" stroke="#000000" points="139.5,-347.7 139.5,-369.7 331.5,-369.7 331.5,-347.7 139.5,-347.7"/>
<text text-anchor="start" x="142.5" y="-355.4" font-family="Helvetica,sans-Serif" font-size="11.00" fill="#000000">float4[8,8]</text>
<polygon fill="none" stroke="#000000" points="10.5,-325.7 10.5,-347.7 139.5,-347.7 139.5,-325.7 10.5,-325.7"/>
<text text-anchor="start" x="30.5" y="-332.8" font-family="Helvetica,sans-Serif" font-size="11.00" fill="#000000">q_tq_array</text>
<polygon fill="none" stroke="#000000" points="139.5,-325.7 139.5,-347.7 331.5,-347.7 331.5,-325.7 139.5,-325.7"/>
<text text-anchor="start" x="142.5" y="-333.4" font-family="Helvetica,sans-Serif" font-size="11.00" fill="#000000">_float4[8,8]</text>
<polygon fill="none" stroke="#000000" points="10.5,-303.7 10.5,-325.7 139.5,-325.7 139.5,-303.7 10.5,-303.7"/>
<text text-anchor="start" x="30.5" y="-310.8" font-family="Helvetica,sans-Serif" font-size="11.00" fill="#000000">hq_array</text>
<polygon fill="none" stroke="#000000" points="139.5,-303.7 139.5,-325.7 331.5,-325.7 331.5,-303.7 139.5,-303.7"/>
<text text-anchor="start" x="142.5" y="-311.4" font-family="Helvetica,sans-Serif" font-size="11.00" fill="#000000">_float4[8,8]</text>
<polygon fill="none" stroke="#000000" points="10.5,-281.7 10.5,-303.7 139.5,-303.7 139.5,-281.7 10.5,-281.7"/>
<text text-anchor="start" x="30.5" y="-288.8" font-family="Helvetica,sans-Serif" font-size="11.00" fill="#000000">nr_z_gate</text>
<polygon fill="none" stroke="#000000" points="139.5,-281.7 139.5,-303.7 331.5,-303.7 331.5,-281.7 139.5,-281.7"/>
<text text-anchor="start" x="142.5" y="-289.4" font-family="Helvetica,sans-Serif" font-size="11.00" fill="#000000">float4[8,8]</text>
<polygon fill="none" stroke="#000000" points="10.5,-259.7 10.5,-281.7 139.5,-281.7 139.5,-259.7 10.5,-259.7"/>
<text text-anchor="start" x="30.5" y="-266.8" font-family="Helvetica,sans-Serif" font-size="11.00" fill="#000000">cc_submerged</text>
<polygon fill="none" stroke="#000000" points="139.5,-259.7 139.5,-281.7 331.5,-281.7 331.5,-259.7 139.5,-259.7"/>
<text text-anchor="start" x="142.5" y="-267.4" font-family="Helvetica,sans-Serif" font-size="11.00" fill="#000000">float4[8,8]</text>
<polygon fill="none" stroke="#000000" points="10.5,-237.7 10.5,-259.7 139.5,-259.7 139.5,-237.7 10.5,-237.7"/>
<text text-anchor="start" x="30.5" y="-244.8" font-family="Helvetica,sans-Serif" font-size="11.00" fill="#000000">h_open</text>
<polygon fill="none" stroke="#000000" points="139.5,-237.7 139.5,-259.7 331.5,-259.7 331.5,-237.7 139.5,-237.7"/>
<text text-anchor="start" x="142.5" y="-245.4" font-family="Helvetica,sans-Serif" font-size="11.00" fill="#000000">float4[8,8]</text>
<polygon fill="none" stroke="#000000" points="10.5,-215.7 10.5,-237.7 139.5,-237.7 139.5,-215.7 10.5,-215.7"/>
<text text-anchor="start" x="30.5" y="-222.8" font-family="Helvetica,sans-Serif" font-size="11.00" fill="#000000">h_close</text>
<polygon fill="none" stroke="#000000" points="139.5,-215.7 139.5,-237.7 331.5,-237.7 331.5,-215.7 139.5,-215.7"/>
<text text-anchor="start" x="142.5" y="-223.4" font-family="Helvetica,sans-Serif" font-size="11.00" fill="#000000">float4[8,8]</text>
<polygon fill="none" stroke="#000000" points="10.5,-193.7 10.5,-215.7 139.5,-215.7 139.5,-193.7 10.5,-193.7"/>
<text text-anchor="start" x="30.5" y="-200.8" font-family="Helvetica,sans-Serif" font-size="11.00" fill="#000000">geom</text>
<polygon fill="none" stroke="#000000" points="139.5,-193.7 139.5,-215.7 331.5,-215.7 331.5,-193.7 139.5,-193.7"/>
<text text-anchor="start" x="142.5" y="-201.4" font-family="Helvetica,sans-Serif" font-size="11.00" fill="#000000">geometry[2147483647]</text>
<polygon fill="none" stroke="#000000" points="10.5,-171.7 10.5,-193.7 139.5,-193.7 139.5,-171.7 10.5,-171.7"/>
<text text-anchor="start" x="30.5" y="-178.8" font-family="Helvetica,sans-Serif" font-size="11.00" fill="#000000">configuration</text>
<polygon fill="none" stroke="#000000" points="139.5,-171.7 139.5,-193.7 331.5,-193.7 331.5,-171.7 139.5,-171.7"/>
<text text-anchor="start" x="142.5" y="-179.4" font-family="Helvetica,sans-Serif" font-size="11.00" fill="#000000">varchar[2147483647]</text>
<polygon fill="none" stroke="#000000" points="10.5,-149.7 10.5,-171.7 139.5,-171.7 139.5,-149.7 10.5,-149.7"/>
<text text-anchor="start" x="30.5" y="-156.8" font-family="Helvetica,sans-Serif" font-size="11.00" fill="#000000">generated</text>
<polygon fill="none" stroke="#000000" points="139.5,-149.7 139.5,-171.7 331.5,-171.7 331.5,-149.7 139.5,-149.7"/>
<text text-anchor="start" x="142.5" y="-157.4" font-family="Helvetica,sans-Serif" font-size="11.00" fill="#000000">int4[10]</text>
<polygon fill="none" stroke="#000000" points="10.5,-127.7 10.5,-149.7 139.5,-149.7 139.5,-127.7 10.5,-127.7"/>
<text text-anchor="start" x="30.5" y="-134.8" font-family="Helvetica,sans-Serif" font-size="11.00" fill="#000000">validity</text>
<polygon fill="none" stroke="#000000" points="139.5,-127.7 139.5,-149.7 331.5,-149.7 331.5,-127.7 139.5,-127.7"/>
<text text-anchor="start" x="142.5" y="-135.4" font-family="Helvetica,sans-Serif" font-size="11.00" fill="#000000">bool[1]</text>
<polygon fill="none" stroke="#000000" points="10.5,-105.7 10.5,-127.7 139.5,-127.7 139.5,-105.7 10.5,-105.7"/>
<text text-anchor="start" x="30.5" y="-112.8" font-family="Helvetica,sans-Serif" font-size="11.00" fill="#000000">up_type</text>
<polygon fill="none" stroke="#000000" points="139.5,-105.7 139.5,-127.7 331.5,-127.7 331.5,-105.7 139.5,-105.7"/>
<text text-anchor="start" x="142.5" y="-113.4" font-family="Helvetica,sans-Serif" font-size="11.00" fill="#000000">hydra_node_type[2147483647]</text>
<polygon fill="none" stroke="#000000" points="10.5,-83.7 10.5,-105.7 139.5,-105.7 139.5,-83.7 10.5,-83.7"/>
<text text-anchor="start" x="30.5" y="-90.8" font-family="Helvetica,sans-Serif" font-size="11.00" fill="#000000">down_type</text>
<polygon fill="none" stroke="#000000" points="139.5,-83.7 139.5,-105.7 331.5,-105.7 331.5,-83.7 139.5,-83.7"/>
<text text-anchor="start" x="142.5" y="-91.4" font-family="Helvetica,sans-Serif" font-size="11.00" fill="#000000">hydra_node_type[2147483647]</text>
<polygon fill="none" stroke="#000000" points="10.5,-61.7 10.5,-83.7 139.5,-83.7 139.5,-61.7 10.5,-61.7"/>
<text text-anchor="start" x="30.5" y="-68.8" font-family="Helvetica,sans-Serif" font-size="11.00" fill="#000000">configuration_json</text>
<polygon fill="none" stroke="#000000" points="139.5,-61.7 139.5,-83.7 331.5,-83.7 331.5,-61.7 139.5,-61.7"/>
<text text-anchor="start" x="142.5" y="-69.4" font-family="Helvetica,sans-Serif" font-size="11.00" fill="#000000">json[2147483647]</text>
<polygon fill="none" stroke="#000000" points="10.5,-39.7 10.5,-61.7 139.5,-61.7 139.5,-39.7 10.5,-39.7"/>
<text text-anchor="start" x="30.5" y="-46.8" font-family="Helvetica,sans-Serif" font-size="11.00" fill="#000000">comment</text>
<polygon fill="none" stroke="#000000" points="139.5,-39.7 139.5,-61.7 331.5,-61.7 331.5,-39.7 139.5,-39.7"/>
<text text-anchor="start" x="142.5" y="-47.4" font-family="Helvetica,sans-Serif" font-size="11.00" fill="#000000">varchar[2147483647]</text>
<polygon fill="none" stroke="#000000" stroke-width="2" points="9,-39.2 9,-768.2 332,-768.2 332,-39.2 9,-39.2"/>
</a>
</g>
</g>
</g>
</svg>
