<?xml version="1.0" encoding="UTF-8" standalone="no"?>
<!DOCTYPE svg PUBLIC "-//W3C//DTD SVG 1.1//EN"
 "http://www.w3.org/Graphics/SVG/1.1/DTD/svg11.dtd">
<!-- Generated by graphviz version 2.40.1 (20161225.0304)
 -->
<!-- Title: oneDegreeRelationshipsDiagram Pages: 1 -->
<svg width="452pt" height="715pt"
 viewBox="0.00 0.00 452.00 715.20" xmlns="http://www.w3.org/2000/svg" xmlns:xlink="http://www.w3.org/1999/xlink">
<g id="graph0" class="graph" transform="scale(1 1) rotate(0) translate(4 711.2)">
<title>oneDegreeRelationshipsDiagram</title>
<polygon fill="#ffffff" stroke="transparent" points="-4,4 -4,-711.2 448,-711.2 448,4 -4,4"/>
<text text-anchor="middle" x="72.4936" y="-7.3" font-family="Helvetica,sans-Serif" font-size="11.00" fill="#000000">Generated by SchemaSpy</text>
<!-- regul_sluice_gate_singularity -->
<g id="node1" class="node">
<title>regul_sluice_gate_singularity</title>
<g id="a_node1"><a xlink:href="../../tables/regul_sluice_gate_singularity.html" xlink:title="regul_sluice_gate_singularity" target="_top">
<polygon fill="#ffffff" stroke="transparent" points="8,-38.2 8,-703.2 436,-703.2 436,-38.2 8,-38.2"/>
<polygon fill="#f5f5f5" stroke="transparent" points="10,-677.7 10,-700.7 434,-700.7 434,-677.7 10,-677.7"/>
<polygon fill="none" stroke="#000000" points="10,-677.7 10,-700.7 434,-700.7 434,-677.7 10,-677.7"/>
<text text-anchor="start" x="15" y="-686.3" font-family="Helvetica,sans-Serif" font-weight="bold" font-size="11.00" fill="#000000">regul_sluice_gate_singularity</text>
<text text-anchor="start" x="400.8895" y="-685.8" font-family="Helvetica,sans-Serif" font-size="11.00" fill="#000000">[view]</text>
<polygon fill="none" stroke="#000000" points="10,-655.7 10,-677.7 242,-677.7 242,-655.7 10,-655.7"/>
<text text-anchor="start" x="30" y="-662.8" font-family="Helvetica,sans-Serif" font-size="11.00" fill="#000000">id</text>
<polygon fill="none" stroke="#000000" points="242,-655.7 242,-677.7 434,-677.7 434,-655.7 242,-655.7"/>
<text text-anchor="start" x="245" y="-663.4" font-family="Helvetica,sans-Serif" font-size="11.00" fill="#000000">int4[10]</text>
<polygon fill="none" stroke="#000000" points="10,-633.7 10,-655.7 242,-655.7 242,-633.7 10,-633.7"/>
<text text-anchor="start" x="30" y="-640.8" font-family="Helvetica,sans-Serif" font-size="11.00" fill="#000000">name</text>
<polygon fill="none" stroke="#000000" points="242,-633.7 242,-655.7 434,-655.7 434,-633.7 242,-633.7"/>
<text text-anchor="start" x="245" y="-641.4" font-family="Helvetica,sans-Serif" font-size="11.00" fill="#000000">varchar[24]</text>
<polygon fill="none" stroke="#000000" points="10,-611.7 10,-633.7 242,-633.7 242,-611.7 10,-611.7"/>
<text text-anchor="start" x="30" y="-618.8" font-family="Helvetica,sans-Serif" font-size="11.00" fill="#000000">node</text>
<polygon fill="none" stroke="#000000" points="242,-611.7 242,-633.7 434,-633.7 434,-611.7 242,-611.7"/>
<text text-anchor="start" x="245" y="-619.4" font-family="Helvetica,sans-Serif" font-size="11.00" fill="#000000">int4[10]</text>
<polygon fill="none" stroke="#000000" points="10,-589.7 10,-611.7 242,-611.7 242,-589.7 10,-589.7"/>
<text text-anchor="start" x="30" y="-596.8" font-family="Helvetica,sans-Serif" font-size="11.00" fill="#000000">z_invert</text>
<polygon fill="none" stroke="#000000" points="242,-589.7 242,-611.7 434,-611.7 434,-589.7 242,-589.7"/>
<text text-anchor="start" x="245" y="-597.4" font-family="Helvetica,sans-Serif" font-size="11.00" fill="#000000">float4[8,8]</text>
<polygon fill="none" stroke="#000000" points="10,-567.7 10,-589.7 242,-589.7 242,-567.7 10,-567.7"/>
<text text-anchor="start" x="30" y="-574.8" font-family="Helvetica,sans-Serif" font-size="11.00" fill="#000000">z_ceiling</text>
<polygon fill="none" stroke="#000000" points="242,-567.7 242,-589.7 434,-589.7 434,-567.7 242,-567.7"/>
<text text-anchor="start" x="245" y="-575.4" font-family="Helvetica,sans-Serif" font-size="11.00" fill="#000000">float4[8,8]</text>
<polygon fill="none" stroke="#000000" points="10,-545.7 10,-567.7 242,-567.7 242,-545.7 10,-545.7"/>
<text text-anchor="start" x="30" y="-552.8" font-family="Helvetica,sans-Serif" font-size="11.00" fill="#000000">width</text>
<polygon fill="none" stroke="#000000" points="242,-545.7 242,-567.7 434,-567.7 434,-545.7 242,-545.7"/>
<text text-anchor="start" x="245" y="-553.4" font-family="Helvetica,sans-Serif" font-size="11.00" fill="#000000">float4[8,8]</text>
<polygon fill="none" stroke="#000000" points="10,-523.7 10,-545.7 242,-545.7 242,-523.7 10,-523.7"/>
<text text-anchor="start" x="30" y="-530.8" font-family="Helvetica,sans-Serif" font-size="11.00" fill="#000000">cc</text>
<polygon fill="none" stroke="#000000" points="242,-523.7 242,-545.7 434,-545.7 434,-523.7 242,-523.7"/>
<text text-anchor="start" x="245" y="-531.4" font-family="Helvetica,sans-Serif" font-size="11.00" fill="#000000">float4[8,8]</text>
<polygon fill="none" stroke="#000000" points="10,-501.7 10,-523.7 242,-523.7 242,-501.7 10,-501.7"/>
<text text-anchor="start" x="30" y="-508.8" font-family="Helvetica,sans-Serif" font-size="11.00" fill="#000000">action_gate_type</text>
<polygon fill="none" stroke="#000000" points="242,-501.7 242,-523.7 434,-523.7 434,-501.7 242,-501.7"/>
<text text-anchor="start" x="245" y="-509.4" font-family="Helvetica,sans-Serif" font-size="11.00" fill="#000000">hydra_action_gate_type[2147483647]</text>
<polygon fill="none" stroke="#000000" points="10,-479.7 10,-501.7 242,-501.7 242,-479.7 10,-479.7"/>
<text text-anchor="start" x="30" y="-486.8" font-family="Helvetica,sans-Serif" font-size="11.00" fill="#000000">z_invert_stop</text>
<polygon fill="none" stroke="#000000" points="242,-479.7 242,-501.7 434,-501.7 434,-479.7 242,-479.7"/>
<text text-anchor="start" x="245" y="-487.4" font-family="Helvetica,sans-Serif" font-size="11.00" fill="#000000">float4[8,8]</text>
<polygon fill="none" stroke="#000000" points="10,-457.7 10,-479.7 242,-479.7 242,-457.7 10,-457.7"/>
<text text-anchor="start" x="30" y="-464.8" font-family="Helvetica,sans-Serif" font-size="11.00" fill="#000000">z_ceiling_stop</text>
<polygon fill="none" stroke="#000000" points="242,-457.7 242,-479.7 434,-479.7 434,-457.7 242,-457.7"/>
<text text-anchor="start" x="245" y="-465.4" font-family="Helvetica,sans-Serif" font-size="11.00" fill="#000000">float4[8,8]</text>
<polygon fill="none" stroke="#000000" points="10,-435.7 10,-457.7 242,-457.7 242,-435.7 10,-435.7"/>
<text text-anchor="start" x="30" y="-442.8" font-family="Helvetica,sans-Serif" font-size="11.00" fill="#000000">v_max_cms</text>
<polygon fill="none" stroke="#000000" points="242,-435.7 242,-457.7 434,-457.7 434,-435.7 242,-435.7"/>
<text text-anchor="start" x="245" y="-443.4" font-family="Helvetica,sans-Serif" font-size="11.00" fill="#000000">float4[8,8]</text>
<polygon fill="none" stroke="#000000" points="10,-413.7 10,-435.7 242,-435.7 242,-413.7 10,-413.7"/>
<text text-anchor="start" x="30" y="-420.8" font-family="Helvetica,sans-Serif" font-size="11.00" fill="#000000">dt_regul_hr</text>
<polygon fill="none" stroke="#000000" points="242,-413.7 242,-435.7 434,-435.7 434,-413.7 242,-413.7"/>
<text text-anchor="start" x="245" y="-421.4" font-family="Helvetica,sans-Serif" font-size="11.00" fill="#000000">float4[8,8]</text>
<polygon fill="none" stroke="#000000" points="10,-391.7 10,-413.7 242,-413.7 242,-391.7 10,-391.7"/>
<text text-anchor="start" x="30" y="-398.8" font-family="Helvetica,sans-Serif" font-size="11.00" fill="#000000">mode_regul</text>
<polygon fill="none" stroke="#000000" points="242,-391.7 242,-413.7 434,-413.7 434,-391.7 242,-391.7"/>
<text text-anchor="start" x="244.7651" y="-399.4" font-family="Helvetica,sans-Serif" font-size="11.00" fill="#000000">hydra_gate_mode_regul[2147483647]</text>
<polygon fill="none" stroke="#000000" points="10,-369.7 10,-391.7 242,-391.7 242,-369.7 10,-369.7"/>
<text text-anchor="start" x="30" y="-376.8" font-family="Helvetica,sans-Serif" font-size="11.00" fill="#000000">z_control_node</text>
<polygon fill="none" stroke="#000000" points="242,-369.7 242,-391.7 434,-391.7 434,-369.7 242,-369.7"/>
<text text-anchor="start" x="245" y="-377.4" font-family="Helvetica,sans-Serif" font-size="11.00" fill="#000000">int4[10]</text>
<polygon fill="none" stroke="#000000" points="10,-347.7 10,-369.7 242,-369.7 242,-347.7 10,-347.7"/>
<text text-anchor="start" x="30" y="-354.8" font-family="Helvetica,sans-Serif" font-size="11.00" fill="#000000">z_pid_array</text>
<polygon fill="none" stroke="#000000" points="242,-347.7 242,-369.7 434,-369.7 434,-347.7 242,-347.7"/>
<text text-anchor="start" x="245" y="-355.4" font-family="Helvetica,sans-Serif" font-size="11.00" fill="#000000">_float4[8,8]</text>
<polygon fill="none" stroke="#000000" points="10,-325.7 10,-347.7 242,-347.7 242,-325.7 10,-325.7"/>
<text text-anchor="start" x="30" y="-332.8" font-family="Helvetica,sans-Serif" font-size="11.00" fill="#000000">z_tz_array</text>
<polygon fill="none" stroke="#000000" points="242,-325.7 242,-347.7 434,-347.7 434,-325.7 242,-325.7"/>
<text text-anchor="start" x="245" y="-333.4" font-family="Helvetica,sans-Serif" font-size="11.00" fill="#000000">_float4[8,8]</text>
<polygon fill="none" stroke="#000000" points="10,-303.7 10,-325.7 242,-325.7 242,-303.7 10,-303.7"/>
<text text-anchor="start" x="30" y="-310.8" font-family="Helvetica,sans-Serif" font-size="11.00" fill="#000000">q_z_crit</text>
<polygon fill="none" stroke="#000000" points="242,-303.7 242,-325.7 434,-325.7 434,-303.7 242,-303.7"/>
<text text-anchor="start" x="245" y="-311.4" font-family="Helvetica,sans-Serif" font-size="11.00" fill="#000000">float4[8,8]</text>
<polygon fill="none" stroke="#000000" points="10,-281.7 10,-303.7 242,-303.7 242,-281.7 10,-281.7"/>
<text text-anchor="start" x="30" y="-288.8" font-family="Helvetica,sans-Serif" font-size="11.00" fill="#000000">q_tq_array</text>
<polygon fill="none" stroke="#000000" points="242,-281.7 242,-303.7 434,-303.7 434,-281.7 242,-281.7"/>
<text text-anchor="start" x="245" y="-289.4" font-family="Helvetica,sans-Serif" font-size="11.00" fill="#000000">_float4[8,8]</text>
<polygon fill="none" stroke="#000000" points="10,-259.7 10,-281.7 242,-281.7 242,-259.7 10,-259.7"/>
<text text-anchor="start" x="30" y="-266.8" font-family="Helvetica,sans-Serif" font-size="11.00" fill="#000000">hq_array</text>
<polygon fill="none" stroke="#000000" points="242,-259.7 242,-281.7 434,-281.7 434,-259.7 242,-259.7"/>
<text text-anchor="start" x="245" y="-267.4" font-family="Helvetica,sans-Serif" font-size="11.00" fill="#000000">_float4[8,8]</text>
<polygon fill="none" stroke="#000000" points="10,-237.7 10,-259.7 242,-259.7 242,-237.7 10,-237.7"/>
<text text-anchor="start" x="30" y="-244.8" font-family="Helvetica,sans-Serif" font-size="11.00" fill="#000000">nr_z_gate</text>
<polygon fill="none" stroke="#000000" points="242,-237.7 242,-259.7 434,-259.7 434,-237.7 242,-237.7"/>
<text text-anchor="start" x="245" y="-245.4" font-family="Helvetica,sans-Serif" font-size="11.00" fill="#000000">float4[8,8]</text>
<polygon fill="none" stroke="#000000" points="10,-215.7 10,-237.7 242,-237.7 242,-215.7 10,-215.7"/>
<text text-anchor="start" x="30" y="-222.8" font-family="Helvetica,sans-Serif" font-size="11.00" fill="#000000">full_section_discharge_for_headloss</text>
<polygon fill="none" stroke="#000000" points="242,-215.7 242,-237.7 434,-237.7 434,-215.7 242,-215.7"/>
<text text-anchor="start" x="245" y="-223.4" font-family="Helvetica,sans-Serif" font-size="11.00" fill="#000000">bool[1]</text>
<polygon fill="none" stroke="#000000" points="10,-193.7 10,-215.7 242,-215.7 242,-193.7 10,-193.7"/>
<text text-anchor="start" x="30" y="-200.8" font-family="Helvetica,sans-Serif" font-size="11.00" fill="#000000">cc_submerged</text>
<polygon fill="none" stroke="#000000" points="242,-193.7 242,-215.7 434,-215.7 434,-193.7 242,-193.7"/>
<text text-anchor="start" x="245" y="-201.4" font-family="Helvetica,sans-Serif" font-size="11.00" fill="#000000">float4[8,8]</text>
<polygon fill="none" stroke="#000000" points="10,-171.7 10,-193.7 242,-193.7 242,-171.7 10,-171.7"/>
<text text-anchor="start" x="30" y="-178.8" font-family="Helvetica,sans-Serif" font-size="11.00" fill="#000000">h_open</text>
<polygon fill="none" stroke="#000000" points="242,-171.7 242,-193.7 434,-193.7 434,-171.7 242,-171.7"/>
<text text-anchor="start" x="245" y="-179.4" font-family="Helvetica,sans-Serif" font-size="11.00" fill="#000000">float4[8,8]</text>
<polygon fill="none" stroke="#000000" points="10,-149.7 10,-171.7 242,-171.7 242,-149.7 10,-149.7"/>
<text text-anchor="start" x="30" y="-156.8" font-family="Helvetica,sans-Serif" font-size="11.00" fill="#000000">h_close</text>
<polygon fill="none" stroke="#000000" points="242,-149.7 242,-171.7 434,-171.7 434,-149.7 242,-149.7"/>
<text text-anchor="start" x="245" y="-157.4" font-family="Helvetica,sans-Serif" font-size="11.00" fill="#000000">float4[8,8]</text>
<polygon fill="none" stroke="#000000" points="10,-127.7 10,-149.7 242,-149.7 242,-127.7 10,-127.7"/>
<text text-anchor="start" x="30" y="-134.8" font-family="Helvetica,sans-Serif" font-size="11.00" fill="#000000">geom</text>
<polygon fill="none" stroke="#000000" points="242,-127.7 242,-149.7 434,-149.7 434,-127.7 242,-127.7"/>
<text text-anchor="start" x="245" y="-135.4" font-family="Helvetica,sans-Serif" font-size="11.00" fill="#000000">geometry[2147483647]</text>
<polygon fill="none" stroke="#000000" points="10,-105.7 10,-127.7 242,-127.7 242,-105.7 10,-105.7"/>
<text text-anchor="start" x="30" y="-112.8" font-family="Helvetica,sans-Serif" font-size="11.00" fill="#000000">configuration</text>
<polygon fill="none" stroke="#000000" points="242,-105.7 242,-127.7 434,-127.7 434,-105.7 242,-105.7"/>
<text text-anchor="start" x="245" y="-113.4" font-family="Helvetica,sans-Serif" font-size="11.00" fill="#000000">varchar[2147483647]</text>
<polygon fill="none" stroke="#000000" points="10,-83.7 10,-105.7 242,-105.7 242,-83.7 10,-83.7"/>
<text text-anchor="start" x="30" y="-90.8" font-family="Helvetica,sans-Serif" font-size="11.00" fill="#000000">validity</text>
<polygon fill="none" stroke="#000000" points="242,-83.7 242,-105.7 434,-105.7 434,-83.7 242,-83.7"/>
<text text-anchor="start" x="245" y="-91.4" font-family="Helvetica,sans-Serif" font-size="11.00" fill="#000000">bool[1]</text>
<polygon fill="none" stroke="#000000" points="10,-61.7 10,-83.7 242,-83.7 242,-61.7 10,-61.7"/>
<text text-anchor="start" x="30" y="-68.8" font-family="Helvetica,sans-Serif" font-size="11.00" fill="#000000">configuration_json</text>
<polygon fill="none" stroke="#000000" points="242,-61.7 242,-83.7 434,-83.7 434,-61.7 242,-61.7"/>
<text text-anchor="start" x="245" y="-69.4" font-family="Helvetica,sans-Serif" font-size="11.00" fill="#000000">json[2147483647]</text>
<polygon fill="none" stroke="#000000" points="10,-39.7 10,-61.7 242,-61.7 242,-39.7 10,-39.7"/>
<text text-anchor="start" x="30" y="-46.8" font-family="Helvetica,sans-Serif" font-size="11.00" fill="#000000">comment</text>
<polygon fill="none" stroke="#000000" points="242,-39.7 242,-61.7 434,-61.7 434,-39.7 242,-39.7"/>
<text text-anchor="start" x="245" y="-47.4" font-family="Helvetica,sans-Serif" font-size="11.00" fill="#000000">varchar[2147483647]</text>
<polygon fill="none" stroke="#000000" stroke-width="2" points="9,-39.2 9,-702.2 435,-702.2 435,-39.2 9,-39.2"/>
</a>
</g>
</g>
</g>
</svg>
