<?xml version="1.0" encoding="UTF-8" standalone="no"?>
<!DOCTYPE svg PUBLIC "-//W3C//DTD SVG 1.1//EN"
 "http://www.w3.org/Graphics/SVG/1.1/DTD/svg11.dtd">
<!-- Generated by graphviz version 2.40.1 (20161225.0304)
 -->
<!-- Title: oneDegreeRelationshipsDiagram Pages: 1 -->
<svg width="297pt" height="209pt"
 viewBox="0.00 0.00 297.00 209.20" xmlns="http://www.w3.org/2000/svg" xmlns:xlink="http://www.w3.org/1999/xlink">
<g id="graph0" class="graph" transform="scale(1 1) rotate(0) translate(4 205.2)">
<title>oneDegreeRelationshipsDiagram</title>
<polygon fill="#ffffff" stroke="transparent" points="-4,4 -4,-205.2 293,-205.2 293,4 -4,4"/>
<text text-anchor="middle" x="72.4936" y="-7.3" font-family="Helvetica,sans-Serif" font-size="11.00" fill="#000000">Generated by SchemaSpy</text>
<!-- regulated_current_scn -->
<g id="node1" class="node">
<title>regulated_current_scn</title>
<g id="a_node1"><a xlink:href="../../tables/regulated_current_scn.html" xlink:title="regulated_current_scn" target="_top">
<polygon fill="#ffffff" stroke="transparent" points="8,-38.2 8,-197.2 281,-197.2 281,-38.2 8,-38.2"/>
<polygon fill="#f5f5f5" stroke="transparent" points="10.5,-171.7 10.5,-194.7 279.5,-194.7 279.5,-171.7 10.5,-171.7"/>
<polygon fill="none" stroke="#000000" points="10.5,-171.7 10.5,-194.7 279.5,-194.7 279.5,-171.7 10.5,-171.7"/>
<text text-anchor="start" x="15.5" y="-180.3" font-family="Helvetica,sans-Serif" font-weight="bold" font-size="11.00" fill="#000000">regulated_current_scn</text>
<text text-anchor="start" x="246.3895" y="-179.8" font-family="Helvetica,sans-Serif" font-size="11.00" fill="#000000">[view]</text>
<polygon fill="none" stroke="#000000" points="10.5,-149.7 10.5,-171.7 160.5,-171.7 160.5,-149.7 10.5,-149.7"/>
<text text-anchor="start" x="30.5" y="-156.8" font-family="Helvetica,sans-Serif" font-size="11.00" fill="#000000">id</text>
<polygon fill="none" stroke="#000000" points="160.5,-149.7 160.5,-171.7 279.5,-171.7 279.5,-149.7 160.5,-149.7"/>
<text text-anchor="start" x="163.5" y="-157.4" font-family="Helvetica,sans-Serif" font-size="11.00" fill="#000000">int8[19]</text>
<polygon fill="none" stroke="#000000" points="10.5,-127.7 10.5,-149.7 160.5,-149.7 160.5,-127.7 10.5,-127.7"/>
<text text-anchor="start" x="30.5" y="-134.8" font-family="Helvetica,sans-Serif" font-size="11.00" fill="#000000">orig_id</text>
<polygon fill="none" stroke="#000000" points="160.5,-127.7 160.5,-149.7 279.5,-149.7 279.5,-127.7 160.5,-127.7"/>
<text text-anchor="start" x="163.5" y="-135.4" font-family="Helvetica,sans-Serif" font-size="11.00" fill="#000000">text[2147483647]</text>
<polygon fill="none" stroke="#000000" points="10.5,-105.7 10.5,-127.7 160.5,-127.7 160.5,-105.7 10.5,-105.7"/>
<text text-anchor="start" x="30.5" y="-112.8" font-family="Helvetica,sans-Serif" font-size="11.00" fill="#000000">type</text>
<polygon fill="none" stroke="#000000" points="160.5,-105.7 160.5,-127.7 279.5,-127.7 279.5,-105.7 160.5,-105.7"/>
<text text-anchor="start" x="163.5" y="-113.4" font-family="Helvetica,sans-Serif" font-size="11.00" fill="#000000">text[2147483647]</text>
<polygon fill="none" stroke="#000000" points="10.5,-83.7 10.5,-105.7 160.5,-105.7 160.5,-83.7 10.5,-83.7"/>
<text text-anchor="start" x="30.5" y="-90.8" font-family="Helvetica,sans-Serif" font-size="11.00" fill="#000000">subtype</text>
<polygon fill="none" stroke="#000000" points="160.5,-83.7 160.5,-105.7 279.5,-105.7 279.5,-83.7 160.5,-83.7"/>
<text text-anchor="start" x="163.5" y="-91.4" font-family="Helvetica,sans-Serif" font-size="11.00" fill="#000000">text[2147483647]</text>
<polygon fill="none" stroke="#000000" points="10.5,-61.7 10.5,-83.7 160.5,-83.7 160.5,-61.7 10.5,-61.7"/>
<text text-anchor="start" x="30.5" y="-68.8" font-family="Helvetica,sans-Serif" font-size="11.00" fill="#000000">name</text>
<polygon fill="none" stroke="#000000" points="160.5,-61.7 160.5,-83.7 279.5,-83.7 279.5,-61.7 160.5,-61.7"/>
<text text-anchor="start" x="163.5" y="-69.4" font-family="Helvetica,sans-Serif" font-size="11.00" fill="#000000">text[2147483647]</text>
<polygon fill="none" stroke="#000000" points="10.5,-39.7 10.5,-61.7 160.5,-61.7 160.5,-39.7 10.5,-39.7"/>
<text text-anchor="start" x="30.5" y="-46.8" font-family="Helvetica,sans-Serif" font-size="11.00" fill="#000000">geom</text>
<polygon fill="none" stroke="#000000" points="160.5,-39.7 160.5,-61.7 279.5,-61.7 279.5,-39.7 160.5,-39.7"/>
<text text-anchor="start" x="163.4485" y="-47.4" font-family="Helvetica,sans-Serif" font-size="11.00" fill="#000000">geometry[2147483647]</text>
<polygon fill="none" stroke="#000000" stroke-width="2" points="9,-39.2 9,-196.2 280,-196.2 280,-39.2 9,-39.2"/>
</a>
</g>
</g>
</g>
</svg>
