<?xml version="1.0" encoding="UTF-8" standalone="no"?>
<!DOCTYPE svg PUBLIC "-//W3C//DTD SVG 1.1//EN"
 "http://www.w3.org/Graphics/SVG/1.1/DTD/svg11.dtd">
<!-- Generated by graphviz version 2.40.1 (20161225.0304)
 -->
<!-- Title: oneDegreeRelationshipsDiagram Pages: 1 -->
<svg width="241pt" height="187pt"
 viewBox="0.00 0.00 241.00 187.20" xmlns="http://www.w3.org/2000/svg" xmlns:xlink="http://www.w3.org/1999/xlink">
<g id="graph0" class="graph" transform="scale(1 1) rotate(0) translate(4 183.2)">
<title>oneDegreeRelationshipsDiagram</title>
<polygon fill="#ffffff" stroke="transparent" points="-4,4 -4,-183.2 237,-183.2 237,4 -4,4"/>
<text text-anchor="middle" x="72.4936" y="-7.3" font-family="Helvetica,sans-Serif" font-size="11.00" fill="#000000">Generated by SchemaSpy</text>
<!-- results_river -->
<g id="node1" class="node">
<title>results_river</title>
<g id="a_node1"><a xlink:href="../../tables/results_river.html" xlink:title="results_river" target="_top">
<polygon fill="#ffffff" stroke="transparent" points="8,-38.2 8,-175.2 225,-175.2 225,-38.2 8,-38.2"/>
<polygon fill="#f5f5f5" stroke="transparent" points="10.5,-149.7 10.5,-172.7 223.5,-172.7 223.5,-149.7 10.5,-149.7"/>
<polygon fill="none" stroke="#000000" points="10.5,-149.7 10.5,-172.7 223.5,-172.7 223.5,-149.7 10.5,-149.7"/>
<text text-anchor="start" x="15.5" y="-158.3" font-family="Helvetica,sans-Serif" font-weight="bold" font-size="11.00" fill="#000000">results_river</text>
<text text-anchor="start" x="190.3895" y="-157.8" font-family="Helvetica,sans-Serif" font-size="11.00" fill="#000000">[view]</text>
<polygon fill="none" stroke="#000000" points="10.5,-127.7 10.5,-149.7 104.5,-149.7 104.5,-127.7 10.5,-127.7"/>
<text text-anchor="start" x="30.5" y="-134.8" font-family="Helvetica,sans-Serif" font-size="11.00" fill="#000000">id</text>
<polygon fill="none" stroke="#000000" points="104.5,-127.7 104.5,-149.7 223.5,-149.7 223.5,-127.7 104.5,-127.7"/>
<text text-anchor="start" x="107.5" y="-135.4" font-family="Helvetica,sans-Serif" font-size="11.00" fill="#000000">int4[10]</text>
<polygon fill="none" stroke="#000000" points="10.5,-105.7 10.5,-127.7 104.5,-127.7 104.5,-105.7 10.5,-105.7"/>
<text text-anchor="start" x="30.5" y="-112.8" font-family="Helvetica,sans-Serif" font-size="11.00" fill="#000000">name</text>
<polygon fill="none" stroke="#000000" points="104.5,-105.7 104.5,-127.7 223.5,-127.7 223.5,-105.7 104.5,-105.7"/>
<text text-anchor="start" x="107.5" y="-113.4" font-family="Helvetica,sans-Serif" font-size="11.00" fill="#000000">varchar[24]</text>
<polygon fill="none" stroke="#000000" points="10.5,-83.7 10.5,-105.7 104.5,-105.7 104.5,-83.7 10.5,-83.7"/>
<text text-anchor="start" x="30.5" y="-90.8" font-family="Helvetica,sans-Serif" font-size="11.00" fill="#000000">geom</text>
<polygon fill="none" stroke="#000000" points="104.5,-83.7 104.5,-105.7 223.5,-105.7 223.5,-83.7 104.5,-83.7"/>
<text text-anchor="start" x="107.4485" y="-91.4" font-family="Helvetica,sans-Serif" font-size="11.00" fill="#000000">geometry[2147483647]</text>
<polygon fill="none" stroke="#000000" points="10.5,-61.7 10.5,-83.7 104.5,-83.7 104.5,-61.7 10.5,-61.7"/>
<text text-anchor="start" x="30.5" y="-68.8" font-family="Helvetica,sans-Serif" font-size="11.00" fill="#000000">section_type</text>
<polygon fill="none" stroke="#000000" points="104.5,-61.7 104.5,-83.7 223.5,-83.7 223.5,-61.7 104.5,-61.7"/>
<text text-anchor="start" x="107.5" y="-69.4" font-family="Helvetica,sans-Serif" font-size="11.00" fill="#000000">text[2147483647]</text>
<polygon fill="none" stroke="#000000" points="10.5,-39.7 10.5,-61.7 104.5,-61.7 104.5,-39.7 10.5,-39.7"/>
<text text-anchor="start" x="30.5" y="-46.8" font-family="Helvetica,sans-Serif" font-size="11.00" fill="#000000">last_refresh</text>
<polygon fill="none" stroke="#000000" points="104.5,-39.7 104.5,-61.7 223.5,-61.7 223.5,-39.7 104.5,-39.7"/>
<text text-anchor="start" x="107.5" y="-47.4" font-family="Helvetica,sans-Serif" font-size="11.00" fill="#000000">timestamptz[35,6]</text>
<polygon fill="none" stroke="#000000" stroke-width="2" points="9,-39.2 9,-174.2 224,-174.2 224,-39.2 9,-39.2"/>
</a>
</g>
</g>
</g>
</svg>
