<?xml version="1.0" encoding="UTF-8" standalone="no"?>
<!DOCTYPE svg PUBLIC "-//W3C//DTD SVG 1.1//EN"
 "http://www.w3.org/Graphics/SVG/1.1/DTD/svg11.dtd">
<!-- Generated by graphviz version 2.40.1 (20161225.0304)
 -->
<!-- Title: oneDegreeRelationshipsDiagram Pages: 1 -->
<svg width="263pt" height="165pt"
 viewBox="0.00 0.00 263.00 165.20" xmlns="http://www.w3.org/2000/svg" xmlns:xlink="http://www.w3.org/1999/xlink">
<g id="graph0" class="graph" transform="scale(1 1) rotate(0) translate(4 161.2)">
<title>oneDegreeRelationshipsDiagram</title>
<polygon fill="#ffffff" stroke="transparent" points="-4,4 -4,-161.2 259,-161.2 259,4 -4,4"/>
<text text-anchor="middle" x="72.4936" y="-7.3" font-family="Helvetica,sans-Serif" font-size="11.00" fill="#000000">Generated by SchemaSpy</text>
<!-- results_manhole -->
<g id="node1" class="node">
<title>results_manhole</title>
<g id="a_node1"><a xlink:href="../../tables/results_manhole.html" xlink:title="results_manhole" target="_top">
<polygon fill="#ffffff" stroke="transparent" points="8,-38.2 8,-153.2 247,-153.2 247,-38.2 8,-38.2"/>
<polygon fill="#f5f5f5" stroke="transparent" points="10.5,-127.7 10.5,-150.7 245.5,-150.7 245.5,-127.7 10.5,-127.7"/>
<polygon fill="none" stroke="#000000" points="10.5,-127.7 10.5,-150.7 245.5,-150.7 245.5,-127.7 10.5,-127.7"/>
<text text-anchor="start" x="15.5" y="-136.3" font-family="Helvetica,sans-Serif" font-weight="bold" font-size="11.00" fill="#000000">results_manhole</text>
<text text-anchor="start" x="212.3895" y="-135.8" font-family="Helvetica,sans-Serif" font-size="11.00" fill="#000000">[view]</text>
<polygon fill="none" stroke="#000000" points="10.5,-105.7 10.5,-127.7 126.5,-127.7 126.5,-105.7 10.5,-105.7"/>
<text text-anchor="start" x="30.5" y="-112.8" font-family="Helvetica,sans-Serif" font-size="11.00" fill="#000000">id</text>
<polygon fill="none" stroke="#000000" points="126.5,-105.7 126.5,-127.7 245.5,-127.7 245.5,-105.7 126.5,-105.7"/>
<text text-anchor="start" x="129.5" y="-113.4" font-family="Helvetica,sans-Serif" font-size="11.00" fill="#000000">int4[10]</text>
<polygon fill="none" stroke="#000000" points="10.5,-83.7 10.5,-105.7 126.5,-105.7 126.5,-83.7 10.5,-83.7"/>
<text text-anchor="start" x="30.5" y="-90.8" font-family="Helvetica,sans-Serif" font-size="11.00" fill="#000000">name</text>
<polygon fill="none" stroke="#000000" points="126.5,-83.7 126.5,-105.7 245.5,-105.7 245.5,-83.7 126.5,-83.7"/>
<text text-anchor="start" x="129.5" y="-91.4" font-family="Helvetica,sans-Serif" font-size="11.00" fill="#000000">varchar[24]</text>
<polygon fill="none" stroke="#000000" points="10.5,-61.7 10.5,-83.7 126.5,-83.7 126.5,-61.7 10.5,-61.7"/>
<text text-anchor="start" x="30.5" y="-68.8" font-family="Helvetica,sans-Serif" font-size="11.00" fill="#000000">geom</text>
<polygon fill="none" stroke="#000000" points="126.5,-61.7 126.5,-83.7 245.5,-83.7 245.5,-61.7 126.5,-61.7"/>
<text text-anchor="start" x="129.4485" y="-69.4" font-family="Helvetica,sans-Serif" font-size="11.00" fill="#000000">geometry[2147483647]</text>
<polygon fill="none" stroke="#000000" points="10.5,-39.7 10.5,-61.7 126.5,-61.7 126.5,-39.7 10.5,-39.7"/>
<text text-anchor="start" x="30.5" y="-46.8" font-family="Helvetica,sans-Serif" font-size="11.00" fill="#000000">last_refresh</text>
<polygon fill="none" stroke="#000000" points="126.5,-39.7 126.5,-61.7 245.5,-61.7 245.5,-39.7 126.5,-39.7"/>
<text text-anchor="start" x="129.5" y="-47.4" font-family="Helvetica,sans-Serif" font-size="11.00" fill="#000000">timestamptz[35,6]</text>
<polygon fill="none" stroke="#000000" stroke-width="2" points="9,-39.2 9,-152.2 246,-152.2 246,-39.2 9,-39.2"/>
</a>
</g>
</g>
</g>
</svg>
