<?xml version="1.0" encoding="UTF-8" standalone="no"?>
<!DOCTYPE svg PUBLIC "-//W3C//DTD SVG 1.1//EN"
 "http://www.w3.org/Graphics/SVG/1.1/DTD/svg11.dtd">
<!-- Generated by graphviz version 2.40.1 (20161225.0304)
 -->
<!-- Title: oneDegreeRelationshipsDiagram Pages: 1 -->
<svg width="282pt" height="165pt"
 viewBox="0.00 0.00 282.00 165.20" xmlns="http://www.w3.org/2000/svg" xmlns:xlink="http://www.w3.org/1999/xlink">
<g id="graph0" class="graph" transform="scale(1 1) rotate(0) translate(4 161.2)">
<title>oneDegreeRelationshipsDiagram</title>
<polygon fill="#ffffff" stroke="transparent" points="-4,4 -4,-161.2 278,-161.2 278,4 -4,4"/>
<text text-anchor="middle" x="72.4936" y="-7.3" font-family="Helvetica,sans-Serif" font-size="11.00" fill="#000000">Generated by SchemaSpy</text>
<!-- results_pipe_hydrol -->
<g id="node1" class="node">
<title>results_pipe_hydrol</title>
<g id="a_node1"><a xlink:href="../../tables/results_pipe_hydrol.html" xlink:title="results_pipe_hydrol" target="_top">
<polygon fill="#ffffff" stroke="transparent" points="8,-38.2 8,-153.2 266,-153.2 266,-38.2 8,-38.2"/>
<polygon fill="#f5f5f5" stroke="transparent" points="10,-127.7 10,-150.7 264,-150.7 264,-127.7 10,-127.7"/>
<polygon fill="none" stroke="#000000" points="10,-127.7 10,-150.7 264,-150.7 264,-127.7 10,-127.7"/>
<text text-anchor="start" x="15" y="-136.3" font-family="Helvetica,sans-Serif" font-weight="bold" font-size="11.00" fill="#000000">results_pipe_hydrol</text>
<text text-anchor="start" x="230.8895" y="-135.8" font-family="Helvetica,sans-Serif" font-size="11.00" fill="#000000">[view]</text>
<polygon fill="none" stroke="#000000" points="10,-105.7 10,-127.7 145,-127.7 145,-105.7 10,-105.7"/>
<text text-anchor="start" x="30" y="-112.8" font-family="Helvetica,sans-Serif" font-size="11.00" fill="#000000">id</text>
<polygon fill="none" stroke="#000000" points="145,-105.7 145,-127.7 264,-127.7 264,-105.7 145,-105.7"/>
<text text-anchor="start" x="148" y="-113.4" font-family="Helvetica,sans-Serif" font-size="11.00" fill="#000000">int4[10]</text>
<polygon fill="none" stroke="#000000" points="10,-83.7 10,-105.7 145,-105.7 145,-83.7 10,-83.7"/>
<text text-anchor="start" x="30" y="-90.8" font-family="Helvetica,sans-Serif" font-size="11.00" fill="#000000">name</text>
<polygon fill="none" stroke="#000000" points="145,-83.7 145,-105.7 264,-105.7 264,-83.7 145,-83.7"/>
<text text-anchor="start" x="148" y="-91.4" font-family="Helvetica,sans-Serif" font-size="11.00" fill="#000000">varchar[24]</text>
<polygon fill="none" stroke="#000000" points="10,-61.7 10,-83.7 145,-83.7 145,-61.7 10,-61.7"/>
<text text-anchor="start" x="30" y="-68.8" font-family="Helvetica,sans-Serif" font-size="11.00" fill="#000000">geom</text>
<polygon fill="none" stroke="#000000" points="145,-61.7 145,-83.7 264,-83.7 264,-61.7 145,-61.7"/>
<text text-anchor="start" x="147.9485" y="-69.4" font-family="Helvetica,sans-Serif" font-size="11.00" fill="#000000">geometry[2147483647]</text>
<polygon fill="none" stroke="#000000" points="10,-39.7 10,-61.7 145,-61.7 145,-39.7 10,-39.7"/>
<text text-anchor="start" x="30" y="-46.8" font-family="Helvetica,sans-Serif" font-size="11.00" fill="#000000">last_refresh</text>
<polygon fill="none" stroke="#000000" points="145,-39.7 145,-61.7 264,-61.7 264,-39.7 145,-39.7"/>
<text text-anchor="start" x="148" y="-47.4" font-family="Helvetica,sans-Serif" font-size="11.00" fill="#000000">timestamptz[35,6]</text>
<polygon fill="none" stroke="#000000" stroke-width="2" points="9,-39.2 9,-152.2 265,-152.2 265,-39.2 9,-39.2"/>
</a>
</g>
</g>
</g>
</svg>
