<?xml version="1.0" encoding="UTF-8" standalone="no"?>
<!DOCTYPE svg PUBLIC "-//W3C//DTD SVG 1.1//EN"
 "http://www.w3.org/Graphics/SVG/1.1/DTD/svg11.dtd">
<!-- Generated by graphviz version 2.40.1 (20161225.0304)
 -->
<!-- Title: oneDegreeRelationshipsDiagram Pages: 1 -->
<svg width="275pt" height="297pt"
 viewBox="0.00 0.00 275.00 297.20" xmlns="http://www.w3.org/2000/svg" xmlns:xlink="http://www.w3.org/1999/xlink">
<g id="graph0" class="graph" transform="scale(1 1) rotate(0) translate(4 293.2)">
<title>oneDegreeRelationshipsDiagram</title>
<polygon fill="#ffffff" stroke="transparent" points="-4,4 -4,-293.2 271,-293.2 271,4 -4,4"/>
<text text-anchor="middle" x="72.4936" y="-7.3" font-family="Helvetica,sans-Serif" font-size="11.00" fill="#000000">Generated by SchemaSpy</text>
<!-- riverbank -->
<g id="node1" class="node">
<title>riverbank</title>
<g id="a_node1"><a xlink:href="../../tables/riverbank.html" xlink:title="riverbank" target="_top">
<polygon fill="#ffffff" stroke="transparent" points="8,-38.2 8,-285.2 259,-285.2 259,-38.2 8,-38.2"/>
<polygon fill="#f5f5f5" stroke="transparent" points="10.5,-259.7 10.5,-282.7 257.5,-282.7 257.5,-259.7 10.5,-259.7"/>
<polygon fill="none" stroke="#000000" points="10.5,-259.7 10.5,-282.7 257.5,-282.7 257.5,-259.7 10.5,-259.7"/>
<text text-anchor="start" x="15.5" y="-268.3" font-family="Helvetica,sans-Serif" font-weight="bold" font-size="11.00" fill="#000000">riverbank</text>
<text text-anchor="start" x="224.3895" y="-267.8" font-family="Helvetica,sans-Serif" font-size="11.00" fill="#000000">[view]</text>
<polygon fill="none" stroke="#000000" points="10.5,-237.7 10.5,-259.7 138.5,-259.7 138.5,-237.7 10.5,-237.7"/>
<text text-anchor="start" x="30.5" y="-244.8" font-family="Helvetica,sans-Serif" font-size="11.00" fill="#000000">id</text>
<polygon fill="none" stroke="#000000" points="138.5,-237.7 138.5,-259.7 257.5,-259.7 257.5,-237.7 138.5,-237.7"/>
<text text-anchor="start" x="141.5" y="-245.4" font-family="Helvetica,sans-Serif" font-size="11.00" fill="#000000">int8[19]</text>
<polygon fill="none" stroke="#000000" points="10.5,-215.7 10.5,-237.7 138.5,-237.7 138.5,-215.7 10.5,-215.7"/>
<text text-anchor="start" x="30.5" y="-222.8" font-family="Helvetica,sans-Serif" font-size="11.00" fill="#000000">coverage</text>
<polygon fill="none" stroke="#000000" points="138.5,-215.7 138.5,-237.7 257.5,-237.7 257.5,-215.7 138.5,-215.7"/>
<text text-anchor="start" x="141.5" y="-223.4" font-family="Helvetica,sans-Serif" font-size="11.00" fill="#000000">int4[10]</text>
<polygon fill="none" stroke="#000000" points="10.5,-193.7 10.5,-215.7 138.5,-215.7 138.5,-193.7 10.5,-193.7"/>
<text text-anchor="start" x="30.5" y="-200.8" font-family="Helvetica,sans-Serif" font-size="11.00" fill="#000000">geom</text>
<polygon fill="none" stroke="#000000" points="138.5,-193.7 138.5,-215.7 257.5,-215.7 257.5,-193.7 138.5,-193.7"/>
<text text-anchor="start" x="141.4485" y="-201.4" font-family="Helvetica,sans-Serif" font-size="11.00" fill="#000000">geometry[2147483647]</text>
<polygon fill="none" stroke="#000000" points="10.5,-171.7 10.5,-193.7 138.5,-193.7 138.5,-171.7 10.5,-171.7"/>
<text text-anchor="start" x="30.5" y="-178.8" font-family="Helvetica,sans-Serif" font-size="11.00" fill="#000000">major</text>
<polygon fill="none" stroke="#000000" points="138.5,-171.7 138.5,-193.7 257.5,-193.7 257.5,-171.7 138.5,-171.7"/>
<text text-anchor="start" x="141.4485" y="-179.4" font-family="Helvetica,sans-Serif" font-size="11.00" fill="#000000">geometry[2147483647]</text>
<polygon fill="none" stroke="#000000" points="10.5,-149.7 10.5,-171.7 138.5,-171.7 138.5,-149.7 10.5,-149.7"/>
<text text-anchor="start" x="30.5" y="-156.8" font-family="Helvetica,sans-Serif" font-size="11.00" fill="#000000">reach</text>
<polygon fill="none" stroke="#000000" points="138.5,-149.7 138.5,-171.7 257.5,-171.7 257.5,-149.7 138.5,-149.7"/>
<text text-anchor="start" x="141.4485" y="-157.4" font-family="Helvetica,sans-Serif" font-size="11.00" fill="#000000">geometry[2147483647]</text>
<polygon fill="none" stroke="#000000" points="10.5,-127.7 10.5,-149.7 138.5,-149.7 138.5,-127.7 10.5,-127.7"/>
<text text-anchor="start" x="30.5" y="-134.8" font-family="Helvetica,sans-Serif" font-size="11.00" fill="#000000">side</text>
<polygon fill="none" stroke="#000000" points="138.5,-127.7 138.5,-149.7 257.5,-149.7 257.5,-127.7 138.5,-127.7"/>
<text text-anchor="start" x="141.5" y="-135.4" font-family="Helvetica,sans-Serif" font-size="11.00" fill="#000000">text[2147483647]</text>
<polygon fill="none" stroke="#000000" points="10.5,-105.7 10.5,-127.7 138.5,-127.7 138.5,-105.7 10.5,-105.7"/>
<text text-anchor="start" x="30.5" y="-112.8" font-family="Helvetica,sans-Serif" font-size="11.00" fill="#000000">start_half_transect</text>
<polygon fill="none" stroke="#000000" points="138.5,-105.7 138.5,-127.7 257.5,-127.7 257.5,-105.7 138.5,-105.7"/>
<text text-anchor="start" x="141.4485" y="-113.4" font-family="Helvetica,sans-Serif" font-size="11.00" fill="#000000">geometry[2147483647]</text>
<polygon fill="none" stroke="#000000" points="10.5,-83.7 10.5,-105.7 138.5,-105.7 138.5,-83.7 10.5,-83.7"/>
<text text-anchor="start" x="30.5" y="-90.8" font-family="Helvetica,sans-Serif" font-size="11.00" fill="#000000">end_half_transect</text>
<polygon fill="none" stroke="#000000" points="138.5,-83.7 138.5,-105.7 257.5,-105.7 257.5,-83.7 138.5,-83.7"/>
<text text-anchor="start" x="141.4485" y="-91.4" font-family="Helvetica,sans-Serif" font-size="11.00" fill="#000000">geometry[2147483647]</text>
<polygon fill="none" stroke="#000000" points="10.5,-61.7 10.5,-83.7 138.5,-83.7 138.5,-61.7 10.5,-61.7"/>
<text text-anchor="start" x="30.5" y="-68.8" font-family="Helvetica,sans-Serif" font-size="11.00" fill="#000000">bank</text>
<polygon fill="none" stroke="#000000" points="138.5,-61.7 138.5,-83.7 257.5,-83.7 257.5,-61.7 138.5,-61.7"/>
<text text-anchor="start" x="141.4485" y="-69.4" font-family="Helvetica,sans-Serif" font-size="11.00" fill="#000000">geometry[2147483647]</text>
<polygon fill="none" stroke="#000000" points="10.5,-39.7 10.5,-61.7 138.5,-61.7 138.5,-39.7 10.5,-39.7"/>
<text text-anchor="start" x="30.5" y="-46.8" font-family="Helvetica,sans-Serif" font-size="11.00" fill="#000000">elem_length</text>
<polygon fill="none" stroke="#000000" points="138.5,-39.7 138.5,-61.7 257.5,-61.7 257.5,-39.7 138.5,-39.7"/>
<text text-anchor="start" x="141.5" y="-47.4" font-family="Helvetica,sans-Serif" font-size="11.00" fill="#000000">float4[8,8]</text>
<polygon fill="none" stroke="#000000" stroke-width="2" points="9,-39.2 9,-284.2 258,-284.2 258,-39.2 9,-39.2"/>
</a>
</g>
</g>
</g>
</svg>
