<?xml version="1.0" encoding="UTF-8" standalone="no"?>
<!DOCTYPE svg PUBLIC "-//W3C//DTD SVG 1.1//EN"
 "http://www.w3.org/Graphics/SVG/1.1/DTD/svg11.dtd">
<!-- Generated by graphviz version 2.40.1 (20161225.0304)
 -->
<!-- Title: oneDegreeRelationshipsDiagram Pages: 1 -->
<svg width="312pt" height="187pt"
 viewBox="0.00 0.00 312.00 187.20" xmlns="http://www.w3.org/2000/svg" xmlns:xlink="http://www.w3.org/1999/xlink">
<g id="graph0" class="graph" transform="scale(1 1) rotate(0) translate(4 183.2)">
<title>oneDegreeRelationshipsDiagram</title>
<polygon fill="#ffffff" stroke="transparent" points="-4,4 -4,-183.2 308,-183.2 308,4 -4,4"/>
<text text-anchor="middle" x="72.4936" y="-7.3" font-family="Helvetica,sans-Serif" font-size="11.00" fill="#000000">Generated by SchemaSpy</text>
<!-- river_cross_section_pl1d -->
<g id="node1" class="node">
<title>river_cross_section_pl1d</title>
<g id="a_node1"><a xlink:href="../../tables/river_cross_section_pl1d.html" xlink:title="river_cross_section_pl1d" target="_top">
<polygon fill="#ffffff" stroke="transparent" points="8,-38.2 8,-175.2 296,-175.2 296,-38.2 8,-38.2"/>
<polygon fill="#f5f5f5" stroke="transparent" points="10,-149.7 10,-172.7 294,-172.7 294,-149.7 10,-149.7"/>
<polygon fill="none" stroke="#000000" points="10,-149.7 10,-172.7 294,-172.7 294,-149.7 10,-149.7"/>
<text text-anchor="start" x="15" y="-158.3" font-family="Helvetica,sans-Serif" font-weight="bold" font-size="11.00" fill="#000000">river_cross_section_pl1d</text>
<text text-anchor="start" x="260.8895" y="-157.8" font-family="Helvetica,sans-Serif" font-size="11.00" fill="#000000">[view]</text>
<polygon fill="none" stroke="#000000" points="10,-127.7 10,-149.7 175,-149.7 175,-127.7 10,-127.7"/>
<text text-anchor="start" x="30" y="-134.8" font-family="Helvetica,sans-Serif" font-size="11.00" fill="#000000">id</text>
<polygon fill="none" stroke="#000000" points="175,-127.7 175,-149.7 294,-149.7 294,-127.7 175,-127.7"/>
<text text-anchor="start" x="178" y="-135.4" font-family="Helvetica,sans-Serif" font-size="11.00" fill="#000000">int4[10]</text>
<polygon fill="none" stroke="#000000" points="10,-105.7 10,-127.7 175,-127.7 175,-105.7 10,-105.7"/>
<text text-anchor="start" x="30" y="-112.8" font-family="Helvetica,sans-Serif" font-size="11.00" fill="#000000">name</text>
<polygon fill="none" stroke="#000000" points="175,-105.7 175,-127.7 294,-127.7 294,-105.7 175,-105.7"/>
<text text-anchor="start" x="178" y="-113.4" font-family="Helvetica,sans-Serif" font-size="11.00" fill="#000000">varchar[24]</text>
<polygon fill="none" stroke="#000000" points="10,-83.7 10,-105.7 175,-105.7 175,-83.7 10,-83.7"/>
<text text-anchor="start" x="30" y="-90.8" font-family="Helvetica,sans-Serif" font-size="11.00" fill="#000000">profile</text>
<polygon fill="none" stroke="#000000" points="175,-83.7 175,-105.7 294,-105.7 294,-83.7 175,-83.7"/>
<text text-anchor="start" x="177.9485" y="-91.4" font-family="Helvetica,sans-Serif" font-size="11.00" fill="#000000">geometry[2147483647]</text>
<polygon fill="none" stroke="#000000" points="10,-61.7 10,-83.7 175,-83.7 175,-61.7 10,-61.7"/>
<text text-anchor="start" x="30" y="-68.8" font-family="Helvetica,sans-Serif" font-size="11.00" fill="#000000">generated</text>
<polygon fill="none" stroke="#000000" points="175,-61.7 175,-83.7 294,-83.7 294,-61.7 175,-61.7"/>
<text text-anchor="start" x="178" y="-69.4" font-family="Helvetica,sans-Serif" font-size="11.00" fill="#000000">int4[10]</text>
<polygon fill="none" stroke="#000000" points="10,-39.7 10,-61.7 175,-61.7 175,-39.7 10,-39.7"/>
<text text-anchor="start" x="30" y="-46.8" font-family="Helvetica,sans-Serif" font-size="11.00" fill="#000000">geom</text>
<polygon fill="none" stroke="#000000" points="175,-39.7 175,-61.7 294,-61.7 294,-39.7 175,-39.7"/>
<text text-anchor="start" x="177.9485" y="-47.4" font-family="Helvetica,sans-Serif" font-size="11.00" fill="#000000">geometry[2147483647]</text>
<polygon fill="none" stroke="#000000" stroke-width="2" points="9,-39.2 9,-174.2 295,-174.2 295,-39.2 9,-39.2"/>
</a>
</g>
</g>
</g>
</svg>
