<?xml version="1.0" encoding="UTF-8" standalone="no"?>
<!DOCTYPE svg PUBLIC "-//W3C//DTD SVG 1.1//EN"
 "http://www.w3.org/Graphics/SVG/1.1/DTD/svg11.dtd">
<!-- Generated by graphviz version 2.40.1 (20161225.0304)
 -->
<!-- Title: oneDegreeRelationshipsDiagram Pages: 1 -->
<svg width="416pt" height="957pt"
 viewBox="0.00 0.00 416.00 957.20" xmlns="http://www.w3.org/2000/svg" xmlns:xlink="http://www.w3.org/1999/xlink">
<g id="graph0" class="graph" transform="scale(1 1) rotate(0) translate(4 953.2)">
<title>oneDegreeRelationshipsDiagram</title>
<polygon fill="#ffffff" stroke="transparent" points="-4,4 -4,-953.2 412,-953.2 412,4 -4,4"/>
<text text-anchor="middle" x="72.4936" y="-7.3" font-family="Helvetica,sans-Serif" font-size="11.00" fill="#000000">Generated by SchemaSpy</text>
<!-- river_cross_section_profile -->
<g id="node1" class="node">
<title>river_cross_section_profile</title>
<g id="a_node1"><a xlink:href="../../tables/river_cross_section_profile.html" xlink:title="river_cross_section_profile" target="_top">
<polygon fill="#ffffff" stroke="transparent" points="8,-38.2 8,-945.2 400,-945.2 400,-38.2 8,-38.2"/>
<polygon fill="#f5f5f5" stroke="transparent" points="10,-919.7 10,-942.7 398,-942.7 398,-919.7 10,-919.7"/>
<polygon fill="none" stroke="#000000" points="10,-919.7 10,-942.7 398,-942.7 398,-919.7 10,-919.7"/>
<text text-anchor="start" x="15" y="-928.3" font-family="Helvetica,sans-Serif" font-weight="bold" font-size="11.00" fill="#000000">river_cross_section_profile</text>
<text text-anchor="start" x="364.8895" y="-927.8" font-family="Helvetica,sans-Serif" font-size="11.00" fill="#000000">[view]</text>
<polygon fill="none" stroke="#000000" points="10,-897.7 10,-919.7 197,-919.7 197,-897.7 10,-897.7"/>
<text text-anchor="start" x="30" y="-904.8" font-family="Helvetica,sans-Serif" font-size="11.00" fill="#000000">id</text>
<polygon fill="none" stroke="#000000" points="197,-897.7 197,-919.7 398,-919.7 398,-897.7 197,-897.7"/>
<text text-anchor="start" x="200" y="-905.4" font-family="Helvetica,sans-Serif" font-size="11.00" fill="#000000">int4[10]</text>
<polygon fill="none" stroke="#000000" points="10,-875.7 10,-897.7 197,-897.7 197,-875.7 10,-875.7"/>
<text text-anchor="start" x="30" y="-882.8" font-family="Helvetica,sans-Serif" font-size="11.00" fill="#000000">name</text>
<polygon fill="none" stroke="#000000" points="197,-875.7 197,-897.7 398,-897.7 398,-875.7 197,-875.7"/>
<text text-anchor="start" x="200" y="-883.4" font-family="Helvetica,sans-Serif" font-size="11.00" fill="#000000">varchar[24]</text>
<polygon fill="none" stroke="#000000" points="10,-853.7 10,-875.7 197,-875.7 197,-853.7 10,-853.7"/>
<text text-anchor="start" x="30" y="-860.8" font-family="Helvetica,sans-Serif" font-size="11.00" fill="#000000">z_invert_up</text>
<polygon fill="none" stroke="#000000" points="197,-853.7 197,-875.7 398,-875.7 398,-853.7 197,-853.7"/>
<text text-anchor="start" x="200" y="-861.4" font-family="Helvetica,sans-Serif" font-size="11.00" fill="#000000">float4[8,8]</text>
<polygon fill="none" stroke="#000000" points="10,-831.7 10,-853.7 197,-853.7 197,-831.7 10,-831.7"/>
<text text-anchor="start" x="30" y="-838.8" font-family="Helvetica,sans-Serif" font-size="11.00" fill="#000000">z_invert_down</text>
<polygon fill="none" stroke="#000000" points="197,-831.7 197,-853.7 398,-853.7 398,-831.7 197,-831.7"/>
<text text-anchor="start" x="200" y="-839.4" font-family="Helvetica,sans-Serif" font-size="11.00" fill="#000000">float4[8,8]</text>
<polygon fill="none" stroke="#000000" points="10,-809.7 10,-831.7 197,-831.7 197,-809.7 10,-809.7"/>
<text text-anchor="start" x="30" y="-816.8" font-family="Helvetica,sans-Serif" font-size="11.00" fill="#000000">type_cross_section_up</text>
<polygon fill="none" stroke="#000000" points="197,-809.7 197,-831.7 398,-831.7 398,-809.7 197,-809.7"/>
<text text-anchor="start" x="199.99" y="-817.4" font-family="Helvetica,sans-Serif" font-size="11.00" fill="#000000">hydra_cross_section_type[2147483647]</text>
<polygon fill="none" stroke="#000000" points="10,-787.7 10,-809.7 197,-809.7 197,-787.7 10,-787.7"/>
<text text-anchor="start" x="30" y="-794.8" font-family="Helvetica,sans-Serif" font-size="11.00" fill="#000000">type_cross_section_down</text>
<polygon fill="none" stroke="#000000" points="197,-787.7 197,-809.7 398,-809.7 398,-787.7 197,-787.7"/>
<text text-anchor="start" x="199.99" y="-795.4" font-family="Helvetica,sans-Serif" font-size="11.00" fill="#000000">hydra_cross_section_type[2147483647]</text>
<polygon fill="none" stroke="#000000" points="10,-765.7 10,-787.7 197,-787.7 197,-765.7 10,-765.7"/>
<text text-anchor="start" x="30" y="-772.8" font-family="Helvetica,sans-Serif" font-size="11.00" fill="#000000">up_rk</text>
<polygon fill="none" stroke="#000000" points="197,-765.7 197,-787.7 398,-787.7 398,-765.7 197,-765.7"/>
<text text-anchor="start" x="200" y="-773.4" font-family="Helvetica,sans-Serif" font-size="11.00" fill="#000000">float4[8,8]</text>
<polygon fill="none" stroke="#000000" points="10,-743.7 10,-765.7 197,-765.7 197,-743.7 10,-743.7"/>
<text text-anchor="start" x="30" y="-750.8" font-family="Helvetica,sans-Serif" font-size="11.00" fill="#000000">up_rk_maj</text>
<polygon fill="none" stroke="#000000" points="197,-743.7 197,-765.7 398,-765.7 398,-743.7 197,-743.7"/>
<text text-anchor="start" x="200" y="-751.4" font-family="Helvetica,sans-Serif" font-size="11.00" fill="#000000">float4[8,8]</text>
<polygon fill="none" stroke="#000000" points="10,-721.7 10,-743.7 197,-743.7 197,-721.7 10,-721.7"/>
<text text-anchor="start" x="30" y="-728.8" font-family="Helvetica,sans-Serif" font-size="11.00" fill="#000000">up_sinuosity</text>
<polygon fill="none" stroke="#000000" points="197,-721.7 197,-743.7 398,-743.7 398,-721.7 197,-721.7"/>
<text text-anchor="start" x="200" y="-729.4" font-family="Helvetica,sans-Serif" font-size="11.00" fill="#000000">float4[8,8]</text>
<polygon fill="none" stroke="#000000" points="10,-699.7 10,-721.7 197,-721.7 197,-699.7 10,-699.7"/>
<text text-anchor="start" x="30" y="-706.8" font-family="Helvetica,sans-Serif" font-size="11.00" fill="#000000">up_circular_diameter</text>
<polygon fill="none" stroke="#000000" points="197,-699.7 197,-721.7 398,-721.7 398,-699.7 197,-699.7"/>
<text text-anchor="start" x="200" y="-707.4" font-family="Helvetica,sans-Serif" font-size="11.00" fill="#000000">float4[8,8]</text>
<polygon fill="none" stroke="#000000" points="10,-677.7 10,-699.7 197,-699.7 197,-677.7 10,-677.7"/>
<text text-anchor="start" x="30" y="-684.8" font-family="Helvetica,sans-Serif" font-size="11.00" fill="#000000">up_ovoid_height</text>
<polygon fill="none" stroke="#000000" points="197,-677.7 197,-699.7 398,-699.7 398,-677.7 197,-677.7"/>
<text text-anchor="start" x="200" y="-685.4" font-family="Helvetica,sans-Serif" font-size="11.00" fill="#000000">float4[8,8]</text>
<polygon fill="none" stroke="#000000" points="10,-655.7 10,-677.7 197,-677.7 197,-655.7 10,-655.7"/>
<text text-anchor="start" x="30" y="-662.8" font-family="Helvetica,sans-Serif" font-size="11.00" fill="#000000">up_ovoid_top_diameter</text>
<polygon fill="none" stroke="#000000" points="197,-655.7 197,-677.7 398,-677.7 398,-655.7 197,-655.7"/>
<text text-anchor="start" x="200" y="-663.4" font-family="Helvetica,sans-Serif" font-size="11.00" fill="#000000">float4[8,8]</text>
<polygon fill="none" stroke="#000000" points="10,-633.7 10,-655.7 197,-655.7 197,-633.7 10,-633.7"/>
<text text-anchor="start" x="30" y="-640.8" font-family="Helvetica,sans-Serif" font-size="11.00" fill="#000000">up_ovoid_invert_diameter</text>
<polygon fill="none" stroke="#000000" points="197,-633.7 197,-655.7 398,-655.7 398,-633.7 197,-633.7"/>
<text text-anchor="start" x="200" y="-641.4" font-family="Helvetica,sans-Serif" font-size="11.00" fill="#000000">float4[8,8]</text>
<polygon fill="none" stroke="#000000" points="10,-611.7 10,-633.7 197,-633.7 197,-611.7 10,-611.7"/>
<text text-anchor="start" x="30" y="-618.8" font-family="Helvetica,sans-Serif" font-size="11.00" fill="#000000">up_cp_geom</text>
<polygon fill="none" stroke="#000000" points="197,-611.7 197,-633.7 398,-633.7 398,-611.7 197,-611.7"/>
<text text-anchor="start" x="200" y="-619.4" font-family="Helvetica,sans-Serif" font-size="11.00" fill="#000000">int4[10]</text>
<polygon fill="none" stroke="#000000" points="10,-589.7 10,-611.7 197,-611.7 197,-589.7 10,-589.7"/>
<text text-anchor="start" x="30" y="-596.8" font-family="Helvetica,sans-Serif" font-size="11.00" fill="#000000">up_op_geom</text>
<polygon fill="none" stroke="#000000" points="197,-589.7 197,-611.7 398,-611.7 398,-589.7 197,-589.7"/>
<text text-anchor="start" x="200" y="-597.4" font-family="Helvetica,sans-Serif" font-size="11.00" fill="#000000">int4[10]</text>
<polygon fill="none" stroke="#000000" points="10,-567.7 10,-589.7 197,-589.7 197,-567.7 10,-567.7"/>
<text text-anchor="start" x="30" y="-574.8" font-family="Helvetica,sans-Serif" font-size="11.00" fill="#000000">up_vcs_geom</text>
<polygon fill="none" stroke="#000000" points="197,-567.7 197,-589.7 398,-589.7 398,-567.7 197,-567.7"/>
<text text-anchor="start" x="200" y="-575.4" font-family="Helvetica,sans-Serif" font-size="11.00" fill="#000000">int4[10]</text>
<polygon fill="none" stroke="#000000" points="10,-545.7 10,-567.7 197,-567.7 197,-545.7 10,-545.7"/>
<text text-anchor="start" x="30" y="-552.8" font-family="Helvetica,sans-Serif" font-size="11.00" fill="#000000">up_vcs_topo_geom</text>
<polygon fill="none" stroke="#000000" points="197,-545.7 197,-567.7 398,-567.7 398,-545.7 197,-545.7"/>
<text text-anchor="start" x="200" y="-553.4" font-family="Helvetica,sans-Serif" font-size="11.00" fill="#000000">int4[10]</text>
<polygon fill="none" stroke="#000000" points="10,-523.7 10,-545.7 197,-545.7 197,-523.7 10,-523.7"/>
<text text-anchor="start" x="30" y="-530.8" font-family="Helvetica,sans-Serif" font-size="11.00" fill="#000000">down_rk</text>
<polygon fill="none" stroke="#000000" points="197,-523.7 197,-545.7 398,-545.7 398,-523.7 197,-523.7"/>
<text text-anchor="start" x="200" y="-531.4" font-family="Helvetica,sans-Serif" font-size="11.00" fill="#000000">float4[8,8]</text>
<polygon fill="none" stroke="#000000" points="10,-501.7 10,-523.7 197,-523.7 197,-501.7 10,-501.7"/>
<text text-anchor="start" x="30" y="-508.8" font-family="Helvetica,sans-Serif" font-size="11.00" fill="#000000">down_rk_maj</text>
<polygon fill="none" stroke="#000000" points="197,-501.7 197,-523.7 398,-523.7 398,-501.7 197,-501.7"/>
<text text-anchor="start" x="200" y="-509.4" font-family="Helvetica,sans-Serif" font-size="11.00" fill="#000000">float4[8,8]</text>
<polygon fill="none" stroke="#000000" points="10,-479.7 10,-501.7 197,-501.7 197,-479.7 10,-479.7"/>
<text text-anchor="start" x="30" y="-486.8" font-family="Helvetica,sans-Serif" font-size="11.00" fill="#000000">down_sinuosity</text>
<polygon fill="none" stroke="#000000" points="197,-479.7 197,-501.7 398,-501.7 398,-479.7 197,-479.7"/>
<text text-anchor="start" x="200" y="-487.4" font-family="Helvetica,sans-Serif" font-size="11.00" fill="#000000">float4[8,8]</text>
<polygon fill="none" stroke="#000000" points="10,-457.7 10,-479.7 197,-479.7 197,-457.7 10,-457.7"/>
<text text-anchor="start" x="30" y="-464.8" font-family="Helvetica,sans-Serif" font-size="11.00" fill="#000000">down_circular_diameter</text>
<polygon fill="none" stroke="#000000" points="197,-457.7 197,-479.7 398,-479.7 398,-457.7 197,-457.7"/>
<text text-anchor="start" x="200" y="-465.4" font-family="Helvetica,sans-Serif" font-size="11.00" fill="#000000">float4[8,8]</text>
<polygon fill="none" stroke="#000000" points="10,-435.7 10,-457.7 197,-457.7 197,-435.7 10,-435.7"/>
<text text-anchor="start" x="30" y="-442.8" font-family="Helvetica,sans-Serif" font-size="11.00" fill="#000000">down_ovoid_height</text>
<polygon fill="none" stroke="#000000" points="197,-435.7 197,-457.7 398,-457.7 398,-435.7 197,-435.7"/>
<text text-anchor="start" x="200" y="-443.4" font-family="Helvetica,sans-Serif" font-size="11.00" fill="#000000">float4[8,8]</text>
<polygon fill="none" stroke="#000000" points="10,-413.7 10,-435.7 197,-435.7 197,-413.7 10,-413.7"/>
<text text-anchor="start" x="30" y="-420.8" font-family="Helvetica,sans-Serif" font-size="11.00" fill="#000000">down_ovoid_top_diameter</text>
<polygon fill="none" stroke="#000000" points="197,-413.7 197,-435.7 398,-435.7 398,-413.7 197,-413.7"/>
<text text-anchor="start" x="200" y="-421.4" font-family="Helvetica,sans-Serif" font-size="11.00" fill="#000000">float4[8,8]</text>
<polygon fill="none" stroke="#000000" points="10,-391.7 10,-413.7 197,-413.7 197,-391.7 10,-391.7"/>
<text text-anchor="start" x="30" y="-398.8" font-family="Helvetica,sans-Serif" font-size="11.00" fill="#000000">down_ovoid_invert_diameter</text>
<polygon fill="none" stroke="#000000" points="197,-391.7 197,-413.7 398,-413.7 398,-391.7 197,-391.7"/>
<text text-anchor="start" x="200" y="-399.4" font-family="Helvetica,sans-Serif" font-size="11.00" fill="#000000">float4[8,8]</text>
<polygon fill="none" stroke="#000000" points="10,-369.7 10,-391.7 197,-391.7 197,-369.7 10,-369.7"/>
<text text-anchor="start" x="30" y="-376.8" font-family="Helvetica,sans-Serif" font-size="11.00" fill="#000000">down_cp_geom</text>
<polygon fill="none" stroke="#000000" points="197,-369.7 197,-391.7 398,-391.7 398,-369.7 197,-369.7"/>
<text text-anchor="start" x="200" y="-377.4" font-family="Helvetica,sans-Serif" font-size="11.00" fill="#000000">int4[10]</text>
<polygon fill="none" stroke="#000000" points="10,-347.7 10,-369.7 197,-369.7 197,-347.7 10,-347.7"/>
<text text-anchor="start" x="30" y="-354.8" font-family="Helvetica,sans-Serif" font-size="11.00" fill="#000000">down_op_geom</text>
<polygon fill="none" stroke="#000000" points="197,-347.7 197,-369.7 398,-369.7 398,-347.7 197,-347.7"/>
<text text-anchor="start" x="200" y="-355.4" font-family="Helvetica,sans-Serif" font-size="11.00" fill="#000000">int4[10]</text>
<polygon fill="none" stroke="#000000" points="10,-325.7 10,-347.7 197,-347.7 197,-325.7 10,-325.7"/>
<text text-anchor="start" x="30" y="-332.8" font-family="Helvetica,sans-Serif" font-size="11.00" fill="#000000">down_vcs_geom</text>
<polygon fill="none" stroke="#000000" points="197,-325.7 197,-347.7 398,-347.7 398,-325.7 197,-325.7"/>
<text text-anchor="start" x="200" y="-333.4" font-family="Helvetica,sans-Serif" font-size="11.00" fill="#000000">int4[10]</text>
<polygon fill="none" stroke="#000000" points="10,-303.7 10,-325.7 197,-325.7 197,-303.7 10,-303.7"/>
<text text-anchor="start" x="30" y="-310.8" font-family="Helvetica,sans-Serif" font-size="11.00" fill="#000000">down_vcs_topo_geom</text>
<polygon fill="none" stroke="#000000" points="197,-303.7 197,-325.7 398,-325.7 398,-303.7 197,-303.7"/>
<text text-anchor="start" x="200" y="-311.4" font-family="Helvetica,sans-Serif" font-size="11.00" fill="#000000">int4[10]</text>
<polygon fill="none" stroke="#000000" points="10,-281.7 10,-303.7 197,-303.7 197,-281.7 10,-281.7"/>
<text text-anchor="start" x="30" y="-288.8" font-family="Helvetica,sans-Serif" font-size="11.00" fill="#000000">configuration</text>
<polygon fill="none" stroke="#000000" points="197,-281.7 197,-303.7 398,-303.7 398,-281.7 197,-281.7"/>
<text text-anchor="start" x="200" y="-289.4" font-family="Helvetica,sans-Serif" font-size="11.00" fill="#000000">json[2147483647]</text>
<polygon fill="none" stroke="#000000" points="10,-259.7 10,-281.7 197,-281.7 197,-259.7 10,-259.7"/>
<text text-anchor="start" x="30" y="-266.8" font-family="Helvetica,sans-Serif" font-size="11.00" fill="#000000">z_tn_up</text>
<polygon fill="none" stroke="#000000" points="197,-259.7 197,-281.7 398,-281.7 398,-259.7 197,-259.7"/>
<text text-anchor="start" x="200" y="-267.4" font-family="Helvetica,sans-Serif" font-size="11.00" fill="#000000">float8[17,17]</text>
<polygon fill="none" stroke="#000000" points="10,-237.7 10,-259.7 197,-259.7 197,-237.7 10,-237.7"/>
<text text-anchor="start" x="30" y="-244.8" font-family="Helvetica,sans-Serif" font-size="11.00" fill="#000000">z_tn_down</text>
<polygon fill="none" stroke="#000000" points="197,-237.7 197,-259.7 398,-259.7 398,-237.7 197,-237.7"/>
<text text-anchor="start" x="200" y="-245.4" font-family="Helvetica,sans-Serif" font-size="11.00" fill="#000000">float8[17,17]</text>
<polygon fill="none" stroke="#000000" points="10,-215.7 10,-237.7 197,-237.7 197,-215.7 10,-215.7"/>
<text text-anchor="start" x="30" y="-222.8" font-family="Helvetica,sans-Serif" font-size="11.00" fill="#000000">z_lbank_up</text>
<polygon fill="none" stroke="#000000" points="197,-215.7 197,-237.7 398,-237.7 398,-215.7 197,-215.7"/>
<text text-anchor="start" x="200" y="-223.4" font-family="Helvetica,sans-Serif" font-size="11.00" fill="#000000">float4[8,8]</text>
<polygon fill="none" stroke="#000000" points="10,-193.7 10,-215.7 197,-215.7 197,-193.7 10,-193.7"/>
<text text-anchor="start" x="30" y="-200.8" font-family="Helvetica,sans-Serif" font-size="11.00" fill="#000000">z_lbank_down</text>
<polygon fill="none" stroke="#000000" points="197,-193.7 197,-215.7 398,-215.7 398,-193.7 197,-193.7"/>
<text text-anchor="start" x="200" y="-201.4" font-family="Helvetica,sans-Serif" font-size="11.00" fill="#000000">float4[8,8]</text>
<polygon fill="none" stroke="#000000" points="10,-171.7 10,-193.7 197,-193.7 197,-171.7 10,-171.7"/>
<text text-anchor="start" x="30" y="-178.8" font-family="Helvetica,sans-Serif" font-size="11.00" fill="#000000">z_rbank_up</text>
<polygon fill="none" stroke="#000000" points="197,-171.7 197,-193.7 398,-193.7 398,-171.7 197,-171.7"/>
<text text-anchor="start" x="200" y="-179.4" font-family="Helvetica,sans-Serif" font-size="11.00" fill="#000000">float4[8,8]</text>
<polygon fill="none" stroke="#000000" points="10,-149.7 10,-171.7 197,-171.7 197,-149.7 10,-149.7"/>
<text text-anchor="start" x="30" y="-156.8" font-family="Helvetica,sans-Serif" font-size="11.00" fill="#000000">z_rbank_down</text>
<polygon fill="none" stroke="#000000" points="197,-149.7 197,-171.7 398,-171.7 398,-149.7 197,-149.7"/>
<text text-anchor="start" x="200" y="-157.4" font-family="Helvetica,sans-Serif" font-size="11.00" fill="#000000">float4[8,8]</text>
<polygon fill="none" stroke="#000000" points="10,-127.7 10,-149.7 197,-149.7 197,-127.7 10,-127.7"/>
<text text-anchor="start" x="30" y="-134.8" font-family="Helvetica,sans-Serif" font-size="11.00" fill="#000000">z_ceiling_up</text>
<polygon fill="none" stroke="#000000" points="197,-127.7 197,-149.7 398,-149.7 398,-127.7 197,-127.7"/>
<text text-anchor="start" x="200" y="-135.4" font-family="Helvetica,sans-Serif" font-size="11.00" fill="#000000">float4[8,8]</text>
<polygon fill="none" stroke="#000000" points="10,-105.7 10,-127.7 197,-127.7 197,-105.7 10,-105.7"/>
<text text-anchor="start" x="30" y="-112.8" font-family="Helvetica,sans-Serif" font-size="11.00" fill="#000000">z_ceiling_down</text>
<polygon fill="none" stroke="#000000" points="197,-105.7 197,-127.7 398,-127.7 398,-105.7 197,-105.7"/>
<text text-anchor="start" x="200" y="-113.4" font-family="Helvetica,sans-Serif" font-size="11.00" fill="#000000">float4[8,8]</text>
<polygon fill="none" stroke="#000000" points="10,-83.7 10,-105.7 197,-105.7 197,-83.7 10,-83.7"/>
<text text-anchor="start" x="30" y="-90.8" font-family="Helvetica,sans-Serif" font-size="11.00" fill="#000000">validity</text>
<polygon fill="none" stroke="#000000" points="197,-83.7 197,-105.7 398,-105.7 398,-83.7 197,-83.7"/>
<text text-anchor="start" x="200" y="-91.4" font-family="Helvetica,sans-Serif" font-size="11.00" fill="#000000">bool[1]</text>
<polygon fill="none" stroke="#000000" points="10,-61.7 10,-83.7 197,-83.7 197,-61.7 10,-61.7"/>
<text text-anchor="start" x="30" y="-68.8" font-family="Helvetica,sans-Serif" font-size="11.00" fill="#000000">comment</text>
<polygon fill="none" stroke="#000000" points="197,-61.7 197,-83.7 398,-83.7 398,-61.7 197,-61.7"/>
<text text-anchor="start" x="200" y="-69.4" font-family="Helvetica,sans-Serif" font-size="11.00" fill="#000000">varchar[2147483647]</text>
<polygon fill="none" stroke="#000000" points="10,-39.7 10,-61.7 197,-61.7 197,-39.7 10,-39.7"/>
<text text-anchor="start" x="30" y="-46.8" font-family="Helvetica,sans-Serif" font-size="11.00" fill="#000000">geom</text>
<polygon fill="none" stroke="#000000" points="197,-39.7 197,-61.7 398,-61.7 398,-39.7 197,-39.7"/>
<text text-anchor="start" x="200" y="-47.4" font-family="Helvetica,sans-Serif" font-size="11.00" fill="#000000">geometry[2147483647]</text>
<polygon fill="none" stroke="#000000" stroke-width="2" points="9,-39.2 9,-944.2 399,-944.2 399,-39.2 9,-39.2"/>
</a>
</g>
</g>
</g>
</svg>
