<?xml version="1.0" encoding="UTF-8" standalone="no"?>
<!DOCTYPE svg PUBLIC "-//W3C//DTD SVG 1.1//EN"
 "http://www.w3.org/Graphics/SVG/1.1/DTD/svg11.dtd">
<!-- Generated by graphviz version 2.40.1 (20161225.0304)
 -->
<!-- Title: oneDegreeRelationshipsDiagram Pages: 1 -->
<svg width="340pt" height="451pt"
 viewBox="0.00 0.00 340.00 451.20" xmlns="http://www.w3.org/2000/svg" xmlns:xlink="http://www.w3.org/1999/xlink">
<g id="graph0" class="graph" transform="scale(1 1) rotate(0) translate(4 447.2)">
<title>oneDegreeRelationshipsDiagram</title>
<polygon fill="#ffffff" stroke="transparent" points="-4,4 -4,-447.2 336,-447.2 336,4 -4,4"/>
<text text-anchor="middle" x="72.4936" y="-7.3" font-family="Helvetica,sans-Serif" font-size="11.00" fill="#000000">Generated by SchemaSpy</text>
<!-- routing_hydrology_link -->
<g id="node1" class="node">
<title>routing_hydrology_link</title>
<g id="a_node1"><a xlink:href="../../tables/routing_hydrology_link.html" xlink:title="routing_hydrology_link" target="_top">
<polygon fill="#ffffff" stroke="transparent" points="8,-38.2 8,-439.2 324,-439.2 324,-38.2 8,-38.2"/>
<polygon fill="#f5f5f5" stroke="transparent" points="10,-413.7 10,-436.7 322,-436.7 322,-413.7 10,-413.7"/>
<polygon fill="none" stroke="#000000" points="10,-413.7 10,-436.7 322,-436.7 322,-413.7 10,-413.7"/>
<text text-anchor="start" x="15" y="-422.3" font-family="Helvetica,sans-Serif" font-weight="bold" font-size="11.00" fill="#000000">routing_hydrology_link</text>
<text text-anchor="start" x="288.8895" y="-421.8" font-family="Helvetica,sans-Serif" font-size="11.00" fill="#000000">[view]</text>
<polygon fill="none" stroke="#000000" points="10,-391.7 10,-413.7 164,-413.7 164,-391.7 10,-391.7"/>
<text text-anchor="start" x="30" y="-398.8" font-family="Helvetica,sans-Serif" font-size="11.00" fill="#000000">id</text>
<polygon fill="none" stroke="#000000" points="164,-391.7 164,-413.7 322,-413.7 322,-391.7 164,-391.7"/>
<text text-anchor="start" x="167" y="-399.4" font-family="Helvetica,sans-Serif" font-size="11.00" fill="#000000">int4[10]</text>
<polygon fill="none" stroke="#000000" points="10,-369.7 10,-391.7 164,-391.7 164,-369.7 10,-369.7"/>
<text text-anchor="start" x="30" y="-376.8" font-family="Helvetica,sans-Serif" font-size="11.00" fill="#000000">name</text>
<polygon fill="none" stroke="#000000" points="164,-369.7 164,-391.7 322,-391.7 322,-369.7 164,-369.7"/>
<text text-anchor="start" x="167" y="-377.4" font-family="Helvetica,sans-Serif" font-size="11.00" fill="#000000">varchar[24]</text>
<polygon fill="none" stroke="#000000" points="10,-347.7 10,-369.7 164,-369.7 164,-347.7 10,-347.7"/>
<text text-anchor="start" x="30" y="-354.8" font-family="Helvetica,sans-Serif" font-size="11.00" fill="#000000">up</text>
<polygon fill="none" stroke="#000000" points="164,-347.7 164,-369.7 322,-369.7 322,-347.7 164,-347.7"/>
<text text-anchor="start" x="167" y="-355.4" font-family="Helvetica,sans-Serif" font-size="11.00" fill="#000000">int4[10]</text>
<polygon fill="none" stroke="#000000" points="10,-325.7 10,-347.7 164,-347.7 164,-325.7 10,-325.7"/>
<text text-anchor="start" x="30" y="-332.8" font-family="Helvetica,sans-Serif" font-size="11.00" fill="#000000">down</text>
<polygon fill="none" stroke="#000000" points="164,-325.7 164,-347.7 322,-347.7 322,-325.7 164,-325.7"/>
<text text-anchor="start" x="167" y="-333.4" font-family="Helvetica,sans-Serif" font-size="11.00" fill="#000000">int4[10]</text>
<polygon fill="none" stroke="#000000" points="10,-303.7 10,-325.7 164,-325.7 164,-303.7 10,-303.7"/>
<text text-anchor="start" x="30" y="-310.8" font-family="Helvetica,sans-Serif" font-size="11.00" fill="#000000">cross_section</text>
<polygon fill="none" stroke="#000000" points="164,-303.7 164,-325.7 322,-325.7 322,-303.7 164,-303.7"/>
<text text-anchor="start" x="167" y="-311.4" font-family="Helvetica,sans-Serif" font-size="11.00" fill="#000000">float4[8,8]</text>
<polygon fill="none" stroke="#000000" points="10,-281.7 10,-303.7 164,-303.7 164,-281.7 10,-281.7"/>
<text text-anchor="start" x="30" y="-288.8" font-family="Helvetica,sans-Serif" font-size="11.00" fill="#000000">length</text>
<polygon fill="none" stroke="#000000" points="164,-281.7 164,-303.7 322,-303.7 322,-281.7 164,-281.7"/>
<text text-anchor="start" x="167" y="-289.4" font-family="Helvetica,sans-Serif" font-size="11.00" fill="#000000">float4[8,8]</text>
<polygon fill="none" stroke="#000000" points="10,-259.7 10,-281.7 164,-281.7 164,-259.7 10,-259.7"/>
<text text-anchor="start" x="30" y="-266.8" font-family="Helvetica,sans-Serif" font-size="11.00" fill="#000000">slope</text>
<polygon fill="none" stroke="#000000" points="164,-259.7 164,-281.7 322,-281.7 322,-259.7 164,-259.7"/>
<text text-anchor="start" x="167" y="-267.4" font-family="Helvetica,sans-Serif" font-size="11.00" fill="#000000">float4[8,8]</text>
<polygon fill="none" stroke="#000000" points="10,-237.7 10,-259.7 164,-259.7 164,-237.7 10,-237.7"/>
<text text-anchor="start" x="30" y="-244.8" font-family="Helvetica,sans-Serif" font-size="11.00" fill="#000000">hydrograph</text>
<polygon fill="none" stroke="#000000" points="164,-237.7 164,-259.7 322,-259.7 322,-237.7 164,-237.7"/>
<text text-anchor="start" x="167" y="-245.4" font-family="Helvetica,sans-Serif" font-size="11.00" fill="#000000">int4[10]</text>
<polygon fill="none" stroke="#000000" points="10,-215.7 10,-237.7 164,-237.7 164,-215.7 10,-215.7"/>
<text text-anchor="start" x="30" y="-222.8" font-family="Helvetica,sans-Serif" font-size="11.00" fill="#000000">split_coef</text>
<polygon fill="none" stroke="#000000" points="164,-215.7 164,-237.7 322,-237.7 322,-215.7 164,-215.7"/>
<text text-anchor="start" x="167" y="-223.4" font-family="Helvetica,sans-Serif" font-size="11.00" fill="#000000">float4[8,8]</text>
<polygon fill="none" stroke="#000000" points="10,-193.7 10,-215.7 164,-215.7 164,-193.7 10,-193.7"/>
<text text-anchor="start" x="30" y="-200.8" font-family="Helvetica,sans-Serif" font-size="11.00" fill="#000000">geom</text>
<polygon fill="none" stroke="#000000" points="164,-193.7 164,-215.7 322,-215.7 322,-193.7 164,-193.7"/>
<text text-anchor="start" x="167" y="-201.4" font-family="Helvetica,sans-Serif" font-size="11.00" fill="#000000">geometry[2147483647]</text>
<polygon fill="none" stroke="#000000" points="10,-171.7 10,-193.7 164,-193.7 164,-171.7 10,-171.7"/>
<text text-anchor="start" x="30" y="-178.8" font-family="Helvetica,sans-Serif" font-size="11.00" fill="#000000">configuration</text>
<polygon fill="none" stroke="#000000" points="164,-171.7 164,-193.7 322,-193.7 322,-171.7 164,-171.7"/>
<text text-anchor="start" x="167" y="-179.4" font-family="Helvetica,sans-Serif" font-size="11.00" fill="#000000">varchar[2147483647]</text>
<polygon fill="none" stroke="#000000" points="10,-149.7 10,-171.7 164,-171.7 164,-149.7 10,-149.7"/>
<text text-anchor="start" x="30" y="-156.8" font-family="Helvetica,sans-Serif" font-size="11.00" fill="#000000">generated</text>
<polygon fill="none" stroke="#000000" points="164,-149.7 164,-171.7 322,-171.7 322,-149.7 164,-149.7"/>
<text text-anchor="start" x="167" y="-157.4" font-family="Helvetica,sans-Serif" font-size="11.00" fill="#000000">int4[10]</text>
<polygon fill="none" stroke="#000000" points="10,-127.7 10,-149.7 164,-149.7 164,-127.7 10,-127.7"/>
<text text-anchor="start" x="30" y="-134.8" font-family="Helvetica,sans-Serif" font-size="11.00" fill="#000000">validity</text>
<polygon fill="none" stroke="#000000" points="164,-127.7 164,-149.7 322,-149.7 322,-127.7 164,-127.7"/>
<text text-anchor="start" x="167" y="-135.4" font-family="Helvetica,sans-Serif" font-size="11.00" fill="#000000">bool[1]</text>
<polygon fill="none" stroke="#000000" points="10,-105.7 10,-127.7 164,-127.7 164,-105.7 10,-105.7"/>
<text text-anchor="start" x="30" y="-112.8" font-family="Helvetica,sans-Serif" font-size="11.00" fill="#000000">up_type</text>
<polygon fill="none" stroke="#000000" points="164,-105.7 164,-127.7 322,-127.7 322,-105.7 164,-105.7"/>
<text text-anchor="start" x="166.8773" y="-113.4" font-family="Helvetica,sans-Serif" font-size="11.00" fill="#000000">hydra_node_type[2147483647]</text>
<polygon fill="none" stroke="#000000" points="10,-83.7 10,-105.7 164,-105.7 164,-83.7 10,-83.7"/>
<text text-anchor="start" x="30" y="-90.8" font-family="Helvetica,sans-Serif" font-size="11.00" fill="#000000">down_type</text>
<polygon fill="none" stroke="#000000" points="164,-83.7 164,-105.7 322,-105.7 322,-83.7 164,-83.7"/>
<text text-anchor="start" x="166.8773" y="-91.4" font-family="Helvetica,sans-Serif" font-size="11.00" fill="#000000">hydra_node_type[2147483647]</text>
<polygon fill="none" stroke="#000000" points="10,-61.7 10,-83.7 164,-83.7 164,-61.7 10,-61.7"/>
<text text-anchor="start" x="30" y="-68.8" font-family="Helvetica,sans-Serif" font-size="11.00" fill="#000000">configuration_json</text>
<polygon fill="none" stroke="#000000" points="164,-61.7 164,-83.7 322,-83.7 322,-61.7 164,-61.7"/>
<text text-anchor="start" x="167" y="-69.4" font-family="Helvetica,sans-Serif" font-size="11.00" fill="#000000">json[2147483647]</text>
<polygon fill="none" stroke="#000000" points="10,-39.7 10,-61.7 164,-61.7 164,-39.7 10,-39.7"/>
<text text-anchor="start" x="30" y="-46.8" font-family="Helvetica,sans-Serif" font-size="11.00" fill="#000000">comment</text>
<polygon fill="none" stroke="#000000" points="164,-39.7 164,-61.7 322,-61.7 322,-39.7 164,-39.7"/>
<text text-anchor="start" x="167" y="-47.4" font-family="Helvetica,sans-Serif" font-size="11.00" fill="#000000">varchar[2147483647]</text>
<polygon fill="none" stroke="#000000" stroke-width="2" points="9,-39.2 9,-438.2 323,-438.2 323,-39.2 9,-39.2"/>
</a>
</g>
</g>
</g>
</svg>
