<?xml version="1.0" encoding="UTF-8" standalone="no"?>
<!DOCTYPE svg PUBLIC "-//W3C//DTD SVG 1.1//EN"
 "http://www.w3.org/Graphics/SVG/1.1/DTD/svg11.dtd">
<!-- Generated by graphviz version 2.40.1 (20161225.0304)
 -->
<!-- Title: oneDegreeRelationshipsDiagram Pages: 1 -->
<svg width="390pt" height="227pt"
 viewBox="0.00 0.00 390.00 226.70" xmlns="http://www.w3.org/2000/svg" xmlns:xlink="http://www.w3.org/1999/xlink">
<g id="graph0" class="graph" transform="scale(1 1) rotate(0) translate(4 222.7)">
<title>oneDegreeRelationshipsDiagram</title>
<polygon fill="#ffffff" stroke="transparent" points="-4,4 -4,-222.7 386,-222.7 386,4 -4,4"/>
<text text-anchor="middle" x="72.4936" y="-7.3" font-family="Helvetica,sans-Serif" font-size="11.00" fill="#000000">Generated by SchemaSpy</text>
<!-- _station_node -->
<g id="node1" class="node">
<title>_station_node</title>
<g id="a_node1"><a xlink:href="../../tables/_station_node.html" xlink:title="_station_node" target="_top">
<polygon fill="#ffffff" stroke="transparent" points="254,-87.7 254,-214.7 374,-214.7 374,-87.7 254,-87.7"/>
<polygon fill="#f5f5f5" stroke="transparent" points="254,-191.2 254,-214.2 374,-214.2 374,-191.2 254,-191.2"/>
<polygon fill="none" stroke="#000000" points="254,-191.2 254,-214.2 374,-214.2 374,-191.2 254,-191.2"/>
<text text-anchor="start" x="259" y="-199.8" font-family="Helvetica,sans-Serif" font-weight="bold" font-size="11.00" fill="#000000">_station_node</text>
<text text-anchor="start" x="339.5219" y="-199.3" font-family="Helvetica,sans-Serif" font-size="11.00" fill="#000000">[table]</text>
<polygon fill="#ffffff" stroke="transparent" points="254,-169.2 254,-191.2 374,-191.2 374,-169.2 254,-169.2"/>
<polygon fill="none" stroke="#000000" points="254,-169.2 254,-191.2 374,-191.2 374,-169.2 254,-169.2"/>
<image xlink:href="../../images/foreignKeys.png" width="11px" height="12px" preserveAspectRatio="xMinYMin meet" x="259" y="-186.2"/>
<text text-anchor="start" x="283" y="-176.3" font-family="Helvetica,sans-Serif" font-size="11.00" fill="#000000">id</text>
<polygon fill="none" stroke="#000000" points="254,-147.2 254,-169.2 374,-169.2 374,-147.2 254,-147.2"/>
<image xlink:href="../../images/foreignKeys.png" width="11px" height="12px" preserveAspectRatio="xMinYMin meet" x="259" y="-164.2"/>
<text text-anchor="start" x="283" y="-154.3" font-family="Helvetica,sans-Serif" font-size="11.00" fill="#000000">node_type</text>
<polygon fill="none" stroke="#000000" points="254,-125.2 254,-147.2 374,-147.2 374,-125.2 254,-125.2"/>
<image xlink:href="../../images/foreignKeys.png" width="11px" height="12px" preserveAspectRatio="xMinYMin meet" x="259" y="-142.2"/>
<text text-anchor="start" x="283" y="-132.3" font-family="Helvetica,sans-Serif" font-size="11.00" fill="#000000">station</text>
<polygon fill="none" stroke="#000000" points="254,-106.2 254,-125.2 374,-125.2 374,-106.2 254,-106.2"/>
<text text-anchor="start" x="257" y="-112.3" font-family="Helvetica,sans-Serif" font-size="11.00" fill="#000000">...</text>
<polygon fill="#ffffff" stroke="transparent" points="254,-87.2 254,-106.2 299,-106.2 299,-87.2 254,-87.2"/>
<polygon fill="none" stroke="#000000" points="254,-87.2 254,-106.2 299,-106.2 299,-87.2 254,-87.2"/>
<text text-anchor="start" x="257" y="-93.3" font-family="Helvetica,sans-Serif" font-size="11.00" fill="#000000">&lt; 3</text>
<polygon fill="#ffffff" stroke="transparent" points="299,-87.2 299,-106.2 349,-106.2 349,-87.2 299,-87.2"/>
<polygon fill="none" stroke="#000000" points="299,-87.2 299,-106.2 349,-106.2 349,-87.2 299,-87.2"/>
<text text-anchor="start" x="313.6105" y="-93.3" font-family="Helvetica,sans-Serif" font-size="11.00" fill="#000000">0 rows</text>
<polygon fill="#ffffff" stroke="transparent" points="349,-87.2 349,-106.2 374,-106.2 374,-87.2 349,-87.2"/>
<polygon fill="none" stroke="#000000" points="349,-87.2 349,-106.2 374,-106.2 374,-87.2 349,-87.2"/>
<text text-anchor="start" x="364.8862" y="-93.3" font-family="Helvetica,sans-Serif" font-size="11.00" fill="#000000"> &#160;</text>
</a>
</g>
</g>
<!-- station -->
<g id="node2" class="node">
<title>station</title>
<g id="a_node2"><a xlink:href="../../tables/station.html" xlink:title="station" target="_top">
<polygon fill="#ffffff" stroke="transparent" points="8,-38.2 8,-172.2 205,-172.2 205,-38.2 8,-38.2"/>
<polygon fill="#f5f5f5" stroke="transparent" points="10.5,-147.2 10.5,-170.2 203.5,-170.2 203.5,-147.2 10.5,-147.2"/>
<polygon fill="none" stroke="#000000" points="10.5,-147.2 10.5,-170.2 203.5,-170.2 203.5,-147.2 10.5,-147.2"/>
<text text-anchor="start" x="15.5" y="-155.8" font-family="Helvetica,sans-Serif" font-weight="bold" font-size="11.00" fill="#000000">station</text>
<text text-anchor="start" x="168.5437" y="-155.3" font-family="Helvetica,sans-Serif" font-size="11.00" fill="#000000">[table]</text>
<polygon fill="none" stroke="#000000" points="10.5,-125.2 10.5,-147.2 84.5,-147.2 84.5,-125.2 10.5,-125.2"/>
<image xlink:href="../../images/primaryKeys.png" width="11px" height="12px" preserveAspectRatio="xMinYMin meet" x="15.5" y="-142.2"/>
<text text-anchor="start" x="30.5" y="-132.3" font-family="Helvetica,sans-Serif" font-size="11.00" fill="#000000">id</text>
<polygon fill="none" stroke="#000000" points="84.5,-125.2 84.5,-147.2 203.5,-147.2 203.5,-125.2 84.5,-125.2"/>
<text text-anchor="start" x="87.5" y="-132.9" font-family="Helvetica,sans-Serif" font-size="11.00" fill="#000000">serial[10]</text>
<polygon fill="#ffffff" stroke="transparent" points="10.5,-103.2 10.5,-125.2 84.5,-125.2 84.5,-103.2 10.5,-103.2"/>
<polygon fill="none" stroke="#000000" points="10.5,-103.2 10.5,-125.2 84.5,-125.2 84.5,-103.2 10.5,-103.2"/>
<text text-anchor="start" x="30.5" y="-110.3" font-family="Helvetica,sans-Serif" font-size="11.00" fill="#000000">name</text>
<polygon fill="none" stroke="#000000" points="84.5,-103.2 84.5,-125.2 203.5,-125.2 203.5,-103.2 84.5,-103.2"/>
<text text-anchor="start" x="87.5" y="-110.9" font-family="Helvetica,sans-Serif" font-size="11.00" fill="#000000">varchar[16]</text>
<polygon fill="none" stroke="#000000" points="10.5,-81.2 10.5,-103.2 84.5,-103.2 84.5,-81.2 10.5,-81.2"/>
<text text-anchor="start" x="30.5" y="-88.3" font-family="Helvetica,sans-Serif" font-size="11.00" fill="#000000">geom</text>
<polygon fill="none" stroke="#000000" points="84.5,-81.2 84.5,-103.2 203.5,-103.2 203.5,-81.2 84.5,-81.2"/>
<text text-anchor="start" x="87.4485" y="-88.9" font-family="Helvetica,sans-Serif" font-size="11.00" fill="#000000">geometry[2147483647]</text>
<polygon fill="none" stroke="#000000" points="10.5,-59.2 10.5,-81.2 84.5,-81.2 84.5,-59.2 10.5,-59.2"/>
<text text-anchor="start" x="30.5" y="-66.3" font-family="Helvetica,sans-Serif" font-size="11.00" fill="#000000">comment</text>
<polygon fill="none" stroke="#000000" points="84.5,-59.2 84.5,-81.2 203.5,-81.2 203.5,-59.2 84.5,-59.2"/>
<text text-anchor="start" x="87.5" y="-66.9" font-family="Helvetica,sans-Serif" font-size="11.00" fill="#000000">varchar[256]</text>
<polygon fill="#ffffff" stroke="transparent" points="10.5,-40.2 10.5,-59.2 38.5,-59.2 38.5,-40.2 10.5,-40.2"/>
<polygon fill="none" stroke="#000000" points="10.5,-40.2 10.5,-59.2 38.5,-59.2 38.5,-40.2 10.5,-40.2"/>
<text text-anchor="start" x="13.5" y="-46.3" font-family="Helvetica,sans-Serif" font-size="11.00" fill="#000000">&lt; 0</text>
<polygon fill="#ffffff" stroke="transparent" points="38.5,-40.2 38.5,-59.2 84.5,-59.2 84.5,-40.2 38.5,-40.2"/>
<polygon fill="none" stroke="#000000" points="38.5,-40.2 38.5,-59.2 84.5,-59.2 84.5,-40.2 38.5,-40.2"/>
<text text-anchor="start" x="49.1105" y="-46.3" font-family="Helvetica,sans-Serif" font-size="11.00" fill="#000000">0 rows</text>
<polygon fill="#ffffff" stroke="transparent" points="84.5,-40.2 84.5,-59.2 203.5,-59.2 203.5,-40.2 84.5,-40.2"/>
<polygon fill="none" stroke="#000000" points="84.5,-40.2 84.5,-59.2 203.5,-59.2 203.5,-40.2 84.5,-40.2"/>
<text text-anchor="start" x="184.9053" y="-46.3" font-family="Helvetica,sans-Serif" font-size="11.00" fill="#000000">1 &gt;</text>
<polygon fill="none" stroke="#000000" stroke-width="2" points="9,-39.2 9,-171.2 204,-171.2 204,-39.2 9,-39.2"/>
</a>
</g>
</g>
<!-- _station_node&#45;&gt;station -->
<g id="edge1" class="edge">
<title>_station_node:w&#45;&gt;station:e</title>
<path fill="none" stroke="#000000" d="M239.4203,-136.2C227.5435,-136.2 220.158,-136.2 203.5,-136.2"/>
<polygon fill="#000000" stroke="#000000" points="246,-136.2001 254,-139.8 250,-136.2 254,-136.2 254,-136.2 254,-136.2 250,-136.2 254,-132.6 246,-136.2001 246,-136.2001"/>
<ellipse fill="none" stroke="#000000" cx="242.8" cy="-136.2001" rx="3.2" ry="3.2"/>
</g>
</g>
</svg>
