<?xml version="1.0" encoding="UTF-8" standalone="no"?>
<!DOCTYPE svg PUBLIC "-//W3C//DTD SVG 1.1//EN"
 "http://www.w3.org/Graphics/SVG/1.1/DTD/svg11.dtd">
<!-- Generated by graphviz version 2.40.1 (20161225.0304)
 -->
<!-- Title: twoDegreesRelationshipsDiagram Pages: 1 -->
<svg width="390pt" height="268pt"
 viewBox="0.00 0.00 390.00 267.70" xmlns="http://www.w3.org/2000/svg" xmlns:xlink="http://www.w3.org/1999/xlink">
<g id="graph0" class="graph" transform="scale(1 1) rotate(0) translate(4 263.7)">
<title>twoDegreesRelationshipsDiagram</title>
<polygon fill="#ffffff" stroke="transparent" points="-4,4 -4,-263.7 386,-263.7 386,4 -4,4"/>
<text text-anchor="middle" x="72.4936" y="-7.3" font-family="Helvetica,sans-Serif" font-size="11.00" fill="#000000">Generated by SchemaSpy</text>
<!-- _station_node -->
<g id="node1" class="node">
<title>_station_node</title>
<g id="a_node1"><a xlink:href="../../tables/_station_node.html" xlink:title="_station_node" target="_top">
<polygon fill="#ffffff" stroke="transparent" points="254,-128.7 254,-255.7 374,-255.7 374,-128.7 254,-128.7"/>
<polygon fill="#f5f5f5" stroke="transparent" points="254,-232.2 254,-255.2 374,-255.2 374,-232.2 254,-232.2"/>
<polygon fill="none" stroke="#000000" points="254,-232.2 254,-255.2 374,-255.2 374,-232.2 254,-232.2"/>
<text text-anchor="start" x="259" y="-240.8" font-family="Helvetica,sans-Serif" font-weight="bold" font-size="11.00" fill="#000000">_station_node</text>
<text text-anchor="start" x="339.5219" y="-240.3" font-family="Helvetica,sans-Serif" font-size="11.00" fill="#000000">[table]</text>
<polygon fill="#ffffff" stroke="transparent" points="254,-210.2 254,-232.2 374,-232.2 374,-210.2 254,-210.2"/>
<polygon fill="none" stroke="#000000" points="254,-210.2 254,-232.2 374,-232.2 374,-210.2 254,-210.2"/>
<image xlink:href="../../images/foreignKeys.png" width="11px" height="12px" preserveAspectRatio="xMinYMin meet" x="259" y="-227.2"/>
<text text-anchor="start" x="283" y="-217.3" font-family="Helvetica,sans-Serif" font-size="11.00" fill="#000000">id</text>
<polygon fill="none" stroke="#000000" points="254,-188.2 254,-210.2 374,-210.2 374,-188.2 254,-188.2"/>
<image xlink:href="../../images/foreignKeys.png" width="11px" height="12px" preserveAspectRatio="xMinYMin meet" x="259" y="-205.2"/>
<text text-anchor="start" x="283" y="-195.3" font-family="Helvetica,sans-Serif" font-size="11.00" fill="#000000">node_type</text>
<polygon fill="none" stroke="#000000" points="254,-166.2 254,-188.2 374,-188.2 374,-166.2 254,-166.2"/>
<image xlink:href="../../images/foreignKeys.png" width="11px" height="12px" preserveAspectRatio="xMinYMin meet" x="259" y="-183.2"/>
<text text-anchor="start" x="283" y="-173.3" font-family="Helvetica,sans-Serif" font-size="11.00" fill="#000000">station</text>
<polygon fill="none" stroke="#000000" points="254,-147.2 254,-166.2 374,-166.2 374,-147.2 254,-147.2"/>
<text text-anchor="start" x="257" y="-153.3" font-family="Helvetica,sans-Serif" font-size="11.00" fill="#000000">...</text>
<polygon fill="#ffffff" stroke="transparent" points="254,-128.2 254,-147.2 299,-147.2 299,-128.2 254,-128.2"/>
<polygon fill="none" stroke="#000000" points="254,-128.2 254,-147.2 299,-147.2 299,-128.2 254,-128.2"/>
<text text-anchor="start" x="257" y="-134.3" font-family="Helvetica,sans-Serif" font-size="11.00" fill="#000000">&lt; 3</text>
<polygon fill="#ffffff" stroke="transparent" points="299,-128.2 299,-147.2 349,-147.2 349,-128.2 299,-128.2"/>
<polygon fill="none" stroke="#000000" points="299,-128.2 299,-147.2 349,-147.2 349,-128.2 299,-128.2"/>
<text text-anchor="start" x="313.6105" y="-134.3" font-family="Helvetica,sans-Serif" font-size="11.00" fill="#000000">0 rows</text>
<polygon fill="#ffffff" stroke="transparent" points="349,-128.2 349,-147.2 374,-147.2 374,-128.2 349,-128.2"/>
<polygon fill="none" stroke="#000000" points="349,-128.2 349,-147.2 374,-147.2 374,-128.2 349,-128.2"/>
<text text-anchor="start" x="364.8862" y="-134.3" font-family="Helvetica,sans-Serif" font-size="11.00" fill="#000000"> &#160;</text>
</a>
</g>
</g>
<!-- _node -->
<g id="node2" class="node">
<title>_node</title>
<g id="a_node2"><a xlink:href="../../tables/_node.html" xlink:title="_node" target="_top">
<polygon fill="#ffffff" stroke="transparent" points="63.5,-193.7 63.5,-254.7 149.5,-254.7 149.5,-193.7 63.5,-193.7"/>
<polygon fill="#f5f5f5" stroke="transparent" points="63.5,-231.2 63.5,-254.2 149.5,-254.2 149.5,-231.2 63.5,-231.2"/>
<polygon fill="none" stroke="#000000" points="63.5,-231.2 63.5,-254.2 149.5,-254.2 149.5,-231.2 63.5,-231.2"/>
<text text-anchor="start" x="68.5" y="-239.8" font-family="Helvetica,sans-Serif" font-weight="bold" font-size="11.00" fill="#000000">_node</text>
<text text-anchor="start" x="114.5437" y="-239.3" font-family="Helvetica,sans-Serif" font-size="11.00" fill="#000000">[table]</text>
<polygon fill="none" stroke="#000000" points="63.5,-212.2 63.5,-231.2 149.5,-231.2 149.5,-212.2 63.5,-212.2"/>
<text text-anchor="start" x="66.5" y="-218.3" font-family="Helvetica,sans-Serif" font-size="11.00" fill="#000000">...</text>
<polygon fill="#ffffff" stroke="transparent" points="63.5,-193.2 63.5,-212.2 84.5,-212.2 84.5,-193.2 63.5,-193.2"/>
<polygon fill="none" stroke="#000000" points="63.5,-193.2 63.5,-212.2 84.5,-212.2 84.5,-193.2 63.5,-193.2"/>
<text text-anchor="start" x="66.2027" y="-199.3" font-family="Helvetica,sans-Serif" font-size="11.00" fill="#000000">&lt; 1</text>
<polygon fill="#ffffff" stroke="transparent" points="84.5,-193.2 84.5,-212.2 122.5,-212.2 122.5,-193.2 84.5,-193.2"/>
<polygon fill="none" stroke="#000000" points="84.5,-193.2 84.5,-212.2 122.5,-212.2 122.5,-193.2 84.5,-193.2"/>
<text text-anchor="start" x="87.3053" y="-199.3" font-family="Helvetica,sans-Serif" font-size="11.00" fill="#000000">0 rows</text>
<polygon fill="#ffffff" stroke="transparent" points="122.5,-193.2 122.5,-212.2 149.5,-212.2 149.5,-193.2 122.5,-193.2"/>
<polygon fill="none" stroke="#000000" points="122.5,-193.2 122.5,-212.2 149.5,-212.2 149.5,-193.2 122.5,-193.2"/>
<text text-anchor="start" x="125.1452" y="-199.3" font-family="Helvetica,sans-Serif" font-size="11.00" fill="#000000">24 &gt;</text>
</a>
</g>
</g>
<!-- _station_node&#45;&gt;_node -->
<g id="edge1" class="edge">
<title>_station_node:w&#45;&gt;_node:e</title>
<path fill="none" stroke="#000000" d="M243.2351,-221.2C205.4162,-221.2 192.1345,-221.2 149.5,-221.2"/>
<polygon fill="#000000" stroke="#000000" points="253.2,-217.2 253.2,-225.2 251.6,-225.2 251.6,-217.2 253.2,-217.2"/>
<polyline fill="none" stroke="#000000" points="254,-221.2 250,-221.2 "/>
<ellipse fill="none" stroke="#000000" cx="246.8" cy="-221.2001" rx="3.2" ry="3.2"/>
</g>
<!-- _station_node&#45;&gt;_node -->
<g id="edge2" class="edge">
<title>_station_node:w&#45;&gt;_node:e</title>
<path fill="none" stroke="#000000" d="M239.2186,-199.983C203.882,-203.9021 191.5859,-221.2 149.5,-221.2"/>
<polygon fill="#000000" stroke="#000000" points="246.0112,-199.6232 254.1905,-202.795 250.0056,-199.4116 254,-199.2 254,-199.2 254,-199.2 250.0056,-199.4116 253.8095,-195.605 246.0112,-199.6232 246.0112,-199.6232"/>
<ellipse fill="none" stroke="#000000" cx="242.8157" cy="-199.7925" rx="3.2" ry="3.2"/>
</g>
<!-- station -->
<g id="node3" class="node">
<title>station</title>
<g id="a_node3"><a xlink:href="../../tables/station.html" xlink:title="station" target="_top">
<polygon fill="#ffffff" stroke="transparent" points="8,-38.2 8,-172.2 205,-172.2 205,-38.2 8,-38.2"/>
<polygon fill="#f5f5f5" stroke="transparent" points="10.5,-147.2 10.5,-170.2 203.5,-170.2 203.5,-147.2 10.5,-147.2"/>
<polygon fill="none" stroke="#000000" points="10.5,-147.2 10.5,-170.2 203.5,-170.2 203.5,-147.2 10.5,-147.2"/>
<text text-anchor="start" x="15.5" y="-155.8" font-family="Helvetica,sans-Serif" font-weight="bold" font-size="11.00" fill="#000000">station</text>
<text text-anchor="start" x="168.5437" y="-155.3" font-family="Helvetica,sans-Serif" font-size="11.00" fill="#000000">[table]</text>
<polygon fill="none" stroke="#000000" points="10.5,-125.2 10.5,-147.2 84.5,-147.2 84.5,-125.2 10.5,-125.2"/>
<image xlink:href="../../images/primaryKeys.png" width="11px" height="12px" preserveAspectRatio="xMinYMin meet" x="15.5" y="-142.2"/>
<text text-anchor="start" x="30.5" y="-132.3" font-family="Helvetica,sans-Serif" font-size="11.00" fill="#000000">id</text>
<polygon fill="none" stroke="#000000" points="84.5,-125.2 84.5,-147.2 203.5,-147.2 203.5,-125.2 84.5,-125.2"/>
<text text-anchor="start" x="87.5" y="-132.9" font-family="Helvetica,sans-Serif" font-size="11.00" fill="#000000">serial[10]</text>
<polygon fill="#ffffff" stroke="transparent" points="10.5,-103.2 10.5,-125.2 84.5,-125.2 84.5,-103.2 10.5,-103.2"/>
<polygon fill="none" stroke="#000000" points="10.5,-103.2 10.5,-125.2 84.5,-125.2 84.5,-103.2 10.5,-103.2"/>
<text text-anchor="start" x="30.5" y="-110.3" font-family="Helvetica,sans-Serif" font-size="11.00" fill="#000000">name</text>
<polygon fill="none" stroke="#000000" points="84.5,-103.2 84.5,-125.2 203.5,-125.2 203.5,-103.2 84.5,-103.2"/>
<text text-anchor="start" x="87.5" y="-110.9" font-family="Helvetica,sans-Serif" font-size="11.00" fill="#000000">varchar[16]</text>
<polygon fill="none" stroke="#000000" points="10.5,-81.2 10.5,-103.2 84.5,-103.2 84.5,-81.2 10.5,-81.2"/>
<text text-anchor="start" x="30.5" y="-88.3" font-family="Helvetica,sans-Serif" font-size="11.00" fill="#000000">geom</text>
<polygon fill="none" stroke="#000000" points="84.5,-81.2 84.5,-103.2 203.5,-103.2 203.5,-81.2 84.5,-81.2"/>
<text text-anchor="start" x="87.4485" y="-88.9" font-family="Helvetica,sans-Serif" font-size="11.00" fill="#000000">geometry[2147483647]</text>
<polygon fill="none" stroke="#000000" points="10.5,-59.2 10.5,-81.2 84.5,-81.2 84.5,-59.2 10.5,-59.2"/>
<text text-anchor="start" x="30.5" y="-66.3" font-family="Helvetica,sans-Serif" font-size="11.00" fill="#000000">comment</text>
<polygon fill="none" stroke="#000000" points="84.5,-59.2 84.5,-81.2 203.5,-81.2 203.5,-59.2 84.5,-59.2"/>
<text text-anchor="start" x="87.5" y="-66.9" font-family="Helvetica,sans-Serif" font-size="11.00" fill="#000000">varchar[256]</text>
<polygon fill="#ffffff" stroke="transparent" points="10.5,-40.2 10.5,-59.2 38.5,-59.2 38.5,-40.2 10.5,-40.2"/>
<polygon fill="none" stroke="#000000" points="10.5,-40.2 10.5,-59.2 38.5,-59.2 38.5,-40.2 10.5,-40.2"/>
<text text-anchor="start" x="13.5" y="-46.3" font-family="Helvetica,sans-Serif" font-size="11.00" fill="#000000">&lt; 0</text>
<polygon fill="#ffffff" stroke="transparent" points="38.5,-40.2 38.5,-59.2 84.5,-59.2 84.5,-40.2 38.5,-40.2"/>
<polygon fill="none" stroke="#000000" points="38.5,-40.2 38.5,-59.2 84.5,-59.2 84.5,-40.2 38.5,-40.2"/>
<text text-anchor="start" x="49.1105" y="-46.3" font-family="Helvetica,sans-Serif" font-size="11.00" fill="#000000">0 rows</text>
<polygon fill="#ffffff" stroke="transparent" points="84.5,-40.2 84.5,-59.2 203.5,-59.2 203.5,-40.2 84.5,-40.2"/>
<polygon fill="none" stroke="#000000" points="84.5,-40.2 84.5,-59.2 203.5,-59.2 203.5,-40.2 84.5,-40.2"/>
<text text-anchor="start" x="184.9053" y="-46.3" font-family="Helvetica,sans-Serif" font-size="11.00" fill="#000000">1 &gt;</text>
<polygon fill="none" stroke="#000000" stroke-width="2" points="9,-39.2 9,-171.2 204,-171.2 204,-39.2 9,-39.2"/>
</a>
</g>
</g>
<!-- _station_node&#45;&gt;station -->
<g id="edge3" class="edge">
<title>_station_node:w&#45;&gt;station:e</title>
<path fill="none" stroke="#000000" d="M240.2601,-172.8123C226.5688,-162.2354 226.5379,-136.2 203.5,-136.2"/>
<polygon fill="#000000" stroke="#000000" points="246.3792,-174.7663 252.9048,-180.6294 250.1896,-175.9832 254,-177.2 254,-177.2 254,-177.2 250.1896,-175.9832 255.0952,-173.7706 246.3792,-174.7663 246.3792,-174.7663"/>
<ellipse fill="none" stroke="#000000" cx="243.3308" cy="-173.7928" rx="3.2" ry="3.2"/>
</g>
</g>
</svg>
