<?xml version="1.0" encoding="UTF-8" standalone="no"?>
<!DOCTYPE svg PUBLIC "-//W3C//DTD SVG 1.1//EN"
 "http://www.w3.org/Graphics/SVG/1.1/DTD/svg11.dtd">
<!-- Generated by graphviz version 2.40.1 (20161225.0304)
 -->
<!-- Title: oneDegreeRelationshipsDiagram Pages: 1 -->
<svg width="238pt" height="272pt"
 viewBox="0.00 0.00 238.00 272.20" xmlns="http://www.w3.org/2000/svg" xmlns:xlink="http://www.w3.org/1999/xlink">
<g id="graph0" class="graph" transform="scale(1 1) rotate(0) translate(4 268.2)">
<title>oneDegreeRelationshipsDiagram</title>
<polygon fill="#ffffff" stroke="transparent" points="-4,4 -4,-268.2 234,-268.2 234,4 -4,4"/>
<text text-anchor="middle" x="72.4936" y="-7.3" font-family="Helvetica,sans-Serif" font-size="11.00" fill="#000000">Generated by SchemaSpy</text>
<!-- street -->
<g id="node1" class="node">
<title>street</title>
<g id="a_node1"><a xlink:href="../../tables/street.html" xlink:title="street" target="_top">
<polygon fill="#ffffff" stroke="transparent" points="8,-38.2 8,-260.2 222,-260.2 222,-38.2 8,-38.2"/>
<polygon fill="#f5f5f5" stroke="transparent" points="10,-235.2 10,-258.2 220,-258.2 220,-235.2 10,-235.2"/>
<polygon fill="none" stroke="#000000" points="10,-235.2 10,-258.2 220,-258.2 220,-235.2 10,-235.2"/>
<text text-anchor="start" x="15" y="-243.8" font-family="Helvetica,sans-Serif" font-weight="bold" font-size="11.00" fill="#000000">street</text>
<text text-anchor="start" x="185.0437" y="-243.3" font-family="Helvetica,sans-Serif" font-size="11.00" fill="#000000">[table]</text>
<polygon fill="none" stroke="#000000" points="10,-213.2 10,-235.2 101,-235.2 101,-213.2 10,-213.2"/>
<image xlink:href="../../images/primaryKeys.png" width="11px" height="12px" preserveAspectRatio="xMinYMin meet" x="15" y="-230.2"/>
<text text-anchor="start" x="30" y="-220.3" font-family="Helvetica,sans-Serif" font-size="11.00" fill="#000000">id</text>
<polygon fill="none" stroke="#000000" points="101,-213.2 101,-235.2 220,-235.2 220,-213.2 101,-213.2"/>
<text text-anchor="start" x="104" y="-220.9" font-family="Helvetica,sans-Serif" font-size="11.00" fill="#000000">serial[10]</text>
<polygon fill="#ffffff" stroke="transparent" points="10,-191.2 10,-213.2 101,-213.2 101,-191.2 10,-191.2"/>
<polygon fill="none" stroke="#000000" points="10,-191.2 10,-213.2 101,-213.2 101,-191.2 10,-191.2"/>
<text text-anchor="start" x="30" y="-198.3" font-family="Helvetica,sans-Serif" font-size="11.00" fill="#000000">name</text>
<polygon fill="none" stroke="#000000" points="101,-191.2 101,-213.2 220,-213.2 220,-191.2 101,-191.2"/>
<text text-anchor="start" x="104" y="-198.9" font-family="Helvetica,sans-Serif" font-size="11.00" fill="#000000">varchar[16]</text>
<polygon fill="none" stroke="#000000" points="10,-169.2 10,-191.2 101,-191.2 101,-169.2 10,-169.2"/>
<text text-anchor="start" x="30" y="-176.3" font-family="Helvetica,sans-Serif" font-size="11.00" fill="#000000">width</text>
<polygon fill="none" stroke="#000000" points="101,-169.2 101,-191.2 220,-191.2 220,-169.2 101,-169.2"/>
<text text-anchor="start" x="104" y="-176.9" font-family="Helvetica,sans-Serif" font-size="11.00" fill="#000000">float4[8,8]</text>
<polygon fill="none" stroke="#000000" points="10,-147.2 10,-169.2 101,-169.2 101,-147.2 10,-147.2"/>
<text text-anchor="start" x="30" y="-154.3" font-family="Helvetica,sans-Serif" font-size="11.00" fill="#000000">width_invert</text>
<polygon fill="none" stroke="#000000" points="101,-147.2 101,-169.2 220,-169.2 220,-147.2 101,-147.2"/>
<text text-anchor="start" x="104" y="-154.9" font-family="Helvetica,sans-Serif" font-size="11.00" fill="#000000">float4[8,8]</text>
<polygon fill="none" stroke="#000000" points="10,-125.2 10,-147.2 101,-147.2 101,-125.2 10,-125.2"/>
<text text-anchor="start" x="30" y="-132.3" font-family="Helvetica,sans-Serif" font-size="11.00" fill="#000000">elem_length</text>
<polygon fill="none" stroke="#000000" points="101,-125.2 101,-147.2 220,-147.2 220,-125.2 101,-125.2"/>
<text text-anchor="start" x="104" y="-132.9" font-family="Helvetica,sans-Serif" font-size="11.00" fill="#000000">float4[8,8]</text>
<polygon fill="none" stroke="#000000" points="10,-103.2 10,-125.2 101,-125.2 101,-103.2 10,-103.2"/>
<text text-anchor="start" x="30" y="-110.3" font-family="Helvetica,sans-Serif" font-size="11.00" fill="#000000">rk</text>
<polygon fill="none" stroke="#000000" points="101,-103.2 101,-125.2 220,-125.2 220,-103.2 101,-103.2"/>
<text text-anchor="start" x="104" y="-110.9" font-family="Helvetica,sans-Serif" font-size="11.00" fill="#000000">float4[8,8]</text>
<polygon fill="#ffffff" stroke="transparent" points="10,-81.2 10,-103.2 101,-103.2 101,-81.2 10,-81.2"/>
<polygon fill="none" stroke="#000000" points="10,-81.2 10,-103.2 101,-103.2 101,-81.2 10,-81.2"/>
<text text-anchor="start" x="30" y="-88.3" font-family="Helvetica,sans-Serif" font-size="11.00" fill="#000000">geom</text>
<polygon fill="none" stroke="#000000" points="101,-81.2 101,-103.2 220,-103.2 220,-81.2 101,-81.2"/>
<text text-anchor="start" x="103.9485" y="-88.9" font-family="Helvetica,sans-Serif" font-size="11.00" fill="#000000">geometry[2147483647]</text>
<polygon fill="none" stroke="#000000" points="10,-59.2 10,-81.2 101,-81.2 101,-59.2 10,-59.2"/>
<text text-anchor="start" x="30" y="-66.3" font-family="Helvetica,sans-Serif" font-size="11.00" fill="#000000">comment</text>
<polygon fill="none" stroke="#000000" points="101,-59.2 101,-81.2 220,-81.2 220,-59.2 101,-59.2"/>
<text text-anchor="start" x="104" y="-66.9" font-family="Helvetica,sans-Serif" font-size="11.00" fill="#000000">varchar[256]</text>
<polygon fill="#ffffff" stroke="transparent" points="10,-40.2 10,-59.2 47,-59.2 47,-40.2 10,-40.2"/>
<polygon fill="none" stroke="#000000" points="10,-40.2 10,-59.2 47,-59.2 47,-40.2 10,-40.2"/>
<text text-anchor="start" x="13" y="-46.3" font-family="Helvetica,sans-Serif" font-size="11.00" fill="#000000">&lt; 0</text>
<polygon fill="#ffffff" stroke="transparent" points="47,-40.2 47,-59.2 101,-59.2 101,-40.2 47,-40.2"/>
<polygon fill="none" stroke="#000000" points="47,-40.2 47,-59.2 101,-59.2 101,-40.2 47,-40.2"/>
<text text-anchor="start" x="65.6105" y="-46.3" font-family="Helvetica,sans-Serif" font-size="11.00" fill="#000000">0 rows</text>
<polygon fill="#ffffff" stroke="transparent" points="101,-40.2 101,-59.2 220,-59.2 220,-40.2 101,-40.2"/>
<polygon fill="none" stroke="#000000" points="101,-40.2 101,-59.2 220,-59.2 220,-40.2 101,-40.2"/>
<text text-anchor="start" x="201.4053" y="-46.3" font-family="Helvetica,sans-Serif" font-size="11.00" fill="#000000">0 &gt;</text>
<polygon fill="none" stroke="#000000" stroke-width="2" points="9,-39.2 9,-259.2 221,-259.2 221,-39.2 9,-39.2"/>
</a>
</g>
</g>
</g>
</svg>
