<?xml version="1.0" encoding="UTF-8" standalone="no"?>
<!DOCTYPE svg PUBLIC "-//W3C//DTD SVG 1.1//EN"
 "http://www.w3.org/Graphics/SVG/1.1/DTD/svg11.dtd">
<!-- Generated by graphviz version 2.40.1 (20161225.0304)
 -->
<!-- Title: oneDegreeRelationshipsDiagram Pages: 1 -->
<svg width="238pt" height="275pt"
 viewBox="0.00 0.00 238.00 275.20" xmlns="http://www.w3.org/2000/svg" xmlns:xlink="http://www.w3.org/1999/xlink">
<g id="graph0" class="graph" transform="scale(1 1) rotate(0) translate(4 271.2)">
<title>oneDegreeRelationshipsDiagram</title>
<polygon fill="#ffffff" stroke="transparent" points="-4,4 -4,-271.2 234,-271.2 234,4 -4,4"/>
<text text-anchor="middle" x="72.4936" y="-7.3" font-family="Helvetica,sans-Serif" font-size="11.00" fill="#000000">Generated by SchemaSpy</text>
<!-- street_link -->
<g id="node1" class="node">
<title>street_link</title>
<g id="a_node1"><a xlink:href="../../tables/street_link.html" xlink:title="street_link" target="_top">
<polygon fill="#ffffff" stroke="transparent" points="8,-38.2 8,-263.2 222,-263.2 222,-38.2 8,-38.2"/>
<polygon fill="#f5f5f5" stroke="transparent" points="10,-237.7 10,-260.7 220,-260.7 220,-237.7 10,-237.7"/>
<polygon fill="none" stroke="#000000" points="10,-237.7 10,-260.7 220,-260.7 220,-237.7 10,-237.7"/>
<text text-anchor="start" x="15" y="-246.3" font-family="Helvetica,sans-Serif" font-weight="bold" font-size="11.00" fill="#000000">street_link</text>
<text text-anchor="start" x="186.8895" y="-245.8" font-family="Helvetica,sans-Serif" font-size="11.00" fill="#000000">[view]</text>
<polygon fill="none" stroke="#000000" points="10,-215.7 10,-237.7 101,-237.7 101,-215.7 10,-215.7"/>
<text text-anchor="start" x="30" y="-222.8" font-family="Helvetica,sans-Serif" font-size="11.00" fill="#000000">id</text>
<polygon fill="none" stroke="#000000" points="101,-215.7 101,-237.7 220,-237.7 220,-215.7 101,-215.7"/>
<text text-anchor="start" x="104" y="-223.4" font-family="Helvetica,sans-Serif" font-size="11.00" fill="#000000">int4[10]</text>
<polygon fill="none" stroke="#000000" points="10,-193.7 10,-215.7 101,-215.7 101,-193.7 10,-193.7"/>
<text text-anchor="start" x="30" y="-200.8" font-family="Helvetica,sans-Serif" font-size="11.00" fill="#000000">name</text>
<polygon fill="none" stroke="#000000" points="101,-193.7 101,-215.7 220,-215.7 220,-193.7 101,-193.7"/>
<text text-anchor="start" x="104" y="-201.4" font-family="Helvetica,sans-Serif" font-size="11.00" fill="#000000">text[2147483647]</text>
<polygon fill="none" stroke="#000000" points="10,-171.7 10,-193.7 101,-193.7 101,-171.7 10,-171.7"/>
<text text-anchor="start" x="30" y="-178.8" font-family="Helvetica,sans-Serif" font-size="11.00" fill="#000000">up</text>
<polygon fill="none" stroke="#000000" points="101,-171.7 101,-193.7 220,-193.7 220,-171.7 101,-171.7"/>
<text text-anchor="start" x="104" y="-179.4" font-family="Helvetica,sans-Serif" font-size="11.00" fill="#000000">int4[10]</text>
<polygon fill="none" stroke="#000000" points="10,-149.7 10,-171.7 101,-171.7 101,-149.7 10,-149.7"/>
<text text-anchor="start" x="30" y="-156.8" font-family="Helvetica,sans-Serif" font-size="11.00" fill="#000000">down</text>
<polygon fill="none" stroke="#000000" points="101,-149.7 101,-171.7 220,-171.7 220,-149.7 101,-149.7"/>
<text text-anchor="start" x="104" y="-157.4" font-family="Helvetica,sans-Serif" font-size="11.00" fill="#000000">int4[10]</text>
<polygon fill="none" stroke="#000000" points="10,-127.7 10,-149.7 101,-149.7 101,-127.7 10,-127.7"/>
<text text-anchor="start" x="30" y="-134.8" font-family="Helvetica,sans-Serif" font-size="11.00" fill="#000000">width</text>
<polygon fill="none" stroke="#000000" points="101,-127.7 101,-149.7 220,-149.7 220,-127.7 101,-127.7"/>
<text text-anchor="start" x="104" y="-135.4" font-family="Helvetica,sans-Serif" font-size="11.00" fill="#000000">float4[8,8]</text>
<polygon fill="none" stroke="#000000" points="10,-105.7 10,-127.7 101,-127.7 101,-105.7 10,-105.7"/>
<text text-anchor="start" x="30" y="-112.8" font-family="Helvetica,sans-Serif" font-size="11.00" fill="#000000">width_invert</text>
<polygon fill="none" stroke="#000000" points="101,-105.7 101,-127.7 220,-127.7 220,-105.7 101,-105.7"/>
<text text-anchor="start" x="104" y="-113.4" font-family="Helvetica,sans-Serif" font-size="11.00" fill="#000000">float4[8,8]</text>
<polygon fill="none" stroke="#000000" points="10,-83.7 10,-105.7 101,-105.7 101,-83.7 10,-83.7"/>
<text text-anchor="start" x="30" y="-90.8" font-family="Helvetica,sans-Serif" font-size="11.00" fill="#000000">length</text>
<polygon fill="none" stroke="#000000" points="101,-83.7 101,-105.7 220,-105.7 220,-83.7 101,-83.7"/>
<text text-anchor="start" x="104" y="-91.4" font-family="Helvetica,sans-Serif" font-size="11.00" fill="#000000">float4[8,8]</text>
<polygon fill="none" stroke="#000000" points="10,-61.7 10,-83.7 101,-83.7 101,-61.7 10,-61.7"/>
<text text-anchor="start" x="30" y="-68.8" font-family="Helvetica,sans-Serif" font-size="11.00" fill="#000000">rk</text>
<polygon fill="none" stroke="#000000" points="101,-61.7 101,-83.7 220,-83.7 220,-61.7 101,-61.7"/>
<text text-anchor="start" x="104" y="-69.4" font-family="Helvetica,sans-Serif" font-size="11.00" fill="#000000">float4[8,8]</text>
<polygon fill="none" stroke="#000000" points="10,-39.7 10,-61.7 101,-61.7 101,-39.7 10,-39.7"/>
<text text-anchor="start" x="30" y="-46.8" font-family="Helvetica,sans-Serif" font-size="11.00" fill="#000000">geom</text>
<polygon fill="none" stroke="#000000" points="101,-39.7 101,-61.7 220,-61.7 220,-39.7 101,-39.7"/>
<text text-anchor="start" x="103.9485" y="-47.4" font-family="Helvetica,sans-Serif" font-size="11.00" fill="#000000">geometry[2147483647]</text>
<polygon fill="none" stroke="#000000" stroke-width="2" points="9,-39.2 9,-262.2 221,-262.2 221,-39.2 9,-39.2"/>
</a>
</g>
</g>
</g>
</svg>
