<?xml version="1.0" encoding="UTF-8" standalone="no"?>
<!DOCTYPE svg PUBLIC "-//W3C//DTD SVG 1.1//EN"
 "http://www.w3.org/Graphics/SVG/1.1/DTD/svg11.dtd">
<!-- Generated by graphviz version 2.40.1 (20161225.0304)
 -->
<!-- Title: oneDegreeRelationshipsDiagram Pages: 1 -->
<svg width="315pt" height="495pt"
 viewBox="0.00 0.00 315.00 495.20" xmlns="http://www.w3.org/2000/svg" xmlns:xlink="http://www.w3.org/1999/xlink">
<g id="graph0" class="graph" transform="scale(1 1) rotate(0) translate(4 491.2)">
<title>oneDegreeRelationshipsDiagram</title>
<polygon fill="#ffffff" stroke="transparent" points="-4,4 -4,-491.2 311,-491.2 311,4 -4,4"/>
<text text-anchor="middle" x="72.4936" y="-7.3" font-family="Helvetica,sans-Serif" font-size="11.00" fill="#000000">Generated by SchemaSpy</text>
<!-- strickler_link -->
<g id="node1" class="node">
<title>strickler_link</title>
<g id="a_node1"><a xlink:href="../../tables/strickler_link.html" xlink:title="strickler_link" target="_top">
<polygon fill="#ffffff" stroke="transparent" points="8,-38.2 8,-483.2 299,-483.2 299,-38.2 8,-38.2"/>
<polygon fill="#f5f5f5" stroke="transparent" points="10.5,-457.7 10.5,-480.7 297.5,-480.7 297.5,-457.7 10.5,-457.7"/>
<polygon fill="none" stroke="#000000" points="10.5,-457.7 10.5,-480.7 297.5,-480.7 297.5,-457.7 10.5,-457.7"/>
<text text-anchor="start" x="15.5" y="-466.3" font-family="Helvetica,sans-Serif" font-weight="bold" font-size="11.00" fill="#000000">strickler_link</text>
<text text-anchor="start" x="264.3895" y="-465.8" font-family="Helvetica,sans-Serif" font-size="11.00" fill="#000000">[view]</text>
<polygon fill="none" stroke="#000000" points="10.5,-435.7 10.5,-457.7 139.5,-457.7 139.5,-435.7 10.5,-435.7"/>
<text text-anchor="start" x="30.5" y="-442.8" font-family="Helvetica,sans-Serif" font-size="11.00" fill="#000000">id</text>
<polygon fill="none" stroke="#000000" points="139.5,-435.7 139.5,-457.7 297.5,-457.7 297.5,-435.7 139.5,-435.7"/>
<text text-anchor="start" x="142.5" y="-443.4" font-family="Helvetica,sans-Serif" font-size="11.00" fill="#000000">int4[10]</text>
<polygon fill="none" stroke="#000000" points="10.5,-413.7 10.5,-435.7 139.5,-435.7 139.5,-413.7 10.5,-413.7"/>
<text text-anchor="start" x="30.5" y="-420.8" font-family="Helvetica,sans-Serif" font-size="11.00" fill="#000000">name</text>
<polygon fill="none" stroke="#000000" points="139.5,-413.7 139.5,-435.7 297.5,-435.7 297.5,-413.7 139.5,-413.7"/>
<text text-anchor="start" x="142.5" y="-421.4" font-family="Helvetica,sans-Serif" font-size="11.00" fill="#000000">varchar[24]</text>
<polygon fill="none" stroke="#000000" points="10.5,-391.7 10.5,-413.7 139.5,-413.7 139.5,-391.7 10.5,-391.7"/>
<text text-anchor="start" x="30.5" y="-398.8" font-family="Helvetica,sans-Serif" font-size="11.00" fill="#000000">up</text>
<polygon fill="none" stroke="#000000" points="139.5,-391.7 139.5,-413.7 297.5,-413.7 297.5,-391.7 139.5,-391.7"/>
<text text-anchor="start" x="142.5" y="-399.4" font-family="Helvetica,sans-Serif" font-size="11.00" fill="#000000">int4[10]</text>
<polygon fill="none" stroke="#000000" points="10.5,-369.7 10.5,-391.7 139.5,-391.7 139.5,-369.7 10.5,-369.7"/>
<text text-anchor="start" x="30.5" y="-376.8" font-family="Helvetica,sans-Serif" font-size="11.00" fill="#000000">down</text>
<polygon fill="none" stroke="#000000" points="139.5,-369.7 139.5,-391.7 297.5,-391.7 297.5,-369.7 139.5,-369.7"/>
<text text-anchor="start" x="142.5" y="-377.4" font-family="Helvetica,sans-Serif" font-size="11.00" fill="#000000">int4[10]</text>
<polygon fill="none" stroke="#000000" points="10.5,-347.7 10.5,-369.7 139.5,-369.7 139.5,-347.7 10.5,-347.7"/>
<text text-anchor="start" x="30.5" y="-354.8" font-family="Helvetica,sans-Serif" font-size="11.00" fill="#000000">z_crest1</text>
<polygon fill="none" stroke="#000000" points="139.5,-347.7 139.5,-369.7 297.5,-369.7 297.5,-347.7 139.5,-347.7"/>
<text text-anchor="start" x="142.5" y="-355.4" font-family="Helvetica,sans-Serif" font-size="11.00" fill="#000000">float4[8,8]</text>
<polygon fill="none" stroke="#000000" points="10.5,-325.7 10.5,-347.7 139.5,-347.7 139.5,-325.7 10.5,-325.7"/>
<text text-anchor="start" x="30.5" y="-332.8" font-family="Helvetica,sans-Serif" font-size="11.00" fill="#000000">width1</text>
<polygon fill="none" stroke="#000000" points="139.5,-325.7 139.5,-347.7 297.5,-347.7 297.5,-325.7 139.5,-325.7"/>
<text text-anchor="start" x="142.5" y="-333.4" font-family="Helvetica,sans-Serif" font-size="11.00" fill="#000000">float4[8,8]</text>
<polygon fill="none" stroke="#000000" points="10.5,-303.7 10.5,-325.7 139.5,-325.7 139.5,-303.7 10.5,-303.7"/>
<text text-anchor="start" x="30.5" y="-310.8" font-family="Helvetica,sans-Serif" font-size="11.00" fill="#000000">length</text>
<polygon fill="none" stroke="#000000" points="139.5,-303.7 139.5,-325.7 297.5,-325.7 297.5,-303.7 139.5,-303.7"/>
<text text-anchor="start" x="142.5" y="-311.4" font-family="Helvetica,sans-Serif" font-size="11.00" fill="#000000">float4[8,8]</text>
<polygon fill="none" stroke="#000000" points="10.5,-281.7 10.5,-303.7 139.5,-303.7 139.5,-281.7 10.5,-281.7"/>
<text text-anchor="start" x="30.5" y="-288.8" font-family="Helvetica,sans-Serif" font-size="11.00" fill="#000000">rk</text>
<polygon fill="none" stroke="#000000" points="139.5,-281.7 139.5,-303.7 297.5,-303.7 297.5,-281.7 139.5,-281.7"/>
<text text-anchor="start" x="142.5" y="-289.4" font-family="Helvetica,sans-Serif" font-size="11.00" fill="#000000">float4[8,8]</text>
<polygon fill="none" stroke="#000000" points="10.5,-259.7 10.5,-281.7 139.5,-281.7 139.5,-259.7 10.5,-259.7"/>
<text text-anchor="start" x="30.5" y="-266.8" font-family="Helvetica,sans-Serif" font-size="11.00" fill="#000000">z_crest2</text>
<polygon fill="none" stroke="#000000" points="139.5,-259.7 139.5,-281.7 297.5,-281.7 297.5,-259.7 139.5,-259.7"/>
<text text-anchor="start" x="142.5" y="-267.4" font-family="Helvetica,sans-Serif" font-size="11.00" fill="#000000">float4[8,8]</text>
<polygon fill="none" stroke="#000000" points="10.5,-237.7 10.5,-259.7 139.5,-259.7 139.5,-237.7 10.5,-237.7"/>
<text text-anchor="start" x="30.5" y="-244.8" font-family="Helvetica,sans-Serif" font-size="11.00" fill="#000000">width2</text>
<polygon fill="none" stroke="#000000" points="139.5,-237.7 139.5,-259.7 297.5,-259.7 297.5,-237.7 139.5,-237.7"/>
<text text-anchor="start" x="142.5" y="-245.4" font-family="Helvetica,sans-Serif" font-size="11.00" fill="#000000">float4[8,8]</text>
<polygon fill="none" stroke="#000000" points="10.5,-215.7 10.5,-237.7 139.5,-237.7 139.5,-215.7 10.5,-215.7"/>
<text text-anchor="start" x="30.5" y="-222.8" font-family="Helvetica,sans-Serif" font-size="11.00" fill="#000000">border</text>
<polygon fill="none" stroke="#000000" points="139.5,-215.7 139.5,-237.7 297.5,-237.7 297.5,-215.7 139.5,-215.7"/>
<text text-anchor="start" x="142.5" y="-223.4" font-family="Helvetica,sans-Serif" font-size="11.00" fill="#000000">geometry[2147483647]</text>
<polygon fill="none" stroke="#000000" points="10.5,-193.7 10.5,-215.7 139.5,-215.7 139.5,-193.7 10.5,-193.7"/>
<text text-anchor="start" x="30.5" y="-200.8" font-family="Helvetica,sans-Serif" font-size="11.00" fill="#000000">geom</text>
<polygon fill="none" stroke="#000000" points="139.5,-193.7 139.5,-215.7 297.5,-215.7 297.5,-193.7 139.5,-193.7"/>
<text text-anchor="start" x="142.5" y="-201.4" font-family="Helvetica,sans-Serif" font-size="11.00" fill="#000000">geometry[2147483647]</text>
<polygon fill="none" stroke="#000000" points="10.5,-171.7 10.5,-193.7 139.5,-193.7 139.5,-171.7 10.5,-171.7"/>
<text text-anchor="start" x="30.5" y="-178.8" font-family="Helvetica,sans-Serif" font-size="11.00" fill="#000000">configuration</text>
<polygon fill="none" stroke="#000000" points="139.5,-171.7 139.5,-193.7 297.5,-193.7 297.5,-171.7 139.5,-171.7"/>
<text text-anchor="start" x="142.5" y="-179.4" font-family="Helvetica,sans-Serif" font-size="11.00" fill="#000000">varchar[2147483647]</text>
<polygon fill="none" stroke="#000000" points="10.5,-149.7 10.5,-171.7 139.5,-171.7 139.5,-149.7 10.5,-149.7"/>
<text text-anchor="start" x="30.5" y="-156.8" font-family="Helvetica,sans-Serif" font-size="11.00" fill="#000000">generated</text>
<polygon fill="none" stroke="#000000" points="139.5,-149.7 139.5,-171.7 297.5,-171.7 297.5,-149.7 139.5,-149.7"/>
<text text-anchor="start" x="142.5" y="-157.4" font-family="Helvetica,sans-Serif" font-size="11.00" fill="#000000">int4[10]</text>
<polygon fill="none" stroke="#000000" points="10.5,-127.7 10.5,-149.7 139.5,-149.7 139.5,-127.7 10.5,-127.7"/>
<text text-anchor="start" x="30.5" y="-134.8" font-family="Helvetica,sans-Serif" font-size="11.00" fill="#000000">validity</text>
<polygon fill="none" stroke="#000000" points="139.5,-127.7 139.5,-149.7 297.5,-149.7 297.5,-127.7 139.5,-127.7"/>
<text text-anchor="start" x="142.5" y="-135.4" font-family="Helvetica,sans-Serif" font-size="11.00" fill="#000000">bool[1]</text>
<polygon fill="none" stroke="#000000" points="10.5,-105.7 10.5,-127.7 139.5,-127.7 139.5,-105.7 10.5,-105.7"/>
<text text-anchor="start" x="30.5" y="-112.8" font-family="Helvetica,sans-Serif" font-size="11.00" fill="#000000">up_type</text>
<polygon fill="none" stroke="#000000" points="139.5,-105.7 139.5,-127.7 297.5,-127.7 297.5,-105.7 139.5,-105.7"/>
<text text-anchor="start" x="142.3773" y="-113.4" font-family="Helvetica,sans-Serif" font-size="11.00" fill="#000000">hydra_node_type[2147483647]</text>
<polygon fill="none" stroke="#000000" points="10.5,-83.7 10.5,-105.7 139.5,-105.7 139.5,-83.7 10.5,-83.7"/>
<text text-anchor="start" x="30.5" y="-90.8" font-family="Helvetica,sans-Serif" font-size="11.00" fill="#000000">down_type</text>
<polygon fill="none" stroke="#000000" points="139.5,-83.7 139.5,-105.7 297.5,-105.7 297.5,-83.7 139.5,-83.7"/>
<text text-anchor="start" x="142.3773" y="-91.4" font-family="Helvetica,sans-Serif" font-size="11.00" fill="#000000">hydra_node_type[2147483647]</text>
<polygon fill="none" stroke="#000000" points="10.5,-61.7 10.5,-83.7 139.5,-83.7 139.5,-61.7 10.5,-61.7"/>
<text text-anchor="start" x="30.5" y="-68.8" font-family="Helvetica,sans-Serif" font-size="11.00" fill="#000000">configuration_json</text>
<polygon fill="none" stroke="#000000" points="139.5,-61.7 139.5,-83.7 297.5,-83.7 297.5,-61.7 139.5,-61.7"/>
<text text-anchor="start" x="142.5" y="-69.4" font-family="Helvetica,sans-Serif" font-size="11.00" fill="#000000">json[2147483647]</text>
<polygon fill="none" stroke="#000000" points="10.5,-39.7 10.5,-61.7 139.5,-61.7 139.5,-39.7 10.5,-39.7"/>
<text text-anchor="start" x="30.5" y="-46.8" font-family="Helvetica,sans-Serif" font-size="11.00" fill="#000000">comment</text>
<polygon fill="none" stroke="#000000" points="139.5,-39.7 139.5,-61.7 297.5,-61.7 297.5,-39.7 139.5,-39.7"/>
<text text-anchor="start" x="142.5" y="-47.4" font-family="Helvetica,sans-Serif" font-size="11.00" fill="#000000">varchar[2147483647]</text>
<polygon fill="none" stroke="#000000" stroke-width="2" points="9,-39.2 9,-482.2 298,-482.2 298,-39.2 9,-39.2"/>
</a>
</g>
</g>
</g>
</svg>
