<?xml version="1.0" encoding="UTF-8" standalone="no"?>
<!DOCTYPE svg PUBLIC "-//W3C//DTD SVG 1.1//EN"
 "http://www.w3.org/Graphics/SVG/1.1/DTD/svg11.dtd">
<!-- Generated by graphviz version 2.40.1 (20161225.0304)
 -->
<!-- Title: oneDegreeRelationshipsDiagram Pages: 1 -->
<svg width="411pt" height="363pt"
 viewBox="0.00 0.00 411.00 363.20" xmlns="http://www.w3.org/2000/svg" xmlns:xlink="http://www.w3.org/1999/xlink">
<g id="graph0" class="graph" transform="scale(1 1) rotate(0) translate(4 359.2)">
<title>oneDegreeRelationshipsDiagram</title>
<polygon fill="#ffffff" stroke="transparent" points="-4,4 -4,-359.2 407,-359.2 407,4 -4,4"/>
<text text-anchor="middle" x="72.4936" y="-7.3" font-family="Helvetica,sans-Serif" font-size="11.00" fill="#000000">Generated by SchemaSpy</text>
<!-- tank_bc_singularity -->
<g id="node1" class="node">
<title>tank_bc_singularity</title>
<g id="a_node1"><a xlink:href="../../tables/tank_bc_singularity.html" xlink:title="tank_bc_singularity" target="_top">
<polygon fill="#ffffff" stroke="transparent" points="8,-38.2 8,-351.2 395,-351.2 395,-38.2 8,-38.2"/>
<polygon fill="#f5f5f5" stroke="transparent" points="10.5,-325.7 10.5,-348.7 393.5,-348.7 393.5,-325.7 10.5,-325.7"/>
<polygon fill="none" stroke="#000000" points="10.5,-325.7 10.5,-348.7 393.5,-348.7 393.5,-325.7 10.5,-325.7"/>
<text text-anchor="start" x="15.5" y="-334.3" font-family="Helvetica,sans-Serif" font-weight="bold" font-size="11.00" fill="#000000">tank_bc_singularity</text>
<text text-anchor="start" x="360.3895" y="-333.8" font-family="Helvetica,sans-Serif" font-size="11.00" fill="#000000">[view]</text>
<polygon fill="none" stroke="#000000" points="10.5,-303.7 10.5,-325.7 159.5,-325.7 159.5,-303.7 10.5,-303.7"/>
<text text-anchor="start" x="30.5" y="-310.8" font-family="Helvetica,sans-Serif" font-size="11.00" fill="#000000">id</text>
<polygon fill="none" stroke="#000000" points="159.5,-303.7 159.5,-325.7 393.5,-325.7 393.5,-303.7 159.5,-303.7"/>
<text text-anchor="start" x="162.5" y="-311.4" font-family="Helvetica,sans-Serif" font-size="11.00" fill="#000000">int4[10]</text>
<polygon fill="none" stroke="#000000" points="10.5,-281.7 10.5,-303.7 159.5,-303.7 159.5,-281.7 10.5,-281.7"/>
<text text-anchor="start" x="30.5" y="-288.8" font-family="Helvetica,sans-Serif" font-size="11.00" fill="#000000">name</text>
<polygon fill="none" stroke="#000000" points="159.5,-281.7 159.5,-303.7 393.5,-303.7 393.5,-281.7 159.5,-281.7"/>
<text text-anchor="start" x="162.5" y="-289.4" font-family="Helvetica,sans-Serif" font-size="11.00" fill="#000000">varchar[24]</text>
<polygon fill="none" stroke="#000000" points="10.5,-259.7 10.5,-281.7 159.5,-281.7 159.5,-259.7 10.5,-259.7"/>
<text text-anchor="start" x="30.5" y="-266.8" font-family="Helvetica,sans-Serif" font-size="11.00" fill="#000000">node</text>
<polygon fill="none" stroke="#000000" points="159.5,-259.7 159.5,-281.7 393.5,-281.7 393.5,-259.7 159.5,-259.7"/>
<text text-anchor="start" x="162.5" y="-267.4" font-family="Helvetica,sans-Serif" font-size="11.00" fill="#000000">int4[10]</text>
<polygon fill="none" stroke="#000000" points="10.5,-237.7 10.5,-259.7 159.5,-259.7 159.5,-237.7 10.5,-237.7"/>
<text text-anchor="start" x="30.5" y="-244.8" font-family="Helvetica,sans-Serif" font-size="11.00" fill="#000000">zs_array</text>
<polygon fill="none" stroke="#000000" points="159.5,-237.7 159.5,-259.7 393.5,-259.7 393.5,-237.7 159.5,-237.7"/>
<text text-anchor="start" x="162.5" y="-245.4" font-family="Helvetica,sans-Serif" font-size="11.00" fill="#000000">_float4[8,8]</text>
<polygon fill="none" stroke="#000000" points="10.5,-215.7 10.5,-237.7 159.5,-237.7 159.5,-215.7 10.5,-215.7"/>
<text text-anchor="start" x="30.5" y="-222.8" font-family="Helvetica,sans-Serif" font-size="11.00" fill="#000000">zini</text>
<polygon fill="none" stroke="#000000" points="159.5,-215.7 159.5,-237.7 393.5,-237.7 393.5,-215.7 159.5,-215.7"/>
<text text-anchor="start" x="162.5" y="-223.4" font-family="Helvetica,sans-Serif" font-size="11.00" fill="#000000">float4[8,8]</text>
<polygon fill="none" stroke="#000000" points="10.5,-193.7 10.5,-215.7 159.5,-215.7 159.5,-193.7 10.5,-193.7"/>
<text text-anchor="start" x="30.5" y="-200.8" font-family="Helvetica,sans-Serif" font-size="11.00" fill="#000000">treatment_mode</text>
<polygon fill="none" stroke="#000000" points="159.5,-193.7 159.5,-215.7 393.5,-215.7 393.5,-193.7 159.5,-193.7"/>
<text text-anchor="start" x="162.4856" y="-201.4" font-family="Helvetica,sans-Serif" font-size="11.00" fill="#000000">hydra_pollution_treatment_mode[2147483647]</text>
<polygon fill="none" stroke="#000000" points="10.5,-171.7 10.5,-193.7 159.5,-193.7 159.5,-171.7 10.5,-171.7"/>
<text text-anchor="start" x="30.5" y="-178.8" font-family="Helvetica,sans-Serif" font-size="11.00" fill="#000000">treatment_param</text>
<polygon fill="none" stroke="#000000" points="159.5,-171.7 159.5,-193.7 393.5,-193.7 393.5,-171.7 159.5,-171.7"/>
<text text-anchor="start" x="162.5" y="-179.4" font-family="Helvetica,sans-Serif" font-size="11.00" fill="#000000">varchar[2147483647]</text>
<polygon fill="none" stroke="#000000" points="10.5,-149.7 10.5,-171.7 159.5,-171.7 159.5,-149.7 10.5,-149.7"/>
<text text-anchor="start" x="30.5" y="-156.8" font-family="Helvetica,sans-Serif" font-size="11.00" fill="#000000">treatment_param_json</text>
<polygon fill="none" stroke="#000000" points="159.5,-149.7 159.5,-171.7 393.5,-171.7 393.5,-149.7 159.5,-149.7"/>
<text text-anchor="start" x="162.5" y="-157.4" font-family="Helvetica,sans-Serif" font-size="11.00" fill="#000000">json[2147483647]</text>
<polygon fill="none" stroke="#000000" points="10.5,-127.7 10.5,-149.7 159.5,-149.7 159.5,-127.7 10.5,-127.7"/>
<text text-anchor="start" x="30.5" y="-134.8" font-family="Helvetica,sans-Serif" font-size="11.00" fill="#000000">geom</text>
<polygon fill="none" stroke="#000000" points="159.5,-127.7 159.5,-149.7 393.5,-149.7 393.5,-127.7 159.5,-127.7"/>
<text text-anchor="start" x="162.5" y="-135.4" font-family="Helvetica,sans-Serif" font-size="11.00" fill="#000000">geometry[2147483647]</text>
<polygon fill="none" stroke="#000000" points="10.5,-105.7 10.5,-127.7 159.5,-127.7 159.5,-105.7 10.5,-105.7"/>
<text text-anchor="start" x="30.5" y="-112.8" font-family="Helvetica,sans-Serif" font-size="11.00" fill="#000000">configuration</text>
<polygon fill="none" stroke="#000000" points="159.5,-105.7 159.5,-127.7 393.5,-127.7 393.5,-105.7 159.5,-105.7"/>
<text text-anchor="start" x="162.5" y="-113.4" font-family="Helvetica,sans-Serif" font-size="11.00" fill="#000000">varchar[2147483647]</text>
<polygon fill="none" stroke="#000000" points="10.5,-83.7 10.5,-105.7 159.5,-105.7 159.5,-83.7 10.5,-83.7"/>
<text text-anchor="start" x="30.5" y="-90.8" font-family="Helvetica,sans-Serif" font-size="11.00" fill="#000000">validity</text>
<polygon fill="none" stroke="#000000" points="159.5,-83.7 159.5,-105.7 393.5,-105.7 393.5,-83.7 159.5,-83.7"/>
<text text-anchor="start" x="162.5" y="-91.4" font-family="Helvetica,sans-Serif" font-size="11.00" fill="#000000">bool[1]</text>
<polygon fill="none" stroke="#000000" points="10.5,-61.7 10.5,-83.7 159.5,-83.7 159.5,-61.7 10.5,-61.7"/>
<text text-anchor="start" x="30.5" y="-68.8" font-family="Helvetica,sans-Serif" font-size="11.00" fill="#000000">configuration_json</text>
<polygon fill="none" stroke="#000000" points="159.5,-61.7 159.5,-83.7 393.5,-83.7 393.5,-61.7 159.5,-61.7"/>
<text text-anchor="start" x="162.5" y="-69.4" font-family="Helvetica,sans-Serif" font-size="11.00" fill="#000000">json[2147483647]</text>
<polygon fill="none" stroke="#000000" points="10.5,-39.7 10.5,-61.7 159.5,-61.7 159.5,-39.7 10.5,-39.7"/>
<text text-anchor="start" x="30.5" y="-46.8" font-family="Helvetica,sans-Serif" font-size="11.00" fill="#000000">comment</text>
<polygon fill="none" stroke="#000000" points="159.5,-39.7 159.5,-61.7 393.5,-61.7 393.5,-39.7 159.5,-39.7"/>
<text text-anchor="start" x="162.5" y="-47.4" font-family="Helvetica,sans-Serif" font-size="11.00" fill="#000000">varchar[2147483647]</text>
<polygon fill="none" stroke="#000000" stroke-width="2" points="9,-39.2 9,-350.2 394,-350.2 394,-39.2 9,-39.2"/>
</a>
</g>
</g>
</g>
</svg>
