<?xml version="1.0" encoding="UTF-8" standalone="no"?>
<!DOCTYPE svg PUBLIC "-//W3C//DTD SVG 1.1//EN"
 "http://www.w3.org/Graphics/SVG/1.1/DTD/svg11.dtd">
<!-- Generated by graphviz version 2.40.1 (20161225.0304)
 -->
<!-- Title: oneDegreeRelationshipsDiagram Pages: 1 -->
<svg width="280pt" height="143pt"
 viewBox="0.00 0.00 280.00 143.20" xmlns="http://www.w3.org/2000/svg" xmlns:xlink="http://www.w3.org/1999/xlink">
<g id="graph0" class="graph" transform="scale(1 1) rotate(0) translate(4 139.2)">
<title>oneDegreeRelationshipsDiagram</title>
<polygon fill="#ffffff" stroke="transparent" points="-4,4 -4,-139.2 276,-139.2 276,4 -4,4"/>
<text text-anchor="middle" x="72.4936" y="-7.3" font-family="Helvetica,sans-Serif" font-size="11.00" fill="#000000">Generated by SchemaSpy</text>
<!-- thiessen_rain_gage -->
<g id="node1" class="node">
<title>thiessen_rain_gage</title>
<g id="a_node1"><a xlink:href="../../tables/thiessen_rain_gage.html" xlink:title="thiessen_rain_gage" target="_top">
<polygon fill="#ffffff" stroke="transparent" points="8,-38.2 8,-131.2 264,-131.2 264,-38.2 8,-38.2"/>
<polygon fill="#f5f5f5" stroke="transparent" points="10,-105.7 10,-128.7 262,-128.7 262,-105.7 10,-105.7"/>
<polygon fill="none" stroke="#000000" points="10,-105.7 10,-128.7 262,-128.7 262,-105.7 10,-105.7"/>
<text text-anchor="start" x="15" y="-114.3" font-family="Helvetica,sans-Serif" font-weight="bold" font-size="11.00" fill="#000000">thiessen_rain_gage</text>
<text text-anchor="start" x="228.8895" y="-113.8" font-family="Helvetica,sans-Serif" font-size="11.00" fill="#000000">[view]</text>
<polygon fill="none" stroke="#000000" points="10,-83.7 10,-105.7 143,-105.7 143,-83.7 10,-83.7"/>
<text text-anchor="start" x="30" y="-90.8" font-family="Helvetica,sans-Serif" font-size="11.00" fill="#000000">id</text>
<polygon fill="none" stroke="#000000" points="143,-83.7 143,-105.7 262,-105.7 262,-83.7 143,-83.7"/>
<text text-anchor="start" x="146" y="-91.4" font-family="Helvetica,sans-Serif" font-size="11.00" fill="#000000">int4[10]</text>
<polygon fill="none" stroke="#000000" points="10,-61.7 10,-83.7 143,-83.7 143,-61.7 10,-61.7"/>
<text text-anchor="start" x="30" y="-68.8" font-family="Helvetica,sans-Serif" font-size="11.00" fill="#000000">name</text>
<polygon fill="none" stroke="#000000" points="143,-61.7 143,-83.7 262,-83.7 262,-61.7 143,-61.7"/>
<text text-anchor="start" x="146" y="-69.4" font-family="Helvetica,sans-Serif" font-size="11.00" fill="#000000">varchar[24]</text>
<polygon fill="none" stroke="#000000" points="10,-39.7 10,-61.7 143,-61.7 143,-39.7 10,-39.7"/>
<text text-anchor="start" x="30" y="-46.8" font-family="Helvetica,sans-Serif" font-size="11.00" fill="#000000">geom</text>
<polygon fill="none" stroke="#000000" points="143,-39.7 143,-61.7 262,-61.7 262,-39.7 143,-39.7"/>
<text text-anchor="start" x="145.9485" y="-47.4" font-family="Helvetica,sans-Serif" font-size="11.00" fill="#000000">geometry[2147483647]</text>
<polygon fill="none" stroke="#000000" stroke-width="2" points="9,-39.2 9,-130.2 263,-130.2 263,-39.2 9,-39.2"/>
</a>
</g>
</g>
</g>
</svg>
