<?xml version="1.0" encoding="UTF-8" standalone="no"?>
<!DOCTYPE svg PUBLIC "-//W3C//DTD SVG 1.1//EN"
 "http://www.w3.org/Graphics/SVG/1.1/DTD/svg11.dtd">
<!-- Generated by graphviz version 2.40.1 (20161225.0304)
 -->
<!-- Title: oneDegreeRelationshipsDiagram Pages: 1 -->
<svg width="734pt" height="595pt"
 viewBox="0.00 0.00 734.00 595.20" xmlns="http://www.w3.org/2000/svg" xmlns:xlink="http://www.w3.org/1999/xlink">
<g id="graph0" class="graph" transform="scale(1 1) rotate(0) translate(4 591.2)">
<title>oneDegreeRelationshipsDiagram</title>
<polygon fill="#ffffff" stroke="transparent" points="-4,4 -4,-591.2 730,-591.2 730,4 -4,4"/>
<text text-anchor="middle" x="72.4936" y="-7.3" font-family="Helvetica,sans-Serif" font-size="11.00" fill="#000000">Generated by SchemaSpy</text>
<!-- _river_cross_section_profile -->
<g id="node1" class="node">
<title>_river_cross_section_profile</title>
<g id="a_node1"><a xlink:href="../../tables/_river_cross_section_profile.html" xlink:title="_river_cross_section_profile" target="_top">
<polygon fill="#ffffff" stroke="transparent" points="516,-302.2 516,-583.2 718,-583.2 718,-302.2 516,-302.2"/>
<polygon fill="#f5f5f5" stroke="transparent" points="516,-559.7 516,-582.7 718,-582.7 718,-559.7 516,-559.7"/>
<polygon fill="none" stroke="#000000" points="516,-559.7 516,-582.7 718,-582.7 718,-559.7 516,-559.7"/>
<text text-anchor="start" x="521" y="-568.3" font-family="Helvetica,sans-Serif" font-weight="bold" font-size="11.00" fill="#000000">_river_cross_section_profile</text>
<text text-anchor="start" x="683.5219" y="-567.8" font-family="Helvetica,sans-Serif" font-size="11.00" fill="#000000">[table]</text>
<polygon fill="#ffffff" stroke="transparent" points="516,-537.7 516,-559.7 718,-559.7 718,-537.7 516,-537.7"/>
<polygon fill="none" stroke="#000000" points="516,-537.7 516,-559.7 718,-559.7 718,-537.7 516,-537.7"/>
<image xlink:href="../../images/foreignKeys.png" width="11px" height="12px" preserveAspectRatio="xMinYMin meet" x="521" y="-554.7"/>
<text text-anchor="start" x="544" y="-544.8" font-family="Helvetica,sans-Serif" font-size="11.00" fill="#000000">id</text>
<polygon fill="#ffffff" stroke="transparent" points="516,-515.7 516,-537.7 718,-537.7 718,-515.7 516,-515.7"/>
<polygon fill="none" stroke="#000000" points="516,-515.7 516,-537.7 718,-537.7 718,-515.7 516,-515.7"/>
<text text-anchor="start" x="544" y="-522.8" font-family="Helvetica,sans-Serif" font-size="11.00" fill="#000000">name</text>
<polygon fill="none" stroke="#000000" points="516,-493.7 516,-515.7 718,-515.7 718,-493.7 516,-493.7"/>
<image xlink:href="../../images/foreignKeys.png" width="11px" height="12px" preserveAspectRatio="xMinYMin meet" x="521" y="-510.7"/>
<text text-anchor="start" x="544" y="-500.8" font-family="Helvetica,sans-Serif" font-size="11.00" fill="#000000">up_cp_geom</text>
<polygon fill="none" stroke="#000000" points="516,-471.7 516,-493.7 718,-493.7 718,-471.7 516,-471.7"/>
<image xlink:href="../../images/foreignKeys.png" width="11px" height="12px" preserveAspectRatio="xMinYMin meet" x="521" y="-488.7"/>
<text text-anchor="start" x="544" y="-478.8" font-family="Helvetica,sans-Serif" font-size="11.00" fill="#000000">up_op_geom</text>
<polygon fill="none" stroke="#000000" points="516,-449.7 516,-471.7 718,-471.7 718,-449.7 516,-449.7"/>
<image xlink:href="../../images/foreignKeys.png" width="11px" height="12px" preserveAspectRatio="xMinYMin meet" x="521" y="-466.7"/>
<text text-anchor="start" x="544" y="-456.8" font-family="Helvetica,sans-Serif" font-size="11.00" fill="#000000">up_vcs_geom</text>
<polygon fill="none" stroke="#000000" points="516,-427.7 516,-449.7 718,-449.7 718,-427.7 516,-427.7"/>
<image xlink:href="../../images/foreignKeys.png" width="11px" height="12px" preserveAspectRatio="xMinYMin meet" x="521" y="-444.7"/>
<text text-anchor="start" x="544" y="-434.8" font-family="Helvetica,sans-Serif" font-size="11.00" fill="#000000">up_vcs_topo_geom</text>
<polygon fill="none" stroke="#000000" points="516,-405.7 516,-427.7 718,-427.7 718,-405.7 516,-405.7"/>
<image xlink:href="../../images/foreignKeys.png" width="11px" height="12px" preserveAspectRatio="xMinYMin meet" x="521" y="-422.7"/>
<text text-anchor="start" x="544" y="-412.8" font-family="Helvetica,sans-Serif" font-size="11.00" fill="#000000">down_cp_geom</text>
<polygon fill="none" stroke="#000000" points="516,-383.7 516,-405.7 718,-405.7 718,-383.7 516,-383.7"/>
<image xlink:href="../../images/foreignKeys.png" width="11px" height="12px" preserveAspectRatio="xMinYMin meet" x="521" y="-400.7"/>
<text text-anchor="start" x="544" y="-390.8" font-family="Helvetica,sans-Serif" font-size="11.00" fill="#000000">down_op_geom</text>
<polygon fill="none" stroke="#000000" points="516,-361.7 516,-383.7 718,-383.7 718,-361.7 516,-361.7"/>
<image xlink:href="../../images/foreignKeys.png" width="11px" height="12px" preserveAspectRatio="xMinYMin meet" x="521" y="-378.7"/>
<text text-anchor="start" x="544" y="-368.8" font-family="Helvetica,sans-Serif" font-size="11.00" fill="#000000">down_vcs_geom</text>
<polygon fill="none" stroke="#000000" points="516,-339.7 516,-361.7 718,-361.7 718,-339.7 516,-339.7"/>
<image xlink:href="../../images/foreignKeys.png" width="11px" height="12px" preserveAspectRatio="xMinYMin meet" x="521" y="-356.7"/>
<text text-anchor="start" x="544" y="-346.8" font-family="Helvetica,sans-Serif" font-size="11.00" fill="#000000">down_vcs_topo_geom</text>
<polygon fill="none" stroke="#000000" points="516,-320.7 516,-339.7 718,-339.7 718,-320.7 516,-320.7"/>
<text text-anchor="start" x="519" y="-326.8" font-family="Helvetica,sans-Serif" font-size="11.00" fill="#000000">...</text>
<polygon fill="#ffffff" stroke="transparent" points="516,-301.7 516,-320.7 602,-320.7 602,-301.7 516,-301.7"/>
<polygon fill="none" stroke="#000000" points="516,-301.7 516,-320.7 602,-320.7 602,-301.7 516,-301.7"/>
<text text-anchor="start" x="519" y="-307.8" font-family="Helvetica,sans-Serif" font-size="11.00" fill="#000000">&lt; 9</text>
<polygon fill="#ffffff" stroke="transparent" points="602,-301.7 602,-320.7 673,-320.7 673,-301.7 602,-301.7"/>
<polygon fill="none" stroke="#000000" points="602,-301.7 602,-320.7 673,-320.7 673,-301.7 602,-301.7"/>
<text text-anchor="start" x="637.6105" y="-307.8" font-family="Helvetica,sans-Serif" font-size="11.00" fill="#000000">0 rows</text>
<polygon fill="#ffffff" stroke="transparent" points="673,-301.7 673,-320.7 718,-320.7 718,-301.7 673,-301.7"/>
<polygon fill="none" stroke="#000000" points="673,-301.7 673,-320.7 718,-320.7 718,-301.7 673,-301.7"/>
<text text-anchor="start" x="708.8862" y="-307.8" font-family="Helvetica,sans-Serif" font-size="11.00" fill="#000000"> &#160;</text>
</a>
</g>
</g>
<!-- valley_cross_section_geometry -->
<g id="node2" class="node">
<title>valley_cross_section_geometry</title>
<g id="a_node2"><a xlink:href="../../tables/valley_cross_section_geometry.html" xlink:title="valley_cross_section_geometry" target="_top">
<polygon fill="#ffffff" stroke="transparent" points="200,-76.7 200,-452.7 467,-452.7 467,-76.7 200,-76.7"/>
<polygon fill="#f5f5f5" stroke="transparent" points="202.5,-427.7 202.5,-450.7 465.5,-450.7 465.5,-427.7 202.5,-427.7"/>
<polygon fill="none" stroke="#000000" points="202.5,-427.7 202.5,-450.7 465.5,-450.7 465.5,-427.7 202.5,-427.7"/>
<text text-anchor="start" x="207.5" y="-436.3" font-family="Helvetica,sans-Serif" font-weight="bold" font-size="11.00" fill="#000000">valley_cross_section_geometry</text>
<text text-anchor="start" x="430.5437" y="-435.8" font-family="Helvetica,sans-Serif" font-size="11.00" fill="#000000">[table]</text>
<polygon fill="none" stroke="#000000" points="202.5,-405.7 202.5,-427.7 404.5,-427.7 404.5,-405.7 202.5,-405.7"/>
<image xlink:href="../../images/primaryKeys.png" width="11px" height="12px" preserveAspectRatio="xMinYMin meet" x="207.5" y="-422.7"/>
<text text-anchor="start" x="222.5" y="-412.8" font-family="Helvetica,sans-Serif" font-size="11.00" fill="#000000">id</text>
<polygon fill="none" stroke="#000000" points="404.5,-405.7 404.5,-427.7 465.5,-427.7 465.5,-405.7 404.5,-405.7"/>
<text text-anchor="start" x="407.5" y="-413.4" font-family="Helvetica,sans-Serif" font-size="11.00" fill="#000000">serial[10]</text>
<polygon fill="#ffffff" stroke="transparent" points="202.5,-383.7 202.5,-405.7 404.5,-405.7 404.5,-383.7 202.5,-383.7"/>
<polygon fill="none" stroke="#000000" points="202.5,-383.7 202.5,-405.7 404.5,-405.7 404.5,-383.7 202.5,-383.7"/>
<text text-anchor="start" x="222.5" y="-390.8" font-family="Helvetica,sans-Serif" font-size="11.00" fill="#000000">name</text>
<polygon fill="none" stroke="#000000" points="404.5,-383.7 404.5,-405.7 465.5,-405.7 465.5,-383.7 404.5,-383.7"/>
<text text-anchor="start" x="407.494" y="-391.4" font-family="Helvetica,sans-Serif" font-size="11.00" fill="#000000">varchar[24]</text>
<polygon fill="none" stroke="#000000" points="202.5,-361.7 202.5,-383.7 404.5,-383.7 404.5,-361.7 202.5,-361.7"/>
<text text-anchor="start" x="222.5" y="-368.8" font-family="Helvetica,sans-Serif" font-size="11.00" fill="#000000">zbmin_array</text>
<polygon fill="none" stroke="#000000" points="404.5,-361.7 404.5,-383.7 465.5,-383.7 465.5,-361.7 404.5,-361.7"/>
<text text-anchor="start" x="407.5" y="-369.4" font-family="Helvetica,sans-Serif" font-size="11.00" fill="#000000">_float4[8,8]</text>
<polygon fill="none" stroke="#000000" points="202.5,-339.7 202.5,-361.7 404.5,-361.7 404.5,-339.7 202.5,-339.7"/>
<text text-anchor="start" x="222.5" y="-346.8" font-family="Helvetica,sans-Serif" font-size="11.00" fill="#000000">zbmaj_lbank_array</text>
<polygon fill="none" stroke="#000000" points="404.5,-339.7 404.5,-361.7 465.5,-361.7 465.5,-339.7 404.5,-339.7"/>
<text text-anchor="start" x="407.5" y="-347.4" font-family="Helvetica,sans-Serif" font-size="11.00" fill="#000000">_float4[8,8]</text>
<polygon fill="none" stroke="#000000" points="202.5,-317.7 202.5,-339.7 404.5,-339.7 404.5,-317.7 202.5,-317.7"/>
<text text-anchor="start" x="222.5" y="-324.8" font-family="Helvetica,sans-Serif" font-size="11.00" fill="#000000">zbmaj_rbank_array</text>
<polygon fill="none" stroke="#000000" points="404.5,-317.7 404.5,-339.7 465.5,-339.7 465.5,-317.7 404.5,-317.7"/>
<text text-anchor="start" x="407.5" y="-325.4" font-family="Helvetica,sans-Serif" font-size="11.00" fill="#000000">_float4[8,8]</text>
<polygon fill="none" stroke="#000000" points="202.5,-295.7 202.5,-317.7 404.5,-317.7 404.5,-295.7 202.5,-295.7"/>
<text text-anchor="start" x="222.5" y="-302.8" font-family="Helvetica,sans-Serif" font-size="11.00" fill="#000000">rlambda</text>
<polygon fill="none" stroke="#000000" points="404.5,-295.7 404.5,-317.7 465.5,-317.7 465.5,-295.7 404.5,-295.7"/>
<text text-anchor="start" x="407.5" y="-303.4" font-family="Helvetica,sans-Serif" font-size="11.00" fill="#000000">float4[8,8]</text>
<polygon fill="none" stroke="#000000" points="202.5,-273.7 202.5,-295.7 404.5,-295.7 404.5,-273.7 202.5,-273.7"/>
<text text-anchor="start" x="222.5" y="-280.8" font-family="Helvetica,sans-Serif" font-size="11.00" fill="#000000">rmu1</text>
<polygon fill="none" stroke="#000000" points="404.5,-273.7 404.5,-295.7 465.5,-295.7 465.5,-273.7 404.5,-273.7"/>
<text text-anchor="start" x="407.5" y="-281.4" font-family="Helvetica,sans-Serif" font-size="11.00" fill="#000000">float4[8,8]</text>
<polygon fill="none" stroke="#000000" points="202.5,-251.7 202.5,-273.7 404.5,-273.7 404.5,-251.7 202.5,-251.7"/>
<text text-anchor="start" x="222.5" y="-258.8" font-family="Helvetica,sans-Serif" font-size="11.00" fill="#000000">rmu2</text>
<polygon fill="none" stroke="#000000" points="404.5,-251.7 404.5,-273.7 465.5,-273.7 465.5,-251.7 404.5,-251.7"/>
<text text-anchor="start" x="407.5" y="-259.4" font-family="Helvetica,sans-Serif" font-size="11.00" fill="#000000">float4[8,8]</text>
<polygon fill="none" stroke="#000000" points="202.5,-229.7 202.5,-251.7 404.5,-251.7 404.5,-229.7 202.5,-229.7"/>
<text text-anchor="start" x="222.5" y="-236.8" font-family="Helvetica,sans-Serif" font-size="11.00" fill="#000000">zlevee_lb</text>
<polygon fill="none" stroke="#000000" points="404.5,-229.7 404.5,-251.7 465.5,-251.7 465.5,-229.7 404.5,-229.7"/>
<text text-anchor="start" x="407.5" y="-237.4" font-family="Helvetica,sans-Serif" font-size="11.00" fill="#000000">float4[8,8]</text>
<polygon fill="none" stroke="#000000" points="202.5,-207.7 202.5,-229.7 404.5,-229.7 404.5,-207.7 202.5,-207.7"/>
<text text-anchor="start" x="222.5" y="-214.8" font-family="Helvetica,sans-Serif" font-size="11.00" fill="#000000">zlevee_rb</text>
<polygon fill="none" stroke="#000000" points="404.5,-207.7 404.5,-229.7 465.5,-229.7 465.5,-207.7 404.5,-207.7"/>
<text text-anchor="start" x="407.5" y="-215.4" font-family="Helvetica,sans-Serif" font-size="11.00" fill="#000000">float4[8,8]</text>
<polygon fill="none" stroke="#000000" points="202.5,-185.7 202.5,-207.7 404.5,-207.7 404.5,-185.7 202.5,-185.7"/>
<image xlink:href="../../images/foreignKeys.png" width="11px" height="12px" preserveAspectRatio="xMinYMin meet" x="207.5" y="-202.7"/>
<text text-anchor="start" x="222.5" y="-192.8" font-family="Helvetica,sans-Serif" font-size="11.00" fill="#000000">transect</text>
<polygon fill="none" stroke="#000000" points="404.5,-185.7 404.5,-207.7 465.5,-207.7 465.5,-185.7 404.5,-185.7"/>
<text text-anchor="start" x="407.5" y="-193.4" font-family="Helvetica,sans-Serif" font-size="11.00" fill="#000000">int4[10]</text>
<polygon fill="none" stroke="#000000" points="202.5,-163.7 202.5,-185.7 404.5,-185.7 404.5,-163.7 202.5,-163.7"/>
<text text-anchor="start" x="222.5" y="-170.8" font-family="Helvetica,sans-Serif" font-size="11.00" fill="#000000">t_ignore_pt</text>
<polygon fill="none" stroke="#000000" points="404.5,-163.7 404.5,-185.7 465.5,-185.7 465.5,-163.7 404.5,-163.7"/>
<text text-anchor="start" x="407.5" y="-171.4" font-family="Helvetica,sans-Serif" font-size="11.00" fill="#000000">bool[1]</text>
<polygon fill="none" stroke="#000000" points="202.5,-141.7 202.5,-163.7 404.5,-163.7 404.5,-141.7 202.5,-141.7"/>
<text text-anchor="start" x="222.5" y="-148.8" font-family="Helvetica,sans-Serif" font-size="11.00" fill="#000000">t_discret</text>
<polygon fill="none" stroke="#000000" points="404.5,-141.7 404.5,-163.7 465.5,-163.7 465.5,-141.7 404.5,-141.7"/>
<text text-anchor="start" x="407.5" y="-149.4" font-family="Helvetica,sans-Serif" font-size="11.00" fill="#000000">int4[10]</text>
<polygon fill="none" stroke="#000000" points="202.5,-119.7 202.5,-141.7 404.5,-141.7 404.5,-119.7 202.5,-119.7"/>
<text text-anchor="start" x="222.5" y="-126.8" font-family="Helvetica,sans-Serif" font-size="11.00" fill="#000000">t_distance_pt</text>
<polygon fill="none" stroke="#000000" points="404.5,-119.7 404.5,-141.7 465.5,-141.7 465.5,-119.7 404.5,-119.7"/>
<text text-anchor="start" x="407.5" y="-127.4" font-family="Helvetica,sans-Serif" font-size="11.00" fill="#000000">int4[10]</text>
<polygon fill="none" stroke="#000000" points="202.5,-97.7 202.5,-119.7 404.5,-119.7 404.5,-97.7 202.5,-97.7"/>
<text text-anchor="start" x="222.5" y="-104.8" font-family="Helvetica,sans-Serif" font-size="11.00" fill="#000000">sz_array</text>
<polygon fill="none" stroke="#000000" points="404.5,-97.7 404.5,-119.7 465.5,-119.7 465.5,-97.7 404.5,-97.7"/>
<text text-anchor="start" x="407.5" y="-105.4" font-family="Helvetica,sans-Serif" font-size="11.00" fill="#000000">_float4[8,8]</text>
<polygon fill="#ffffff" stroke="transparent" points="202.5,-78.7 202.5,-97.7 294.5,-97.7 294.5,-78.7 202.5,-78.7"/>
<polygon fill="none" stroke="#000000" points="202.5,-78.7 202.5,-97.7 294.5,-97.7 294.5,-78.7 202.5,-78.7"/>
<text text-anchor="start" x="205.5" y="-84.8" font-family="Helvetica,sans-Serif" font-size="11.00" fill="#000000">&lt; 1</text>
<polygon fill="#ffffff" stroke="transparent" points="294.5,-78.7 294.5,-97.7 404.5,-97.7 404.5,-78.7 294.5,-78.7"/>
<polygon fill="none" stroke="#000000" points="294.5,-78.7 294.5,-97.7 404.5,-97.7 404.5,-78.7 294.5,-78.7"/>
<text text-anchor="start" x="369.1105" y="-84.8" font-family="Helvetica,sans-Serif" font-size="11.00" fill="#000000">0 rows</text>
<polygon fill="#ffffff" stroke="transparent" points="404.5,-78.7 404.5,-97.7 465.5,-97.7 465.5,-78.7 404.5,-78.7"/>
<polygon fill="none" stroke="#000000" points="404.5,-78.7 404.5,-97.7 465.5,-97.7 465.5,-78.7 404.5,-78.7"/>
<text text-anchor="start" x="446.9053" y="-84.8" font-family="Helvetica,sans-Serif" font-size="11.00" fill="#000000">2 &gt;</text>
<polygon fill="none" stroke="#000000" stroke-width="2" points="201,-77.7 201,-451.7 466,-451.7 466,-77.7 201,-77.7"/>
</a>
</g>
</g>
<!-- _river_cross_section_profile&#45;&gt;valley_cross_section_geometry -->
<g id="edge1" class="edge">
<title>_river_cross_section_profile:w&#45;&gt;valley_cross_section_geometry:e</title>
<path fill="none" stroke="#000000" d="M502.0126,-377.4088C488.3016,-388.7596 489.2219,-416.7 465.5,-416.7"/>
<polygon fill="#000000" stroke="#000000" points="508.4181,-375.2524 517.1486,-376.1119 512.209,-373.9762 516,-372.7 516,-372.7 516,-372.7 512.209,-373.9762 514.8514,-369.2881 508.4181,-375.2524 508.4181,-375.2524"/>
<ellipse fill="none" stroke="#000000" cx="505.3853" cy="-376.2734" rx="3.2" ry="3.2"/>
</g>
<!-- _river_cross_section_profile&#45;&gt;valley_cross_section_geometry -->
<g id="edge2" class="edge">
<title>_river_cross_section_profile:w&#45;&gt;valley_cross_section_geometry:e</title>
<path fill="none" stroke="#000000" d="M502.0126,-455.9912C488.3016,-444.6404 489.2219,-416.7 465.5,-416.7"/>
<polygon fill="#000000" stroke="#000000" points="508.4181,-458.1476 514.8514,-464.1119 512.209,-459.4238 516,-460.7 516,-460.7 516,-460.7 512.209,-459.4238 517.1486,-457.2881 508.4181,-458.1476 508.4181,-458.1476"/>
<ellipse fill="none" stroke="#000000" cx="505.3853" cy="-457.1266" rx="3.2" ry="3.2"/>
</g>
<!-- _constrain -->
<g id="node3" class="node">
<title>_constrain</title>
<g id="a_node3"><a xlink:href="../../tables/_constrain.html" xlink:title="_constrain" target="_top">
<polygon fill="#ffffff" stroke="transparent" points="8,-38.2 8,-231.2 151,-231.2 151,-38.2 8,-38.2"/>
<polygon fill="#f5f5f5" stroke="transparent" points="8.5,-207.7 8.5,-230.7 151.5,-230.7 151.5,-207.7 8.5,-207.7"/>
<polygon fill="none" stroke="#000000" points="8.5,-207.7 8.5,-230.7 151.5,-230.7 151.5,-207.7 8.5,-207.7"/>
<text text-anchor="start" x="13.5" y="-216.3" font-family="Helvetica,sans-Serif" font-weight="bold" font-size="11.00" fill="#000000">_constrain</text>
<text text-anchor="start" x="116.5437" y="-215.8" font-family="Helvetica,sans-Serif" font-size="11.00" fill="#000000">[table]</text>
<polygon fill="none" stroke="#000000" points="8.5,-185.7 8.5,-207.7 151.5,-207.7 151.5,-185.7 8.5,-185.7"/>
<image xlink:href="../../images/primaryKeys.png" width="11px" height="12px" preserveAspectRatio="xMinYMin meet" x="13.5" y="-202.7"/>
<text text-anchor="start" x="28.5" y="-192.8" font-family="Helvetica,sans-Serif" font-size="11.00" fill="#000000">id</text>
<polygon fill="#ffffff" stroke="transparent" points="8.5,-163.7 8.5,-185.7 151.5,-185.7 151.5,-163.7 8.5,-163.7"/>
<polygon fill="none" stroke="#000000" points="8.5,-163.7 8.5,-185.7 151.5,-185.7 151.5,-163.7 8.5,-163.7"/>
<text text-anchor="start" x="28.5" y="-170.8" font-family="Helvetica,sans-Serif" font-size="11.00" fill="#000000">name</text>
<polygon fill="#ffffff" stroke="transparent" points="8.5,-141.7 8.5,-163.7 151.5,-163.7 151.5,-141.7 8.5,-141.7"/>
<polygon fill="none" stroke="#000000" points="8.5,-141.7 8.5,-163.7 151.5,-163.7 151.5,-141.7 8.5,-141.7"/>
<text text-anchor="start" x="28.5" y="-148.8" font-family="Helvetica,sans-Serif" font-size="11.00" fill="#000000">geom</text>
<polygon fill="#ffffff" stroke="transparent" points="8.5,-119.7 8.5,-141.7 151.5,-141.7 151.5,-119.7 8.5,-119.7"/>
<polygon fill="none" stroke="#000000" points="8.5,-119.7 8.5,-141.7 151.5,-141.7 151.5,-119.7 8.5,-119.7"/>
<text text-anchor="start" x="28.5" y="-126.8" font-family="Helvetica,sans-Serif" font-size="11.00" fill="#000000">discretized</text>
<polygon fill="none" stroke="#000000" points="8.5,-97.7 8.5,-119.7 151.5,-119.7 151.5,-97.7 8.5,-97.7"/>
<image xlink:href="../../images/foreignKeys.png" width="11px" height="12px" preserveAspectRatio="xMinYMin meet" x="13.5" y="-114.7"/>
<text text-anchor="start" x="28.5" y="-104.8" font-family="Helvetica,sans-Serif" font-size="11.00" fill="#000000">points_xyz</text>
<polygon fill="none" stroke="#000000" points="8.5,-75.7 8.5,-97.7 151.5,-97.7 151.5,-75.7 8.5,-75.7"/>
<image xlink:href="../../images/foreignKeys.png" width="11px" height="12px" preserveAspectRatio="xMinYMin meet" x="13.5" y="-92.7"/>
<text text-anchor="start" x="28.5" y="-82.8" font-family="Helvetica,sans-Serif" font-size="11.00" fill="#000000">line_xyz</text>
<polygon fill="none" stroke="#000000" points="8.5,-56.7 8.5,-75.7 151.5,-75.7 151.5,-56.7 8.5,-56.7"/>
<text text-anchor="start" x="11.5" y="-62.8" font-family="Helvetica,sans-Serif" font-size="11.00" fill="#000000">...</text>
<polygon fill="#ffffff" stroke="transparent" points="8.5,-37.7 8.5,-56.7 60.5,-56.7 60.5,-37.7 8.5,-37.7"/>
<polygon fill="none" stroke="#000000" points="8.5,-37.7 8.5,-56.7 60.5,-56.7 60.5,-37.7 8.5,-37.7"/>
<text text-anchor="start" x="11.5" y="-43.8" font-family="Helvetica,sans-Serif" font-size="11.00" fill="#000000">&lt; 2</text>
<polygon fill="#ffffff" stroke="transparent" points="60.5,-37.7 60.5,-56.7 114.5,-56.7 114.5,-37.7 60.5,-37.7"/>
<polygon fill="none" stroke="#000000" points="60.5,-37.7 60.5,-56.7 114.5,-56.7 114.5,-37.7 60.5,-37.7"/>
<text text-anchor="start" x="79.1105" y="-43.8" font-family="Helvetica,sans-Serif" font-size="11.00" fill="#000000">0 rows</text>
<polygon fill="#ffffff" stroke="transparent" points="114.5,-37.7 114.5,-56.7 151.5,-56.7 151.5,-37.7 114.5,-37.7"/>
<polygon fill="none" stroke="#000000" points="114.5,-37.7 114.5,-56.7 151.5,-56.7 151.5,-37.7 114.5,-37.7"/>
<text text-anchor="start" x="132.9053" y="-43.8" font-family="Helvetica,sans-Serif" font-size="11.00" fill="#000000">1 &gt;</text>
</a>
</g>
</g>
<!-- valley_cross_section_geometry&#45;&gt;_constrain -->
<g id="edge3" class="edge">
<title>valley_cross_section_geometry:w&#45;&gt;_constrain:e</title>
<path fill="none" stroke="#000000" d="M187.776,-196.7C175.7815,-196.7 168.3229,-196.7 151.5,-196.7"/>
<polygon fill="#000000" stroke="#000000" points="194.5,-196.7001 202.5,-200.3 198.5,-196.7 202.5,-196.7 202.5,-196.7 202.5,-196.7 198.5,-196.7 202.5,-193.1 194.5,-196.7001 194.5,-196.7001"/>
<ellipse fill="none" stroke="#000000" cx="191.3" cy="-196.7001" rx="3.2" ry="3.2"/>
</g>
</g>
</svg>
