<?xml version="1.0" encoding="UTF-8" standalone="no"?>
<!DOCTYPE svg PUBLIC "-//W3C//DTD SVG 1.1//EN"
 "http://www.w3.org/Graphics/SVG/1.1/DTD/svg11.dtd">
<!-- Generated by graphviz version 2.40.1 (20161225.0304)
 -->
<!-- Title: twoDegreesRelationshipsDiagram Pages: 1 -->
<svg width="575pt" height="491pt"
 viewBox="0.00 0.00 575.00 490.70" xmlns="http://www.w3.org/2000/svg" xmlns:xlink="http://www.w3.org/1999/xlink">
<g id="graph0" class="graph" transform="scale(1 1) rotate(0) translate(4 486.7)">
<title>twoDegreesRelationshipsDiagram</title>
<polygon fill="#ffffff" stroke="transparent" points="-4,4 -4,-486.7 571,-486.7 571,4 -4,4"/>
<text text-anchor="middle" x="72.4936" y="-7.3" font-family="Helvetica,sans-Serif" font-size="11.00" fill="#000000">Generated by SchemaSpy</text>
<!-- _river_cross_section_profile -->
<g id="node1" class="node">
<title>_river_cross_section_profile</title>
<g id="a_node1"><a xlink:href="../../tables/_river_cross_section_profile.html" xlink:title="_river_cross_section_profile" target="_top">
<polygon fill="#ffffff" stroke="transparent" points="357,-128.7 357,-409.7 559,-409.7 559,-128.7 357,-128.7"/>
<polygon fill="#f5f5f5" stroke="transparent" points="357,-386.2 357,-409.2 559,-409.2 559,-386.2 357,-386.2"/>
<polygon fill="none" stroke="#000000" points="357,-386.2 357,-409.2 559,-409.2 559,-386.2 357,-386.2"/>
<text text-anchor="start" x="362" y="-394.8" font-family="Helvetica,sans-Serif" font-weight="bold" font-size="11.00" fill="#000000">_river_cross_section_profile</text>
<text text-anchor="start" x="524.5219" y="-394.3" font-family="Helvetica,sans-Serif" font-size="11.00" fill="#000000">[table]</text>
<polygon fill="#ffffff" stroke="transparent" points="357,-364.2 357,-386.2 559,-386.2 559,-364.2 357,-364.2"/>
<polygon fill="none" stroke="#000000" points="357,-364.2 357,-386.2 559,-386.2 559,-364.2 357,-364.2"/>
<image xlink:href="../../images/foreignKeys.png" width="11px" height="12px" preserveAspectRatio="xMinYMin meet" x="362" y="-381.2"/>
<text text-anchor="start" x="385" y="-371.3" font-family="Helvetica,sans-Serif" font-size="11.00" fill="#000000">id</text>
<polygon fill="#ffffff" stroke="transparent" points="357,-342.2 357,-364.2 559,-364.2 559,-342.2 357,-342.2"/>
<polygon fill="none" stroke="#000000" points="357,-342.2 357,-364.2 559,-364.2 559,-342.2 357,-342.2"/>
<text text-anchor="start" x="385" y="-349.3" font-family="Helvetica,sans-Serif" font-size="11.00" fill="#000000">name</text>
<polygon fill="none" stroke="#000000" points="357,-320.2 357,-342.2 559,-342.2 559,-320.2 357,-320.2"/>
<image xlink:href="../../images/foreignKeys.png" width="11px" height="12px" preserveAspectRatio="xMinYMin meet" x="362" y="-337.2"/>
<text text-anchor="start" x="385" y="-327.3" font-family="Helvetica,sans-Serif" font-size="11.00" fill="#000000">up_cp_geom</text>
<polygon fill="none" stroke="#000000" points="357,-298.2 357,-320.2 559,-320.2 559,-298.2 357,-298.2"/>
<image xlink:href="../../images/foreignKeys.png" width="11px" height="12px" preserveAspectRatio="xMinYMin meet" x="362" y="-315.2"/>
<text text-anchor="start" x="385" y="-305.3" font-family="Helvetica,sans-Serif" font-size="11.00" fill="#000000">up_op_geom</text>
<polygon fill="none" stroke="#000000" points="357,-276.2 357,-298.2 559,-298.2 559,-276.2 357,-276.2"/>
<image xlink:href="../../images/foreignKeys.png" width="11px" height="12px" preserveAspectRatio="xMinYMin meet" x="362" y="-293.2"/>
<text text-anchor="start" x="385" y="-283.3" font-family="Helvetica,sans-Serif" font-size="11.00" fill="#000000">up_vcs_geom</text>
<polygon fill="none" stroke="#000000" points="357,-254.2 357,-276.2 559,-276.2 559,-254.2 357,-254.2"/>
<image xlink:href="../../images/foreignKeys.png" width="11px" height="12px" preserveAspectRatio="xMinYMin meet" x="362" y="-271.2"/>
<text text-anchor="start" x="385" y="-261.3" font-family="Helvetica,sans-Serif" font-size="11.00" fill="#000000">up_vcs_topo_geom</text>
<polygon fill="none" stroke="#000000" points="357,-232.2 357,-254.2 559,-254.2 559,-232.2 357,-232.2"/>
<image xlink:href="../../images/foreignKeys.png" width="11px" height="12px" preserveAspectRatio="xMinYMin meet" x="362" y="-249.2"/>
<text text-anchor="start" x="385" y="-239.3" font-family="Helvetica,sans-Serif" font-size="11.00" fill="#000000">down_cp_geom</text>
<polygon fill="none" stroke="#000000" points="357,-210.2 357,-232.2 559,-232.2 559,-210.2 357,-210.2"/>
<image xlink:href="../../images/foreignKeys.png" width="11px" height="12px" preserveAspectRatio="xMinYMin meet" x="362" y="-227.2"/>
<text text-anchor="start" x="385" y="-217.3" font-family="Helvetica,sans-Serif" font-size="11.00" fill="#000000">down_op_geom</text>
<polygon fill="none" stroke="#000000" points="357,-188.2 357,-210.2 559,-210.2 559,-188.2 357,-188.2"/>
<image xlink:href="../../images/foreignKeys.png" width="11px" height="12px" preserveAspectRatio="xMinYMin meet" x="362" y="-205.2"/>
<text text-anchor="start" x="385" y="-195.3" font-family="Helvetica,sans-Serif" font-size="11.00" fill="#000000">down_vcs_geom</text>
<polygon fill="none" stroke="#000000" points="357,-166.2 357,-188.2 559,-188.2 559,-166.2 357,-166.2"/>
<image xlink:href="../../images/foreignKeys.png" width="11px" height="12px" preserveAspectRatio="xMinYMin meet" x="362" y="-183.2"/>
<text text-anchor="start" x="385" y="-173.3" font-family="Helvetica,sans-Serif" font-size="11.00" fill="#000000">down_vcs_topo_geom</text>
<polygon fill="none" stroke="#000000" points="357,-147.2 357,-166.2 559,-166.2 559,-147.2 357,-147.2"/>
<text text-anchor="start" x="360" y="-153.3" font-family="Helvetica,sans-Serif" font-size="11.00" fill="#000000">...</text>
<polygon fill="#ffffff" stroke="transparent" points="357,-128.2 357,-147.2 443,-147.2 443,-128.2 357,-128.2"/>
<polygon fill="none" stroke="#000000" points="357,-128.2 357,-147.2 443,-147.2 443,-128.2 357,-128.2"/>
<text text-anchor="start" x="360" y="-134.3" font-family="Helvetica,sans-Serif" font-size="11.00" fill="#000000">&lt; 9</text>
<polygon fill="#ffffff" stroke="transparent" points="443,-128.2 443,-147.2 514,-147.2 514,-128.2 443,-128.2"/>
<polygon fill="none" stroke="#000000" points="443,-128.2 443,-147.2 514,-147.2 514,-128.2 443,-128.2"/>
<text text-anchor="start" x="478.6105" y="-134.3" font-family="Helvetica,sans-Serif" font-size="11.00" fill="#000000">0 rows</text>
<polygon fill="#ffffff" stroke="transparent" points="514,-128.2 514,-147.2 559,-147.2 559,-128.2 514,-128.2"/>
<polygon fill="none" stroke="#000000" points="514,-128.2 514,-147.2 559,-147.2 559,-128.2 514,-128.2"/>
<text text-anchor="start" x="549.8862" y="-134.3" font-family="Helvetica,sans-Serif" font-size="11.00" fill="#000000"> &#160;</text>
</a>
</g>
</g>
<!-- closed_parametric_geometry -->
<g id="node2" class="node">
<title>closed_parametric_geometry</title>
<g id="a_node2"><a xlink:href="../../tables/closed_parametric_geometry.html" xlink:title="closed_parametric_geometry" target="_top">
<polygon fill="#ffffff" stroke="transparent" points="55.5,-335.7 55.5,-396.7 260.5,-396.7 260.5,-335.7 55.5,-335.7"/>
<polygon fill="#f5f5f5" stroke="transparent" points="56,-373.2 56,-396.2 261,-396.2 261,-373.2 56,-373.2"/>
<polygon fill="none" stroke="#000000" points="56,-373.2 56,-396.2 261,-396.2 261,-373.2 56,-373.2"/>
<text text-anchor="start" x="61" y="-381.8" font-family="Helvetica,sans-Serif" font-weight="bold" font-size="11.00" fill="#000000">closed_parametric_geometry</text>
<text text-anchor="start" x="226.5219" y="-381.3" font-family="Helvetica,sans-Serif" font-size="11.00" fill="#000000">[table]</text>
<polygon fill="none" stroke="#000000" points="56,-354.2 56,-373.2 261,-373.2 261,-354.2 56,-354.2"/>
<text text-anchor="start" x="59" y="-360.3" font-family="Helvetica,sans-Serif" font-size="11.00" fill="#000000">...</text>
<polygon fill="#ffffff" stroke="transparent" points="56,-335.2 56,-354.2 135,-354.2 135,-335.2 56,-335.2"/>
<polygon fill="none" stroke="#000000" points="56,-335.2 56,-354.2 135,-354.2 135,-335.2 56,-335.2"/>
<text text-anchor="start" x="59" y="-341.3" font-family="Helvetica,sans-Serif" font-size="11.00" fill="#000000"> &#160;</text>
<polygon fill="#ffffff" stroke="transparent" points="135,-335.2 135,-354.2 206,-354.2 206,-335.2 135,-335.2"/>
<polygon fill="none" stroke="#000000" points="135,-335.2 135,-354.2 206,-354.2 206,-335.2 135,-335.2"/>
<text text-anchor="start" x="170.6105" y="-341.3" font-family="Helvetica,sans-Serif" font-size="11.00" fill="#000000">0 rows</text>
<polygon fill="#ffffff" stroke="transparent" points="206,-335.2 206,-354.2 261,-354.2 261,-335.2 206,-335.2"/>
<polygon fill="none" stroke="#000000" points="206,-335.2 206,-354.2 261,-354.2 261,-335.2 206,-335.2"/>
<text text-anchor="start" x="242.4053" y="-341.3" font-family="Helvetica,sans-Serif" font-size="11.00" fill="#000000">3 &gt;</text>
</a>
</g>
</g>
<!-- _river_cross_section_profile&#45;&gt;closed_parametric_geometry -->
<g id="edge1" class="edge">
<title>_river_cross_section_profile:w&#45;&gt;closed_parametric_geometry:e</title>
<path fill="none" stroke="#000000" d="M342.9038,-246.3519C322.937,-257.9583 338.7465,-298.9981 316,-325.2 296.5224,-347.6364 290.7114,-363.2 261,-363.2"/>
<polygon fill="#000000" stroke="#000000" points="349.1928,-244.9457 357.7856,-246.7132 353.0964,-244.0729 357,-243.2 357,-243.2 357,-243.2 353.0964,-244.0729 356.2144,-239.6868 349.1928,-244.9457 349.1928,-244.9457"/>
<ellipse fill="none" stroke="#000000" cx="346.0699" cy="-245.644" rx="3.2" ry="3.2"/>
</g>
<!-- _river_cross_section_profile&#45;&gt;closed_parametric_geometry -->
<g id="edge6" class="edge">
<title>_river_cross_section_profile:w&#45;&gt;closed_parametric_geometry:e</title>
<path fill="none" stroke="#000000" d="M342.2356,-332.4941C309.9892,-338.4808 300.5285,-363.2 261,-363.2"/>
<polygon fill="#000000" stroke="#000000" points="349.0306,-331.8986 357.3144,-334.7863 353.0153,-331.5493 357,-331.2 357,-331.2 357,-331.2 353.0153,-331.5493 356.6856,-327.6137 349.0306,-331.8986 349.0306,-331.8986"/>
<ellipse fill="none" stroke="#000000" cx="345.8428" cy="-332.178" rx="3.2" ry="3.2"/>
</g>
<!-- open_parametric_geometry -->
<g id="node3" class="node">
<title>open_parametric_geometry</title>
<g id="a_node3"><a xlink:href="../../tables/open_parametric_geometry.html" xlink:title="open_parametric_geometry" target="_top">
<polygon fill="#ffffff" stroke="transparent" points="60,-253.7 60,-314.7 256,-314.7 256,-253.7 60,-253.7"/>
<polygon fill="#f5f5f5" stroke="transparent" points="60,-291.2 60,-314.2 256,-314.2 256,-291.2 60,-291.2"/>
<polygon fill="none" stroke="#000000" points="60,-291.2 60,-314.2 256,-314.2 256,-291.2 60,-291.2"/>
<text text-anchor="start" x="65" y="-299.8" font-family="Helvetica,sans-Serif" font-weight="bold" font-size="11.00" fill="#000000">open_parametric_geometry</text>
<text text-anchor="start" x="221.5219" y="-299.3" font-family="Helvetica,sans-Serif" font-size="11.00" fill="#000000">[table]</text>
<polygon fill="none" stroke="#000000" points="60,-272.2 60,-291.2 256,-291.2 256,-272.2 60,-272.2"/>
<text text-anchor="start" x="63" y="-278.3" font-family="Helvetica,sans-Serif" font-size="11.00" fill="#000000">...</text>
<polygon fill="#ffffff" stroke="transparent" points="60,-253.2 60,-272.2 134,-272.2 134,-253.2 60,-253.2"/>
<polygon fill="none" stroke="#000000" points="60,-253.2 60,-272.2 134,-272.2 134,-253.2 60,-253.2"/>
<text text-anchor="start" x="63" y="-259.3" font-family="Helvetica,sans-Serif" font-size="11.00" fill="#000000"> &#160;</text>
<polygon fill="#ffffff" stroke="transparent" points="134,-253.2 134,-272.2 203,-272.2 203,-253.2 134,-253.2"/>
<polygon fill="none" stroke="#000000" points="134,-253.2 134,-272.2 203,-272.2 203,-253.2 134,-253.2"/>
<text text-anchor="start" x="167.6105" y="-259.3" font-family="Helvetica,sans-Serif" font-size="11.00" fill="#000000">0 rows</text>
<polygon fill="#ffffff" stroke="transparent" points="203,-253.2 203,-272.2 256,-272.2 256,-253.2 203,-253.2"/>
<polygon fill="none" stroke="#000000" points="203,-253.2 203,-272.2 256,-272.2 256,-253.2 203,-253.2"/>
<text text-anchor="start" x="237.4053" y="-259.3" font-family="Helvetica,sans-Serif" font-size="11.00" fill="#000000">3 &gt;</text>
</a>
</g>
</g>
<!-- _river_cross_section_profile&#45;&gt;open_parametric_geometry -->
<g id="edge2" class="edge">
<title>_river_cross_section_profile:w&#45;&gt;open_parametric_geometry:e</title>
<path fill="none" stroke="#000000" d="M342.8978,-225.324C315.8483,-238.8797 277.9251,-281.2 256,-281.2"/>
<polygon fill="#000000" stroke="#000000" points="349.3216,-223.4455 358.0105,-224.6553 353.1608,-222.3228 357,-221.2 357,-221.2 357,-221.2 353.1608,-222.3228 355.9895,-217.7447 349.3216,-223.4455 349.3216,-223.4455"/>
<ellipse fill="none" stroke="#000000" cx="346.2502" cy="-224.3437" rx="3.2" ry="3.2"/>
</g>
<!-- _river_cross_section_profile&#45;&gt;open_parametric_geometry -->
<g id="edge7" class="edge">
<title>_river_cross_section_profile:w&#45;&gt;open_parametric_geometry:e</title>
<path fill="none" stroke="#000000" d="M342.5484,-308.2035C308.1455,-303.2156 297.3051,-281.2 256,-281.2"/>
<polygon fill="#000000" stroke="#000000" points="349.019,-308.6496 356.7523,-312.7915 353.0095,-308.9248 357,-309.2 357,-309.2 357,-309.2 353.0095,-308.9248 357.2477,-305.6085 349.019,-308.6496 349.019,-308.6496"/>
<ellipse fill="none" stroke="#000000" cx="345.8265" cy="-308.4294" rx="3.2" ry="3.2"/>
</g>
<!-- valley_cross_section_geometry -->
<g id="node4" class="node">
<title>valley_cross_section_geometry</title>
<g id="a_node4"><a xlink:href="../../tables/valley_cross_section_geometry.html" xlink:title="valley_cross_section_geometry" target="_top">
<polygon fill="#ffffff" stroke="transparent" points="48,-171.7 48,-232.7 268,-232.7 268,-171.7 48,-171.7"/>
<polygon fill="#f5f5f5" stroke="transparent" points="48,-209.2 48,-232.2 268,-232.2 268,-209.2 48,-209.2"/>
<polygon fill="none" stroke="#000000" points="48,-209.2 48,-232.2 268,-232.2 268,-209.2 48,-209.2"/>
<text text-anchor="start" x="53" y="-217.8" font-family="Helvetica,sans-Serif" font-weight="bold" font-size="11.00" fill="#000000">valley_cross_section_geometry</text>
<text text-anchor="start" x="233.5219" y="-217.3" font-family="Helvetica,sans-Serif" font-size="11.00" fill="#000000">[table]</text>
<polygon fill="none" stroke="#000000" points="48,-190.2 48,-209.2 268,-209.2 268,-190.2 48,-190.2"/>
<text text-anchor="start" x="51" y="-196.3" font-family="Helvetica,sans-Serif" font-size="11.00" fill="#000000">...</text>
<polygon fill="#ffffff" stroke="transparent" points="48,-171.2 48,-190.2 139,-190.2 139,-171.2 48,-171.2"/>
<polygon fill="none" stroke="#000000" points="48,-171.2 48,-190.2 139,-190.2 139,-171.2 48,-171.2"/>
<text text-anchor="start" x="51" y="-177.3" font-family="Helvetica,sans-Serif" font-size="11.00" fill="#000000">&lt; 1</text>
<polygon fill="#ffffff" stroke="transparent" points="139,-171.2 139,-190.2 212,-190.2 212,-171.2 139,-171.2"/>
<polygon fill="none" stroke="#000000" points="139,-171.2 139,-190.2 212,-190.2 212,-171.2 139,-171.2"/>
<text text-anchor="start" x="176.6105" y="-177.3" font-family="Helvetica,sans-Serif" font-size="11.00" fill="#000000">0 rows</text>
<polygon fill="#ffffff" stroke="transparent" points="212,-171.2 212,-190.2 268,-190.2 268,-171.2 212,-171.2"/>
<polygon fill="none" stroke="#000000" points="212,-171.2 212,-190.2 268,-190.2 268,-171.2 212,-171.2"/>
<text text-anchor="start" x="249.4053" y="-177.3" font-family="Helvetica,sans-Serif" font-size="11.00" fill="#000000">2 &gt;</text>
</a>
</g>
</g>
<!-- _river_cross_section_profile&#45;&gt;valley_cross_section_geometry -->
<g id="edge3" class="edge">
<title>_river_cross_section_profile:w&#45;&gt;valley_cross_section_geometry:e</title>
<path fill="none" stroke="#000000" d="M342.288,-199.2C314.1859,-199.2 302.1476,-199.2 268,-199.2"/>
<polygon fill="#000000" stroke="#000000" points="349,-199.2001 357,-202.8 353,-199.2 357,-199.2 357,-199.2 357,-199.2 353,-199.2 357,-195.6 349,-199.2001 349,-199.2001"/>
<ellipse fill="none" stroke="#000000" cx="345.8" cy="-199.2001" rx="3.2" ry="3.2"/>
</g>
<!-- _river_cross_section_profile&#45;&gt;valley_cross_section_geometry -->
<g id="edge8" class="edge">
<title>_river_cross_section_profile:w&#45;&gt;valley_cross_section_geometry:e</title>
<path fill="none" stroke="#000000" d="M343.0322,-283.6897C331.1877,-276.1179 330.6781,-257.7586 316,-243.2 295.4528,-222.82 296.9401,-199.2 268,-199.2"/>
<polygon fill="#000000" stroke="#000000" points="349.2413,-285.2501 356.1225,-290.6914 353.1206,-286.225 357,-287.2 357,-287.2 357,-287.2 353.1206,-286.225 357.8775,-283.7086 349.2413,-285.2501 349.2413,-285.2501"/>
<ellipse fill="none" stroke="#000000" cx="346.1378" cy="-284.4701" rx="3.2" ry="3.2"/>
</g>
<!-- valley_cross_section_topo_geometry -->
<g id="node5" class="node">
<title>valley_cross_section_topo_geometry</title>
<g id="a_node5"><a xlink:href="../../tables/valley_cross_section_topo_geometry.html" xlink:title="valley_cross_section_topo_geometry" target="_top">
<polygon fill="#ffffff" stroke="transparent" points="8,-38.2 8,-150.2 308,-150.2 308,-38.2 8,-38.2"/>
<polygon fill="#f5f5f5" stroke="transparent" points="10,-125.2 10,-148.2 306,-148.2 306,-125.2 10,-125.2"/>
<polygon fill="none" stroke="#000000" points="10,-125.2 10,-148.2 306,-148.2 306,-125.2 10,-125.2"/>
<text text-anchor="start" x="15" y="-133.8" font-family="Helvetica,sans-Serif" font-weight="bold" font-size="11.00" fill="#000000">valley_cross_section_topo_geometry</text>
<text text-anchor="start" x="271.0437" y="-133.3" font-family="Helvetica,sans-Serif" font-size="11.00" fill="#000000">[table]</text>
<polygon fill="none" stroke="#000000" points="10,-103.2 10,-125.2 245,-125.2 245,-103.2 10,-103.2"/>
<image xlink:href="../../images/primaryKeys.png" width="11px" height="12px" preserveAspectRatio="xMinYMin meet" x="15" y="-120.2"/>
<text text-anchor="start" x="30" y="-110.3" font-family="Helvetica,sans-Serif" font-size="11.00" fill="#000000">id</text>
<polygon fill="none" stroke="#000000" points="245,-103.2 245,-125.2 306,-125.2 306,-103.2 245,-103.2"/>
<text text-anchor="start" x="248" y="-110.9" font-family="Helvetica,sans-Serif" font-size="11.00" fill="#000000">serial[10]</text>
<polygon fill="#ffffff" stroke="transparent" points="10,-81.2 10,-103.2 245,-103.2 245,-81.2 10,-81.2"/>
<polygon fill="none" stroke="#000000" points="10,-81.2 10,-103.2 245,-103.2 245,-81.2 10,-81.2"/>
<text text-anchor="start" x="30" y="-88.3" font-family="Helvetica,sans-Serif" font-size="11.00" fill="#000000">name</text>
<polygon fill="none" stroke="#000000" points="245,-81.2 245,-103.2 306,-103.2 306,-81.2 245,-81.2"/>
<text text-anchor="start" x="247.994" y="-88.9" font-family="Helvetica,sans-Serif" font-size="11.00" fill="#000000">varchar[24]</text>
<polygon fill="none" stroke="#000000" points="10,-59.2 10,-81.2 245,-81.2 245,-59.2 10,-59.2"/>
<text text-anchor="start" x="30" y="-66.3" font-family="Helvetica,sans-Serif" font-size="11.00" fill="#000000">xz_array</text>
<polygon fill="none" stroke="#000000" points="245,-59.2 245,-81.2 306,-81.2 306,-59.2 245,-59.2"/>
<text text-anchor="start" x="248" y="-66.9" font-family="Helvetica,sans-Serif" font-size="11.00" fill="#000000">_float4[8,8]</text>
<polygon fill="#ffffff" stroke="transparent" points="10,-40.2 10,-59.2 119,-59.2 119,-40.2 10,-40.2"/>
<polygon fill="none" stroke="#000000" points="10,-40.2 10,-59.2 119,-59.2 119,-40.2 10,-40.2"/>
<text text-anchor="start" x="13" y="-46.3" font-family="Helvetica,sans-Serif" font-size="11.00" fill="#000000">&lt; 0</text>
<polygon fill="#ffffff" stroke="transparent" points="119,-40.2 119,-59.2 245,-59.2 245,-40.2 119,-40.2"/>
<polygon fill="none" stroke="#000000" points="119,-40.2 119,-59.2 245,-59.2 245,-40.2 119,-40.2"/>
<text text-anchor="start" x="209.6105" y="-46.3" font-family="Helvetica,sans-Serif" font-size="11.00" fill="#000000">0 rows</text>
<polygon fill="#ffffff" stroke="transparent" points="245,-40.2 245,-59.2 306,-59.2 306,-40.2 245,-40.2"/>
<polygon fill="none" stroke="#000000" points="245,-40.2 245,-59.2 306,-59.2 306,-40.2 245,-40.2"/>
<text text-anchor="start" x="287.4053" y="-46.3" font-family="Helvetica,sans-Serif" font-size="11.00" fill="#000000">2 &gt;</text>
<polygon fill="none" stroke="#000000" stroke-width="2" points="9,-39.2 9,-149.2 307,-149.2 307,-39.2 9,-39.2"/>
</a>
</g>
</g>
<!-- _river_cross_section_profile&#45;&gt;valley_cross_section_topo_geometry -->
<g id="edge4" class="edge">
<title>_river_cross_section_profile:w&#45;&gt;valley_cross_section_topo_geometry:e</title>
<path fill="none" stroke="#000000" d="M342.9033,-172.2565C326.525,-157.4048 335.8329,-114.2 306,-114.2"/>
<polygon fill="#000000" stroke="#000000" points="349.4507,-174.5526 355.8087,-180.5972 353.2254,-175.8763 357,-177.2 357,-177.2 357,-177.2 353.2254,-175.8763 358.1913,-173.8028 349.4507,-174.5526 349.4507,-174.5526"/>
<ellipse fill="none" stroke="#000000" cx="346.431" cy="-173.4936" rx="3.2" ry="3.2"/>
</g>
<!-- _river_cross_section_profile&#45;&gt;valley_cross_section_topo_geometry -->
<g id="edge9" class="edge">
<title>_river_cross_section_profile:w&#45;&gt;valley_cross_section_topo_geometry:e</title>
<path fill="none" stroke="#000000" d="M342.6499,-262.3184C299.9534,-241.4427 371.0248,-114.2 306,-114.2"/>
<polygon fill="#000000" stroke="#000000" points="349.1566,-263.6249 356.2912,-268.7295 353.0783,-264.4125 357,-265.2 357,-265.2 357,-265.2 353.0783,-264.4125 357.7088,-261.6705 349.1566,-263.6249 349.1566,-263.6249"/>
<ellipse fill="none" stroke="#000000" cx="346.0192" cy="-262.9949" rx="3.2" ry="3.2"/>
</g>
<!-- _river_node -->
<g id="node6" class="node">
<title>_river_node</title>
<g id="a_node6"><a xlink:href="../../tables/_river_node.html" xlink:title="_river_node" target="_top">
<polygon fill="#ffffff" stroke="transparent" points="104.5,-417.7 104.5,-478.7 211.5,-478.7 211.5,-417.7 104.5,-417.7"/>
<polygon fill="#f5f5f5" stroke="transparent" points="105,-455.2 105,-478.2 212,-478.2 212,-455.2 105,-455.2"/>
<polygon fill="none" stroke="#000000" points="105,-455.2 105,-478.2 212,-478.2 212,-455.2 105,-455.2"/>
<text text-anchor="start" x="110" y="-463.8" font-family="Helvetica,sans-Serif" font-weight="bold" font-size="11.00" fill="#000000">_river_node</text>
<text text-anchor="start" x="177.5219" y="-463.3" font-family="Helvetica,sans-Serif" font-size="11.00" fill="#000000">[table]</text>
<polygon fill="none" stroke="#000000" points="105,-436.2 105,-455.2 212,-455.2 212,-436.2 105,-436.2"/>
<text text-anchor="start" x="108" y="-442.3" font-family="Helvetica,sans-Serif" font-size="11.00" fill="#000000">...</text>
<polygon fill="#ffffff" stroke="transparent" points="105,-417.2 105,-436.2 139,-436.2 139,-417.2 105,-417.2"/>
<polygon fill="none" stroke="#000000" points="105,-417.2 105,-436.2 139,-436.2 139,-417.2 105,-417.2"/>
<text text-anchor="start" x="108" y="-423.3" font-family="Helvetica,sans-Serif" font-size="11.00" fill="#000000">&lt; 3</text>
<polygon fill="#ffffff" stroke="transparent" points="139,-417.2 139,-436.2 184,-436.2 184,-417.2 139,-417.2"/>
<polygon fill="none" stroke="#000000" points="139,-417.2 139,-436.2 184,-436.2 184,-417.2 139,-417.2"/>
<text text-anchor="start" x="148.6105" y="-423.3" font-family="Helvetica,sans-Serif" font-size="11.00" fill="#000000">0 rows</text>
<polygon fill="#ffffff" stroke="transparent" points="184,-417.2 184,-436.2 212,-436.2 212,-417.2 184,-417.2"/>
<polygon fill="none" stroke="#000000" points="184,-417.2 184,-436.2 212,-436.2 212,-417.2 184,-417.2"/>
<text text-anchor="start" x="193.4053" y="-423.3" font-family="Helvetica,sans-Serif" font-size="11.00" fill="#000000">2 &gt;</text>
</a>
</g>
</g>
<!-- _river_cross_section_profile&#45;&gt;_river_node -->
<g id="edge5" class="edge">
<title>_river_cross_section_profile:w&#45;&gt;_river_node:e</title>
<path fill="none" stroke="#000000" d="M346.7255,-377.0372C333.9936,-382.3609 332.5809,-398.0009 316,-407.2 272.968,-431.0742 261.2111,-445.2 212,-445.2"/>
<polygon fill="#000000" stroke="#000000" points="355.5084,-371.4033 356.9166,-379.2784 355.3416,-379.56 353.9333,-371.6849 355.5084,-371.4033"/>
<polyline fill="none" stroke="#000000" points="357,-375.2 353.0625,-375.9041 "/>
<ellipse fill="none" stroke="#000000" cx="349.9124" cy="-376.4674" rx="3.2" ry="3.2"/>
</g>
</g>
</svg>
