<?xml version="1.0" encoding="UTF-8" standalone="no"?>
<!DOCTYPE svg PUBLIC "-//W3C//DTD SVG 1.1//EN"
 "http://www.w3.org/Graphics/SVG/1.1/DTD/svg11.dtd">
<!-- Generated by graphviz version 2.40.1 (20161225.0304)
 -->
<!-- Title: twoDegreesRelationshipsDiagram Pages: 1 -->
<svg width="932pt" height="755pt"
 viewBox="0.00 0.00 932.00 755.20" xmlns="http://www.w3.org/2000/svg" xmlns:xlink="http://www.w3.org/1999/xlink">
<g id="graph0" class="graph" transform="scale(1 1) rotate(0) translate(4 751.2)">
<title>twoDegreesRelationshipsDiagram</title>
<polygon fill="#ffffff" stroke="transparent" points="-4,4 -4,-751.2 928,-751.2 928,4 -4,4"/>
<text text-anchor="middle" x="72.4936" y="-7.3" font-family="Helvetica,sans-Serif" font-size="11.00" fill="#000000">Generated by SchemaSpy</text>
<!-- _constrain -->
<g id="node1" class="node">
<title>_constrain</title>
<g id="a_node1"><a xlink:href="../../tables/_constrain.html" xlink:title="_constrain" target="_top">
<polygon fill="#ffffff" stroke="transparent" points="206,-82.2 206,-275.2 349,-275.2 349,-82.2 206,-82.2"/>
<polygon fill="#f5f5f5" stroke="transparent" points="206.5,-251.7 206.5,-274.7 349.5,-274.7 349.5,-251.7 206.5,-251.7"/>
<polygon fill="none" stroke="#000000" points="206.5,-251.7 206.5,-274.7 349.5,-274.7 349.5,-251.7 206.5,-251.7"/>
<text text-anchor="start" x="211.5" y="-260.3" font-family="Helvetica,sans-Serif" font-weight="bold" font-size="11.00" fill="#000000">_constrain</text>
<text text-anchor="start" x="314.5437" y="-259.8" font-family="Helvetica,sans-Serif" font-size="11.00" fill="#000000">[table]</text>
<polygon fill="none" stroke="#000000" points="206.5,-229.7 206.5,-251.7 349.5,-251.7 349.5,-229.7 206.5,-229.7"/>
<image xlink:href="../../images/primaryKeys.png" width="11px" height="12px" preserveAspectRatio="xMinYMin meet" x="211.5" y="-246.7"/>
<text text-anchor="start" x="226.5" y="-236.8" font-family="Helvetica,sans-Serif" font-size="11.00" fill="#000000">id</text>
<polygon fill="#ffffff" stroke="transparent" points="206.5,-207.7 206.5,-229.7 349.5,-229.7 349.5,-207.7 206.5,-207.7"/>
<polygon fill="none" stroke="#000000" points="206.5,-207.7 206.5,-229.7 349.5,-229.7 349.5,-207.7 206.5,-207.7"/>
<text text-anchor="start" x="226.5" y="-214.8" font-family="Helvetica,sans-Serif" font-size="11.00" fill="#000000">name</text>
<polygon fill="#ffffff" stroke="transparent" points="206.5,-185.7 206.5,-207.7 349.5,-207.7 349.5,-185.7 206.5,-185.7"/>
<polygon fill="none" stroke="#000000" points="206.5,-185.7 206.5,-207.7 349.5,-207.7 349.5,-185.7 206.5,-185.7"/>
<text text-anchor="start" x="226.5" y="-192.8" font-family="Helvetica,sans-Serif" font-size="11.00" fill="#000000">geom</text>
<polygon fill="#ffffff" stroke="transparent" points="206.5,-163.7 206.5,-185.7 349.5,-185.7 349.5,-163.7 206.5,-163.7"/>
<polygon fill="none" stroke="#000000" points="206.5,-163.7 206.5,-185.7 349.5,-185.7 349.5,-163.7 206.5,-163.7"/>
<text text-anchor="start" x="226.5" y="-170.8" font-family="Helvetica,sans-Serif" font-size="11.00" fill="#000000">discretized</text>
<polygon fill="none" stroke="#000000" points="206.5,-141.7 206.5,-163.7 349.5,-163.7 349.5,-141.7 206.5,-141.7"/>
<image xlink:href="../../images/foreignKeys.png" width="11px" height="12px" preserveAspectRatio="xMinYMin meet" x="211.5" y="-158.7"/>
<text text-anchor="start" x="226.5" y="-148.8" font-family="Helvetica,sans-Serif" font-size="11.00" fill="#000000">points_xyz</text>
<polygon fill="none" stroke="#000000" points="206.5,-119.7 206.5,-141.7 349.5,-141.7 349.5,-119.7 206.5,-119.7"/>
<image xlink:href="../../images/foreignKeys.png" width="11px" height="12px" preserveAspectRatio="xMinYMin meet" x="211.5" y="-136.7"/>
<text text-anchor="start" x="226.5" y="-126.8" font-family="Helvetica,sans-Serif" font-size="11.00" fill="#000000">line_xyz</text>
<polygon fill="none" stroke="#000000" points="206.5,-100.7 206.5,-119.7 349.5,-119.7 349.5,-100.7 206.5,-100.7"/>
<text text-anchor="start" x="209.5" y="-106.8" font-family="Helvetica,sans-Serif" font-size="11.00" fill="#000000">...</text>
<polygon fill="#ffffff" stroke="transparent" points="206.5,-81.7 206.5,-100.7 258.5,-100.7 258.5,-81.7 206.5,-81.7"/>
<polygon fill="none" stroke="#000000" points="206.5,-81.7 206.5,-100.7 258.5,-100.7 258.5,-81.7 206.5,-81.7"/>
<text text-anchor="start" x="209.5" y="-87.8" font-family="Helvetica,sans-Serif" font-size="11.00" fill="#000000">&lt; 2</text>
<polygon fill="#ffffff" stroke="transparent" points="258.5,-81.7 258.5,-100.7 312.5,-100.7 312.5,-81.7 258.5,-81.7"/>
<polygon fill="none" stroke="#000000" points="258.5,-81.7 258.5,-100.7 312.5,-100.7 312.5,-81.7 258.5,-81.7"/>
<text text-anchor="start" x="277.1105" y="-87.8" font-family="Helvetica,sans-Serif" font-size="11.00" fill="#000000">0 rows</text>
<polygon fill="#ffffff" stroke="transparent" points="312.5,-81.7 312.5,-100.7 349.5,-100.7 349.5,-81.7 312.5,-81.7"/>
<polygon fill="none" stroke="#000000" points="312.5,-81.7 312.5,-100.7 349.5,-100.7 349.5,-81.7 312.5,-81.7"/>
<text text-anchor="start" x="330.9053" y="-87.8" font-family="Helvetica,sans-Serif" font-size="11.00" fill="#000000">1 &gt;</text>
</a>
</g>
</g>
<!-- project.line_xyz -->
<g id="node2" class="node">
<title>project.line_xyz</title>
<g id="a_node2"><a xlink:title="project.line_xyz">
<polygon fill="#ffffff" stroke="transparent" points="18,-73.2 18,-134.2 147,-134.2 147,-73.2 18,-73.2"/>
<polygon fill="#f5f5f5" stroke="transparent" points="18.5,-110.7 18.5,-133.7 147.5,-133.7 147.5,-110.7 18.5,-110.7"/>
<polygon fill="none" stroke="#000000" points="18.5,-110.7 18.5,-133.7 147.5,-133.7 147.5,-110.7 18.5,-110.7"/>
<text text-anchor="start" x="23.5" y="-119.3" font-family="Helvetica,sans-Serif" font-weight="bold" font-size="11.00" fill="#000000">project.line_xyz</text>
<text text-anchor="start" x="113.0219" y="-118.8" font-family="Helvetica,sans-Serif" font-size="11.00" fill="#000000">[table]</text>
<polygon fill="none" stroke="#000000" points="18.5,-91.7 18.5,-110.7 147.5,-110.7 147.5,-91.7 18.5,-91.7"/>
<text text-anchor="start" x="21.5" y="-97.8" font-family="Helvetica,sans-Serif" font-size="11.00" fill="#000000">...</text>
<polygon fill="#ffffff" stroke="transparent" points="18.5,-72.7 18.5,-91.7 59.5,-91.7 59.5,-72.7 18.5,-72.7"/>
<polygon fill="none" stroke="#000000" points="18.5,-72.7 18.5,-91.7 59.5,-91.7 59.5,-72.7 18.5,-72.7"/>
<text text-anchor="start" x="21.5" y="-78.8" font-family="Helvetica,sans-Serif" font-size="11.00" fill="#000000"> &#160;</text>
<polygon fill="#ffffff" stroke="transparent" points="59.5,-72.7 59.5,-91.7 111.5,-91.7 111.5,-72.7 59.5,-72.7"/>
<polygon fill="none" stroke="#000000" points="59.5,-72.7 59.5,-91.7 111.5,-91.7 111.5,-72.7 59.5,-72.7"/>
<text text-anchor="start" x="76.1105" y="-78.8" font-family="Helvetica,sans-Serif" font-size="11.00" fill="#000000">0 rows</text>
<polygon fill="#ffffff" stroke="transparent" points="111.5,-72.7 111.5,-91.7 147.5,-91.7 147.5,-72.7 111.5,-72.7"/>
<polygon fill="none" stroke="#000000" points="111.5,-72.7 111.5,-91.7 147.5,-91.7 147.5,-72.7 111.5,-72.7"/>
<text text-anchor="start" x="128.9053" y="-78.8" font-family="Helvetica,sans-Serif" font-size="11.00" fill="#000000">1 &gt;</text>
</a>
</g>
</g>
<!-- _constrain&#45;&gt;project.line_xyz -->
<g id="edge1" class="edge">
<title>_constrain:w&#45;&gt;project.line_xyz:e</title>
<path fill="none" stroke="#000000" d="M192.175,-127.7138C175.9022,-120.1257 171.1718,-100.7 147.5,-100.7"/>
<polygon fill="#000000" stroke="#000000" points="198.6684,-129.0674 205.7653,-134.2242 202.5842,-129.8837 206.5,-130.7 206.5,-130.7 206.5,-130.7 202.5842,-129.8837 207.2347,-127.1758 198.6684,-129.0674 198.6684,-129.0674"/>
<ellipse fill="none" stroke="#000000" cx="195.5357" cy="-128.4143" rx="3.2" ry="3.2"/>
</g>
<!-- project.points_type -->
<g id="node3" class="node">
<title>project.points_type</title>
<g id="a_node3"><a xlink:title="project.points_type">
<polygon fill="#ffffff" stroke="transparent" points="8,-155.2 8,-216.2 157,-216.2 157,-155.2 8,-155.2"/>
<polygon fill="#f5f5f5" stroke="transparent" points="8.5,-192.7 8.5,-215.7 157.5,-215.7 157.5,-192.7 8.5,-192.7"/>
<polygon fill="none" stroke="#000000" points="8.5,-192.7 8.5,-215.7 157.5,-215.7 157.5,-192.7 8.5,-192.7"/>
<text text-anchor="start" x="13.5" y="-201.3" font-family="Helvetica,sans-Serif" font-weight="bold" font-size="11.00" fill="#000000">project.points_type</text>
<text text-anchor="start" x="123.0219" y="-200.8" font-family="Helvetica,sans-Serif" font-size="11.00" fill="#000000">[table]</text>
<polygon fill="none" stroke="#000000" points="8.5,-173.7 8.5,-192.7 157.5,-192.7 157.5,-173.7 8.5,-173.7"/>
<text text-anchor="start" x="11.5" y="-179.8" font-family="Helvetica,sans-Serif" font-size="11.00" fill="#000000">...</text>
<polygon fill="#ffffff" stroke="transparent" points="8.5,-154.7 8.5,-173.7 59.5,-173.7 59.5,-154.7 8.5,-154.7"/>
<polygon fill="none" stroke="#000000" points="8.5,-154.7 8.5,-173.7 59.5,-173.7 59.5,-154.7 8.5,-154.7"/>
<text text-anchor="start" x="11.5" y="-160.8" font-family="Helvetica,sans-Serif" font-size="11.00" fill="#000000"> &#160;</text>
<polygon fill="#ffffff" stroke="transparent" points="59.5,-154.7 59.5,-173.7 116.5,-173.7 116.5,-154.7 59.5,-154.7"/>
<polygon fill="none" stroke="#000000" points="59.5,-154.7 59.5,-173.7 116.5,-173.7 116.5,-154.7 59.5,-154.7"/>
<text text-anchor="start" x="81.1105" y="-160.8" font-family="Helvetica,sans-Serif" font-size="11.00" fill="#000000">0 rows</text>
<polygon fill="#ffffff" stroke="transparent" points="116.5,-154.7 116.5,-173.7 157.5,-173.7 157.5,-154.7 116.5,-154.7"/>
<polygon fill="none" stroke="#000000" points="116.5,-154.7 116.5,-173.7 157.5,-173.7 157.5,-154.7 116.5,-154.7"/>
<text text-anchor="start" x="138.9053" y="-160.8" font-family="Helvetica,sans-Serif" font-size="11.00" fill="#000000">1 &gt;</text>
</a>
</g>
</g>
<!-- _constrain&#45;&gt;project.points_type -->
<g id="edge2" class="edge">
<title>_constrain:w&#45;&gt;project.points_type:e</title>
<path fill="none" stroke="#000000" d="M192.384,-156.8714C180.4189,-165.1146 177.0504,-182.7 157.5,-182.7"/>
<polygon fill="#000000" stroke="#000000" points="198.828,-154.9672 207.5202,-156.1524 202.664,-153.8336 206.5,-152.7 206.5,-152.7 206.5,-152.7 202.664,-153.8336 205.4798,-149.2476 198.828,-154.9672 198.828,-154.9672"/>
<ellipse fill="none" stroke="#000000" cx="195.7591" cy="-155.874" rx="3.2" ry="3.2"/>
</g>
<!-- _river_cross_section_profile -->
<g id="node4" class="node">
<title>_river_cross_section_profile</title>
<g id="a_node4"><a xlink:href="../../tables/_river_cross_section_profile.html" xlink:title="_river_cross_section_profile" target="_top">
<polygon fill="#ffffff" stroke="transparent" points="714,-390.2 714,-671.2 916,-671.2 916,-390.2 714,-390.2"/>
<polygon fill="#f5f5f5" stroke="transparent" points="714,-647.7 714,-670.7 916,-670.7 916,-647.7 714,-647.7"/>
<polygon fill="none" stroke="#000000" points="714,-647.7 714,-670.7 916,-670.7 916,-647.7 714,-647.7"/>
<text text-anchor="start" x="719" y="-656.3" font-family="Helvetica,sans-Serif" font-weight="bold" font-size="11.00" fill="#000000">_river_cross_section_profile</text>
<text text-anchor="start" x="881.5219" y="-655.8" font-family="Helvetica,sans-Serif" font-size="11.00" fill="#000000">[table]</text>
<polygon fill="#ffffff" stroke="transparent" points="714,-625.7 714,-647.7 916,-647.7 916,-625.7 714,-625.7"/>
<polygon fill="none" stroke="#000000" points="714,-625.7 714,-647.7 916,-647.7 916,-625.7 714,-625.7"/>
<image xlink:href="../../images/foreignKeys.png" width="11px" height="12px" preserveAspectRatio="xMinYMin meet" x="719" y="-642.7"/>
<text text-anchor="start" x="742" y="-632.8" font-family="Helvetica,sans-Serif" font-size="11.00" fill="#000000">id</text>
<polygon fill="#ffffff" stroke="transparent" points="714,-603.7 714,-625.7 916,-625.7 916,-603.7 714,-603.7"/>
<polygon fill="none" stroke="#000000" points="714,-603.7 714,-625.7 916,-625.7 916,-603.7 714,-603.7"/>
<text text-anchor="start" x="742" y="-610.8" font-family="Helvetica,sans-Serif" font-size="11.00" fill="#000000">name</text>
<polygon fill="none" stroke="#000000" points="714,-581.7 714,-603.7 916,-603.7 916,-581.7 714,-581.7"/>
<image xlink:href="../../images/foreignKeys.png" width="11px" height="12px" preserveAspectRatio="xMinYMin meet" x="719" y="-598.7"/>
<text text-anchor="start" x="742" y="-588.8" font-family="Helvetica,sans-Serif" font-size="11.00" fill="#000000">up_cp_geom</text>
<polygon fill="none" stroke="#000000" points="714,-559.7 714,-581.7 916,-581.7 916,-559.7 714,-559.7"/>
<image xlink:href="../../images/foreignKeys.png" width="11px" height="12px" preserveAspectRatio="xMinYMin meet" x="719" y="-576.7"/>
<text text-anchor="start" x="742" y="-566.8" font-family="Helvetica,sans-Serif" font-size="11.00" fill="#000000">up_op_geom</text>
<polygon fill="none" stroke="#000000" points="714,-537.7 714,-559.7 916,-559.7 916,-537.7 714,-537.7"/>
<image xlink:href="../../images/foreignKeys.png" width="11px" height="12px" preserveAspectRatio="xMinYMin meet" x="719" y="-554.7"/>
<text text-anchor="start" x="742" y="-544.8" font-family="Helvetica,sans-Serif" font-size="11.00" fill="#000000">up_vcs_geom</text>
<polygon fill="none" stroke="#000000" points="714,-515.7 714,-537.7 916,-537.7 916,-515.7 714,-515.7"/>
<image xlink:href="../../images/foreignKeys.png" width="11px" height="12px" preserveAspectRatio="xMinYMin meet" x="719" y="-532.7"/>
<text text-anchor="start" x="742" y="-522.8" font-family="Helvetica,sans-Serif" font-size="11.00" fill="#000000">up_vcs_topo_geom</text>
<polygon fill="none" stroke="#000000" points="714,-493.7 714,-515.7 916,-515.7 916,-493.7 714,-493.7"/>
<image xlink:href="../../images/foreignKeys.png" width="11px" height="12px" preserveAspectRatio="xMinYMin meet" x="719" y="-510.7"/>
<text text-anchor="start" x="742" y="-500.8" font-family="Helvetica,sans-Serif" font-size="11.00" fill="#000000">down_cp_geom</text>
<polygon fill="none" stroke="#000000" points="714,-471.7 714,-493.7 916,-493.7 916,-471.7 714,-471.7"/>
<image xlink:href="../../images/foreignKeys.png" width="11px" height="12px" preserveAspectRatio="xMinYMin meet" x="719" y="-488.7"/>
<text text-anchor="start" x="742" y="-478.8" font-family="Helvetica,sans-Serif" font-size="11.00" fill="#000000">down_op_geom</text>
<polygon fill="none" stroke="#000000" points="714,-449.7 714,-471.7 916,-471.7 916,-449.7 714,-449.7"/>
<image xlink:href="../../images/foreignKeys.png" width="11px" height="12px" preserveAspectRatio="xMinYMin meet" x="719" y="-466.7"/>
<text text-anchor="start" x="742" y="-456.8" font-family="Helvetica,sans-Serif" font-size="11.00" fill="#000000">down_vcs_geom</text>
<polygon fill="none" stroke="#000000" points="714,-427.7 714,-449.7 916,-449.7 916,-427.7 714,-427.7"/>
<image xlink:href="../../images/foreignKeys.png" width="11px" height="12px" preserveAspectRatio="xMinYMin meet" x="719" y="-444.7"/>
<text text-anchor="start" x="742" y="-434.8" font-family="Helvetica,sans-Serif" font-size="11.00" fill="#000000">down_vcs_topo_geom</text>
<polygon fill="none" stroke="#000000" points="714,-408.7 714,-427.7 916,-427.7 916,-408.7 714,-408.7"/>
<text text-anchor="start" x="717" y="-414.8" font-family="Helvetica,sans-Serif" font-size="11.00" fill="#000000">...</text>
<polygon fill="#ffffff" stroke="transparent" points="714,-389.7 714,-408.7 800,-408.7 800,-389.7 714,-389.7"/>
<polygon fill="none" stroke="#000000" points="714,-389.7 714,-408.7 800,-408.7 800,-389.7 714,-389.7"/>
<text text-anchor="start" x="717" y="-395.8" font-family="Helvetica,sans-Serif" font-size="11.00" fill="#000000">&lt; 9</text>
<polygon fill="#ffffff" stroke="transparent" points="800,-389.7 800,-408.7 871,-408.7 871,-389.7 800,-389.7"/>
<polygon fill="none" stroke="#000000" points="800,-389.7 800,-408.7 871,-408.7 871,-389.7 800,-389.7"/>
<text text-anchor="start" x="835.6105" y="-395.8" font-family="Helvetica,sans-Serif" font-size="11.00" fill="#000000">0 rows</text>
<polygon fill="#ffffff" stroke="transparent" points="871,-389.7 871,-408.7 916,-408.7 916,-389.7 871,-389.7"/>
<polygon fill="none" stroke="#000000" points="871,-389.7 871,-408.7 916,-408.7 916,-389.7 871,-389.7"/>
<text text-anchor="start" x="906.8862" y="-395.8" font-family="Helvetica,sans-Serif" font-size="11.00" fill="#000000"> &#160;</text>
</a>
</g>
</g>
<!-- closed_parametric_geometry -->
<g id="node5" class="node">
<title>closed_parametric_geometry</title>
<g id="a_node5"><a xlink:href="../../tables/closed_parametric_geometry.html" xlink:title="closed_parametric_geometry" target="_top">
<polygon fill="#ffffff" stroke="transparent" points="429,-600.2 429,-661.2 634,-661.2 634,-600.2 429,-600.2"/>
<polygon fill="#f5f5f5" stroke="transparent" points="429.5,-637.7 429.5,-660.7 634.5,-660.7 634.5,-637.7 429.5,-637.7"/>
<polygon fill="none" stroke="#000000" points="429.5,-637.7 429.5,-660.7 634.5,-660.7 634.5,-637.7 429.5,-637.7"/>
<text text-anchor="start" x="434.5" y="-646.3" font-family="Helvetica,sans-Serif" font-weight="bold" font-size="11.00" fill="#000000">closed_parametric_geometry</text>
<text text-anchor="start" x="600.0219" y="-645.8" font-family="Helvetica,sans-Serif" font-size="11.00" fill="#000000">[table]</text>
<polygon fill="none" stroke="#000000" points="429.5,-618.7 429.5,-637.7 634.5,-637.7 634.5,-618.7 429.5,-618.7"/>
<text text-anchor="start" x="432.5" y="-624.8" font-family="Helvetica,sans-Serif" font-size="11.00" fill="#000000">...</text>
<polygon fill="#ffffff" stroke="transparent" points="429.5,-599.7 429.5,-618.7 508.5,-618.7 508.5,-599.7 429.5,-599.7"/>
<polygon fill="none" stroke="#000000" points="429.5,-599.7 429.5,-618.7 508.5,-618.7 508.5,-599.7 429.5,-599.7"/>
<text text-anchor="start" x="432.5" y="-605.8" font-family="Helvetica,sans-Serif" font-size="11.00" fill="#000000"> &#160;</text>
<polygon fill="#ffffff" stroke="transparent" points="508.5,-599.7 508.5,-618.7 579.5,-618.7 579.5,-599.7 508.5,-599.7"/>
<polygon fill="none" stroke="#000000" points="508.5,-599.7 508.5,-618.7 579.5,-618.7 579.5,-599.7 508.5,-599.7"/>
<text text-anchor="start" x="544.1105" y="-605.8" font-family="Helvetica,sans-Serif" font-size="11.00" fill="#000000">0 rows</text>
<polygon fill="#ffffff" stroke="transparent" points="579.5,-599.7 579.5,-618.7 634.5,-618.7 634.5,-599.7 579.5,-599.7"/>
<polygon fill="none" stroke="#000000" points="579.5,-599.7 579.5,-618.7 634.5,-618.7 634.5,-599.7 579.5,-599.7"/>
<text text-anchor="start" x="615.9053" y="-605.8" font-family="Helvetica,sans-Serif" font-size="11.00" fill="#000000">3 &gt;</text>
</a>
</g>
</g>
<!-- _river_cross_section_profile&#45;&gt;closed_parametric_geometry -->
<g id="edge3" class="edge">
<title>_river_cross_section_profile:w&#45;&gt;closed_parametric_geometry:e</title>
<path fill="none" stroke="#000000" d="M699.6768,-507.6843C678.3421,-519.0574 693.868,-560.5116 673,-589.7 659.0173,-609.2578 658.5421,-627.7 634.5,-627.7"/>
<polygon fill="#000000" stroke="#000000" points="706.1682,-506.3319 714.7343,-508.2243 710.0841,-505.5159 714,-504.7 714,-504.7 714,-504.7 710.0841,-505.5159 713.2657,-501.1757 706.1682,-506.3319 706.1682,-506.3319"/>
<ellipse fill="none" stroke="#000000" cx="703.0355" cy="-506.9846" rx="3.2" ry="3.2"/>
</g>
<!-- _river_cross_section_profile&#45;&gt;closed_parametric_geometry -->
<g id="edge8" class="edge">
<title>_river_cross_section_profile:w&#45;&gt;closed_parametric_geometry:e</title>
<path fill="none" stroke="#000000" d="M699.6657,-594.5818C674.0323,-601.8516 667.677,-627.7 634.5,-627.7"/>
<polygon fill="#000000" stroke="#000000" points="706.0681,-593.7413 714.4686,-596.2694 710.034,-593.2207 714,-592.7 714,-592.7 714,-592.7 710.034,-593.2207 713.5314,-589.1306 706.0681,-593.7413 706.0681,-593.7413"/>
<ellipse fill="none" stroke="#000000" cx="702.8953" cy="-594.1579" rx="3.2" ry="3.2"/>
</g>
<!-- open_parametric_geometry -->
<g id="node6" class="node">
<title>open_parametric_geometry</title>
<g id="a_node6"><a xlink:href="../../tables/open_parametric_geometry.html" xlink:title="open_parametric_geometry" target="_top">
<polygon fill="#ffffff" stroke="transparent" points="433.5,-518.2 433.5,-579.2 629.5,-579.2 629.5,-518.2 433.5,-518.2"/>
<polygon fill="#f5f5f5" stroke="transparent" points="433.5,-555.7 433.5,-578.7 629.5,-578.7 629.5,-555.7 433.5,-555.7"/>
<polygon fill="none" stroke="#000000" points="433.5,-555.7 433.5,-578.7 629.5,-578.7 629.5,-555.7 433.5,-555.7"/>
<text text-anchor="start" x="438.5" y="-564.3" font-family="Helvetica,sans-Serif" font-weight="bold" font-size="11.00" fill="#000000">open_parametric_geometry</text>
<text text-anchor="start" x="595.0219" y="-563.8" font-family="Helvetica,sans-Serif" font-size="11.00" fill="#000000">[table]</text>
<polygon fill="none" stroke="#000000" points="433.5,-536.7 433.5,-555.7 629.5,-555.7 629.5,-536.7 433.5,-536.7"/>
<text text-anchor="start" x="436.5" y="-542.8" font-family="Helvetica,sans-Serif" font-size="11.00" fill="#000000">...</text>
<polygon fill="#ffffff" stroke="transparent" points="433.5,-517.7 433.5,-536.7 507.5,-536.7 507.5,-517.7 433.5,-517.7"/>
<polygon fill="none" stroke="#000000" points="433.5,-517.7 433.5,-536.7 507.5,-536.7 507.5,-517.7 433.5,-517.7"/>
<text text-anchor="start" x="436.5" y="-523.8" font-family="Helvetica,sans-Serif" font-size="11.00" fill="#000000"> &#160;</text>
<polygon fill="#ffffff" stroke="transparent" points="507.5,-517.7 507.5,-536.7 576.5,-536.7 576.5,-517.7 507.5,-517.7"/>
<polygon fill="none" stroke="#000000" points="507.5,-517.7 507.5,-536.7 576.5,-536.7 576.5,-517.7 507.5,-517.7"/>
<text text-anchor="start" x="541.1105" y="-523.8" font-family="Helvetica,sans-Serif" font-size="11.00" fill="#000000">0 rows</text>
<polygon fill="#ffffff" stroke="transparent" points="576.5,-517.7 576.5,-536.7 629.5,-536.7 629.5,-517.7 576.5,-517.7"/>
<polygon fill="none" stroke="#000000" points="576.5,-517.7 576.5,-536.7 629.5,-536.7 629.5,-517.7 576.5,-517.7"/>
<text text-anchor="start" x="610.9053" y="-523.8" font-family="Helvetica,sans-Serif" font-size="11.00" fill="#000000">3 &gt;</text>
</a>
</g>
</g>
<!-- _river_cross_section_profile&#45;&gt;open_parametric_geometry -->
<g id="edge4" class="edge">
<title>_river_cross_section_profile:w&#45;&gt;open_parametric_geometry:e</title>
<path fill="none" stroke="#000000" d="M699.6594,-485.0927C668.5396,-496.6005 670.855,-545.7 629.5,-545.7"/>
<polygon fill="#000000" stroke="#000000" points="706.1091,-484.0166 714.5925,-486.2509 710.0545,-483.3583 714,-482.7 714,-482.7 714,-482.7 710.0545,-483.3583 713.4075,-479.1491 706.1091,-484.0166 706.1091,-484.0166"/>
<ellipse fill="none" stroke="#000000" cx="702.9527" cy="-484.5433" rx="3.2" ry="3.2"/>
</g>
<!-- _river_cross_section_profile&#45;&gt;open_parametric_geometry -->
<g id="edge9" class="edge">
<title>_river_cross_section_profile:w&#45;&gt;open_parametric_geometry:e</title>
<path fill="none" stroke="#000000" d="M699.6179,-569.4259C672.5313,-564.3314 663.3102,-545.7 629.5,-545.7"/>
<polygon fill="#000000" stroke="#000000" points="706.0312,-569.994 713.6823,-574.286 710.0156,-570.347 714,-570.7 714,-570.7 714,-570.7 710.0156,-570.347 714.3177,-567.114 706.0312,-569.994 706.0312,-569.994"/>
<ellipse fill="none" stroke="#000000" cx="702.8437" cy="-569.7116" rx="3.2" ry="3.2"/>
</g>
<!-- valley_cross_section_geometry -->
<g id="node7" class="node">
<title>valley_cross_section_geometry</title>
<g id="a_node7"><a xlink:href="../../tables/valley_cross_section_geometry.html" xlink:title="valley_cross_section_geometry" target="_top">
<polygon fill="#ffffff" stroke="transparent" points="398,-120.7 398,-496.7 665,-496.7 665,-120.7 398,-120.7"/>
<polygon fill="#f5f5f5" stroke="transparent" points="400.5,-471.7 400.5,-494.7 663.5,-494.7 663.5,-471.7 400.5,-471.7"/>
<polygon fill="none" stroke="#000000" points="400.5,-471.7 400.5,-494.7 663.5,-494.7 663.5,-471.7 400.5,-471.7"/>
<text text-anchor="start" x="405.5" y="-480.3" font-family="Helvetica,sans-Serif" font-weight="bold" font-size="11.00" fill="#000000">valley_cross_section_geometry</text>
<text text-anchor="start" x="628.5437" y="-479.8" font-family="Helvetica,sans-Serif" font-size="11.00" fill="#000000">[table]</text>
<polygon fill="none" stroke="#000000" points="400.5,-449.7 400.5,-471.7 602.5,-471.7 602.5,-449.7 400.5,-449.7"/>
<image xlink:href="../../images/primaryKeys.png" width="11px" height="12px" preserveAspectRatio="xMinYMin meet" x="405.5" y="-466.7"/>
<text text-anchor="start" x="420.5" y="-456.8" font-family="Helvetica,sans-Serif" font-size="11.00" fill="#000000">id</text>
<polygon fill="none" stroke="#000000" points="602.5,-449.7 602.5,-471.7 663.5,-471.7 663.5,-449.7 602.5,-449.7"/>
<text text-anchor="start" x="605.5" y="-457.4" font-family="Helvetica,sans-Serif" font-size="11.00" fill="#000000">serial[10]</text>
<polygon fill="#ffffff" stroke="transparent" points="400.5,-427.7 400.5,-449.7 602.5,-449.7 602.5,-427.7 400.5,-427.7"/>
<polygon fill="none" stroke="#000000" points="400.5,-427.7 400.5,-449.7 602.5,-449.7 602.5,-427.7 400.5,-427.7"/>
<text text-anchor="start" x="420.5" y="-434.8" font-family="Helvetica,sans-Serif" font-size="11.00" fill="#000000">name</text>
<polygon fill="none" stroke="#000000" points="602.5,-427.7 602.5,-449.7 663.5,-449.7 663.5,-427.7 602.5,-427.7"/>
<text text-anchor="start" x="605.494" y="-435.4" font-family="Helvetica,sans-Serif" font-size="11.00" fill="#000000">varchar[24]</text>
<polygon fill="none" stroke="#000000" points="400.5,-405.7 400.5,-427.7 602.5,-427.7 602.5,-405.7 400.5,-405.7"/>
<text text-anchor="start" x="420.5" y="-412.8" font-family="Helvetica,sans-Serif" font-size="11.00" fill="#000000">zbmin_array</text>
<polygon fill="none" stroke="#000000" points="602.5,-405.7 602.5,-427.7 663.5,-427.7 663.5,-405.7 602.5,-405.7"/>
<text text-anchor="start" x="605.5" y="-413.4" font-family="Helvetica,sans-Serif" font-size="11.00" fill="#000000">_float4[8,8]</text>
<polygon fill="none" stroke="#000000" points="400.5,-383.7 400.5,-405.7 602.5,-405.7 602.5,-383.7 400.5,-383.7"/>
<text text-anchor="start" x="420.5" y="-390.8" font-family="Helvetica,sans-Serif" font-size="11.00" fill="#000000">zbmaj_lbank_array</text>
<polygon fill="none" stroke="#000000" points="602.5,-383.7 602.5,-405.7 663.5,-405.7 663.5,-383.7 602.5,-383.7"/>
<text text-anchor="start" x="605.5" y="-391.4" font-family="Helvetica,sans-Serif" font-size="11.00" fill="#000000">_float4[8,8]</text>
<polygon fill="none" stroke="#000000" points="400.5,-361.7 400.5,-383.7 602.5,-383.7 602.5,-361.7 400.5,-361.7"/>
<text text-anchor="start" x="420.5" y="-368.8" font-family="Helvetica,sans-Serif" font-size="11.00" fill="#000000">zbmaj_rbank_array</text>
<polygon fill="none" stroke="#000000" points="602.5,-361.7 602.5,-383.7 663.5,-383.7 663.5,-361.7 602.5,-361.7"/>
<text text-anchor="start" x="605.5" y="-369.4" font-family="Helvetica,sans-Serif" font-size="11.00" fill="#000000">_float4[8,8]</text>
<polygon fill="none" stroke="#000000" points="400.5,-339.7 400.5,-361.7 602.5,-361.7 602.5,-339.7 400.5,-339.7"/>
<text text-anchor="start" x="420.5" y="-346.8" font-family="Helvetica,sans-Serif" font-size="11.00" fill="#000000">rlambda</text>
<polygon fill="none" stroke="#000000" points="602.5,-339.7 602.5,-361.7 663.5,-361.7 663.5,-339.7 602.5,-339.7"/>
<text text-anchor="start" x="605.5" y="-347.4" font-family="Helvetica,sans-Serif" font-size="11.00" fill="#000000">float4[8,8]</text>
<polygon fill="none" stroke="#000000" points="400.5,-317.7 400.5,-339.7 602.5,-339.7 602.5,-317.7 400.5,-317.7"/>
<text text-anchor="start" x="420.5" y="-324.8" font-family="Helvetica,sans-Serif" font-size="11.00" fill="#000000">rmu1</text>
<polygon fill="none" stroke="#000000" points="602.5,-317.7 602.5,-339.7 663.5,-339.7 663.5,-317.7 602.5,-317.7"/>
<text text-anchor="start" x="605.5" y="-325.4" font-family="Helvetica,sans-Serif" font-size="11.00" fill="#000000">float4[8,8]</text>
<polygon fill="none" stroke="#000000" points="400.5,-295.7 400.5,-317.7 602.5,-317.7 602.5,-295.7 400.5,-295.7"/>
<text text-anchor="start" x="420.5" y="-302.8" font-family="Helvetica,sans-Serif" font-size="11.00" fill="#000000">rmu2</text>
<polygon fill="none" stroke="#000000" points="602.5,-295.7 602.5,-317.7 663.5,-317.7 663.5,-295.7 602.5,-295.7"/>
<text text-anchor="start" x="605.5" y="-303.4" font-family="Helvetica,sans-Serif" font-size="11.00" fill="#000000">float4[8,8]</text>
<polygon fill="none" stroke="#000000" points="400.5,-273.7 400.5,-295.7 602.5,-295.7 602.5,-273.7 400.5,-273.7"/>
<text text-anchor="start" x="420.5" y="-280.8" font-family="Helvetica,sans-Serif" font-size="11.00" fill="#000000">zlevee_lb</text>
<polygon fill="none" stroke="#000000" points="602.5,-273.7 602.5,-295.7 663.5,-295.7 663.5,-273.7 602.5,-273.7"/>
<text text-anchor="start" x="605.5" y="-281.4" font-family="Helvetica,sans-Serif" font-size="11.00" fill="#000000">float4[8,8]</text>
<polygon fill="none" stroke="#000000" points="400.5,-251.7 400.5,-273.7 602.5,-273.7 602.5,-251.7 400.5,-251.7"/>
<text text-anchor="start" x="420.5" y="-258.8" font-family="Helvetica,sans-Serif" font-size="11.00" fill="#000000">zlevee_rb</text>
<polygon fill="none" stroke="#000000" points="602.5,-251.7 602.5,-273.7 663.5,-273.7 663.5,-251.7 602.5,-251.7"/>
<text text-anchor="start" x="605.5" y="-259.4" font-family="Helvetica,sans-Serif" font-size="11.00" fill="#000000">float4[8,8]</text>
<polygon fill="none" stroke="#000000" points="400.5,-229.7 400.5,-251.7 602.5,-251.7 602.5,-229.7 400.5,-229.7"/>
<image xlink:href="../../images/foreignKeys.png" width="11px" height="12px" preserveAspectRatio="xMinYMin meet" x="405.5" y="-246.7"/>
<text text-anchor="start" x="420.5" y="-236.8" font-family="Helvetica,sans-Serif" font-size="11.00" fill="#000000">transect</text>
<polygon fill="none" stroke="#000000" points="602.5,-229.7 602.5,-251.7 663.5,-251.7 663.5,-229.7 602.5,-229.7"/>
<text text-anchor="start" x="605.5" y="-237.4" font-family="Helvetica,sans-Serif" font-size="11.00" fill="#000000">int4[10]</text>
<polygon fill="none" stroke="#000000" points="400.5,-207.7 400.5,-229.7 602.5,-229.7 602.5,-207.7 400.5,-207.7"/>
<text text-anchor="start" x="420.5" y="-214.8" font-family="Helvetica,sans-Serif" font-size="11.00" fill="#000000">t_ignore_pt</text>
<polygon fill="none" stroke="#000000" points="602.5,-207.7 602.5,-229.7 663.5,-229.7 663.5,-207.7 602.5,-207.7"/>
<text text-anchor="start" x="605.5" y="-215.4" font-family="Helvetica,sans-Serif" font-size="11.00" fill="#000000">bool[1]</text>
<polygon fill="none" stroke="#000000" points="400.5,-185.7 400.5,-207.7 602.5,-207.7 602.5,-185.7 400.5,-185.7"/>
<text text-anchor="start" x="420.5" y="-192.8" font-family="Helvetica,sans-Serif" font-size="11.00" fill="#000000">t_discret</text>
<polygon fill="none" stroke="#000000" points="602.5,-185.7 602.5,-207.7 663.5,-207.7 663.5,-185.7 602.5,-185.7"/>
<text text-anchor="start" x="605.5" y="-193.4" font-family="Helvetica,sans-Serif" font-size="11.00" fill="#000000">int4[10]</text>
<polygon fill="none" stroke="#000000" points="400.5,-163.7 400.5,-185.7 602.5,-185.7 602.5,-163.7 400.5,-163.7"/>
<text text-anchor="start" x="420.5" y="-170.8" font-family="Helvetica,sans-Serif" font-size="11.00" fill="#000000">t_distance_pt</text>
<polygon fill="none" stroke="#000000" points="602.5,-163.7 602.5,-185.7 663.5,-185.7 663.5,-163.7 602.5,-163.7"/>
<text text-anchor="start" x="605.5" y="-171.4" font-family="Helvetica,sans-Serif" font-size="11.00" fill="#000000">int4[10]</text>
<polygon fill="none" stroke="#000000" points="400.5,-141.7 400.5,-163.7 602.5,-163.7 602.5,-141.7 400.5,-141.7"/>
<text text-anchor="start" x="420.5" y="-148.8" font-family="Helvetica,sans-Serif" font-size="11.00" fill="#000000">sz_array</text>
<polygon fill="none" stroke="#000000" points="602.5,-141.7 602.5,-163.7 663.5,-163.7 663.5,-141.7 602.5,-141.7"/>
<text text-anchor="start" x="605.5" y="-149.4" font-family="Helvetica,sans-Serif" font-size="11.00" fill="#000000">_float4[8,8]</text>
<polygon fill="#ffffff" stroke="transparent" points="400.5,-122.7 400.5,-141.7 492.5,-141.7 492.5,-122.7 400.5,-122.7"/>
<polygon fill="none" stroke="#000000" points="400.5,-122.7 400.5,-141.7 492.5,-141.7 492.5,-122.7 400.5,-122.7"/>
<text text-anchor="start" x="403.5" y="-128.8" font-family="Helvetica,sans-Serif" font-size="11.00" fill="#000000">&lt; 1</text>
<polygon fill="#ffffff" stroke="transparent" points="492.5,-122.7 492.5,-141.7 602.5,-141.7 602.5,-122.7 492.5,-122.7"/>
<polygon fill="none" stroke="#000000" points="492.5,-122.7 492.5,-141.7 602.5,-141.7 602.5,-122.7 492.5,-122.7"/>
<text text-anchor="start" x="567.1105" y="-128.8" font-family="Helvetica,sans-Serif" font-size="11.00" fill="#000000">0 rows</text>
<polygon fill="#ffffff" stroke="transparent" points="602.5,-122.7 602.5,-141.7 663.5,-141.7 663.5,-122.7 602.5,-122.7"/>
<polygon fill="none" stroke="#000000" points="602.5,-122.7 602.5,-141.7 663.5,-141.7 663.5,-122.7 602.5,-122.7"/>
<text text-anchor="start" x="644.9053" y="-128.8" font-family="Helvetica,sans-Serif" font-size="11.00" fill="#000000">2 &gt;</text>
<polygon fill="none" stroke="#000000" stroke-width="2" points="399,-121.7 399,-495.7 664,-495.7 664,-121.7 399,-121.7"/>
</a>
</g>
</g>
<!-- _river_cross_section_profile&#45;&gt;valley_cross_section_geometry -->
<g id="edge5" class="edge">
<title>_river_cross_section_profile:w&#45;&gt;valley_cross_section_geometry:e</title>
<path fill="none" stroke="#000000" d="M699.4203,-460.7C687.5435,-460.7 680.158,-460.7 663.5,-460.7"/>
<polygon fill="#000000" stroke="#000000" points="706,-460.7001 714,-464.3 710,-460.7 714,-460.7 714,-460.7 714,-460.7 710,-460.7 714,-457.1 706,-460.7001 706,-460.7001"/>
<ellipse fill="none" stroke="#000000" cx="702.8" cy="-460.7001" rx="3.2" ry="3.2"/>
</g>
<!-- _river_cross_section_profile&#45;&gt;valley_cross_section_geometry -->
<g id="edge10" class="edge">
<title>_river_cross_section_profile:w&#45;&gt;valley_cross_section_geometry:e</title>
<path fill="none" stroke="#000000" d="M700.1222,-544.4556C677.9529,-526.8772 702.6046,-460.7 663.5,-460.7"/>
<polygon fill="#000000" stroke="#000000" points="706.3498,-546.3602 712.9471,-552.1426 710.1749,-547.5301 714,-548.7 714,-548.7 714,-548.7 710.1749,-547.5301 715.0529,-545.2574 706.3498,-546.3602 706.3498,-546.3602"/>
<ellipse fill="none" stroke="#000000" cx="703.2897" cy="-545.4243" rx="3.2" ry="3.2"/>
</g>
<!-- valley_cross_section_topo_geometry -->
<g id="node8" class="node">
<title>valley_cross_section_topo_geometry</title>
<g id="a_node8"><a xlink:href="../../tables/valley_cross_section_topo_geometry.html" xlink:title="valley_cross_section_topo_geometry" target="_top">
<polygon fill="#ffffff" stroke="transparent" points="405,-38.2 405,-99.2 658,-99.2 658,-38.2 405,-38.2"/>
<polygon fill="#f5f5f5" stroke="transparent" points="405.5,-75.7 405.5,-98.7 658.5,-98.7 658.5,-75.7 405.5,-75.7"/>
<polygon fill="none" stroke="#000000" points="405.5,-75.7 405.5,-98.7 658.5,-98.7 658.5,-75.7 405.5,-75.7"/>
<text text-anchor="start" x="410.5" y="-84.3" font-family="Helvetica,sans-Serif" font-weight="bold" font-size="11.00" fill="#000000">valley_cross_section_topo_geometry</text>
<text text-anchor="start" x="624.0219" y="-83.8" font-family="Helvetica,sans-Serif" font-size="11.00" fill="#000000">[table]</text>
<polygon fill="none" stroke="#000000" points="405.5,-56.7 405.5,-75.7 658.5,-75.7 658.5,-56.7 405.5,-56.7"/>
<text text-anchor="start" x="408.5" y="-62.8" font-family="Helvetica,sans-Serif" font-size="11.00" fill="#000000">...</text>
<polygon fill="#ffffff" stroke="transparent" points="405.5,-37.7 405.5,-56.7 508.5,-56.7 508.5,-37.7 405.5,-37.7"/>
<polygon fill="none" stroke="#000000" points="405.5,-37.7 405.5,-56.7 508.5,-56.7 508.5,-37.7 405.5,-37.7"/>
<text text-anchor="start" x="408.5" y="-43.8" font-family="Helvetica,sans-Serif" font-size="11.00" fill="#000000"> &#160;</text>
<polygon fill="#ffffff" stroke="transparent" points="508.5,-37.7 508.5,-56.7 591.5,-56.7 591.5,-37.7 508.5,-37.7"/>
<polygon fill="none" stroke="#000000" points="508.5,-37.7 508.5,-56.7 591.5,-56.7 591.5,-37.7 508.5,-37.7"/>
<text text-anchor="start" x="556.1105" y="-43.8" font-family="Helvetica,sans-Serif" font-size="11.00" fill="#000000">0 rows</text>
<polygon fill="#ffffff" stroke="transparent" points="591.5,-37.7 591.5,-56.7 658.5,-56.7 658.5,-37.7 591.5,-37.7"/>
<polygon fill="none" stroke="#000000" points="591.5,-37.7 591.5,-56.7 658.5,-56.7 658.5,-37.7 591.5,-37.7"/>
<text text-anchor="start" x="639.9053" y="-43.8" font-family="Helvetica,sans-Serif" font-size="11.00" fill="#000000">2 &gt;</text>
</a>
</g>
</g>
<!-- _river_cross_section_profile&#45;&gt;valley_cross_section_topo_geometry -->
<g id="edge6" class="edge">
<title>_river_cross_section_profile:w&#45;&gt;valley_cross_section_topo_geometry:e</title>
<path fill="none" stroke="#000000" d="M700.1328,-434.2512C643.8355,-392.1675 736.9002,-65.7 658.5,-65.7"/>
<polygon fill="#000000" stroke="#000000" points="706.3824,-436.2561 712.9003,-442.1279 710.1912,-437.4781 714,-438.7 714,-438.7 714,-438.7 710.1912,-437.4781 715.0997,-435.2721 706.3824,-436.2561 706.3824,-436.2561"/>
<ellipse fill="none" stroke="#000000" cx="703.3354" cy="-435.2786" rx="3.2" ry="3.2"/>
</g>
<!-- _river_cross_section_profile&#45;&gt;valley_cross_section_topo_geometry -->
<g id="edge11" class="edge">
<title>_river_cross_section_profile:w&#45;&gt;valley_cross_section_topo_geometry:e</title>
<path fill="none" stroke="#000000" d="M699.7209,-522.9892C626.0212,-479.3609 756.2428,-65.7 658.5,-65.7"/>
<polygon fill="#000000" stroke="#000000" points="706.2572,-524.6878 713.0945,-530.1843 710.1286,-525.6939 714,-526.7 714,-526.7 714,-526.7 710.1286,-525.6939 714.9055,-523.2157 706.2572,-524.6878 706.2572,-524.6878"/>
<ellipse fill="none" stroke="#000000" cx="703.1601" cy="-523.8829" rx="3.2" ry="3.2"/>
</g>
<!-- _river_node -->
<g id="node9" class="node">
<title>_river_node</title>
<g id="a_node9"><a xlink:href="../../tables/_river_node.html" xlink:title="_river_node" target="_top">
<polygon fill="#ffffff" stroke="transparent" points="478,-682.2 478,-743.2 585,-743.2 585,-682.2 478,-682.2"/>
<polygon fill="#f5f5f5" stroke="transparent" points="478.5,-719.7 478.5,-742.7 585.5,-742.7 585.5,-719.7 478.5,-719.7"/>
<polygon fill="none" stroke="#000000" points="478.5,-719.7 478.5,-742.7 585.5,-742.7 585.5,-719.7 478.5,-719.7"/>
<text text-anchor="start" x="483.5" y="-728.3" font-family="Helvetica,sans-Serif" font-weight="bold" font-size="11.00" fill="#000000">_river_node</text>
<text text-anchor="start" x="551.0219" y="-727.8" font-family="Helvetica,sans-Serif" font-size="11.00" fill="#000000">[table]</text>
<polygon fill="none" stroke="#000000" points="478.5,-700.7 478.5,-719.7 585.5,-719.7 585.5,-700.7 478.5,-700.7"/>
<text text-anchor="start" x="481.5" y="-706.8" font-family="Helvetica,sans-Serif" font-size="11.00" fill="#000000">...</text>
<polygon fill="#ffffff" stroke="transparent" points="478.5,-681.7 478.5,-700.7 512.5,-700.7 512.5,-681.7 478.5,-681.7"/>
<polygon fill="none" stroke="#000000" points="478.5,-681.7 478.5,-700.7 512.5,-700.7 512.5,-681.7 478.5,-681.7"/>
<text text-anchor="start" x="481.5" y="-687.8" font-family="Helvetica,sans-Serif" font-size="11.00" fill="#000000">&lt; 3</text>
<polygon fill="#ffffff" stroke="transparent" points="512.5,-681.7 512.5,-700.7 557.5,-700.7 557.5,-681.7 512.5,-681.7"/>
<polygon fill="none" stroke="#000000" points="512.5,-681.7 512.5,-700.7 557.5,-700.7 557.5,-681.7 512.5,-681.7"/>
<text text-anchor="start" x="522.1105" y="-687.8" font-family="Helvetica,sans-Serif" font-size="11.00" fill="#000000">0 rows</text>
<polygon fill="#ffffff" stroke="transparent" points="557.5,-681.7 557.5,-700.7 585.5,-700.7 585.5,-681.7 557.5,-681.7"/>
<polygon fill="none" stroke="#000000" points="557.5,-681.7 557.5,-700.7 585.5,-700.7 585.5,-681.7 557.5,-681.7"/>
<text text-anchor="start" x="566.9053" y="-687.8" font-family="Helvetica,sans-Serif" font-size="11.00" fill="#000000">2 &gt;</text>
</a>
</g>
</g>
<!-- _river_cross_section_profile&#45;&gt;_river_node -->
<g id="edge7" class="edge">
<title>_river_cross_section_profile:w&#45;&gt;_river_node:e</title>
<path fill="none" stroke="#000000" d="M703.4283,-638.6758C690.4583,-644.4073 689.6709,-661.2908 673,-671.7 637.0368,-694.1551 627.8979,-709.7 585.5,-709.7"/>
<polygon fill="#000000" stroke="#000000" points="712.4787,-632.9151 713.9485,-640.7789 712.3757,-641.0729 710.906,-633.209 712.4787,-632.9151"/>
<polyline fill="none" stroke="#000000" points="714,-636.7 710.0681,-637.4349 "/>
<ellipse fill="none" stroke="#000000" cx="706.9225" cy="-638.0228" rx="3.2" ry="3.2"/>
</g>
<!-- valley_cross_section_geometry&#45;&gt;_constrain -->
<g id="edge12" class="edge">
<title>valley_cross_section_geometry:w&#45;&gt;_constrain:e</title>
<path fill="none" stroke="#000000" d="M385.776,-240.7C373.7815,-240.7 366.3229,-240.7 349.5,-240.7"/>
<polygon fill="#000000" stroke="#000000" points="392.5,-240.7001 400.5,-244.3 396.5,-240.7 400.5,-240.7 400.5,-240.7 400.5,-240.7 396.5,-240.7 400.5,-237.1 392.5,-240.7001 392.5,-240.7001"/>
<ellipse fill="none" stroke="#000000" cx="389.3" cy="-240.7001" rx="3.2" ry="3.2"/>
</g>
</g>
</svg>
