<?xml version="1.0" encoding="UTF-8" standalone="no"?>
<!DOCTYPE svg PUBLIC "-//W3C//DTD SVG 1.1//EN"
 "http://www.w3.org/Graphics/SVG/1.1/DTD/svg11.dtd">
<!-- Generated by graphviz version 2.40.1 (20161225.0304)
 -->
<!-- Title: oneDegreeRelationshipsDiagram Pages: 1 -->
<svg width="575pt" height="331pt"
 viewBox="0.00 0.00 575.00 331.20" xmlns="http://www.w3.org/2000/svg" xmlns:xlink="http://www.w3.org/1999/xlink">
<g id="graph0" class="graph" transform="scale(1 1) rotate(0) translate(4 327.2)">
<title>oneDegreeRelationshipsDiagram</title>
<polygon fill="#ffffff" stroke="transparent" points="-4,4 -4,-327.2 571,-327.2 571,4 -4,4"/>
<text text-anchor="middle" x="72.4936" y="-7.3" font-family="Helvetica,sans-Serif" font-size="11.00" fill="#000000">Generated by SchemaSpy</text>
<!-- _river_cross_section_profile -->
<g id="node1" class="node">
<title>_river_cross_section_profile</title>
<g id="a_node1"><a xlink:href="../../tables/_river_cross_section_profile.html" xlink:title="_river_cross_section_profile" target="_top">
<polygon fill="#ffffff" stroke="transparent" points="357,-38.2 357,-319.2 559,-319.2 559,-38.2 357,-38.2"/>
<polygon fill="#f5f5f5" stroke="transparent" points="357,-295.7 357,-318.7 559,-318.7 559,-295.7 357,-295.7"/>
<polygon fill="none" stroke="#000000" points="357,-295.7 357,-318.7 559,-318.7 559,-295.7 357,-295.7"/>
<text text-anchor="start" x="362" y="-304.3" font-family="Helvetica,sans-Serif" font-weight="bold" font-size="11.00" fill="#000000">_river_cross_section_profile</text>
<text text-anchor="start" x="524.5219" y="-303.8" font-family="Helvetica,sans-Serif" font-size="11.00" fill="#000000">[table]</text>
<polygon fill="#ffffff" stroke="transparent" points="357,-273.7 357,-295.7 559,-295.7 559,-273.7 357,-273.7"/>
<polygon fill="none" stroke="#000000" points="357,-273.7 357,-295.7 559,-295.7 559,-273.7 357,-273.7"/>
<image xlink:href="../../images/foreignKeys.png" width="11px" height="12px" preserveAspectRatio="xMinYMin meet" x="362" y="-290.7"/>
<text text-anchor="start" x="385" y="-280.8" font-family="Helvetica,sans-Serif" font-size="11.00" fill="#000000">id</text>
<polygon fill="#ffffff" stroke="transparent" points="357,-251.7 357,-273.7 559,-273.7 559,-251.7 357,-251.7"/>
<polygon fill="none" stroke="#000000" points="357,-251.7 357,-273.7 559,-273.7 559,-251.7 357,-251.7"/>
<text text-anchor="start" x="385" y="-258.8" font-family="Helvetica,sans-Serif" font-size="11.00" fill="#000000">name</text>
<polygon fill="none" stroke="#000000" points="357,-229.7 357,-251.7 559,-251.7 559,-229.7 357,-229.7"/>
<image xlink:href="../../images/foreignKeys.png" width="11px" height="12px" preserveAspectRatio="xMinYMin meet" x="362" y="-246.7"/>
<text text-anchor="start" x="385" y="-236.8" font-family="Helvetica,sans-Serif" font-size="11.00" fill="#000000">up_cp_geom</text>
<polygon fill="none" stroke="#000000" points="357,-207.7 357,-229.7 559,-229.7 559,-207.7 357,-207.7"/>
<image xlink:href="../../images/foreignKeys.png" width="11px" height="12px" preserveAspectRatio="xMinYMin meet" x="362" y="-224.7"/>
<text text-anchor="start" x="385" y="-214.8" font-family="Helvetica,sans-Serif" font-size="11.00" fill="#000000">up_op_geom</text>
<polygon fill="none" stroke="#000000" points="357,-185.7 357,-207.7 559,-207.7 559,-185.7 357,-185.7"/>
<image xlink:href="../../images/foreignKeys.png" width="11px" height="12px" preserveAspectRatio="xMinYMin meet" x="362" y="-202.7"/>
<text text-anchor="start" x="385" y="-192.8" font-family="Helvetica,sans-Serif" font-size="11.00" fill="#000000">up_vcs_geom</text>
<polygon fill="none" stroke="#000000" points="357,-163.7 357,-185.7 559,-185.7 559,-163.7 357,-163.7"/>
<image xlink:href="../../images/foreignKeys.png" width="11px" height="12px" preserveAspectRatio="xMinYMin meet" x="362" y="-180.7"/>
<text text-anchor="start" x="385" y="-170.8" font-family="Helvetica,sans-Serif" font-size="11.00" fill="#000000">up_vcs_topo_geom</text>
<polygon fill="none" stroke="#000000" points="357,-141.7 357,-163.7 559,-163.7 559,-141.7 357,-141.7"/>
<image xlink:href="../../images/foreignKeys.png" width="11px" height="12px" preserveAspectRatio="xMinYMin meet" x="362" y="-158.7"/>
<text text-anchor="start" x="385" y="-148.8" font-family="Helvetica,sans-Serif" font-size="11.00" fill="#000000">down_cp_geom</text>
<polygon fill="none" stroke="#000000" points="357,-119.7 357,-141.7 559,-141.7 559,-119.7 357,-119.7"/>
<image xlink:href="../../images/foreignKeys.png" width="11px" height="12px" preserveAspectRatio="xMinYMin meet" x="362" y="-136.7"/>
<text text-anchor="start" x="385" y="-126.8" font-family="Helvetica,sans-Serif" font-size="11.00" fill="#000000">down_op_geom</text>
<polygon fill="none" stroke="#000000" points="357,-97.7 357,-119.7 559,-119.7 559,-97.7 357,-97.7"/>
<image xlink:href="../../images/foreignKeys.png" width="11px" height="12px" preserveAspectRatio="xMinYMin meet" x="362" y="-114.7"/>
<text text-anchor="start" x="385" y="-104.8" font-family="Helvetica,sans-Serif" font-size="11.00" fill="#000000">down_vcs_geom</text>
<polygon fill="none" stroke="#000000" points="357,-75.7 357,-97.7 559,-97.7 559,-75.7 357,-75.7"/>
<image xlink:href="../../images/foreignKeys.png" width="11px" height="12px" preserveAspectRatio="xMinYMin meet" x="362" y="-92.7"/>
<text text-anchor="start" x="385" y="-82.8" font-family="Helvetica,sans-Serif" font-size="11.00" fill="#000000">down_vcs_topo_geom</text>
<polygon fill="none" stroke="#000000" points="357,-56.7 357,-75.7 559,-75.7 559,-56.7 357,-56.7"/>
<text text-anchor="start" x="360" y="-62.8" font-family="Helvetica,sans-Serif" font-size="11.00" fill="#000000">...</text>
<polygon fill="#ffffff" stroke="transparent" points="357,-37.7 357,-56.7 443,-56.7 443,-37.7 357,-37.7"/>
<polygon fill="none" stroke="#000000" points="357,-37.7 357,-56.7 443,-56.7 443,-37.7 357,-37.7"/>
<text text-anchor="start" x="360" y="-43.8" font-family="Helvetica,sans-Serif" font-size="11.00" fill="#000000">&lt; 9</text>
<polygon fill="#ffffff" stroke="transparent" points="443,-37.7 443,-56.7 514,-56.7 514,-37.7 443,-37.7"/>
<polygon fill="none" stroke="#000000" points="443,-37.7 443,-56.7 514,-56.7 514,-37.7 443,-37.7"/>
<text text-anchor="start" x="478.6105" y="-43.8" font-family="Helvetica,sans-Serif" font-size="11.00" fill="#000000">0 rows</text>
<polygon fill="#ffffff" stroke="transparent" points="514,-37.7 514,-56.7 559,-56.7 559,-37.7 514,-37.7"/>
<polygon fill="none" stroke="#000000" points="514,-37.7 514,-56.7 559,-56.7 559,-37.7 514,-37.7"/>
<text text-anchor="start" x="549.8862" y="-43.8" font-family="Helvetica,sans-Serif" font-size="11.00" fill="#000000"> &#160;</text>
</a>
</g>
</g>
<!-- valley_cross_section_topo_geometry -->
<g id="node2" class="node">
<title>valley_cross_section_topo_geometry</title>
<g id="a_node2"><a xlink:href="../../tables/valley_cross_section_topo_geometry.html" xlink:title="valley_cross_section_topo_geometry" target="_top">
<polygon fill="#ffffff" stroke="transparent" points="8,-54.7 8,-166.7 308,-166.7 308,-54.7 8,-54.7"/>
<polygon fill="#f5f5f5" stroke="transparent" points="10,-141.7 10,-164.7 306,-164.7 306,-141.7 10,-141.7"/>
<polygon fill="none" stroke="#000000" points="10,-141.7 10,-164.7 306,-164.7 306,-141.7 10,-141.7"/>
<text text-anchor="start" x="15" y="-150.3" font-family="Helvetica,sans-Serif" font-weight="bold" font-size="11.00" fill="#000000">valley_cross_section_topo_geometry</text>
<text text-anchor="start" x="271.0437" y="-149.8" font-family="Helvetica,sans-Serif" font-size="11.00" fill="#000000">[table]</text>
<polygon fill="none" stroke="#000000" points="10,-119.7 10,-141.7 245,-141.7 245,-119.7 10,-119.7"/>
<image xlink:href="../../images/primaryKeys.png" width="11px" height="12px" preserveAspectRatio="xMinYMin meet" x="15" y="-136.7"/>
<text text-anchor="start" x="30" y="-126.8" font-family="Helvetica,sans-Serif" font-size="11.00" fill="#000000">id</text>
<polygon fill="none" stroke="#000000" points="245,-119.7 245,-141.7 306,-141.7 306,-119.7 245,-119.7"/>
<text text-anchor="start" x="248" y="-127.4" font-family="Helvetica,sans-Serif" font-size="11.00" fill="#000000">serial[10]</text>
<polygon fill="#ffffff" stroke="transparent" points="10,-97.7 10,-119.7 245,-119.7 245,-97.7 10,-97.7"/>
<polygon fill="none" stroke="#000000" points="10,-97.7 10,-119.7 245,-119.7 245,-97.7 10,-97.7"/>
<text text-anchor="start" x="30" y="-104.8" font-family="Helvetica,sans-Serif" font-size="11.00" fill="#000000">name</text>
<polygon fill="none" stroke="#000000" points="245,-97.7 245,-119.7 306,-119.7 306,-97.7 245,-97.7"/>
<text text-anchor="start" x="247.994" y="-105.4" font-family="Helvetica,sans-Serif" font-size="11.00" fill="#000000">varchar[24]</text>
<polygon fill="none" stroke="#000000" points="10,-75.7 10,-97.7 245,-97.7 245,-75.7 10,-75.7"/>
<text text-anchor="start" x="30" y="-82.8" font-family="Helvetica,sans-Serif" font-size="11.00" fill="#000000">xz_array</text>
<polygon fill="none" stroke="#000000" points="245,-75.7 245,-97.7 306,-97.7 306,-75.7 245,-75.7"/>
<text text-anchor="start" x="248" y="-83.4" font-family="Helvetica,sans-Serif" font-size="11.00" fill="#000000">_float4[8,8]</text>
<polygon fill="#ffffff" stroke="transparent" points="10,-56.7 10,-75.7 119,-75.7 119,-56.7 10,-56.7"/>
<polygon fill="none" stroke="#000000" points="10,-56.7 10,-75.7 119,-75.7 119,-56.7 10,-56.7"/>
<text text-anchor="start" x="13" y="-62.8" font-family="Helvetica,sans-Serif" font-size="11.00" fill="#000000">&lt; 0</text>
<polygon fill="#ffffff" stroke="transparent" points="119,-56.7 119,-75.7 245,-75.7 245,-56.7 119,-56.7"/>
<polygon fill="none" stroke="#000000" points="119,-56.7 119,-75.7 245,-75.7 245,-56.7 119,-56.7"/>
<text text-anchor="start" x="209.6105" y="-62.8" font-family="Helvetica,sans-Serif" font-size="11.00" fill="#000000">0 rows</text>
<polygon fill="#ffffff" stroke="transparent" points="245,-56.7 245,-75.7 306,-75.7 306,-56.7 245,-56.7"/>
<polygon fill="none" stroke="#000000" points="245,-56.7 245,-75.7 306,-75.7 306,-56.7 245,-56.7"/>
<text text-anchor="start" x="287.4053" y="-62.8" font-family="Helvetica,sans-Serif" font-size="11.00" fill="#000000">2 &gt;</text>
<polygon fill="none" stroke="#000000" stroke-width="2" points="9,-55.7 9,-165.7 307,-165.7 307,-55.7 9,-55.7"/>
</a>
</g>
</g>
<!-- _river_cross_section_profile&#45;&gt;valley_cross_section_topo_geometry -->
<g id="edge1" class="edge">
<title>_river_cross_section_profile:w&#45;&gt;valley_cross_section_topo_geometry:e</title>
<path fill="none" stroke="#000000" d="M342.9107,-91.4088C329.0669,-102.7596 329.8557,-130.7 306,-130.7"/>
<polygon fill="#000000" stroke="#000000" points="349.4125,-89.2358 358.1411,-90.1144 353.2063,-87.9679 357,-86.7 357,-86.7 357,-86.7 353.2063,-87.9679 355.8589,-83.2856 349.4125,-89.2358 349.4125,-89.2358"/>
<ellipse fill="none" stroke="#000000" cx="346.3775" cy="-90.2502" rx="3.2" ry="3.2"/>
</g>
<!-- _river_cross_section_profile&#45;&gt;valley_cross_section_topo_geometry -->
<g id="edge2" class="edge">
<title>_river_cross_section_profile:w&#45;&gt;valley_cross_section_topo_geometry:e</title>
<path fill="none" stroke="#000000" d="M342.9107,-169.9912C329.0669,-158.6404 329.8557,-130.7 306,-130.7"/>
<polygon fill="#000000" stroke="#000000" points="349.4125,-172.1642 355.8589,-178.1144 353.2063,-173.4321 357,-174.7 357,-174.7 357,-174.7 353.2063,-173.4321 358.1411,-171.2856 349.4125,-172.1642 349.4125,-172.1642"/>
<ellipse fill="none" stroke="#000000" cx="346.3775" cy="-171.1498" rx="3.2" ry="3.2"/>
</g>
</g>
</svg>
