<?xml version="1.0" encoding="UTF-8" standalone="no"?>
<!DOCTYPE svg PUBLIC "-//W3C//DTD SVG 1.1//EN"
 "http://www.w3.org/Graphics/SVG/1.1/DTD/svg11.dtd">
<!-- Generated by graphviz version 2.40.1 (20161225.0304)
 -->
<!-- Title: oneDegreeRelationshipsDiagram Pages: 1 -->
<svg width="280pt" height="319pt"
 viewBox="0.00 0.00 280.00 319.20" xmlns="http://www.w3.org/2000/svg" xmlns:xlink="http://www.w3.org/1999/xlink">
<g id="graph0" class="graph" transform="scale(1 1) rotate(0) translate(4 315.2)">
<title>oneDegreeRelationshipsDiagram</title>
<polygon fill="#ffffff" stroke="transparent" points="-4,4 -4,-315.2 276,-315.2 276,4 -4,4"/>
<text text-anchor="middle" x="72.4936" y="-7.3" font-family="Helvetica,sans-Serif" font-size="11.00" fill="#000000">Generated by SchemaSpy</text>
<!-- weir_bc_singularity -->
<g id="node1" class="node">
<title>weir_bc_singularity</title>
<g id="a_node1"><a xlink:href="../../tables/weir_bc_singularity.html" xlink:title="weir_bc_singularity" target="_top">
<polygon fill="#ffffff" stroke="transparent" points="8,-38.2 8,-307.2 264,-307.2 264,-38.2 8,-38.2"/>
<polygon fill="#f5f5f5" stroke="transparent" points="10,-281.7 10,-304.7 262,-304.7 262,-281.7 10,-281.7"/>
<polygon fill="none" stroke="#000000" points="10,-281.7 10,-304.7 262,-304.7 262,-281.7 10,-281.7"/>
<text text-anchor="start" x="15" y="-290.3" font-family="Helvetica,sans-Serif" font-weight="bold" font-size="11.00" fill="#000000">weir_bc_singularity</text>
<text text-anchor="start" x="228.8895" y="-289.8" font-family="Helvetica,sans-Serif" font-size="11.00" fill="#000000">[view]</text>
<polygon fill="none" stroke="#000000" points="10,-259.7 10,-281.7 143,-281.7 143,-259.7 10,-259.7"/>
<text text-anchor="start" x="30" y="-266.8" font-family="Helvetica,sans-Serif" font-size="11.00" fill="#000000">id</text>
<polygon fill="none" stroke="#000000" points="143,-259.7 143,-281.7 262,-281.7 262,-259.7 143,-259.7"/>
<text text-anchor="start" x="146" y="-267.4" font-family="Helvetica,sans-Serif" font-size="11.00" fill="#000000">int4[10]</text>
<polygon fill="none" stroke="#000000" points="10,-237.7 10,-259.7 143,-259.7 143,-237.7 10,-237.7"/>
<text text-anchor="start" x="30" y="-244.8" font-family="Helvetica,sans-Serif" font-size="11.00" fill="#000000">name</text>
<polygon fill="none" stroke="#000000" points="143,-237.7 143,-259.7 262,-259.7 262,-237.7 143,-237.7"/>
<text text-anchor="start" x="146" y="-245.4" font-family="Helvetica,sans-Serif" font-size="11.00" fill="#000000">varchar[24]</text>
<polygon fill="none" stroke="#000000" points="10,-215.7 10,-237.7 143,-237.7 143,-215.7 10,-215.7"/>
<text text-anchor="start" x="30" y="-222.8" font-family="Helvetica,sans-Serif" font-size="11.00" fill="#000000">node</text>
<polygon fill="none" stroke="#000000" points="143,-215.7 143,-237.7 262,-237.7 262,-215.7 143,-215.7"/>
<text text-anchor="start" x="146" y="-223.4" font-family="Helvetica,sans-Serif" font-size="11.00" fill="#000000">int4[10]</text>
<polygon fill="none" stroke="#000000" points="10,-193.7 10,-215.7 143,-215.7 143,-193.7 10,-193.7"/>
<text text-anchor="start" x="30" y="-200.8" font-family="Helvetica,sans-Serif" font-size="11.00" fill="#000000">z_weir</text>
<polygon fill="none" stroke="#000000" points="143,-193.7 143,-215.7 262,-215.7 262,-193.7 143,-193.7"/>
<text text-anchor="start" x="146" y="-201.4" font-family="Helvetica,sans-Serif" font-size="11.00" fill="#000000">float4[8,8]</text>
<polygon fill="none" stroke="#000000" points="10,-171.7 10,-193.7 143,-193.7 143,-171.7 10,-171.7"/>
<text text-anchor="start" x="30" y="-178.8" font-family="Helvetica,sans-Serif" font-size="11.00" fill="#000000">width</text>
<polygon fill="none" stroke="#000000" points="143,-171.7 143,-193.7 262,-193.7 262,-171.7 143,-171.7"/>
<text text-anchor="start" x="146" y="-179.4" font-family="Helvetica,sans-Serif" font-size="11.00" fill="#000000">float4[8,8]</text>
<polygon fill="none" stroke="#000000" points="10,-149.7 10,-171.7 143,-171.7 143,-149.7 10,-149.7"/>
<text text-anchor="start" x="30" y="-156.8" font-family="Helvetica,sans-Serif" font-size="11.00" fill="#000000">cc</text>
<polygon fill="none" stroke="#000000" points="143,-149.7 143,-171.7 262,-171.7 262,-149.7 143,-149.7"/>
<text text-anchor="start" x="146" y="-157.4" font-family="Helvetica,sans-Serif" font-size="11.00" fill="#000000">float4[8,8]</text>
<polygon fill="none" stroke="#000000" points="10,-127.7 10,-149.7 143,-149.7 143,-127.7 10,-127.7"/>
<text text-anchor="start" x="30" y="-134.8" font-family="Helvetica,sans-Serif" font-size="11.00" fill="#000000">geom</text>
<polygon fill="none" stroke="#000000" points="143,-127.7 143,-149.7 262,-149.7 262,-127.7 143,-127.7"/>
<text text-anchor="start" x="145.9485" y="-135.4" font-family="Helvetica,sans-Serif" font-size="11.00" fill="#000000">geometry[2147483647]</text>
<polygon fill="none" stroke="#000000" points="10,-105.7 10,-127.7 143,-127.7 143,-105.7 10,-105.7"/>
<text text-anchor="start" x="30" y="-112.8" font-family="Helvetica,sans-Serif" font-size="11.00" fill="#000000">configuration</text>
<polygon fill="none" stroke="#000000" points="143,-105.7 143,-127.7 262,-127.7 262,-105.7 143,-105.7"/>
<text text-anchor="start" x="146" y="-113.4" font-family="Helvetica,sans-Serif" font-size="11.00" fill="#000000">varchar[2147483647]</text>
<polygon fill="none" stroke="#000000" points="10,-83.7 10,-105.7 143,-105.7 143,-83.7 10,-83.7"/>
<text text-anchor="start" x="30" y="-90.8" font-family="Helvetica,sans-Serif" font-size="11.00" fill="#000000">validity</text>
<polygon fill="none" stroke="#000000" points="143,-83.7 143,-105.7 262,-105.7 262,-83.7 143,-83.7"/>
<text text-anchor="start" x="146" y="-91.4" font-family="Helvetica,sans-Serif" font-size="11.00" fill="#000000">bool[1]</text>
<polygon fill="none" stroke="#000000" points="10,-61.7 10,-83.7 143,-83.7 143,-61.7 10,-61.7"/>
<text text-anchor="start" x="30" y="-68.8" font-family="Helvetica,sans-Serif" font-size="11.00" fill="#000000">configuration_json</text>
<polygon fill="none" stroke="#000000" points="143,-61.7 143,-83.7 262,-83.7 262,-61.7 143,-61.7"/>
<text text-anchor="start" x="146" y="-69.4" font-family="Helvetica,sans-Serif" font-size="11.00" fill="#000000">json[2147483647]</text>
<polygon fill="none" stroke="#000000" points="10,-39.7 10,-61.7 143,-61.7 143,-39.7 10,-39.7"/>
<text text-anchor="start" x="30" y="-46.8" font-family="Helvetica,sans-Serif" font-size="11.00" fill="#000000">comment</text>
<polygon fill="none" stroke="#000000" points="143,-39.7 143,-61.7 262,-61.7 262,-39.7 143,-39.7"/>
<text text-anchor="start" x="146" y="-47.4" font-family="Helvetica,sans-Serif" font-size="11.00" fill="#000000">varchar[2147483647]</text>
<polygon fill="none" stroke="#000000" stroke-width="2" points="9,-39.2 9,-306.2 263,-306.2 263,-39.2 9,-39.2"/>
</a>
</g>
</g>
</g>
</svg>
