<?xml version="1.0" encoding="UTF-8" standalone="no"?>
<!DOCTYPE svg PUBLIC "-//W3C//DTD SVG 1.1//EN"
 "http://www.w3.org/Graphics/SVG/1.1/DTD/svg11.dtd">
<!-- Generated by graphviz version 2.40.1 (20161225.0304)
 -->
<!-- Title: oneDegreeRelationshipsDiagram Pages: 1 -->
<svg width="276pt" height="275pt"
 viewBox="0.00 0.00 276.00 275.20" xmlns="http://www.w3.org/2000/svg" xmlns:xlink="http://www.w3.org/1999/xlink">
<g id="graph0" class="graph" transform="scale(1 1) rotate(0) translate(4 271.2)">
<title>oneDegreeRelationshipsDiagram</title>
<polygon fill="#ffffff" stroke="transparent" points="-4,4 -4,-271.2 272,-271.2 272,4 -4,4"/>
<text text-anchor="middle" x="72.4936" y="-7.3" font-family="Helvetica,sans-Serif" font-size="11.00" fill="#000000">Generated by SchemaSpy</text>
<!-- zq_bc_singularity -->
<g id="node1" class="node">
<title>zq_bc_singularity</title>
<g id="a_node1"><a xlink:href="../../tables/zq_bc_singularity.html" xlink:title="zq_bc_singularity" target="_top">
<polygon fill="#ffffff" stroke="transparent" points="8,-38.2 8,-263.2 260,-263.2 260,-38.2 8,-38.2"/>
<polygon fill="#f5f5f5" stroke="transparent" points="10,-237.7 10,-260.7 258,-260.7 258,-237.7 10,-237.7"/>
<polygon fill="none" stroke="#000000" points="10,-237.7 10,-260.7 258,-260.7 258,-237.7 10,-237.7"/>
<text text-anchor="start" x="15" y="-246.3" font-family="Helvetica,sans-Serif" font-weight="bold" font-size="11.00" fill="#000000">zq_bc_singularity</text>
<text text-anchor="start" x="224.8895" y="-245.8" font-family="Helvetica,sans-Serif" font-size="11.00" fill="#000000">[view]</text>
<polygon fill="none" stroke="#000000" points="10,-215.7 10,-237.7 139,-237.7 139,-215.7 10,-215.7"/>
<text text-anchor="start" x="30" y="-222.8" font-family="Helvetica,sans-Serif" font-size="11.00" fill="#000000">id</text>
<polygon fill="none" stroke="#000000" points="139,-215.7 139,-237.7 258,-237.7 258,-215.7 139,-215.7"/>
<text text-anchor="start" x="142" y="-223.4" font-family="Helvetica,sans-Serif" font-size="11.00" fill="#000000">int4[10]</text>
<polygon fill="none" stroke="#000000" points="10,-193.7 10,-215.7 139,-215.7 139,-193.7 10,-193.7"/>
<text text-anchor="start" x="30" y="-200.8" font-family="Helvetica,sans-Serif" font-size="11.00" fill="#000000">name</text>
<polygon fill="none" stroke="#000000" points="139,-193.7 139,-215.7 258,-215.7 258,-193.7 139,-193.7"/>
<text text-anchor="start" x="142" y="-201.4" font-family="Helvetica,sans-Serif" font-size="11.00" fill="#000000">varchar[24]</text>
<polygon fill="none" stroke="#000000" points="10,-171.7 10,-193.7 139,-193.7 139,-171.7 10,-171.7"/>
<text text-anchor="start" x="30" y="-178.8" font-family="Helvetica,sans-Serif" font-size="11.00" fill="#000000">node</text>
<polygon fill="none" stroke="#000000" points="139,-171.7 139,-193.7 258,-193.7 258,-171.7 139,-171.7"/>
<text text-anchor="start" x="142" y="-179.4" font-family="Helvetica,sans-Serif" font-size="11.00" fill="#000000">int4[10]</text>
<polygon fill="none" stroke="#000000" points="10,-149.7 10,-171.7 139,-171.7 139,-149.7 10,-149.7"/>
<text text-anchor="start" x="30" y="-156.8" font-family="Helvetica,sans-Serif" font-size="11.00" fill="#000000">zq_array</text>
<polygon fill="none" stroke="#000000" points="139,-149.7 139,-171.7 258,-171.7 258,-149.7 139,-149.7"/>
<text text-anchor="start" x="142" y="-157.4" font-family="Helvetica,sans-Serif" font-size="11.00" fill="#000000">_float4[8,8]</text>
<polygon fill="none" stroke="#000000" points="10,-127.7 10,-149.7 139,-149.7 139,-127.7 10,-127.7"/>
<text text-anchor="start" x="30" y="-134.8" font-family="Helvetica,sans-Serif" font-size="11.00" fill="#000000">geom</text>
<polygon fill="none" stroke="#000000" points="139,-127.7 139,-149.7 258,-149.7 258,-127.7 139,-127.7"/>
<text text-anchor="start" x="141.9485" y="-135.4" font-family="Helvetica,sans-Serif" font-size="11.00" fill="#000000">geometry[2147483647]</text>
<polygon fill="none" stroke="#000000" points="10,-105.7 10,-127.7 139,-127.7 139,-105.7 10,-105.7"/>
<text text-anchor="start" x="30" y="-112.8" font-family="Helvetica,sans-Serif" font-size="11.00" fill="#000000">configuration</text>
<polygon fill="none" stroke="#000000" points="139,-105.7 139,-127.7 258,-127.7 258,-105.7 139,-105.7"/>
<text text-anchor="start" x="142" y="-113.4" font-family="Helvetica,sans-Serif" font-size="11.00" fill="#000000">varchar[2147483647]</text>
<polygon fill="none" stroke="#000000" points="10,-83.7 10,-105.7 139,-105.7 139,-83.7 10,-83.7"/>
<text text-anchor="start" x="30" y="-90.8" font-family="Helvetica,sans-Serif" font-size="11.00" fill="#000000">validity</text>
<polygon fill="none" stroke="#000000" points="139,-83.7 139,-105.7 258,-105.7 258,-83.7 139,-83.7"/>
<text text-anchor="start" x="142" y="-91.4" font-family="Helvetica,sans-Serif" font-size="11.00" fill="#000000">bool[1]</text>
<polygon fill="none" stroke="#000000" points="10,-61.7 10,-83.7 139,-83.7 139,-61.7 10,-61.7"/>
<text text-anchor="start" x="30" y="-68.8" font-family="Helvetica,sans-Serif" font-size="11.00" fill="#000000">configuration_json</text>
<polygon fill="none" stroke="#000000" points="139,-61.7 139,-83.7 258,-83.7 258,-61.7 139,-61.7"/>
<text text-anchor="start" x="142" y="-69.4" font-family="Helvetica,sans-Serif" font-size="11.00" fill="#000000">json[2147483647]</text>
<polygon fill="none" stroke="#000000" points="10,-39.7 10,-61.7 139,-61.7 139,-39.7 10,-39.7"/>
<text text-anchor="start" x="30" y="-46.8" font-family="Helvetica,sans-Serif" font-size="11.00" fill="#000000">comment</text>
<polygon fill="none" stroke="#000000" points="139,-39.7 139,-61.7 258,-61.7 258,-39.7 139,-39.7"/>
<text text-anchor="start" x="142" y="-47.4" font-family="Helvetica,sans-Serif" font-size="11.00" fill="#000000">varchar[2147483647]</text>
<polygon fill="none" stroke="#000000" stroke-width="2" points="9,-39.2 9,-262.2 259,-262.2 259,-39.2 9,-39.2"/>
</a>
</g>
</g>
</g>
</svg>
