<?xml version="1.0" encoding="UTF-8" standalone="no"?>
<!DOCTYPE svg PUBLIC "-//W3C//DTD SVG 1.1//EN"
 "http://www.w3.org/Graphics/SVG/1.1/DTD/svg11.dtd">
<!-- Generated by graphviz version 2.40.1 (20161225.0304)
 -->
<!-- Title: oneDegreeRelationshipsDiagram Pages: 1 -->
<svg width="400pt" height="583pt"
 viewBox="0.00 0.00 400.00 583.20" xmlns="http://www.w3.org/2000/svg" xmlns:xlink="http://www.w3.org/1999/xlink">
<g id="graph0" class="graph" transform="scale(1 1) rotate(0) translate(4 579.2)">
<title>oneDegreeRelationshipsDiagram</title>
<polygon fill="#ffffff" stroke="transparent" points="-4,4 -4,-579.2 396,-579.2 396,4 -4,4"/>
<text text-anchor="middle" x="72.4936" y="-7.3" font-family="Helvetica,sans-Serif" font-size="11.00" fill="#000000">Generated by SchemaSpy</text>
<!-- zq_split_hydrology_singularity -->
<g id="node1" class="node">
<title>zq_split_hydrology_singularity</title>
<g id="a_node1"><a xlink:href="../../tables/zq_split_hydrology_singularity.html" xlink:title="zq_split_hydrology_singularity" target="_top">
<polygon fill="#ffffff" stroke="transparent" points="8,-38.2 8,-571.2 384,-571.2 384,-38.2 8,-38.2"/>
<polygon fill="#f5f5f5" stroke="transparent" points="10,-545.7 10,-568.7 382,-568.7 382,-545.7 10,-545.7"/>
<polygon fill="none" stroke="#000000" points="10,-545.7 10,-568.7 382,-568.7 382,-545.7 10,-545.7"/>
<text text-anchor="start" x="15" y="-554.3" font-family="Helvetica,sans-Serif" font-weight="bold" font-size="11.00" fill="#000000">zq_split_hydrology_singularity</text>
<text text-anchor="start" x="348.8895" y="-553.8" font-family="Helvetica,sans-Serif" font-size="11.00" fill="#000000">[view]</text>
<polygon fill="none" stroke="#000000" points="10,-523.7 10,-545.7 207,-545.7 207,-523.7 10,-523.7"/>
<text text-anchor="start" x="30" y="-530.8" font-family="Helvetica,sans-Serif" font-size="11.00" fill="#000000">id</text>
<polygon fill="none" stroke="#000000" points="207,-523.7 207,-545.7 382,-545.7 382,-523.7 207,-523.7"/>
<text text-anchor="start" x="210" y="-531.4" font-family="Helvetica,sans-Serif" font-size="11.00" fill="#000000">int4[10]</text>
<polygon fill="none" stroke="#000000" points="10,-501.7 10,-523.7 207,-523.7 207,-501.7 10,-501.7"/>
<text text-anchor="start" x="30" y="-508.8" font-family="Helvetica,sans-Serif" font-size="11.00" fill="#000000">name</text>
<polygon fill="none" stroke="#000000" points="207,-501.7 207,-523.7 382,-523.7 382,-501.7 207,-501.7"/>
<text text-anchor="start" x="210" y="-509.4" font-family="Helvetica,sans-Serif" font-size="11.00" fill="#000000">varchar[24]</text>
<polygon fill="none" stroke="#000000" points="10,-479.7 10,-501.7 207,-501.7 207,-479.7 10,-479.7"/>
<text text-anchor="start" x="30" y="-486.8" font-family="Helvetica,sans-Serif" font-size="11.00" fill="#000000">node</text>
<polygon fill="none" stroke="#000000" points="207,-479.7 207,-501.7 382,-501.7 382,-479.7 207,-479.7"/>
<text text-anchor="start" x="210" y="-487.4" font-family="Helvetica,sans-Serif" font-size="11.00" fill="#000000">int4[10]</text>
<polygon fill="none" stroke="#000000" points="10,-457.7 10,-479.7 207,-479.7 207,-457.7 10,-457.7"/>
<text text-anchor="start" x="30" y="-464.8" font-family="Helvetica,sans-Serif" font-size="11.00" fill="#000000">downstream</text>
<polygon fill="none" stroke="#000000" points="207,-457.7 207,-479.7 382,-479.7 382,-457.7 207,-457.7"/>
<text text-anchor="start" x="210" y="-465.4" font-family="Helvetica,sans-Serif" font-size="11.00" fill="#000000">int4[10]</text>
<polygon fill="none" stroke="#000000" points="10,-435.7 10,-457.7 207,-457.7 207,-435.7 10,-435.7"/>
<text text-anchor="start" x="30" y="-442.8" font-family="Helvetica,sans-Serif" font-size="11.00" fill="#000000">downstream_type</text>
<polygon fill="none" stroke="#000000" points="207,-435.7 207,-457.7 382,-457.7 382,-435.7 207,-435.7"/>
<text text-anchor="start" x="210" y="-443.4" font-family="Helvetica,sans-Serif" font-size="11.00" fill="#000000">hydra_link_type[2147483647]</text>
<polygon fill="none" stroke="#000000" points="10,-413.7 10,-435.7 207,-435.7 207,-413.7 10,-413.7"/>
<text text-anchor="start" x="30" y="-420.8" font-family="Helvetica,sans-Serif" font-size="11.00" fill="#000000">split1</text>
<polygon fill="none" stroke="#000000" points="207,-413.7 207,-435.7 382,-435.7 382,-413.7 207,-413.7"/>
<text text-anchor="start" x="210" y="-421.4" font-family="Helvetica,sans-Serif" font-size="11.00" fill="#000000">int4[10]</text>
<polygon fill="none" stroke="#000000" points="10,-391.7 10,-413.7 207,-413.7 207,-391.7 10,-391.7"/>
<text text-anchor="start" x="30" y="-398.8" font-family="Helvetica,sans-Serif" font-size="11.00" fill="#000000">split1_type</text>
<polygon fill="none" stroke="#000000" points="207,-391.7 207,-413.7 382,-413.7 382,-391.7 207,-391.7"/>
<text text-anchor="start" x="210" y="-399.4" font-family="Helvetica,sans-Serif" font-size="11.00" fill="#000000">hydra_link_type[2147483647]</text>
<polygon fill="none" stroke="#000000" points="10,-369.7 10,-391.7 207,-391.7 207,-369.7 10,-369.7"/>
<text text-anchor="start" x="30" y="-376.8" font-family="Helvetica,sans-Serif" font-size="11.00" fill="#000000">split2</text>
<polygon fill="none" stroke="#000000" points="207,-369.7 207,-391.7 382,-391.7 382,-369.7 207,-369.7"/>
<text text-anchor="start" x="210" y="-377.4" font-family="Helvetica,sans-Serif" font-size="11.00" fill="#000000">int4[10]</text>
<polygon fill="none" stroke="#000000" points="10,-347.7 10,-369.7 207,-369.7 207,-347.7 10,-347.7"/>
<text text-anchor="start" x="30" y="-354.8" font-family="Helvetica,sans-Serif" font-size="11.00" fill="#000000">split2_type</text>
<polygon fill="none" stroke="#000000" points="207,-347.7 207,-369.7 382,-369.7 382,-347.7 207,-347.7"/>
<text text-anchor="start" x="210" y="-355.4" font-family="Helvetica,sans-Serif" font-size="11.00" fill="#000000">hydra_link_type[2147483647]</text>
<polygon fill="none" stroke="#000000" points="10,-325.7 10,-347.7 207,-347.7 207,-325.7 10,-325.7"/>
<text text-anchor="start" x="30" y="-332.8" font-family="Helvetica,sans-Serif" font-size="11.00" fill="#000000">downstream_law</text>
<polygon fill="none" stroke="#000000" points="207,-325.7 207,-347.7 382,-347.7 382,-325.7 207,-325.7"/>
<text text-anchor="start" x="209.5245" y="-333.4" font-family="Helvetica,sans-Serif" font-size="11.00" fill="#000000">hydra_split_law_type[2147483647]</text>
<polygon fill="none" stroke="#000000" points="10,-303.7 10,-325.7 207,-325.7 207,-303.7 10,-303.7"/>
<text text-anchor="start" x="30" y="-310.8" font-family="Helvetica,sans-Serif" font-size="11.00" fill="#000000">downstream_param</text>
<polygon fill="none" stroke="#000000" points="207,-303.7 207,-325.7 382,-325.7 382,-303.7 207,-303.7"/>
<text text-anchor="start" x="210" y="-311.4" font-family="Helvetica,sans-Serif" font-size="11.00" fill="#000000">varchar[2147483647]</text>
<polygon fill="none" stroke="#000000" points="10,-281.7 10,-303.7 207,-303.7 207,-281.7 10,-281.7"/>
<text text-anchor="start" x="30" y="-288.8" font-family="Helvetica,sans-Serif" font-size="11.00" fill="#000000">split1_law</text>
<polygon fill="none" stroke="#000000" points="207,-281.7 207,-303.7 382,-303.7 382,-281.7 207,-281.7"/>
<text text-anchor="start" x="209.5245" y="-289.4" font-family="Helvetica,sans-Serif" font-size="11.00" fill="#000000">hydra_split_law_type[2147483647]</text>
<polygon fill="none" stroke="#000000" points="10,-259.7 10,-281.7 207,-281.7 207,-259.7 10,-259.7"/>
<text text-anchor="start" x="30" y="-266.8" font-family="Helvetica,sans-Serif" font-size="11.00" fill="#000000">split1_param</text>
<polygon fill="none" stroke="#000000" points="207,-259.7 207,-281.7 382,-281.7 382,-259.7 207,-259.7"/>
<text text-anchor="start" x="210" y="-267.4" font-family="Helvetica,sans-Serif" font-size="11.00" fill="#000000">varchar[2147483647]</text>
<polygon fill="none" stroke="#000000" points="10,-237.7 10,-259.7 207,-259.7 207,-237.7 10,-237.7"/>
<text text-anchor="start" x="30" y="-244.8" font-family="Helvetica,sans-Serif" font-size="11.00" fill="#000000">split2_law</text>
<polygon fill="none" stroke="#000000" points="207,-237.7 207,-259.7 382,-259.7 382,-237.7 207,-237.7"/>
<text text-anchor="start" x="209.5245" y="-245.4" font-family="Helvetica,sans-Serif" font-size="11.00" fill="#000000">hydra_split_law_type[2147483647]</text>
<polygon fill="none" stroke="#000000" points="10,-215.7 10,-237.7 207,-237.7 207,-215.7 10,-215.7"/>
<text text-anchor="start" x="30" y="-222.8" font-family="Helvetica,sans-Serif" font-size="11.00" fill="#000000">split2_param</text>
<polygon fill="none" stroke="#000000" points="207,-215.7 207,-237.7 382,-237.7 382,-215.7 207,-215.7"/>
<text text-anchor="start" x="210" y="-223.4" font-family="Helvetica,sans-Serif" font-size="11.00" fill="#000000">varchar[2147483647]</text>
<polygon fill="none" stroke="#000000" points="10,-193.7 10,-215.7 207,-215.7 207,-193.7 10,-193.7"/>
<text text-anchor="start" x="30" y="-200.8" font-family="Helvetica,sans-Serif" font-size="11.00" fill="#000000">downstream_param_json</text>
<polygon fill="none" stroke="#000000" points="207,-193.7 207,-215.7 382,-215.7 382,-193.7 207,-193.7"/>
<text text-anchor="start" x="210" y="-201.4" font-family="Helvetica,sans-Serif" font-size="11.00" fill="#000000">json[2147483647]</text>
<polygon fill="none" stroke="#000000" points="10,-171.7 10,-193.7 207,-193.7 207,-171.7 10,-171.7"/>
<text text-anchor="start" x="30" y="-178.8" font-family="Helvetica,sans-Serif" font-size="11.00" fill="#000000">split1_param_json</text>
<polygon fill="none" stroke="#000000" points="207,-171.7 207,-193.7 382,-193.7 382,-171.7 207,-171.7"/>
<text text-anchor="start" x="210" y="-179.4" font-family="Helvetica,sans-Serif" font-size="11.00" fill="#000000">json[2147483647]</text>
<polygon fill="none" stroke="#000000" points="10,-149.7 10,-171.7 207,-171.7 207,-149.7 10,-149.7"/>
<text text-anchor="start" x="30" y="-156.8" font-family="Helvetica,sans-Serif" font-size="11.00" fill="#000000">split2_param_json</text>
<polygon fill="none" stroke="#000000" points="207,-149.7 207,-171.7 382,-171.7 382,-149.7 207,-149.7"/>
<text text-anchor="start" x="210" y="-157.4" font-family="Helvetica,sans-Serif" font-size="11.00" fill="#000000">json[2147483647]</text>
<polygon fill="none" stroke="#000000" points="10,-127.7 10,-149.7 207,-149.7 207,-127.7 10,-127.7"/>
<text text-anchor="start" x="30" y="-134.8" font-family="Helvetica,sans-Serif" font-size="11.00" fill="#000000">geom</text>
<polygon fill="none" stroke="#000000" points="207,-127.7 207,-149.7 382,-149.7 382,-127.7 207,-127.7"/>
<text text-anchor="start" x="210" y="-135.4" font-family="Helvetica,sans-Serif" font-size="11.00" fill="#000000">geometry[2147483647]</text>
<polygon fill="none" stroke="#000000" points="10,-105.7 10,-127.7 207,-127.7 207,-105.7 10,-105.7"/>
<text text-anchor="start" x="30" y="-112.8" font-family="Helvetica,sans-Serif" font-size="11.00" fill="#000000">configuration</text>
<polygon fill="none" stroke="#000000" points="207,-105.7 207,-127.7 382,-127.7 382,-105.7 207,-105.7"/>
<text text-anchor="start" x="210" y="-113.4" font-family="Helvetica,sans-Serif" font-size="11.00" fill="#000000">varchar[2147483647]</text>
<polygon fill="none" stroke="#000000" points="10,-83.7 10,-105.7 207,-105.7 207,-83.7 10,-83.7"/>
<text text-anchor="start" x="30" y="-90.8" font-family="Helvetica,sans-Serif" font-size="11.00" fill="#000000">validity</text>
<polygon fill="none" stroke="#000000" points="207,-83.7 207,-105.7 382,-105.7 382,-83.7 207,-83.7"/>
<text text-anchor="start" x="210" y="-91.4" font-family="Helvetica,sans-Serif" font-size="11.00" fill="#000000">bool[1]</text>
<polygon fill="none" stroke="#000000" points="10,-61.7 10,-83.7 207,-83.7 207,-61.7 10,-61.7"/>
<text text-anchor="start" x="30" y="-68.8" font-family="Helvetica,sans-Serif" font-size="11.00" fill="#000000">configuration_json</text>
<polygon fill="none" stroke="#000000" points="207,-61.7 207,-83.7 382,-83.7 382,-61.7 207,-61.7"/>
<text text-anchor="start" x="210" y="-69.4" font-family="Helvetica,sans-Serif" font-size="11.00" fill="#000000">json[2147483647]</text>
<polygon fill="none" stroke="#000000" points="10,-39.7 10,-61.7 207,-61.7 207,-39.7 10,-39.7"/>
<text text-anchor="start" x="30" y="-46.8" font-family="Helvetica,sans-Serif" font-size="11.00" fill="#000000">comment</text>
<polygon fill="none" stroke="#000000" points="207,-39.7 207,-61.7 382,-61.7 382,-39.7 207,-39.7"/>
<text text-anchor="start" x="210" y="-47.4" font-family="Helvetica,sans-Serif" font-size="11.00" fill="#000000">varchar[2147483647]</text>
<polygon fill="none" stroke="#000000" stroke-width="2" points="9,-39.2 9,-570.2 383,-570.2 383,-39.2 9,-39.2"/>
</a>
</g>
</g>
</g>
</svg>
