<?xml version="1.0" encoding="UTF-8" standalone="no"?>
<!DOCTYPE svg PUBLIC "-//W3C//DTD SVG 1.1//EN"
 "http://www.w3.org/Graphics/SVG/1.1/DTD/svg11.dtd">
<!-- Generated by graphviz version 2.40.1 (20161225.0304)
 -->
<!-- Title: oneDegreeRelationshipsDiagramImplied Pages: 1 -->
<svg width="350pt" height="294pt"
 viewBox="0.00 0.00 350.00 294.20" xmlns="http://www.w3.org/2000/svg" xmlns:xlink="http://www.w3.org/1999/xlink">
<g id="graph0" class="graph" transform="scale(1 1) rotate(0) translate(4 290.2)">
<title>oneDegreeRelationshipsDiagramImplied</title>
<polygon fill="#ffffff" stroke="transparent" points="-4,4 -4,-290.2 346,-290.2 346,4 -4,4"/>
<text text-anchor="middle" x="72.4936" y="-7.3" font-family="Helvetica,sans-Serif" font-size="11.00" fill="#000000">Generated by SchemaSpy</text>
<!-- basins -->
<g id="node1" class="node">
<title>basins</title>
<g id="a_node1"><a xlink:href="../../tables/basins.html" xlink:title="basins" target="_top">
<polygon fill="#ffffff" stroke="transparent" points="134,-38.2 134,-282.2 334,-282.2 334,-38.2 134,-38.2"/>
<polygon fill="#f5f5f5" stroke="transparent" points="136,-257.2 136,-280.2 332,-280.2 332,-257.2 136,-257.2"/>
<polygon fill="none" stroke="#000000" points="136,-257.2 136,-280.2 332,-280.2 332,-257.2 136,-257.2"/>
<text text-anchor="start" x="141" y="-265.8" font-family="Helvetica,sans-Serif" font-weight="bold" font-size="11.00" fill="#000000">basins</text>
<text text-anchor="start" x="297.0437" y="-265.3" font-family="Helvetica,sans-Serif" font-size="11.00" fill="#000000">[table]</text>
<polygon fill="#ffffff" stroke="transparent" points="136,-235.2 136,-257.2 213,-257.2 213,-235.2 136,-235.2"/>
<polygon fill="none" stroke="#000000" points="136,-235.2 136,-257.2 213,-257.2 213,-235.2 136,-235.2"/>
<text text-anchor="start" x="156" y="-242.3" font-family="Helvetica,sans-Serif" font-size="11.00" fill="#000000">geom</text>
<polygon fill="none" stroke="#000000" points="213,-235.2 213,-257.2 332,-257.2 332,-235.2 213,-235.2"/>
<text text-anchor="start" x="215.9485" y="-242.9" font-family="Helvetica,sans-Serif" font-size="11.00" fill="#000000">geometry[2147483647]</text>
<polygon fill="none" stroke="#000000" points="136,-213.2 136,-235.2 213,-235.2 213,-213.2 136,-213.2"/>
<image xlink:href="../../images/primaryKeys.png" width="11px" height="12px" preserveAspectRatio="xMinYMin meet" x="141" y="-230.2"/>
<text text-anchor="start" x="156" y="-220.3" font-family="Helvetica,sans-Serif" font-size="11.00" fill="#000000">gid</text>
<polygon fill="none" stroke="#000000" points="213,-213.2 213,-235.2 332,-235.2 332,-213.2 213,-213.2"/>
<text text-anchor="start" x="216" y="-220.9" font-family="Helvetica,sans-Serif" font-size="11.00" fill="#000000">serial[10]</text>
<polygon fill="#ffffff" stroke="transparent" points="136,-191.2 136,-213.2 213,-213.2 213,-191.2 136,-191.2"/>
<polygon fill="none" stroke="#000000" points="136,-191.2 136,-213.2 213,-213.2 213,-191.2 136,-191.2"/>
<image xlink:href="../../images/foreignKeys.png" width="11px" height="12px" preserveAspectRatio="xMinYMin meet" x="141" y="-208.2"/>
<text text-anchor="start" x="156" y="-198.3" font-family="Helvetica,sans-Serif" font-size="11.00" fill="#000000">name</text>
<polygon fill="none" stroke="#000000" points="213,-191.2 213,-213.2 332,-213.2 332,-191.2 213,-191.2"/>
<text text-anchor="start" x="216" y="-198.9" font-family="Helvetica,sans-Serif" font-size="11.00" fill="#000000">varchar[30]</text>
<polygon fill="#ffffff" stroke="transparent" points="136,-169.2 136,-191.2 213,-191.2 213,-169.2 136,-169.2"/>
<polygon fill="none" stroke="#000000" points="136,-169.2 136,-191.2 213,-191.2 213,-169.2 136,-169.2"/>
<text text-anchor="start" x="156" y="-176.3" font-family="Helvetica,sans-Serif" font-size="11.00" fill="#000000">basinnum</text>
<polygon fill="none" stroke="#000000" points="213,-169.2 213,-191.2 332,-191.2 332,-169.2 213,-169.2"/>
<text text-anchor="start" x="216" y="-176.9" font-family="Helvetica,sans-Serif" font-size="11.00" fill="#000000">serial[10]</text>
<polygon fill="none" stroke="#000000" points="136,-147.2 136,-169.2 213,-169.2 213,-147.2 136,-147.2"/>
<text text-anchor="start" x="156" y="-154.3" font-family="Helvetica,sans-Serif" font-size="11.00" fill="#000000">initlevel</text>
<polygon fill="none" stroke="#000000" points="213,-147.2 213,-169.2 332,-169.2 332,-147.2 213,-147.2"/>
<text text-anchor="start" x="216" y="-154.9" font-family="Helvetica,sans-Serif" font-size="11.00" fill="#000000">float8[17,17]</text>
<polygon fill="none" stroke="#000000" points="136,-125.2 136,-147.2 213,-147.2 213,-125.2 136,-125.2"/>
<text text-anchor="start" x="156" y="-132.3" font-family="Helvetica,sans-Serif" font-size="11.00" fill="#000000">level</text>
<polygon fill="none" stroke="#000000" points="213,-125.2 213,-147.2 332,-147.2 332,-125.2 213,-125.2"/>
<text text-anchor="start" x="216" y="-132.9" font-family="Helvetica,sans-Serif" font-size="11.00" fill="#000000">text[2147483647]</text>
<polygon fill="none" stroke="#000000" points="136,-103.2 136,-125.2 213,-125.2 213,-103.2 136,-103.2"/>
<text text-anchor="start" x="156" y="-110.3" font-family="Helvetica,sans-Serif" font-size="11.00" fill="#000000">area</text>
<polygon fill="none" stroke="#000000" points="213,-103.2 213,-125.2 332,-125.2 332,-103.2 213,-103.2"/>
<text text-anchor="start" x="216" y="-110.9" font-family="Helvetica,sans-Serif" font-size="11.00" fill="#000000">text[2147483647]</text>
<polygon fill="none" stroke="#000000" points="136,-81.2 136,-103.2 213,-103.2 213,-81.2 136,-81.2"/>
<text text-anchor="start" x="156" y="-88.3" font-family="Helvetica,sans-Serif" font-size="11.00" fill="#000000">volume</text>
<polygon fill="none" stroke="#000000" points="213,-81.2 213,-103.2 332,-103.2 332,-81.2 213,-81.2"/>
<text text-anchor="start" x="216" y="-88.9" font-family="Helvetica,sans-Serif" font-size="11.00" fill="#000000">text[2147483647]</text>
<polygon fill="none" stroke="#000000" points="136,-59.2 136,-81.2 213,-81.2 213,-59.2 136,-59.2"/>
<text text-anchor="start" x="156" y="-66.3" font-family="Helvetica,sans-Serif" font-size="11.00" fill="#000000">active</text>
<polygon fill="none" stroke="#000000" points="213,-59.2 213,-81.2 332,-81.2 332,-59.2 213,-59.2"/>
<text text-anchor="start" x="216" y="-66.9" font-family="Helvetica,sans-Serif" font-size="11.00" fill="#000000">bool[1]</text>
<polygon fill="#ffffff" stroke="transparent" points="136,-40.2 136,-59.2 179,-59.2 179,-40.2 136,-40.2"/>
<polygon fill="none" stroke="#000000" points="136,-40.2 136,-59.2 179,-59.2 179,-40.2 136,-40.2"/>
<text text-anchor="start" x="139" y="-46.3" font-family="Helvetica,sans-Serif" font-size="11.00" fill="#000000">&lt; 1</text>
<polygon fill="#ffffff" stroke="transparent" points="179,-40.2 179,-59.2 213,-59.2 213,-40.2 179,-40.2"/>
<polygon fill="none" stroke="#000000" points="179,-40.2 179,-59.2 213,-59.2 213,-40.2 179,-40.2"/>
<text text-anchor="start" x="203.8862" y="-46.3" font-family="Helvetica,sans-Serif" font-size="11.00" fill="#000000"> &#160;</text>
<polygon fill="#ffffff" stroke="transparent" points="213,-40.2 213,-59.2 332,-59.2 332,-40.2 213,-40.2"/>
<polygon fill="none" stroke="#000000" points="213,-40.2 213,-59.2 332,-59.2 332,-40.2 213,-40.2"/>
<text text-anchor="start" x="313.4053" y="-46.3" font-family="Helvetica,sans-Serif" font-size="11.00" fill="#000000">0 &gt;</text>
<polygon fill="none" stroke="#000000" stroke-width="2" points="135,-39.2 135,-281.2 333,-281.2 333,-39.2 135,-39.2"/>
</a>
</g>
</g>
<!-- events -->
<g id="node2" class="node">
<title>events</title>
<g id="a_node2"><a xlink:href="../../tables/events.html" xlink:title="events" target="_top">
<polygon fill="#ffffff" stroke="transparent" points="8,-153.7 8,-236.7 85,-236.7 85,-153.7 8,-153.7"/>
<polygon fill="#f5f5f5" stroke="transparent" points="8.5,-213.2 8.5,-236.2 85.5,-236.2 85.5,-213.2 8.5,-213.2"/>
<polygon fill="none" stroke="#000000" points="8.5,-213.2 8.5,-236.2 85.5,-236.2 85.5,-213.2 8.5,-213.2"/>
<text text-anchor="start" x="13.5" y="-221.8" font-family="Helvetica,sans-Serif" font-weight="bold" font-size="11.00" fill="#000000">events</text>
<text text-anchor="start" x="51.0219" y="-221.3" font-family="Helvetica,sans-Serif" font-size="11.00" fill="#000000">[table]</text>
<polygon fill="none" stroke="#000000" points="8.5,-191.2 8.5,-213.2 85.5,-213.2 85.5,-191.2 8.5,-191.2"/>
<image xlink:href="../../images/primaryKeys.png" width="11px" height="12px" preserveAspectRatio="xMinYMin meet" x="13.5" y="-208.2"/>
<text text-anchor="start" x="31.5" y="-198.3" font-family="Helvetica,sans-Serif" font-size="11.00" fill="#000000">name</text>
<polygon fill="none" stroke="#000000" points="8.5,-172.2 8.5,-191.2 85.5,-191.2 85.5,-172.2 8.5,-172.2"/>
<text text-anchor="start" x="11.5" y="-178.3" font-family="Helvetica,sans-Serif" font-size="11.00" fill="#000000">...</text>
<polygon fill="#ffffff" stroke="transparent" points="8.5,-153.2 8.5,-172.2 33.5,-172.2 33.5,-153.2 8.5,-153.2"/>
<polygon fill="none" stroke="#000000" points="8.5,-153.2 8.5,-172.2 33.5,-172.2 33.5,-153.2 8.5,-153.2"/>
<text text-anchor="start" x="11.5" y="-159.3" font-family="Helvetica,sans-Serif" font-size="11.00" fill="#000000"> &#160;</text>
<polygon fill="#ffffff" stroke="transparent" points="33.5,-153.2 33.5,-172.2 51.5,-172.2 51.5,-153.2 33.5,-153.2"/>
<polygon fill="none" stroke="#000000" points="33.5,-153.2 33.5,-172.2 51.5,-172.2 51.5,-153.2 33.5,-153.2"/>
<text text-anchor="start" x="42.3862" y="-159.3" font-family="Helvetica,sans-Serif" font-size="11.00" fill="#000000"> &#160;</text>
<polygon fill="#ffffff" stroke="transparent" points="51.5,-153.2 51.5,-172.2 85.5,-172.2 85.5,-153.2 51.5,-153.2"/>
<polygon fill="none" stroke="#000000" points="51.5,-153.2 51.5,-172.2 85.5,-172.2 85.5,-153.2 51.5,-153.2"/>
<text text-anchor="start" x="60.7904" y="-159.3" font-family="Helvetica,sans-Serif" font-size="11.00" fill="#000000">16 &gt;</text>
</a>
</g>
</g>
<!-- basins&#45;&gt;events -->
<g id="edge1" class="edge">
<title>basins:w&#45;&gt;events:e</title>
<path fill="none" stroke="#000000" stroke-dasharray="5,2" d="M125.3362,-202.2C110.9956,-202.2 103.9115,-202.2 85.5,-202.2"/>
<polygon fill="#000000" stroke="#000000" points="135.2,-198.2 135.2,-206.2 133.6,-206.2 133.6,-198.2 135.2,-198.2"/>
<polyline fill="none" stroke="#000000" points="136,-202.2 132,-202.2 "/>
<ellipse fill="none" stroke="#000000" cx="128.8" cy="-202.2001" rx="3.2" ry="3.2"/>
</g>
</g>
</svg>
