<?xml version="1.0" encoding="UTF-8" standalone="no"?>
<!DOCTYPE svg PUBLIC "-//W3C//DTD SVG 1.1//EN"
 "http://www.w3.org/Graphics/SVG/1.1/DTD/svg11.dtd">
<!-- Generated by graphviz version 2.40.1 (20161225.0304)
 -->
<!-- Title: oneDegreeRelationshipsDiagramImplied Pages: 1 -->
<svg width="498pt" height="382pt"
 viewBox="0.00 0.00 498.00 382.20" xmlns="http://www.w3.org/2000/svg" xmlns:xlink="http://www.w3.org/1999/xlink">
<g id="graph0" class="graph" transform="scale(1 1) rotate(0) translate(4 378.2)">
<title>oneDegreeRelationshipsDiagramImplied</title>
<polygon fill="#ffffff" stroke="transparent" points="-4,4 -4,-378.2 494,-378.2 494,4 -4,4"/>
<text text-anchor="middle" x="72.4936" y="-7.3" font-family="Helvetica,sans-Serif" font-size="11.00" fill="#000000">Generated by SchemaSpy</text>
<!-- branchs -->
<g id="node1" class="node">
<title>branchs</title>
<g id="a_node1"><a xlink:href="../../tables/branchs.html" xlink:title="branchs" target="_top">
<polygon fill="#ffffff" stroke="transparent" points="264,-38.2 264,-370.2 482,-370.2 482,-38.2 264,-38.2"/>
<polygon fill="#f5f5f5" stroke="transparent" points="266,-345.2 266,-368.2 480,-368.2 480,-345.2 266,-345.2"/>
<polygon fill="none" stroke="#000000" points="266,-345.2 266,-368.2 480,-368.2 480,-345.2 266,-345.2"/>
<text text-anchor="start" x="271" y="-353.8" font-family="Helvetica,sans-Serif" font-weight="bold" font-size="11.00" fill="#000000">branchs</text>
<text text-anchor="start" x="445.0437" y="-353.3" font-family="Helvetica,sans-Serif" font-size="11.00" fill="#000000">[table]</text>
<polygon fill="#ffffff" stroke="transparent" points="266,-323.2 266,-345.2 361,-345.2 361,-323.2 266,-323.2"/>
<polygon fill="none" stroke="#000000" points="266,-323.2 266,-345.2 361,-345.2 361,-323.2 266,-323.2"/>
<text text-anchor="start" x="286" y="-330.3" font-family="Helvetica,sans-Serif" font-size="11.00" fill="#000000">geom</text>
<polygon fill="none" stroke="#000000" points="361,-323.2 361,-345.2 480,-345.2 480,-323.2 361,-323.2"/>
<text text-anchor="start" x="363.9485" y="-330.9" font-family="Helvetica,sans-Serif" font-size="11.00" fill="#000000">geometry[2147483647]</text>
<polygon fill="none" stroke="#000000" points="266,-301.2 266,-323.2 361,-323.2 361,-301.2 266,-301.2"/>
<image xlink:href="../../images/primaryKeys.png" width="11px" height="12px" preserveAspectRatio="xMinYMin meet" x="271" y="-318.2"/>
<text text-anchor="start" x="286" y="-308.3" font-family="Helvetica,sans-Serif" font-size="11.00" fill="#000000">gid</text>
<polygon fill="none" stroke="#000000" points="361,-301.2 361,-323.2 480,-323.2 480,-301.2 361,-301.2"/>
<text text-anchor="start" x="364" y="-308.9" font-family="Helvetica,sans-Serif" font-size="11.00" fill="#000000">serial[10]</text>
<polygon fill="none" stroke="#000000" points="266,-279.2 266,-301.2 361,-301.2 361,-279.2 266,-279.2"/>
<text text-anchor="start" x="286" y="-286.3" font-family="Helvetica,sans-Serif" font-size="11.00" fill="#000000">branch</text>
<polygon fill="none" stroke="#000000" points="361,-279.2 361,-301.2 480,-301.2 480,-279.2 361,-279.2"/>
<text text-anchor="start" x="364" y="-286.9" font-family="Helvetica,sans-Serif" font-size="11.00" fill="#000000">serial[10]</text>
<polygon fill="none" stroke="#000000" points="266,-257.2 266,-279.2 361,-279.2 361,-257.2 266,-257.2"/>
<image xlink:href="../../images/foreignKeys.png" width="11px" height="12px" preserveAspectRatio="xMinYMin meet" x="271" y="-274.2"/>
<text text-anchor="start" x="286" y="-264.3" font-family="Helvetica,sans-Serif" font-size="11.00" fill="#000000">startb</text>
<polygon fill="none" stroke="#000000" points="361,-257.2 361,-279.2 480,-279.2 480,-257.2 361,-257.2"/>
<text text-anchor="start" x="364" y="-264.9" font-family="Helvetica,sans-Serif" font-size="11.00" fill="#000000">varchar[30]</text>
<polygon fill="none" stroke="#000000" points="266,-235.2 266,-257.2 361,-257.2 361,-235.2 266,-235.2"/>
<text text-anchor="start" x="286" y="-242.3" font-family="Helvetica,sans-Serif" font-size="11.00" fill="#000000">endb</text>
<polygon fill="none" stroke="#000000" points="361,-235.2 361,-257.2 480,-257.2 480,-235.2 361,-235.2"/>
<text text-anchor="start" x="364" y="-242.9" font-family="Helvetica,sans-Serif" font-size="11.00" fill="#000000">varchar[30]</text>
<polygon fill="none" stroke="#000000" points="266,-213.2 266,-235.2 361,-235.2 361,-213.2 266,-213.2"/>
<text text-anchor="start" x="286" y="-220.3" font-family="Helvetica,sans-Serif" font-size="11.00" fill="#000000">zonenum</text>
<polygon fill="none" stroke="#000000" points="361,-213.2 361,-235.2 480,-235.2 480,-213.2 361,-213.2"/>
<text text-anchor="start" x="364" y="-220.9" font-family="Helvetica,sans-Serif" font-size="11.00" fill="#000000">serial[10]</text>
<polygon fill="none" stroke="#000000" points="266,-191.2 266,-213.2 361,-213.2 361,-191.2 266,-191.2"/>
<text text-anchor="start" x="286" y="-198.3" font-family="Helvetica,sans-Serif" font-size="11.00" fill="#000000">zoneabsstart</text>
<polygon fill="none" stroke="#000000" points="361,-191.2 361,-213.2 480,-213.2 480,-191.2 361,-191.2"/>
<text text-anchor="start" x="364" y="-198.9" font-family="Helvetica,sans-Serif" font-size="11.00" fill="#000000">float8[17,17]</text>
<polygon fill="none" stroke="#000000" points="266,-169.2 266,-191.2 361,-191.2 361,-169.2 266,-169.2"/>
<text text-anchor="start" x="286" y="-176.3" font-family="Helvetica,sans-Serif" font-size="11.00" fill="#000000">zoneabsend</text>
<polygon fill="none" stroke="#000000" points="361,-169.2 361,-191.2 480,-191.2 480,-169.2 361,-169.2"/>
<text text-anchor="start" x="364" y="-176.9" font-family="Helvetica,sans-Serif" font-size="11.00" fill="#000000">float8[17,17]</text>
<polygon fill="none" stroke="#000000" points="266,-147.2 266,-169.2 361,-169.2 361,-147.2 266,-147.2"/>
<text text-anchor="start" x="286" y="-154.3" font-family="Helvetica,sans-Serif" font-size="11.00" fill="#000000">minbedcoef</text>
<polygon fill="none" stroke="#000000" points="361,-147.2 361,-169.2 480,-169.2 480,-147.2 361,-147.2"/>
<text text-anchor="start" x="364" y="-154.9" font-family="Helvetica,sans-Serif" font-size="11.00" fill="#000000">float8[17,17]</text>
<polygon fill="none" stroke="#000000" points="266,-125.2 266,-147.2 361,-147.2 361,-125.2 266,-125.2"/>
<text text-anchor="start" x="286" y="-132.3" font-family="Helvetica,sans-Serif" font-size="11.00" fill="#000000">majbedcoef</text>
<polygon fill="none" stroke="#000000" points="361,-125.2 361,-147.2 480,-147.2 480,-125.2 361,-125.2"/>
<text text-anchor="start" x="364" y="-132.9" font-family="Helvetica,sans-Serif" font-size="11.00" fill="#000000">float8[17,17]</text>
<polygon fill="none" stroke="#000000" points="266,-103.2 266,-125.2 361,-125.2 361,-103.2 266,-103.2"/>
<text text-anchor="start" x="286" y="-110.3" font-family="Helvetica,sans-Serif" font-size="11.00" fill="#000000">mesh</text>
<polygon fill="none" stroke="#000000" points="361,-103.2 361,-125.2 480,-125.2 480,-103.2 361,-103.2"/>
<text text-anchor="start" x="364" y="-110.9" font-family="Helvetica,sans-Serif" font-size="11.00" fill="#000000">float8[17,17]</text>
<polygon fill="none" stroke="#000000" points="266,-81.2 266,-103.2 361,-103.2 361,-81.2 266,-81.2"/>
<text text-anchor="start" x="286" y="-88.3" font-family="Helvetica,sans-Serif" font-size="11.00" fill="#000000">planim</text>
<polygon fill="none" stroke="#000000" points="361,-81.2 361,-103.2 480,-103.2 480,-81.2 361,-81.2"/>
<text text-anchor="start" x="364" y="-88.9" font-family="Helvetica,sans-Serif" font-size="11.00" fill="#000000">float8[17,17]</text>
<polygon fill="none" stroke="#000000" points="266,-59.2 266,-81.2 361,-81.2 361,-59.2 266,-59.2"/>
<text text-anchor="start" x="286" y="-66.3" font-family="Helvetica,sans-Serif" font-size="11.00" fill="#000000">active</text>
<polygon fill="none" stroke="#000000" points="361,-59.2 361,-81.2 480,-81.2 480,-59.2 361,-59.2"/>
<text text-anchor="start" x="364" y="-66.9" font-family="Helvetica,sans-Serif" font-size="11.00" fill="#000000">bool[1]</text>
<polygon fill="#ffffff" stroke="transparent" points="266,-40.2 266,-59.2 318,-59.2 318,-40.2 266,-40.2"/>
<polygon fill="none" stroke="#000000" points="266,-40.2 266,-59.2 318,-59.2 318,-40.2 266,-40.2"/>
<text text-anchor="start" x="269" y="-46.3" font-family="Helvetica,sans-Serif" font-size="11.00" fill="#000000">&lt; 1</text>
<polygon fill="#ffffff" stroke="transparent" points="318,-40.2 318,-59.2 361,-59.2 361,-40.2 318,-40.2"/>
<polygon fill="none" stroke="#000000" points="318,-40.2 318,-59.2 361,-59.2 361,-40.2 318,-40.2"/>
<text text-anchor="start" x="351.8862" y="-46.3" font-family="Helvetica,sans-Serif" font-size="11.00" fill="#000000"> &#160;</text>
<polygon fill="#ffffff" stroke="transparent" points="361,-40.2 361,-59.2 480,-59.2 480,-40.2 361,-40.2"/>
<polygon fill="none" stroke="#000000" points="361,-40.2 361,-59.2 480,-59.2 480,-40.2 361,-40.2"/>
<text text-anchor="start" x="461.4053" y="-46.3" font-family="Helvetica,sans-Serif" font-size="11.00" fill="#000000">0 &gt;</text>
<polygon fill="none" stroke="#000000" stroke-width="2" points="265,-39.2 265,-369.2 481,-369.2 481,-39.2 265,-39.2"/>
</a>
</g>
</g>
<!-- extremities -->
<g id="node2" class="node">
<title>extremities</title>
<g id="a_node2"><a xlink:href="../../tables/extremities.html" xlink:title="extremities" target="_top">
<polygon fill="#ffffff" stroke="transparent" points="8,-219.7 8,-324.7 215,-324.7 215,-219.7 8,-219.7"/>
<polygon fill="#f5f5f5" stroke="transparent" points="8.5,-301.2 8.5,-324.2 215.5,-324.2 215.5,-301.2 8.5,-301.2"/>
<polygon fill="none" stroke="#000000" points="8.5,-301.2 8.5,-324.2 215.5,-324.2 215.5,-301.2 8.5,-301.2"/>
<text text-anchor="start" x="13.5" y="-309.8" font-family="Helvetica,sans-Serif" font-weight="bold" font-size="11.00" fill="#000000">extremities</text>
<text text-anchor="start" x="180.5437" y="-309.3" font-family="Helvetica,sans-Serif" font-size="11.00" fill="#000000">[table]</text>
<polygon fill="none" stroke="#000000" points="8.5,-279.2 8.5,-301.2 215.5,-301.2 215.5,-279.2 8.5,-279.2"/>
<image xlink:href="../../images/primaryKeys.png" width="11px" height="12px" preserveAspectRatio="xMinYMin meet" x="13.5" y="-296.2"/>
<text text-anchor="start" x="28.5" y="-286.3" font-family="Helvetica,sans-Serif" font-size="11.00" fill="#000000">gid</text>
<polygon fill="#ffffff" stroke="transparent" points="8.5,-257.2 8.5,-279.2 215.5,-279.2 215.5,-257.2 8.5,-257.2"/>
<polygon fill="none" stroke="#000000" points="8.5,-257.2 8.5,-279.2 215.5,-279.2 215.5,-257.2 8.5,-257.2"/>
<image xlink:href="../../images/foreignKeys.png" width="11px" height="12px" preserveAspectRatio="xMinYMin meet" x="13.5" y="-274.2"/>
<text text-anchor="start" x="28.5" y="-264.3" font-family="Helvetica,sans-Serif" font-size="11.00" fill="#000000">name</text>
<polygon fill="none" stroke="#000000" points="8.5,-238.2 8.5,-257.2 215.5,-257.2 215.5,-238.2 8.5,-238.2"/>
<text text-anchor="start" x="11.5" y="-244.3" font-family="Helvetica,sans-Serif" font-size="11.00" fill="#000000">...</text>
<polygon fill="#ffffff" stroke="transparent" points="8.5,-219.2 8.5,-238.2 101.5,-238.2 101.5,-219.2 8.5,-219.2"/>
<polygon fill="none" stroke="#000000" points="8.5,-219.2 8.5,-238.2 101.5,-238.2 101.5,-219.2 8.5,-219.2"/>
<text text-anchor="start" x="11.5" y="-225.3" font-family="Helvetica,sans-Serif" font-size="11.00" fill="#000000"> &#160;</text>
<polygon fill="#ffffff" stroke="transparent" points="101.5,-219.2 101.5,-238.2 153.5,-238.2 153.5,-219.2 101.5,-219.2"/>
<polygon fill="none" stroke="#000000" points="101.5,-219.2 101.5,-238.2 153.5,-238.2 153.5,-219.2 101.5,-219.2"/>
<text text-anchor="start" x="144.3862" y="-225.3" font-family="Helvetica,sans-Serif" font-size="11.00" fill="#000000"> &#160;</text>
<polygon fill="#ffffff" stroke="transparent" points="153.5,-219.2 153.5,-238.2 215.5,-238.2 215.5,-219.2 153.5,-219.2"/>
<polygon fill="none" stroke="#000000" points="153.5,-219.2 153.5,-238.2 215.5,-238.2 215.5,-219.2 153.5,-219.2"/>
<text text-anchor="start" x="196.9053" y="-225.3" font-family="Helvetica,sans-Serif" font-size="11.00" fill="#000000">1 &gt;</text>
</a>
</g>
</g>
<!-- branchs&#45;&gt;extremities -->
<g id="edge1" class="edge">
<title>branchs:w&#45;&gt;extremities:e</title>
<path fill="none" stroke="#000000" d="M251.4203,-268.2C239.5435,-268.2 232.158,-268.2 215.5,-268.2"/>
<polygon fill="#000000" stroke="#000000" points="258,-268.2001 266,-271.8 262,-268.2 266,-268.2 266,-268.2 266,-268.2 262,-268.2 266,-264.6 258,-268.2001 258,-268.2001"/>
<ellipse fill="none" stroke="#000000" cx="254.8" cy="-268.2001" rx="3.2" ry="3.2"/>
</g>
</g>
</svg>
