<?xml version="1.0" encoding="UTF-8" standalone="no"?>
<!DOCTYPE svg PUBLIC "-//W3C//DTD SVG 1.1//EN"
 "http://www.w3.org/Graphics/SVG/1.1/DTD/svg11.dtd">
<!-- Generated by graphviz version 2.40.1 (20161225.0304)
 -->
<!-- Title: twoDegreesRelationshipsDiagramImplied Pages: 1 -->
<svg width="624pt" height="382pt"
 viewBox="0.00 0.00 624.00 382.20" xmlns="http://www.w3.org/2000/svg" xmlns:xlink="http://www.w3.org/1999/xlink">
<g id="graph0" class="graph" transform="scale(1 1) rotate(0) translate(4 378.2)">
<title>twoDegreesRelationshipsDiagramImplied</title>
<polygon fill="#ffffff" stroke="transparent" points="-4,4 -4,-378.2 620,-378.2 620,4 -4,4"/>
<text text-anchor="middle" x="72.4936" y="-7.3" font-family="Helvetica,sans-Serif" font-size="11.00" fill="#000000">Generated by SchemaSpy</text>
<!-- branchs -->
<g id="node1" class="node">
<title>branchs</title>
<g id="a_node1"><a xlink:href="../../tables/branchs.html" xlink:title="branchs" target="_top">
<polygon fill="#ffffff" stroke="transparent" points="390,-38.2 390,-370.2 608,-370.2 608,-38.2 390,-38.2"/>
<polygon fill="#f5f5f5" stroke="transparent" points="392,-345.2 392,-368.2 606,-368.2 606,-345.2 392,-345.2"/>
<polygon fill="none" stroke="#000000" points="392,-345.2 392,-368.2 606,-368.2 606,-345.2 392,-345.2"/>
<text text-anchor="start" x="397" y="-353.8" font-family="Helvetica,sans-Serif" font-weight="bold" font-size="11.00" fill="#000000">branchs</text>
<text text-anchor="start" x="571.0437" y="-353.3" font-family="Helvetica,sans-Serif" font-size="11.00" fill="#000000">[table]</text>
<polygon fill="#ffffff" stroke="transparent" points="392,-323.2 392,-345.2 487,-345.2 487,-323.2 392,-323.2"/>
<polygon fill="none" stroke="#000000" points="392,-323.2 392,-345.2 487,-345.2 487,-323.2 392,-323.2"/>
<text text-anchor="start" x="412" y="-330.3" font-family="Helvetica,sans-Serif" font-size="11.00" fill="#000000">geom</text>
<polygon fill="none" stroke="#000000" points="487,-323.2 487,-345.2 606,-345.2 606,-323.2 487,-323.2"/>
<text text-anchor="start" x="489.9485" y="-330.9" font-family="Helvetica,sans-Serif" font-size="11.00" fill="#000000">geometry[2147483647]</text>
<polygon fill="none" stroke="#000000" points="392,-301.2 392,-323.2 487,-323.2 487,-301.2 392,-301.2"/>
<image xlink:href="../../images/primaryKeys.png" width="11px" height="12px" preserveAspectRatio="xMinYMin meet" x="397" y="-318.2"/>
<text text-anchor="start" x="412" y="-308.3" font-family="Helvetica,sans-Serif" font-size="11.00" fill="#000000">gid</text>
<polygon fill="none" stroke="#000000" points="487,-301.2 487,-323.2 606,-323.2 606,-301.2 487,-301.2"/>
<text text-anchor="start" x="490" y="-308.9" font-family="Helvetica,sans-Serif" font-size="11.00" fill="#000000">serial[10]</text>
<polygon fill="none" stroke="#000000" points="392,-279.2 392,-301.2 487,-301.2 487,-279.2 392,-279.2"/>
<text text-anchor="start" x="412" y="-286.3" font-family="Helvetica,sans-Serif" font-size="11.00" fill="#000000">branch</text>
<polygon fill="none" stroke="#000000" points="487,-279.2 487,-301.2 606,-301.2 606,-279.2 487,-279.2"/>
<text text-anchor="start" x="490" y="-286.9" font-family="Helvetica,sans-Serif" font-size="11.00" fill="#000000">serial[10]</text>
<polygon fill="none" stroke="#000000" points="392,-257.2 392,-279.2 487,-279.2 487,-257.2 392,-257.2"/>
<image xlink:href="../../images/foreignKeys.png" width="11px" height="12px" preserveAspectRatio="xMinYMin meet" x="397" y="-274.2"/>
<text text-anchor="start" x="412" y="-264.3" font-family="Helvetica,sans-Serif" font-size="11.00" fill="#000000">startb</text>
<polygon fill="none" stroke="#000000" points="487,-257.2 487,-279.2 606,-279.2 606,-257.2 487,-257.2"/>
<text text-anchor="start" x="490" y="-264.9" font-family="Helvetica,sans-Serif" font-size="11.00" fill="#000000">varchar[30]</text>
<polygon fill="none" stroke="#000000" points="392,-235.2 392,-257.2 487,-257.2 487,-235.2 392,-235.2"/>
<text text-anchor="start" x="412" y="-242.3" font-family="Helvetica,sans-Serif" font-size="11.00" fill="#000000">endb</text>
<polygon fill="none" stroke="#000000" points="487,-235.2 487,-257.2 606,-257.2 606,-235.2 487,-235.2"/>
<text text-anchor="start" x="490" y="-242.9" font-family="Helvetica,sans-Serif" font-size="11.00" fill="#000000">varchar[30]</text>
<polygon fill="none" stroke="#000000" points="392,-213.2 392,-235.2 487,-235.2 487,-213.2 392,-213.2"/>
<text text-anchor="start" x="412" y="-220.3" font-family="Helvetica,sans-Serif" font-size="11.00" fill="#000000">zonenum</text>
<polygon fill="none" stroke="#000000" points="487,-213.2 487,-235.2 606,-235.2 606,-213.2 487,-213.2"/>
<text text-anchor="start" x="490" y="-220.9" font-family="Helvetica,sans-Serif" font-size="11.00" fill="#000000">serial[10]</text>
<polygon fill="none" stroke="#000000" points="392,-191.2 392,-213.2 487,-213.2 487,-191.2 392,-191.2"/>
<text text-anchor="start" x="412" y="-198.3" font-family="Helvetica,sans-Serif" font-size="11.00" fill="#000000">zoneabsstart</text>
<polygon fill="none" stroke="#000000" points="487,-191.2 487,-213.2 606,-213.2 606,-191.2 487,-191.2"/>
<text text-anchor="start" x="490" y="-198.9" font-family="Helvetica,sans-Serif" font-size="11.00" fill="#000000">float8[17,17]</text>
<polygon fill="none" stroke="#000000" points="392,-169.2 392,-191.2 487,-191.2 487,-169.2 392,-169.2"/>
<text text-anchor="start" x="412" y="-176.3" font-family="Helvetica,sans-Serif" font-size="11.00" fill="#000000">zoneabsend</text>
<polygon fill="none" stroke="#000000" points="487,-169.2 487,-191.2 606,-191.2 606,-169.2 487,-169.2"/>
<text text-anchor="start" x="490" y="-176.9" font-family="Helvetica,sans-Serif" font-size="11.00" fill="#000000">float8[17,17]</text>
<polygon fill="none" stroke="#000000" points="392,-147.2 392,-169.2 487,-169.2 487,-147.2 392,-147.2"/>
<text text-anchor="start" x="412" y="-154.3" font-family="Helvetica,sans-Serif" font-size="11.00" fill="#000000">minbedcoef</text>
<polygon fill="none" stroke="#000000" points="487,-147.2 487,-169.2 606,-169.2 606,-147.2 487,-147.2"/>
<text text-anchor="start" x="490" y="-154.9" font-family="Helvetica,sans-Serif" font-size="11.00" fill="#000000">float8[17,17]</text>
<polygon fill="none" stroke="#000000" points="392,-125.2 392,-147.2 487,-147.2 487,-125.2 392,-125.2"/>
<text text-anchor="start" x="412" y="-132.3" font-family="Helvetica,sans-Serif" font-size="11.00" fill="#000000">majbedcoef</text>
<polygon fill="none" stroke="#000000" points="487,-125.2 487,-147.2 606,-147.2 606,-125.2 487,-125.2"/>
<text text-anchor="start" x="490" y="-132.9" font-family="Helvetica,sans-Serif" font-size="11.00" fill="#000000">float8[17,17]</text>
<polygon fill="none" stroke="#000000" points="392,-103.2 392,-125.2 487,-125.2 487,-103.2 392,-103.2"/>
<text text-anchor="start" x="412" y="-110.3" font-family="Helvetica,sans-Serif" font-size="11.00" fill="#000000">mesh</text>
<polygon fill="none" stroke="#000000" points="487,-103.2 487,-125.2 606,-125.2 606,-103.2 487,-103.2"/>
<text text-anchor="start" x="490" y="-110.9" font-family="Helvetica,sans-Serif" font-size="11.00" fill="#000000">float8[17,17]</text>
<polygon fill="none" stroke="#000000" points="392,-81.2 392,-103.2 487,-103.2 487,-81.2 392,-81.2"/>
<text text-anchor="start" x="412" y="-88.3" font-family="Helvetica,sans-Serif" font-size="11.00" fill="#000000">planim</text>
<polygon fill="none" stroke="#000000" points="487,-81.2 487,-103.2 606,-103.2 606,-81.2 487,-81.2"/>
<text text-anchor="start" x="490" y="-88.9" font-family="Helvetica,sans-Serif" font-size="11.00" fill="#000000">float8[17,17]</text>
<polygon fill="none" stroke="#000000" points="392,-59.2 392,-81.2 487,-81.2 487,-59.2 392,-59.2"/>
<text text-anchor="start" x="412" y="-66.3" font-family="Helvetica,sans-Serif" font-size="11.00" fill="#000000">active</text>
<polygon fill="none" stroke="#000000" points="487,-59.2 487,-81.2 606,-81.2 606,-59.2 487,-59.2"/>
<text text-anchor="start" x="490" y="-66.9" font-family="Helvetica,sans-Serif" font-size="11.00" fill="#000000">bool[1]</text>
<polygon fill="#ffffff" stroke="transparent" points="392,-40.2 392,-59.2 444,-59.2 444,-40.2 392,-40.2"/>
<polygon fill="none" stroke="#000000" points="392,-40.2 392,-59.2 444,-59.2 444,-40.2 392,-40.2"/>
<text text-anchor="start" x="395" y="-46.3" font-family="Helvetica,sans-Serif" font-size="11.00" fill="#000000">&lt; 1</text>
<polygon fill="#ffffff" stroke="transparent" points="444,-40.2 444,-59.2 487,-59.2 487,-40.2 444,-40.2"/>
<polygon fill="none" stroke="#000000" points="444,-40.2 444,-59.2 487,-59.2 487,-40.2 444,-40.2"/>
<text text-anchor="start" x="477.8862" y="-46.3" font-family="Helvetica,sans-Serif" font-size="11.00" fill="#000000"> &#160;</text>
<polygon fill="#ffffff" stroke="transparent" points="487,-40.2 487,-59.2 606,-59.2 606,-40.2 487,-40.2"/>
<polygon fill="none" stroke="#000000" points="487,-40.2 487,-59.2 606,-59.2 606,-40.2 487,-40.2"/>
<text text-anchor="start" x="587.4053" y="-46.3" font-family="Helvetica,sans-Serif" font-size="11.00" fill="#000000">0 &gt;</text>
<polygon fill="none" stroke="#000000" stroke-width="2" points="391,-39.2 391,-369.2 607,-369.2 607,-39.2 391,-39.2"/>
</a>
</g>
</g>
<!-- extremities -->
<g id="node2" class="node">
<title>extremities</title>
<g id="a_node2"><a xlink:href="../../tables/extremities.html" xlink:title="extremities" target="_top">
<polygon fill="#ffffff" stroke="transparent" points="134,-219.7 134,-324.7 341,-324.7 341,-219.7 134,-219.7"/>
<polygon fill="#f5f5f5" stroke="transparent" points="134.5,-301.2 134.5,-324.2 341.5,-324.2 341.5,-301.2 134.5,-301.2"/>
<polygon fill="none" stroke="#000000" points="134.5,-301.2 134.5,-324.2 341.5,-324.2 341.5,-301.2 134.5,-301.2"/>
<text text-anchor="start" x="139.5" y="-309.8" font-family="Helvetica,sans-Serif" font-weight="bold" font-size="11.00" fill="#000000">extremities</text>
<text text-anchor="start" x="306.5437" y="-309.3" font-family="Helvetica,sans-Serif" font-size="11.00" fill="#000000">[table]</text>
<polygon fill="none" stroke="#000000" points="134.5,-279.2 134.5,-301.2 341.5,-301.2 341.5,-279.2 134.5,-279.2"/>
<image xlink:href="../../images/primaryKeys.png" width="11px" height="12px" preserveAspectRatio="xMinYMin meet" x="139.5" y="-296.2"/>
<text text-anchor="start" x="154.5" y="-286.3" font-family="Helvetica,sans-Serif" font-size="11.00" fill="#000000">gid</text>
<polygon fill="#ffffff" stroke="transparent" points="134.5,-257.2 134.5,-279.2 341.5,-279.2 341.5,-257.2 134.5,-257.2"/>
<polygon fill="none" stroke="#000000" points="134.5,-257.2 134.5,-279.2 341.5,-279.2 341.5,-257.2 134.5,-257.2"/>
<image xlink:href="../../images/foreignKeys.png" width="11px" height="12px" preserveAspectRatio="xMinYMin meet" x="139.5" y="-274.2"/>
<text text-anchor="start" x="154.5" y="-264.3" font-family="Helvetica,sans-Serif" font-size="11.00" fill="#000000">name</text>
<polygon fill="none" stroke="#000000" points="134.5,-238.2 134.5,-257.2 341.5,-257.2 341.5,-238.2 134.5,-238.2"/>
<text text-anchor="start" x="137.5" y="-244.3" font-family="Helvetica,sans-Serif" font-size="11.00" fill="#000000">...</text>
<polygon fill="#ffffff" stroke="transparent" points="134.5,-219.2 134.5,-238.2 231.5,-238.2 231.5,-219.2 134.5,-219.2"/>
<polygon fill="none" stroke="#000000" points="134.5,-219.2 134.5,-238.2 231.5,-238.2 231.5,-219.2 134.5,-219.2"/>
<text text-anchor="start" x="137.5" y="-225.3" font-family="Helvetica,sans-Serif" font-size="11.00" fill="#000000">&lt; 1</text>
<polygon fill="#ffffff" stroke="transparent" points="231.5,-219.2 231.5,-238.2 281.5,-238.2 281.5,-219.2 231.5,-219.2"/>
<polygon fill="none" stroke="#000000" points="231.5,-219.2 231.5,-238.2 281.5,-238.2 281.5,-219.2 231.5,-219.2"/>
<text text-anchor="start" x="272.3862" y="-225.3" font-family="Helvetica,sans-Serif" font-size="11.00" fill="#000000"> &#160;</text>
<polygon fill="#ffffff" stroke="transparent" points="281.5,-219.2 281.5,-238.2 341.5,-238.2 341.5,-219.2 281.5,-219.2"/>
<polygon fill="none" stroke="#000000" points="281.5,-219.2 281.5,-238.2 341.5,-238.2 341.5,-219.2 281.5,-219.2"/>
<text text-anchor="start" x="322.9053" y="-225.3" font-family="Helvetica,sans-Serif" font-size="11.00" fill="#000000">1 &gt;</text>
</a>
</g>
</g>
<!-- branchs&#45;&gt;extremities -->
<g id="edge1" class="edge">
<title>branchs:w&#45;&gt;extremities:e</title>
<path fill="none" stroke="#000000" d="M377.4203,-268.2C365.5435,-268.2 358.158,-268.2 341.5,-268.2"/>
<polygon fill="#000000" stroke="#000000" points="384,-268.2001 392,-271.8 388,-268.2 392,-268.2 392,-268.2 392,-268.2 388,-268.2 392,-264.6 384,-268.2001 384,-268.2001"/>
<ellipse fill="none" stroke="#000000" cx="380.8" cy="-268.2001" rx="3.2" ry="3.2"/>
</g>
<!-- events -->
<g id="node3" class="node">
<title>events</title>
<g id="a_node3"><a xlink:href="../../tables/events.html" xlink:title="events" target="_top">
<polygon fill="#ffffff" stroke="transparent" points="8,-240.7 8,-301.7 85,-301.7 85,-240.7 8,-240.7"/>
<polygon fill="#f5f5f5" stroke="transparent" points="8.5,-278.2 8.5,-301.2 85.5,-301.2 85.5,-278.2 8.5,-278.2"/>
<polygon fill="none" stroke="#000000" points="8.5,-278.2 8.5,-301.2 85.5,-301.2 85.5,-278.2 8.5,-278.2"/>
<text text-anchor="start" x="13.5" y="-286.8" font-family="Helvetica,sans-Serif" font-weight="bold" font-size="11.00" fill="#000000">events</text>
<text text-anchor="start" x="51.0219" y="-286.3" font-family="Helvetica,sans-Serif" font-size="11.00" fill="#000000">[table]</text>
<polygon fill="none" stroke="#000000" points="8.5,-259.2 8.5,-278.2 85.5,-278.2 85.5,-259.2 8.5,-259.2"/>
<text text-anchor="start" x="11.5" y="-265.3" font-family="Helvetica,sans-Serif" font-size="11.00" fill="#000000">...</text>
<polygon fill="#ffffff" stroke="transparent" points="8.5,-240.2 8.5,-259.2 33.5,-259.2 33.5,-240.2 8.5,-240.2"/>
<polygon fill="none" stroke="#000000" points="8.5,-240.2 8.5,-259.2 33.5,-259.2 33.5,-240.2 8.5,-240.2"/>
<text text-anchor="start" x="11.5" y="-246.3" font-family="Helvetica,sans-Serif" font-size="11.00" fill="#000000"> &#160;</text>
<polygon fill="#ffffff" stroke="transparent" points="33.5,-240.2 33.5,-259.2 51.5,-259.2 51.5,-240.2 33.5,-240.2"/>
<polygon fill="none" stroke="#000000" points="33.5,-240.2 33.5,-259.2 51.5,-259.2 51.5,-240.2 33.5,-240.2"/>
<text text-anchor="start" x="42.3862" y="-246.3" font-family="Helvetica,sans-Serif" font-size="11.00" fill="#000000"> &#160;</text>
<polygon fill="#ffffff" stroke="transparent" points="51.5,-240.2 51.5,-259.2 85.5,-259.2 85.5,-240.2 51.5,-240.2"/>
<polygon fill="none" stroke="#000000" points="51.5,-240.2 51.5,-259.2 85.5,-259.2 85.5,-240.2 51.5,-240.2"/>
<text text-anchor="start" x="60.7904" y="-246.3" font-family="Helvetica,sans-Serif" font-size="11.00" fill="#000000">16 &gt;</text>
</a>
</g>
</g>
<!-- extremities&#45;&gt;events -->
<g id="edge2" class="edge">
<title>extremities:w&#45;&gt;events:e</title>
<path fill="none" stroke="#000000" stroke-dasharray="5,2" d="M123.7573,-268.2C110.1063,-268.2 103.1944,-268.2 85.5,-268.2"/>
<polygon fill="#000000" stroke="#000000" points="133.7,-264.2 133.7,-272.2 132.1,-272.2 132.1,-264.2 133.7,-264.2"/>
<polyline fill="none" stroke="#000000" points="134.5,-268.2 130.5,-268.2 "/>
<ellipse fill="none" stroke="#000000" cx="127.3" cy="-268.2001" rx="3.2" ry="3.2"/>
</g>
</g>
</svg>
