<?xml version="1.0" encoding="UTF-8" standalone="no"?>
<!DOCTYPE svg PUBLIC "-//W3C//DTD SVG 1.1//EN"
 "http://www.w3.org/Graphics/SVG/1.1/DTD/svg11.dtd">
<!-- Generated by graphviz version 2.40.1 (20161225.0304)
 -->
<!-- Title: oneDegreeRelationshipsDiagram Pages: 1 -->
<svg width="498pt" height="360pt"
 viewBox="0.00 0.00 498.00 360.20" xmlns="http://www.w3.org/2000/svg" xmlns:xlink="http://www.w3.org/1999/xlink">
<g id="graph0" class="graph" transform="scale(1 1) rotate(0) translate(4 356.2)">
<title>oneDegreeRelationshipsDiagram</title>
<polygon fill="#ffffff" stroke="transparent" points="-4,4 -4,-356.2 494,-356.2 494,4 -4,4"/>
<text text-anchor="middle" x="72.4936" y="-7.3" font-family="Helvetica,sans-Serif" font-size="11.00" fill="#000000">Generated by SchemaSpy</text>
<!-- branchs -->
<g id="node1" class="node">
<title>branchs</title>
<g id="a_node1"><a xlink:href="../../tables/branchs.html" xlink:title="branchs" target="_top">
<polygon fill="#ffffff" stroke="transparent" points="387,-219.7 387,-346.7 482,-346.7 482,-219.7 387,-219.7"/>
<polygon fill="#f5f5f5" stroke="transparent" points="387.5,-323.2 387.5,-346.2 482.5,-346.2 482.5,-323.2 387.5,-323.2"/>
<polygon fill="none" stroke="#000000" points="387.5,-323.2 387.5,-346.2 482.5,-346.2 482.5,-323.2 387.5,-323.2"/>
<text text-anchor="start" x="392.5" y="-331.8" font-family="Helvetica,sans-Serif" font-weight="bold" font-size="11.00" fill="#000000">branchs</text>
<text text-anchor="start" x="447.5437" y="-331.3" font-family="Helvetica,sans-Serif" font-size="11.00" fill="#000000">[table]</text>
<polygon fill="#ffffff" stroke="transparent" points="387.5,-301.2 387.5,-323.2 482.5,-323.2 482.5,-301.2 387.5,-301.2"/>
<polygon fill="none" stroke="#000000" points="387.5,-301.2 387.5,-323.2 482.5,-323.2 482.5,-301.2 387.5,-301.2"/>
<text text-anchor="start" x="407.5" y="-308.3" font-family="Helvetica,sans-Serif" font-size="11.00" fill="#000000">geom</text>
<polygon fill="none" stroke="#000000" points="387.5,-279.2 387.5,-301.2 482.5,-301.2 482.5,-279.2 387.5,-279.2"/>
<image xlink:href="../../images/primaryKeys.png" width="11px" height="12px" preserveAspectRatio="xMinYMin meet" x="392.5" y="-296.2"/>
<text text-anchor="start" x="407.5" y="-286.3" font-family="Helvetica,sans-Serif" font-size="11.00" fill="#000000">gid</text>
<polygon fill="none" stroke="#000000" points="387.5,-257.2 387.5,-279.2 482.5,-279.2 482.5,-257.2 387.5,-257.2"/>
<image xlink:href="../../images/foreignKeys.png" width="11px" height="12px" preserveAspectRatio="xMinYMin meet" x="392.5" y="-274.2"/>
<text text-anchor="start" x="407.5" y="-264.3" font-family="Helvetica,sans-Serif" font-size="11.00" fill="#000000">startb</text>
<polygon fill="none" stroke="#000000" points="387.5,-238.2 387.5,-257.2 482.5,-257.2 482.5,-238.2 387.5,-238.2"/>
<text text-anchor="start" x="390.5" y="-244.3" font-family="Helvetica,sans-Serif" font-size="11.00" fill="#000000">...</text>
<polygon fill="#ffffff" stroke="transparent" points="387.5,-219.2 387.5,-238.2 433.5,-238.2 433.5,-219.2 387.5,-219.2"/>
<polygon fill="none" stroke="#000000" points="387.5,-219.2 387.5,-238.2 433.5,-238.2 433.5,-219.2 387.5,-219.2"/>
<text text-anchor="start" x="390.5" y="-225.3" font-family="Helvetica,sans-Serif" font-size="11.00" fill="#000000">&lt; 1</text>
<polygon fill="#ffffff" stroke="transparent" points="433.5,-219.2 433.5,-238.2 457.5,-238.2 457.5,-219.2 433.5,-219.2"/>
<polygon fill="none" stroke="#000000" points="433.5,-219.2 433.5,-238.2 457.5,-238.2 457.5,-219.2 433.5,-219.2"/>
<text text-anchor="start" x="448.3862" y="-225.3" font-family="Helvetica,sans-Serif" font-size="11.00" fill="#000000"> &#160;</text>
<polygon fill="#ffffff" stroke="transparent" points="457.5,-219.2 457.5,-238.2 482.5,-238.2 482.5,-219.2 457.5,-219.2"/>
<polygon fill="none" stroke="#000000" points="457.5,-219.2 457.5,-238.2 482.5,-238.2 482.5,-219.2 457.5,-219.2"/>
<text text-anchor="start" x="473.3862" y="-225.3" font-family="Helvetica,sans-Serif" font-size="11.00" fill="#000000"> &#160;</text>
</a>
</g>
</g>
<!-- extremities -->
<g id="node2" class="node">
<title>extremities</title>
<g id="a_node2"><a xlink:href="../../tables/extremities.html" xlink:title="extremities" target="_top">
<polygon fill="#ffffff" stroke="transparent" points="8,-38.2 8,-348.2 338,-348.2 338,-38.2 8,-38.2"/>
<polygon fill="#f5f5f5" stroke="transparent" points="10,-323.2 10,-346.2 336,-346.2 336,-323.2 10,-323.2"/>
<polygon fill="none" stroke="#000000" points="10,-323.2 10,-346.2 336,-346.2 336,-323.2 10,-323.2"/>
<text text-anchor="start" x="15" y="-331.8" font-family="Helvetica,sans-Serif" font-weight="bold" font-size="11.00" fill="#000000">extremities</text>
<text text-anchor="start" x="301.0437" y="-331.3" font-family="Helvetica,sans-Serif" font-size="11.00" fill="#000000">[table]</text>
<polygon fill="none" stroke="#000000" points="10,-301.2 10,-323.2 217,-323.2 217,-301.2 10,-301.2"/>
<text text-anchor="start" x="30" y="-308.3" font-family="Helvetica,sans-Serif" font-size="11.00" fill="#000000">geom</text>
<polygon fill="none" stroke="#000000" points="217,-301.2 217,-323.2 336,-323.2 336,-301.2 217,-301.2"/>
<text text-anchor="start" x="219.9485" y="-308.9" font-family="Helvetica,sans-Serif" font-size="11.00" fill="#000000">geometry[2147483647]</text>
<polygon fill="none" stroke="#000000" points="10,-279.2 10,-301.2 217,-301.2 217,-279.2 10,-279.2"/>
<image xlink:href="../../images/primaryKeys.png" width="11px" height="12px" preserveAspectRatio="xMinYMin meet" x="15" y="-296.2"/>
<text text-anchor="start" x="30" y="-286.3" font-family="Helvetica,sans-Serif" font-size="11.00" fill="#000000">gid</text>
<polygon fill="none" stroke="#000000" points="217,-279.2 217,-301.2 336,-301.2 336,-279.2 217,-279.2"/>
<text text-anchor="start" x="220" y="-286.9" font-family="Helvetica,sans-Serif" font-size="11.00" fill="#000000">serial[10]</text>
<polygon fill="#ffffff" stroke="transparent" points="10,-257.2 10,-279.2 217,-279.2 217,-257.2 10,-257.2"/>
<polygon fill="none" stroke="#000000" points="10,-257.2 10,-279.2 217,-279.2 217,-257.2 10,-257.2"/>
<image xlink:href="../../images/foreignKeys.png" width="11px" height="12px" preserveAspectRatio="xMinYMin meet" x="15" y="-274.2"/>
<text text-anchor="start" x="30" y="-264.3" font-family="Helvetica,sans-Serif" font-size="11.00" fill="#000000">name</text>
<polygon fill="none" stroke="#000000" points="217,-257.2 217,-279.2 336,-279.2 336,-257.2 217,-257.2"/>
<text text-anchor="start" x="220" y="-264.9" font-family="Helvetica,sans-Serif" font-size="11.00" fill="#000000">varchar[30]</text>
<polygon fill="none" stroke="#000000" points="10,-235.2 10,-257.2 217,-257.2 217,-235.2 10,-235.2"/>
<text text-anchor="start" x="30" y="-242.3" font-family="Helvetica,sans-Serif" font-size="11.00" fill="#000000">type</text>
<polygon fill="none" stroke="#000000" points="217,-235.2 217,-257.2 336,-257.2 336,-235.2 217,-235.2"/>
<text text-anchor="start" x="220" y="-242.9" font-family="Helvetica,sans-Serif" font-size="11.00" fill="#000000">int4[10]</text>
<polygon fill="none" stroke="#000000" points="10,-213.2 10,-235.2 217,-235.2 217,-213.2 10,-213.2"/>
<text text-anchor="start" x="30" y="-220.3" font-family="Helvetica,sans-Serif" font-size="11.00" fill="#000000">method</text>
<polygon fill="none" stroke="#000000" points="217,-213.2 217,-235.2 336,-235.2 336,-213.2 217,-213.2"/>
<text text-anchor="start" x="220" y="-220.9" font-family="Helvetica,sans-Serif" font-size="11.00" fill="#000000">text[2147483647]</text>
<polygon fill="none" stroke="#000000" points="10,-191.2 10,-213.2 217,-213.2 217,-191.2 10,-191.2"/>
<text text-anchor="start" x="30" y="-198.3" font-family="Helvetica,sans-Serif" font-size="11.00" fill="#000000">firstvalue</text>
<polygon fill="none" stroke="#000000" points="217,-191.2 217,-213.2 336,-213.2 336,-191.2 217,-191.2"/>
<text text-anchor="start" x="220" y="-198.9" font-family="Helvetica,sans-Serif" font-size="11.00" fill="#000000">float8[17,17]</text>
<polygon fill="none" stroke="#000000" points="10,-169.2 10,-191.2 217,-191.2 217,-169.2 10,-169.2"/>
<text text-anchor="start" x="30" y="-176.3" font-family="Helvetica,sans-Serif" font-size="11.00" fill="#000000">abscissa</text>
<polygon fill="none" stroke="#000000" points="217,-169.2 217,-191.2 336,-191.2 336,-169.2 217,-169.2"/>
<text text-anchor="start" x="220" y="-176.9" font-family="Helvetica,sans-Serif" font-size="11.00" fill="#000000">text[2147483647]</text>
<polygon fill="none" stroke="#000000" points="10,-147.2 10,-169.2 217,-169.2 217,-147.2 10,-147.2"/>
<text text-anchor="start" x="30" y="-154.3" font-family="Helvetica,sans-Serif" font-size="11.00" fill="#000000">ordinates</text>
<polygon fill="none" stroke="#000000" points="217,-147.2 217,-169.2 336,-169.2 336,-147.2 217,-147.2"/>
<text text-anchor="start" x="220" y="-154.9" font-family="Helvetica,sans-Serif" font-size="11.00" fill="#000000">text[2147483647]</text>
<polygon fill="none" stroke="#000000" points="10,-125.2 10,-147.2 217,-147.2 217,-125.2 10,-125.2"/>
<text text-anchor="start" x="30" y="-132.3" font-family="Helvetica,sans-Serif" font-size="11.00" fill="#000000">angles</text>
<polygon fill="none" stroke="#000000" points="217,-125.2 217,-147.2 336,-147.2 336,-125.2 217,-125.2"/>
<text text-anchor="start" x="220" y="-132.9" font-family="Helvetica,sans-Serif" font-size="11.00" fill="#000000">text[2147483647]</text>
<polygon fill="none" stroke="#000000" points="10,-103.2 10,-125.2 217,-125.2 217,-103.2 10,-103.2"/>
<text text-anchor="start" x="30" y="-110.3" font-family="Helvetica,sans-Serif" font-size="11.00" fill="#000000">active</text>
<polygon fill="none" stroke="#000000" points="217,-103.2 217,-125.2 336,-125.2 336,-103.2 217,-103.2"/>
<text text-anchor="start" x="220" y="-110.9" font-family="Helvetica,sans-Serif" font-size="11.00" fill="#000000">bool[1]</text>
<polygon fill="none" stroke="#000000" points="10,-81.2 10,-103.2 217,-103.2 217,-81.2 10,-81.2"/>
<text text-anchor="start" x="30" y="-88.3" font-family="Helvetica,sans-Serif" font-size="11.00" fill="#000000">tracer_boundary_condition_type</text>
<polygon fill="none" stroke="#000000" points="217,-81.2 217,-103.2 336,-103.2 336,-81.2 217,-81.2"/>
<text text-anchor="start" x="220" y="-88.9" font-family="Helvetica,sans-Serif" font-size="11.00" fill="#000000">int4[10]</text>
<polygon fill="none" stroke="#000000" points="10,-59.2 10,-81.2 217,-81.2 217,-59.2 10,-59.2"/>
<text text-anchor="start" x="30" y="-66.3" font-family="Helvetica,sans-Serif" font-size="11.00" fill="#000000">law_wq</text>
<polygon fill="none" stroke="#000000" points="217,-59.2 217,-81.2 336,-81.2 336,-59.2 217,-59.2"/>
<text text-anchor="start" x="220" y="-66.9" font-family="Helvetica,sans-Serif" font-size="11.00" fill="#000000">text[2147483647]</text>
<polygon fill="#ffffff" stroke="transparent" points="10,-40.2 10,-59.2 118,-59.2 118,-40.2 10,-40.2"/>
<polygon fill="none" stroke="#000000" points="10,-40.2 10,-59.2 118,-59.2 118,-40.2 10,-40.2"/>
<text text-anchor="start" x="13" y="-46.3" font-family="Helvetica,sans-Serif" font-size="11.00" fill="#000000">&lt; 0</text>
<polygon fill="#ffffff" stroke="transparent" points="118,-40.2 118,-59.2 217,-59.2 217,-40.2 118,-40.2"/>
<polygon fill="none" stroke="#000000" points="118,-40.2 118,-59.2 217,-59.2 217,-40.2 118,-40.2"/>
<text text-anchor="start" x="207.8862" y="-46.3" font-family="Helvetica,sans-Serif" font-size="11.00" fill="#000000"> &#160;</text>
<polygon fill="#ffffff" stroke="transparent" points="217,-40.2 217,-59.2 336,-59.2 336,-40.2 217,-40.2"/>
<polygon fill="none" stroke="#000000" points="217,-40.2 217,-59.2 336,-59.2 336,-40.2 217,-40.2"/>
<text text-anchor="start" x="317.4053" y="-46.3" font-family="Helvetica,sans-Serif" font-size="11.00" fill="#000000">1 &gt;</text>
<polygon fill="none" stroke="#000000" stroke-width="2" points="9,-39.2 9,-347.2 337,-347.2 337,-39.2 9,-39.2"/>
</a>
</g>
</g>
<!-- branchs&#45;&gt;extremities -->
<g id="edge1" class="edge">
<title>branchs:w&#45;&gt;extremities:e</title>
<path fill="none" stroke="#000000" d="M373.0156,-268.2C360.6771,-268.2 353.1667,-268.2 336,-268.2"/>
<polygon fill="#000000" stroke="#000000" points="379.5,-268.2001 387.5,-271.8 383.5,-268.2 387.5,-268.2 387.5,-268.2 387.5,-268.2 383.5,-268.2 387.5,-264.6 379.5,-268.2001 379.5,-268.2001"/>
<ellipse fill="none" stroke="#000000" cx="376.3" cy="-268.2001" rx="3.2" ry="3.2"/>
</g>
</g>
</svg>
