<?xml version="1.0" encoding="UTF-8" standalone="no"?>
<!DOCTYPE svg PUBLIC "-//W3C//DTD SVG 1.1//EN"
 "http://www.w3.org/Graphics/SVG/1.1/DTD/svg11.dtd">
<!-- Generated by graphviz version 2.40.1 (20161225.0304)
 -->
<!-- Title: oneDegreeRelationshipsDiagramImplied Pages: 1 -->
<svg width="624pt" height="360pt"
 viewBox="0.00 0.00 624.00 360.20" xmlns="http://www.w3.org/2000/svg" xmlns:xlink="http://www.w3.org/1999/xlink">
<g id="graph0" class="graph" transform="scale(1 1) rotate(0) translate(4 356.2)">
<title>oneDegreeRelationshipsDiagramImplied</title>
<polygon fill="#ffffff" stroke="transparent" points="-4,4 -4,-356.2 620,-356.2 620,4 -4,4"/>
<text text-anchor="middle" x="72.4936" y="-7.3" font-family="Helvetica,sans-Serif" font-size="11.00" fill="#000000">Generated by SchemaSpy</text>
<!-- branchs -->
<g id="node1" class="node">
<title>branchs</title>
<g id="a_node1"><a xlink:href="../../tables/branchs.html" xlink:title="branchs" target="_top">
<polygon fill="#ffffff" stroke="transparent" points="513,-219.7 513,-346.7 608,-346.7 608,-219.7 513,-219.7"/>
<polygon fill="#f5f5f5" stroke="transparent" points="513.5,-323.2 513.5,-346.2 608.5,-346.2 608.5,-323.2 513.5,-323.2"/>
<polygon fill="none" stroke="#000000" points="513.5,-323.2 513.5,-346.2 608.5,-346.2 608.5,-323.2 513.5,-323.2"/>
<text text-anchor="start" x="518.5" y="-331.8" font-family="Helvetica,sans-Serif" font-weight="bold" font-size="11.00" fill="#000000">branchs</text>
<text text-anchor="start" x="573.5437" y="-331.3" font-family="Helvetica,sans-Serif" font-size="11.00" fill="#000000">[table]</text>
<polygon fill="#ffffff" stroke="transparent" points="513.5,-301.2 513.5,-323.2 608.5,-323.2 608.5,-301.2 513.5,-301.2"/>
<polygon fill="none" stroke="#000000" points="513.5,-301.2 513.5,-323.2 608.5,-323.2 608.5,-301.2 513.5,-301.2"/>
<text text-anchor="start" x="533.5" y="-308.3" font-family="Helvetica,sans-Serif" font-size="11.00" fill="#000000">geom</text>
<polygon fill="none" stroke="#000000" points="513.5,-279.2 513.5,-301.2 608.5,-301.2 608.5,-279.2 513.5,-279.2"/>
<image xlink:href="../../images/primaryKeys.png" width="11px" height="12px" preserveAspectRatio="xMinYMin meet" x="518.5" y="-296.2"/>
<text text-anchor="start" x="533.5" y="-286.3" font-family="Helvetica,sans-Serif" font-size="11.00" fill="#000000">gid</text>
<polygon fill="none" stroke="#000000" points="513.5,-257.2 513.5,-279.2 608.5,-279.2 608.5,-257.2 513.5,-257.2"/>
<image xlink:href="../../images/foreignKeys.png" width="11px" height="12px" preserveAspectRatio="xMinYMin meet" x="518.5" y="-274.2"/>
<text text-anchor="start" x="533.5" y="-264.3" font-family="Helvetica,sans-Serif" font-size="11.00" fill="#000000">startb</text>
<polygon fill="none" stroke="#000000" points="513.5,-238.2 513.5,-257.2 608.5,-257.2 608.5,-238.2 513.5,-238.2"/>
<text text-anchor="start" x="516.5" y="-244.3" font-family="Helvetica,sans-Serif" font-size="11.00" fill="#000000">...</text>
<polygon fill="#ffffff" stroke="transparent" points="513.5,-219.2 513.5,-238.2 559.5,-238.2 559.5,-219.2 513.5,-219.2"/>
<polygon fill="none" stroke="#000000" points="513.5,-219.2 513.5,-238.2 559.5,-238.2 559.5,-219.2 513.5,-219.2"/>
<text text-anchor="start" x="516.5" y="-225.3" font-family="Helvetica,sans-Serif" font-size="11.00" fill="#000000">&lt; 1</text>
<polygon fill="#ffffff" stroke="transparent" points="559.5,-219.2 559.5,-238.2 583.5,-238.2 583.5,-219.2 559.5,-219.2"/>
<polygon fill="none" stroke="#000000" points="559.5,-219.2 559.5,-238.2 583.5,-238.2 583.5,-219.2 559.5,-219.2"/>
<text text-anchor="start" x="574.3862" y="-225.3" font-family="Helvetica,sans-Serif" font-size="11.00" fill="#000000"> &#160;</text>
<polygon fill="#ffffff" stroke="transparent" points="583.5,-219.2 583.5,-238.2 608.5,-238.2 608.5,-219.2 583.5,-219.2"/>
<polygon fill="none" stroke="#000000" points="583.5,-219.2 583.5,-238.2 608.5,-238.2 608.5,-219.2 583.5,-219.2"/>
<text text-anchor="start" x="599.3862" y="-225.3" font-family="Helvetica,sans-Serif" font-size="11.00" fill="#000000"> &#160;</text>
</a>
</g>
</g>
<!-- extremities -->
<g id="node2" class="node">
<title>extremities</title>
<g id="a_node2"><a xlink:href="../../tables/extremities.html" xlink:title="extremities" target="_top">
<polygon fill="#ffffff" stroke="transparent" points="134,-38.2 134,-348.2 464,-348.2 464,-38.2 134,-38.2"/>
<polygon fill="#f5f5f5" stroke="transparent" points="136,-323.2 136,-346.2 462,-346.2 462,-323.2 136,-323.2"/>
<polygon fill="none" stroke="#000000" points="136,-323.2 136,-346.2 462,-346.2 462,-323.2 136,-323.2"/>
<text text-anchor="start" x="141" y="-331.8" font-family="Helvetica,sans-Serif" font-weight="bold" font-size="11.00" fill="#000000">extremities</text>
<text text-anchor="start" x="427.0437" y="-331.3" font-family="Helvetica,sans-Serif" font-size="11.00" fill="#000000">[table]</text>
<polygon fill="none" stroke="#000000" points="136,-301.2 136,-323.2 343,-323.2 343,-301.2 136,-301.2"/>
<text text-anchor="start" x="156" y="-308.3" font-family="Helvetica,sans-Serif" font-size="11.00" fill="#000000">geom</text>
<polygon fill="none" stroke="#000000" points="343,-301.2 343,-323.2 462,-323.2 462,-301.2 343,-301.2"/>
<text text-anchor="start" x="345.9485" y="-308.9" font-family="Helvetica,sans-Serif" font-size="11.00" fill="#000000">geometry[2147483647]</text>
<polygon fill="none" stroke="#000000" points="136,-279.2 136,-301.2 343,-301.2 343,-279.2 136,-279.2"/>
<image xlink:href="../../images/primaryKeys.png" width="11px" height="12px" preserveAspectRatio="xMinYMin meet" x="141" y="-296.2"/>
<text text-anchor="start" x="156" y="-286.3" font-family="Helvetica,sans-Serif" font-size="11.00" fill="#000000">gid</text>
<polygon fill="none" stroke="#000000" points="343,-279.2 343,-301.2 462,-301.2 462,-279.2 343,-279.2"/>
<text text-anchor="start" x="346" y="-286.9" font-family="Helvetica,sans-Serif" font-size="11.00" fill="#000000">serial[10]</text>
<polygon fill="#ffffff" stroke="transparent" points="136,-257.2 136,-279.2 343,-279.2 343,-257.2 136,-257.2"/>
<polygon fill="none" stroke="#000000" points="136,-257.2 136,-279.2 343,-279.2 343,-257.2 136,-257.2"/>
<image xlink:href="../../images/foreignKeys.png" width="11px" height="12px" preserveAspectRatio="xMinYMin meet" x="141" y="-274.2"/>
<text text-anchor="start" x="156" y="-264.3" font-family="Helvetica,sans-Serif" font-size="11.00" fill="#000000">name</text>
<polygon fill="none" stroke="#000000" points="343,-257.2 343,-279.2 462,-279.2 462,-257.2 343,-257.2"/>
<text text-anchor="start" x="346" y="-264.9" font-family="Helvetica,sans-Serif" font-size="11.00" fill="#000000">varchar[30]</text>
<polygon fill="none" stroke="#000000" points="136,-235.2 136,-257.2 343,-257.2 343,-235.2 136,-235.2"/>
<text text-anchor="start" x="156" y="-242.3" font-family="Helvetica,sans-Serif" font-size="11.00" fill="#000000">type</text>
<polygon fill="none" stroke="#000000" points="343,-235.2 343,-257.2 462,-257.2 462,-235.2 343,-235.2"/>
<text text-anchor="start" x="346" y="-242.9" font-family="Helvetica,sans-Serif" font-size="11.00" fill="#000000">int4[10]</text>
<polygon fill="none" stroke="#000000" points="136,-213.2 136,-235.2 343,-235.2 343,-213.2 136,-213.2"/>
<text text-anchor="start" x="156" y="-220.3" font-family="Helvetica,sans-Serif" font-size="11.00" fill="#000000">method</text>
<polygon fill="none" stroke="#000000" points="343,-213.2 343,-235.2 462,-235.2 462,-213.2 343,-213.2"/>
<text text-anchor="start" x="346" y="-220.9" font-family="Helvetica,sans-Serif" font-size="11.00" fill="#000000">text[2147483647]</text>
<polygon fill="none" stroke="#000000" points="136,-191.2 136,-213.2 343,-213.2 343,-191.2 136,-191.2"/>
<text text-anchor="start" x="156" y="-198.3" font-family="Helvetica,sans-Serif" font-size="11.00" fill="#000000">firstvalue</text>
<polygon fill="none" stroke="#000000" points="343,-191.2 343,-213.2 462,-213.2 462,-191.2 343,-191.2"/>
<text text-anchor="start" x="346" y="-198.9" font-family="Helvetica,sans-Serif" font-size="11.00" fill="#000000">float8[17,17]</text>
<polygon fill="none" stroke="#000000" points="136,-169.2 136,-191.2 343,-191.2 343,-169.2 136,-169.2"/>
<text text-anchor="start" x="156" y="-176.3" font-family="Helvetica,sans-Serif" font-size="11.00" fill="#000000">abscissa</text>
<polygon fill="none" stroke="#000000" points="343,-169.2 343,-191.2 462,-191.2 462,-169.2 343,-169.2"/>
<text text-anchor="start" x="346" y="-176.9" font-family="Helvetica,sans-Serif" font-size="11.00" fill="#000000">text[2147483647]</text>
<polygon fill="none" stroke="#000000" points="136,-147.2 136,-169.2 343,-169.2 343,-147.2 136,-147.2"/>
<text text-anchor="start" x="156" y="-154.3" font-family="Helvetica,sans-Serif" font-size="11.00" fill="#000000">ordinates</text>
<polygon fill="none" stroke="#000000" points="343,-147.2 343,-169.2 462,-169.2 462,-147.2 343,-147.2"/>
<text text-anchor="start" x="346" y="-154.9" font-family="Helvetica,sans-Serif" font-size="11.00" fill="#000000">text[2147483647]</text>
<polygon fill="none" stroke="#000000" points="136,-125.2 136,-147.2 343,-147.2 343,-125.2 136,-125.2"/>
<text text-anchor="start" x="156" y="-132.3" font-family="Helvetica,sans-Serif" font-size="11.00" fill="#000000">angles</text>
<polygon fill="none" stroke="#000000" points="343,-125.2 343,-147.2 462,-147.2 462,-125.2 343,-125.2"/>
<text text-anchor="start" x="346" y="-132.9" font-family="Helvetica,sans-Serif" font-size="11.00" fill="#000000">text[2147483647]</text>
<polygon fill="none" stroke="#000000" points="136,-103.2 136,-125.2 343,-125.2 343,-103.2 136,-103.2"/>
<text text-anchor="start" x="156" y="-110.3" font-family="Helvetica,sans-Serif" font-size="11.00" fill="#000000">active</text>
<polygon fill="none" stroke="#000000" points="343,-103.2 343,-125.2 462,-125.2 462,-103.2 343,-103.2"/>
<text text-anchor="start" x="346" y="-110.9" font-family="Helvetica,sans-Serif" font-size="11.00" fill="#000000">bool[1]</text>
<polygon fill="none" stroke="#000000" points="136,-81.2 136,-103.2 343,-103.2 343,-81.2 136,-81.2"/>
<text text-anchor="start" x="156" y="-88.3" font-family="Helvetica,sans-Serif" font-size="11.00" fill="#000000">tracer_boundary_condition_type</text>
<polygon fill="none" stroke="#000000" points="343,-81.2 343,-103.2 462,-103.2 462,-81.2 343,-81.2"/>
<text text-anchor="start" x="346" y="-88.9" font-family="Helvetica,sans-Serif" font-size="11.00" fill="#000000">int4[10]</text>
<polygon fill="none" stroke="#000000" points="136,-59.2 136,-81.2 343,-81.2 343,-59.2 136,-59.2"/>
<text text-anchor="start" x="156" y="-66.3" font-family="Helvetica,sans-Serif" font-size="11.00" fill="#000000">law_wq</text>
<polygon fill="none" stroke="#000000" points="343,-59.2 343,-81.2 462,-81.2 462,-59.2 343,-59.2"/>
<text text-anchor="start" x="346" y="-66.9" font-family="Helvetica,sans-Serif" font-size="11.00" fill="#000000">text[2147483647]</text>
<polygon fill="#ffffff" stroke="transparent" points="136,-40.2 136,-59.2 244,-59.2 244,-40.2 136,-40.2"/>
<polygon fill="none" stroke="#000000" points="136,-40.2 136,-59.2 244,-59.2 244,-40.2 136,-40.2"/>
<text text-anchor="start" x="139" y="-46.3" font-family="Helvetica,sans-Serif" font-size="11.00" fill="#000000">&lt; 1</text>
<polygon fill="#ffffff" stroke="transparent" points="244,-40.2 244,-59.2 343,-59.2 343,-40.2 244,-40.2"/>
<polygon fill="none" stroke="#000000" points="244,-40.2 244,-59.2 343,-59.2 343,-40.2 244,-40.2"/>
<text text-anchor="start" x="333.8862" y="-46.3" font-family="Helvetica,sans-Serif" font-size="11.00" fill="#000000"> &#160;</text>
<polygon fill="#ffffff" stroke="transparent" points="343,-40.2 343,-59.2 462,-59.2 462,-40.2 343,-40.2"/>
<polygon fill="none" stroke="#000000" points="343,-40.2 343,-59.2 462,-59.2 462,-40.2 343,-40.2"/>
<text text-anchor="start" x="443.4053" y="-46.3" font-family="Helvetica,sans-Serif" font-size="11.00" fill="#000000">1 &gt;</text>
<polygon fill="none" stroke="#000000" stroke-width="2" points="135,-39.2 135,-347.2 463,-347.2 463,-39.2 135,-39.2"/>
</a>
</g>
</g>
<!-- branchs&#45;&gt;extremities -->
<g id="edge1" class="edge">
<title>branchs:w&#45;&gt;extremities:e</title>
<path fill="none" stroke="#000000" d="M499.0156,-268.2C486.6771,-268.2 479.1667,-268.2 462,-268.2"/>
<polygon fill="#000000" stroke="#000000" points="505.5,-268.2001 513.5,-271.8 509.5,-268.2 513.5,-268.2 513.5,-268.2 513.5,-268.2 509.5,-268.2 513.5,-264.6 505.5,-268.2001 505.5,-268.2001"/>
<ellipse fill="none" stroke="#000000" cx="502.3" cy="-268.2001" rx="3.2" ry="3.2"/>
</g>
<!-- events -->
<g id="node3" class="node">
<title>events</title>
<g id="a_node3"><a xlink:href="../../tables/events.html" xlink:title="events" target="_top">
<polygon fill="#ffffff" stroke="transparent" points="8,-219.7 8,-302.7 85,-302.7 85,-219.7 8,-219.7"/>
<polygon fill="#f5f5f5" stroke="transparent" points="8.5,-279.2 8.5,-302.2 85.5,-302.2 85.5,-279.2 8.5,-279.2"/>
<polygon fill="none" stroke="#000000" points="8.5,-279.2 8.5,-302.2 85.5,-302.2 85.5,-279.2 8.5,-279.2"/>
<text text-anchor="start" x="13.5" y="-287.8" font-family="Helvetica,sans-Serif" font-weight="bold" font-size="11.00" fill="#000000">events</text>
<text text-anchor="start" x="51.0219" y="-287.3" font-family="Helvetica,sans-Serif" font-size="11.00" fill="#000000">[table]</text>
<polygon fill="none" stroke="#000000" points="8.5,-257.2 8.5,-279.2 85.5,-279.2 85.5,-257.2 8.5,-257.2"/>
<image xlink:href="../../images/primaryKeys.png" width="11px" height="12px" preserveAspectRatio="xMinYMin meet" x="13.5" y="-274.2"/>
<text text-anchor="start" x="31.5" y="-264.3" font-family="Helvetica,sans-Serif" font-size="11.00" fill="#000000">name</text>
<polygon fill="none" stroke="#000000" points="8.5,-238.2 8.5,-257.2 85.5,-257.2 85.5,-238.2 8.5,-238.2"/>
<text text-anchor="start" x="11.5" y="-244.3" font-family="Helvetica,sans-Serif" font-size="11.00" fill="#000000">...</text>
<polygon fill="#ffffff" stroke="transparent" points="8.5,-219.2 8.5,-238.2 33.5,-238.2 33.5,-219.2 8.5,-219.2"/>
<polygon fill="none" stroke="#000000" points="8.5,-219.2 8.5,-238.2 33.5,-238.2 33.5,-219.2 8.5,-219.2"/>
<text text-anchor="start" x="11.5" y="-225.3" font-family="Helvetica,sans-Serif" font-size="11.00" fill="#000000"> &#160;</text>
<polygon fill="#ffffff" stroke="transparent" points="33.5,-219.2 33.5,-238.2 51.5,-238.2 51.5,-219.2 33.5,-219.2"/>
<polygon fill="none" stroke="#000000" points="33.5,-219.2 33.5,-238.2 51.5,-238.2 51.5,-219.2 33.5,-219.2"/>
<text text-anchor="start" x="42.3862" y="-225.3" font-family="Helvetica,sans-Serif" font-size="11.00" fill="#000000"> &#160;</text>
<polygon fill="#ffffff" stroke="transparent" points="51.5,-219.2 51.5,-238.2 85.5,-238.2 85.5,-219.2 51.5,-219.2"/>
<polygon fill="none" stroke="#000000" points="51.5,-219.2 51.5,-238.2 85.5,-238.2 85.5,-219.2 51.5,-219.2"/>
<text text-anchor="start" x="60.7904" y="-225.3" font-family="Helvetica,sans-Serif" font-size="11.00" fill="#000000">16 &gt;</text>
</a>
</g>
</g>
<!-- extremities&#45;&gt;events -->
<g id="edge2" class="edge">
<title>extremities:w&#45;&gt;events:e</title>
<path fill="none" stroke="#000000" stroke-dasharray="5,2" d="M125.3362,-268.2C110.9956,-268.2 103.9115,-268.2 85.5,-268.2"/>
<polygon fill="#000000" stroke="#000000" points="135.2,-264.2 135.2,-272.2 133.6,-272.2 133.6,-264.2 135.2,-264.2"/>
<polyline fill="none" stroke="#000000" points="136,-268.2 132,-268.2 "/>
<ellipse fill="none" stroke="#000000" cx="128.8" cy="-268.2001" rx="3.2" ry="3.2"/>
</g>
</g>
</svg>
