<?xml version="1.0" encoding="UTF-8" standalone="no"?>
<!DOCTYPE svg PUBLIC "-//W3C//DTD SVG 1.1//EN"
 "http://www.w3.org/Graphics/SVG/1.1/DTD/svg11.dtd">
<!-- Generated by graphviz version 2.40.1 (20161225.0304)
 -->
<!-- Title: oneDegreeRelationshipsDiagram Pages: 1 -->
<svg width="239pt" height="404pt"
 viewBox="0.00 0.00 239.00 404.20" xmlns="http://www.w3.org/2000/svg" xmlns:xlink="http://www.w3.org/1999/xlink">
<g id="graph0" class="graph" transform="scale(1 1) rotate(0) translate(4 400.2)">
<title>oneDegreeRelationshipsDiagram</title>
<polygon fill="#ffffff" stroke="transparent" points="-4,4 -4,-400.2 235,-400.2 235,4 -4,4"/>
<text text-anchor="middle" x="72.4936" y="-7.3" font-family="Helvetica,sans-Serif" font-size="11.00" fill="#000000">Generated by SchemaSpy</text>
<!-- flood_marks -->
<g id="node1" class="node">
<title>flood_marks</title>
<g id="a_node1"><a xlink:href="../../tables/flood_marks.html" xlink:title="flood_marks" target="_top">
<polygon fill="#ffffff" stroke="transparent" points="8,-38.2 8,-392.2 223,-392.2 223,-38.2 8,-38.2"/>
<polygon fill="#f5f5f5" stroke="transparent" points="10.5,-367.2 10.5,-390.2 221.5,-390.2 221.5,-367.2 10.5,-367.2"/>
<polygon fill="none" stroke="#000000" points="10.5,-367.2 10.5,-390.2 221.5,-390.2 221.5,-367.2 10.5,-367.2"/>
<text text-anchor="start" x="15.5" y="-375.8" font-family="Helvetica,sans-Serif" font-weight="bold" font-size="11.00" fill="#000000">flood_marks</text>
<text text-anchor="start" x="186.5437" y="-375.3" font-family="Helvetica,sans-Serif" font-size="11.00" fill="#000000">[table]</text>
<polygon fill="#ffffff" stroke="transparent" points="10.5,-345.2 10.5,-367.2 102.5,-367.2 102.5,-345.2 10.5,-345.2"/>
<polygon fill="none" stroke="#000000" points="10.5,-345.2 10.5,-367.2 102.5,-367.2 102.5,-345.2 10.5,-345.2"/>
<text text-anchor="start" x="30.5" y="-352.3" font-family="Helvetica,sans-Serif" font-size="11.00" fill="#000000">geom</text>
<polygon fill="none" stroke="#000000" points="102.5,-345.2 102.5,-367.2 221.5,-367.2 221.5,-345.2 102.5,-345.2"/>
<text text-anchor="start" x="105.4485" y="-352.9" font-family="Helvetica,sans-Serif" font-size="11.00" fill="#000000">geometry[2147483647]</text>
<polygon fill="none" stroke="#000000" points="10.5,-323.2 10.5,-345.2 102.5,-345.2 102.5,-323.2 10.5,-323.2"/>
<image xlink:href="../../images/primaryKeys.png" width="11px" height="12px" preserveAspectRatio="xMinYMin meet" x="15.5" y="-340.2"/>
<text text-anchor="start" x="30.5" y="-330.3" font-family="Helvetica,sans-Serif" font-size="11.00" fill="#000000">gid</text>
<polygon fill="none" stroke="#000000" points="102.5,-323.2 102.5,-345.2 221.5,-345.2 221.5,-323.2 102.5,-323.2"/>
<text text-anchor="start" x="105.5" y="-330.9" font-family="Helvetica,sans-Serif" font-size="11.00" fill="#000000">serial[10]</text>
<polygon fill="none" stroke="#000000" points="10.5,-301.2 10.5,-323.2 102.5,-323.2 102.5,-301.2 10.5,-301.2"/>
<image xlink:href="../../images/foreignKeys.png" width="11px" height="12px" preserveAspectRatio="xMinYMin meet" x="15.5" y="-318.2"/>
<text text-anchor="start" x="30.5" y="-308.3" font-family="Helvetica,sans-Serif" font-size="11.00" fill="#000000">name</text>
<polygon fill="none" stroke="#000000" points="102.5,-301.2 102.5,-323.2 221.5,-323.2 221.5,-301.2 102.5,-301.2"/>
<text text-anchor="start" x="105.5" y="-308.9" font-family="Helvetica,sans-Serif" font-size="11.00" fill="#000000">varchar[30]</text>
<polygon fill="none" stroke="#000000" points="10.5,-279.2 10.5,-301.2 102.5,-301.2 102.5,-279.2 10.5,-279.2"/>
<text text-anchor="start" x="30.5" y="-286.3" font-family="Helvetica,sans-Serif" font-size="11.00" fill="#000000">event</text>
<polygon fill="none" stroke="#000000" points="102.5,-279.2 102.5,-301.2 221.5,-301.2 221.5,-279.2 102.5,-279.2"/>
<text text-anchor="start" x="105.5" y="-286.9" font-family="Helvetica,sans-Serif" font-size="11.00" fill="#000000">varchar[30]</text>
<polygon fill="none" stroke="#000000" points="10.5,-257.2 10.5,-279.2 102.5,-279.2 102.5,-257.2 10.5,-257.2"/>
<text text-anchor="start" x="30.5" y="-264.3" font-family="Helvetica,sans-Serif" font-size="11.00" fill="#000000">branchnum</text>
<polygon fill="none" stroke="#000000" points="102.5,-257.2 102.5,-279.2 221.5,-279.2 221.5,-257.2 102.5,-257.2"/>
<text text-anchor="start" x="105.5" y="-264.9" font-family="Helvetica,sans-Serif" font-size="11.00" fill="#000000">int4[10]</text>
<polygon fill="none" stroke="#000000" points="10.5,-235.2 10.5,-257.2 102.5,-257.2 102.5,-235.2 10.5,-235.2"/>
<text text-anchor="start" x="30.5" y="-242.3" font-family="Helvetica,sans-Serif" font-size="11.00" fill="#000000">date</text>
<polygon fill="none" stroke="#000000" points="102.5,-235.2 102.5,-257.2 221.5,-257.2 221.5,-235.2 102.5,-235.2"/>
<text text-anchor="start" x="105.5" y="-242.9" font-family="Helvetica,sans-Serif" font-size="11.00" fill="#000000">date[13]</text>
<polygon fill="none" stroke="#000000" points="10.5,-213.2 10.5,-235.2 102.5,-235.2 102.5,-213.2 10.5,-213.2"/>
<text text-anchor="start" x="30.5" y="-220.3" font-family="Helvetica,sans-Serif" font-size="11.00" fill="#000000">abscissa</text>
<polygon fill="none" stroke="#000000" points="102.5,-213.2 102.5,-235.2 221.5,-235.2 221.5,-213.2 102.5,-213.2"/>
<text text-anchor="start" x="105.5" y="-220.9" font-family="Helvetica,sans-Serif" font-size="11.00" fill="#000000">float8[17,17]</text>
<polygon fill="none" stroke="#000000" points="10.5,-191.2 10.5,-213.2 102.5,-213.2 102.5,-191.2 10.5,-191.2"/>
<text text-anchor="start" x="30.5" y="-198.3" font-family="Helvetica,sans-Serif" font-size="11.00" fill="#000000">z</text>
<polygon fill="none" stroke="#000000" points="102.5,-191.2 102.5,-213.2 221.5,-213.2 221.5,-191.2 102.5,-191.2"/>
<text text-anchor="start" x="105.5" y="-198.9" font-family="Helvetica,sans-Serif" font-size="11.00" fill="#000000">float8[17,17]</text>
<polygon fill="none" stroke="#000000" points="10.5,-169.2 10.5,-191.2 102.5,-191.2 102.5,-169.2 10.5,-169.2"/>
<text text-anchor="start" x="30.5" y="-176.3" font-family="Helvetica,sans-Serif" font-size="11.00" fill="#000000">validate</text>
<polygon fill="none" stroke="#000000" points="102.5,-169.2 102.5,-191.2 221.5,-191.2 221.5,-169.2 102.5,-169.2"/>
<text text-anchor="start" x="105.5" y="-176.9" font-family="Helvetica,sans-Serif" font-size="11.00" fill="#000000">int4[10]</text>
<polygon fill="none" stroke="#000000" points="10.5,-147.2 10.5,-169.2 102.5,-169.2 102.5,-147.2 10.5,-147.2"/>
<text text-anchor="start" x="30.5" y="-154.3" font-family="Helvetica,sans-Serif" font-size="11.00" fill="#000000">comment</text>
<polygon fill="none" stroke="#000000" points="102.5,-147.2 102.5,-169.2 221.5,-169.2 221.5,-147.2 102.5,-147.2"/>
<text text-anchor="start" x="105.5" y="-154.9" font-family="Helvetica,sans-Serif" font-size="11.00" fill="#000000">text[2147483647]</text>
<polygon fill="none" stroke="#000000" points="10.5,-125.2 10.5,-147.2 102.5,-147.2 102.5,-125.2 10.5,-125.2"/>
<text text-anchor="start" x="30.5" y="-132.3" font-family="Helvetica,sans-Serif" font-size="11.00" fill="#000000">weir</text>
<polygon fill="none" stroke="#000000" points="102.5,-125.2 102.5,-147.2 221.5,-147.2 221.5,-125.2 102.5,-125.2"/>
<text text-anchor="start" x="105.5" y="-132.9" font-family="Helvetica,sans-Serif" font-size="11.00" fill="#000000">float8[17,17]</text>
<polygon fill="none" stroke="#000000" points="10.5,-103.2 10.5,-125.2 102.5,-125.2 102.5,-103.2 10.5,-103.2"/>
<text text-anchor="start" x="30.5" y="-110.3" font-family="Helvetica,sans-Serif" font-size="11.00" fill="#000000">adress</text>
<polygon fill="none" stroke="#000000" points="102.5,-103.2 102.5,-125.2 221.5,-125.2 221.5,-103.2 102.5,-103.2"/>
<text text-anchor="start" x="105.5" y="-110.9" font-family="Helvetica,sans-Serif" font-size="11.00" fill="#000000">text[2147483647]</text>
<polygon fill="none" stroke="#000000" points="10.5,-81.2 10.5,-103.2 102.5,-103.2 102.5,-81.2 10.5,-81.2"/>
<text text-anchor="start" x="30.5" y="-88.3" font-family="Helvetica,sans-Serif" font-size="11.00" fill="#000000">active</text>
<polygon fill="none" stroke="#000000" points="102.5,-81.2 102.5,-103.2 221.5,-103.2 221.5,-81.2 102.5,-81.2"/>
<text text-anchor="start" x="105.5" y="-88.9" font-family="Helvetica,sans-Serif" font-size="11.00" fill="#000000">bool[1]</text>
<polygon fill="none" stroke="#000000" points="10.5,-59.2 10.5,-81.2 102.5,-81.2 102.5,-59.2 10.5,-59.2"/>
<text text-anchor="start" x="30.5" y="-66.3" font-family="Helvetica,sans-Serif" font-size="11.00" fill="#000000">township</text>
<polygon fill="none" stroke="#000000" points="102.5,-59.2 102.5,-81.2 221.5,-81.2 221.5,-59.2 102.5,-59.2"/>
<text text-anchor="start" x="105.5" y="-66.9" font-family="Helvetica,sans-Serif" font-size="11.00" fill="#000000">varchar[30]</text>
<polygon fill="#ffffff" stroke="transparent" points="10.5,-40.2 10.5,-59.2 60.5,-59.2 60.5,-40.2 10.5,-40.2"/>
<polygon fill="none" stroke="#000000" points="10.5,-40.2 10.5,-59.2 60.5,-59.2 60.5,-40.2 10.5,-40.2"/>
<text text-anchor="start" x="13.5" y="-46.3" font-family="Helvetica,sans-Serif" font-size="11.00" fill="#000000">&lt; 0</text>
<polygon fill="#ffffff" stroke="transparent" points="60.5,-40.2 60.5,-59.2 102.5,-59.2 102.5,-40.2 60.5,-40.2"/>
<polygon fill="none" stroke="#000000" points="60.5,-40.2 60.5,-59.2 102.5,-59.2 102.5,-40.2 60.5,-40.2"/>
<text text-anchor="start" x="93.3862" y="-46.3" font-family="Helvetica,sans-Serif" font-size="11.00" fill="#000000"> &#160;</text>
<polygon fill="#ffffff" stroke="transparent" points="102.5,-40.2 102.5,-59.2 221.5,-59.2 221.5,-40.2 102.5,-40.2"/>
<polygon fill="none" stroke="#000000" points="102.5,-40.2 102.5,-59.2 221.5,-59.2 221.5,-40.2 102.5,-40.2"/>
<text text-anchor="start" x="202.9053" y="-46.3" font-family="Helvetica,sans-Serif" font-size="11.00" fill="#000000">0 &gt;</text>
<polygon fill="none" stroke="#000000" stroke-width="2" points="9,-39.2 9,-391.2 222,-391.2 222,-39.2 9,-39.2"/>
</a>
</g>
</g>
</g>
</svg>
