<?xml version="1.0" encoding="UTF-8" standalone="no"?>
<!DOCTYPE svg PUBLIC "-//W3C//DTD SVG 1.1//EN"
 "http://www.w3.org/Graphics/SVG/1.1/DTD/svg11.dtd">
<!-- Generated by graphviz version 2.40.1 (20161225.0304)
 -->
<!-- Title: oneDegreeRelationshipsDiagramImplied Pages: 1 -->
<svg width="365pt" height="404pt"
 viewBox="0.00 0.00 365.00 404.20" xmlns="http://www.w3.org/2000/svg" xmlns:xlink="http://www.w3.org/1999/xlink">
<g id="graph0" class="graph" transform="scale(1 1) rotate(0) translate(4 400.2)">
<title>oneDegreeRelationshipsDiagramImplied</title>
<polygon fill="#ffffff" stroke="transparent" points="-4,4 -4,-400.2 361,-400.2 361,4 -4,4"/>
<text text-anchor="middle" x="72.4936" y="-7.3" font-family="Helvetica,sans-Serif" font-size="11.00" fill="#000000">Generated by SchemaSpy</text>
<!-- flood_marks -->
<g id="node1" class="node">
<title>flood_marks</title>
<g id="a_node1"><a xlink:href="../../tables/flood_marks.html" xlink:title="flood_marks" target="_top">
<polygon fill="#ffffff" stroke="transparent" points="134,-38.2 134,-392.2 349,-392.2 349,-38.2 134,-38.2"/>
<polygon fill="#f5f5f5" stroke="transparent" points="136.5,-367.2 136.5,-390.2 347.5,-390.2 347.5,-367.2 136.5,-367.2"/>
<polygon fill="none" stroke="#000000" points="136.5,-367.2 136.5,-390.2 347.5,-390.2 347.5,-367.2 136.5,-367.2"/>
<text text-anchor="start" x="141.5" y="-375.8" font-family="Helvetica,sans-Serif" font-weight="bold" font-size="11.00" fill="#000000">flood_marks</text>
<text text-anchor="start" x="312.5437" y="-375.3" font-family="Helvetica,sans-Serif" font-size="11.00" fill="#000000">[table]</text>
<polygon fill="#ffffff" stroke="transparent" points="136.5,-345.2 136.5,-367.2 228.5,-367.2 228.5,-345.2 136.5,-345.2"/>
<polygon fill="none" stroke="#000000" points="136.5,-345.2 136.5,-367.2 228.5,-367.2 228.5,-345.2 136.5,-345.2"/>
<text text-anchor="start" x="156.5" y="-352.3" font-family="Helvetica,sans-Serif" font-size="11.00" fill="#000000">geom</text>
<polygon fill="none" stroke="#000000" points="228.5,-345.2 228.5,-367.2 347.5,-367.2 347.5,-345.2 228.5,-345.2"/>
<text text-anchor="start" x="231.4485" y="-352.9" font-family="Helvetica,sans-Serif" font-size="11.00" fill="#000000">geometry[2147483647]</text>
<polygon fill="none" stroke="#000000" points="136.5,-323.2 136.5,-345.2 228.5,-345.2 228.5,-323.2 136.5,-323.2"/>
<image xlink:href="../../images/primaryKeys.png" width="11px" height="12px" preserveAspectRatio="xMinYMin meet" x="141.5" y="-340.2"/>
<text text-anchor="start" x="156.5" y="-330.3" font-family="Helvetica,sans-Serif" font-size="11.00" fill="#000000">gid</text>
<polygon fill="none" stroke="#000000" points="228.5,-323.2 228.5,-345.2 347.5,-345.2 347.5,-323.2 228.5,-323.2"/>
<text text-anchor="start" x="231.5" y="-330.9" font-family="Helvetica,sans-Serif" font-size="11.00" fill="#000000">serial[10]</text>
<polygon fill="none" stroke="#000000" points="136.5,-301.2 136.5,-323.2 228.5,-323.2 228.5,-301.2 136.5,-301.2"/>
<image xlink:href="../../images/foreignKeys.png" width="11px" height="12px" preserveAspectRatio="xMinYMin meet" x="141.5" y="-318.2"/>
<text text-anchor="start" x="156.5" y="-308.3" font-family="Helvetica,sans-Serif" font-size="11.00" fill="#000000">name</text>
<polygon fill="none" stroke="#000000" points="228.5,-301.2 228.5,-323.2 347.5,-323.2 347.5,-301.2 228.5,-301.2"/>
<text text-anchor="start" x="231.5" y="-308.9" font-family="Helvetica,sans-Serif" font-size="11.00" fill="#000000">varchar[30]</text>
<polygon fill="none" stroke="#000000" points="136.5,-279.2 136.5,-301.2 228.5,-301.2 228.5,-279.2 136.5,-279.2"/>
<text text-anchor="start" x="156.5" y="-286.3" font-family="Helvetica,sans-Serif" font-size="11.00" fill="#000000">event</text>
<polygon fill="none" stroke="#000000" points="228.5,-279.2 228.5,-301.2 347.5,-301.2 347.5,-279.2 228.5,-279.2"/>
<text text-anchor="start" x="231.5" y="-286.9" font-family="Helvetica,sans-Serif" font-size="11.00" fill="#000000">varchar[30]</text>
<polygon fill="none" stroke="#000000" points="136.5,-257.2 136.5,-279.2 228.5,-279.2 228.5,-257.2 136.5,-257.2"/>
<text text-anchor="start" x="156.5" y="-264.3" font-family="Helvetica,sans-Serif" font-size="11.00" fill="#000000">branchnum</text>
<polygon fill="none" stroke="#000000" points="228.5,-257.2 228.5,-279.2 347.5,-279.2 347.5,-257.2 228.5,-257.2"/>
<text text-anchor="start" x="231.5" y="-264.9" font-family="Helvetica,sans-Serif" font-size="11.00" fill="#000000">int4[10]</text>
<polygon fill="none" stroke="#000000" points="136.5,-235.2 136.5,-257.2 228.5,-257.2 228.5,-235.2 136.5,-235.2"/>
<text text-anchor="start" x="156.5" y="-242.3" font-family="Helvetica,sans-Serif" font-size="11.00" fill="#000000">date</text>
<polygon fill="none" stroke="#000000" points="228.5,-235.2 228.5,-257.2 347.5,-257.2 347.5,-235.2 228.5,-235.2"/>
<text text-anchor="start" x="231.5" y="-242.9" font-family="Helvetica,sans-Serif" font-size="11.00" fill="#000000">date[13]</text>
<polygon fill="none" stroke="#000000" points="136.5,-213.2 136.5,-235.2 228.5,-235.2 228.5,-213.2 136.5,-213.2"/>
<text text-anchor="start" x="156.5" y="-220.3" font-family="Helvetica,sans-Serif" font-size="11.00" fill="#000000">abscissa</text>
<polygon fill="none" stroke="#000000" points="228.5,-213.2 228.5,-235.2 347.5,-235.2 347.5,-213.2 228.5,-213.2"/>
<text text-anchor="start" x="231.5" y="-220.9" font-family="Helvetica,sans-Serif" font-size="11.00" fill="#000000">float8[17,17]</text>
<polygon fill="none" stroke="#000000" points="136.5,-191.2 136.5,-213.2 228.5,-213.2 228.5,-191.2 136.5,-191.2"/>
<text text-anchor="start" x="156.5" y="-198.3" font-family="Helvetica,sans-Serif" font-size="11.00" fill="#000000">z</text>
<polygon fill="none" stroke="#000000" points="228.5,-191.2 228.5,-213.2 347.5,-213.2 347.5,-191.2 228.5,-191.2"/>
<text text-anchor="start" x="231.5" y="-198.9" font-family="Helvetica,sans-Serif" font-size="11.00" fill="#000000">float8[17,17]</text>
<polygon fill="none" stroke="#000000" points="136.5,-169.2 136.5,-191.2 228.5,-191.2 228.5,-169.2 136.5,-169.2"/>
<text text-anchor="start" x="156.5" y="-176.3" font-family="Helvetica,sans-Serif" font-size="11.00" fill="#000000">validate</text>
<polygon fill="none" stroke="#000000" points="228.5,-169.2 228.5,-191.2 347.5,-191.2 347.5,-169.2 228.5,-169.2"/>
<text text-anchor="start" x="231.5" y="-176.9" font-family="Helvetica,sans-Serif" font-size="11.00" fill="#000000">int4[10]</text>
<polygon fill="none" stroke="#000000" points="136.5,-147.2 136.5,-169.2 228.5,-169.2 228.5,-147.2 136.5,-147.2"/>
<text text-anchor="start" x="156.5" y="-154.3" font-family="Helvetica,sans-Serif" font-size="11.00" fill="#000000">comment</text>
<polygon fill="none" stroke="#000000" points="228.5,-147.2 228.5,-169.2 347.5,-169.2 347.5,-147.2 228.5,-147.2"/>
<text text-anchor="start" x="231.5" y="-154.9" font-family="Helvetica,sans-Serif" font-size="11.00" fill="#000000">text[2147483647]</text>
<polygon fill="none" stroke="#000000" points="136.5,-125.2 136.5,-147.2 228.5,-147.2 228.5,-125.2 136.5,-125.2"/>
<text text-anchor="start" x="156.5" y="-132.3" font-family="Helvetica,sans-Serif" font-size="11.00" fill="#000000">weir</text>
<polygon fill="none" stroke="#000000" points="228.5,-125.2 228.5,-147.2 347.5,-147.2 347.5,-125.2 228.5,-125.2"/>
<text text-anchor="start" x="231.5" y="-132.9" font-family="Helvetica,sans-Serif" font-size="11.00" fill="#000000">float8[17,17]</text>
<polygon fill="none" stroke="#000000" points="136.5,-103.2 136.5,-125.2 228.5,-125.2 228.5,-103.2 136.5,-103.2"/>
<text text-anchor="start" x="156.5" y="-110.3" font-family="Helvetica,sans-Serif" font-size="11.00" fill="#000000">adress</text>
<polygon fill="none" stroke="#000000" points="228.5,-103.2 228.5,-125.2 347.5,-125.2 347.5,-103.2 228.5,-103.2"/>
<text text-anchor="start" x="231.5" y="-110.9" font-family="Helvetica,sans-Serif" font-size="11.00" fill="#000000">text[2147483647]</text>
<polygon fill="none" stroke="#000000" points="136.5,-81.2 136.5,-103.2 228.5,-103.2 228.5,-81.2 136.5,-81.2"/>
<text text-anchor="start" x="156.5" y="-88.3" font-family="Helvetica,sans-Serif" font-size="11.00" fill="#000000">active</text>
<polygon fill="none" stroke="#000000" points="228.5,-81.2 228.5,-103.2 347.5,-103.2 347.5,-81.2 228.5,-81.2"/>
<text text-anchor="start" x="231.5" y="-88.9" font-family="Helvetica,sans-Serif" font-size="11.00" fill="#000000">bool[1]</text>
<polygon fill="none" stroke="#000000" points="136.5,-59.2 136.5,-81.2 228.5,-81.2 228.5,-59.2 136.5,-59.2"/>
<text text-anchor="start" x="156.5" y="-66.3" font-family="Helvetica,sans-Serif" font-size="11.00" fill="#000000">township</text>
<polygon fill="none" stroke="#000000" points="228.5,-59.2 228.5,-81.2 347.5,-81.2 347.5,-59.2 228.5,-59.2"/>
<text text-anchor="start" x="231.5" y="-66.9" font-family="Helvetica,sans-Serif" font-size="11.00" fill="#000000">varchar[30]</text>
<polygon fill="#ffffff" stroke="transparent" points="136.5,-40.2 136.5,-59.2 186.5,-59.2 186.5,-40.2 136.5,-40.2"/>
<polygon fill="none" stroke="#000000" points="136.5,-40.2 136.5,-59.2 186.5,-59.2 186.5,-40.2 136.5,-40.2"/>
<text text-anchor="start" x="139.5" y="-46.3" font-family="Helvetica,sans-Serif" font-size="11.00" fill="#000000">&lt; 1</text>
<polygon fill="#ffffff" stroke="transparent" points="186.5,-40.2 186.5,-59.2 228.5,-59.2 228.5,-40.2 186.5,-40.2"/>
<polygon fill="none" stroke="#000000" points="186.5,-40.2 186.5,-59.2 228.5,-59.2 228.5,-40.2 186.5,-40.2"/>
<text text-anchor="start" x="219.3862" y="-46.3" font-family="Helvetica,sans-Serif" font-size="11.00" fill="#000000"> &#160;</text>
<polygon fill="#ffffff" stroke="transparent" points="228.5,-40.2 228.5,-59.2 347.5,-59.2 347.5,-40.2 228.5,-40.2"/>
<polygon fill="none" stroke="#000000" points="228.5,-40.2 228.5,-59.2 347.5,-59.2 347.5,-40.2 228.5,-40.2"/>
<text text-anchor="start" x="328.9053" y="-46.3" font-family="Helvetica,sans-Serif" font-size="11.00" fill="#000000">0 &gt;</text>
<polygon fill="none" stroke="#000000" stroke-width="2" points="135,-39.2 135,-391.2 348,-391.2 348,-39.2 135,-39.2"/>
</a>
</g>
</g>
<!-- events -->
<g id="node2" class="node">
<title>events</title>
<g id="a_node2"><a xlink:href="../../tables/events.html" xlink:title="events" target="_top">
<polygon fill="#ffffff" stroke="transparent" points="8,-263.7 8,-346.7 85,-346.7 85,-263.7 8,-263.7"/>
<polygon fill="#f5f5f5" stroke="transparent" points="8.5,-323.2 8.5,-346.2 85.5,-346.2 85.5,-323.2 8.5,-323.2"/>
<polygon fill="none" stroke="#000000" points="8.5,-323.2 8.5,-346.2 85.5,-346.2 85.5,-323.2 8.5,-323.2"/>
<text text-anchor="start" x="13.5" y="-331.8" font-family="Helvetica,sans-Serif" font-weight="bold" font-size="11.00" fill="#000000">events</text>
<text text-anchor="start" x="51.0219" y="-331.3" font-family="Helvetica,sans-Serif" font-size="11.00" fill="#000000">[table]</text>
<polygon fill="none" stroke="#000000" points="8.5,-301.2 8.5,-323.2 85.5,-323.2 85.5,-301.2 8.5,-301.2"/>
<image xlink:href="../../images/primaryKeys.png" width="11px" height="12px" preserveAspectRatio="xMinYMin meet" x="13.5" y="-318.2"/>
<text text-anchor="start" x="31.5" y="-308.3" font-family="Helvetica,sans-Serif" font-size="11.00" fill="#000000">name</text>
<polygon fill="none" stroke="#000000" points="8.5,-282.2 8.5,-301.2 85.5,-301.2 85.5,-282.2 8.5,-282.2"/>
<text text-anchor="start" x="11.5" y="-288.3" font-family="Helvetica,sans-Serif" font-size="11.00" fill="#000000">...</text>
<polygon fill="#ffffff" stroke="transparent" points="8.5,-263.2 8.5,-282.2 33.5,-282.2 33.5,-263.2 8.5,-263.2"/>
<polygon fill="none" stroke="#000000" points="8.5,-263.2 8.5,-282.2 33.5,-282.2 33.5,-263.2 8.5,-263.2"/>
<text text-anchor="start" x="11.5" y="-269.3" font-family="Helvetica,sans-Serif" font-size="11.00" fill="#000000"> &#160;</text>
<polygon fill="#ffffff" stroke="transparent" points="33.5,-263.2 33.5,-282.2 51.5,-282.2 51.5,-263.2 33.5,-263.2"/>
<polygon fill="none" stroke="#000000" points="33.5,-263.2 33.5,-282.2 51.5,-282.2 51.5,-263.2 33.5,-263.2"/>
<text text-anchor="start" x="42.3862" y="-269.3" font-family="Helvetica,sans-Serif" font-size="11.00" fill="#000000"> &#160;</text>
<polygon fill="#ffffff" stroke="transparent" points="51.5,-263.2 51.5,-282.2 85.5,-282.2 85.5,-263.2 51.5,-263.2"/>
<polygon fill="none" stroke="#000000" points="51.5,-263.2 51.5,-282.2 85.5,-282.2 85.5,-263.2 51.5,-263.2"/>
<text text-anchor="start" x="60.7904" y="-269.3" font-family="Helvetica,sans-Serif" font-size="11.00" fill="#000000">16 &gt;</text>
</a>
</g>
</g>
<!-- flood_marks&#45;&gt;events -->
<g id="edge1" class="edge">
<title>flood_marks:w&#45;&gt;events:e</title>
<path fill="none" stroke="#000000" stroke-dasharray="5,2" d="M121.776,-312.2C109.7815,-312.2 102.3229,-312.2 85.5,-312.2"/>
<polygon fill="#000000" stroke="#000000" points="128.5,-312.2001 136.5,-315.8 132.5,-312.2 136.5,-312.2 136.5,-312.2 136.5,-312.2 132.5,-312.2 136.5,-308.6 128.5,-312.2001 128.5,-312.2001"/>
<ellipse fill="none" stroke="#000000" cx="125.3" cy="-312.2001" rx="3.2" ry="3.2"/>
</g>
</g>
</svg>
