<?xml version="1.0" encoding="UTF-8" standalone="no"?>
<!DOCTYPE svg PUBLIC "-//W3C//DTD SVG 1.1//EN"
 "http://www.w3.org/Graphics/SVG/1.1/DTD/svg11.dtd">
<!-- Generated by graphviz version 2.40.1 (20161225.0304)
 -->
<!-- Title: twoDegreesRelationshipsDiagramImplied Pages: 1 -->
<svg width="382pt" height="1481pt"
 viewBox="0.00 0.00 382.00 1481.20" xmlns="http://www.w3.org/2000/svg" xmlns:xlink="http://www.w3.org/1999/xlink">
<g id="graph0" class="graph" transform="scale(1 1) rotate(0) translate(4 1477.2)">
<title>twoDegreesRelationshipsDiagramImplied</title>
<polygon fill="#ffffff" stroke="transparent" points="-4,4 -4,-1477.2 378,-1477.2 378,4 -4,4"/>
<text text-anchor="middle" x="72.4936" y="-7.3" font-family="Helvetica,sans-Serif" font-size="11.00" fill="#000000">Generated by SchemaSpy</text>
<!-- basins -->
<g id="node1" class="node">
<title>basins</title>
<g id="a_node1"><a xlink:href="../../tables/basins.html" xlink:title="basins" target="_top">
<polygon fill="#ffffff" stroke="transparent" points="211.5,-1408.2 211.5,-1469.2 288.5,-1469.2 288.5,-1408.2 211.5,-1408.2"/>
<polygon fill="#f5f5f5" stroke="transparent" points="212,-1445.7 212,-1468.7 289,-1468.7 289,-1445.7 212,-1445.7"/>
<polygon fill="none" stroke="#000000" points="212,-1445.7 212,-1468.7 289,-1468.7 289,-1445.7 212,-1445.7"/>
<text text-anchor="start" x="217" y="-1454.3" font-family="Helvetica,sans-Serif" font-weight="bold" font-size="11.00" fill="#000000">basins</text>
<text text-anchor="start" x="254.5219" y="-1453.8" font-family="Helvetica,sans-Serif" font-size="11.00" fill="#000000">[table]</text>
<polygon fill="none" stroke="#000000" points="212,-1426.7 212,-1445.7 289,-1445.7 289,-1426.7 212,-1426.7"/>
<text text-anchor="start" x="215" y="-1432.8" font-family="Helvetica,sans-Serif" font-size="11.00" fill="#000000">...</text>
<polygon fill="#ffffff" stroke="transparent" points="212,-1407.7 212,-1426.7 249,-1426.7 249,-1407.7 212,-1407.7"/>
<polygon fill="none" stroke="#000000" points="212,-1407.7 212,-1426.7 249,-1426.7 249,-1407.7 212,-1407.7"/>
<text text-anchor="start" x="215" y="-1413.8" font-family="Helvetica,sans-Serif" font-size="11.00" fill="#000000">&lt; 1</text>
<polygon fill="#ffffff" stroke="transparent" points="249,-1407.7 249,-1426.7 269,-1426.7 269,-1407.7 249,-1407.7"/>
<polygon fill="none" stroke="#000000" points="249,-1407.7 249,-1426.7 269,-1426.7 269,-1407.7 249,-1407.7"/>
<text text-anchor="start" x="259.8862" y="-1413.8" font-family="Helvetica,sans-Serif" font-size="11.00" fill="#000000"> &#160;</text>
<polygon fill="#ffffff" stroke="transparent" points="269,-1407.7 269,-1426.7 289,-1426.7 289,-1407.7 269,-1407.7"/>
<polygon fill="none" stroke="#000000" points="269,-1407.7 269,-1426.7 289,-1426.7 289,-1407.7 269,-1407.7"/>
<text text-anchor="start" x="279.8862" y="-1413.8" font-family="Helvetica,sans-Serif" font-size="11.00" fill="#000000"> &#160;</text>
</a>
</g>
</g>
<!-- events -->
<g id="node2" class="node">
<title>events</title>
<g id="a_node2"><a xlink:href="../../tables/events.html" xlink:title="events" target="_top">
<polygon fill="#ffffff" stroke="transparent" points="8,-632.2 8,-715.2 85,-715.2 85,-632.2 8,-632.2"/>
<polygon fill="#f5f5f5" stroke="transparent" points="8.5,-691.7 8.5,-714.7 85.5,-714.7 85.5,-691.7 8.5,-691.7"/>
<polygon fill="none" stroke="#000000" points="8.5,-691.7 8.5,-714.7 85.5,-714.7 85.5,-691.7 8.5,-691.7"/>
<text text-anchor="start" x="13.5" y="-700.3" font-family="Helvetica,sans-Serif" font-weight="bold" font-size="11.00" fill="#000000">events</text>
<text text-anchor="start" x="51.0219" y="-699.8" font-family="Helvetica,sans-Serif" font-size="11.00" fill="#000000">[table]</text>
<polygon fill="none" stroke="#000000" points="8.5,-669.7 8.5,-691.7 85.5,-691.7 85.5,-669.7 8.5,-669.7"/>
<image xlink:href="../../images/primaryKeys.png" width="11px" height="12px" preserveAspectRatio="xMinYMin meet" x="13.5" y="-686.7"/>
<text text-anchor="start" x="31.5" y="-676.8" font-family="Helvetica,sans-Serif" font-size="11.00" fill="#000000">name</text>
<polygon fill="none" stroke="#000000" points="8.5,-650.7 8.5,-669.7 85.5,-669.7 85.5,-650.7 8.5,-650.7"/>
<text text-anchor="start" x="11.5" y="-656.8" font-family="Helvetica,sans-Serif" font-size="11.00" fill="#000000">...</text>
<polygon fill="#ffffff" stroke="transparent" points="8.5,-631.7 8.5,-650.7 33.5,-650.7 33.5,-631.7 8.5,-631.7"/>
<polygon fill="none" stroke="#000000" points="8.5,-631.7 8.5,-650.7 33.5,-650.7 33.5,-631.7 8.5,-631.7"/>
<text text-anchor="start" x="11.5" y="-637.8" font-family="Helvetica,sans-Serif" font-size="11.00" fill="#000000"> &#160;</text>
<polygon fill="#ffffff" stroke="transparent" points="33.5,-631.7 33.5,-650.7 51.5,-650.7 51.5,-631.7 33.5,-631.7"/>
<polygon fill="none" stroke="#000000" points="33.5,-631.7 33.5,-650.7 51.5,-650.7 51.5,-631.7 33.5,-631.7"/>
<text text-anchor="start" x="42.3862" y="-637.8" font-family="Helvetica,sans-Serif" font-size="11.00" fill="#000000"> &#160;</text>
<polygon fill="#ffffff" stroke="transparent" points="51.5,-631.7 51.5,-650.7 85.5,-650.7 85.5,-631.7 51.5,-631.7"/>
<polygon fill="none" stroke="#000000" points="51.5,-631.7 51.5,-650.7 85.5,-650.7 85.5,-631.7 51.5,-631.7"/>
<text text-anchor="start" x="60.7904" y="-637.8" font-family="Helvetica,sans-Serif" font-size="11.00" fill="#000000">16 &gt;</text>
</a>
</g>
</g>
<!-- basins&#45;&gt;events -->
<g id="edge1" class="edge">
<title>basins:w&#45;&gt;events:e</title>
<path fill="none" stroke="#000000" stroke-dasharray="5,2" d="M201.2364,-1435.5921C166.5154,-1434.7974 147.6498,-1428.9696 126,-1397.7 80.5784,-1332.0958 165.2937,-680.7 85.5,-680.7"/>
<polygon fill="#000000" stroke="#000000" points="211.2402,-1431.6922 211.1599,-1439.6918 209.56,-1439.6757 209.6402,-1431.6761 211.2402,-1431.6922"/>
<polyline fill="none" stroke="#000000" points="212,-1435.7 208.0002,-1435.6599 "/>
<ellipse fill="none" stroke="#000000" cx="204.8004" cy="-1435.6278" rx="3.2" ry="3.2"/>
</g>
<!-- extremities -->
<g id="node3" class="node">
<title>extremities</title>
<g id="a_node3"><a xlink:href="../../tables/extremities.html" xlink:title="extremities" target="_top">
<polygon fill="#ffffff" stroke="transparent" points="199,-1326.2 199,-1387.2 301,-1387.2 301,-1326.2 199,-1326.2"/>
<polygon fill="#f5f5f5" stroke="transparent" points="199,-1363.7 199,-1386.7 301,-1386.7 301,-1363.7 199,-1363.7"/>
<polygon fill="none" stroke="#000000" points="199,-1363.7 199,-1386.7 301,-1386.7 301,-1363.7 199,-1363.7"/>
<text text-anchor="start" x="204" y="-1372.3" font-family="Helvetica,sans-Serif" font-weight="bold" font-size="11.00" fill="#000000">extremities</text>
<text text-anchor="start" x="266.5219" y="-1371.8" font-family="Helvetica,sans-Serif" font-size="11.00" fill="#000000">[table]</text>
<polygon fill="none" stroke="#000000" points="199,-1344.7 199,-1363.7 301,-1363.7 301,-1344.7 199,-1344.7"/>
<text text-anchor="start" x="202" y="-1350.8" font-family="Helvetica,sans-Serif" font-size="11.00" fill="#000000">...</text>
<polygon fill="#ffffff" stroke="transparent" points="199,-1325.7 199,-1344.7 244,-1344.7 244,-1325.7 199,-1325.7"/>
<polygon fill="none" stroke="#000000" points="199,-1325.7 199,-1344.7 244,-1344.7 244,-1325.7 199,-1325.7"/>
<text text-anchor="start" x="202" y="-1331.8" font-family="Helvetica,sans-Serif" font-size="11.00" fill="#000000">&lt; 1</text>
<polygon fill="#ffffff" stroke="transparent" points="244,-1325.7 244,-1344.7 268,-1344.7 268,-1325.7 244,-1325.7"/>
<polygon fill="none" stroke="#000000" points="244,-1325.7 244,-1344.7 268,-1344.7 268,-1325.7 244,-1325.7"/>
<text text-anchor="start" x="258.8862" y="-1331.8" font-family="Helvetica,sans-Serif" font-size="11.00" fill="#000000"> &#160;</text>
<polygon fill="#ffffff" stroke="transparent" points="268,-1325.7 268,-1344.7 301,-1344.7 301,-1325.7 268,-1325.7"/>
<polygon fill="none" stroke="#000000" points="268,-1325.7 268,-1344.7 301,-1344.7 301,-1325.7 268,-1325.7"/>
<text text-anchor="start" x="282.4053" y="-1331.8" font-family="Helvetica,sans-Serif" font-size="11.00" fill="#000000">1 &gt;</text>
</a>
</g>
</g>
<!-- extremities&#45;&gt;events -->
<g id="edge2" class="edge">
<title>extremities:w&#45;&gt;events:e</title>
<path fill="none" stroke="#000000" stroke-dasharray="5,2" d="M188.4532,-1353.4558C159.0432,-1351.9667 143.9341,-1343.237 126,-1315.7 87.4169,-1256.4574 156.1989,-680.7 85.5,-680.7"/>
<polygon fill="#000000" stroke="#000000" points="198.2928,-1349.6825 198.1076,-1357.6804 196.508,-1357.6434 196.6933,-1349.6455 198.2928,-1349.6825"/>
<polyline fill="none" stroke="#000000" points="199,-1353.7 195.0011,-1353.6074 "/>
<ellipse fill="none" stroke="#000000" cx="191.8019" cy="-1353.5333" rx="3.2" ry="3.2"/>
</g>
<!-- flood_marks -->
<g id="node4" class="node">
<title>flood_marks</title>
<g id="a_node4"><a xlink:href="../../tables/flood_marks.html" xlink:title="flood_marks" target="_top">
<polygon fill="#ffffff" stroke="transparent" points="195,-1244.2 195,-1305.2 305,-1305.2 305,-1244.2 195,-1244.2"/>
<polygon fill="#f5f5f5" stroke="transparent" points="195,-1281.7 195,-1304.7 305,-1304.7 305,-1281.7 195,-1281.7"/>
<polygon fill="none" stroke="#000000" points="195,-1281.7 195,-1304.7 305,-1304.7 305,-1281.7 195,-1281.7"/>
<text text-anchor="start" x="200" y="-1290.3" font-family="Helvetica,sans-Serif" font-weight="bold" font-size="11.00" fill="#000000">flood_marks</text>
<text text-anchor="start" x="270.5219" y="-1289.8" font-family="Helvetica,sans-Serif" font-size="11.00" fill="#000000">[table]</text>
<polygon fill="none" stroke="#000000" points="195,-1262.7 195,-1281.7 305,-1281.7 305,-1262.7 195,-1262.7"/>
<text text-anchor="start" x="198" y="-1268.8" font-family="Helvetica,sans-Serif" font-size="11.00" fill="#000000">...</text>
<polygon fill="#ffffff" stroke="transparent" points="195,-1243.7 195,-1262.7 248,-1262.7 248,-1243.7 195,-1243.7"/>
<polygon fill="none" stroke="#000000" points="195,-1243.7 195,-1262.7 248,-1262.7 248,-1243.7 195,-1243.7"/>
<text text-anchor="start" x="198" y="-1249.8" font-family="Helvetica,sans-Serif" font-size="11.00" fill="#000000">&lt; 1</text>
<polygon fill="#ffffff" stroke="transparent" points="248,-1243.7 248,-1262.7 276,-1262.7 276,-1243.7 248,-1243.7"/>
<polygon fill="none" stroke="#000000" points="248,-1243.7 248,-1262.7 276,-1262.7 276,-1243.7 248,-1243.7"/>
<text text-anchor="start" x="266.8862" y="-1249.8" font-family="Helvetica,sans-Serif" font-size="11.00" fill="#000000"> &#160;</text>
<polygon fill="#ffffff" stroke="transparent" points="276,-1243.7 276,-1262.7 305,-1262.7 305,-1243.7 276,-1243.7"/>
<polygon fill="none" stroke="#000000" points="276,-1243.7 276,-1262.7 305,-1262.7 305,-1243.7 276,-1243.7"/>
<text text-anchor="start" x="295.8862" y="-1249.8" font-family="Helvetica,sans-Serif" font-size="11.00" fill="#000000"> &#160;</text>
</a>
</g>
</g>
<!-- flood_marks&#45;&gt;events -->
<g id="edge3" class="edge">
<title>flood_marks:w&#45;&gt;events:e</title>
<path fill="none" stroke="#000000" stroke-dasharray="5,2" d="M180.3025,-1271.0622C155.304,-1268.615 142.0205,-1258.6804 126,-1233.7 92.7408,-1181.8397 147.109,-680.7 85.5,-680.7"/>
<polygon fill="#000000" stroke="#000000" points="187.0075,-1271.3531 194.8439,-1275.2966 191.0038,-1271.5266 195,-1271.7 195,-1271.7 195,-1271.7 191.0038,-1271.5266 195.1561,-1268.1034 187.0075,-1271.3531 187.0075,-1271.3531"/>
<ellipse fill="none" stroke="#000000" cx="183.8105" cy="-1271.2144" rx="3.2" ry="3.2"/>
</g>
<!-- hydraulic_head -->
<g id="node5" class="node">
<title>hydraulic_head</title>
<g id="a_node5"><a xlink:href="../../tables/hydraulic_head.html" xlink:title="hydraulic_head" target="_top">
<polygon fill="#ffffff" stroke="transparent" points="134,-1022.7 134,-1222.7 366,-1222.7 366,-1022.7 134,-1022.7"/>
<polygon fill="#f5f5f5" stroke="transparent" points="136,-1197.7 136,-1220.7 364,-1220.7 364,-1197.7 136,-1197.7"/>
<polygon fill="none" stroke="#000000" points="136,-1197.7 136,-1220.7 364,-1220.7 364,-1197.7 136,-1197.7"/>
<text text-anchor="start" x="141" y="-1206.3" font-family="Helvetica,sans-Serif" font-weight="bold" font-size="11.00" fill="#000000">hydraulic_head</text>
<text text-anchor="start" x="329.0437" y="-1205.8" font-family="Helvetica,sans-Serif" font-size="11.00" fill="#000000">[table]</text>
<polygon fill="#ffffff" stroke="transparent" points="136,-1175.7 136,-1197.7 245,-1197.7 245,-1175.7 136,-1175.7"/>
<polygon fill="none" stroke="#000000" points="136,-1175.7 136,-1197.7 245,-1197.7 245,-1175.7 136,-1175.7"/>
<text text-anchor="start" x="156" y="-1182.8" font-family="Helvetica,sans-Serif" font-size="11.00" fill="#000000">geom</text>
<polygon fill="none" stroke="#000000" points="245,-1175.7 245,-1197.7 364,-1197.7 364,-1175.7 245,-1175.7"/>
<text text-anchor="start" x="247.9485" y="-1183.4" font-family="Helvetica,sans-Serif" font-size="11.00" fill="#000000">geometry[2147483647]</text>
<polygon fill="none" stroke="#000000" points="136,-1153.7 136,-1175.7 245,-1175.7 245,-1153.7 136,-1153.7"/>
<image xlink:href="../../images/primaryKeys.png" width="11px" height="12px" preserveAspectRatio="xMinYMin meet" x="141" y="-1170.7"/>
<text text-anchor="start" x="156" y="-1160.8" font-family="Helvetica,sans-Serif" font-size="11.00" fill="#000000">gid</text>
<polygon fill="none" stroke="#000000" points="245,-1153.7 245,-1175.7 364,-1175.7 364,-1153.7 245,-1153.7"/>
<text text-anchor="start" x="248" y="-1161.4" font-family="Helvetica,sans-Serif" font-size="11.00" fill="#000000">serial[10]</text>
<polygon fill="none" stroke="#000000" points="136,-1131.7 136,-1153.7 245,-1153.7 245,-1131.7 136,-1131.7"/>
<image xlink:href="../../images/foreignKeys.png" width="11px" height="12px" preserveAspectRatio="xMinYMin meet" x="141" y="-1148.7"/>
<text text-anchor="start" x="156" y="-1138.8" font-family="Helvetica,sans-Serif" font-size="11.00" fill="#000000">name</text>
<polygon fill="none" stroke="#000000" points="245,-1131.7 245,-1153.7 364,-1153.7 364,-1131.7 245,-1131.7"/>
<text text-anchor="start" x="248" y="-1139.4" font-family="Helvetica,sans-Serif" font-size="11.00" fill="#000000">varchar[30]</text>
<polygon fill="none" stroke="#000000" points="136,-1109.7 136,-1131.7 245,-1131.7 245,-1109.7 136,-1109.7"/>
<text text-anchor="start" x="156" y="-1116.8" font-family="Helvetica,sans-Serif" font-size="11.00" fill="#000000">branchnum</text>
<polygon fill="none" stroke="#000000" points="245,-1109.7 245,-1131.7 364,-1131.7 364,-1109.7 245,-1109.7"/>
<text text-anchor="start" x="248" y="-1117.4" font-family="Helvetica,sans-Serif" font-size="11.00" fill="#000000">int4[10]</text>
<polygon fill="none" stroke="#000000" points="136,-1087.7 136,-1109.7 245,-1109.7 245,-1087.7 136,-1087.7"/>
<text text-anchor="start" x="156" y="-1094.8" font-family="Helvetica,sans-Serif" font-size="11.00" fill="#000000">abscissa</text>
<polygon fill="none" stroke="#000000" points="245,-1087.7 245,-1109.7 364,-1109.7 364,-1087.7 245,-1087.7"/>
<text text-anchor="start" x="248" y="-1095.4" font-family="Helvetica,sans-Serif" font-size="11.00" fill="#000000">float8[17,17]</text>
<polygon fill="none" stroke="#000000" points="136,-1065.7 136,-1087.7 245,-1087.7 245,-1065.7 136,-1065.7"/>
<text text-anchor="start" x="156" y="-1072.8" font-family="Helvetica,sans-Serif" font-size="11.00" fill="#000000">coeff</text>
<polygon fill="none" stroke="#000000" points="245,-1065.7 245,-1087.7 364,-1087.7 364,-1065.7 245,-1065.7"/>
<text text-anchor="start" x="248" y="-1073.4" font-family="Helvetica,sans-Serif" font-size="11.00" fill="#000000">float8[17,17]</text>
<polygon fill="none" stroke="#000000" points="136,-1043.7 136,-1065.7 245,-1065.7 245,-1043.7 136,-1043.7"/>
<text text-anchor="start" x="156" y="-1050.8" font-family="Helvetica,sans-Serif" font-size="11.00" fill="#000000">active</text>
<polygon fill="none" stroke="#000000" points="245,-1043.7 245,-1065.7 364,-1065.7 364,-1043.7 245,-1043.7"/>
<text text-anchor="start" x="248" y="-1051.4" font-family="Helvetica,sans-Serif" font-size="11.00" fill="#000000">bool[1]</text>
<polygon fill="#ffffff" stroke="transparent" points="136,-1024.7 136,-1043.7 195,-1043.7 195,-1024.7 136,-1024.7"/>
<polygon fill="none" stroke="#000000" points="136,-1024.7 136,-1043.7 195,-1043.7 195,-1024.7 136,-1024.7"/>
<text text-anchor="start" x="139" y="-1030.8" font-family="Helvetica,sans-Serif" font-size="11.00" fill="#000000">&lt; 1</text>
<polygon fill="#ffffff" stroke="transparent" points="195,-1024.7 195,-1043.7 245,-1043.7 245,-1024.7 195,-1024.7"/>
<polygon fill="none" stroke="#000000" points="195,-1024.7 195,-1043.7 245,-1043.7 245,-1024.7 195,-1024.7"/>
<text text-anchor="start" x="235.8862" y="-1030.8" font-family="Helvetica,sans-Serif" font-size="11.00" fill="#000000"> &#160;</text>
<polygon fill="#ffffff" stroke="transparent" points="245,-1024.7 245,-1043.7 364,-1043.7 364,-1024.7 245,-1024.7"/>
<polygon fill="none" stroke="#000000" points="245,-1024.7 245,-1043.7 364,-1043.7 364,-1024.7 245,-1024.7"/>
<text text-anchor="start" x="345.4053" y="-1030.8" font-family="Helvetica,sans-Serif" font-size="11.00" fill="#000000">0 &gt;</text>
<polygon fill="none" stroke="#000000" stroke-width="2" points="135,-1023.7 135,-1221.7 365,-1221.7 365,-1023.7 135,-1023.7"/>
</a>
</g>
</g>
<!-- hydraulic_head&#45;&gt;events -->
<g id="edge4" class="edge">
<title>hydraulic_head:w&#45;&gt;events:e</title>
<path fill="none" stroke="#000000" stroke-dasharray="5,2" d="M121.7486,-1138.9812C48.4597,-1095.2582 183.3319,-680.7 85.5,-680.7"/>
<polygon fill="#000000" stroke="#000000" points="128.2592,-1140.68 135.091,-1146.1834 132.1296,-1141.69 136,-1142.7 136,-1142.7 136,-1142.7 132.1296,-1141.69 136.909,-1139.2166 128.2592,-1140.68 128.2592,-1140.68"/>
<ellipse fill="none" stroke="#000000" cx="125.1629" cy="-1139.8721" rx="3.2" ry="3.2"/>
</g>
<!-- init_conc_config -->
<g id="node6" class="node">
<title>init_conc_config</title>
<g id="a_node6"><a xlink:href="../../tables/init_conc_config.html" xlink:title="init_conc_config" target="_top">
<polygon fill="#ffffff" stroke="transparent" points="183,-940.2 183,-1001.2 317,-1001.2 317,-940.2 183,-940.2"/>
<polygon fill="#f5f5f5" stroke="transparent" points="183,-977.7 183,-1000.7 317,-1000.7 317,-977.7 183,-977.7"/>
<polygon fill="none" stroke="#000000" points="183,-977.7 183,-1000.7 317,-1000.7 317,-977.7 183,-977.7"/>
<text text-anchor="start" x="188" y="-986.3" font-family="Helvetica,sans-Serif" font-weight="bold" font-size="11.00" fill="#000000">init_conc_config</text>
<text text-anchor="start" x="282.5219" y="-985.8" font-family="Helvetica,sans-Serif" font-size="11.00" fill="#000000">[table]</text>
<polygon fill="none" stroke="#000000" points="183,-958.7 183,-977.7 317,-977.7 317,-958.7 183,-958.7"/>
<text text-anchor="start" x="186" y="-964.8" font-family="Helvetica,sans-Serif" font-size="11.00" fill="#000000">...</text>
<polygon fill="#ffffff" stroke="transparent" points="183,-939.7 183,-958.7 248,-958.7 248,-939.7 183,-939.7"/>
<polygon fill="none" stroke="#000000" points="183,-939.7 183,-958.7 248,-958.7 248,-939.7 183,-939.7"/>
<text text-anchor="start" x="186" y="-945.8" font-family="Helvetica,sans-Serif" font-size="11.00" fill="#000000">&lt; 1</text>
<polygon fill="#ffffff" stroke="transparent" points="248,-939.7 248,-958.7 282,-958.7 282,-939.7 248,-939.7"/>
<polygon fill="none" stroke="#000000" points="248,-939.7 248,-958.7 282,-958.7 282,-939.7 248,-939.7"/>
<text text-anchor="start" x="272.8862" y="-945.8" font-family="Helvetica,sans-Serif" font-size="11.00" fill="#000000"> &#160;</text>
<polygon fill="#ffffff" stroke="transparent" points="282,-939.7 282,-958.7 317,-958.7 317,-939.7 282,-939.7"/>
<polygon fill="none" stroke="#000000" points="282,-939.7 282,-958.7 317,-958.7 317,-939.7 282,-939.7"/>
<text text-anchor="start" x="307.8862" y="-945.8" font-family="Helvetica,sans-Serif" font-size="11.00" fill="#000000"> &#160;</text>
</a>
</g>
</g>
<!-- init_conc_config&#45;&gt;events -->
<g id="edge5" class="edge">
<title>init_conc_config:w&#45;&gt;events:e</title>
<path fill="none" stroke="#000000" stroke-dasharray="5,2" d="M168.4055,-966.4943C148.7267,-962.8176 139.5202,-950.7001 126,-929.7 95.6529,-882.5637 141.5605,-680.7 85.5,-680.7"/>
<polygon fill="#000000" stroke="#000000" points="175.0272,-967.0413 182.7036,-971.2878 179.0136,-967.3706 183,-967.7 183,-967.7 183,-967.7 179.0136,-967.3706 183.2964,-964.1122 175.0272,-967.0413 175.0272,-967.0413"/>
<ellipse fill="none" stroke="#000000" cx="171.838" cy="-966.7778" rx="3.2" ry="3.2"/>
</g>
<!-- lateral_inflows -->
<g id="node7" class="node">
<title>lateral_inflows</title>
<g id="a_node7"><a xlink:href="../../tables/lateral_inflows.html" xlink:title="lateral_inflows" target="_top">
<polygon fill="#ffffff" stroke="transparent" points="189,-858.2 189,-919.2 311,-919.2 311,-858.2 189,-858.2"/>
<polygon fill="#f5f5f5" stroke="transparent" points="189,-895.7 189,-918.7 311,-918.7 311,-895.7 189,-895.7"/>
<polygon fill="none" stroke="#000000" points="189,-895.7 189,-918.7 311,-918.7 311,-895.7 189,-895.7"/>
<text text-anchor="start" x="194" y="-904.3" font-family="Helvetica,sans-Serif" font-weight="bold" font-size="11.00" fill="#000000">lateral_inflows</text>
<text text-anchor="start" x="276.5219" y="-903.8" font-family="Helvetica,sans-Serif" font-size="11.00" fill="#000000">[table]</text>
<polygon fill="none" stroke="#000000" points="189,-876.7 189,-895.7 311,-895.7 311,-876.7 189,-876.7"/>
<text text-anchor="start" x="192" y="-882.8" font-family="Helvetica,sans-Serif" font-size="11.00" fill="#000000">...</text>
<polygon fill="#ffffff" stroke="transparent" points="189,-857.7 189,-876.7 248,-876.7 248,-857.7 189,-857.7"/>
<polygon fill="none" stroke="#000000" points="189,-857.7 189,-876.7 248,-876.7 248,-857.7 189,-857.7"/>
<text text-anchor="start" x="192" y="-863.8" font-family="Helvetica,sans-Serif" font-size="11.00" fill="#000000">&lt; 1</text>
<polygon fill="#ffffff" stroke="transparent" points="248,-857.7 248,-876.7 279,-876.7 279,-857.7 248,-857.7"/>
<polygon fill="none" stroke="#000000" points="248,-857.7 248,-876.7 279,-876.7 279,-857.7 248,-857.7"/>
<text text-anchor="start" x="269.8862" y="-863.8" font-family="Helvetica,sans-Serif" font-size="11.00" fill="#000000"> &#160;</text>
<polygon fill="#ffffff" stroke="transparent" points="279,-857.7 279,-876.7 311,-876.7 311,-857.7 279,-857.7"/>
<polygon fill="none" stroke="#000000" points="279,-857.7 279,-876.7 311,-876.7 311,-857.7 279,-857.7"/>
<text text-anchor="start" x="301.8862" y="-863.8" font-family="Helvetica,sans-Serif" font-size="11.00" fill="#000000"> &#160;</text>
</a>
</g>
</g>
<!-- lateral_inflows&#45;&gt;events -->
<g id="edge6" class="edge">
<title>lateral_inflows:w&#45;&gt;events:e</title>
<path fill="none" stroke="#000000" stroke-dasharray="5,2" d="M174.5285,-884.7468C152.4797,-881.4856 142.1698,-869.7388 126,-847.7 80.8209,-786.1225 161.8737,-680.7 85.5,-680.7"/>
<polygon fill="#000000" stroke="#000000" points="181.0173,-885.1741 188.7634,-889.2922 185.0086,-885.4371 189,-885.7 189,-885.7 189,-885.7 185.0086,-885.4371 189.2366,-882.1078 181.0173,-885.1741 181.0173,-885.1741"/>
<ellipse fill="none" stroke="#000000" cx="177.8242" cy="-884.9638" rx="3.2" ry="3.2"/>
</g>
<!-- lateral_weirs -->
<g id="node8" class="node">
<title>lateral_weirs</title>
<g id="a_node8"><a xlink:href="../../tables/lateral_weirs.html" xlink:title="lateral_weirs" target="_top">
<polygon fill="#ffffff" stroke="transparent" points="194.5,-776.2 194.5,-837.2 305.5,-837.2 305.5,-776.2 194.5,-776.2"/>
<polygon fill="#f5f5f5" stroke="transparent" points="195,-813.7 195,-836.7 306,-836.7 306,-813.7 195,-813.7"/>
<polygon fill="none" stroke="#000000" points="195,-813.7 195,-836.7 306,-836.7 306,-813.7 195,-813.7"/>
<text text-anchor="start" x="200" y="-822.3" font-family="Helvetica,sans-Serif" font-weight="bold" font-size="11.00" fill="#000000">lateral_weirs</text>
<text text-anchor="start" x="271.5219" y="-821.8" font-family="Helvetica,sans-Serif" font-size="11.00" fill="#000000">[table]</text>
<polygon fill="none" stroke="#000000" points="195,-794.7 195,-813.7 306,-813.7 306,-794.7 195,-794.7"/>
<text text-anchor="start" x="198" y="-800.8" font-family="Helvetica,sans-Serif" font-size="11.00" fill="#000000">...</text>
<polygon fill="#ffffff" stroke="transparent" points="195,-775.7 195,-794.7 249,-794.7 249,-775.7 195,-775.7"/>
<polygon fill="none" stroke="#000000" points="195,-775.7 195,-794.7 249,-794.7 249,-775.7 195,-775.7"/>
<text text-anchor="start" x="198" y="-781.8" font-family="Helvetica,sans-Serif" font-size="11.00" fill="#000000">&lt; 1</text>
<polygon fill="#ffffff" stroke="transparent" points="249,-775.7 249,-794.7 277,-794.7 277,-775.7 249,-775.7"/>
<polygon fill="none" stroke="#000000" points="249,-775.7 249,-794.7 277,-794.7 277,-775.7 249,-775.7"/>
<text text-anchor="start" x="267.8862" y="-781.8" font-family="Helvetica,sans-Serif" font-size="11.00" fill="#000000"> &#160;</text>
<polygon fill="#ffffff" stroke="transparent" points="277,-775.7 277,-794.7 306,-794.7 306,-775.7 277,-775.7"/>
<polygon fill="none" stroke="#000000" points="277,-775.7 277,-794.7 306,-794.7 306,-775.7 277,-775.7"/>
<text text-anchor="start" x="296.8862" y="-781.8" font-family="Helvetica,sans-Serif" font-size="11.00" fill="#000000"> &#160;</text>
</a>
</g>
</g>
<!-- lateral_weirs&#45;&gt;events -->
<g id="edge7" class="edge">
<title>lateral_weirs:w&#45;&gt;events:e</title>
<path fill="none" stroke="#000000" stroke-dasharray="5,2" d="M180.6045,-802.8263C156.6258,-799.5825 146.3588,-787.2915 126,-765.7 97.2917,-735.2534 127.3469,-680.7 85.5,-680.7"/>
<polygon fill="#000000" stroke="#000000" points="187.0147,-803.2153 194.7819,-807.2934 191.0073,-803.4576 195,-803.7 195,-803.7 195,-803.7 191.0073,-803.4576 195.2181,-800.1066 187.0147,-803.2153 187.0147,-803.2153"/>
<ellipse fill="none" stroke="#000000" cx="183.8206" cy="-803.0214" rx="3.2" ry="3.2"/>
</g>
<!-- links -->
<g id="node9" class="node">
<title>links</title>
<g id="a_node9"><a xlink:href="../../tables/links.html" xlink:title="links" target="_top">
<polygon fill="#ffffff" stroke="transparent" points="217,-694.2 217,-755.2 283,-755.2 283,-694.2 217,-694.2"/>
<polygon fill="#f5f5f5" stroke="transparent" points="217,-731.7 217,-754.7 283,-754.7 283,-731.7 217,-731.7"/>
<polygon fill="none" stroke="#000000" points="217,-731.7 217,-754.7 283,-754.7 283,-731.7 217,-731.7"/>
<text text-anchor="start" x="222" y="-740.3" font-family="Helvetica,sans-Serif" font-weight="bold" font-size="11.00" fill="#000000">links</text>
<text text-anchor="start" x="248.5219" y="-739.8" font-family="Helvetica,sans-Serif" font-size="11.00" fill="#000000">[table]</text>
<polygon fill="none" stroke="#000000" points="217,-712.7 217,-731.7 283,-731.7 283,-712.7 217,-712.7"/>
<text text-anchor="start" x="220" y="-718.8" font-family="Helvetica,sans-Serif" font-size="11.00" fill="#000000">...</text>
<polygon fill="#ffffff" stroke="transparent" points="217,-693.7 217,-712.7 248,-712.7 248,-693.7 217,-693.7"/>
<polygon fill="none" stroke="#000000" points="217,-693.7 217,-712.7 248,-712.7 248,-693.7 217,-693.7"/>
<text text-anchor="start" x="220" y="-699.8" font-family="Helvetica,sans-Serif" font-size="11.00" fill="#000000">&lt; 1</text>
<polygon fill="#ffffff" stroke="transparent" points="248,-693.7 248,-712.7 265,-712.7 265,-693.7 248,-693.7"/>
<polygon fill="none" stroke="#000000" points="248,-693.7 248,-712.7 265,-712.7 265,-693.7 248,-693.7"/>
<text text-anchor="start" x="255.8862" y="-699.8" font-family="Helvetica,sans-Serif" font-size="11.00" fill="#000000"> &#160;</text>
<polygon fill="#ffffff" stroke="transparent" points="265,-693.7 265,-712.7 283,-712.7 283,-693.7 265,-693.7"/>
<polygon fill="none" stroke="#000000" points="265,-693.7 265,-712.7 283,-712.7 283,-693.7 265,-693.7"/>
<text text-anchor="start" x="273.8862" y="-699.8" font-family="Helvetica,sans-Serif" font-size="11.00" fill="#000000"> &#160;</text>
</a>
</g>
</g>
<!-- links&#45;&gt;events -->
<g id="edge8" class="edge">
<title>links:w&#45;&gt;events:e</title>
<path fill="none" stroke="#000000" stroke-dasharray="5,2" d="M206.4306,-721.2673C154.4922,-716.8855 143.0127,-680.7 85.5,-680.7"/>
<polygon fill="#000000" stroke="#000000" points="216.3643,-717.6706 216.037,-725.6639 214.4384,-725.5985 214.7657,-717.6052 216.3643,-717.6706"/>
<polyline fill="none" stroke="#000000" points="217,-721.7 213.0033,-721.5363 "/>
<ellipse fill="none" stroke="#000000" cx="209.806" cy="-721.4054" rx="3.2" ry="3.2"/>
</g>
<!-- meteo_config -->
<g id="node10" class="node">
<title>meteo_config</title>
<g id="a_node10"><a xlink:href="../../tables/meteo_config.html" xlink:title="meteo_config" target="_top">
<polygon fill="#ffffff" stroke="transparent" points="191.5,-612.2 191.5,-673.2 308.5,-673.2 308.5,-612.2 191.5,-612.2"/>
<polygon fill="#f5f5f5" stroke="transparent" points="192,-649.7 192,-672.7 309,-672.7 309,-649.7 192,-649.7"/>
<polygon fill="none" stroke="#000000" points="192,-649.7 192,-672.7 309,-672.7 309,-649.7 192,-649.7"/>
<text text-anchor="start" x="197" y="-658.3" font-family="Helvetica,sans-Serif" font-weight="bold" font-size="11.00" fill="#000000">meteo_config</text>
<text text-anchor="start" x="274.5219" y="-657.8" font-family="Helvetica,sans-Serif" font-size="11.00" fill="#000000">[table]</text>
<polygon fill="none" stroke="#000000" points="192,-630.7 192,-649.7 309,-649.7 309,-630.7 192,-630.7"/>
<text text-anchor="start" x="195" y="-636.8" font-family="Helvetica,sans-Serif" font-size="11.00" fill="#000000">...</text>
<polygon fill="#ffffff" stroke="transparent" points="192,-611.7 192,-630.7 249,-630.7 249,-611.7 192,-611.7"/>
<polygon fill="none" stroke="#000000" points="192,-611.7 192,-630.7 249,-630.7 249,-611.7 192,-611.7"/>
<text text-anchor="start" x="195" y="-617.8" font-family="Helvetica,sans-Serif" font-size="11.00" fill="#000000">&lt; 1</text>
<polygon fill="#ffffff" stroke="transparent" points="249,-611.7 249,-630.7 279,-630.7 279,-611.7 249,-611.7"/>
<polygon fill="none" stroke="#000000" points="249,-611.7 249,-630.7 279,-630.7 279,-611.7 249,-611.7"/>
<text text-anchor="start" x="269.8862" y="-617.8" font-family="Helvetica,sans-Serif" font-size="11.00" fill="#000000"> &#160;</text>
<polygon fill="#ffffff" stroke="transparent" points="279,-611.7 279,-630.7 309,-630.7 309,-611.7 279,-611.7"/>
<polygon fill="none" stroke="#000000" points="279,-611.7 279,-630.7 309,-630.7 309,-611.7 279,-611.7"/>
<text text-anchor="start" x="299.8862" y="-617.8" font-family="Helvetica,sans-Serif" font-size="11.00" fill="#000000"> &#160;</text>
</a>
</g>
</g>
<!-- meteo_config&#45;&gt;events -->
<g id="edge9" class="edge">
<title>meteo_config:w&#45;&gt;events:e</title>
<path fill="none" stroke="#000000" stroke-dasharray="5,2" d="M177.3685,-640.972C139.7049,-647.8924 130.8704,-680.7 85.5,-680.7"/>
<polygon fill="#000000" stroke="#000000" points="184.0301,-640.3929 192.3118,-643.2865 188.015,-640.0465 192,-639.7 192,-639.7 192,-639.7 188.015,-640.0465 191.6882,-636.1135 184.0301,-640.3929 184.0301,-640.3929"/>
<ellipse fill="none" stroke="#000000" cx="180.8421" cy="-640.6701" rx="3.2" ry="3.2"/>
</g>
<!-- outputs -->
<g id="node11" class="node">
<title>outputs</title>
<g id="a_node11"><a xlink:href="../../tables/outputs.html" xlink:title="outputs" target="_top">
<polygon fill="#ffffff" stroke="transparent" points="209,-530.2 209,-591.2 291,-591.2 291,-530.2 209,-530.2"/>
<polygon fill="#f5f5f5" stroke="transparent" points="209,-567.7 209,-590.7 291,-590.7 291,-567.7 209,-567.7"/>
<polygon fill="none" stroke="#000000" points="209,-567.7 209,-590.7 291,-590.7 291,-567.7 209,-567.7"/>
<text text-anchor="start" x="214" y="-576.3" font-family="Helvetica,sans-Serif" font-weight="bold" font-size="11.00" fill="#000000">outputs</text>
<text text-anchor="start" x="256.5219" y="-575.8" font-family="Helvetica,sans-Serif" font-size="11.00" fill="#000000">[table]</text>
<polygon fill="none" stroke="#000000" points="209,-548.7 209,-567.7 291,-567.7 291,-548.7 209,-548.7"/>
<text text-anchor="start" x="212" y="-554.8" font-family="Helvetica,sans-Serif" font-size="11.00" fill="#000000">...</text>
<polygon fill="#ffffff" stroke="transparent" points="209,-529.7 209,-548.7 248,-548.7 248,-529.7 209,-529.7"/>
<polygon fill="none" stroke="#000000" points="209,-529.7 209,-548.7 248,-548.7 248,-529.7 209,-529.7"/>
<text text-anchor="start" x="212" y="-535.8" font-family="Helvetica,sans-Serif" font-size="11.00" fill="#000000">&lt; 1</text>
<polygon fill="#ffffff" stroke="transparent" points="248,-529.7 248,-548.7 269,-548.7 269,-529.7 248,-529.7"/>
<polygon fill="none" stroke="#000000" points="248,-529.7 248,-548.7 269,-548.7 269,-529.7 248,-529.7"/>
<text text-anchor="start" x="259.8862" y="-535.8" font-family="Helvetica,sans-Serif" font-size="11.00" fill="#000000"> &#160;</text>
<polygon fill="#ffffff" stroke="transparent" points="269,-529.7 269,-548.7 291,-548.7 291,-529.7 269,-529.7"/>
<polygon fill="none" stroke="#000000" points="269,-529.7 269,-548.7 291,-548.7 291,-529.7 269,-529.7"/>
<text text-anchor="start" x="281.8862" y="-535.8" font-family="Helvetica,sans-Serif" font-size="11.00" fill="#000000"> &#160;</text>
</a>
</g>
</g>
<!-- outputs&#45;&gt;events -->
<g id="edge10" class="edge">
<title>outputs:w&#45;&gt;events:e</title>
<path fill="none" stroke="#000000" stroke-dasharray="5,2" d="M194.2394,-558.4141C163.8839,-561.637 151.5401,-575.8068 126,-601.7 98.2925,-629.7906 124.9562,-680.7 85.5,-680.7"/>
<polygon fill="#000000" stroke="#000000" points="201.0093,-558.0866 209.174,-561.2958 205.0047,-557.8933 209,-557.7 209,-557.7 209,-557.7 205.0047,-557.8933 208.826,-554.1042 201.0093,-558.0866 201.0093,-558.0866"/>
<ellipse fill="none" stroke="#000000" cx="197.8131" cy="-558.2413" rx="3.2" ry="3.2"/>
</g>
<!-- profiles -->
<g id="node12" class="node">
<title>profiles</title>
<g id="a_node12"><a xlink:href="../../tables/profiles.html" xlink:title="profiles" target="_top">
<polygon fill="#ffffff" stroke="transparent" points="209,-448.2 209,-509.2 291,-509.2 291,-448.2 209,-448.2"/>
<polygon fill="#f5f5f5" stroke="transparent" points="209,-485.7 209,-508.7 291,-508.7 291,-485.7 209,-485.7"/>
<polygon fill="none" stroke="#000000" points="209,-485.7 209,-508.7 291,-508.7 291,-485.7 209,-485.7"/>
<text text-anchor="start" x="214" y="-494.3" font-family="Helvetica,sans-Serif" font-weight="bold" font-size="11.00" fill="#000000">profiles</text>
<text text-anchor="start" x="256.5219" y="-493.8" font-family="Helvetica,sans-Serif" font-size="11.00" fill="#000000">[table]</text>
<polygon fill="none" stroke="#000000" points="209,-466.7 209,-485.7 291,-485.7 291,-466.7 209,-466.7"/>
<text text-anchor="start" x="212" y="-472.8" font-family="Helvetica,sans-Serif" font-size="11.00" fill="#000000">...</text>
<polygon fill="#ffffff" stroke="transparent" points="209,-447.7 209,-466.7 248,-466.7 248,-447.7 209,-447.7"/>
<polygon fill="none" stroke="#000000" points="209,-447.7 209,-466.7 248,-466.7 248,-447.7 209,-447.7"/>
<text text-anchor="start" x="212" y="-453.8" font-family="Helvetica,sans-Serif" font-size="11.00" fill="#000000">&lt; 1</text>
<polygon fill="#ffffff" stroke="transparent" points="248,-447.7 248,-466.7 269,-466.7 269,-447.7 248,-447.7"/>
<polygon fill="none" stroke="#000000" points="248,-447.7 248,-466.7 269,-466.7 269,-447.7 248,-447.7"/>
<text text-anchor="start" x="259.8862" y="-453.8" font-family="Helvetica,sans-Serif" font-size="11.00" fill="#000000"> &#160;</text>
<polygon fill="#ffffff" stroke="transparent" points="269,-447.7 269,-466.7 291,-466.7 291,-447.7 269,-447.7"/>
<polygon fill="none" stroke="#000000" points="269,-447.7 269,-466.7 291,-466.7 291,-447.7 269,-447.7"/>
<text text-anchor="start" x="281.8862" y="-453.8" font-family="Helvetica,sans-Serif" font-size="11.00" fill="#000000"> &#160;</text>
</a>
</g>
</g>
<!-- profiles&#45;&gt;events -->
<g id="edge11" class="edge">
<title>profiles:w&#45;&gt;events:e</title>
<path fill="none" stroke="#000000" stroke-dasharray="5,2" d="M198.3561,-475.9775C164.3822,-477.8774 149.4454,-489.7941 126,-519.7 80.4767,-577.7674 159.2848,-680.7 85.5,-680.7"/>
<polygon fill="#000000" stroke="#000000" points="208.096,-471.7222 208.3046,-479.7195 206.7051,-479.7612 206.4965,-471.7639 208.096,-471.7222"/>
<polyline fill="none" stroke="#000000" points="209,-475.7 205.0014,-475.8043 "/>
<ellipse fill="none" stroke="#000000" cx="201.8024" cy="-475.8877" rx="3.2" ry="3.2"/>
</g>
<!-- struct_config -->
<g id="node13" class="node">
<title>struct_config</title>
<g id="a_node13"><a xlink:href="../../tables/struct_config.html" xlink:title="struct_config" target="_top">
<polygon fill="#ffffff" stroke="transparent" points="192.5,-366.2 192.5,-427.2 307.5,-427.2 307.5,-366.2 192.5,-366.2"/>
<polygon fill="#f5f5f5" stroke="transparent" points="193,-403.7 193,-426.7 308,-426.7 308,-403.7 193,-403.7"/>
<polygon fill="none" stroke="#000000" points="193,-403.7 193,-426.7 308,-426.7 308,-403.7 193,-403.7"/>
<text text-anchor="start" x="198" y="-412.3" font-family="Helvetica,sans-Serif" font-weight="bold" font-size="11.00" fill="#000000">struct_config</text>
<text text-anchor="start" x="273.5219" y="-411.8" font-family="Helvetica,sans-Serif" font-size="11.00" fill="#000000">[table]</text>
<polygon fill="none" stroke="#000000" points="193,-384.7 193,-403.7 308,-403.7 308,-384.7 193,-384.7"/>
<text text-anchor="start" x="196" y="-390.8" font-family="Helvetica,sans-Serif" font-size="11.00" fill="#000000">...</text>
<polygon fill="#ffffff" stroke="transparent" points="193,-365.7 193,-384.7 249,-384.7 249,-365.7 193,-365.7"/>
<polygon fill="none" stroke="#000000" points="193,-365.7 193,-384.7 249,-384.7 249,-365.7 193,-365.7"/>
<text text-anchor="start" x="196" y="-371.8" font-family="Helvetica,sans-Serif" font-size="11.00" fill="#000000">&lt; 1</text>
<polygon fill="#ffffff" stroke="transparent" points="249,-365.7 249,-384.7 278,-384.7 278,-365.7 249,-365.7"/>
<polygon fill="none" stroke="#000000" points="249,-365.7 249,-384.7 278,-384.7 278,-365.7 249,-365.7"/>
<text text-anchor="start" x="268.8862" y="-371.8" font-family="Helvetica,sans-Serif" font-size="11.00" fill="#000000"> &#160;</text>
<polygon fill="#ffffff" stroke="transparent" points="278,-365.7 278,-384.7 308,-384.7 308,-365.7 278,-365.7"/>
<polygon fill="none" stroke="#000000" points="278,-365.7 278,-384.7 308,-384.7 308,-365.7 278,-365.7"/>
<text text-anchor="start" x="298.8862" y="-371.8" font-family="Helvetica,sans-Serif" font-size="11.00" fill="#000000"> &#160;</text>
</a>
</g>
</g>
<!-- struct_config&#45;&gt;events -->
<g id="edge12" class="edge">
<title>struct_config:w&#45;&gt;events:e</title>
<path fill="none" stroke="#000000" stroke-dasharray="5,2" d="M178.6,-394.6405C153.6682,-398.247 142.5601,-412.2817 126,-437.7 96.1162,-483.5689 140.2449,-680.7 85.5,-680.7"/>
<polygon fill="#000000" stroke="#000000" points="185.017,-394.2214 193.2346,-397.2923 189.0085,-393.9607 193,-393.7 193,-393.7 193,-393.7 189.0085,-393.9607 192.7654,-390.1077 185.017,-394.2214 185.017,-394.2214"/>
<ellipse fill="none" stroke="#000000" cx="181.8238" cy="-394.43" rx="3.2" ry="3.2"/>
</g>
<!-- topo -->
<g id="node14" class="node">
<title>topo</title>
<g id="a_node14"><a xlink:href="../../tables/topo.html" xlink:title="topo" target="_top">
<polygon fill="#ffffff" stroke="transparent" points="218,-284.2 218,-345.2 282,-345.2 282,-284.2 218,-284.2"/>
<polygon fill="#f5f5f5" stroke="transparent" points="218,-321.7 218,-344.7 282,-344.7 282,-321.7 218,-321.7"/>
<polygon fill="none" stroke="#000000" points="218,-321.7 218,-344.7 282,-344.7 282,-321.7 218,-321.7"/>
<text text-anchor="start" x="222.7992" y="-330.3" font-family="Helvetica,sans-Serif" font-weight="bold" font-size="11.00" fill="#000000">topo</text>
<text text-anchor="start" x="247.5219" y="-329.8" font-family="Helvetica,sans-Serif" font-size="11.00" fill="#000000">[table]</text>
<polygon fill="none" stroke="#000000" points="218,-302.7 218,-321.7 282,-321.7 282,-302.7 218,-302.7"/>
<text text-anchor="start" x="221" y="-308.8" font-family="Helvetica,sans-Serif" font-size="11.00" fill="#000000">...</text>
<polygon fill="#ffffff" stroke="transparent" points="218,-283.7 218,-302.7 248,-302.7 248,-283.7 218,-283.7"/>
<polygon fill="none" stroke="#000000" points="218,-283.7 218,-302.7 248,-302.7 248,-283.7 218,-283.7"/>
<text text-anchor="start" x="221" y="-289.8" font-family="Helvetica,sans-Serif" font-size="11.00" fill="#000000">&lt; 1</text>
<polygon fill="#ffffff" stroke="transparent" points="248,-283.7 248,-302.7 265,-302.7 265,-283.7 248,-283.7"/>
<polygon fill="none" stroke="#000000" points="248,-283.7 248,-302.7 265,-302.7 265,-283.7 248,-283.7"/>
<text text-anchor="start" x="255.8862" y="-289.8" font-family="Helvetica,sans-Serif" font-size="11.00" fill="#000000"> &#160;</text>
<polygon fill="#ffffff" stroke="transparent" points="265,-283.7 265,-302.7 282,-302.7 282,-283.7 265,-283.7"/>
<polygon fill="none" stroke="#000000" points="265,-283.7 265,-302.7 282,-302.7 282,-283.7 265,-283.7"/>
<text text-anchor="start" x="272.8862" y="-289.8" font-family="Helvetica,sans-Serif" font-size="11.00" fill="#000000"> &#160;</text>
</a>
</g>
</g>
<!-- topo&#45;&gt;events -->
<g id="edge13" class="edge">
<title>topo:w&#45;&gt;events:e</title>
<path fill="none" stroke="#000000" stroke-dasharray="5,2" d="M203.519,-312.0106C168.0222,-313.7163 149.4934,-323.0916 126,-355.7 83.4555,-414.7509 158.2808,-680.7 85.5,-680.7"/>
<polygon fill="#000000" stroke="#000000" points="210.0018,-311.8716 218.0772,-315.2992 214.0009,-311.7858 218,-311.7 218,-311.7 218,-311.7 214.0009,-311.7858 217.9228,-308.1008 210.0018,-311.8716 210.0018,-311.8716"/>
<ellipse fill="none" stroke="#000000" cx="206.8026" cy="-311.9403" rx="3.2" ry="3.2"/>
</g>
<!-- tracer_config -->
<g id="node15" class="node">
<title>tracer_config</title>
<g id="a_node15"><a xlink:href="../../tables/tracer_config.html" xlink:title="tracer_config" target="_top">
<polygon fill="#ffffff" stroke="transparent" points="192.5,-202.2 192.5,-263.2 307.5,-263.2 307.5,-202.2 192.5,-202.2"/>
<polygon fill="#f5f5f5" stroke="transparent" points="193,-239.7 193,-262.7 308,-262.7 308,-239.7 193,-239.7"/>
<polygon fill="none" stroke="#000000" points="193,-239.7 193,-262.7 308,-262.7 308,-239.7 193,-239.7"/>
<text text-anchor="start" x="198" y="-248.3" font-family="Helvetica,sans-Serif" font-weight="bold" font-size="11.00" fill="#000000">tracer_config</text>
<text text-anchor="start" x="273.5219" y="-247.8" font-family="Helvetica,sans-Serif" font-size="11.00" fill="#000000">[table]</text>
<polygon fill="none" stroke="#000000" points="193,-220.7 193,-239.7 308,-239.7 308,-220.7 193,-220.7"/>
<text text-anchor="start" x="196" y="-226.8" font-family="Helvetica,sans-Serif" font-size="11.00" fill="#000000">...</text>
<polygon fill="#ffffff" stroke="transparent" points="193,-201.7 193,-220.7 249,-220.7 249,-201.7 193,-201.7"/>
<polygon fill="none" stroke="#000000" points="193,-201.7 193,-220.7 249,-220.7 249,-201.7 193,-201.7"/>
<text text-anchor="start" x="196" y="-207.8" font-family="Helvetica,sans-Serif" font-size="11.00" fill="#000000">&lt; 1</text>
<polygon fill="#ffffff" stroke="transparent" points="249,-201.7 249,-220.7 278,-220.7 278,-201.7 249,-201.7"/>
<polygon fill="none" stroke="#000000" points="249,-201.7 249,-220.7 278,-220.7 278,-201.7 249,-201.7"/>
<text text-anchor="start" x="268.8862" y="-207.8" font-family="Helvetica,sans-Serif" font-size="11.00" fill="#000000"> &#160;</text>
<polygon fill="#ffffff" stroke="transparent" points="278,-201.7 278,-220.7 308,-220.7 308,-201.7 278,-201.7"/>
<polygon fill="none" stroke="#000000" points="278,-201.7 278,-220.7 308,-220.7 308,-201.7 278,-201.7"/>
<text text-anchor="start" x="298.8862" y="-207.8" font-family="Helvetica,sans-Serif" font-size="11.00" fill="#000000"> &#160;</text>
</a>
</g>
</g>
<!-- tracer_config&#45;&gt;events -->
<g id="edge14" class="edge">
<title>tracer_config:w&#45;&gt;events:e</title>
<path fill="none" stroke="#000000" stroke-dasharray="5,2" d="M178.544,-230.6053C153.4167,-234.0889 141.7129,-247.7494 126,-273.7 78.9233,-351.4495 176.3911,-680.7 85.5,-680.7"/>
<polygon fill="#000000" stroke="#000000" points="185.0156,-230.2001 193.225,-233.293 189.0078,-229.95 193,-229.7 193,-229.7 193,-229.7 189.0078,-229.95 192.775,-226.107 185.0156,-230.2001 185.0156,-230.2001"/>
<ellipse fill="none" stroke="#000000" cx="181.8219" cy="-230.4001" rx="3.2" ry="3.2"/>
</g>
<!-- tracer_lateral_inflows -->
<g id="node16" class="node">
<title>tracer_lateral_inflows</title>
<g id="a_node16"><a xlink:href="../../tables/tracer_lateral_inflows.html" xlink:title="tracer_lateral_inflows" target="_top">
<polygon fill="#ffffff" stroke="transparent" points="169,-120.2 169,-181.2 331,-181.2 331,-120.2 169,-120.2"/>
<polygon fill="#f5f5f5" stroke="transparent" points="169,-157.7 169,-180.7 331,-180.7 331,-157.7 169,-157.7"/>
<polygon fill="none" stroke="#000000" points="169,-157.7 169,-180.7 331,-180.7 331,-157.7 169,-157.7"/>
<text text-anchor="start" x="174" y="-166.3" font-family="Helvetica,sans-Serif" font-weight="bold" font-size="11.00" fill="#000000">tracer_lateral_inflows</text>
<text text-anchor="start" x="296.5219" y="-165.8" font-family="Helvetica,sans-Serif" font-size="11.00" fill="#000000">[table]</text>
<polygon fill="none" stroke="#000000" points="169,-138.7 169,-157.7 331,-157.7 331,-138.7 169,-138.7"/>
<text text-anchor="start" x="172" y="-144.8" font-family="Helvetica,sans-Serif" font-size="11.00" fill="#000000">...</text>
<polygon fill="#ffffff" stroke="transparent" points="169,-119.7 169,-138.7 248,-138.7 248,-119.7 169,-119.7"/>
<polygon fill="none" stroke="#000000" points="169,-119.7 169,-138.7 248,-138.7 248,-119.7 169,-119.7"/>
<text text-anchor="start" x="172" y="-125.8" font-family="Helvetica,sans-Serif" font-size="11.00" fill="#000000">&lt; 1</text>
<polygon fill="#ffffff" stroke="transparent" points="248,-119.7 248,-138.7 289,-138.7 289,-119.7 248,-119.7"/>
<polygon fill="none" stroke="#000000" points="248,-119.7 248,-138.7 289,-138.7 289,-119.7 248,-119.7"/>
<text text-anchor="start" x="279.8862" y="-125.8" font-family="Helvetica,sans-Serif" font-size="11.00" fill="#000000"> &#160;</text>
<polygon fill="#ffffff" stroke="transparent" points="289,-119.7 289,-138.7 331,-138.7 331,-119.7 289,-119.7"/>
<polygon fill="none" stroke="#000000" points="289,-119.7 289,-138.7 331,-138.7 331,-119.7 289,-119.7"/>
<text text-anchor="start" x="321.8862" y="-125.8" font-family="Helvetica,sans-Serif" font-size="11.00" fill="#000000"> &#160;</text>
</a>
</g>
</g>
<!-- tracer_lateral_inflows&#45;&gt;events -->
<g id="edge15" class="edge">
<title>tracer_lateral_inflows:w&#45;&gt;events:e</title>
<path fill="none" stroke="#000000" stroke-dasharray="5,2" d="M154.4901,-150.1275C139.5283,-156.0246 134.9603,-172.073 126,-191.7 103.3583,-241.2955 140.0194,-680.7 85.5,-680.7"/>
<polygon fill="#000000" stroke="#000000" points="161.1097,-149.0201 169.594,-151.2507 165.0548,-148.36 169,-147.7 169,-147.7 169,-147.7 165.0548,-148.36 168.406,-144.1493 161.1097,-149.0201 161.1097,-149.0201"/>
<ellipse fill="none" stroke="#000000" cx="157.9535" cy="-149.5481" rx="3.2" ry="3.2"/>
</g>
<!-- weirs -->
<g id="node17" class="node">
<title>weirs</title>
<g id="a_node17"><a xlink:href="../../tables/weirs.html" xlink:title="weirs" target="_top">
<polygon fill="#ffffff" stroke="transparent" points="215.5,-38.2 215.5,-99.2 284.5,-99.2 284.5,-38.2 215.5,-38.2"/>
<polygon fill="#f5f5f5" stroke="transparent" points="216,-75.7 216,-98.7 285,-98.7 285,-75.7 216,-75.7"/>
<polygon fill="none" stroke="#000000" points="216,-75.7 216,-98.7 285,-98.7 285,-75.7 216,-75.7"/>
<text text-anchor="start" x="221" y="-84.3" font-family="Helvetica,sans-Serif" font-weight="bold" font-size="11.00" fill="#000000">weirs</text>
<text text-anchor="start" x="250.5219" y="-83.8" font-family="Helvetica,sans-Serif" font-size="11.00" fill="#000000">[table]</text>
<polygon fill="none" stroke="#000000" points="216,-56.7 216,-75.7 285,-75.7 285,-56.7 216,-56.7"/>
<text text-anchor="start" x="219" y="-62.8" font-family="Helvetica,sans-Serif" font-size="11.00" fill="#000000">...</text>
<polygon fill="#ffffff" stroke="transparent" points="216,-37.7 216,-56.7 249,-56.7 249,-37.7 216,-37.7"/>
<polygon fill="none" stroke="#000000" points="216,-37.7 216,-56.7 249,-56.7 249,-37.7 216,-37.7"/>
<text text-anchor="start" x="219" y="-43.8" font-family="Helvetica,sans-Serif" font-size="11.00" fill="#000000">&lt; 1</text>
<polygon fill="#ffffff" stroke="transparent" points="249,-37.7 249,-56.7 267,-56.7 267,-37.7 249,-37.7"/>
<polygon fill="none" stroke="#000000" points="249,-37.7 249,-56.7 267,-56.7 267,-37.7 249,-37.7"/>
<text text-anchor="start" x="257.8862" y="-43.8" font-family="Helvetica,sans-Serif" font-size="11.00" fill="#000000"> &#160;</text>
<polygon fill="#ffffff" stroke="transparent" points="267,-37.7 267,-56.7 285,-56.7 285,-37.7 267,-37.7"/>
<polygon fill="none" stroke="#000000" points="267,-37.7 267,-56.7 285,-56.7 285,-37.7 267,-37.7"/>
<text text-anchor="start" x="275.8862" y="-43.8" font-family="Helvetica,sans-Serif" font-size="11.00" fill="#000000"> &#160;</text>
</a>
</g>
</g>
<!-- weirs&#45;&gt;events -->
<g id="edge16" class="edge">
<title>weirs:w&#45;&gt;events:e</title>
<path fill="none" stroke="#000000" stroke-dasharray="5,2" d="M201.288,-66.0286C166.5936,-67.7709 147.981,-77.114 126,-109.7 90.4315,-162.4289 149.1038,-680.7 85.5,-680.7"/>
<polygon fill="#000000" stroke="#000000" points="208.002,-65.8787 216.0804,-69.2991 212.001,-65.7894 216,-65.7 216,-65.7 216,-65.7 212.001,-65.7894 215.9196,-62.1009 208.002,-65.8787 208.002,-65.8787"/>
<ellipse fill="none" stroke="#000000" cx="204.8028" cy="-65.9502" rx="3.2" ry="3.2"/>
</g>
</g>
</svg>
