<?xml version="1.0" encoding="UTF-8" standalone="no"?>
<!DOCTYPE svg PUBLIC "-//W3C//DTD SVG 1.1//EN"
 "http://www.w3.org/Graphics/SVG/1.1/DTD/svg11.dtd">
<!-- Generated by graphviz version 2.40.1 (20161225.0304)
 -->
<!-- Title: oneDegreeRelationshipsDiagramImplied Pages: 1 -->
<svg width="382pt" height="250pt"
 viewBox="0.00 0.00 382.00 250.20" xmlns="http://www.w3.org/2000/svg" xmlns:xlink="http://www.w3.org/1999/xlink">
<g id="graph0" class="graph" transform="scale(1 1) rotate(0) translate(4 246.2)">
<title>oneDegreeRelationshipsDiagramImplied</title>
<polygon fill="#ffffff" stroke="transparent" points="-4,4 -4,-246.2 378,-246.2 378,4 -4,4"/>
<text text-anchor="middle" x="72.4936" y="-7.3" font-family="Helvetica,sans-Serif" font-size="11.00" fill="#000000">Generated by SchemaSpy</text>
<!-- hydraulic_head -->
<g id="node1" class="node">
<title>hydraulic_head</title>
<g id="a_node1"><a xlink:href="../../tables/hydraulic_head.html" xlink:title="hydraulic_head" target="_top">
<polygon fill="#ffffff" stroke="transparent" points="134,-38.2 134,-238.2 366,-238.2 366,-38.2 134,-38.2"/>
<polygon fill="#f5f5f5" stroke="transparent" points="136,-213.2 136,-236.2 364,-236.2 364,-213.2 136,-213.2"/>
<polygon fill="none" stroke="#000000" points="136,-213.2 136,-236.2 364,-236.2 364,-213.2 136,-213.2"/>
<text text-anchor="start" x="141" y="-221.8" font-family="Helvetica,sans-Serif" font-weight="bold" font-size="11.00" fill="#000000">hydraulic_head</text>
<text text-anchor="start" x="329.0437" y="-221.3" font-family="Helvetica,sans-Serif" font-size="11.00" fill="#000000">[table]</text>
<polygon fill="#ffffff" stroke="transparent" points="136,-191.2 136,-213.2 245,-213.2 245,-191.2 136,-191.2"/>
<polygon fill="none" stroke="#000000" points="136,-191.2 136,-213.2 245,-213.2 245,-191.2 136,-191.2"/>
<text text-anchor="start" x="156" y="-198.3" font-family="Helvetica,sans-Serif" font-size="11.00" fill="#000000">geom</text>
<polygon fill="none" stroke="#000000" points="245,-191.2 245,-213.2 364,-213.2 364,-191.2 245,-191.2"/>
<text text-anchor="start" x="247.9485" y="-198.9" font-family="Helvetica,sans-Serif" font-size="11.00" fill="#000000">geometry[2147483647]</text>
<polygon fill="none" stroke="#000000" points="136,-169.2 136,-191.2 245,-191.2 245,-169.2 136,-169.2"/>
<image xlink:href="../../images/primaryKeys.png" width="11px" height="12px" preserveAspectRatio="xMinYMin meet" x="141" y="-186.2"/>
<text text-anchor="start" x="156" y="-176.3" font-family="Helvetica,sans-Serif" font-size="11.00" fill="#000000">gid</text>
<polygon fill="none" stroke="#000000" points="245,-169.2 245,-191.2 364,-191.2 364,-169.2 245,-169.2"/>
<text text-anchor="start" x="248" y="-176.9" font-family="Helvetica,sans-Serif" font-size="11.00" fill="#000000">serial[10]</text>
<polygon fill="none" stroke="#000000" points="136,-147.2 136,-169.2 245,-169.2 245,-147.2 136,-147.2"/>
<image xlink:href="../../images/foreignKeys.png" width="11px" height="12px" preserveAspectRatio="xMinYMin meet" x="141" y="-164.2"/>
<text text-anchor="start" x="156" y="-154.3" font-family="Helvetica,sans-Serif" font-size="11.00" fill="#000000">name</text>
<polygon fill="none" stroke="#000000" points="245,-147.2 245,-169.2 364,-169.2 364,-147.2 245,-147.2"/>
<text text-anchor="start" x="248" y="-154.9" font-family="Helvetica,sans-Serif" font-size="11.00" fill="#000000">varchar[30]</text>
<polygon fill="none" stroke="#000000" points="136,-125.2 136,-147.2 245,-147.2 245,-125.2 136,-125.2"/>
<text text-anchor="start" x="156" y="-132.3" font-family="Helvetica,sans-Serif" font-size="11.00" fill="#000000">branchnum</text>
<polygon fill="none" stroke="#000000" points="245,-125.2 245,-147.2 364,-147.2 364,-125.2 245,-125.2"/>
<text text-anchor="start" x="248" y="-132.9" font-family="Helvetica,sans-Serif" font-size="11.00" fill="#000000">int4[10]</text>
<polygon fill="none" stroke="#000000" points="136,-103.2 136,-125.2 245,-125.2 245,-103.2 136,-103.2"/>
<text text-anchor="start" x="156" y="-110.3" font-family="Helvetica,sans-Serif" font-size="11.00" fill="#000000">abscissa</text>
<polygon fill="none" stroke="#000000" points="245,-103.2 245,-125.2 364,-125.2 364,-103.2 245,-103.2"/>
<text text-anchor="start" x="248" y="-110.9" font-family="Helvetica,sans-Serif" font-size="11.00" fill="#000000">float8[17,17]</text>
<polygon fill="none" stroke="#000000" points="136,-81.2 136,-103.2 245,-103.2 245,-81.2 136,-81.2"/>
<text text-anchor="start" x="156" y="-88.3" font-family="Helvetica,sans-Serif" font-size="11.00" fill="#000000">coeff</text>
<polygon fill="none" stroke="#000000" points="245,-81.2 245,-103.2 364,-103.2 364,-81.2 245,-81.2"/>
<text text-anchor="start" x="248" y="-88.9" font-family="Helvetica,sans-Serif" font-size="11.00" fill="#000000">float8[17,17]</text>
<polygon fill="none" stroke="#000000" points="136,-59.2 136,-81.2 245,-81.2 245,-59.2 136,-59.2"/>
<text text-anchor="start" x="156" y="-66.3" font-family="Helvetica,sans-Serif" font-size="11.00" fill="#000000">active</text>
<polygon fill="none" stroke="#000000" points="245,-59.2 245,-81.2 364,-81.2 364,-59.2 245,-59.2"/>
<text text-anchor="start" x="248" y="-66.9" font-family="Helvetica,sans-Serif" font-size="11.00" fill="#000000">bool[1]</text>
<polygon fill="#ffffff" stroke="transparent" points="136,-40.2 136,-59.2 195,-59.2 195,-40.2 136,-40.2"/>
<polygon fill="none" stroke="#000000" points="136,-40.2 136,-59.2 195,-59.2 195,-40.2 136,-40.2"/>
<text text-anchor="start" x="139" y="-46.3" font-family="Helvetica,sans-Serif" font-size="11.00" fill="#000000">&lt; 1</text>
<polygon fill="#ffffff" stroke="transparent" points="195,-40.2 195,-59.2 245,-59.2 245,-40.2 195,-40.2"/>
<polygon fill="none" stroke="#000000" points="195,-40.2 195,-59.2 245,-59.2 245,-40.2 195,-40.2"/>
<text text-anchor="start" x="235.8862" y="-46.3" font-family="Helvetica,sans-Serif" font-size="11.00" fill="#000000"> &#160;</text>
<polygon fill="#ffffff" stroke="transparent" points="245,-40.2 245,-59.2 364,-59.2 364,-40.2 245,-40.2"/>
<polygon fill="none" stroke="#000000" points="245,-40.2 245,-59.2 364,-59.2 364,-40.2 245,-40.2"/>
<text text-anchor="start" x="345.4053" y="-46.3" font-family="Helvetica,sans-Serif" font-size="11.00" fill="#000000">0 &gt;</text>
<polygon fill="none" stroke="#000000" stroke-width="2" points="135,-39.2 135,-237.2 365,-237.2 365,-39.2 135,-39.2"/>
</a>
</g>
</g>
<!-- events -->
<g id="node2" class="node">
<title>events</title>
<g id="a_node2"><a xlink:href="../../tables/events.html" xlink:title="events" target="_top">
<polygon fill="#ffffff" stroke="transparent" points="8,-109.7 8,-192.7 85,-192.7 85,-109.7 8,-109.7"/>
<polygon fill="#f5f5f5" stroke="transparent" points="8.5,-169.2 8.5,-192.2 85.5,-192.2 85.5,-169.2 8.5,-169.2"/>
<polygon fill="none" stroke="#000000" points="8.5,-169.2 8.5,-192.2 85.5,-192.2 85.5,-169.2 8.5,-169.2"/>
<text text-anchor="start" x="13.5" y="-177.8" font-family="Helvetica,sans-Serif" font-weight="bold" font-size="11.00" fill="#000000">events</text>
<text text-anchor="start" x="51.0219" y="-177.3" font-family="Helvetica,sans-Serif" font-size="11.00" fill="#000000">[table]</text>
<polygon fill="none" stroke="#000000" points="8.5,-147.2 8.5,-169.2 85.5,-169.2 85.5,-147.2 8.5,-147.2"/>
<image xlink:href="../../images/primaryKeys.png" width="11px" height="12px" preserveAspectRatio="xMinYMin meet" x="13.5" y="-164.2"/>
<text text-anchor="start" x="31.5" y="-154.3" font-family="Helvetica,sans-Serif" font-size="11.00" fill="#000000">name</text>
<polygon fill="none" stroke="#000000" points="8.5,-128.2 8.5,-147.2 85.5,-147.2 85.5,-128.2 8.5,-128.2"/>
<text text-anchor="start" x="11.5" y="-134.3" font-family="Helvetica,sans-Serif" font-size="11.00" fill="#000000">...</text>
<polygon fill="#ffffff" stroke="transparent" points="8.5,-109.2 8.5,-128.2 33.5,-128.2 33.5,-109.2 8.5,-109.2"/>
<polygon fill="none" stroke="#000000" points="8.5,-109.2 8.5,-128.2 33.5,-128.2 33.5,-109.2 8.5,-109.2"/>
<text text-anchor="start" x="11.5" y="-115.3" font-family="Helvetica,sans-Serif" font-size="11.00" fill="#000000"> &#160;</text>
<polygon fill="#ffffff" stroke="transparent" points="33.5,-109.2 33.5,-128.2 51.5,-128.2 51.5,-109.2 33.5,-109.2"/>
<polygon fill="none" stroke="#000000" points="33.5,-109.2 33.5,-128.2 51.5,-128.2 51.5,-109.2 33.5,-109.2"/>
<text text-anchor="start" x="42.3862" y="-115.3" font-family="Helvetica,sans-Serif" font-size="11.00" fill="#000000"> &#160;</text>
<polygon fill="#ffffff" stroke="transparent" points="51.5,-109.2 51.5,-128.2 85.5,-128.2 85.5,-109.2 51.5,-109.2"/>
<polygon fill="none" stroke="#000000" points="51.5,-109.2 51.5,-128.2 85.5,-128.2 85.5,-109.2 51.5,-109.2"/>
<text text-anchor="start" x="60.7904" y="-115.3" font-family="Helvetica,sans-Serif" font-size="11.00" fill="#000000">16 &gt;</text>
</a>
</g>
</g>
<!-- hydraulic_head&#45;&gt;events -->
<g id="edge1" class="edge">
<title>hydraulic_head:w&#45;&gt;events:e</title>
<path fill="none" stroke="#000000" stroke-dasharray="5,2" d="M121.4203,-158.2C109.5435,-158.2 102.158,-158.2 85.5,-158.2"/>
<polygon fill="#000000" stroke="#000000" points="128,-158.2001 136,-161.8 132,-158.2 136,-158.2 136,-158.2 136,-158.2 132,-158.2 136,-154.6 128,-158.2001 128,-158.2001"/>
<ellipse fill="none" stroke="#000000" cx="124.8" cy="-158.2001" rx="3.2" ry="3.2"/>
</g>
</g>
</svg>
