<?xml version="1.0" encoding="UTF-8" standalone="no"?>
<!DOCTYPE svg PUBLIC "-//W3C//DTD SVG 1.1//EN"
 "http://www.w3.org/Graphics/SVG/1.1/DTD/svg11.dtd">
<!-- Generated by graphviz version 2.40.1 (20161225.0304)
 -->
<!-- Title: twoDegreesRelationshipsDiagramImplied Pages: 1 -->
<svg width="331pt" height="1415pt"
 viewBox="0.00 0.00 331.00 1415.20" xmlns="http://www.w3.org/2000/svg" xmlns:xlink="http://www.w3.org/1999/xlink">
<g id="graph0" class="graph" transform="scale(1 1) rotate(0) translate(4 1411.2)">
<title>twoDegreesRelationshipsDiagramImplied</title>
<polygon fill="#ffffff" stroke="transparent" points="-4,4 -4,-1411.2 327,-1411.2 327,4 -4,4"/>
<text text-anchor="middle" x="72.4936" y="-7.3" font-family="Helvetica,sans-Serif" font-size="11.00" fill="#000000">Generated by SchemaSpy</text>
<!-- basins -->
<g id="node1" class="node">
<title>basins</title>
<g id="a_node1"><a xlink:href="../../tables/basins.html" xlink:title="basins" target="_top">
<polygon fill="#ffffff" stroke="transparent" points="186,-1342.2 186,-1403.2 263,-1403.2 263,-1342.2 186,-1342.2"/>
<polygon fill="#f5f5f5" stroke="transparent" points="186.5,-1379.7 186.5,-1402.7 263.5,-1402.7 263.5,-1379.7 186.5,-1379.7"/>
<polygon fill="none" stroke="#000000" points="186.5,-1379.7 186.5,-1402.7 263.5,-1402.7 263.5,-1379.7 186.5,-1379.7"/>
<text text-anchor="start" x="191.5" y="-1388.3" font-family="Helvetica,sans-Serif" font-weight="bold" font-size="11.00" fill="#000000">basins</text>
<text text-anchor="start" x="229.0219" y="-1387.8" font-family="Helvetica,sans-Serif" font-size="11.00" fill="#000000">[table]</text>
<polygon fill="none" stroke="#000000" points="186.5,-1360.7 186.5,-1379.7 263.5,-1379.7 263.5,-1360.7 186.5,-1360.7"/>
<text text-anchor="start" x="189.5" y="-1366.8" font-family="Helvetica,sans-Serif" font-size="11.00" fill="#000000">...</text>
<polygon fill="#ffffff" stroke="transparent" points="186.5,-1341.7 186.5,-1360.7 223.5,-1360.7 223.5,-1341.7 186.5,-1341.7"/>
<polygon fill="none" stroke="#000000" points="186.5,-1341.7 186.5,-1360.7 223.5,-1360.7 223.5,-1341.7 186.5,-1341.7"/>
<text text-anchor="start" x="189.5" y="-1347.8" font-family="Helvetica,sans-Serif" font-size="11.00" fill="#000000">&lt; 1</text>
<polygon fill="#ffffff" stroke="transparent" points="223.5,-1341.7 223.5,-1360.7 243.5,-1360.7 243.5,-1341.7 223.5,-1341.7"/>
<polygon fill="none" stroke="#000000" points="223.5,-1341.7 223.5,-1360.7 243.5,-1360.7 243.5,-1341.7 223.5,-1341.7"/>
<text text-anchor="start" x="234.3862" y="-1347.8" font-family="Helvetica,sans-Serif" font-size="11.00" fill="#000000"> &#160;</text>
<polygon fill="#ffffff" stroke="transparent" points="243.5,-1341.7 243.5,-1360.7 263.5,-1360.7 263.5,-1341.7 243.5,-1341.7"/>
<polygon fill="none" stroke="#000000" points="243.5,-1341.7 243.5,-1360.7 263.5,-1360.7 263.5,-1341.7 243.5,-1341.7"/>
<text text-anchor="start" x="254.3862" y="-1347.8" font-family="Helvetica,sans-Serif" font-size="11.00" fill="#000000"> &#160;</text>
</a>
</g>
</g>
<!-- events -->
<g id="node2" class="node">
<title>events</title>
<g id="a_node2"><a xlink:href="../../tables/events.html" xlink:title="events" target="_top">
<polygon fill="#ffffff" stroke="transparent" points="8,-632.2 8,-715.2 85,-715.2 85,-632.2 8,-632.2"/>
<polygon fill="#f5f5f5" stroke="transparent" points="8.5,-691.7 8.5,-714.7 85.5,-714.7 85.5,-691.7 8.5,-691.7"/>
<polygon fill="none" stroke="#000000" points="8.5,-691.7 8.5,-714.7 85.5,-714.7 85.5,-691.7 8.5,-691.7"/>
<text text-anchor="start" x="13.5" y="-700.3" font-family="Helvetica,sans-Serif" font-weight="bold" font-size="11.00" fill="#000000">events</text>
<text text-anchor="start" x="51.0219" y="-699.8" font-family="Helvetica,sans-Serif" font-size="11.00" fill="#000000">[table]</text>
<polygon fill="none" stroke="#000000" points="8.5,-669.7 8.5,-691.7 85.5,-691.7 85.5,-669.7 8.5,-669.7"/>
<image xlink:href="../../images/primaryKeys.png" width="11px" height="12px" preserveAspectRatio="xMinYMin meet" x="13.5" y="-686.7"/>
<text text-anchor="start" x="31.5" y="-676.8" font-family="Helvetica,sans-Serif" font-size="11.00" fill="#000000">name</text>
<polygon fill="none" stroke="#000000" points="8.5,-650.7 8.5,-669.7 85.5,-669.7 85.5,-650.7 8.5,-650.7"/>
<text text-anchor="start" x="11.5" y="-656.8" font-family="Helvetica,sans-Serif" font-size="11.00" fill="#000000">...</text>
<polygon fill="#ffffff" stroke="transparent" points="8.5,-631.7 8.5,-650.7 33.5,-650.7 33.5,-631.7 8.5,-631.7"/>
<polygon fill="none" stroke="#000000" points="8.5,-631.7 8.5,-650.7 33.5,-650.7 33.5,-631.7 8.5,-631.7"/>
<text text-anchor="start" x="11.5" y="-637.8" font-family="Helvetica,sans-Serif" font-size="11.00" fill="#000000"> &#160;</text>
<polygon fill="#ffffff" stroke="transparent" points="33.5,-631.7 33.5,-650.7 51.5,-650.7 51.5,-631.7 33.5,-631.7"/>
<polygon fill="none" stroke="#000000" points="33.5,-631.7 33.5,-650.7 51.5,-650.7 51.5,-631.7 33.5,-631.7"/>
<text text-anchor="start" x="42.3862" y="-637.8" font-family="Helvetica,sans-Serif" font-size="11.00" fill="#000000"> &#160;</text>
<polygon fill="#ffffff" stroke="transparent" points="51.5,-631.7 51.5,-650.7 85.5,-650.7 85.5,-631.7 51.5,-631.7"/>
<polygon fill="none" stroke="#000000" points="51.5,-631.7 51.5,-650.7 85.5,-650.7 85.5,-631.7 51.5,-631.7"/>
<text text-anchor="start" x="60.7904" y="-637.8" font-family="Helvetica,sans-Serif" font-size="11.00" fill="#000000">16 &gt;</text>
</a>
</g>
</g>
<!-- basins&#45;&gt;events -->
<g id="edge1" class="edge">
<title>basins:w&#45;&gt;events:e</title>
<path fill="none" stroke="#000000" stroke-dasharray="5,2" d="M176.092,-1369.2496C151.7599,-1366.964 140.3171,-1355.7999 126,-1331.7 88.9847,-1269.3925 157.9732,-680.7 85.5,-680.7"/>
<polygon fill="#000000" stroke="#000000" points="185.8737,-1365.6691 185.5278,-1373.6617 183.9293,-1373.5925 184.2752,-1365.6 185.8737,-1365.6691"/>
<polyline fill="none" stroke="#000000" points="186.5,-1369.7 182.5037,-1369.527 "/>
<ellipse fill="none" stroke="#000000" cx="179.3067" cy="-1369.3887" rx="3.2" ry="3.2"/>
</g>
<!-- extremities -->
<g id="node3" class="node">
<title>extremities</title>
<g id="a_node3"><a xlink:href="../../tables/extremities.html" xlink:title="extremities" target="_top">
<polygon fill="#ffffff" stroke="transparent" points="173.5,-1260.2 173.5,-1321.2 275.5,-1321.2 275.5,-1260.2 173.5,-1260.2"/>
<polygon fill="#f5f5f5" stroke="transparent" points="173.5,-1297.7 173.5,-1320.7 275.5,-1320.7 275.5,-1297.7 173.5,-1297.7"/>
<polygon fill="none" stroke="#000000" points="173.5,-1297.7 173.5,-1320.7 275.5,-1320.7 275.5,-1297.7 173.5,-1297.7"/>
<text text-anchor="start" x="178.5" y="-1306.3" font-family="Helvetica,sans-Serif" font-weight="bold" font-size="11.00" fill="#000000">extremities</text>
<text text-anchor="start" x="241.0219" y="-1305.8" font-family="Helvetica,sans-Serif" font-size="11.00" fill="#000000">[table]</text>
<polygon fill="none" stroke="#000000" points="173.5,-1278.7 173.5,-1297.7 275.5,-1297.7 275.5,-1278.7 173.5,-1278.7"/>
<text text-anchor="start" x="176.5" y="-1284.8" font-family="Helvetica,sans-Serif" font-size="11.00" fill="#000000">...</text>
<polygon fill="#ffffff" stroke="transparent" points="173.5,-1259.7 173.5,-1278.7 218.5,-1278.7 218.5,-1259.7 173.5,-1259.7"/>
<polygon fill="none" stroke="#000000" points="173.5,-1259.7 173.5,-1278.7 218.5,-1278.7 218.5,-1259.7 173.5,-1259.7"/>
<text text-anchor="start" x="176.5" y="-1265.8" font-family="Helvetica,sans-Serif" font-size="11.00" fill="#000000">&lt; 1</text>
<polygon fill="#ffffff" stroke="transparent" points="218.5,-1259.7 218.5,-1278.7 242.5,-1278.7 242.5,-1259.7 218.5,-1259.7"/>
<polygon fill="none" stroke="#000000" points="218.5,-1259.7 218.5,-1278.7 242.5,-1278.7 242.5,-1259.7 218.5,-1259.7"/>
<text text-anchor="start" x="233.3862" y="-1265.8" font-family="Helvetica,sans-Serif" font-size="11.00" fill="#000000"> &#160;</text>
<polygon fill="#ffffff" stroke="transparent" points="242.5,-1259.7 242.5,-1278.7 275.5,-1278.7 275.5,-1259.7 242.5,-1259.7"/>
<polygon fill="none" stroke="#000000" points="242.5,-1259.7 242.5,-1278.7 275.5,-1278.7 275.5,-1259.7 242.5,-1259.7"/>
<text text-anchor="start" x="256.9053" y="-1265.8" font-family="Helvetica,sans-Serif" font-size="11.00" fill="#000000">1 &gt;</text>
</a>
</g>
</g>
<!-- extremities&#45;&gt;events -->
<g id="edge2" class="edge">
<title>extremities:w&#45;&gt;events:e</title>
<path fill="none" stroke="#000000" stroke-dasharray="5,2" d="M162.9052,-1286.8313C144.0848,-1283.4283 136.7529,-1270.1763 126,-1249.7 96.5317,-1193.5848 148.8822,-680.7 85.5,-680.7"/>
<polygon fill="#000000" stroke="#000000" points="173.0296,-1283.648 172.3758,-1291.6212 170.7811,-1291.4905 171.4349,-1283.5172 173.0296,-1283.648"/>
<polyline fill="none" stroke="#000000" points="173.5,-1287.7 169.5134,-1287.3731 "/>
<ellipse fill="none" stroke="#000000" cx="166.3241" cy="-1287.1115" rx="3.2" ry="3.2"/>
</g>
<!-- flood_marks -->
<g id="node4" class="node">
<title>flood_marks</title>
<g id="a_node4"><a xlink:href="../../tables/flood_marks.html" xlink:title="flood_marks" target="_top">
<polygon fill="#ffffff" stroke="transparent" points="169.5,-1178.2 169.5,-1239.2 279.5,-1239.2 279.5,-1178.2 169.5,-1178.2"/>
<polygon fill="#f5f5f5" stroke="transparent" points="169.5,-1215.7 169.5,-1238.7 279.5,-1238.7 279.5,-1215.7 169.5,-1215.7"/>
<polygon fill="none" stroke="#000000" points="169.5,-1215.7 169.5,-1238.7 279.5,-1238.7 279.5,-1215.7 169.5,-1215.7"/>
<text text-anchor="start" x="174.5" y="-1224.3" font-family="Helvetica,sans-Serif" font-weight="bold" font-size="11.00" fill="#000000">flood_marks</text>
<text text-anchor="start" x="245.0219" y="-1223.8" font-family="Helvetica,sans-Serif" font-size="11.00" fill="#000000">[table]</text>
<polygon fill="none" stroke="#000000" points="169.5,-1196.7 169.5,-1215.7 279.5,-1215.7 279.5,-1196.7 169.5,-1196.7"/>
<text text-anchor="start" x="172.5" y="-1202.8" font-family="Helvetica,sans-Serif" font-size="11.00" fill="#000000">...</text>
<polygon fill="#ffffff" stroke="transparent" points="169.5,-1177.7 169.5,-1196.7 222.5,-1196.7 222.5,-1177.7 169.5,-1177.7"/>
<polygon fill="none" stroke="#000000" points="169.5,-1177.7 169.5,-1196.7 222.5,-1196.7 222.5,-1177.7 169.5,-1177.7"/>
<text text-anchor="start" x="172.5" y="-1183.8" font-family="Helvetica,sans-Serif" font-size="11.00" fill="#000000">&lt; 1</text>
<polygon fill="#ffffff" stroke="transparent" points="222.5,-1177.7 222.5,-1196.7 250.5,-1196.7 250.5,-1177.7 222.5,-1177.7"/>
<polygon fill="none" stroke="#000000" points="222.5,-1177.7 222.5,-1196.7 250.5,-1196.7 250.5,-1177.7 222.5,-1177.7"/>
<text text-anchor="start" x="241.3862" y="-1183.8" font-family="Helvetica,sans-Serif" font-size="11.00" fill="#000000"> &#160;</text>
<polygon fill="#ffffff" stroke="transparent" points="250.5,-1177.7 250.5,-1196.7 279.5,-1196.7 279.5,-1177.7 250.5,-1177.7"/>
<polygon fill="none" stroke="#000000" points="250.5,-1177.7 250.5,-1196.7 279.5,-1196.7 279.5,-1177.7 250.5,-1177.7"/>
<text text-anchor="start" x="270.3862" y="-1183.8" font-family="Helvetica,sans-Serif" font-size="11.00" fill="#000000"> &#160;</text>
</a>
</g>
</g>
<!-- flood_marks&#45;&gt;events -->
<g id="edge3" class="edge">
<title>flood_marks:w&#45;&gt;events:e</title>
<path fill="none" stroke="#000000" stroke-dasharray="5,2" d="M155.182,-1203.6101C140.839,-1198.7247 135.0449,-1185.6002 126,-1167.7 101.5121,-1119.2376 139.7979,-680.7 85.5,-680.7"/>
<polygon fill="#000000" stroke="#000000" points="161.5839,-1204.5445 168.98,-1209.2623 165.5419,-1205.1222 169.5,-1205.7 169.5,-1205.7 169.5,-1205.7 165.5419,-1205.1222 170.02,-1202.1377 161.5839,-1204.5445 161.5839,-1204.5445"/>
<ellipse fill="none" stroke="#000000" cx="158.4174" cy="-1204.0823" rx="3.2" ry="3.2"/>
</g>
<!-- hydraulic_head -->
<g id="node5" class="node">
<title>hydraulic_head</title>
<g id="a_node5"><a xlink:href="../../tables/hydraulic_head.html" xlink:title="hydraulic_head" target="_top">
<polygon fill="#ffffff" stroke="transparent" points="161,-1096.2 161,-1157.2 288,-1157.2 288,-1096.2 161,-1096.2"/>
<polygon fill="#f5f5f5" stroke="transparent" points="161.5,-1133.7 161.5,-1156.7 288.5,-1156.7 288.5,-1133.7 161.5,-1133.7"/>
<polygon fill="none" stroke="#000000" points="161.5,-1133.7 161.5,-1156.7 288.5,-1156.7 288.5,-1133.7 161.5,-1133.7"/>
<text text-anchor="start" x="166.5" y="-1142.3" font-family="Helvetica,sans-Serif" font-weight="bold" font-size="11.00" fill="#000000">hydraulic_head</text>
<text text-anchor="start" x="254.0219" y="-1141.8" font-family="Helvetica,sans-Serif" font-size="11.00" fill="#000000">[table]</text>
<polygon fill="none" stroke="#000000" points="161.5,-1114.7 161.5,-1133.7 288.5,-1133.7 288.5,-1114.7 161.5,-1114.7"/>
<text text-anchor="start" x="164.5" y="-1120.8" font-family="Helvetica,sans-Serif" font-size="11.00" fill="#000000">...</text>
<polygon fill="#ffffff" stroke="transparent" points="161.5,-1095.7 161.5,-1114.7 223.5,-1114.7 223.5,-1095.7 161.5,-1095.7"/>
<polygon fill="none" stroke="#000000" points="161.5,-1095.7 161.5,-1114.7 223.5,-1114.7 223.5,-1095.7 161.5,-1095.7"/>
<text text-anchor="start" x="164.5" y="-1101.8" font-family="Helvetica,sans-Serif" font-size="11.00" fill="#000000">&lt; 1</text>
<polygon fill="#ffffff" stroke="transparent" points="223.5,-1095.7 223.5,-1114.7 255.5,-1114.7 255.5,-1095.7 223.5,-1095.7"/>
<polygon fill="none" stroke="#000000" points="223.5,-1095.7 223.5,-1114.7 255.5,-1114.7 255.5,-1095.7 223.5,-1095.7"/>
<text text-anchor="start" x="246.3862" y="-1101.8" font-family="Helvetica,sans-Serif" font-size="11.00" fill="#000000"> &#160;</text>
<polygon fill="#ffffff" stroke="transparent" points="255.5,-1095.7 255.5,-1114.7 288.5,-1114.7 288.5,-1095.7 255.5,-1095.7"/>
<polygon fill="none" stroke="#000000" points="255.5,-1095.7 255.5,-1114.7 288.5,-1114.7 288.5,-1095.7 255.5,-1095.7"/>
<text text-anchor="start" x="279.3862" y="-1101.8" font-family="Helvetica,sans-Serif" font-size="11.00" fill="#000000"> &#160;</text>
</a>
</g>
</g>
<!-- hydraulic_head&#45;&gt;events -->
<g id="edge4" class="edge">
<title>hydraulic_head:w&#45;&gt;events:e</title>
<path fill="none" stroke="#000000" stroke-dasharray="5,2" d="M147.2031,-1120.5405C136.4749,-1114.688 133.0811,-1101.3238 126,-1085.7 107.3311,-1044.5087 130.7244,-680.7 85.5,-680.7"/>
<polygon fill="#000000" stroke="#000000" points="153.6885,-1121.9737 160.7231,-1127.2152 157.5942,-1122.8368 161.5,-1123.7 161.5,-1123.7 161.5,-1123.7 157.5942,-1122.8368 162.2769,-1120.1848 153.6885,-1121.9737 153.6885,-1121.9737"/>
<ellipse fill="none" stroke="#000000" cx="150.5639" cy="-1121.2831" rx="3.2" ry="3.2"/>
</g>
<!-- init_conc_config -->
<g id="node6" class="node">
<title>init_conc_config</title>
<g id="a_node6"><a xlink:href="../../tables/init_conc_config.html" xlink:title="init_conc_config" target="_top">
<polygon fill="#ffffff" stroke="transparent" points="134,-940.7 134,-1074.7 315,-1074.7 315,-940.7 134,-940.7"/>
<polygon fill="#f5f5f5" stroke="transparent" points="136.5,-1049.7 136.5,-1072.7 313.5,-1072.7 313.5,-1049.7 136.5,-1049.7"/>
<polygon fill="none" stroke="#000000" points="136.5,-1049.7 136.5,-1072.7 313.5,-1072.7 313.5,-1049.7 136.5,-1049.7"/>
<text text-anchor="start" x="141.5" y="-1058.3" font-family="Helvetica,sans-Serif" font-weight="bold" font-size="11.00" fill="#000000">init_conc_config</text>
<text text-anchor="start" x="278.5437" y="-1057.8" font-family="Helvetica,sans-Serif" font-size="11.00" fill="#000000">[table]</text>
<polygon fill="none" stroke="#000000" points="136.5,-1027.7 136.5,-1049.7 252.5,-1049.7 252.5,-1027.7 136.5,-1027.7"/>
<image xlink:href="../../images/primaryKeys.png" width="11px" height="12px" preserveAspectRatio="xMinYMin meet" x="141.5" y="-1044.7"/>
<text text-anchor="start" x="156.5" y="-1034.8" font-family="Helvetica,sans-Serif" font-size="11.00" fill="#000000">id</text>
<polygon fill="none" stroke="#000000" points="252.5,-1027.7 252.5,-1049.7 313.5,-1049.7 313.5,-1027.7 252.5,-1027.7"/>
<text text-anchor="start" x="255.5" y="-1035.4" font-family="Helvetica,sans-Serif" font-size="11.00" fill="#000000">serial[10]</text>
<polygon fill="none" stroke="#000000" points="136.5,-1005.7 136.5,-1027.7 252.5,-1027.7 252.5,-1005.7 136.5,-1005.7"/>
<image xlink:href="../../images/foreignKeys.png" width="11px" height="12px" preserveAspectRatio="xMinYMin meet" x="141.5" y="-1022.7"/>
<text text-anchor="start" x="156.5" y="-1012.8" font-family="Helvetica,sans-Serif" font-size="11.00" fill="#000000">name</text>
<polygon fill="none" stroke="#000000" points="252.5,-1005.7 252.5,-1027.7 313.5,-1027.7 313.5,-1005.7 252.5,-1005.7"/>
<text text-anchor="start" x="255.494" y="-1013.4" font-family="Helvetica,sans-Serif" font-size="11.00" fill="#000000">varchar[30]</text>
<polygon fill="none" stroke="#000000" points="136.5,-983.7 136.5,-1005.7 252.5,-1005.7 252.5,-983.7 136.5,-983.7"/>
<text text-anchor="start" x="156.5" y="-990.8" font-family="Helvetica,sans-Serif" font-size="11.00" fill="#000000">type</text>
<polygon fill="none" stroke="#000000" points="252.5,-983.7 252.5,-1005.7 313.5,-1005.7 313.5,-983.7 252.5,-983.7"/>
<text text-anchor="start" x="255.5" y="-991.4" font-family="Helvetica,sans-Serif" font-size="11.00" fill="#000000">int4[10]</text>
<polygon fill="none" stroke="#000000" points="136.5,-961.7 136.5,-983.7 252.5,-983.7 252.5,-961.7 136.5,-961.7"/>
<text text-anchor="start" x="156.5" y="-968.8" font-family="Helvetica,sans-Serif" font-size="11.00" fill="#000000">active</text>
<polygon fill="none" stroke="#000000" points="252.5,-961.7 252.5,-983.7 313.5,-983.7 313.5,-961.7 252.5,-961.7"/>
<text text-anchor="start" x="255.5" y="-969.4" font-family="Helvetica,sans-Serif" font-size="11.00" fill="#000000">bool[1]</text>
<polygon fill="#ffffff" stroke="transparent" points="136.5,-942.7 136.5,-961.7 198.5,-961.7 198.5,-942.7 136.5,-942.7"/>
<polygon fill="none" stroke="#000000" points="136.5,-942.7 136.5,-961.7 198.5,-961.7 198.5,-942.7 136.5,-942.7"/>
<text text-anchor="start" x="139.5" y="-948.8" font-family="Helvetica,sans-Serif" font-size="11.00" fill="#000000">&lt; 1</text>
<polygon fill="#ffffff" stroke="transparent" points="198.5,-942.7 198.5,-961.7 252.5,-961.7 252.5,-942.7 198.5,-942.7"/>
<polygon fill="none" stroke="#000000" points="198.5,-942.7 198.5,-961.7 252.5,-961.7 252.5,-942.7 198.5,-942.7"/>
<text text-anchor="start" x="243.3862" y="-948.8" font-family="Helvetica,sans-Serif" font-size="11.00" fill="#000000"> &#160;</text>
<polygon fill="#ffffff" stroke="transparent" points="252.5,-942.7 252.5,-961.7 313.5,-961.7 313.5,-942.7 252.5,-942.7"/>
<polygon fill="none" stroke="#000000" points="252.5,-942.7 252.5,-961.7 313.5,-961.7 313.5,-942.7 252.5,-942.7"/>
<text text-anchor="start" x="294.9053" y="-948.8" font-family="Helvetica,sans-Serif" font-size="11.00" fill="#000000">0 &gt;</text>
<polygon fill="none" stroke="#000000" stroke-width="2" points="135,-941.7 135,-1073.7 314,-1073.7 314,-941.7 135,-941.7"/>
</a>
</g>
</g>
<!-- init_conc_config&#45;&gt;events -->
<g id="edge5" class="edge">
<title>init_conc_config:w&#45;&gt;events:e</title>
<path fill="none" stroke="#000000" stroke-dasharray="5,2" d="M122.7452,-1011.6895C74.5207,-969.8922 155.5643,-680.7 85.5,-680.7"/>
<polygon fill="#000000" stroke="#000000" points="128.9832,-1013.9618 135.2678,-1020.0826 132.7416,-1015.3309 136.5,-1016.7 136.5,-1016.7 136.5,-1016.7 132.7416,-1015.3309 137.7322,-1013.3174 128.9832,-1013.9618 128.9832,-1013.9618"/>
<ellipse fill="none" stroke="#000000" cx="125.9765" cy="-1012.8665" rx="3.2" ry="3.2"/>
</g>
<!-- lateral_inflows -->
<g id="node7" class="node">
<title>lateral_inflows</title>
<g id="a_node7"><a xlink:href="../../tables/lateral_inflows.html" xlink:title="lateral_inflows" target="_top">
<polygon fill="#ffffff" stroke="transparent" points="163.5,-858.2 163.5,-919.2 285.5,-919.2 285.5,-858.2 163.5,-858.2"/>
<polygon fill="#f5f5f5" stroke="transparent" points="163.5,-895.7 163.5,-918.7 285.5,-918.7 285.5,-895.7 163.5,-895.7"/>
<polygon fill="none" stroke="#000000" points="163.5,-895.7 163.5,-918.7 285.5,-918.7 285.5,-895.7 163.5,-895.7"/>
<text text-anchor="start" x="168.5" y="-904.3" font-family="Helvetica,sans-Serif" font-weight="bold" font-size="11.00" fill="#000000">lateral_inflows</text>
<text text-anchor="start" x="251.0219" y="-903.8" font-family="Helvetica,sans-Serif" font-size="11.00" fill="#000000">[table]</text>
<polygon fill="none" stroke="#000000" points="163.5,-876.7 163.5,-895.7 285.5,-895.7 285.5,-876.7 163.5,-876.7"/>
<text text-anchor="start" x="166.5" y="-882.8" font-family="Helvetica,sans-Serif" font-size="11.00" fill="#000000">...</text>
<polygon fill="#ffffff" stroke="transparent" points="163.5,-857.7 163.5,-876.7 222.5,-876.7 222.5,-857.7 163.5,-857.7"/>
<polygon fill="none" stroke="#000000" points="163.5,-857.7 163.5,-876.7 222.5,-876.7 222.5,-857.7 163.5,-857.7"/>
<text text-anchor="start" x="166.5" y="-863.8" font-family="Helvetica,sans-Serif" font-size="11.00" fill="#000000">&lt; 1</text>
<polygon fill="#ffffff" stroke="transparent" points="222.5,-857.7 222.5,-876.7 253.5,-876.7 253.5,-857.7 222.5,-857.7"/>
<polygon fill="none" stroke="#000000" points="222.5,-857.7 222.5,-876.7 253.5,-876.7 253.5,-857.7 222.5,-857.7"/>
<text text-anchor="start" x="244.3862" y="-863.8" font-family="Helvetica,sans-Serif" font-size="11.00" fill="#000000"> &#160;</text>
<polygon fill="#ffffff" stroke="transparent" points="253.5,-857.7 253.5,-876.7 285.5,-876.7 285.5,-857.7 253.5,-857.7"/>
<polygon fill="none" stroke="#000000" points="253.5,-857.7 253.5,-876.7 285.5,-876.7 285.5,-857.7 253.5,-857.7"/>
<text text-anchor="start" x="276.3862" y="-863.8" font-family="Helvetica,sans-Serif" font-size="11.00" fill="#000000"> &#160;</text>
</a>
</g>
</g>
<!-- lateral_inflows&#45;&gt;events -->
<g id="edge6" class="edge">
<title>lateral_inflows:w&#45;&gt;events:e</title>
<path fill="none" stroke="#000000" stroke-dasharray="5,2" d="M149.2545,-882.6773C138.0778,-876.8478 134.6619,-863.2456 126,-847.7 88.8262,-780.9838 161.8737,-680.7 85.5,-680.7"/>
<polygon fill="#000000" stroke="#000000" points="155.6742,-884.0394 162.7527,-889.2216 159.5871,-884.8697 163.5,-885.7 163.5,-885.7 163.5,-885.7 159.5871,-884.8697 164.2473,-882.1784 155.6742,-884.0394 155.6742,-884.0394"/>
<ellipse fill="none" stroke="#000000" cx="152.5439" cy="-883.3752" rx="3.2" ry="3.2"/>
</g>
<!-- lateral_weirs -->
<g id="node8" class="node">
<title>lateral_weirs</title>
<g id="a_node8"><a xlink:href="../../tables/lateral_weirs.html" xlink:title="lateral_weirs" target="_top">
<polygon fill="#ffffff" stroke="transparent" points="169,-776.2 169,-837.2 280,-837.2 280,-776.2 169,-776.2"/>
<polygon fill="#f5f5f5" stroke="transparent" points="169.5,-813.7 169.5,-836.7 280.5,-836.7 280.5,-813.7 169.5,-813.7"/>
<polygon fill="none" stroke="#000000" points="169.5,-813.7 169.5,-836.7 280.5,-836.7 280.5,-813.7 169.5,-813.7"/>
<text text-anchor="start" x="174.5" y="-822.3" font-family="Helvetica,sans-Serif" font-weight="bold" font-size="11.00" fill="#000000">lateral_weirs</text>
<text text-anchor="start" x="246.0219" y="-821.8" font-family="Helvetica,sans-Serif" font-size="11.00" fill="#000000">[table]</text>
<polygon fill="none" stroke="#000000" points="169.5,-794.7 169.5,-813.7 280.5,-813.7 280.5,-794.7 169.5,-794.7"/>
<text text-anchor="start" x="172.5" y="-800.8" font-family="Helvetica,sans-Serif" font-size="11.00" fill="#000000">...</text>
<polygon fill="#ffffff" stroke="transparent" points="169.5,-775.7 169.5,-794.7 223.5,-794.7 223.5,-775.7 169.5,-775.7"/>
<polygon fill="none" stroke="#000000" points="169.5,-775.7 169.5,-794.7 223.5,-794.7 223.5,-775.7 169.5,-775.7"/>
<text text-anchor="start" x="172.5" y="-781.8" font-family="Helvetica,sans-Serif" font-size="11.00" fill="#000000">&lt; 1</text>
<polygon fill="#ffffff" stroke="transparent" points="223.5,-775.7 223.5,-794.7 251.5,-794.7 251.5,-775.7 223.5,-775.7"/>
<polygon fill="none" stroke="#000000" points="223.5,-775.7 223.5,-794.7 251.5,-794.7 251.5,-775.7 223.5,-775.7"/>
<text text-anchor="start" x="242.3862" y="-781.8" font-family="Helvetica,sans-Serif" font-size="11.00" fill="#000000"> &#160;</text>
<polygon fill="#ffffff" stroke="transparent" points="251.5,-775.7 251.5,-794.7 280.5,-794.7 280.5,-775.7 251.5,-775.7"/>
<polygon fill="none" stroke="#000000" points="251.5,-775.7 251.5,-794.7 280.5,-794.7 280.5,-775.7 251.5,-775.7"/>
<text text-anchor="start" x="271.3862" y="-781.8" font-family="Helvetica,sans-Serif" font-size="11.00" fill="#000000"> &#160;</text>
</a>
</g>
</g>
<!-- lateral_weirs&#45;&gt;events -->
<g id="edge7" class="edge">
<title>lateral_weirs:w&#45;&gt;events:e</title>
<path fill="none" stroke="#000000" stroke-dasharray="5,2" d="M155.2226,-801.1686C142.1008,-795.601 137.9957,-781.5218 126,-765.7 100.7177,-732.3538 127.3469,-680.7 85.5,-680.7"/>
<polygon fill="#000000" stroke="#000000" points="161.6229,-802.3033 168.8715,-807.2447 165.5614,-803.0017 169.5,-803.7 169.5,-803.7 169.5,-803.7 165.5614,-803.0017 170.1285,-800.1553 161.6229,-802.3033 161.6229,-802.3033"/>
<ellipse fill="none" stroke="#000000" cx="158.472" cy="-801.7446" rx="3.2" ry="3.2"/>
</g>
<!-- links -->
<g id="node9" class="node">
<title>links</title>
<g id="a_node9"><a xlink:href="../../tables/links.html" xlink:title="links" target="_top">
<polygon fill="#ffffff" stroke="transparent" points="191.5,-694.2 191.5,-755.2 257.5,-755.2 257.5,-694.2 191.5,-694.2"/>
<polygon fill="#f5f5f5" stroke="transparent" points="191.5,-731.7 191.5,-754.7 257.5,-754.7 257.5,-731.7 191.5,-731.7"/>
<polygon fill="none" stroke="#000000" points="191.5,-731.7 191.5,-754.7 257.5,-754.7 257.5,-731.7 191.5,-731.7"/>
<text text-anchor="start" x="196.5" y="-740.3" font-family="Helvetica,sans-Serif" font-weight="bold" font-size="11.00" fill="#000000">links</text>
<text text-anchor="start" x="223.0219" y="-739.8" font-family="Helvetica,sans-Serif" font-size="11.00" fill="#000000">[table]</text>
<polygon fill="none" stroke="#000000" points="191.5,-712.7 191.5,-731.7 257.5,-731.7 257.5,-712.7 191.5,-712.7"/>
<text text-anchor="start" x="194.5" y="-718.8" font-family="Helvetica,sans-Serif" font-size="11.00" fill="#000000">...</text>
<polygon fill="#ffffff" stroke="transparent" points="191.5,-693.7 191.5,-712.7 222.5,-712.7 222.5,-693.7 191.5,-693.7"/>
<polygon fill="none" stroke="#000000" points="191.5,-693.7 191.5,-712.7 222.5,-712.7 222.5,-693.7 191.5,-693.7"/>
<text text-anchor="start" x="194.5" y="-699.8" font-family="Helvetica,sans-Serif" font-size="11.00" fill="#000000">&lt; 1</text>
<polygon fill="#ffffff" stroke="transparent" points="222.5,-693.7 222.5,-712.7 239.5,-712.7 239.5,-693.7 222.5,-693.7"/>
<polygon fill="none" stroke="#000000" points="222.5,-693.7 222.5,-712.7 239.5,-712.7 239.5,-693.7 222.5,-693.7"/>
<text text-anchor="start" x="230.3862" y="-699.8" font-family="Helvetica,sans-Serif" font-size="11.00" fill="#000000"> &#160;</text>
<polygon fill="#ffffff" stroke="transparent" points="239.5,-693.7 239.5,-712.7 257.5,-712.7 257.5,-693.7 239.5,-693.7"/>
<polygon fill="none" stroke="#000000" points="239.5,-693.7 239.5,-712.7 257.5,-712.7 257.5,-693.7 239.5,-693.7"/>
<text text-anchor="start" x="248.3862" y="-699.8" font-family="Helvetica,sans-Serif" font-size="11.00" fill="#000000"> &#160;</text>
</a>
</g>
</g>
<!-- links&#45;&gt;events -->
<g id="edge8" class="edge">
<title>links:w&#45;&gt;events:e</title>
<path fill="none" stroke="#000000" stroke-dasharray="5,2" d="M180.9684,-721.056C139.9982,-715.8399 132.2635,-680.7 85.5,-680.7"/>
<polygon fill="#000000" stroke="#000000" points="190.9457,-717.6586 190.4573,-725.6437 188.8603,-725.546 189.3487,-717.5609 190.9457,-717.6586"/>
<polyline fill="none" stroke="#000000" points="191.5,-721.7 187.5075,-721.4558 "/>
<ellipse fill="none" stroke="#000000" cx="184.3134" cy="-721.2605" rx="3.2" ry="3.2"/>
</g>
<!-- meteo_config -->
<g id="node10" class="node">
<title>meteo_config</title>
<g id="a_node10"><a xlink:href="../../tables/meteo_config.html" xlink:title="meteo_config" target="_top">
<polygon fill="#ffffff" stroke="transparent" points="166,-612.2 166,-673.2 283,-673.2 283,-612.2 166,-612.2"/>
<polygon fill="#f5f5f5" stroke="transparent" points="166.5,-649.7 166.5,-672.7 283.5,-672.7 283.5,-649.7 166.5,-649.7"/>
<polygon fill="none" stroke="#000000" points="166.5,-649.7 166.5,-672.7 283.5,-672.7 283.5,-649.7 166.5,-649.7"/>
<text text-anchor="start" x="171.5" y="-658.3" font-family="Helvetica,sans-Serif" font-weight="bold" font-size="11.00" fill="#000000">meteo_config</text>
<text text-anchor="start" x="249.0219" y="-657.8" font-family="Helvetica,sans-Serif" font-size="11.00" fill="#000000">[table]</text>
<polygon fill="none" stroke="#000000" points="166.5,-630.7 166.5,-649.7 283.5,-649.7 283.5,-630.7 166.5,-630.7"/>
<text text-anchor="start" x="169.5" y="-636.8" font-family="Helvetica,sans-Serif" font-size="11.00" fill="#000000">...</text>
<polygon fill="#ffffff" stroke="transparent" points="166.5,-611.7 166.5,-630.7 223.5,-630.7 223.5,-611.7 166.5,-611.7"/>
<polygon fill="none" stroke="#000000" points="166.5,-611.7 166.5,-630.7 223.5,-630.7 223.5,-611.7 166.5,-611.7"/>
<text text-anchor="start" x="169.5" y="-617.8" font-family="Helvetica,sans-Serif" font-size="11.00" fill="#000000">&lt; 1</text>
<polygon fill="#ffffff" stroke="transparent" points="223.5,-611.7 223.5,-630.7 253.5,-630.7 253.5,-611.7 223.5,-611.7"/>
<polygon fill="none" stroke="#000000" points="223.5,-611.7 223.5,-630.7 253.5,-630.7 253.5,-611.7 223.5,-611.7"/>
<text text-anchor="start" x="244.3862" y="-617.8" font-family="Helvetica,sans-Serif" font-size="11.00" fill="#000000"> &#160;</text>
<polygon fill="#ffffff" stroke="transparent" points="253.5,-611.7 253.5,-630.7 283.5,-630.7 283.5,-611.7 253.5,-611.7"/>
<polygon fill="none" stroke="#000000" points="253.5,-611.7 253.5,-630.7 283.5,-630.7 283.5,-611.7 253.5,-611.7"/>
<text text-anchor="start" x="274.3862" y="-617.8" font-family="Helvetica,sans-Serif" font-size="11.00" fill="#000000"> &#160;</text>
</a>
</g>
</g>
<!-- meteo_config&#45;&gt;events -->
<g id="edge9" class="edge">
<title>meteo_config:w&#45;&gt;events:e</title>
<path fill="none" stroke="#000000" stroke-dasharray="5,2" d="M151.9916,-641.7896C125.3198,-650.1446 120.3326,-680.7 85.5,-680.7"/>
<polygon fill="#000000" stroke="#000000" points="158.5817,-640.8405 167.0132,-643.2632 162.5409,-640.2702 166.5,-639.7 166.5,-639.7 166.5,-639.7 162.5409,-640.2702 165.9868,-636.1368 158.5817,-640.8405 158.5817,-640.8405"/>
<ellipse fill="none" stroke="#000000" cx="155.4144" cy="-641.2967" rx="3.2" ry="3.2"/>
</g>
<!-- outputs -->
<g id="node11" class="node">
<title>outputs</title>
<g id="a_node11"><a xlink:href="../../tables/outputs.html" xlink:title="outputs" target="_top">
<polygon fill="#ffffff" stroke="transparent" points="183.5,-530.2 183.5,-591.2 265.5,-591.2 265.5,-530.2 183.5,-530.2"/>
<polygon fill="#f5f5f5" stroke="transparent" points="183.5,-567.7 183.5,-590.7 265.5,-590.7 265.5,-567.7 183.5,-567.7"/>
<polygon fill="none" stroke="#000000" points="183.5,-567.7 183.5,-590.7 265.5,-590.7 265.5,-567.7 183.5,-567.7"/>
<text text-anchor="start" x="188.5" y="-576.3" font-family="Helvetica,sans-Serif" font-weight="bold" font-size="11.00" fill="#000000">outputs</text>
<text text-anchor="start" x="231.0219" y="-575.8" font-family="Helvetica,sans-Serif" font-size="11.00" fill="#000000">[table]</text>
<polygon fill="none" stroke="#000000" points="183.5,-548.7 183.5,-567.7 265.5,-567.7 265.5,-548.7 183.5,-548.7"/>
<text text-anchor="start" x="186.5" y="-554.8" font-family="Helvetica,sans-Serif" font-size="11.00" fill="#000000">...</text>
<polygon fill="#ffffff" stroke="transparent" points="183.5,-529.7 183.5,-548.7 222.5,-548.7 222.5,-529.7 183.5,-529.7"/>
<polygon fill="none" stroke="#000000" points="183.5,-529.7 183.5,-548.7 222.5,-548.7 222.5,-529.7 183.5,-529.7"/>
<text text-anchor="start" x="186.5" y="-535.8" font-family="Helvetica,sans-Serif" font-size="11.00" fill="#000000">&lt; 1</text>
<polygon fill="#ffffff" stroke="transparent" points="222.5,-529.7 222.5,-548.7 243.5,-548.7 243.5,-529.7 222.5,-529.7"/>
<polygon fill="none" stroke="#000000" points="222.5,-529.7 222.5,-548.7 243.5,-548.7 243.5,-529.7 222.5,-529.7"/>
<text text-anchor="start" x="234.3862" y="-535.8" font-family="Helvetica,sans-Serif" font-size="11.00" fill="#000000"> &#160;</text>
<polygon fill="#ffffff" stroke="transparent" points="243.5,-529.7 243.5,-548.7 265.5,-548.7 265.5,-529.7 243.5,-529.7"/>
<polygon fill="none" stroke="#000000" points="243.5,-529.7 243.5,-548.7 265.5,-548.7 265.5,-529.7 243.5,-529.7"/>
<text text-anchor="start" x="256.3862" y="-535.8" font-family="Helvetica,sans-Serif" font-size="11.00" fill="#000000"> &#160;</text>
</a>
</g>
</g>
<!-- outputs&#45;&gt;events -->
<g id="edge10" class="edge">
<title>outputs:w&#45;&gt;events:e</title>
<path fill="none" stroke="#000000" stroke-dasharray="5,2" d="M169.1227,-559.3397C149.2357,-564.4935 143.0791,-581.2441 126,-601.7 100.7124,-631.9874 124.9562,-680.7 85.5,-680.7"/>
<polygon fill="#000000" stroke="#000000" points="175.5515,-558.6066 183.908,-561.2768 179.5258,-558.1533 183.5,-557.7 183.5,-557.7 183.5,-557.7 179.5258,-558.1533 183.092,-554.1232 175.5515,-558.6066 175.5515,-558.6066"/>
<ellipse fill="none" stroke="#000000" cx="172.3721" cy="-558.9692" rx="3.2" ry="3.2"/>
</g>
<!-- profiles -->
<g id="node12" class="node">
<title>profiles</title>
<g id="a_node12"><a xlink:href="../../tables/profiles.html" xlink:title="profiles" target="_top">
<polygon fill="#ffffff" stroke="transparent" points="183.5,-448.2 183.5,-509.2 265.5,-509.2 265.5,-448.2 183.5,-448.2"/>
<polygon fill="#f5f5f5" stroke="transparent" points="183.5,-485.7 183.5,-508.7 265.5,-508.7 265.5,-485.7 183.5,-485.7"/>
<polygon fill="none" stroke="#000000" points="183.5,-485.7 183.5,-508.7 265.5,-508.7 265.5,-485.7 183.5,-485.7"/>
<text text-anchor="start" x="188.5" y="-494.3" font-family="Helvetica,sans-Serif" font-weight="bold" font-size="11.00" fill="#000000">profiles</text>
<text text-anchor="start" x="231.0219" y="-493.8" font-family="Helvetica,sans-Serif" font-size="11.00" fill="#000000">[table]</text>
<polygon fill="none" stroke="#000000" points="183.5,-466.7 183.5,-485.7 265.5,-485.7 265.5,-466.7 183.5,-466.7"/>
<text text-anchor="start" x="186.5" y="-472.8" font-family="Helvetica,sans-Serif" font-size="11.00" fill="#000000">...</text>
<polygon fill="#ffffff" stroke="transparent" points="183.5,-447.7 183.5,-466.7 222.5,-466.7 222.5,-447.7 183.5,-447.7"/>
<polygon fill="none" stroke="#000000" points="183.5,-447.7 183.5,-466.7 222.5,-466.7 222.5,-447.7 183.5,-447.7"/>
<text text-anchor="start" x="186.5" y="-453.8" font-family="Helvetica,sans-Serif" font-size="11.00" fill="#000000">&lt; 1</text>
<polygon fill="#ffffff" stroke="transparent" points="222.5,-447.7 222.5,-466.7 243.5,-466.7 243.5,-447.7 222.5,-447.7"/>
<polygon fill="none" stroke="#000000" points="222.5,-447.7 222.5,-466.7 243.5,-466.7 243.5,-447.7 222.5,-447.7"/>
<text text-anchor="start" x="234.3862" y="-453.8" font-family="Helvetica,sans-Serif" font-size="11.00" fill="#000000"> &#160;</text>
<polygon fill="#ffffff" stroke="transparent" points="243.5,-447.7 243.5,-466.7 265.5,-466.7 265.5,-447.7 243.5,-447.7"/>
<polygon fill="none" stroke="#000000" points="243.5,-447.7 243.5,-466.7 265.5,-466.7 265.5,-447.7 243.5,-447.7"/>
<text text-anchor="start" x="256.3862" y="-453.8" font-family="Helvetica,sans-Serif" font-size="11.00" fill="#000000"> &#160;</text>
</a>
</g>
</g>
<!-- profiles&#45;&gt;events -->
<g id="edge11" class="edge">
<title>profiles:w&#45;&gt;events:e</title>
<path fill="none" stroke="#000000" stroke-dasharray="5,2" d="M172.8283,-476.44C149.3251,-479.9892 141.5476,-496.0742 126,-519.7 85.4388,-581.3359 159.2848,-680.7 85.5,-680.7"/>
<polygon fill="#000000" stroke="#000000" points="182.4252,-471.7649 182.9787,-479.7458 181.3825,-479.8565 180.829,-471.8756 182.4252,-471.7649"/>
<polyline fill="none" stroke="#000000" points="183.5,-475.7 179.5096,-475.9767 "/>
<ellipse fill="none" stroke="#000000" cx="176.3172" cy="-476.1981" rx="3.2" ry="3.2"/>
</g>
<!-- struct_config -->
<g id="node13" class="node">
<title>struct_config</title>
<g id="a_node13"><a xlink:href="../../tables/struct_config.html" xlink:title="struct_config" target="_top">
<polygon fill="#ffffff" stroke="transparent" points="167,-366.2 167,-427.2 282,-427.2 282,-366.2 167,-366.2"/>
<polygon fill="#f5f5f5" stroke="transparent" points="167.5,-403.7 167.5,-426.7 282.5,-426.7 282.5,-403.7 167.5,-403.7"/>
<polygon fill="none" stroke="#000000" points="167.5,-403.7 167.5,-426.7 282.5,-426.7 282.5,-403.7 167.5,-403.7"/>
<text text-anchor="start" x="172.5" y="-412.3" font-family="Helvetica,sans-Serif" font-weight="bold" font-size="11.00" fill="#000000">struct_config</text>
<text text-anchor="start" x="248.0219" y="-411.8" font-family="Helvetica,sans-Serif" font-size="11.00" fill="#000000">[table]</text>
<polygon fill="none" stroke="#000000" points="167.5,-384.7 167.5,-403.7 282.5,-403.7 282.5,-384.7 167.5,-384.7"/>
<text text-anchor="start" x="170.5" y="-390.8" font-family="Helvetica,sans-Serif" font-size="11.00" fill="#000000">...</text>
<polygon fill="#ffffff" stroke="transparent" points="167.5,-365.7 167.5,-384.7 223.5,-384.7 223.5,-365.7 167.5,-365.7"/>
<polygon fill="none" stroke="#000000" points="167.5,-365.7 167.5,-384.7 223.5,-384.7 223.5,-365.7 167.5,-365.7"/>
<text text-anchor="start" x="170.5" y="-371.8" font-family="Helvetica,sans-Serif" font-size="11.00" fill="#000000">&lt; 1</text>
<polygon fill="#ffffff" stroke="transparent" points="223.5,-365.7 223.5,-384.7 252.5,-384.7 252.5,-365.7 223.5,-365.7"/>
<polygon fill="none" stroke="#000000" points="223.5,-365.7 223.5,-384.7 252.5,-384.7 252.5,-365.7 223.5,-365.7"/>
<text text-anchor="start" x="243.3862" y="-371.8" font-family="Helvetica,sans-Serif" font-size="11.00" fill="#000000"> &#160;</text>
<polygon fill="#ffffff" stroke="transparent" points="252.5,-365.7 252.5,-384.7 282.5,-384.7 282.5,-365.7 252.5,-365.7"/>
<polygon fill="none" stroke="#000000" points="252.5,-365.7 252.5,-384.7 282.5,-384.7 282.5,-365.7 252.5,-365.7"/>
<text text-anchor="start" x="273.3862" y="-371.8" font-family="Helvetica,sans-Serif" font-size="11.00" fill="#000000"> &#160;</text>
</a>
</g>
</g>
<!-- struct_config&#45;&gt;events -->
<g id="edge12" class="edge">
<title>struct_config:w&#45;&gt;events:e</title>
<path fill="none" stroke="#000000" stroke-dasharray="5,2" d="M152.9843,-396.3947C139.0068,-402.6143 135.3358,-418.888 126,-437.7 101.6639,-486.7383 140.2449,-680.7 85.5,-680.7"/>
<polygon fill="#000000" stroke="#000000" points="159.6344,-395.1602 168.1571,-397.2395 163.5672,-394.4301 167.5,-393.7 167.5,-393.7 167.5,-393.7 163.5672,-394.4301 166.8429,-390.1605 159.6344,-395.1602 159.6344,-395.1602"/>
<ellipse fill="none" stroke="#000000" cx="156.4881" cy="-395.7443" rx="3.2" ry="3.2"/>
</g>
<!-- topo -->
<g id="node14" class="node">
<title>topo</title>
<g id="a_node14"><a xlink:href="../../tables/topo.html" xlink:title="topo" target="_top">
<polygon fill="#ffffff" stroke="transparent" points="192.5,-284.2 192.5,-345.2 256.5,-345.2 256.5,-284.2 192.5,-284.2"/>
<polygon fill="#f5f5f5" stroke="transparent" points="192.5,-321.7 192.5,-344.7 256.5,-344.7 256.5,-321.7 192.5,-321.7"/>
<polygon fill="none" stroke="#000000" points="192.5,-321.7 192.5,-344.7 256.5,-344.7 256.5,-321.7 192.5,-321.7"/>
<text text-anchor="start" x="197.2992" y="-330.3" font-family="Helvetica,sans-Serif" font-weight="bold" font-size="11.00" fill="#000000">topo</text>
<text text-anchor="start" x="222.0219" y="-329.8" font-family="Helvetica,sans-Serif" font-size="11.00" fill="#000000">[table]</text>
<polygon fill="none" stroke="#000000" points="192.5,-302.7 192.5,-321.7 256.5,-321.7 256.5,-302.7 192.5,-302.7"/>
<text text-anchor="start" x="195.5" y="-308.8" font-family="Helvetica,sans-Serif" font-size="11.00" fill="#000000">...</text>
<polygon fill="#ffffff" stroke="transparent" points="192.5,-283.7 192.5,-302.7 222.5,-302.7 222.5,-283.7 192.5,-283.7"/>
<polygon fill="none" stroke="#000000" points="192.5,-283.7 192.5,-302.7 222.5,-302.7 222.5,-283.7 192.5,-283.7"/>
<text text-anchor="start" x="195.5" y="-289.8" font-family="Helvetica,sans-Serif" font-size="11.00" fill="#000000">&lt; 1</text>
<polygon fill="#ffffff" stroke="transparent" points="222.5,-283.7 222.5,-302.7 239.5,-302.7 239.5,-283.7 222.5,-283.7"/>
<polygon fill="none" stroke="#000000" points="222.5,-283.7 222.5,-302.7 239.5,-302.7 239.5,-283.7 222.5,-283.7"/>
<text text-anchor="start" x="230.3862" y="-289.8" font-family="Helvetica,sans-Serif" font-size="11.00" fill="#000000"> &#160;</text>
<polygon fill="#ffffff" stroke="transparent" points="239.5,-283.7 239.5,-302.7 256.5,-302.7 256.5,-283.7 239.5,-283.7"/>
<polygon fill="none" stroke="#000000" points="239.5,-283.7 239.5,-302.7 256.5,-302.7 256.5,-283.7 239.5,-283.7"/>
<text text-anchor="start" x="247.3862" y="-289.8" font-family="Helvetica,sans-Serif" font-size="11.00" fill="#000000"> &#160;</text>
</a>
</g>
</g>
<!-- topo&#45;&gt;events -->
<g id="edge13" class="edge">
<title>topo:w&#45;&gt;events:e</title>
<path fill="none" stroke="#000000" stroke-dasharray="5,2" d="M177.8047,-312.6749C153.1417,-316.3066 141.8328,-330.1706 126,-355.7 87.641,-417.5517 158.2808,-680.7 85.5,-680.7"/>
<polygon fill="#000000" stroke="#000000" points="184.5175,-312.2296 192.7383,-315.2921 188.5088,-311.9648 192.5,-311.7 192.5,-311.7 192.5,-311.7 188.5088,-311.9648 192.2617,-308.1079 184.5175,-312.2296 184.5175,-312.2296"/>
<ellipse fill="none" stroke="#000000" cx="181.3246" cy="-312.4415" rx="3.2" ry="3.2"/>
</g>
<!-- tracer_config -->
<g id="node15" class="node">
<title>tracer_config</title>
<g id="a_node15"><a xlink:href="../../tables/tracer_config.html" xlink:title="tracer_config" target="_top">
<polygon fill="#ffffff" stroke="transparent" points="167,-202.2 167,-263.2 282,-263.2 282,-202.2 167,-202.2"/>
<polygon fill="#f5f5f5" stroke="transparent" points="167.5,-239.7 167.5,-262.7 282.5,-262.7 282.5,-239.7 167.5,-239.7"/>
<polygon fill="none" stroke="#000000" points="167.5,-239.7 167.5,-262.7 282.5,-262.7 282.5,-239.7 167.5,-239.7"/>
<text text-anchor="start" x="172.5" y="-248.3" font-family="Helvetica,sans-Serif" font-weight="bold" font-size="11.00" fill="#000000">tracer_config</text>
<text text-anchor="start" x="248.0219" y="-247.8" font-family="Helvetica,sans-Serif" font-size="11.00" fill="#000000">[table]</text>
<polygon fill="none" stroke="#000000" points="167.5,-220.7 167.5,-239.7 282.5,-239.7 282.5,-220.7 167.5,-220.7"/>
<text text-anchor="start" x="170.5" y="-226.8" font-family="Helvetica,sans-Serif" font-size="11.00" fill="#000000">...</text>
<polygon fill="#ffffff" stroke="transparent" points="167.5,-201.7 167.5,-220.7 223.5,-220.7 223.5,-201.7 167.5,-201.7"/>
<polygon fill="none" stroke="#000000" points="167.5,-201.7 167.5,-220.7 223.5,-220.7 223.5,-201.7 167.5,-201.7"/>
<text text-anchor="start" x="170.5" y="-207.8" font-family="Helvetica,sans-Serif" font-size="11.00" fill="#000000">&lt; 1</text>
<polygon fill="#ffffff" stroke="transparent" points="223.5,-201.7 223.5,-220.7 252.5,-220.7 252.5,-201.7 223.5,-201.7"/>
<polygon fill="none" stroke="#000000" points="223.5,-201.7 223.5,-220.7 252.5,-220.7 252.5,-201.7 223.5,-201.7"/>
<text text-anchor="start" x="243.3862" y="-207.8" font-family="Helvetica,sans-Serif" font-size="11.00" fill="#000000"> &#160;</text>
<polygon fill="#ffffff" stroke="transparent" points="252.5,-201.7 252.5,-220.7 282.5,-220.7 282.5,-201.7 252.5,-201.7"/>
<polygon fill="none" stroke="#000000" points="252.5,-201.7 252.5,-220.7 282.5,-220.7 282.5,-201.7 252.5,-201.7"/>
<text text-anchor="start" x="273.3862" y="-207.8" font-family="Helvetica,sans-Serif" font-size="11.00" fill="#000000"> &#160;</text>
</a>
</g>
</g>
<!-- tracer_config&#45;&gt;events -->
<g id="edge14" class="edge">
<title>tracer_config:w&#45;&gt;events:e</title>
<path fill="none" stroke="#000000" stroke-dasharray="5,2" d="M152.8945,-232.352C138.7332,-238.484 134.7104,-254.5903 126,-273.7 107.1512,-315.0524 130.9456,-680.7 85.5,-680.7"/>
<polygon fill="#000000" stroke="#000000" points="159.6287,-231.1293 168.1432,-233.2421 163.5644,-230.4146 167.5,-229.7 167.5,-229.7 167.5,-229.7 163.5644,-230.4146 166.8568,-226.1579 159.6287,-231.1293 159.6287,-231.1293"/>
<ellipse fill="none" stroke="#000000" cx="156.4802" cy="-231.701" rx="3.2" ry="3.2"/>
</g>
<!-- tracer_lateral_inflows -->
<g id="node16" class="node">
<title>tracer_lateral_inflows</title>
<g id="a_node16"><a xlink:href="../../tables/tracer_lateral_inflows.html" xlink:title="tracer_lateral_inflows" target="_top">
<polygon fill="#ffffff" stroke="transparent" points="143.5,-120.2 143.5,-181.2 305.5,-181.2 305.5,-120.2 143.5,-120.2"/>
<polygon fill="#f5f5f5" stroke="transparent" points="143.5,-157.7 143.5,-180.7 305.5,-180.7 305.5,-157.7 143.5,-157.7"/>
<polygon fill="none" stroke="#000000" points="143.5,-157.7 143.5,-180.7 305.5,-180.7 305.5,-157.7 143.5,-157.7"/>
<text text-anchor="start" x="148.5" y="-166.3" font-family="Helvetica,sans-Serif" font-weight="bold" font-size="11.00" fill="#000000">tracer_lateral_inflows</text>
<text text-anchor="start" x="271.0219" y="-165.8" font-family="Helvetica,sans-Serif" font-size="11.00" fill="#000000">[table]</text>
<polygon fill="none" stroke="#000000" points="143.5,-138.7 143.5,-157.7 305.5,-157.7 305.5,-138.7 143.5,-138.7"/>
<text text-anchor="start" x="146.5" y="-144.8" font-family="Helvetica,sans-Serif" font-size="11.00" fill="#000000">...</text>
<polygon fill="#ffffff" stroke="transparent" points="143.5,-119.7 143.5,-138.7 222.5,-138.7 222.5,-119.7 143.5,-119.7"/>
<polygon fill="none" stroke="#000000" points="143.5,-119.7 143.5,-138.7 222.5,-138.7 222.5,-119.7 143.5,-119.7"/>
<text text-anchor="start" x="146.5" y="-125.8" font-family="Helvetica,sans-Serif" font-size="11.00" fill="#000000">&lt; 1</text>
<polygon fill="#ffffff" stroke="transparent" points="222.5,-119.7 222.5,-138.7 263.5,-138.7 263.5,-119.7 222.5,-119.7"/>
<polygon fill="none" stroke="#000000" points="222.5,-119.7 222.5,-138.7 263.5,-138.7 263.5,-119.7 222.5,-119.7"/>
<text text-anchor="start" x="254.3862" y="-125.8" font-family="Helvetica,sans-Serif" font-size="11.00" fill="#000000"> &#160;</text>
<polygon fill="#ffffff" stroke="transparent" points="263.5,-119.7 263.5,-138.7 305.5,-138.7 305.5,-119.7 263.5,-119.7"/>
<polygon fill="none" stroke="#000000" points="263.5,-119.7 263.5,-138.7 305.5,-138.7 305.5,-119.7 263.5,-119.7"/>
<text text-anchor="start" x="296.3862" y="-125.8" font-family="Helvetica,sans-Serif" font-size="11.00" fill="#000000"> &#160;</text>
</a>
</g>
</g>
<!-- tracer_lateral_inflows&#45;&gt;events -->
<g id="edge15" class="edge">
<title>tracer_lateral_inflows:w&#45;&gt;events:e</title>
<path fill="none" stroke="#000000" stroke-dasharray="5,2" d="M131.8814,-156.5065C92.5426,-225.8067 140.5341,-680.7 85.5,-680.7"/>
<polygon fill="#000000" stroke="#000000" points="137.1245,-152.5325 145.6746,-150.569 140.3122,-150.1162 143.5,-147.7 143.5,-147.7 143.5,-147.7 140.3122,-150.1162 141.3254,-144.831 137.1245,-152.5325 137.1245,-152.5325"/>
<ellipse fill="none" stroke="#000000" cx="134.5742" cy="-154.4655" rx="3.2" ry="3.2"/>
</g>
<!-- weirs -->
<g id="node17" class="node">
<title>weirs</title>
<g id="a_node17"><a xlink:href="../../tables/weirs.html" xlink:title="weirs" target="_top">
<polygon fill="#ffffff" stroke="transparent" points="190,-38.2 190,-99.2 259,-99.2 259,-38.2 190,-38.2"/>
<polygon fill="#f5f5f5" stroke="transparent" points="190.5,-75.7 190.5,-98.7 259.5,-98.7 259.5,-75.7 190.5,-75.7"/>
<polygon fill="none" stroke="#000000" points="190.5,-75.7 190.5,-98.7 259.5,-98.7 259.5,-75.7 190.5,-75.7"/>
<text text-anchor="start" x="195.5" y="-84.3" font-family="Helvetica,sans-Serif" font-weight="bold" font-size="11.00" fill="#000000">weirs</text>
<text text-anchor="start" x="225.0219" y="-83.8" font-family="Helvetica,sans-Serif" font-size="11.00" fill="#000000">[table]</text>
<polygon fill="none" stroke="#000000" points="190.5,-56.7 190.5,-75.7 259.5,-75.7 259.5,-56.7 190.5,-56.7"/>
<text text-anchor="start" x="193.5" y="-62.8" font-family="Helvetica,sans-Serif" font-size="11.00" fill="#000000">...</text>
<polygon fill="#ffffff" stroke="transparent" points="190.5,-37.7 190.5,-56.7 223.5,-56.7 223.5,-37.7 190.5,-37.7"/>
<polygon fill="none" stroke="#000000" points="190.5,-37.7 190.5,-56.7 223.5,-56.7 223.5,-37.7 190.5,-37.7"/>
<text text-anchor="start" x="193.5" y="-43.8" font-family="Helvetica,sans-Serif" font-size="11.00" fill="#000000">&lt; 1</text>
<polygon fill="#ffffff" stroke="transparent" points="223.5,-37.7 223.5,-56.7 241.5,-56.7 241.5,-37.7 223.5,-37.7"/>
<polygon fill="none" stroke="#000000" points="223.5,-37.7 223.5,-56.7 241.5,-56.7 241.5,-37.7 223.5,-37.7"/>
<text text-anchor="start" x="232.3862" y="-43.8" font-family="Helvetica,sans-Serif" font-size="11.00" fill="#000000"> &#160;</text>
<polygon fill="#ffffff" stroke="transparent" points="241.5,-37.7 241.5,-56.7 259.5,-56.7 259.5,-37.7 241.5,-37.7"/>
<polygon fill="none" stroke="#000000" points="241.5,-37.7 241.5,-56.7 259.5,-56.7 259.5,-37.7 241.5,-37.7"/>
<text text-anchor="start" x="250.3862" y="-43.8" font-family="Helvetica,sans-Serif" font-size="11.00" fill="#000000"> &#160;</text>
</a>
</g>
</g>
<!-- weirs&#45;&gt;events -->
<g id="edge16" class="edge">
<title>weirs:w&#45;&gt;events:e</title>
<path fill="none" stroke="#000000" stroke-dasharray="5,2" d="M176.09,-66.6766C151.8755,-70.3139 140.6533,-84.1947 126,-109.7 94.3152,-164.85 149.1038,-680.7 85.5,-680.7"/>
<polygon fill="#000000" stroke="#000000" points="182.5183,-66.241 190.7434,-69.2918 186.5092,-65.9705 190.5,-65.7 190.5,-65.7 190.5,-65.7 186.5092,-65.9705 190.2566,-62.1082 182.5183,-66.241 182.5183,-66.241"/>
<ellipse fill="none" stroke="#000000" cx="179.3256" cy="-66.4574" rx="3.2" ry="3.2"/>
</g>
</g>
</svg>
