<?xml version="1.0" encoding="UTF-8" standalone="no"?>
<!DOCTYPE svg PUBLIC "-//W3C//DTD SVG 1.1//EN"
 "http://www.w3.org/Graphics/SVG/1.1/DTD/svg11.dtd">
<!-- Generated by graphviz version 2.40.1 (20161225.0304)
 -->
<!-- Title: oneDegreeRelationshipsDiagram Pages: 1 -->
<svg width="240pt" height="316pt"
 viewBox="0.00 0.00 240.00 316.20" xmlns="http://www.w3.org/2000/svg" xmlns:xlink="http://www.w3.org/1999/xlink">
<g id="graph0" class="graph" transform="scale(1 1) rotate(0) translate(4 312.2)">
<title>oneDegreeRelationshipsDiagram</title>
<polygon fill="#ffffff" stroke="transparent" points="-4,4 -4,-312.2 236,-312.2 236,4 -4,4"/>
<text text-anchor="middle" x="72.4936" y="-7.3" font-family="Helvetica,sans-Serif" font-size="11.00" fill="#000000">Generated by SchemaSpy</text>
<!-- lateral_weirs -->
<g id="node1" class="node">
<title>lateral_weirs</title>
<g id="a_node1"><a xlink:href="../../tables/lateral_weirs.html" xlink:title="lateral_weirs" target="_top">
<polygon fill="#ffffff" stroke="transparent" points="8,-38.2 8,-304.2 224,-304.2 224,-38.2 8,-38.2"/>
<polygon fill="#f5f5f5" stroke="transparent" points="10,-279.2 10,-302.2 222,-302.2 222,-279.2 10,-279.2"/>
<polygon fill="none" stroke="#000000" points="10,-279.2 10,-302.2 222,-302.2 222,-279.2 10,-279.2"/>
<text text-anchor="start" x="15" y="-287.8" font-family="Helvetica,sans-Serif" font-weight="bold" font-size="11.00" fill="#000000">lateral_weirs</text>
<text text-anchor="start" x="187.0437" y="-287.3" font-family="Helvetica,sans-Serif" font-size="11.00" fill="#000000">[table]</text>
<polygon fill="#ffffff" stroke="transparent" points="10,-257.2 10,-279.2 103,-279.2 103,-257.2 10,-257.2"/>
<polygon fill="none" stroke="#000000" points="10,-257.2 10,-279.2 103,-279.2 103,-257.2 10,-257.2"/>
<text text-anchor="start" x="30" y="-264.3" font-family="Helvetica,sans-Serif" font-size="11.00" fill="#000000">geom</text>
<polygon fill="none" stroke="#000000" points="103,-257.2 103,-279.2 222,-279.2 222,-257.2 103,-257.2"/>
<text text-anchor="start" x="105.9485" y="-264.9" font-family="Helvetica,sans-Serif" font-size="11.00" fill="#000000">geometry[2147483647]</text>
<polygon fill="none" stroke="#000000" points="10,-235.2 10,-257.2 103,-257.2 103,-235.2 10,-235.2"/>
<image xlink:href="../../images/primaryKeys.png" width="11px" height="12px" preserveAspectRatio="xMinYMin meet" x="15" y="-252.2"/>
<text text-anchor="start" x="30" y="-242.3" font-family="Helvetica,sans-Serif" font-size="11.00" fill="#000000">gid</text>
<polygon fill="none" stroke="#000000" points="103,-235.2 103,-257.2 222,-257.2 222,-235.2 103,-235.2"/>
<text text-anchor="start" x="106" y="-242.9" font-family="Helvetica,sans-Serif" font-size="11.00" fill="#000000">serial[10]</text>
<polygon fill="none" stroke="#000000" points="10,-213.2 10,-235.2 103,-235.2 103,-213.2 10,-213.2"/>
<image xlink:href="../../images/foreignKeys.png" width="11px" height="12px" preserveAspectRatio="xMinYMin meet" x="15" y="-230.2"/>
<text text-anchor="start" x="30" y="-220.3" font-family="Helvetica,sans-Serif" font-size="11.00" fill="#000000">name</text>
<polygon fill="none" stroke="#000000" points="103,-213.2 103,-235.2 222,-235.2 222,-213.2 103,-213.2"/>
<text text-anchor="start" x="106" y="-220.9" font-family="Helvetica,sans-Serif" font-size="11.00" fill="#000000">varchar[30]</text>
<polygon fill="none" stroke="#000000" points="10,-191.2 10,-213.2 103,-213.2 103,-191.2 10,-191.2"/>
<text text-anchor="start" x="30" y="-198.3" font-family="Helvetica,sans-Serif" font-size="11.00" fill="#000000">type</text>
<polygon fill="none" stroke="#000000" points="103,-191.2 103,-213.2 222,-213.2 222,-191.2 103,-191.2"/>
<text text-anchor="start" x="106" y="-198.9" font-family="Helvetica,sans-Serif" font-size="11.00" fill="#000000">int4[10]</text>
<polygon fill="none" stroke="#000000" points="10,-169.2 10,-191.2 103,-191.2 103,-169.2 10,-169.2"/>
<text text-anchor="start" x="30" y="-176.3" font-family="Helvetica,sans-Serif" font-size="11.00" fill="#000000">branchnum</text>
<polygon fill="none" stroke="#000000" points="103,-169.2 103,-191.2 222,-191.2 222,-169.2 103,-169.2"/>
<text text-anchor="start" x="106" y="-176.9" font-family="Helvetica,sans-Serif" font-size="11.00" fill="#000000">int4[10]</text>
<polygon fill="none" stroke="#000000" points="10,-147.2 10,-169.2 103,-169.2 103,-147.2 10,-147.2"/>
<text text-anchor="start" x="30" y="-154.3" font-family="Helvetica,sans-Serif" font-size="11.00" fill="#000000">abscissa</text>
<polygon fill="none" stroke="#000000" points="103,-147.2 103,-169.2 222,-169.2 222,-147.2 103,-147.2"/>
<text text-anchor="start" x="106" y="-154.9" font-family="Helvetica,sans-Serif" font-size="11.00" fill="#000000">float8[17,17]</text>
<polygon fill="none" stroke="#000000" points="10,-125.2 10,-147.2 103,-147.2 103,-125.2 10,-125.2"/>
<text text-anchor="start" x="30" y="-132.3" font-family="Helvetica,sans-Serif" font-size="11.00" fill="#000000">length</text>
<polygon fill="none" stroke="#000000" points="103,-125.2 103,-147.2 222,-147.2 222,-125.2 103,-125.2"/>
<text text-anchor="start" x="106" y="-132.9" font-family="Helvetica,sans-Serif" font-size="11.00" fill="#000000">float8[17,17]</text>
<polygon fill="none" stroke="#000000" points="10,-103.2 10,-125.2 103,-125.2 103,-103.2 10,-103.2"/>
<text text-anchor="start" x="30" y="-110.3" font-family="Helvetica,sans-Serif" font-size="11.00" fill="#000000">z_crest</text>
<polygon fill="none" stroke="#000000" points="103,-103.2 103,-125.2 222,-125.2 222,-103.2 103,-103.2"/>
<text text-anchor="start" x="106" y="-110.9" font-family="Helvetica,sans-Serif" font-size="11.00" fill="#000000">float8[17,17]</text>
<polygon fill="none" stroke="#000000" points="10,-81.2 10,-103.2 103,-103.2 103,-81.2 10,-81.2"/>
<text text-anchor="start" x="30" y="-88.3" font-family="Helvetica,sans-Serif" font-size="11.00" fill="#000000">flowratecoef</text>
<polygon fill="none" stroke="#000000" points="103,-81.2 103,-103.2 222,-103.2 222,-81.2 103,-81.2"/>
<text text-anchor="start" x="106" y="-88.9" font-family="Helvetica,sans-Serif" font-size="11.00" fill="#000000">float8[17,17]</text>
<polygon fill="none" stroke="#000000" points="10,-59.2 10,-81.2 103,-81.2 103,-59.2 10,-59.2"/>
<text text-anchor="start" x="30" y="-66.3" font-family="Helvetica,sans-Serif" font-size="11.00" fill="#000000">active</text>
<polygon fill="none" stroke="#000000" points="103,-59.2 103,-81.2 222,-81.2 222,-59.2 103,-59.2"/>
<text text-anchor="start" x="106" y="-66.9" font-family="Helvetica,sans-Serif" font-size="11.00" fill="#000000">bool[1]</text>
<polygon fill="#ffffff" stroke="transparent" points="10,-40.2 10,-59.2 61,-59.2 61,-40.2 10,-40.2"/>
<polygon fill="none" stroke="#000000" points="10,-40.2 10,-59.2 61,-59.2 61,-40.2 10,-40.2"/>
<text text-anchor="start" x="13" y="-46.3" font-family="Helvetica,sans-Serif" font-size="11.00" fill="#000000">&lt; 0</text>
<polygon fill="#ffffff" stroke="transparent" points="61,-40.2 61,-59.2 103,-59.2 103,-40.2 61,-40.2"/>
<polygon fill="none" stroke="#000000" points="61,-40.2 61,-59.2 103,-59.2 103,-40.2 61,-40.2"/>
<text text-anchor="start" x="93.8862" y="-46.3" font-family="Helvetica,sans-Serif" font-size="11.00" fill="#000000"> &#160;</text>
<polygon fill="#ffffff" stroke="transparent" points="103,-40.2 103,-59.2 222,-59.2 222,-40.2 103,-40.2"/>
<polygon fill="none" stroke="#000000" points="103,-40.2 103,-59.2 222,-59.2 222,-40.2 103,-40.2"/>
<text text-anchor="start" x="203.4053" y="-46.3" font-family="Helvetica,sans-Serif" font-size="11.00" fill="#000000">0 &gt;</text>
<polygon fill="none" stroke="#000000" stroke-width="2" points="9,-39.2 9,-303.2 223,-303.2 223,-39.2 9,-39.2"/>
</a>
</g>
</g>
</g>
</svg>
