<?xml version="1.0" encoding="UTF-8" standalone="no"?>
<!DOCTYPE svg PUBLIC "-//W3C//DTD SVG 1.1//EN"
 "http://www.w3.org/Graphics/SVG/1.1/DTD/svg11.dtd">
<!-- Generated by graphviz version 2.40.1 (20161225.0304)
 -->
<!-- Title: oneDegreeRelationshipsDiagramImplied Pages: 1 -->
<svg width="366pt" height="316pt"
 viewBox="0.00 0.00 366.00 316.20" xmlns="http://www.w3.org/2000/svg" xmlns:xlink="http://www.w3.org/1999/xlink">
<g id="graph0" class="graph" transform="scale(1 1) rotate(0) translate(4 312.2)">
<title>oneDegreeRelationshipsDiagramImplied</title>
<polygon fill="#ffffff" stroke="transparent" points="-4,4 -4,-312.2 362,-312.2 362,4 -4,4"/>
<text text-anchor="middle" x="72.4936" y="-7.3" font-family="Helvetica,sans-Serif" font-size="11.00" fill="#000000">Generated by SchemaSpy</text>
<!-- lateral_weirs -->
<g id="node1" class="node">
<title>lateral_weirs</title>
<g id="a_node1"><a xlink:href="../../tables/lateral_weirs.html" xlink:title="lateral_weirs" target="_top">
<polygon fill="#ffffff" stroke="transparent" points="134,-38.2 134,-304.2 350,-304.2 350,-38.2 134,-38.2"/>
<polygon fill="#f5f5f5" stroke="transparent" points="136,-279.2 136,-302.2 348,-302.2 348,-279.2 136,-279.2"/>
<polygon fill="none" stroke="#000000" points="136,-279.2 136,-302.2 348,-302.2 348,-279.2 136,-279.2"/>
<text text-anchor="start" x="141" y="-287.8" font-family="Helvetica,sans-Serif" font-weight="bold" font-size="11.00" fill="#000000">lateral_weirs</text>
<text text-anchor="start" x="313.0437" y="-287.3" font-family="Helvetica,sans-Serif" font-size="11.00" fill="#000000">[table]</text>
<polygon fill="#ffffff" stroke="transparent" points="136,-257.2 136,-279.2 229,-279.2 229,-257.2 136,-257.2"/>
<polygon fill="none" stroke="#000000" points="136,-257.2 136,-279.2 229,-279.2 229,-257.2 136,-257.2"/>
<text text-anchor="start" x="156" y="-264.3" font-family="Helvetica,sans-Serif" font-size="11.00" fill="#000000">geom</text>
<polygon fill="none" stroke="#000000" points="229,-257.2 229,-279.2 348,-279.2 348,-257.2 229,-257.2"/>
<text text-anchor="start" x="231.9485" y="-264.9" font-family="Helvetica,sans-Serif" font-size="11.00" fill="#000000">geometry[2147483647]</text>
<polygon fill="none" stroke="#000000" points="136,-235.2 136,-257.2 229,-257.2 229,-235.2 136,-235.2"/>
<image xlink:href="../../images/primaryKeys.png" width="11px" height="12px" preserveAspectRatio="xMinYMin meet" x="141" y="-252.2"/>
<text text-anchor="start" x="156" y="-242.3" font-family="Helvetica,sans-Serif" font-size="11.00" fill="#000000">gid</text>
<polygon fill="none" stroke="#000000" points="229,-235.2 229,-257.2 348,-257.2 348,-235.2 229,-235.2"/>
<text text-anchor="start" x="232" y="-242.9" font-family="Helvetica,sans-Serif" font-size="11.00" fill="#000000">serial[10]</text>
<polygon fill="none" stroke="#000000" points="136,-213.2 136,-235.2 229,-235.2 229,-213.2 136,-213.2"/>
<image xlink:href="../../images/foreignKeys.png" width="11px" height="12px" preserveAspectRatio="xMinYMin meet" x="141" y="-230.2"/>
<text text-anchor="start" x="156" y="-220.3" font-family="Helvetica,sans-Serif" font-size="11.00" fill="#000000">name</text>
<polygon fill="none" stroke="#000000" points="229,-213.2 229,-235.2 348,-235.2 348,-213.2 229,-213.2"/>
<text text-anchor="start" x="232" y="-220.9" font-family="Helvetica,sans-Serif" font-size="11.00" fill="#000000">varchar[30]</text>
<polygon fill="none" stroke="#000000" points="136,-191.2 136,-213.2 229,-213.2 229,-191.2 136,-191.2"/>
<text text-anchor="start" x="156" y="-198.3" font-family="Helvetica,sans-Serif" font-size="11.00" fill="#000000">type</text>
<polygon fill="none" stroke="#000000" points="229,-191.2 229,-213.2 348,-213.2 348,-191.2 229,-191.2"/>
<text text-anchor="start" x="232" y="-198.9" font-family="Helvetica,sans-Serif" font-size="11.00" fill="#000000">int4[10]</text>
<polygon fill="none" stroke="#000000" points="136,-169.2 136,-191.2 229,-191.2 229,-169.2 136,-169.2"/>
<text text-anchor="start" x="156" y="-176.3" font-family="Helvetica,sans-Serif" font-size="11.00" fill="#000000">branchnum</text>
<polygon fill="none" stroke="#000000" points="229,-169.2 229,-191.2 348,-191.2 348,-169.2 229,-169.2"/>
<text text-anchor="start" x="232" y="-176.9" font-family="Helvetica,sans-Serif" font-size="11.00" fill="#000000">int4[10]</text>
<polygon fill="none" stroke="#000000" points="136,-147.2 136,-169.2 229,-169.2 229,-147.2 136,-147.2"/>
<text text-anchor="start" x="156" y="-154.3" font-family="Helvetica,sans-Serif" font-size="11.00" fill="#000000">abscissa</text>
<polygon fill="none" stroke="#000000" points="229,-147.2 229,-169.2 348,-169.2 348,-147.2 229,-147.2"/>
<text text-anchor="start" x="232" y="-154.9" font-family="Helvetica,sans-Serif" font-size="11.00" fill="#000000">float8[17,17]</text>
<polygon fill="none" stroke="#000000" points="136,-125.2 136,-147.2 229,-147.2 229,-125.2 136,-125.2"/>
<text text-anchor="start" x="156" y="-132.3" font-family="Helvetica,sans-Serif" font-size="11.00" fill="#000000">length</text>
<polygon fill="none" stroke="#000000" points="229,-125.2 229,-147.2 348,-147.2 348,-125.2 229,-125.2"/>
<text text-anchor="start" x="232" y="-132.9" font-family="Helvetica,sans-Serif" font-size="11.00" fill="#000000">float8[17,17]</text>
<polygon fill="none" stroke="#000000" points="136,-103.2 136,-125.2 229,-125.2 229,-103.2 136,-103.2"/>
<text text-anchor="start" x="156" y="-110.3" font-family="Helvetica,sans-Serif" font-size="11.00" fill="#000000">z_crest</text>
<polygon fill="none" stroke="#000000" points="229,-103.2 229,-125.2 348,-125.2 348,-103.2 229,-103.2"/>
<text text-anchor="start" x="232" y="-110.9" font-family="Helvetica,sans-Serif" font-size="11.00" fill="#000000">float8[17,17]</text>
<polygon fill="none" stroke="#000000" points="136,-81.2 136,-103.2 229,-103.2 229,-81.2 136,-81.2"/>
<text text-anchor="start" x="156" y="-88.3" font-family="Helvetica,sans-Serif" font-size="11.00" fill="#000000">flowratecoef</text>
<polygon fill="none" stroke="#000000" points="229,-81.2 229,-103.2 348,-103.2 348,-81.2 229,-81.2"/>
<text text-anchor="start" x="232" y="-88.9" font-family="Helvetica,sans-Serif" font-size="11.00" fill="#000000">float8[17,17]</text>
<polygon fill="none" stroke="#000000" points="136,-59.2 136,-81.2 229,-81.2 229,-59.2 136,-59.2"/>
<text text-anchor="start" x="156" y="-66.3" font-family="Helvetica,sans-Serif" font-size="11.00" fill="#000000">active</text>
<polygon fill="none" stroke="#000000" points="229,-59.2 229,-81.2 348,-81.2 348,-59.2 229,-59.2"/>
<text text-anchor="start" x="232" y="-66.9" font-family="Helvetica,sans-Serif" font-size="11.00" fill="#000000">bool[1]</text>
<polygon fill="#ffffff" stroke="transparent" points="136,-40.2 136,-59.2 187,-59.2 187,-40.2 136,-40.2"/>
<polygon fill="none" stroke="#000000" points="136,-40.2 136,-59.2 187,-59.2 187,-40.2 136,-40.2"/>
<text text-anchor="start" x="139" y="-46.3" font-family="Helvetica,sans-Serif" font-size="11.00" fill="#000000">&lt; 1</text>
<polygon fill="#ffffff" stroke="transparent" points="187,-40.2 187,-59.2 229,-59.2 229,-40.2 187,-40.2"/>
<polygon fill="none" stroke="#000000" points="187,-40.2 187,-59.2 229,-59.2 229,-40.2 187,-40.2"/>
<text text-anchor="start" x="219.8862" y="-46.3" font-family="Helvetica,sans-Serif" font-size="11.00" fill="#000000"> &#160;</text>
<polygon fill="#ffffff" stroke="transparent" points="229,-40.2 229,-59.2 348,-59.2 348,-40.2 229,-40.2"/>
<polygon fill="none" stroke="#000000" points="229,-40.2 229,-59.2 348,-59.2 348,-40.2 229,-40.2"/>
<text text-anchor="start" x="329.4053" y="-46.3" font-family="Helvetica,sans-Serif" font-size="11.00" fill="#000000">0 &gt;</text>
<polygon fill="none" stroke="#000000" stroke-width="2" points="135,-39.2 135,-303.2 349,-303.2 349,-39.2 135,-39.2"/>
</a>
</g>
</g>
<!-- events -->
<g id="node2" class="node">
<title>events</title>
<g id="a_node2"><a xlink:href="../../tables/events.html" xlink:title="events" target="_top">
<polygon fill="#ffffff" stroke="transparent" points="8,-175.7 8,-258.7 85,-258.7 85,-175.7 8,-175.7"/>
<polygon fill="#f5f5f5" stroke="transparent" points="8.5,-235.2 8.5,-258.2 85.5,-258.2 85.5,-235.2 8.5,-235.2"/>
<polygon fill="none" stroke="#000000" points="8.5,-235.2 8.5,-258.2 85.5,-258.2 85.5,-235.2 8.5,-235.2"/>
<text text-anchor="start" x="13.5" y="-243.8" font-family="Helvetica,sans-Serif" font-weight="bold" font-size="11.00" fill="#000000">events</text>
<text text-anchor="start" x="51.0219" y="-243.3" font-family="Helvetica,sans-Serif" font-size="11.00" fill="#000000">[table]</text>
<polygon fill="none" stroke="#000000" points="8.5,-213.2 8.5,-235.2 85.5,-235.2 85.5,-213.2 8.5,-213.2"/>
<image xlink:href="../../images/primaryKeys.png" width="11px" height="12px" preserveAspectRatio="xMinYMin meet" x="13.5" y="-230.2"/>
<text text-anchor="start" x="31.5" y="-220.3" font-family="Helvetica,sans-Serif" font-size="11.00" fill="#000000">name</text>
<polygon fill="none" stroke="#000000" points="8.5,-194.2 8.5,-213.2 85.5,-213.2 85.5,-194.2 8.5,-194.2"/>
<text text-anchor="start" x="11.5" y="-200.3" font-family="Helvetica,sans-Serif" font-size="11.00" fill="#000000">...</text>
<polygon fill="#ffffff" stroke="transparent" points="8.5,-175.2 8.5,-194.2 33.5,-194.2 33.5,-175.2 8.5,-175.2"/>
<polygon fill="none" stroke="#000000" points="8.5,-175.2 8.5,-194.2 33.5,-194.2 33.5,-175.2 8.5,-175.2"/>
<text text-anchor="start" x="11.5" y="-181.3" font-family="Helvetica,sans-Serif" font-size="11.00" fill="#000000"> &#160;</text>
<polygon fill="#ffffff" stroke="transparent" points="33.5,-175.2 33.5,-194.2 51.5,-194.2 51.5,-175.2 33.5,-175.2"/>
<polygon fill="none" stroke="#000000" points="33.5,-175.2 33.5,-194.2 51.5,-194.2 51.5,-175.2 33.5,-175.2"/>
<text text-anchor="start" x="42.3862" y="-181.3" font-family="Helvetica,sans-Serif" font-size="11.00" fill="#000000"> &#160;</text>
<polygon fill="#ffffff" stroke="transparent" points="51.5,-175.2 51.5,-194.2 85.5,-194.2 85.5,-175.2 51.5,-175.2"/>
<polygon fill="none" stroke="#000000" points="51.5,-175.2 51.5,-194.2 85.5,-194.2 85.5,-175.2 51.5,-175.2"/>
<text text-anchor="start" x="60.7904" y="-181.3" font-family="Helvetica,sans-Serif" font-size="11.00" fill="#000000">16 &gt;</text>
</a>
</g>
</g>
<!-- lateral_weirs&#45;&gt;events -->
<g id="edge1" class="edge">
<title>lateral_weirs:w&#45;&gt;events:e</title>
<path fill="none" stroke="#000000" stroke-dasharray="5,2" d="M121.4203,-224.2C109.5435,-224.2 102.158,-224.2 85.5,-224.2"/>
<polygon fill="#000000" stroke="#000000" points="128,-224.2001 136,-227.8 132,-224.2 136,-224.2 136,-224.2 136,-224.2 132,-224.2 136,-220.6 128,-224.2001 128,-224.2001"/>
<ellipse fill="none" stroke="#000000" cx="124.8" cy="-224.2001" rx="3.2" ry="3.2"/>
</g>
</g>
</svg>
