<?xml version="1.0" encoding="UTF-8" standalone="no"?>
<!DOCTYPE svg PUBLIC "-//W3C//DTD SVG 1.1//EN"
 "http://www.w3.org/Graphics/SVG/1.1/DTD/svg11.dtd">
<!-- Generated by graphviz version 2.40.1 (20161225.0304)
 -->
<!-- Title: oneDegreeRelationshipsDiagramImplied Pages: 1 -->
<svg width="400pt" height="558pt"
 viewBox="0.00 0.00 400.00 558.20" xmlns="http://www.w3.org/2000/svg" xmlns:xlink="http://www.w3.org/1999/xlink">
<g id="graph0" class="graph" transform="scale(1 1) rotate(0) translate(4 554.2)">
<title>oneDegreeRelationshipsDiagramImplied</title>
<polygon fill="#ffffff" stroke="transparent" points="-4,4 -4,-554.2 396,-554.2 396,4 -4,4"/>
<text text-anchor="middle" x="72.4936" y="-7.3" font-family="Helvetica,sans-Serif" font-size="11.00" fill="#000000">Generated by SchemaSpy</text>
<!-- links -->
<g id="node1" class="node">
<title>links</title>
<g id="a_node1"><a xlink:href="../../tables/links.html" xlink:title="links" target="_top">
<polygon fill="#ffffff" stroke="transparent" points="134,-38.2 134,-546.2 384,-546.2 384,-38.2 134,-38.2"/>
<polygon fill="#f5f5f5" stroke="transparent" points="136,-521.2 136,-544.2 382,-544.2 382,-521.2 136,-521.2"/>
<polygon fill="none" stroke="#000000" points="136,-521.2 136,-544.2 382,-544.2 382,-521.2 136,-521.2"/>
<text text-anchor="start" x="141" y="-529.8" font-family="Helvetica,sans-Serif" font-weight="bold" font-size="11.00" fill="#000000">links</text>
<text text-anchor="start" x="347.0437" y="-529.3" font-family="Helvetica,sans-Serif" font-size="11.00" fill="#000000">[table]</text>
<polygon fill="#ffffff" stroke="transparent" points="136,-499.2 136,-521.2 263,-521.2 263,-499.2 136,-499.2"/>
<polygon fill="none" stroke="#000000" points="136,-499.2 136,-521.2 263,-521.2 263,-499.2 136,-499.2"/>
<text text-anchor="start" x="156" y="-506.3" font-family="Helvetica,sans-Serif" font-size="11.00" fill="#000000">geom</text>
<polygon fill="none" stroke="#000000" points="263,-499.2 263,-521.2 382,-521.2 382,-499.2 263,-499.2"/>
<text text-anchor="start" x="265.9485" y="-506.9" font-family="Helvetica,sans-Serif" font-size="11.00" fill="#000000">geometry[2147483647]</text>
<polygon fill="none" stroke="#000000" points="136,-477.2 136,-499.2 263,-499.2 263,-477.2 136,-477.2"/>
<image xlink:href="../../images/primaryKeys.png" width="11px" height="12px" preserveAspectRatio="xMinYMin meet" x="141" y="-494.2"/>
<text text-anchor="start" x="156" y="-484.3" font-family="Helvetica,sans-Serif" font-size="11.00" fill="#000000">gid</text>
<polygon fill="none" stroke="#000000" points="263,-477.2 263,-499.2 382,-499.2 382,-477.2 263,-477.2"/>
<text text-anchor="start" x="266" y="-484.9" font-family="Helvetica,sans-Serif" font-size="11.00" fill="#000000">serial[10]</text>
<polygon fill="#ffffff" stroke="transparent" points="136,-455.2 136,-477.2 263,-477.2 263,-455.2 136,-455.2"/>
<polygon fill="none" stroke="#000000" points="136,-455.2 136,-477.2 263,-477.2 263,-455.2 136,-455.2"/>
<image xlink:href="../../images/foreignKeys.png" width="11px" height="12px" preserveAspectRatio="xMinYMin meet" x="141" y="-472.2"/>
<text text-anchor="start" x="156" y="-462.3" font-family="Helvetica,sans-Serif" font-size="11.00" fill="#000000">name</text>
<polygon fill="none" stroke="#000000" points="263,-455.2 263,-477.2 382,-477.2 382,-455.2 263,-455.2"/>
<text text-anchor="start" x="266" y="-462.9" font-family="Helvetica,sans-Serif" font-size="11.00" fill="#000000">varchar[30]</text>
<polygon fill="#ffffff" stroke="transparent" points="136,-433.2 136,-455.2 263,-455.2 263,-433.2 136,-433.2"/>
<polygon fill="none" stroke="#000000" points="136,-433.2 136,-455.2 263,-455.2 263,-433.2 136,-433.2"/>
<text text-anchor="start" x="156" y="-440.3" font-family="Helvetica,sans-Serif" font-size="11.00" fill="#000000">linknum</text>
<polygon fill="none" stroke="#000000" points="263,-433.2 263,-455.2 382,-455.2 382,-433.2 263,-433.2"/>
<text text-anchor="start" x="266" y="-440.9" font-family="Helvetica,sans-Serif" font-size="11.00" fill="#000000">serial[10]</text>
<polygon fill="none" stroke="#000000" points="136,-411.2 136,-433.2 263,-433.2 263,-411.2 136,-411.2"/>
<text text-anchor="start" x="156" y="-418.3" font-family="Helvetica,sans-Serif" font-size="11.00" fill="#000000">type</text>
<polygon fill="none" stroke="#000000" points="263,-411.2 263,-433.2 382,-433.2 382,-411.2 263,-411.2"/>
<text text-anchor="start" x="266" y="-418.9" font-family="Helvetica,sans-Serif" font-size="11.00" fill="#000000">int4[10]</text>
<polygon fill="none" stroke="#000000" points="136,-389.2 136,-411.2 263,-411.2 263,-389.2 136,-389.2"/>
<text text-anchor="start" x="156" y="-396.3" font-family="Helvetica,sans-Serif" font-size="11.00" fill="#000000">nature</text>
<polygon fill="none" stroke="#000000" points="263,-389.2 263,-411.2 382,-411.2 382,-389.2 263,-389.2"/>
<text text-anchor="start" x="266" y="-396.9" font-family="Helvetica,sans-Serif" font-size="11.00" fill="#000000">int4[10]</text>
<polygon fill="none" stroke="#000000" points="136,-367.2 136,-389.2 263,-389.2 263,-367.2 136,-367.2"/>
<text text-anchor="start" x="156" y="-374.3" font-family="Helvetica,sans-Serif" font-size="11.00" fill="#000000">level</text>
<polygon fill="none" stroke="#000000" points="263,-367.2 263,-389.2 382,-389.2 382,-367.2 263,-367.2"/>
<text text-anchor="start" x="266" y="-374.9" font-family="Helvetica,sans-Serif" font-size="11.00" fill="#000000">float8[17,17]</text>
<polygon fill="none" stroke="#000000" points="136,-345.2 136,-367.2 263,-367.2 263,-345.2 136,-345.2"/>
<text text-anchor="start" x="156" y="-352.3" font-family="Helvetica,sans-Serif" font-size="11.00" fill="#000000">length</text>
<polygon fill="none" stroke="#000000" points="263,-345.2 263,-367.2 382,-367.2 382,-345.2 263,-345.2"/>
<text text-anchor="start" x="266" y="-352.9" font-family="Helvetica,sans-Serif" font-size="11.00" fill="#000000">float8[17,17]</text>
<polygon fill="none" stroke="#000000" points="136,-323.2 136,-345.2 263,-345.2 263,-323.2 136,-323.2"/>
<text text-anchor="start" x="156" y="-330.3" font-family="Helvetica,sans-Serif" font-size="11.00" fill="#000000">width</text>
<polygon fill="none" stroke="#000000" points="263,-323.2 263,-345.2 382,-345.2 382,-323.2 263,-323.2"/>
<text text-anchor="start" x="266" y="-330.9" font-family="Helvetica,sans-Serif" font-size="11.00" fill="#000000">float8[17,17]</text>
<polygon fill="none" stroke="#000000" points="136,-301.2 136,-323.2 263,-323.2 263,-301.2 136,-301.2"/>
<text text-anchor="start" x="156" y="-308.3" font-family="Helvetica,sans-Serif" font-size="11.00" fill="#000000">roughness</text>
<polygon fill="none" stroke="#000000" points="263,-301.2 263,-323.2 382,-323.2 382,-301.2 263,-301.2"/>
<text text-anchor="start" x="266" y="-308.9" font-family="Helvetica,sans-Serif" font-size="11.00" fill="#000000">float8[17,17]</text>
<polygon fill="none" stroke="#000000" points="136,-279.2 136,-301.2 263,-301.2 263,-279.2 136,-279.2"/>
<text text-anchor="start" x="156" y="-286.3" font-family="Helvetica,sans-Serif" font-size="11.00" fill="#000000">crosssection</text>
<polygon fill="none" stroke="#000000" points="263,-279.2 263,-301.2 382,-301.2 382,-279.2 263,-279.2"/>
<text text-anchor="start" x="266" y="-286.9" font-family="Helvetica,sans-Serif" font-size="11.00" fill="#000000">float8[17,17]</text>
<polygon fill="none" stroke="#000000" points="136,-257.2 136,-279.2 263,-279.2 263,-257.2 136,-257.2"/>
<text text-anchor="start" x="156" y="-264.3" font-family="Helvetica,sans-Serif" font-size="11.00" fill="#000000">headlosscoef</text>
<polygon fill="none" stroke="#000000" points="263,-257.2 263,-279.2 382,-279.2 382,-257.2 263,-257.2"/>
<text text-anchor="start" x="266" y="-264.9" font-family="Helvetica,sans-Serif" font-size="11.00" fill="#000000">float8[17,17]</text>
<polygon fill="none" stroke="#000000" points="136,-235.2 136,-257.2 263,-257.2 263,-235.2 136,-235.2"/>
<text text-anchor="start" x="156" y="-242.3" font-family="Helvetica,sans-Serif" font-size="11.00" fill="#000000">weirdischargecoef</text>
<polygon fill="none" stroke="#000000" points="263,-235.2 263,-257.2 382,-257.2 382,-235.2 263,-235.2"/>
<text text-anchor="start" x="266" y="-242.9" font-family="Helvetica,sans-Serif" font-size="11.00" fill="#000000">float8[17,17]</text>
<polygon fill="none" stroke="#000000" points="136,-213.2 136,-235.2 263,-235.2 263,-213.2 136,-213.2"/>
<text text-anchor="start" x="156" y="-220.3" font-family="Helvetica,sans-Serif" font-size="11.00" fill="#000000">activationcoef</text>
<polygon fill="none" stroke="#000000" points="263,-213.2 263,-235.2 382,-235.2 382,-213.2 263,-213.2"/>
<text text-anchor="start" x="266" y="-220.9" font-family="Helvetica,sans-Serif" font-size="11.00" fill="#000000">float8[17,17]</text>
<polygon fill="none" stroke="#000000" points="136,-191.2 136,-213.2 263,-213.2 263,-191.2 136,-191.2"/>
<text text-anchor="start" x="156" y="-198.3" font-family="Helvetica,sans-Serif" font-size="11.00" fill="#000000">pipedischargecoef</text>
<polygon fill="none" stroke="#000000" points="263,-191.2 263,-213.2 382,-213.2 382,-191.2 263,-191.2"/>
<text text-anchor="start" x="266" y="-198.9" font-family="Helvetica,sans-Serif" font-size="11.00" fill="#000000">float8[17,17]</text>
<polygon fill="none" stroke="#000000" points="136,-169.2 136,-191.2 263,-191.2 263,-169.2 136,-169.2"/>
<text text-anchor="start" x="156" y="-176.3" font-family="Helvetica,sans-Serif" font-size="11.00" fill="#000000">culverttype</text>
<polygon fill="none" stroke="#000000" points="263,-169.2 263,-191.2 382,-191.2 382,-169.2 263,-169.2"/>
<text text-anchor="start" x="266" y="-176.9" font-family="Helvetica,sans-Serif" font-size="11.00" fill="#000000">int4[10]</text>
<polygon fill="none" stroke="#000000" points="136,-147.2 136,-169.2 263,-169.2 263,-147.2 136,-147.2"/>
<text text-anchor="start" x="156" y="-154.3" font-family="Helvetica,sans-Serif" font-size="11.00" fill="#000000">basinstart</text>
<polygon fill="none" stroke="#000000" points="263,-147.2 263,-169.2 382,-169.2 382,-147.2 263,-147.2"/>
<text text-anchor="start" x="266" y="-154.9" font-family="Helvetica,sans-Serif" font-size="11.00" fill="#000000">int4[10]</text>
<polygon fill="none" stroke="#000000" points="136,-125.2 136,-147.2 263,-147.2 263,-125.2 136,-125.2"/>
<text text-anchor="start" x="156" y="-132.3" font-family="Helvetica,sans-Serif" font-size="11.00" fill="#000000">basinend</text>
<polygon fill="none" stroke="#000000" points="263,-125.2 263,-147.2 382,-147.2 382,-125.2 263,-125.2"/>
<text text-anchor="start" x="266" y="-132.9" font-family="Helvetica,sans-Serif" font-size="11.00" fill="#000000">int4[10]</text>
<polygon fill="none" stroke="#000000" points="136,-103.2 136,-125.2 263,-125.2 263,-103.2 136,-103.2"/>
<text text-anchor="start" x="156" y="-110.3" font-family="Helvetica,sans-Serif" font-size="11.00" fill="#000000">branchnum</text>
<polygon fill="none" stroke="#000000" points="263,-103.2 263,-125.2 382,-125.2 382,-103.2 263,-103.2"/>
<text text-anchor="start" x="266" y="-110.9" font-family="Helvetica,sans-Serif" font-size="11.00" fill="#000000">int4[10]</text>
<polygon fill="none" stroke="#000000" points="136,-81.2 136,-103.2 263,-103.2 263,-81.2 136,-81.2"/>
<text text-anchor="start" x="156" y="-88.3" font-family="Helvetica,sans-Serif" font-size="11.00" fill="#000000">abscissa</text>
<polygon fill="none" stroke="#000000" points="263,-81.2 263,-103.2 382,-103.2 382,-81.2 263,-81.2"/>
<text text-anchor="start" x="266" y="-88.9" font-family="Helvetica,sans-Serif" font-size="11.00" fill="#000000">float8[17,17]</text>
<polygon fill="none" stroke="#000000" points="136,-59.2 136,-81.2 263,-81.2 263,-59.2 136,-59.2"/>
<text text-anchor="start" x="156" y="-66.3" font-family="Helvetica,sans-Serif" font-size="11.00" fill="#000000">active</text>
<polygon fill="none" stroke="#000000" points="263,-59.2 263,-81.2 382,-81.2 382,-59.2 263,-59.2"/>
<text text-anchor="start" x="266" y="-66.9" font-family="Helvetica,sans-Serif" font-size="11.00" fill="#000000">bool[1]</text>
<polygon fill="#ffffff" stroke="transparent" points="136,-40.2 136,-59.2 204,-59.2 204,-40.2 136,-40.2"/>
<polygon fill="none" stroke="#000000" points="136,-40.2 136,-59.2 204,-59.2 204,-40.2 136,-40.2"/>
<text text-anchor="start" x="139" y="-46.3" font-family="Helvetica,sans-Serif" font-size="11.00" fill="#000000">&lt; 1</text>
<polygon fill="#ffffff" stroke="transparent" points="204,-40.2 204,-59.2 263,-59.2 263,-40.2 204,-40.2"/>
<polygon fill="none" stroke="#000000" points="204,-40.2 204,-59.2 263,-59.2 263,-40.2 204,-40.2"/>
<text text-anchor="start" x="253.8862" y="-46.3" font-family="Helvetica,sans-Serif" font-size="11.00" fill="#000000"> &#160;</text>
<polygon fill="#ffffff" stroke="transparent" points="263,-40.2 263,-59.2 382,-59.2 382,-40.2 263,-40.2"/>
<polygon fill="none" stroke="#000000" points="263,-40.2 263,-59.2 382,-59.2 382,-40.2 263,-40.2"/>
<text text-anchor="start" x="363.4053" y="-46.3" font-family="Helvetica,sans-Serif" font-size="11.00" fill="#000000">0 &gt;</text>
<polygon fill="none" stroke="#000000" stroke-width="2" points="135,-39.2 135,-545.2 383,-545.2 383,-39.2 135,-39.2"/>
</a>
</g>
</g>
<!-- events -->
<g id="node2" class="node">
<title>events</title>
<g id="a_node2"><a xlink:href="../../tables/events.html" xlink:title="events" target="_top">
<polygon fill="#ffffff" stroke="transparent" points="8,-417.7 8,-500.7 85,-500.7 85,-417.7 8,-417.7"/>
<polygon fill="#f5f5f5" stroke="transparent" points="8.5,-477.2 8.5,-500.2 85.5,-500.2 85.5,-477.2 8.5,-477.2"/>
<polygon fill="none" stroke="#000000" points="8.5,-477.2 8.5,-500.2 85.5,-500.2 85.5,-477.2 8.5,-477.2"/>
<text text-anchor="start" x="13.5" y="-485.8" font-family="Helvetica,sans-Serif" font-weight="bold" font-size="11.00" fill="#000000">events</text>
<text text-anchor="start" x="51.0219" y="-485.3" font-family="Helvetica,sans-Serif" font-size="11.00" fill="#000000">[table]</text>
<polygon fill="none" stroke="#000000" points="8.5,-455.2 8.5,-477.2 85.5,-477.2 85.5,-455.2 8.5,-455.2"/>
<image xlink:href="../../images/primaryKeys.png" width="11px" height="12px" preserveAspectRatio="xMinYMin meet" x="13.5" y="-472.2"/>
<text text-anchor="start" x="31.5" y="-462.3" font-family="Helvetica,sans-Serif" font-size="11.00" fill="#000000">name</text>
<polygon fill="none" stroke="#000000" points="8.5,-436.2 8.5,-455.2 85.5,-455.2 85.5,-436.2 8.5,-436.2"/>
<text text-anchor="start" x="11.5" y="-442.3" font-family="Helvetica,sans-Serif" font-size="11.00" fill="#000000">...</text>
<polygon fill="#ffffff" stroke="transparent" points="8.5,-417.2 8.5,-436.2 33.5,-436.2 33.5,-417.2 8.5,-417.2"/>
<polygon fill="none" stroke="#000000" points="8.5,-417.2 8.5,-436.2 33.5,-436.2 33.5,-417.2 8.5,-417.2"/>
<text text-anchor="start" x="11.5" y="-423.3" font-family="Helvetica,sans-Serif" font-size="11.00" fill="#000000"> &#160;</text>
<polygon fill="#ffffff" stroke="transparent" points="33.5,-417.2 33.5,-436.2 51.5,-436.2 51.5,-417.2 33.5,-417.2"/>
<polygon fill="none" stroke="#000000" points="33.5,-417.2 33.5,-436.2 51.5,-436.2 51.5,-417.2 33.5,-417.2"/>
<text text-anchor="start" x="42.3862" y="-423.3" font-family="Helvetica,sans-Serif" font-size="11.00" fill="#000000"> &#160;</text>
<polygon fill="#ffffff" stroke="transparent" points="51.5,-417.2 51.5,-436.2 85.5,-436.2 85.5,-417.2 51.5,-417.2"/>
<polygon fill="none" stroke="#000000" points="51.5,-417.2 51.5,-436.2 85.5,-436.2 85.5,-417.2 51.5,-417.2"/>
<text text-anchor="start" x="60.7904" y="-423.3" font-family="Helvetica,sans-Serif" font-size="11.00" fill="#000000">16 &gt;</text>
</a>
</g>
</g>
<!-- links&#45;&gt;events -->
<g id="edge1" class="edge">
<title>links:w&#45;&gt;events:e</title>
<path fill="none" stroke="#000000" stroke-dasharray="5,2" d="M125.3362,-466.2C110.9956,-466.2 103.9115,-466.2 85.5,-466.2"/>
<polygon fill="#000000" stroke="#000000" points="135.2,-462.2 135.2,-470.2 133.6,-470.2 133.6,-462.2 135.2,-462.2"/>
<polyline fill="none" stroke="#000000" points="136,-466.2 132,-466.2 "/>
<ellipse fill="none" stroke="#000000" cx="128.8" cy="-466.2001" rx="3.2" ry="3.2"/>
</g>
</g>
</svg>
