<?xml version="1.0" encoding="UTF-8" standalone="no"?>
<!DOCTYPE svg PUBLIC "-//W3C//DTD SVG 1.1//EN"
 "http://www.w3.org/Graphics/SVG/1.1/DTD/svg11.dtd">
<!-- Generated by graphviz version 2.40.1 (20161225.0304)
 -->
<!-- Title: oneDegreeRelationshipsDiagramImplied Pages: 1 -->
<svg width="337pt" height="184pt"
 viewBox="0.00 0.00 337.00 184.20" xmlns="http://www.w3.org/2000/svg" xmlns:xlink="http://www.w3.org/1999/xlink">
<g id="graph0" class="graph" transform="scale(1 1) rotate(0) translate(4 180.2)">
<title>oneDegreeRelationshipsDiagramImplied</title>
<polygon fill="#ffffff" stroke="transparent" points="-4,4 -4,-180.2 333,-180.2 333,4 -4,4"/>
<text text-anchor="middle" x="72.4936" y="-7.3" font-family="Helvetica,sans-Serif" font-size="11.00" fill="#000000">Generated by SchemaSpy</text>
<!-- meteo_config -->
<g id="node1" class="node">
<title>meteo_config</title>
<g id="a_node1"><a xlink:href="../../tables/meteo_config.html" xlink:title="meteo_config" target="_top">
<polygon fill="#ffffff" stroke="transparent" points="134,-38.2 134,-172.2 321,-172.2 321,-38.2 134,-38.2"/>
<polygon fill="#f5f5f5" stroke="transparent" points="136.5,-147.2 136.5,-170.2 319.5,-170.2 319.5,-147.2 136.5,-147.2"/>
<polygon fill="none" stroke="#000000" points="136.5,-147.2 136.5,-170.2 319.5,-170.2 319.5,-147.2 136.5,-147.2"/>
<text text-anchor="start" x="141.5" y="-155.8" font-family="Helvetica,sans-Serif" font-weight="bold" font-size="11.00" fill="#000000">meteo_config</text>
<text text-anchor="start" x="284.5437" y="-155.3" font-family="Helvetica,sans-Serif" font-size="11.00" fill="#000000">[table]</text>
<polygon fill="none" stroke="#000000" points="136.5,-125.2 136.5,-147.2 235.5,-147.2 235.5,-125.2 136.5,-125.2"/>
<image xlink:href="../../images/primaryKeys.png" width="11px" height="12px" preserveAspectRatio="xMinYMin meet" x="141.5" y="-142.2"/>
<text text-anchor="start" x="156.5" y="-132.3" font-family="Helvetica,sans-Serif" font-size="11.00" fill="#000000">id</text>
<polygon fill="none" stroke="#000000" points="235.5,-125.2 235.5,-147.2 319.5,-147.2 319.5,-125.2 235.5,-125.2"/>
<text text-anchor="start" x="238.5" y="-132.9" font-family="Helvetica,sans-Serif" font-size="11.00" fill="#000000">serial[10]</text>
<polygon fill="none" stroke="#000000" points="136.5,-103.2 136.5,-125.2 235.5,-125.2 235.5,-103.2 136.5,-103.2"/>
<image xlink:href="../../images/foreignKeys.png" width="11px" height="12px" preserveAspectRatio="xMinYMin meet" x="141.5" y="-120.2"/>
<text text-anchor="start" x="156.5" y="-110.3" font-family="Helvetica,sans-Serif" font-size="11.00" fill="#000000">name</text>
<polygon fill="none" stroke="#000000" points="235.5,-103.2 235.5,-125.2 319.5,-125.2 319.5,-103.2 235.5,-103.2"/>
<text text-anchor="start" x="238.5" y="-110.9" font-family="Helvetica,sans-Serif" font-size="11.00" fill="#000000">varchar[30]</text>
<polygon fill="none" stroke="#000000" points="136.5,-81.2 136.5,-103.2 235.5,-103.2 235.5,-81.2 136.5,-81.2"/>
<text text-anchor="start" x="156.5" y="-88.3" font-family="Helvetica,sans-Serif" font-size="11.00" fill="#000000">starttime</text>
<polygon fill="none" stroke="#000000" points="235.5,-81.2 235.5,-103.2 319.5,-103.2 319.5,-81.2 235.5,-81.2"/>
<text text-anchor="start" x="238.3807" y="-88.9" font-family="Helvetica,sans-Serif" font-size="11.00" fill="#000000">timestamp[29,6]</text>
<polygon fill="none" stroke="#000000" points="136.5,-59.2 136.5,-81.2 235.5,-81.2 235.5,-59.2 136.5,-59.2"/>
<text text-anchor="start" x="156.5" y="-66.3" font-family="Helvetica,sans-Serif" font-size="11.00" fill="#000000">active</text>
<polygon fill="none" stroke="#000000" points="235.5,-59.2 235.5,-81.2 319.5,-81.2 319.5,-59.2 235.5,-59.2"/>
<text text-anchor="start" x="238.5" y="-66.9" font-family="Helvetica,sans-Serif" font-size="11.00" fill="#000000">bool[1]</text>
<polygon fill="#ffffff" stroke="transparent" points="136.5,-40.2 136.5,-59.2 190.5,-59.2 190.5,-40.2 136.5,-40.2"/>
<polygon fill="none" stroke="#000000" points="136.5,-40.2 136.5,-59.2 190.5,-59.2 190.5,-40.2 136.5,-40.2"/>
<text text-anchor="start" x="139.5" y="-46.3" font-family="Helvetica,sans-Serif" font-size="11.00" fill="#000000">&lt; 1</text>
<polygon fill="#ffffff" stroke="transparent" points="190.5,-40.2 190.5,-59.2 235.5,-59.2 235.5,-40.2 190.5,-40.2"/>
<polygon fill="none" stroke="#000000" points="190.5,-40.2 190.5,-59.2 235.5,-59.2 235.5,-40.2 190.5,-40.2"/>
<text text-anchor="start" x="226.3862" y="-46.3" font-family="Helvetica,sans-Serif" font-size="11.00" fill="#000000"> &#160;</text>
<polygon fill="#ffffff" stroke="transparent" points="235.5,-40.2 235.5,-59.2 319.5,-59.2 319.5,-40.2 235.5,-40.2"/>
<polygon fill="none" stroke="#000000" points="235.5,-40.2 235.5,-59.2 319.5,-59.2 319.5,-40.2 235.5,-40.2"/>
<text text-anchor="start" x="300.9053" y="-46.3" font-family="Helvetica,sans-Serif" font-size="11.00" fill="#000000">0 &gt;</text>
<polygon fill="none" stroke="#000000" stroke-width="2" points="135,-39.2 135,-171.2 320,-171.2 320,-39.2 135,-39.2"/>
</a>
</g>
</g>
<!-- events -->
<g id="node2" class="node">
<title>events</title>
<g id="a_node2"><a xlink:href="../../tables/events.html" xlink:title="events" target="_top">
<polygon fill="#ffffff" stroke="transparent" points="8,-65.7 8,-148.7 85,-148.7 85,-65.7 8,-65.7"/>
<polygon fill="#f5f5f5" stroke="transparent" points="8.5,-125.2 8.5,-148.2 85.5,-148.2 85.5,-125.2 8.5,-125.2"/>
<polygon fill="none" stroke="#000000" points="8.5,-125.2 8.5,-148.2 85.5,-148.2 85.5,-125.2 8.5,-125.2"/>
<text text-anchor="start" x="13.5" y="-133.8" font-family="Helvetica,sans-Serif" font-weight="bold" font-size="11.00" fill="#000000">events</text>
<text text-anchor="start" x="51.0219" y="-133.3" font-family="Helvetica,sans-Serif" font-size="11.00" fill="#000000">[table]</text>
<polygon fill="none" stroke="#000000" points="8.5,-103.2 8.5,-125.2 85.5,-125.2 85.5,-103.2 8.5,-103.2"/>
<image xlink:href="../../images/primaryKeys.png" width="11px" height="12px" preserveAspectRatio="xMinYMin meet" x="13.5" y="-120.2"/>
<text text-anchor="start" x="31.5" y="-110.3" font-family="Helvetica,sans-Serif" font-size="11.00" fill="#000000">name</text>
<polygon fill="none" stroke="#000000" points="8.5,-84.2 8.5,-103.2 85.5,-103.2 85.5,-84.2 8.5,-84.2"/>
<text text-anchor="start" x="11.5" y="-90.3" font-family="Helvetica,sans-Serif" font-size="11.00" fill="#000000">...</text>
<polygon fill="#ffffff" stroke="transparent" points="8.5,-65.2 8.5,-84.2 33.5,-84.2 33.5,-65.2 8.5,-65.2"/>
<polygon fill="none" stroke="#000000" points="8.5,-65.2 8.5,-84.2 33.5,-84.2 33.5,-65.2 8.5,-65.2"/>
<text text-anchor="start" x="11.5" y="-71.3" font-family="Helvetica,sans-Serif" font-size="11.00" fill="#000000"> &#160;</text>
<polygon fill="#ffffff" stroke="transparent" points="33.5,-65.2 33.5,-84.2 51.5,-84.2 51.5,-65.2 33.5,-65.2"/>
<polygon fill="none" stroke="#000000" points="33.5,-65.2 33.5,-84.2 51.5,-84.2 51.5,-65.2 33.5,-65.2"/>
<text text-anchor="start" x="42.3862" y="-71.3" font-family="Helvetica,sans-Serif" font-size="11.00" fill="#000000"> &#160;</text>
<polygon fill="#ffffff" stroke="transparent" points="51.5,-65.2 51.5,-84.2 85.5,-84.2 85.5,-65.2 51.5,-65.2"/>
<polygon fill="none" stroke="#000000" points="51.5,-65.2 51.5,-84.2 85.5,-84.2 85.5,-65.2 51.5,-65.2"/>
<text text-anchor="start" x="60.7904" y="-71.3" font-family="Helvetica,sans-Serif" font-size="11.00" fill="#000000">16 &gt;</text>
</a>
</g>
</g>
<!-- meteo_config&#45;&gt;events -->
<g id="edge1" class="edge">
<title>meteo_config:w&#45;&gt;events:e</title>
<path fill="none" stroke="#000000" stroke-dasharray="5,2" d="M121.776,-114.2C109.7815,-114.2 102.3229,-114.2 85.5,-114.2"/>
<polygon fill="#000000" stroke="#000000" points="128.5,-114.2001 136.5,-117.8 132.5,-114.2 136.5,-114.2 136.5,-114.2 136.5,-114.2 132.5,-114.2 136.5,-110.6 128.5,-114.2001 128.5,-114.2001"/>
<ellipse fill="none" stroke="#000000" cx="125.3" cy="-114.2001" rx="3.2" ry="3.2"/>
</g>
</g>
</svg>
