<?xml version="1.0" encoding="UTF-8" standalone="no"?>
<!DOCTYPE svg PUBLIC "-//W3C//DTD SVG 1.1//EN"
 "http://www.w3.org/Graphics/SVG/1.1/DTD/svg11.dtd">
<!-- Generated by graphviz version 2.40.1 (20161225.0304)
 -->
<!-- Title: twoDegreesRelationshipsDiagramImplied Pages: 1 -->
<svg width="337pt" height="1415pt"
 viewBox="0.00 0.00 337.00 1415.20" xmlns="http://www.w3.org/2000/svg" xmlns:xlink="http://www.w3.org/1999/xlink">
<g id="graph0" class="graph" transform="scale(1 1) rotate(0) translate(4 1411.2)">
<title>twoDegreesRelationshipsDiagramImplied</title>
<polygon fill="#ffffff" stroke="transparent" points="-4,4 -4,-1411.2 333,-1411.2 333,4 -4,4"/>
<text text-anchor="middle" x="72.4936" y="-7.3" font-family="Helvetica,sans-Serif" font-size="11.00" fill="#000000">Generated by SchemaSpy</text>
<!-- basins -->
<g id="node1" class="node">
<title>basins</title>
<g id="a_node1"><a xlink:href="../../tables/basins.html" xlink:title="basins" target="_top">
<polygon fill="#ffffff" stroke="transparent" points="189,-1342.2 189,-1403.2 266,-1403.2 266,-1342.2 189,-1342.2"/>
<polygon fill="#f5f5f5" stroke="transparent" points="189.5,-1379.7 189.5,-1402.7 266.5,-1402.7 266.5,-1379.7 189.5,-1379.7"/>
<polygon fill="none" stroke="#000000" points="189.5,-1379.7 189.5,-1402.7 266.5,-1402.7 266.5,-1379.7 189.5,-1379.7"/>
<text text-anchor="start" x="194.5" y="-1388.3" font-family="Helvetica,sans-Serif" font-weight="bold" font-size="11.00" fill="#000000">basins</text>
<text text-anchor="start" x="232.0219" y="-1387.8" font-family="Helvetica,sans-Serif" font-size="11.00" fill="#000000">[table]</text>
<polygon fill="none" stroke="#000000" points="189.5,-1360.7 189.5,-1379.7 266.5,-1379.7 266.5,-1360.7 189.5,-1360.7"/>
<text text-anchor="start" x="192.5" y="-1366.8" font-family="Helvetica,sans-Serif" font-size="11.00" fill="#000000">...</text>
<polygon fill="#ffffff" stroke="transparent" points="189.5,-1341.7 189.5,-1360.7 226.5,-1360.7 226.5,-1341.7 189.5,-1341.7"/>
<polygon fill="none" stroke="#000000" points="189.5,-1341.7 189.5,-1360.7 226.5,-1360.7 226.5,-1341.7 189.5,-1341.7"/>
<text text-anchor="start" x="192.5" y="-1347.8" font-family="Helvetica,sans-Serif" font-size="11.00" fill="#000000">&lt; 1</text>
<polygon fill="#ffffff" stroke="transparent" points="226.5,-1341.7 226.5,-1360.7 246.5,-1360.7 246.5,-1341.7 226.5,-1341.7"/>
<polygon fill="none" stroke="#000000" points="226.5,-1341.7 226.5,-1360.7 246.5,-1360.7 246.5,-1341.7 226.5,-1341.7"/>
<text text-anchor="start" x="237.3862" y="-1347.8" font-family="Helvetica,sans-Serif" font-size="11.00" fill="#000000"> &#160;</text>
<polygon fill="#ffffff" stroke="transparent" points="246.5,-1341.7 246.5,-1360.7 266.5,-1360.7 266.5,-1341.7 246.5,-1341.7"/>
<polygon fill="none" stroke="#000000" points="246.5,-1341.7 246.5,-1360.7 266.5,-1360.7 266.5,-1341.7 246.5,-1341.7"/>
<text text-anchor="start" x="257.3862" y="-1347.8" font-family="Helvetica,sans-Serif" font-size="11.00" fill="#000000"> &#160;</text>
</a>
</g>
</g>
<!-- events -->
<g id="node2" class="node">
<title>events</title>
<g id="a_node2"><a xlink:href="../../tables/events.html" xlink:title="events" target="_top">
<polygon fill="#ffffff" stroke="transparent" points="8,-693.2 8,-776.2 85,-776.2 85,-693.2 8,-693.2"/>
<polygon fill="#f5f5f5" stroke="transparent" points="8.5,-752.7 8.5,-775.7 85.5,-775.7 85.5,-752.7 8.5,-752.7"/>
<polygon fill="none" stroke="#000000" points="8.5,-752.7 8.5,-775.7 85.5,-775.7 85.5,-752.7 8.5,-752.7"/>
<text text-anchor="start" x="13.5" y="-761.3" font-family="Helvetica,sans-Serif" font-weight="bold" font-size="11.00" fill="#000000">events</text>
<text text-anchor="start" x="51.0219" y="-760.8" font-family="Helvetica,sans-Serif" font-size="11.00" fill="#000000">[table]</text>
<polygon fill="none" stroke="#000000" points="8.5,-730.7 8.5,-752.7 85.5,-752.7 85.5,-730.7 8.5,-730.7"/>
<image xlink:href="../../images/primaryKeys.png" width="11px" height="12px" preserveAspectRatio="xMinYMin meet" x="13.5" y="-747.7"/>
<text text-anchor="start" x="31.5" y="-737.8" font-family="Helvetica,sans-Serif" font-size="11.00" fill="#000000">name</text>
<polygon fill="none" stroke="#000000" points="8.5,-711.7 8.5,-730.7 85.5,-730.7 85.5,-711.7 8.5,-711.7"/>
<text text-anchor="start" x="11.5" y="-717.8" font-family="Helvetica,sans-Serif" font-size="11.00" fill="#000000">...</text>
<polygon fill="#ffffff" stroke="transparent" points="8.5,-692.7 8.5,-711.7 33.5,-711.7 33.5,-692.7 8.5,-692.7"/>
<polygon fill="none" stroke="#000000" points="8.5,-692.7 8.5,-711.7 33.5,-711.7 33.5,-692.7 8.5,-692.7"/>
<text text-anchor="start" x="11.5" y="-698.8" font-family="Helvetica,sans-Serif" font-size="11.00" fill="#000000"> &#160;</text>
<polygon fill="#ffffff" stroke="transparent" points="33.5,-692.7 33.5,-711.7 51.5,-711.7 51.5,-692.7 33.5,-692.7"/>
<polygon fill="none" stroke="#000000" points="33.5,-692.7 33.5,-711.7 51.5,-711.7 51.5,-692.7 33.5,-692.7"/>
<text text-anchor="start" x="42.3862" y="-698.8" font-family="Helvetica,sans-Serif" font-size="11.00" fill="#000000"> &#160;</text>
<polygon fill="#ffffff" stroke="transparent" points="51.5,-692.7 51.5,-711.7 85.5,-711.7 85.5,-692.7 51.5,-692.7"/>
<polygon fill="none" stroke="#000000" points="51.5,-692.7 51.5,-711.7 85.5,-711.7 85.5,-692.7 51.5,-692.7"/>
<text text-anchor="start" x="60.7904" y="-698.8" font-family="Helvetica,sans-Serif" font-size="11.00" fill="#000000">16 &gt;</text>
</a>
</g>
</g>
<!-- basins&#45;&gt;events -->
<g id="edge1" class="edge">
<title>basins:w&#45;&gt;events:e</title>
<path fill="none" stroke="#000000" stroke-dasharray="5,2" d="M179.0385,-1369.3047C153.5218,-1367.2111 141.2445,-1356.5624 126,-1331.7 91.6523,-1275.682 151.2098,-741.7 85.5,-741.7"/>
<polygon fill="#000000" stroke="#000000" points="188.8516,-1365.6726 188.5495,-1373.6669 186.9506,-1373.6065 187.2528,-1365.6122 188.8516,-1365.6726"/>
<polyline fill="none" stroke="#000000" points="189.5,-1369.7 185.5029,-1369.5489 "/>
<ellipse fill="none" stroke="#000000" cx="182.3051" cy="-1369.4281" rx="3.2" ry="3.2"/>
</g>
<!-- extremities -->
<g id="node3" class="node">
<title>extremities</title>
<g id="a_node3"><a xlink:href="../../tables/extremities.html" xlink:title="extremities" target="_top">
<polygon fill="#ffffff" stroke="transparent" points="176.5,-1260.2 176.5,-1321.2 278.5,-1321.2 278.5,-1260.2 176.5,-1260.2"/>
<polygon fill="#f5f5f5" stroke="transparent" points="176.5,-1297.7 176.5,-1320.7 278.5,-1320.7 278.5,-1297.7 176.5,-1297.7"/>
<polygon fill="none" stroke="#000000" points="176.5,-1297.7 176.5,-1320.7 278.5,-1320.7 278.5,-1297.7 176.5,-1297.7"/>
<text text-anchor="start" x="181.5" y="-1306.3" font-family="Helvetica,sans-Serif" font-weight="bold" font-size="11.00" fill="#000000">extremities</text>
<text text-anchor="start" x="244.0219" y="-1305.8" font-family="Helvetica,sans-Serif" font-size="11.00" fill="#000000">[table]</text>
<polygon fill="none" stroke="#000000" points="176.5,-1278.7 176.5,-1297.7 278.5,-1297.7 278.5,-1278.7 176.5,-1278.7"/>
<text text-anchor="start" x="179.5" y="-1284.8" font-family="Helvetica,sans-Serif" font-size="11.00" fill="#000000">...</text>
<polygon fill="#ffffff" stroke="transparent" points="176.5,-1259.7 176.5,-1278.7 221.5,-1278.7 221.5,-1259.7 176.5,-1259.7"/>
<polygon fill="none" stroke="#000000" points="176.5,-1259.7 176.5,-1278.7 221.5,-1278.7 221.5,-1259.7 176.5,-1259.7"/>
<text text-anchor="start" x="179.5" y="-1265.8" font-family="Helvetica,sans-Serif" font-size="11.00" fill="#000000">&lt; 1</text>
<polygon fill="#ffffff" stroke="transparent" points="221.5,-1259.7 221.5,-1278.7 245.5,-1278.7 245.5,-1259.7 221.5,-1259.7"/>
<polygon fill="none" stroke="#000000" points="221.5,-1259.7 221.5,-1278.7 245.5,-1278.7 245.5,-1259.7 221.5,-1259.7"/>
<text text-anchor="start" x="236.3862" y="-1265.8" font-family="Helvetica,sans-Serif" font-size="11.00" fill="#000000"> &#160;</text>
<polygon fill="#ffffff" stroke="transparent" points="245.5,-1259.7 245.5,-1278.7 278.5,-1278.7 278.5,-1259.7 245.5,-1259.7"/>
<polygon fill="none" stroke="#000000" points="245.5,-1259.7 245.5,-1278.7 278.5,-1278.7 278.5,-1259.7 245.5,-1259.7"/>
<text text-anchor="start" x="259.9053" y="-1265.8" font-family="Helvetica,sans-Serif" font-size="11.00" fill="#000000">1 &gt;</text>
</a>
</g>
</g>
<!-- extremities&#45;&gt;events -->
<g id="edge2" class="edge">
<title>extremities:w&#45;&gt;events:e</title>
<path fill="none" stroke="#000000" stroke-dasharray="5,2" d="M165.9954,-1286.9549C145.8961,-1283.8301 137.6814,-1270.9495 126,-1249.7 98.7224,-1200.0799 142.1235,-741.7 85.5,-741.7"/>
<polygon fill="#000000" stroke="#000000" points="175.985,-1283.6534 175.419,-1291.6334 173.823,-1291.5202 174.3891,-1283.5402 175.985,-1283.6534"/>
<polyline fill="none" stroke="#000000" points="176.5,-1287.7 172.51,-1287.417 "/>
<ellipse fill="none" stroke="#000000" cx="169.318" cy="-1287.1905" rx="3.2" ry="3.2"/>
</g>
<!-- flood_marks -->
<g id="node4" class="node">
<title>flood_marks</title>
<g id="a_node4"><a xlink:href="../../tables/flood_marks.html" xlink:title="flood_marks" target="_top">
<polygon fill="#ffffff" stroke="transparent" points="172.5,-1178.2 172.5,-1239.2 282.5,-1239.2 282.5,-1178.2 172.5,-1178.2"/>
<polygon fill="#f5f5f5" stroke="transparent" points="172.5,-1215.7 172.5,-1238.7 282.5,-1238.7 282.5,-1215.7 172.5,-1215.7"/>
<polygon fill="none" stroke="#000000" points="172.5,-1215.7 172.5,-1238.7 282.5,-1238.7 282.5,-1215.7 172.5,-1215.7"/>
<text text-anchor="start" x="177.5" y="-1224.3" font-family="Helvetica,sans-Serif" font-weight="bold" font-size="11.00" fill="#000000">flood_marks</text>
<text text-anchor="start" x="248.0219" y="-1223.8" font-family="Helvetica,sans-Serif" font-size="11.00" fill="#000000">[table]</text>
<polygon fill="none" stroke="#000000" points="172.5,-1196.7 172.5,-1215.7 282.5,-1215.7 282.5,-1196.7 172.5,-1196.7"/>
<text text-anchor="start" x="175.5" y="-1202.8" font-family="Helvetica,sans-Serif" font-size="11.00" fill="#000000">...</text>
<polygon fill="#ffffff" stroke="transparent" points="172.5,-1177.7 172.5,-1196.7 225.5,-1196.7 225.5,-1177.7 172.5,-1177.7"/>
<polygon fill="none" stroke="#000000" points="172.5,-1177.7 172.5,-1196.7 225.5,-1196.7 225.5,-1177.7 172.5,-1177.7"/>
<text text-anchor="start" x="175.5" y="-1183.8" font-family="Helvetica,sans-Serif" font-size="11.00" fill="#000000">&lt; 1</text>
<polygon fill="#ffffff" stroke="transparent" points="225.5,-1177.7 225.5,-1196.7 253.5,-1196.7 253.5,-1177.7 225.5,-1177.7"/>
<polygon fill="none" stroke="#000000" points="225.5,-1177.7 225.5,-1196.7 253.5,-1196.7 253.5,-1177.7 225.5,-1177.7"/>
<text text-anchor="start" x="244.3862" y="-1183.8" font-family="Helvetica,sans-Serif" font-size="11.00" fill="#000000"> &#160;</text>
<polygon fill="#ffffff" stroke="transparent" points="253.5,-1177.7 253.5,-1196.7 282.5,-1196.7 282.5,-1177.7 253.5,-1177.7"/>
<polygon fill="none" stroke="#000000" points="253.5,-1177.7 253.5,-1196.7 282.5,-1196.7 282.5,-1177.7 253.5,-1177.7"/>
<text text-anchor="start" x="273.3862" y="-1183.8" font-family="Helvetica,sans-Serif" font-size="11.00" fill="#000000"> &#160;</text>
</a>
</g>
</g>
<!-- flood_marks&#45;&gt;events -->
<g id="edge3" class="edge">
<title>flood_marks:w&#45;&gt;events:e</title>
<path fill="none" stroke="#000000" stroke-dasharray="5,2" d="M157.9736,-1203.821C142.5173,-1199.1979 135.9154,-1186.2797 126,-1167.7 103.6141,-1125.7528 133.0468,-741.7 85.5,-741.7"/>
<polygon fill="#000000" stroke="#000000" points="164.5661,-1204.6737 172.0382,-1209.2703 168.533,-1205.1869 172.5,-1205.7 172.5,-1205.7 172.5,-1205.7 168.533,-1205.1869 172.9618,-1202.1297 164.5661,-1204.6737 164.5661,-1204.6737"/>
<ellipse fill="none" stroke="#000000" cx="161.3925" cy="-1204.2632" rx="3.2" ry="3.2"/>
</g>
<!-- hydraulic_head -->
<g id="node5" class="node">
<title>hydraulic_head</title>
<g id="a_node5"><a xlink:href="../../tables/hydraulic_head.html" xlink:title="hydraulic_head" target="_top">
<polygon fill="#ffffff" stroke="transparent" points="164,-1096.2 164,-1157.2 291,-1157.2 291,-1096.2 164,-1096.2"/>
<polygon fill="#f5f5f5" stroke="transparent" points="164.5,-1133.7 164.5,-1156.7 291.5,-1156.7 291.5,-1133.7 164.5,-1133.7"/>
<polygon fill="none" stroke="#000000" points="164.5,-1133.7 164.5,-1156.7 291.5,-1156.7 291.5,-1133.7 164.5,-1133.7"/>
<text text-anchor="start" x="169.5" y="-1142.3" font-family="Helvetica,sans-Serif" font-weight="bold" font-size="11.00" fill="#000000">hydraulic_head</text>
<text text-anchor="start" x="257.0219" y="-1141.8" font-family="Helvetica,sans-Serif" font-size="11.00" fill="#000000">[table]</text>
<polygon fill="none" stroke="#000000" points="164.5,-1114.7 164.5,-1133.7 291.5,-1133.7 291.5,-1114.7 164.5,-1114.7"/>
<text text-anchor="start" x="167.5" y="-1120.8" font-family="Helvetica,sans-Serif" font-size="11.00" fill="#000000">...</text>
<polygon fill="#ffffff" stroke="transparent" points="164.5,-1095.7 164.5,-1114.7 226.5,-1114.7 226.5,-1095.7 164.5,-1095.7"/>
<polygon fill="none" stroke="#000000" points="164.5,-1095.7 164.5,-1114.7 226.5,-1114.7 226.5,-1095.7 164.5,-1095.7"/>
<text text-anchor="start" x="167.5" y="-1101.8" font-family="Helvetica,sans-Serif" font-size="11.00" fill="#000000">&lt; 1</text>
<polygon fill="#ffffff" stroke="transparent" points="226.5,-1095.7 226.5,-1114.7 258.5,-1114.7 258.5,-1095.7 226.5,-1095.7"/>
<polygon fill="none" stroke="#000000" points="226.5,-1095.7 226.5,-1114.7 258.5,-1114.7 258.5,-1095.7 226.5,-1095.7"/>
<text text-anchor="start" x="249.3862" y="-1101.8" font-family="Helvetica,sans-Serif" font-size="11.00" fill="#000000"> &#160;</text>
<polygon fill="#ffffff" stroke="transparent" points="258.5,-1095.7 258.5,-1114.7 291.5,-1114.7 291.5,-1095.7 258.5,-1095.7"/>
<polygon fill="none" stroke="#000000" points="258.5,-1095.7 258.5,-1114.7 291.5,-1114.7 291.5,-1095.7 258.5,-1095.7"/>
<text text-anchor="start" x="282.3862" y="-1101.8" font-family="Helvetica,sans-Serif" font-size="11.00" fill="#000000"> &#160;</text>
</a>
</g>
</g>
<!-- hydraulic_head&#45;&gt;events -->
<g id="edge4" class="edge">
<title>hydraulic_head:w&#45;&gt;events:e</title>
<path fill="none" stroke="#000000" stroke-dasharray="5,2" d="M150.1953,-1120.9734C138.1777,-1115.4515 133.9996,-1102.0693 126,-1085.7 92.2037,-1016.5439 162.4724,-741.7 85.5,-741.7"/>
<polygon fill="#000000" stroke="#000000" points="156.6415,-1122.202 163.8259,-1127.2363 160.5707,-1122.951 164.5,-1123.7 164.5,-1123.7 164.5,-1123.7 160.5707,-1122.951 165.1741,-1120.1637 156.6415,-1122.202 156.6415,-1122.202"/>
<ellipse fill="none" stroke="#000000" cx="153.4981" cy="-1121.6029" rx="3.2" ry="3.2"/>
</g>
<!-- init_conc_config -->
<g id="node6" class="node">
<title>init_conc_config</title>
<g id="a_node6"><a xlink:href="../../tables/init_conc_config.html" xlink:title="init_conc_config" target="_top">
<polygon fill="#ffffff" stroke="transparent" points="160.5,-1014.2 160.5,-1075.2 294.5,-1075.2 294.5,-1014.2 160.5,-1014.2"/>
<polygon fill="#f5f5f5" stroke="transparent" points="160.5,-1051.7 160.5,-1074.7 294.5,-1074.7 294.5,-1051.7 160.5,-1051.7"/>
<polygon fill="none" stroke="#000000" points="160.5,-1051.7 160.5,-1074.7 294.5,-1074.7 294.5,-1051.7 160.5,-1051.7"/>
<text text-anchor="start" x="165.5" y="-1060.3" font-family="Helvetica,sans-Serif" font-weight="bold" font-size="11.00" fill="#000000">init_conc_config</text>
<text text-anchor="start" x="260.0219" y="-1059.8" font-family="Helvetica,sans-Serif" font-size="11.00" fill="#000000">[table]</text>
<polygon fill="none" stroke="#000000" points="160.5,-1032.7 160.5,-1051.7 294.5,-1051.7 294.5,-1032.7 160.5,-1032.7"/>
<text text-anchor="start" x="163.5" y="-1038.8" font-family="Helvetica,sans-Serif" font-size="11.00" fill="#000000">...</text>
<polygon fill="#ffffff" stroke="transparent" points="160.5,-1013.7 160.5,-1032.7 225.5,-1032.7 225.5,-1013.7 160.5,-1013.7"/>
<polygon fill="none" stroke="#000000" points="160.5,-1013.7 160.5,-1032.7 225.5,-1032.7 225.5,-1013.7 160.5,-1013.7"/>
<text text-anchor="start" x="163.5" y="-1019.8" font-family="Helvetica,sans-Serif" font-size="11.00" fill="#000000">&lt; 1</text>
<polygon fill="#ffffff" stroke="transparent" points="225.5,-1013.7 225.5,-1032.7 259.5,-1032.7 259.5,-1013.7 225.5,-1013.7"/>
<polygon fill="none" stroke="#000000" points="225.5,-1013.7 225.5,-1032.7 259.5,-1032.7 259.5,-1013.7 225.5,-1013.7"/>
<text text-anchor="start" x="250.3862" y="-1019.8" font-family="Helvetica,sans-Serif" font-size="11.00" fill="#000000"> &#160;</text>
<polygon fill="#ffffff" stroke="transparent" points="259.5,-1013.7 259.5,-1032.7 294.5,-1032.7 294.5,-1013.7 259.5,-1013.7"/>
<polygon fill="none" stroke="#000000" points="259.5,-1013.7 259.5,-1032.7 294.5,-1032.7 294.5,-1013.7 259.5,-1013.7"/>
<text text-anchor="start" x="285.3862" y="-1019.8" font-family="Helvetica,sans-Serif" font-size="11.00" fill="#000000"> &#160;</text>
</a>
</g>
</g>
<!-- init_conc_config&#45;&gt;events -->
<g id="edge5" class="edge">
<title>init_conc_config:w&#45;&gt;events:e</title>
<path fill="none" stroke="#000000" stroke-dasharray="5,2" d="M146.2145,-1038.281C136.1369,-1032.2254 133.215,-1018.8185 126,-1003.7 100.6261,-950.5305 144.4137,-741.7 85.5,-741.7"/>
<polygon fill="#000000" stroke="#000000" points="152.7197,-1039.8379 159.6621,-1045.2011 156.6099,-1040.769 160.5,-1041.7 160.5,-1041.7 160.5,-1041.7 156.6099,-1040.769 161.3379,-1038.1989 152.7197,-1039.8379 152.7197,-1039.8379"/>
<ellipse fill="none" stroke="#000000" cx="149.6076" cy="-1039.0931" rx="3.2" ry="3.2"/>
</g>
<!-- lateral_inflows -->
<g id="node7" class="node">
<title>lateral_inflows</title>
<g id="a_node7"><a xlink:href="../../tables/lateral_inflows.html" xlink:title="lateral_inflows" target="_top">
<polygon fill="#ffffff" stroke="transparent" points="166.5,-932.2 166.5,-993.2 288.5,-993.2 288.5,-932.2 166.5,-932.2"/>
<polygon fill="#f5f5f5" stroke="transparent" points="166.5,-969.7 166.5,-992.7 288.5,-992.7 288.5,-969.7 166.5,-969.7"/>
<polygon fill="none" stroke="#000000" points="166.5,-969.7 166.5,-992.7 288.5,-992.7 288.5,-969.7 166.5,-969.7"/>
<text text-anchor="start" x="171.5" y="-978.3" font-family="Helvetica,sans-Serif" font-weight="bold" font-size="11.00" fill="#000000">lateral_inflows</text>
<text text-anchor="start" x="254.0219" y="-977.8" font-family="Helvetica,sans-Serif" font-size="11.00" fill="#000000">[table]</text>
<polygon fill="none" stroke="#000000" points="166.5,-950.7 166.5,-969.7 288.5,-969.7 288.5,-950.7 166.5,-950.7"/>
<text text-anchor="start" x="169.5" y="-956.8" font-family="Helvetica,sans-Serif" font-size="11.00" fill="#000000">...</text>
<polygon fill="#ffffff" stroke="transparent" points="166.5,-931.7 166.5,-950.7 225.5,-950.7 225.5,-931.7 166.5,-931.7"/>
<polygon fill="none" stroke="#000000" points="166.5,-931.7 166.5,-950.7 225.5,-950.7 225.5,-931.7 166.5,-931.7"/>
<text text-anchor="start" x="169.5" y="-937.8" font-family="Helvetica,sans-Serif" font-size="11.00" fill="#000000">&lt; 1</text>
<polygon fill="#ffffff" stroke="transparent" points="225.5,-931.7 225.5,-950.7 256.5,-950.7 256.5,-931.7 225.5,-931.7"/>
<polygon fill="none" stroke="#000000" points="225.5,-931.7 225.5,-950.7 256.5,-950.7 256.5,-931.7 225.5,-931.7"/>
<text text-anchor="start" x="247.3862" y="-937.8" font-family="Helvetica,sans-Serif" font-size="11.00" fill="#000000"> &#160;</text>
<polygon fill="#ffffff" stroke="transparent" points="256.5,-931.7 256.5,-950.7 288.5,-950.7 288.5,-931.7 256.5,-931.7"/>
<polygon fill="none" stroke="#000000" points="256.5,-931.7 256.5,-950.7 288.5,-950.7 288.5,-931.7 256.5,-931.7"/>
<text text-anchor="start" x="279.3862" y="-937.8" font-family="Helvetica,sans-Serif" font-size="11.00" fill="#000000"> &#160;</text>
</a>
</g>
</g>
<!-- lateral_inflows&#45;&gt;events -->
<g id="edge6" class="edge">
<title>lateral_inflows:w&#45;&gt;events:e</title>
<path fill="none" stroke="#000000" stroke-dasharray="5,2" d="M152.2409,-957.12C139.6678,-951.6655 135.378,-938.1066 126,-921.7 85.3075,-850.5093 167.5,-741.7 85.5,-741.7"/>
<polygon fill="#000000" stroke="#000000" points="158.6278,-958.2756 165.859,-963.2425 162.5639,-958.9878 166.5,-959.7 166.5,-959.7 166.5,-959.7 162.5639,-958.9878 167.141,-956.1575 158.6278,-958.2756 158.6278,-958.2756"/>
<ellipse fill="none" stroke="#000000" cx="155.479" cy="-957.7058" rx="3.2" ry="3.2"/>
</g>
<!-- lateral_weirs -->
<g id="node8" class="node">
<title>lateral_weirs</title>
<g id="a_node8"><a xlink:href="../../tables/lateral_weirs.html" xlink:title="lateral_weirs" target="_top">
<polygon fill="#ffffff" stroke="transparent" points="172,-850.2 172,-911.2 283,-911.2 283,-850.2 172,-850.2"/>
<polygon fill="#f5f5f5" stroke="transparent" points="172.5,-887.7 172.5,-910.7 283.5,-910.7 283.5,-887.7 172.5,-887.7"/>
<polygon fill="none" stroke="#000000" points="172.5,-887.7 172.5,-910.7 283.5,-910.7 283.5,-887.7 172.5,-887.7"/>
<text text-anchor="start" x="177.5" y="-896.3" font-family="Helvetica,sans-Serif" font-weight="bold" font-size="11.00" fill="#000000">lateral_weirs</text>
<text text-anchor="start" x="249.0219" y="-895.8" font-family="Helvetica,sans-Serif" font-size="11.00" fill="#000000">[table]</text>
<polygon fill="none" stroke="#000000" points="172.5,-868.7 172.5,-887.7 283.5,-887.7 283.5,-868.7 172.5,-868.7"/>
<text text-anchor="start" x="175.5" y="-874.8" font-family="Helvetica,sans-Serif" font-size="11.00" fill="#000000">...</text>
<polygon fill="#ffffff" stroke="transparent" points="172.5,-849.7 172.5,-868.7 226.5,-868.7 226.5,-849.7 172.5,-849.7"/>
<polygon fill="none" stroke="#000000" points="172.5,-849.7 172.5,-868.7 226.5,-868.7 226.5,-849.7 172.5,-849.7"/>
<text text-anchor="start" x="175.5" y="-855.8" font-family="Helvetica,sans-Serif" font-size="11.00" fill="#000000">&lt; 1</text>
<polygon fill="#ffffff" stroke="transparent" points="226.5,-849.7 226.5,-868.7 254.5,-868.7 254.5,-849.7 226.5,-849.7"/>
<polygon fill="none" stroke="#000000" points="226.5,-849.7 226.5,-868.7 254.5,-868.7 254.5,-849.7 226.5,-849.7"/>
<text text-anchor="start" x="245.3862" y="-855.8" font-family="Helvetica,sans-Serif" font-size="11.00" fill="#000000"> &#160;</text>
<polygon fill="#ffffff" stroke="transparent" points="254.5,-849.7 254.5,-868.7 283.5,-868.7 283.5,-849.7 254.5,-849.7"/>
<polygon fill="none" stroke="#000000" points="254.5,-849.7 254.5,-868.7 283.5,-868.7 283.5,-849.7 254.5,-849.7"/>
<text text-anchor="start" x="274.3862" y="-855.8" font-family="Helvetica,sans-Serif" font-size="11.00" fill="#000000"> &#160;</text>
</a>
</g>
</g>
<!-- lateral_weirs&#45;&gt;events -->
<g id="edge7" class="edge">
<title>lateral_weirs:w&#45;&gt;events:e</title>
<path fill="none" stroke="#000000" stroke-dasharray="5,2" d="M157.8924,-875.4436C143.5301,-870.2172 138.4318,-856.4401 126,-839.7 97.9016,-801.8639 132.6284,-741.7 85.5,-741.7"/>
<polygon fill="#000000" stroke="#000000" points="164.5938,-876.4787 171.9504,-881.2578 168.5469,-877.0893 172.5,-877.7 172.5,-877.7 172.5,-877.7 168.5469,-877.0893 173.0496,-874.1422 164.5938,-876.4787 164.5938,-876.4787"/>
<ellipse fill="none" stroke="#000000" cx="161.4313" cy="-875.9902" rx="3.2" ry="3.2"/>
</g>
<!-- links -->
<g id="node9" class="node">
<title>links</title>
<g id="a_node9"><a xlink:href="../../tables/links.html" xlink:title="links" target="_top">
<polygon fill="#ffffff" stroke="transparent" points="194.5,-768.2 194.5,-829.2 260.5,-829.2 260.5,-768.2 194.5,-768.2"/>
<polygon fill="#f5f5f5" stroke="transparent" points="194.5,-805.7 194.5,-828.7 260.5,-828.7 260.5,-805.7 194.5,-805.7"/>
<polygon fill="none" stroke="#000000" points="194.5,-805.7 194.5,-828.7 260.5,-828.7 260.5,-805.7 194.5,-805.7"/>
<text text-anchor="start" x="199.5" y="-814.3" font-family="Helvetica,sans-Serif" font-weight="bold" font-size="11.00" fill="#000000">links</text>
<text text-anchor="start" x="226.0219" y="-813.8" font-family="Helvetica,sans-Serif" font-size="11.00" fill="#000000">[table]</text>
<polygon fill="none" stroke="#000000" points="194.5,-786.7 194.5,-805.7 260.5,-805.7 260.5,-786.7 194.5,-786.7"/>
<text text-anchor="start" x="197.5" y="-792.8" font-family="Helvetica,sans-Serif" font-size="11.00" fill="#000000">...</text>
<polygon fill="#ffffff" stroke="transparent" points="194.5,-767.7 194.5,-786.7 225.5,-786.7 225.5,-767.7 194.5,-767.7"/>
<polygon fill="none" stroke="#000000" points="194.5,-767.7 194.5,-786.7 225.5,-786.7 225.5,-767.7 194.5,-767.7"/>
<text text-anchor="start" x="197.5" y="-773.8" font-family="Helvetica,sans-Serif" font-size="11.00" fill="#000000">&lt; 1</text>
<polygon fill="#ffffff" stroke="transparent" points="225.5,-767.7 225.5,-786.7 242.5,-786.7 242.5,-767.7 225.5,-767.7"/>
<polygon fill="none" stroke="#000000" points="225.5,-767.7 225.5,-786.7 242.5,-786.7 242.5,-767.7 225.5,-767.7"/>
<text text-anchor="start" x="233.3862" y="-773.8" font-family="Helvetica,sans-Serif" font-size="11.00" fill="#000000"> &#160;</text>
<polygon fill="#ffffff" stroke="transparent" points="242.5,-767.7 242.5,-786.7 260.5,-786.7 260.5,-767.7 242.5,-767.7"/>
<polygon fill="none" stroke="#000000" points="242.5,-767.7 242.5,-786.7 260.5,-786.7 260.5,-767.7 242.5,-767.7"/>
<text text-anchor="start" x="251.3862" y="-773.8" font-family="Helvetica,sans-Serif" font-size="11.00" fill="#000000"> &#160;</text>
</a>
</g>
</g>
<!-- links&#45;&gt;events -->
<g id="edge8" class="edge">
<title>links:w&#45;&gt;events:e</title>
<path fill="none" stroke="#000000" stroke-dasharray="5,2" d="M183.9368,-793.6491C154.9757,-783.7853 109.364,-741.7 85.5,-741.7"/>
<polygon fill="#000000" stroke="#000000" points="194.4771,-791.6208 192.9522,-799.4742 191.3816,-799.1692 192.9064,-791.3159 194.4771,-791.6208"/>
<polyline fill="none" stroke="#000000" points="194.5,-795.7 190.5733,-794.9376 "/>
<ellipse fill="none" stroke="#000000" cx="187.432" cy="-794.3276" rx="3.2" ry="3.2"/>
</g>
<!-- meteo_config -->
<g id="node10" class="node">
<title>meteo_config</title>
<g id="a_node10"><a xlink:href="../../tables/meteo_config.html" xlink:title="meteo_config" target="_top">
<polygon fill="#ffffff" stroke="transparent" points="134,-612.7 134,-746.7 321,-746.7 321,-612.7 134,-612.7"/>
<polygon fill="#f5f5f5" stroke="transparent" points="136.5,-721.7 136.5,-744.7 319.5,-744.7 319.5,-721.7 136.5,-721.7"/>
<polygon fill="none" stroke="#000000" points="136.5,-721.7 136.5,-744.7 319.5,-744.7 319.5,-721.7 136.5,-721.7"/>
<text text-anchor="start" x="141.5" y="-730.3" font-family="Helvetica,sans-Serif" font-weight="bold" font-size="11.00" fill="#000000">meteo_config</text>
<text text-anchor="start" x="284.5437" y="-729.8" font-family="Helvetica,sans-Serif" font-size="11.00" fill="#000000">[table]</text>
<polygon fill="none" stroke="#000000" points="136.5,-699.7 136.5,-721.7 235.5,-721.7 235.5,-699.7 136.5,-699.7"/>
<image xlink:href="../../images/primaryKeys.png" width="11px" height="12px" preserveAspectRatio="xMinYMin meet" x="141.5" y="-716.7"/>
<text text-anchor="start" x="156.5" y="-706.8" font-family="Helvetica,sans-Serif" font-size="11.00" fill="#000000">id</text>
<polygon fill="none" stroke="#000000" points="235.5,-699.7 235.5,-721.7 319.5,-721.7 319.5,-699.7 235.5,-699.7"/>
<text text-anchor="start" x="238.5" y="-707.4" font-family="Helvetica,sans-Serif" font-size="11.00" fill="#000000">serial[10]</text>
<polygon fill="none" stroke="#000000" points="136.5,-677.7 136.5,-699.7 235.5,-699.7 235.5,-677.7 136.5,-677.7"/>
<image xlink:href="../../images/foreignKeys.png" width="11px" height="12px" preserveAspectRatio="xMinYMin meet" x="141.5" y="-694.7"/>
<text text-anchor="start" x="156.5" y="-684.8" font-family="Helvetica,sans-Serif" font-size="11.00" fill="#000000">name</text>
<polygon fill="none" stroke="#000000" points="235.5,-677.7 235.5,-699.7 319.5,-699.7 319.5,-677.7 235.5,-677.7"/>
<text text-anchor="start" x="238.5" y="-685.4" font-family="Helvetica,sans-Serif" font-size="11.00" fill="#000000">varchar[30]</text>
<polygon fill="none" stroke="#000000" points="136.5,-655.7 136.5,-677.7 235.5,-677.7 235.5,-655.7 136.5,-655.7"/>
<text text-anchor="start" x="156.5" y="-662.8" font-family="Helvetica,sans-Serif" font-size="11.00" fill="#000000">starttime</text>
<polygon fill="none" stroke="#000000" points="235.5,-655.7 235.5,-677.7 319.5,-677.7 319.5,-655.7 235.5,-655.7"/>
<text text-anchor="start" x="238.3807" y="-663.4" font-family="Helvetica,sans-Serif" font-size="11.00" fill="#000000">timestamp[29,6]</text>
<polygon fill="none" stroke="#000000" points="136.5,-633.7 136.5,-655.7 235.5,-655.7 235.5,-633.7 136.5,-633.7"/>
<text text-anchor="start" x="156.5" y="-640.8" font-family="Helvetica,sans-Serif" font-size="11.00" fill="#000000">active</text>
<polygon fill="none" stroke="#000000" points="235.5,-633.7 235.5,-655.7 319.5,-655.7 319.5,-633.7 235.5,-633.7"/>
<text text-anchor="start" x="238.5" y="-641.4" font-family="Helvetica,sans-Serif" font-size="11.00" fill="#000000">bool[1]</text>
<polygon fill="#ffffff" stroke="transparent" points="136.5,-614.7 136.5,-633.7 190.5,-633.7 190.5,-614.7 136.5,-614.7"/>
<polygon fill="none" stroke="#000000" points="136.5,-614.7 136.5,-633.7 190.5,-633.7 190.5,-614.7 136.5,-614.7"/>
<text text-anchor="start" x="139.5" y="-620.8" font-family="Helvetica,sans-Serif" font-size="11.00" fill="#000000">&lt; 1</text>
<polygon fill="#ffffff" stroke="transparent" points="190.5,-614.7 190.5,-633.7 235.5,-633.7 235.5,-614.7 190.5,-614.7"/>
<polygon fill="none" stroke="#000000" points="190.5,-614.7 190.5,-633.7 235.5,-633.7 235.5,-614.7 190.5,-614.7"/>
<text text-anchor="start" x="226.3862" y="-620.8" font-family="Helvetica,sans-Serif" font-size="11.00" fill="#000000"> &#160;</text>
<polygon fill="#ffffff" stroke="transparent" points="235.5,-614.7 235.5,-633.7 319.5,-633.7 319.5,-614.7 235.5,-614.7"/>
<polygon fill="none" stroke="#000000" points="235.5,-614.7 235.5,-633.7 319.5,-633.7 319.5,-614.7 235.5,-614.7"/>
<text text-anchor="start" x="300.9053" y="-620.8" font-family="Helvetica,sans-Serif" font-size="11.00" fill="#000000">0 &gt;</text>
<polygon fill="none" stroke="#000000" stroke-width="2" points="135,-613.7 135,-745.7 320,-745.7 320,-613.7 135,-613.7"/>
</a>
</g>
</g>
<!-- meteo_config&#45;&gt;events -->
<g id="edge9" class="edge">
<title>meteo_config:w&#45;&gt;events:e</title>
<path fill="none" stroke="#000000" stroke-dasharray="5,2" d="M122.4557,-693.5911C107.5477,-706.7117 112.0607,-741.7 85.5,-741.7"/>
<polygon fill="#000000" stroke="#000000" points="128.945,-691.3311 137.684,-692.0997 132.7225,-690.0156 136.5,-688.7 136.5,-688.7 136.5,-688.7 132.7225,-690.0156 135.316,-685.3003 128.945,-691.3311 128.945,-691.3311"/>
<ellipse fill="none" stroke="#000000" cx="125.9231" cy="-692.3836" rx="3.2" ry="3.2"/>
</g>
<!-- outputs -->
<g id="node11" class="node">
<title>outputs</title>
<g id="a_node11"><a xlink:href="../../tables/outputs.html" xlink:title="outputs" target="_top">
<polygon fill="#ffffff" stroke="transparent" points="186.5,-530.2 186.5,-591.2 268.5,-591.2 268.5,-530.2 186.5,-530.2"/>
<polygon fill="#f5f5f5" stroke="transparent" points="186.5,-567.7 186.5,-590.7 268.5,-590.7 268.5,-567.7 186.5,-567.7"/>
<polygon fill="none" stroke="#000000" points="186.5,-567.7 186.5,-590.7 268.5,-590.7 268.5,-567.7 186.5,-567.7"/>
<text text-anchor="start" x="191.5" y="-576.3" font-family="Helvetica,sans-Serif" font-weight="bold" font-size="11.00" fill="#000000">outputs</text>
<text text-anchor="start" x="234.0219" y="-575.8" font-family="Helvetica,sans-Serif" font-size="11.00" fill="#000000">[table]</text>
<polygon fill="none" stroke="#000000" points="186.5,-548.7 186.5,-567.7 268.5,-567.7 268.5,-548.7 186.5,-548.7"/>
<text text-anchor="start" x="189.5" y="-554.8" font-family="Helvetica,sans-Serif" font-size="11.00" fill="#000000">...</text>
<polygon fill="#ffffff" stroke="transparent" points="186.5,-529.7 186.5,-548.7 225.5,-548.7 225.5,-529.7 186.5,-529.7"/>
<polygon fill="none" stroke="#000000" points="186.5,-529.7 186.5,-548.7 225.5,-548.7 225.5,-529.7 186.5,-529.7"/>
<text text-anchor="start" x="189.5" y="-535.8" font-family="Helvetica,sans-Serif" font-size="11.00" fill="#000000">&lt; 1</text>
<polygon fill="#ffffff" stroke="transparent" points="225.5,-529.7 225.5,-548.7 246.5,-548.7 246.5,-529.7 225.5,-529.7"/>
<polygon fill="none" stroke="#000000" points="225.5,-529.7 225.5,-548.7 246.5,-548.7 246.5,-529.7 225.5,-529.7"/>
<text text-anchor="start" x="237.3862" y="-535.8" font-family="Helvetica,sans-Serif" font-size="11.00" fill="#000000"> &#160;</text>
<polygon fill="#ffffff" stroke="transparent" points="246.5,-529.7 246.5,-548.7 268.5,-548.7 268.5,-529.7 246.5,-529.7"/>
<polygon fill="none" stroke="#000000" points="246.5,-529.7 246.5,-548.7 268.5,-548.7 268.5,-529.7 246.5,-529.7"/>
<text text-anchor="start" x="259.3862" y="-535.8" font-family="Helvetica,sans-Serif" font-size="11.00" fill="#000000"> &#160;</text>
</a>
</g>
</g>
<!-- outputs&#45;&gt;events -->
<g id="edge10" class="edge">
<title>outputs:w&#45;&gt;events:e</title>
<path fill="none" stroke="#000000" stroke-dasharray="5,2" d="M171.9142,-559.0788C150.1055,-563.7066 141.9881,-579.6971 126,-602.7 89.2754,-655.5374 149.8467,-741.7 85.5,-741.7"/>
<polygon fill="#000000" stroke="#000000" points="178.5355,-558.4529 186.8388,-561.284 182.5178,-558.0765 186.5,-557.7 186.5,-557.7 186.5,-557.7 182.5178,-558.0765 186.1612,-554.116 178.5355,-558.4529 178.5355,-558.4529"/>
<ellipse fill="none" stroke="#000000" cx="175.3497" cy="-558.7541" rx="3.2" ry="3.2"/>
</g>
<!-- profiles -->
<g id="node12" class="node">
<title>profiles</title>
<g id="a_node12"><a xlink:href="../../tables/profiles.html" xlink:title="profiles" target="_top">
<polygon fill="#ffffff" stroke="transparent" points="186.5,-448.2 186.5,-509.2 268.5,-509.2 268.5,-448.2 186.5,-448.2"/>
<polygon fill="#f5f5f5" stroke="transparent" points="186.5,-485.7 186.5,-508.7 268.5,-508.7 268.5,-485.7 186.5,-485.7"/>
<polygon fill="none" stroke="#000000" points="186.5,-485.7 186.5,-508.7 268.5,-508.7 268.5,-485.7 186.5,-485.7"/>
<text text-anchor="start" x="191.5" y="-494.3" font-family="Helvetica,sans-Serif" font-weight="bold" font-size="11.00" fill="#000000">profiles</text>
<text text-anchor="start" x="234.0219" y="-493.8" font-family="Helvetica,sans-Serif" font-size="11.00" fill="#000000">[table]</text>
<polygon fill="none" stroke="#000000" points="186.5,-466.7 186.5,-485.7 268.5,-485.7 268.5,-466.7 186.5,-466.7"/>
<text text-anchor="start" x="189.5" y="-472.8" font-family="Helvetica,sans-Serif" font-size="11.00" fill="#000000">...</text>
<polygon fill="#ffffff" stroke="transparent" points="186.5,-447.7 186.5,-466.7 225.5,-466.7 225.5,-447.7 186.5,-447.7"/>
<polygon fill="none" stroke="#000000" points="186.5,-447.7 186.5,-466.7 225.5,-466.7 225.5,-447.7 186.5,-447.7"/>
<text text-anchor="start" x="189.5" y="-453.8" font-family="Helvetica,sans-Serif" font-size="11.00" fill="#000000">&lt; 1</text>
<polygon fill="#ffffff" stroke="transparent" points="225.5,-447.7 225.5,-466.7 246.5,-466.7 246.5,-447.7 225.5,-447.7"/>
<polygon fill="none" stroke="#000000" points="225.5,-447.7 225.5,-466.7 246.5,-466.7 246.5,-447.7 225.5,-447.7"/>
<text text-anchor="start" x="237.3862" y="-453.8" font-family="Helvetica,sans-Serif" font-size="11.00" fill="#000000"> &#160;</text>
<polygon fill="#ffffff" stroke="transparent" points="246.5,-447.7 246.5,-466.7 268.5,-466.7 268.5,-447.7 246.5,-447.7"/>
<polygon fill="none" stroke="#000000" points="246.5,-447.7 246.5,-466.7 268.5,-466.7 268.5,-447.7 246.5,-447.7"/>
<text text-anchor="start" x="259.3862" y="-453.8" font-family="Helvetica,sans-Serif" font-size="11.00" fill="#000000"> &#160;</text>
</a>
</g>
</g>
<!-- profiles&#45;&gt;events -->
<g id="edge11" class="edge">
<title>profiles:w&#45;&gt;events:e</title>
<path fill="none" stroke="#000000" stroke-dasharray="5,2" d="M176.0667,-476.3051C150.9824,-479.4493 141.6908,-494.7407 126,-519.7 99.3103,-562.1551 135.6476,-741.7 85.5,-741.7"/>
<polygon fill="#000000" stroke="#000000" points="185.4697,-471.753 185.933,-479.7396 184.3357,-479.8323 183.8724,-471.8457 185.4697,-471.753"/>
<polyline fill="none" stroke="#000000" points="186.5,-475.7 182.5067,-475.9316 "/>
<ellipse fill="none" stroke="#000000" cx="179.3121" cy="-476.1169" rx="3.2" ry="3.2"/>
</g>
<!-- struct_config -->
<g id="node13" class="node">
<title>struct_config</title>
<g id="a_node13"><a xlink:href="../../tables/struct_config.html" xlink:title="struct_config" target="_top">
<polygon fill="#ffffff" stroke="transparent" points="170,-366.2 170,-427.2 285,-427.2 285,-366.2 170,-366.2"/>
<polygon fill="#f5f5f5" stroke="transparent" points="170.5,-403.7 170.5,-426.7 285.5,-426.7 285.5,-403.7 170.5,-403.7"/>
<polygon fill="none" stroke="#000000" points="170.5,-403.7 170.5,-426.7 285.5,-426.7 285.5,-403.7 170.5,-403.7"/>
<text text-anchor="start" x="175.5" y="-412.3" font-family="Helvetica,sans-Serif" font-weight="bold" font-size="11.00" fill="#000000">struct_config</text>
<text text-anchor="start" x="251.0219" y="-411.8" font-family="Helvetica,sans-Serif" font-size="11.00" fill="#000000">[table]</text>
<polygon fill="none" stroke="#000000" points="170.5,-384.7 170.5,-403.7 285.5,-403.7 285.5,-384.7 170.5,-384.7"/>
<text text-anchor="start" x="173.5" y="-390.8" font-family="Helvetica,sans-Serif" font-size="11.00" fill="#000000">...</text>
<polygon fill="#ffffff" stroke="transparent" points="170.5,-365.7 170.5,-384.7 226.5,-384.7 226.5,-365.7 170.5,-365.7"/>
<polygon fill="none" stroke="#000000" points="170.5,-365.7 170.5,-384.7 226.5,-384.7 226.5,-365.7 170.5,-365.7"/>
<text text-anchor="start" x="173.5" y="-371.8" font-family="Helvetica,sans-Serif" font-size="11.00" fill="#000000">&lt; 1</text>
<polygon fill="#ffffff" stroke="transparent" points="226.5,-365.7 226.5,-384.7 255.5,-384.7 255.5,-365.7 226.5,-365.7"/>
<polygon fill="none" stroke="#000000" points="226.5,-365.7 226.5,-384.7 255.5,-384.7 255.5,-365.7 226.5,-365.7"/>
<text text-anchor="start" x="246.3862" y="-371.8" font-family="Helvetica,sans-Serif" font-size="11.00" fill="#000000"> &#160;</text>
<polygon fill="#ffffff" stroke="transparent" points="255.5,-365.7 255.5,-384.7 285.5,-384.7 285.5,-365.7 255.5,-365.7"/>
<polygon fill="none" stroke="#000000" points="255.5,-365.7 255.5,-384.7 285.5,-384.7 285.5,-365.7 255.5,-365.7"/>
<text text-anchor="start" x="276.3862" y="-371.8" font-family="Helvetica,sans-Serif" font-size="11.00" fill="#000000"> &#160;</text>
</a>
</g>
</g>
<!-- struct_config&#45;&gt;events -->
<g id="edge12" class="edge">
<title>struct_config:w&#45;&gt;events:e</title>
<path fill="none" stroke="#000000" stroke-dasharray="5,2" d="M156.1973,-395.9527C140.6076,-401.6985 135.8742,-417.8573 126,-437.7 95.6373,-498.7152 153.6524,-741.7 85.5,-741.7"/>
<polygon fill="#000000" stroke="#000000" points="162.5974,-394.9447 171.0601,-397.2562 166.5487,-394.3223 170.5,-393.7 170.5,-393.7 170.5,-393.7 166.5487,-394.3223 169.9399,-390.1438 162.5974,-394.9447 162.5974,-394.9447"/>
<ellipse fill="none" stroke="#000000" cx="159.4364" cy="-395.4426" rx="3.2" ry="3.2"/>
</g>
<!-- topo -->
<g id="node14" class="node">
<title>topo</title>
<g id="a_node14"><a xlink:href="../../tables/topo.html" xlink:title="topo" target="_top">
<polygon fill="#ffffff" stroke="transparent" points="195.5,-284.2 195.5,-345.2 259.5,-345.2 259.5,-284.2 195.5,-284.2"/>
<polygon fill="#f5f5f5" stroke="transparent" points="195.5,-321.7 195.5,-344.7 259.5,-344.7 259.5,-321.7 195.5,-321.7"/>
<polygon fill="none" stroke="#000000" points="195.5,-321.7 195.5,-344.7 259.5,-344.7 259.5,-321.7 195.5,-321.7"/>
<text text-anchor="start" x="200.2992" y="-330.3" font-family="Helvetica,sans-Serif" font-weight="bold" font-size="11.00" fill="#000000">topo</text>
<text text-anchor="start" x="225.0219" y="-329.8" font-family="Helvetica,sans-Serif" font-size="11.00" fill="#000000">[table]</text>
<polygon fill="none" stroke="#000000" points="195.5,-302.7 195.5,-321.7 259.5,-321.7 259.5,-302.7 195.5,-302.7"/>
<text text-anchor="start" x="198.5" y="-308.8" font-family="Helvetica,sans-Serif" font-size="11.00" fill="#000000">...</text>
<polygon fill="#ffffff" stroke="transparent" points="195.5,-283.7 195.5,-302.7 225.5,-302.7 225.5,-283.7 195.5,-283.7"/>
<polygon fill="none" stroke="#000000" points="195.5,-283.7 195.5,-302.7 225.5,-302.7 225.5,-283.7 195.5,-283.7"/>
<text text-anchor="start" x="198.5" y="-289.8" font-family="Helvetica,sans-Serif" font-size="11.00" fill="#000000">&lt; 1</text>
<polygon fill="#ffffff" stroke="transparent" points="225.5,-283.7 225.5,-302.7 242.5,-302.7 242.5,-283.7 225.5,-283.7"/>
<polygon fill="none" stroke="#000000" points="225.5,-283.7 225.5,-302.7 242.5,-302.7 242.5,-283.7 225.5,-283.7"/>
<text text-anchor="start" x="233.3862" y="-289.8" font-family="Helvetica,sans-Serif" font-size="11.00" fill="#000000"> &#160;</text>
<polygon fill="#ffffff" stroke="transparent" points="242.5,-283.7 242.5,-302.7 259.5,-302.7 259.5,-283.7 242.5,-283.7"/>
<polygon fill="none" stroke="#000000" points="242.5,-283.7 242.5,-302.7 259.5,-302.7 259.5,-283.7 242.5,-283.7"/>
<text text-anchor="start" x="250.3862" y="-289.8" font-family="Helvetica,sans-Serif" font-size="11.00" fill="#000000"> &#160;</text>
</a>
</g>
</g>
<!-- topo&#45;&gt;events -->
<g id="edge13" class="edge">
<title>topo:w&#45;&gt;events:e</title>
<path fill="none" stroke="#000000" stroke-dasharray="5,2" d="M180.9971,-312.5264C154.8747,-315.8184 142.4926,-329.1272 126,-355.7 80.5175,-428.9814 171.7486,-741.7 85.5,-741.7"/>
<polygon fill="#000000" stroke="#000000" points="187.513,-312.1552 195.7048,-315.2942 191.5065,-311.9276 195.5,-311.7 195.5,-311.7 195.5,-311.7 191.5065,-311.9276 195.2952,-308.1058 187.513,-312.1552 187.513,-312.1552"/>
<ellipse fill="none" stroke="#000000" cx="184.3181" cy="-312.3373" rx="3.2" ry="3.2"/>
</g>
<!-- tracer_config -->
<g id="node15" class="node">
<title>tracer_config</title>
<g id="a_node15"><a xlink:href="../../tables/tracer_config.html" xlink:title="tracer_config" target="_top">
<polygon fill="#ffffff" stroke="transparent" points="170,-202.2 170,-263.2 285,-263.2 285,-202.2 170,-202.2"/>
<polygon fill="#f5f5f5" stroke="transparent" points="170.5,-239.7 170.5,-262.7 285.5,-262.7 285.5,-239.7 170.5,-239.7"/>
<polygon fill="none" stroke="#000000" points="170.5,-239.7 170.5,-262.7 285.5,-262.7 285.5,-239.7 170.5,-239.7"/>
<text text-anchor="start" x="175.5" y="-248.3" font-family="Helvetica,sans-Serif" font-weight="bold" font-size="11.00" fill="#000000">tracer_config</text>
<text text-anchor="start" x="251.0219" y="-247.8" font-family="Helvetica,sans-Serif" font-size="11.00" fill="#000000">[table]</text>
<polygon fill="none" stroke="#000000" points="170.5,-220.7 170.5,-239.7 285.5,-239.7 285.5,-220.7 170.5,-220.7"/>
<text text-anchor="start" x="173.5" y="-226.8" font-family="Helvetica,sans-Serif" font-size="11.00" fill="#000000">...</text>
<polygon fill="#ffffff" stroke="transparent" points="170.5,-201.7 170.5,-220.7 226.5,-220.7 226.5,-201.7 170.5,-201.7"/>
<polygon fill="none" stroke="#000000" points="170.5,-201.7 170.5,-220.7 226.5,-220.7 226.5,-201.7 170.5,-201.7"/>
<text text-anchor="start" x="173.5" y="-207.8" font-family="Helvetica,sans-Serif" font-size="11.00" fill="#000000">&lt; 1</text>
<polygon fill="#ffffff" stroke="transparent" points="226.5,-201.7 226.5,-220.7 255.5,-220.7 255.5,-201.7 226.5,-201.7"/>
<polygon fill="none" stroke="#000000" points="226.5,-201.7 226.5,-220.7 255.5,-220.7 255.5,-201.7 226.5,-201.7"/>
<text text-anchor="start" x="246.3862" y="-207.8" font-family="Helvetica,sans-Serif" font-size="11.00" fill="#000000"> &#160;</text>
<polygon fill="#ffffff" stroke="transparent" points="255.5,-201.7 255.5,-220.7 285.5,-220.7 285.5,-201.7 255.5,-201.7"/>
<polygon fill="none" stroke="#000000" points="255.5,-201.7 255.5,-220.7 285.5,-220.7 285.5,-201.7 255.5,-201.7"/>
<text text-anchor="start" x="276.3862" y="-207.8" font-family="Helvetica,sans-Serif" font-size="11.00" fill="#000000"> &#160;</text>
</a>
</g>
</g>
<!-- tracer_config&#45;&gt;events -->
<g id="edge14" class="edge">
<title>tracer_config:w&#45;&gt;events:e</title>
<path fill="none" stroke="#000000" stroke-dasharray="5,2" d="M156.1404,-231.9251C140.4207,-237.6081 135.414,-253.6349 126,-273.7 103.8305,-320.9521 137.6943,-741.7 85.5,-741.7"/>
<polygon fill="#000000" stroke="#000000" points="162.5944,-230.9251 171.0513,-233.2575 166.5472,-230.3125 170.5,-229.7 170.5,-229.7 170.5,-229.7 166.5472,-230.3125 169.9487,-226.1425 162.5944,-230.9251 162.5944,-230.9251"/>
<ellipse fill="none" stroke="#000000" cx="159.4321" cy="-231.4151" rx="3.2" ry="3.2"/>
</g>
<!-- tracer_lateral_inflows -->
<g id="node16" class="node">
<title>tracer_lateral_inflows</title>
<g id="a_node16"><a xlink:href="../../tables/tracer_lateral_inflows.html" xlink:title="tracer_lateral_inflows" target="_top">
<polygon fill="#ffffff" stroke="transparent" points="146.5,-120.2 146.5,-181.2 308.5,-181.2 308.5,-120.2 146.5,-120.2"/>
<polygon fill="#f5f5f5" stroke="transparent" points="146.5,-157.7 146.5,-180.7 308.5,-180.7 308.5,-157.7 146.5,-157.7"/>
<polygon fill="none" stroke="#000000" points="146.5,-157.7 146.5,-180.7 308.5,-180.7 308.5,-157.7 146.5,-157.7"/>
<text text-anchor="start" x="151.5" y="-166.3" font-family="Helvetica,sans-Serif" font-weight="bold" font-size="11.00" fill="#000000">tracer_lateral_inflows</text>
<text text-anchor="start" x="274.0219" y="-165.8" font-family="Helvetica,sans-Serif" font-size="11.00" fill="#000000">[table]</text>
<polygon fill="none" stroke="#000000" points="146.5,-138.7 146.5,-157.7 308.5,-157.7 308.5,-138.7 146.5,-138.7"/>
<text text-anchor="start" x="149.5" y="-144.8" font-family="Helvetica,sans-Serif" font-size="11.00" fill="#000000">...</text>
<polygon fill="#ffffff" stroke="transparent" points="146.5,-119.7 146.5,-138.7 225.5,-138.7 225.5,-119.7 146.5,-119.7"/>
<polygon fill="none" stroke="#000000" points="146.5,-119.7 146.5,-138.7 225.5,-138.7 225.5,-119.7 146.5,-119.7"/>
<text text-anchor="start" x="149.5" y="-125.8" font-family="Helvetica,sans-Serif" font-size="11.00" fill="#000000">&lt; 1</text>
<polygon fill="#ffffff" stroke="transparent" points="225.5,-119.7 225.5,-138.7 266.5,-138.7 266.5,-119.7 225.5,-119.7"/>
<polygon fill="none" stroke="#000000" points="225.5,-119.7 225.5,-138.7 266.5,-138.7 266.5,-119.7 225.5,-119.7"/>
<text text-anchor="start" x="257.3862" y="-125.8" font-family="Helvetica,sans-Serif" font-size="11.00" fill="#000000"> &#160;</text>
<polygon fill="#ffffff" stroke="transparent" points="266.5,-119.7 266.5,-138.7 308.5,-138.7 308.5,-119.7 266.5,-119.7"/>
<polygon fill="none" stroke="#000000" points="266.5,-119.7 266.5,-138.7 308.5,-138.7 308.5,-119.7 266.5,-119.7"/>
<text text-anchor="start" x="299.3862" y="-125.8" font-family="Helvetica,sans-Serif" font-size="11.00" fill="#000000"> &#160;</text>
</a>
</g>
</g>
<!-- tracer_lateral_inflows&#45;&gt;events -->
<g id="edge15" class="edge">
<title>tracer_lateral_inflows:w&#45;&gt;events:e</title>
<path fill="none" stroke="#000000" stroke-dasharray="5,2" d="M134.4563,-156.097C89.5524,-228.2946 147.1821,-741.7 85.5,-741.7"/>
<polygon fill="#000000" stroke="#000000" points="139.9375,-152.2754 148.5589,-150.6531 143.2188,-149.9877 146.5,-147.7 146.5,-147.7 146.5,-147.7 143.2188,-149.9877 144.4411,-144.7469 139.9375,-152.2754 139.9375,-152.2754"/>
<ellipse fill="none" stroke="#000000" cx="137.3126" cy="-154.1056" rx="3.2" ry="3.2"/>
</g>
<!-- weirs -->
<g id="node17" class="node">
<title>weirs</title>
<g id="a_node17"><a xlink:href="../../tables/weirs.html" xlink:title="weirs" target="_top">
<polygon fill="#ffffff" stroke="transparent" points="193,-38.2 193,-99.2 262,-99.2 262,-38.2 193,-38.2"/>
<polygon fill="#f5f5f5" stroke="transparent" points="193.5,-75.7 193.5,-98.7 262.5,-98.7 262.5,-75.7 193.5,-75.7"/>
<polygon fill="none" stroke="#000000" points="193.5,-75.7 193.5,-98.7 262.5,-98.7 262.5,-75.7 193.5,-75.7"/>
<text text-anchor="start" x="198.5" y="-84.3" font-family="Helvetica,sans-Serif" font-weight="bold" font-size="11.00" fill="#000000">weirs</text>
<text text-anchor="start" x="228.0219" y="-83.8" font-family="Helvetica,sans-Serif" font-size="11.00" fill="#000000">[table]</text>
<polygon fill="none" stroke="#000000" points="193.5,-56.7 193.5,-75.7 262.5,-75.7 262.5,-56.7 193.5,-56.7"/>
<text text-anchor="start" x="196.5" y="-62.8" font-family="Helvetica,sans-Serif" font-size="11.00" fill="#000000">...</text>
<polygon fill="#ffffff" stroke="transparent" points="193.5,-37.7 193.5,-56.7 226.5,-56.7 226.5,-37.7 193.5,-37.7"/>
<polygon fill="none" stroke="#000000" points="193.5,-37.7 193.5,-56.7 226.5,-56.7 226.5,-37.7 193.5,-37.7"/>
<text text-anchor="start" x="196.5" y="-43.8" font-family="Helvetica,sans-Serif" font-size="11.00" fill="#000000">&lt; 1</text>
<polygon fill="#ffffff" stroke="transparent" points="226.5,-37.7 226.5,-56.7 244.5,-56.7 244.5,-37.7 226.5,-37.7"/>
<polygon fill="none" stroke="#000000" points="226.5,-37.7 226.5,-56.7 244.5,-56.7 244.5,-37.7 226.5,-37.7"/>
<text text-anchor="start" x="235.3862" y="-43.8" font-family="Helvetica,sans-Serif" font-size="11.00" fill="#000000"> &#160;</text>
<polygon fill="#ffffff" stroke="transparent" points="244.5,-37.7 244.5,-56.7 262.5,-56.7 262.5,-37.7 244.5,-37.7"/>
<polygon fill="none" stroke="#000000" points="244.5,-37.7 244.5,-56.7 262.5,-56.7 262.5,-37.7 244.5,-37.7"/>
<text text-anchor="start" x="253.3862" y="-43.8" font-family="Helvetica,sans-Serif" font-size="11.00" fill="#000000"> &#160;</text>
</a>
</g>
</g>
<!-- weirs&#45;&gt;events -->
<g id="edge16" class="edge">
<title>weirs:w&#45;&gt;events:e</title>
<path fill="none" stroke="#000000" stroke-dasharray="5,2" d="M178.9321,-66.5799C153.5451,-69.9752 141.3784,-83.3663 126,-109.7 90.5151,-170.4638 155.8663,-741.7 85.5,-741.7"/>
<polygon fill="#000000" stroke="#000000" points="185.5146,-66.1824 193.7171,-69.2935 189.5073,-65.9412 193.5,-65.7 193.5,-65.7 193.5,-65.7 189.5073,-65.9412 193.2829,-62.1065 185.5146,-66.1824 185.5146,-66.1824"/>
<ellipse fill="none" stroke="#000000" cx="182.3204" cy="-66.3754" rx="3.2" ry="3.2"/>
</g>
</g>
</svg>
