<?xml version="1.0" encoding="UTF-8" standalone="no"?>
<!DOCTYPE svg PUBLIC "-//W3C//DTD SVG 1.1//EN"
 "http://www.w3.org/Graphics/SVG/1.1/DTD/svg11.dtd">
<!-- Generated by graphviz version 2.40.1 (20161225.0304)
 -->
<!-- Title: oneDegreeRelationshipsDiagramImplied Pages: 1 -->
<svg width="359pt" height="272pt"
 viewBox="0.00 0.00 359.00 272.20" xmlns="http://www.w3.org/2000/svg" xmlns:xlink="http://www.w3.org/1999/xlink">
<g id="graph0" class="graph" transform="scale(1 1) rotate(0) translate(4 268.2)">
<title>oneDegreeRelationshipsDiagramImplied</title>
<polygon fill="#ffffff" stroke="transparent" points="-4,4 -4,-268.2 355,-268.2 355,4 -4,4"/>
<text text-anchor="middle" x="72.4936" y="-7.3" font-family="Helvetica,sans-Serif" font-size="11.00" fill="#000000">Generated by SchemaSpy</text>
<!-- outputs -->
<g id="node1" class="node">
<title>outputs</title>
<g id="a_node1"><a xlink:href="../../tables/outputs.html" xlink:title="outputs" target="_top">
<polygon fill="#ffffff" stroke="transparent" points="134,-38.2 134,-260.2 343,-260.2 343,-38.2 134,-38.2"/>
<polygon fill="#f5f5f5" stroke="transparent" points="136.5,-235.2 136.5,-258.2 341.5,-258.2 341.5,-235.2 136.5,-235.2"/>
<polygon fill="none" stroke="#000000" points="136.5,-235.2 136.5,-258.2 341.5,-258.2 341.5,-235.2 136.5,-235.2"/>
<text text-anchor="start" x="141.5" y="-243.8" font-family="Helvetica,sans-Serif" font-weight="bold" font-size="11.00" fill="#000000">outputs</text>
<text text-anchor="start" x="306.5437" y="-243.3" font-family="Helvetica,sans-Serif" font-size="11.00" fill="#000000">[table]</text>
<polygon fill="#ffffff" stroke="transparent" points="136.5,-213.2 136.5,-235.2 222.5,-235.2 222.5,-213.2 136.5,-213.2"/>
<polygon fill="none" stroke="#000000" points="136.5,-213.2 136.5,-235.2 222.5,-235.2 222.5,-213.2 136.5,-213.2"/>
<text text-anchor="start" x="156.5" y="-220.3" font-family="Helvetica,sans-Serif" font-size="11.00" fill="#000000">geom</text>
<polygon fill="none" stroke="#000000" points="222.5,-213.2 222.5,-235.2 341.5,-235.2 341.5,-213.2 222.5,-213.2"/>
<text text-anchor="start" x="225.4485" y="-220.9" font-family="Helvetica,sans-Serif" font-size="11.00" fill="#000000">geometry[2147483647]</text>
<polygon fill="none" stroke="#000000" points="136.5,-191.2 136.5,-213.2 222.5,-213.2 222.5,-191.2 136.5,-191.2"/>
<image xlink:href="../../images/primaryKeys.png" width="11px" height="12px" preserveAspectRatio="xMinYMin meet" x="141.5" y="-208.2"/>
<text text-anchor="start" x="156.5" y="-198.3" font-family="Helvetica,sans-Serif" font-size="11.00" fill="#000000">gid</text>
<polygon fill="none" stroke="#000000" points="222.5,-191.2 222.5,-213.2 341.5,-213.2 341.5,-191.2 222.5,-191.2"/>
<text text-anchor="start" x="225.5" y="-198.9" font-family="Helvetica,sans-Serif" font-size="11.00" fill="#000000">serial[10]</text>
<polygon fill="none" stroke="#000000" points="136.5,-169.2 136.5,-191.2 222.5,-191.2 222.5,-169.2 136.5,-169.2"/>
<image xlink:href="../../images/foreignKeys.png" width="11px" height="12px" preserveAspectRatio="xMinYMin meet" x="141.5" y="-186.2"/>
<text text-anchor="start" x="156.5" y="-176.3" font-family="Helvetica,sans-Serif" font-size="11.00" fill="#000000">name</text>
<polygon fill="none" stroke="#000000" points="222.5,-169.2 222.5,-191.2 341.5,-191.2 341.5,-169.2 222.5,-169.2"/>
<text text-anchor="start" x="225.5" y="-176.9" font-family="Helvetica,sans-Serif" font-size="11.00" fill="#000000">varchar[30]</text>
<polygon fill="none" stroke="#000000" points="136.5,-147.2 136.5,-169.2 222.5,-169.2 222.5,-147.2 136.5,-147.2"/>
<text text-anchor="start" x="156.5" y="-154.3" font-family="Helvetica,sans-Serif" font-size="11.00" fill="#000000">code</text>
<polygon fill="none" stroke="#000000" points="222.5,-147.2 222.5,-169.2 341.5,-169.2 341.5,-147.2 222.5,-147.2"/>
<text text-anchor="start" x="225.5" y="-154.9" font-family="Helvetica,sans-Serif" font-size="11.00" fill="#000000">varchar[30]</text>
<polygon fill="none" stroke="#000000" points="136.5,-125.2 136.5,-147.2 222.5,-147.2 222.5,-125.2 136.5,-125.2"/>
<text text-anchor="start" x="156.5" y="-132.3" font-family="Helvetica,sans-Serif" font-size="11.00" fill="#000000">zero</text>
<polygon fill="none" stroke="#000000" points="222.5,-125.2 222.5,-147.2 341.5,-147.2 341.5,-125.2 222.5,-125.2"/>
<text text-anchor="start" x="225.5" y="-132.9" font-family="Helvetica,sans-Serif" font-size="11.00" fill="#000000">float8[17,17]</text>
<polygon fill="none" stroke="#000000" points="136.5,-103.2 136.5,-125.2 222.5,-125.2 222.5,-103.2 136.5,-103.2"/>
<text text-anchor="start" x="156.5" y="-110.3" font-family="Helvetica,sans-Serif" font-size="11.00" fill="#000000">branchnum</text>
<polygon fill="none" stroke="#000000" points="222.5,-103.2 222.5,-125.2 341.5,-125.2 341.5,-103.2 222.5,-103.2"/>
<text text-anchor="start" x="225.5" y="-110.9" font-family="Helvetica,sans-Serif" font-size="11.00" fill="#000000">int4[10]</text>
<polygon fill="none" stroke="#000000" points="136.5,-81.2 136.5,-103.2 222.5,-103.2 222.5,-81.2 136.5,-81.2"/>
<text text-anchor="start" x="156.5" y="-88.3" font-family="Helvetica,sans-Serif" font-size="11.00" fill="#000000">abscissa</text>
<polygon fill="none" stroke="#000000" points="222.5,-81.2 222.5,-103.2 341.5,-103.2 341.5,-81.2 222.5,-81.2"/>
<text text-anchor="start" x="225.5" y="-88.9" font-family="Helvetica,sans-Serif" font-size="11.00" fill="#000000">float8[17,17]</text>
<polygon fill="none" stroke="#000000" points="136.5,-59.2 136.5,-81.2 222.5,-81.2 222.5,-59.2 136.5,-59.2"/>
<text text-anchor="start" x="156.5" y="-66.3" font-family="Helvetica,sans-Serif" font-size="11.00" fill="#000000">active</text>
<polygon fill="none" stroke="#000000" points="222.5,-59.2 222.5,-81.2 341.5,-81.2 341.5,-59.2 222.5,-59.2"/>
<text text-anchor="start" x="225.5" y="-66.9" font-family="Helvetica,sans-Serif" font-size="11.00" fill="#000000">bool[1]</text>
<polygon fill="#ffffff" stroke="transparent" points="136.5,-40.2 136.5,-59.2 183.5,-59.2 183.5,-40.2 136.5,-40.2"/>
<polygon fill="none" stroke="#000000" points="136.5,-40.2 136.5,-59.2 183.5,-59.2 183.5,-40.2 136.5,-40.2"/>
<text text-anchor="start" x="139.5" y="-46.3" font-family="Helvetica,sans-Serif" font-size="11.00" fill="#000000">&lt; 1</text>
<polygon fill="#ffffff" stroke="transparent" points="183.5,-40.2 183.5,-59.2 222.5,-59.2 222.5,-40.2 183.5,-40.2"/>
<polygon fill="none" stroke="#000000" points="183.5,-40.2 183.5,-59.2 222.5,-59.2 222.5,-40.2 183.5,-40.2"/>
<text text-anchor="start" x="213.3862" y="-46.3" font-family="Helvetica,sans-Serif" font-size="11.00" fill="#000000"> &#160;</text>
<polygon fill="#ffffff" stroke="transparent" points="222.5,-40.2 222.5,-59.2 341.5,-59.2 341.5,-40.2 222.5,-40.2"/>
<polygon fill="none" stroke="#000000" points="222.5,-40.2 222.5,-59.2 341.5,-59.2 341.5,-40.2 222.5,-40.2"/>
<text text-anchor="start" x="322.9053" y="-46.3" font-family="Helvetica,sans-Serif" font-size="11.00" fill="#000000">0 &gt;</text>
<polygon fill="none" stroke="#000000" stroke-width="2" points="135,-39.2 135,-259.2 342,-259.2 342,-39.2 135,-39.2"/>
</a>
</g>
</g>
<!-- events -->
<g id="node2" class="node">
<title>events</title>
<g id="a_node2"><a xlink:href="../../tables/events.html" xlink:title="events" target="_top">
<polygon fill="#ffffff" stroke="transparent" points="8,-131.7 8,-214.7 85,-214.7 85,-131.7 8,-131.7"/>
<polygon fill="#f5f5f5" stroke="transparent" points="8.5,-191.2 8.5,-214.2 85.5,-214.2 85.5,-191.2 8.5,-191.2"/>
<polygon fill="none" stroke="#000000" points="8.5,-191.2 8.5,-214.2 85.5,-214.2 85.5,-191.2 8.5,-191.2"/>
<text text-anchor="start" x="13.5" y="-199.8" font-family="Helvetica,sans-Serif" font-weight="bold" font-size="11.00" fill="#000000">events</text>
<text text-anchor="start" x="51.0219" y="-199.3" font-family="Helvetica,sans-Serif" font-size="11.00" fill="#000000">[table]</text>
<polygon fill="none" stroke="#000000" points="8.5,-169.2 8.5,-191.2 85.5,-191.2 85.5,-169.2 8.5,-169.2"/>
<image xlink:href="../../images/primaryKeys.png" width="11px" height="12px" preserveAspectRatio="xMinYMin meet" x="13.5" y="-186.2"/>
<text text-anchor="start" x="31.5" y="-176.3" font-family="Helvetica,sans-Serif" font-size="11.00" fill="#000000">name</text>
<polygon fill="none" stroke="#000000" points="8.5,-150.2 8.5,-169.2 85.5,-169.2 85.5,-150.2 8.5,-150.2"/>
<text text-anchor="start" x="11.5" y="-156.3" font-family="Helvetica,sans-Serif" font-size="11.00" fill="#000000">...</text>
<polygon fill="#ffffff" stroke="transparent" points="8.5,-131.2 8.5,-150.2 33.5,-150.2 33.5,-131.2 8.5,-131.2"/>
<polygon fill="none" stroke="#000000" points="8.5,-131.2 8.5,-150.2 33.5,-150.2 33.5,-131.2 8.5,-131.2"/>
<text text-anchor="start" x="11.5" y="-137.3" font-family="Helvetica,sans-Serif" font-size="11.00" fill="#000000"> &#160;</text>
<polygon fill="#ffffff" stroke="transparent" points="33.5,-131.2 33.5,-150.2 51.5,-150.2 51.5,-131.2 33.5,-131.2"/>
<polygon fill="none" stroke="#000000" points="33.5,-131.2 33.5,-150.2 51.5,-150.2 51.5,-131.2 33.5,-131.2"/>
<text text-anchor="start" x="42.3862" y="-137.3" font-family="Helvetica,sans-Serif" font-size="11.00" fill="#000000"> &#160;</text>
<polygon fill="#ffffff" stroke="transparent" points="51.5,-131.2 51.5,-150.2 85.5,-150.2 85.5,-131.2 51.5,-131.2"/>
<polygon fill="none" stroke="#000000" points="51.5,-131.2 51.5,-150.2 85.5,-150.2 85.5,-131.2 51.5,-131.2"/>
<text text-anchor="start" x="60.7904" y="-137.3" font-family="Helvetica,sans-Serif" font-size="11.00" fill="#000000">16 &gt;</text>
</a>
</g>
</g>
<!-- outputs&#45;&gt;events -->
<g id="edge1" class="edge">
<title>outputs:w&#45;&gt;events:e</title>
<path fill="none" stroke="#000000" stroke-dasharray="5,2" d="M121.776,-180.2C109.7815,-180.2 102.3229,-180.2 85.5,-180.2"/>
<polygon fill="#000000" stroke="#000000" points="128.5,-180.2001 136.5,-183.8 132.5,-180.2 136.5,-180.2 136.5,-180.2 136.5,-180.2 132.5,-180.2 136.5,-176.6 128.5,-180.2001 128.5,-180.2001"/>
<ellipse fill="none" stroke="#000000" cx="125.3" cy="-180.2001" rx="3.2" ry="3.2"/>
</g>
</g>
</svg>
