<?xml version="1.0" encoding="UTF-8" standalone="no"?>
<!DOCTYPE svg PUBLIC "-//W3C//DTD SVG 1.1//EN"
 "http://www.w3.org/Graphics/SVG/1.1/DTD/svg11.dtd">
<!-- Generated by graphviz version 2.40.1 (20161225.0304)
 -->
<!-- Title: oneDegreeRelationshipsDiagram Pages: 1 -->
<svg width="207pt" height="316pt"
 viewBox="0.00 0.00 207.00 316.20" xmlns="http://www.w3.org/2000/svg" xmlns:xlink="http://www.w3.org/1999/xlink">
<g id="graph0" class="graph" transform="scale(1 1) rotate(0) translate(4 312.2)">
<title>oneDegreeRelationshipsDiagram</title>
<polygon fill="#ffffff" stroke="transparent" points="-4,4 -4,-312.2 203,-312.2 203,4 -4,4"/>
<text text-anchor="middle" x="72.4936" y="-7.3" font-family="Helvetica,sans-Serif" font-size="11.00" fill="#000000">Generated by SchemaSpy</text>
<!-- parametres -->
<g id="node1" class="node">
<title>parametres</title>
<g id="a_node1"><a xlink:href="../../tables/parametres.html" xlink:title="parametres" target="_top">
<polygon fill="#ffffff" stroke="transparent" points="8,-38.2 8,-304.2 191,-304.2 191,-38.2 8,-38.2"/>
<polygon fill="#f5f5f5" stroke="transparent" points="10.5,-279.2 10.5,-302.2 189.5,-302.2 189.5,-279.2 10.5,-279.2"/>
<polygon fill="none" stroke="#000000" points="10.5,-279.2 10.5,-302.2 189.5,-302.2 189.5,-279.2 10.5,-279.2"/>
<text text-anchor="start" x="15.5" y="-287.8" font-family="Helvetica,sans-Serif" font-weight="bold" font-size="11.00" fill="#000000">parametres</text>
<text text-anchor="start" x="154.5437" y="-287.3" font-family="Helvetica,sans-Serif" font-size="11.00" fill="#000000">[table]</text>
<polygon fill="none" stroke="#000000" points="10.5,-257.2 10.5,-279.2 99.5,-279.2 99.5,-257.2 10.5,-257.2"/>
<image xlink:href="../../images/primaryKeys.png" width="11px" height="12px" preserveAspectRatio="xMinYMin meet" x="15.5" y="-274.2"/>
<text text-anchor="start" x="30.5" y="-264.3" font-family="Helvetica,sans-Serif" font-size="11.00" fill="#000000">id</text>
<polygon fill="none" stroke="#000000" points="99.5,-257.2 99.5,-279.2 189.5,-279.2 189.5,-257.2 99.5,-257.2"/>
<text text-anchor="start" x="102.5" y="-264.9" font-family="Helvetica,sans-Serif" font-size="11.00" fill="#000000">serial[10]</text>
<polygon fill="none" stroke="#000000" points="10.5,-235.2 10.5,-257.2 99.5,-257.2 99.5,-235.2 10.5,-235.2"/>
<text text-anchor="start" x="30.5" y="-242.3" font-family="Helvetica,sans-Serif" font-size="11.00" fill="#000000">parametre</text>
<polygon fill="none" stroke="#000000" points="99.5,-235.2 99.5,-257.2 189.5,-257.2 189.5,-235.2 99.5,-235.2"/>
<text text-anchor="start" x="102.0042" y="-242.9" font-family="Helvetica,sans-Serif" font-size="11.00" fill="#000000">text[2147483647]</text>
<polygon fill="none" stroke="#000000" points="10.5,-213.2 10.5,-235.2 99.5,-235.2 99.5,-213.2 10.5,-213.2"/>
<text text-anchor="start" x="30.5" y="-220.3" font-family="Helvetica,sans-Serif" font-size="11.00" fill="#000000">steady</text>
<polygon fill="none" stroke="#000000" points="99.5,-213.2 99.5,-235.2 189.5,-235.2 189.5,-213.2 99.5,-213.2"/>
<text text-anchor="start" x="102.0042" y="-220.9" font-family="Helvetica,sans-Serif" font-size="11.00" fill="#000000">text[2147483647]</text>
<polygon fill="none" stroke="#000000" points="10.5,-191.2 10.5,-213.2 99.5,-213.2 99.5,-191.2 10.5,-191.2"/>
<text text-anchor="start" x="30.5" y="-198.3" font-family="Helvetica,sans-Serif" font-size="11.00" fill="#000000">unsteady</text>
<polygon fill="none" stroke="#000000" points="99.5,-191.2 99.5,-213.2 189.5,-213.2 189.5,-191.2 99.5,-191.2"/>
<text text-anchor="start" x="102.0042" y="-198.9" font-family="Helvetica,sans-Serif" font-size="11.00" fill="#000000">text[2147483647]</text>
<polygon fill="none" stroke="#000000" points="10.5,-169.2 10.5,-191.2 99.5,-191.2 99.5,-169.2 10.5,-169.2"/>
<text text-anchor="start" x="30.5" y="-176.3" font-family="Helvetica,sans-Serif" font-size="11.00" fill="#000000">transcritical</text>
<polygon fill="none" stroke="#000000" points="99.5,-169.2 99.5,-191.2 189.5,-191.2 189.5,-169.2 99.5,-169.2"/>
<text text-anchor="start" x="102.0042" y="-176.9" font-family="Helvetica,sans-Serif" font-size="11.00" fill="#000000">text[2147483647]</text>
<polygon fill="none" stroke="#000000" points="10.5,-147.2 10.5,-169.2 99.5,-169.2 99.5,-147.2 10.5,-147.2"/>
<text text-anchor="start" x="30.5" y="-154.3" font-family="Helvetica,sans-Serif" font-size="11.00" fill="#000000">libelle</text>
<polygon fill="none" stroke="#000000" points="99.5,-147.2 99.5,-169.2 189.5,-169.2 189.5,-147.2 99.5,-147.2"/>
<text text-anchor="start" x="102.0042" y="-154.9" font-family="Helvetica,sans-Serif" font-size="11.00" fill="#000000">text[2147483647]</text>
<polygon fill="none" stroke="#000000" points="10.5,-125.2 10.5,-147.2 99.5,-147.2 99.5,-125.2 10.5,-125.2"/>
<text text-anchor="start" x="30.5" y="-132.3" font-family="Helvetica,sans-Serif" font-size="11.00" fill="#000000">balise1</text>
<polygon fill="none" stroke="#000000" points="99.5,-125.2 99.5,-147.2 189.5,-147.2 189.5,-125.2 99.5,-125.2"/>
<text text-anchor="start" x="102.0042" y="-132.9" font-family="Helvetica,sans-Serif" font-size="11.00" fill="#000000">text[2147483647]</text>
<polygon fill="none" stroke="#000000" points="10.5,-103.2 10.5,-125.2 99.5,-125.2 99.5,-103.2 10.5,-103.2"/>
<text text-anchor="start" x="30.5" y="-110.3" font-family="Helvetica,sans-Serif" font-size="11.00" fill="#000000">balise2</text>
<polygon fill="none" stroke="#000000" points="99.5,-103.2 99.5,-125.2 189.5,-125.2 189.5,-103.2 99.5,-103.2"/>
<text text-anchor="start" x="102.0042" y="-110.9" font-family="Helvetica,sans-Serif" font-size="11.00" fill="#000000">text[2147483647]</text>
<polygon fill="none" stroke="#000000" points="10.5,-81.2 10.5,-103.2 99.5,-103.2 99.5,-81.2 10.5,-81.2"/>
<text text-anchor="start" x="30.5" y="-88.3" font-family="Helvetica,sans-Serif" font-size="11.00" fill="#000000">gui</text>
<polygon fill="none" stroke="#000000" points="99.5,-81.2 99.5,-103.2 189.5,-103.2 189.5,-81.2 99.5,-81.2"/>
<text text-anchor="start" x="102.0042" y="-88.9" font-family="Helvetica,sans-Serif" font-size="11.00" fill="#000000">text[2147483647]</text>
<polygon fill="none" stroke="#000000" points="10.5,-59.2 10.5,-81.2 99.5,-81.2 99.5,-59.2 10.5,-59.2"/>
<text text-anchor="start" x="30.5" y="-66.3" font-family="Helvetica,sans-Serif" font-size="11.00" fill="#000000">gui_type</text>
<polygon fill="none" stroke="#000000" points="99.5,-59.2 99.5,-81.2 189.5,-81.2 189.5,-59.2 99.5,-59.2"/>
<text text-anchor="start" x="102.0042" y="-66.9" font-family="Helvetica,sans-Serif" font-size="11.00" fill="#000000">text[2147483647]</text>
<polygon fill="#ffffff" stroke="transparent" points="10.5,-40.2 10.5,-59.2 40.5,-59.2 40.5,-40.2 10.5,-40.2"/>
<polygon fill="none" stroke="#000000" points="10.5,-40.2 10.5,-59.2 40.5,-59.2 40.5,-40.2 10.5,-40.2"/>
<text text-anchor="start" x="13.5" y="-46.3" font-family="Helvetica,sans-Serif" font-size="11.00" fill="#000000">&lt; 0</text>
<polygon fill="#ffffff" stroke="transparent" points="40.5,-40.2 40.5,-59.2 99.5,-59.2 99.5,-40.2 40.5,-40.2"/>
<polygon fill="none" stroke="#000000" points="40.5,-40.2 40.5,-59.2 99.5,-59.2 99.5,-40.2 40.5,-40.2"/>
<text text-anchor="start" x="51.8807" y="-46.3" font-family="Helvetica,sans-Serif" font-size="11.00" fill="#000000">100 rows</text>
<polygon fill="#ffffff" stroke="transparent" points="99.5,-40.2 99.5,-59.2 189.5,-59.2 189.5,-40.2 99.5,-40.2"/>
<polygon fill="none" stroke="#000000" points="99.5,-40.2 99.5,-59.2 189.5,-59.2 189.5,-40.2 99.5,-40.2"/>
<text text-anchor="start" x="170.9053" y="-46.3" font-family="Helvetica,sans-Serif" font-size="11.00" fill="#000000">0 &gt;</text>
<polygon fill="none" stroke="#000000" stroke-width="2" points="9,-39.2 9,-303.2 190,-303.2 190,-39.2 9,-39.2"/>
</a>
</g>
</g>
</g>
</svg>
