<?xml version="1.0" encoding="UTF-8" standalone="no"?>
<!DOCTYPE svg PUBLIC "-//W3C//DTD SVG 1.1//EN"
 "http://www.w3.org/Graphics/SVG/1.1/DTD/svg11.dtd">
<!-- Generated by graphviz version 2.40.1 (20161225.0304)
 -->
<!-- Title: oneDegreeRelationshipsDiagramImplied Pages: 1 -->
<svg width="369pt" height="470pt"
 viewBox="0.00 0.00 369.00 470.20" xmlns="http://www.w3.org/2000/svg" xmlns:xlink="http://www.w3.org/1999/xlink">
<g id="graph0" class="graph" transform="scale(1 1) rotate(0) translate(4 466.2)">
<title>oneDegreeRelationshipsDiagramImplied</title>
<polygon fill="#ffffff" stroke="transparent" points="-4,4 -4,-466.2 365,-466.2 365,4 -4,4"/>
<text text-anchor="middle" x="72.4936" y="-7.3" font-family="Helvetica,sans-Serif" font-size="11.00" fill="#000000">Generated by SchemaSpy</text>
<!-- profiles -->
<g id="node1" class="node">
<title>profiles</title>
<g id="a_node1"><a xlink:href="../../tables/profiles.html" xlink:title="profiles" target="_top">
<polygon fill="#ffffff" stroke="transparent" points="134,-38.2 134,-458.2 353,-458.2 353,-38.2 134,-38.2"/>
<polygon fill="#f5f5f5" stroke="transparent" points="136.5,-433.2 136.5,-456.2 351.5,-456.2 351.5,-433.2 136.5,-433.2"/>
<polygon fill="none" stroke="#000000" points="136.5,-433.2 136.5,-456.2 351.5,-456.2 351.5,-433.2 136.5,-433.2"/>
<text text-anchor="start" x="141.5" y="-441.8" font-family="Helvetica,sans-Serif" font-weight="bold" font-size="11.00" fill="#000000">profiles</text>
<text text-anchor="start" x="316.5437" y="-441.3" font-family="Helvetica,sans-Serif" font-size="11.00" fill="#000000">[table]</text>
<polygon fill="#ffffff" stroke="transparent" points="136.5,-411.2 136.5,-433.2 232.5,-433.2 232.5,-411.2 136.5,-411.2"/>
<polygon fill="none" stroke="#000000" points="136.5,-411.2 136.5,-433.2 232.5,-433.2 232.5,-411.2 136.5,-411.2"/>
<text text-anchor="start" x="156.5" y="-418.3" font-family="Helvetica,sans-Serif" font-size="11.00" fill="#000000">geom</text>
<polygon fill="none" stroke="#000000" points="232.5,-411.2 232.5,-433.2 351.5,-433.2 351.5,-411.2 232.5,-411.2"/>
<text text-anchor="start" x="235.4485" y="-418.9" font-family="Helvetica,sans-Serif" font-size="11.00" fill="#000000">geometry[2147483647]</text>
<polygon fill="none" stroke="#000000" points="136.5,-389.2 136.5,-411.2 232.5,-411.2 232.5,-389.2 136.5,-389.2"/>
<image xlink:href="../../images/primaryKeys.png" width="11px" height="12px" preserveAspectRatio="xMinYMin meet" x="141.5" y="-406.2"/>
<text text-anchor="start" x="156.5" y="-396.3" font-family="Helvetica,sans-Serif" font-size="11.00" fill="#000000">gid</text>
<polygon fill="none" stroke="#000000" points="232.5,-389.2 232.5,-411.2 351.5,-411.2 351.5,-389.2 232.5,-389.2"/>
<text text-anchor="start" x="235.5" y="-396.9" font-family="Helvetica,sans-Serif" font-size="11.00" fill="#000000">serial[10]</text>
<polygon fill="#ffffff" stroke="transparent" points="136.5,-367.2 136.5,-389.2 232.5,-389.2 232.5,-367.2 136.5,-367.2"/>
<polygon fill="none" stroke="#000000" points="136.5,-367.2 136.5,-389.2 232.5,-389.2 232.5,-367.2 136.5,-367.2"/>
<image xlink:href="../../images/foreignKeys.png" width="11px" height="12px" preserveAspectRatio="xMinYMin meet" x="141.5" y="-384.2"/>
<text text-anchor="start" x="156.5" y="-374.3" font-family="Helvetica,sans-Serif" font-size="11.00" fill="#000000">name</text>
<polygon fill="none" stroke="#000000" points="232.5,-367.2 232.5,-389.2 351.5,-389.2 351.5,-367.2 232.5,-367.2"/>
<text text-anchor="start" x="235.5" y="-374.9" font-family="Helvetica,sans-Serif" font-size="11.00" fill="#000000">varchar[30]</text>
<polygon fill="none" stroke="#000000" points="136.5,-345.2 136.5,-367.2 232.5,-367.2 232.5,-345.2 136.5,-345.2"/>
<text text-anchor="start" x="156.5" y="-352.3" font-family="Helvetica,sans-Serif" font-size="11.00" fill="#000000">branchnum</text>
<polygon fill="none" stroke="#000000" points="232.5,-345.2 232.5,-367.2 351.5,-367.2 351.5,-345.2 232.5,-345.2"/>
<text text-anchor="start" x="235.5" y="-352.9" font-family="Helvetica,sans-Serif" font-size="11.00" fill="#000000">int4[10]</text>
<polygon fill="none" stroke="#000000" points="136.5,-323.2 136.5,-345.2 232.5,-345.2 232.5,-323.2 136.5,-323.2"/>
<text text-anchor="start" x="156.5" y="-330.3" font-family="Helvetica,sans-Serif" font-size="11.00" fill="#000000">abscissa</text>
<polygon fill="none" stroke="#000000" points="232.5,-323.2 232.5,-345.2 351.5,-345.2 351.5,-323.2 232.5,-323.2"/>
<text text-anchor="start" x="235.5" y="-330.9" font-family="Helvetica,sans-Serif" font-size="11.00" fill="#000000">float8[17,17]</text>
<polygon fill="none" stroke="#000000" points="136.5,-301.2 136.5,-323.2 232.5,-323.2 232.5,-301.2 136.5,-301.2"/>
<text text-anchor="start" x="156.5" y="-308.3" font-family="Helvetica,sans-Serif" font-size="11.00" fill="#000000">x</text>
<polygon fill="none" stroke="#000000" points="232.5,-301.2 232.5,-323.2 351.5,-323.2 351.5,-301.2 232.5,-301.2"/>
<text text-anchor="start" x="235.5" y="-308.9" font-family="Helvetica,sans-Serif" font-size="11.00" fill="#000000">text[2147483647]</text>
<polygon fill="none" stroke="#000000" points="136.5,-279.2 136.5,-301.2 232.5,-301.2 232.5,-279.2 136.5,-279.2"/>
<text text-anchor="start" x="156.5" y="-286.3" font-family="Helvetica,sans-Serif" font-size="11.00" fill="#000000">z</text>
<polygon fill="none" stroke="#000000" points="232.5,-279.2 232.5,-301.2 351.5,-301.2 351.5,-279.2 232.5,-279.2"/>
<text text-anchor="start" x="235.5" y="-286.9" font-family="Helvetica,sans-Serif" font-size="11.00" fill="#000000">text[2147483647]</text>
<polygon fill="none" stroke="#000000" points="136.5,-257.2 136.5,-279.2 232.5,-279.2 232.5,-257.2 136.5,-257.2"/>
<text text-anchor="start" x="156.5" y="-264.3" font-family="Helvetica,sans-Serif" font-size="11.00" fill="#000000">leftminbed</text>
<polygon fill="none" stroke="#000000" points="232.5,-257.2 232.5,-279.2 351.5,-279.2 351.5,-257.2 232.5,-257.2"/>
<text text-anchor="start" x="235.5" y="-264.9" font-family="Helvetica,sans-Serif" font-size="11.00" fill="#000000">float8[17,17]</text>
<polygon fill="none" stroke="#000000" points="136.5,-235.2 136.5,-257.2 232.5,-257.2 232.5,-235.2 136.5,-235.2"/>
<text text-anchor="start" x="156.5" y="-242.3" font-family="Helvetica,sans-Serif" font-size="11.00" fill="#000000">rightminbed</text>
<polygon fill="none" stroke="#000000" points="232.5,-235.2 232.5,-257.2 351.5,-257.2 351.5,-235.2 232.5,-235.2"/>
<text text-anchor="start" x="235.5" y="-242.9" font-family="Helvetica,sans-Serif" font-size="11.00" fill="#000000">float8[17,17]</text>
<polygon fill="none" stroke="#000000" points="136.5,-213.2 136.5,-235.2 232.5,-235.2 232.5,-213.2 136.5,-213.2"/>
<text text-anchor="start" x="156.5" y="-220.3" font-family="Helvetica,sans-Serif" font-size="11.00" fill="#000000">leftstock</text>
<polygon fill="none" stroke="#000000" points="232.5,-213.2 232.5,-235.2 351.5,-235.2 351.5,-213.2 232.5,-213.2"/>
<text text-anchor="start" x="235.5" y="-220.9" font-family="Helvetica,sans-Serif" font-size="11.00" fill="#000000">float8[17,17]</text>
<polygon fill="none" stroke="#000000" points="136.5,-191.2 136.5,-213.2 232.5,-213.2 232.5,-191.2 136.5,-191.2"/>
<text text-anchor="start" x="156.5" y="-198.3" font-family="Helvetica,sans-Serif" font-size="11.00" fill="#000000">rightstock</text>
<polygon fill="none" stroke="#000000" points="232.5,-191.2 232.5,-213.2 351.5,-213.2 351.5,-191.2 232.5,-191.2"/>
<text text-anchor="start" x="235.5" y="-198.9" font-family="Helvetica,sans-Serif" font-size="11.00" fill="#000000">float8[17,17]</text>
<polygon fill="none" stroke="#000000" points="136.5,-169.2 136.5,-191.2 232.5,-191.2 232.5,-169.2 136.5,-169.2"/>
<text text-anchor="start" x="156.5" y="-176.3" font-family="Helvetica,sans-Serif" font-size="11.00" fill="#000000">xmnt</text>
<polygon fill="none" stroke="#000000" points="232.5,-169.2 232.5,-191.2 351.5,-191.2 351.5,-169.2 232.5,-169.2"/>
<text text-anchor="start" x="235.5" y="-176.9" font-family="Helvetica,sans-Serif" font-size="11.00" fill="#000000">text[2147483647]</text>
<polygon fill="none" stroke="#000000" points="136.5,-147.2 136.5,-169.2 232.5,-169.2 232.5,-147.2 136.5,-147.2"/>
<text text-anchor="start" x="156.5" y="-154.3" font-family="Helvetica,sans-Serif" font-size="11.00" fill="#000000">zmnt</text>
<polygon fill="none" stroke="#000000" points="232.5,-147.2 232.5,-169.2 351.5,-169.2 351.5,-147.2 232.5,-147.2"/>
<text text-anchor="start" x="235.5" y="-154.9" font-family="Helvetica,sans-Serif" font-size="11.00" fill="#000000">text[2147483647]</text>
<polygon fill="none" stroke="#000000" points="136.5,-125.2 136.5,-147.2 232.5,-147.2 232.5,-125.2 136.5,-125.2"/>
<text text-anchor="start" x="156.5" y="-132.3" font-family="Helvetica,sans-Serif" font-size="11.00" fill="#000000">active</text>
<polygon fill="none" stroke="#000000" points="232.5,-125.2 232.5,-147.2 351.5,-147.2 351.5,-125.2 232.5,-125.2"/>
<text text-anchor="start" x="235.5" y="-132.9" font-family="Helvetica,sans-Serif" font-size="11.00" fill="#000000">bool[1]</text>
<polygon fill="none" stroke="#000000" points="136.5,-103.2 136.5,-125.2 232.5,-125.2 232.5,-103.2 136.5,-103.2"/>
<text text-anchor="start" x="156.5" y="-110.3" font-family="Helvetica,sans-Serif" font-size="11.00" fill="#000000">struct</text>
<polygon fill="none" stroke="#000000" points="232.5,-103.2 232.5,-125.2 351.5,-125.2 351.5,-103.2 232.5,-103.2"/>
<text text-anchor="start" x="235.5" y="-110.9" font-family="Helvetica,sans-Serif" font-size="11.00" fill="#000000">int4[10]</text>
<polygon fill="none" stroke="#000000" points="136.5,-81.2 136.5,-103.2 232.5,-103.2 232.5,-81.2 136.5,-81.2"/>
<text text-anchor="start" x="156.5" y="-88.3" font-family="Helvetica,sans-Serif" font-size="11.00" fill="#000000">zleftminbed</text>
<polygon fill="none" stroke="#000000" points="232.5,-81.2 232.5,-103.2 351.5,-103.2 351.5,-81.2 232.5,-81.2"/>
<text text-anchor="start" x="235.5" y="-88.9" font-family="Helvetica,sans-Serif" font-size="11.00" fill="#000000">float8[17,17]</text>
<polygon fill="none" stroke="#000000" points="136.5,-59.2 136.5,-81.2 232.5,-81.2 232.5,-59.2 136.5,-59.2"/>
<text text-anchor="start" x="156.5" y="-66.3" font-family="Helvetica,sans-Serif" font-size="11.00" fill="#000000">zrightminbed</text>
<polygon fill="none" stroke="#000000" points="232.5,-59.2 232.5,-81.2 351.5,-81.2 351.5,-59.2 232.5,-59.2"/>
<text text-anchor="start" x="235.5" y="-66.9" font-family="Helvetica,sans-Serif" font-size="11.00" fill="#000000">float8[17,17]</text>
<polygon fill="#ffffff" stroke="transparent" points="136.5,-40.2 136.5,-59.2 188.5,-59.2 188.5,-40.2 136.5,-40.2"/>
<polygon fill="none" stroke="#000000" points="136.5,-40.2 136.5,-59.2 188.5,-59.2 188.5,-40.2 136.5,-40.2"/>
<text text-anchor="start" x="139.5" y="-46.3" font-family="Helvetica,sans-Serif" font-size="11.00" fill="#000000">&lt; 1</text>
<polygon fill="#ffffff" stroke="transparent" points="188.5,-40.2 188.5,-59.2 232.5,-59.2 232.5,-40.2 188.5,-40.2"/>
<polygon fill="none" stroke="#000000" points="188.5,-40.2 188.5,-59.2 232.5,-59.2 232.5,-40.2 188.5,-40.2"/>
<text text-anchor="start" x="223.3862" y="-46.3" font-family="Helvetica,sans-Serif" font-size="11.00" fill="#000000"> &#160;</text>
<polygon fill="#ffffff" stroke="transparent" points="232.5,-40.2 232.5,-59.2 351.5,-59.2 351.5,-40.2 232.5,-40.2"/>
<polygon fill="none" stroke="#000000" points="232.5,-40.2 232.5,-59.2 351.5,-59.2 351.5,-40.2 232.5,-40.2"/>
<text text-anchor="start" x="332.9053" y="-46.3" font-family="Helvetica,sans-Serif" font-size="11.00" fill="#000000">0 &gt;</text>
<polygon fill="none" stroke="#000000" stroke-width="2" points="135,-39.2 135,-457.2 352,-457.2 352,-39.2 135,-39.2"/>
</a>
</g>
</g>
<!-- events -->
<g id="node2" class="node">
<title>events</title>
<g id="a_node2"><a xlink:href="../../tables/events.html" xlink:title="events" target="_top">
<polygon fill="#ffffff" stroke="transparent" points="8,-329.7 8,-412.7 85,-412.7 85,-329.7 8,-329.7"/>
<polygon fill="#f5f5f5" stroke="transparent" points="8.5,-389.2 8.5,-412.2 85.5,-412.2 85.5,-389.2 8.5,-389.2"/>
<polygon fill="none" stroke="#000000" points="8.5,-389.2 8.5,-412.2 85.5,-412.2 85.5,-389.2 8.5,-389.2"/>
<text text-anchor="start" x="13.5" y="-397.8" font-family="Helvetica,sans-Serif" font-weight="bold" font-size="11.00" fill="#000000">events</text>
<text text-anchor="start" x="51.0219" y="-397.3" font-family="Helvetica,sans-Serif" font-size="11.00" fill="#000000">[table]</text>
<polygon fill="none" stroke="#000000" points="8.5,-367.2 8.5,-389.2 85.5,-389.2 85.5,-367.2 8.5,-367.2"/>
<image xlink:href="../../images/primaryKeys.png" width="11px" height="12px" preserveAspectRatio="xMinYMin meet" x="13.5" y="-384.2"/>
<text text-anchor="start" x="31.5" y="-374.3" font-family="Helvetica,sans-Serif" font-size="11.00" fill="#000000">name</text>
<polygon fill="none" stroke="#000000" points="8.5,-348.2 8.5,-367.2 85.5,-367.2 85.5,-348.2 8.5,-348.2"/>
<text text-anchor="start" x="11.5" y="-354.3" font-family="Helvetica,sans-Serif" font-size="11.00" fill="#000000">...</text>
<polygon fill="#ffffff" stroke="transparent" points="8.5,-329.2 8.5,-348.2 33.5,-348.2 33.5,-329.2 8.5,-329.2"/>
<polygon fill="none" stroke="#000000" points="8.5,-329.2 8.5,-348.2 33.5,-348.2 33.5,-329.2 8.5,-329.2"/>
<text text-anchor="start" x="11.5" y="-335.3" font-family="Helvetica,sans-Serif" font-size="11.00" fill="#000000"> &#160;</text>
<polygon fill="#ffffff" stroke="transparent" points="33.5,-329.2 33.5,-348.2 51.5,-348.2 51.5,-329.2 33.5,-329.2"/>
<polygon fill="none" stroke="#000000" points="33.5,-329.2 33.5,-348.2 51.5,-348.2 51.5,-329.2 33.5,-329.2"/>
<text text-anchor="start" x="42.3862" y="-335.3" font-family="Helvetica,sans-Serif" font-size="11.00" fill="#000000"> &#160;</text>
<polygon fill="#ffffff" stroke="transparent" points="51.5,-329.2 51.5,-348.2 85.5,-348.2 85.5,-329.2 51.5,-329.2"/>
<polygon fill="none" stroke="#000000" points="51.5,-329.2 51.5,-348.2 85.5,-348.2 85.5,-329.2 51.5,-329.2"/>
<text text-anchor="start" x="60.7904" y="-335.3" font-family="Helvetica,sans-Serif" font-size="11.00" fill="#000000">16 &gt;</text>
</a>
</g>
</g>
<!-- profiles&#45;&gt;events -->
<g id="edge1" class="edge">
<title>profiles:w&#45;&gt;events:e</title>
<path fill="none" stroke="#000000" stroke-dasharray="5,2" d="M125.7307,-378.2C111.248,-378.2 104.0938,-378.2 85.5,-378.2"/>
<polygon fill="#000000" stroke="#000000" points="135.7,-374.2 135.7,-382.2 134.1,-382.2 134.1,-374.2 135.7,-374.2"/>
<polyline fill="none" stroke="#000000" points="136.5,-378.2 132.5,-378.2 "/>
<ellipse fill="none" stroke="#000000" cx="129.3" cy="-378.2001" rx="3.2" ry="3.2"/>
</g>
</g>
</svg>
