<?xml version="1.0" encoding="UTF-8" standalone="no"?>
<!DOCTYPE svg PUBLIC "-//W3C//DTD SVG 1.1//EN"
 "http://www.w3.org/Graphics/SVG/1.1/DTD/svg11.dtd">
<!-- Generated by graphviz version 2.40.1 (20161225.0304)
 -->
<!-- Title: oneDegreeRelationshipsDiagram Pages: 1 -->
<svg width="158pt" height="187pt"
 viewBox="0.00 0.00 158.00 187.20" xmlns="http://www.w3.org/2000/svg" xmlns:xlink="http://www.w3.org/1999/xlink">
<g id="graph0" class="graph" transform="scale(1 1) rotate(0) translate(4 183.2)">
<title>oneDegreeRelationshipsDiagram</title>
<polygon fill="#ffffff" stroke="transparent" points="-4,4 -4,-183.2 154,-183.2 154,4 -4,4"/>
<text text-anchor="middle" x="72.4936" y="-7.3" font-family="Helvetica,sans-Serif" font-size="11.00" fill="#000000">Generated by SchemaSpy</text>
<!-- results -->
<g id="node1" class="node">
<title>results</title>
<g id="a_node1"><a xlink:href="../../tables/results.html" xlink:title="results" target="_top">
<polygon fill="#ffffff" stroke="transparent" points="8,-38.2 8,-175.2 142,-175.2 142,-38.2 8,-38.2"/>
<polygon fill="#f5f5f5" stroke="transparent" points="10,-149.7 10,-172.7 140,-172.7 140,-149.7 10,-149.7"/>
<polygon fill="none" stroke="#000000" points="10,-149.7 10,-172.7 140,-172.7 140,-149.7 10,-149.7"/>
<text text-anchor="start" x="15" y="-158.3" font-family="Helvetica,sans-Serif" font-weight="bold" font-size="11.00" fill="#000000">results</text>
<text text-anchor="start" x="106.8895" y="-157.8" font-family="Helvetica,sans-Serif" font-size="11.00" fill="#000000">[view]</text>
<polygon fill="none" stroke="#000000" points="10,-127.7 10,-149.7 74,-149.7 74,-127.7 10,-127.7"/>
<text text-anchor="start" x="30" y="-134.8" font-family="Helvetica,sans-Serif" font-size="11.00" fill="#000000">id_runs</text>
<polygon fill="none" stroke="#000000" points="74,-127.7 74,-149.7 140,-149.7 140,-127.7 74,-127.7"/>
<text text-anchor="start" x="77" y="-135.4" font-family="Helvetica,sans-Serif" font-size="11.00" fill="#000000">int4[10]</text>
<polygon fill="none" stroke="#000000" points="10,-105.7 10,-127.7 74,-127.7 74,-105.7 10,-105.7"/>
<text text-anchor="start" x="30" y="-112.8" font-family="Helvetica,sans-Serif" font-size="11.00" fill="#000000">time</text>
<polygon fill="none" stroke="#000000" points="74,-105.7 74,-127.7 140,-127.7 140,-105.7 74,-105.7"/>
<text text-anchor="start" x="76.7352" y="-113.4" font-family="Helvetica,sans-Serif" font-size="11.00" fill="#000000">float8[17,17]</text>
<polygon fill="none" stroke="#000000" points="10,-83.7 10,-105.7 74,-105.7 74,-83.7 10,-83.7"/>
<text text-anchor="start" x="30" y="-90.8" font-family="Helvetica,sans-Serif" font-size="11.00" fill="#000000">pknum</text>
<polygon fill="none" stroke="#000000" points="74,-83.7 74,-105.7 140,-105.7 140,-83.7 74,-83.7"/>
<text text-anchor="start" x="76.7352" y="-91.4" font-family="Helvetica,sans-Serif" font-size="11.00" fill="#000000">float8[17,17]</text>
<polygon fill="none" stroke="#000000" points="10,-61.7 10,-83.7 74,-83.7 74,-61.7 10,-61.7"/>
<text text-anchor="start" x="30" y="-68.8" font-family="Helvetica,sans-Serif" font-size="11.00" fill="#000000">var</text>
<polygon fill="none" stroke="#000000" points="74,-61.7 74,-83.7 140,-83.7 140,-61.7 74,-61.7"/>
<text text-anchor="start" x="77" y="-69.4" font-family="Helvetica,sans-Serif" font-size="11.00" fill="#000000">int4[10]</text>
<polygon fill="none" stroke="#000000" points="10,-39.7 10,-61.7 74,-61.7 74,-39.7 10,-39.7"/>
<text text-anchor="start" x="30" y="-46.8" font-family="Helvetica,sans-Serif" font-size="11.00" fill="#000000">val</text>
<polygon fill="none" stroke="#000000" points="74,-39.7 74,-61.7 140,-61.7 140,-39.7 74,-39.7"/>
<text text-anchor="start" x="76.7352" y="-47.4" font-family="Helvetica,sans-Serif" font-size="11.00" fill="#000000">float8[17,17]</text>
<polygon fill="none" stroke="#000000" stroke-width="2" points="9,-39.2 9,-174.2 141,-174.2 141,-39.2 9,-39.2"/>
</a>
</g>
</g>
</g>
</svg>
