<?xml version="1.0" encoding="UTF-8" standalone="no"?>
<!DOCTYPE svg PUBLIC "-//W3C//DTD SVG 1.1//EN"
 "http://www.w3.org/Graphics/SVG/1.1/DTD/svg11.dtd">
<!-- Generated by graphviz version 2.40.1 (20161225.0304)
 -->
<!-- Title: oneDegreeRelationshipsDiagram Pages: 1 -->
<svg width="199pt" height="294pt"
 viewBox="0.00 0.00 199.00 294.20" xmlns="http://www.w3.org/2000/svg" xmlns:xlink="http://www.w3.org/1999/xlink">
<g id="graph0" class="graph" transform="scale(1 1) rotate(0) translate(4 290.2)">
<title>oneDegreeRelationshipsDiagram</title>
<polygon fill="#ffffff" stroke="transparent" points="-4,4 -4,-290.2 195,-290.2 195,4 -4,4"/>
<text text-anchor="middle" x="72.4936" y="-7.3" font-family="Helvetica,sans-Serif" font-size="11.00" fill="#000000">Generated by SchemaSpy</text>
<!-- runs -->
<g id="node1" class="node">
<title>runs</title>
<g id="a_node1"><a xlink:href="../../tables/runs.html" xlink:title="runs" target="_top">
<polygon fill="#ffffff" stroke="transparent" points="8,-38.2 8,-282.2 183,-282.2 183,-38.2 8,-38.2"/>
<polygon fill="#f5f5f5" stroke="transparent" points="10.5,-257.2 10.5,-280.2 181.5,-280.2 181.5,-257.2 10.5,-257.2"/>
<polygon fill="none" stroke="#000000" points="10.5,-257.2 10.5,-280.2 181.5,-280.2 181.5,-257.2 10.5,-257.2"/>
<text text-anchor="start" x="15.5" y="-265.8" font-family="Helvetica,sans-Serif" font-weight="bold" font-size="11.00" fill="#000000">runs</text>
<text text-anchor="start" x="146.5437" y="-265.3" font-family="Helvetica,sans-Serif" font-size="11.00" fill="#000000">[table]</text>
<polygon fill="none" stroke="#000000" points="10.5,-235.2 10.5,-257.2 91.5,-257.2 91.5,-235.2 10.5,-235.2"/>
<image xlink:href="../../images/primaryKeys.png" width="11px" height="12px" preserveAspectRatio="xMinYMin meet" x="15.5" y="-252.2"/>
<text text-anchor="start" x="30.5" y="-242.3" font-family="Helvetica,sans-Serif" font-size="11.00" fill="#000000">id</text>
<polygon fill="none" stroke="#000000" points="91.5,-235.2 91.5,-257.2 181.5,-257.2 181.5,-235.2 91.5,-235.2"/>
<text text-anchor="start" x="94.5" y="-242.9" font-family="Helvetica,sans-Serif" font-size="11.00" fill="#000000">serial[10]</text>
<polygon fill="none" stroke="#000000" points="10.5,-213.2 10.5,-235.2 91.5,-235.2 91.5,-213.2 10.5,-213.2"/>
<text text-anchor="start" x="30.5" y="-220.3" font-family="Helvetica,sans-Serif" font-size="11.00" fill="#000000">run</text>
<polygon fill="none" stroke="#000000" points="91.5,-213.2 91.5,-235.2 181.5,-235.2 181.5,-213.2 91.5,-213.2"/>
<text text-anchor="start" x="94.5" y="-220.9" font-family="Helvetica,sans-Serif" font-size="11.00" fill="#000000">varchar[30]</text>
<polygon fill="none" stroke="#000000" points="10.5,-191.2 10.5,-213.2 91.5,-213.2 91.5,-191.2 10.5,-191.2"/>
<text text-anchor="start" x="30.5" y="-198.3" font-family="Helvetica,sans-Serif" font-size="11.00" fill="#000000">scenario</text>
<polygon fill="none" stroke="#000000" points="91.5,-191.2 91.5,-213.2 181.5,-213.2 181.5,-191.2 91.5,-191.2"/>
<text text-anchor="start" x="94.5" y="-198.9" font-family="Helvetica,sans-Serif" font-size="11.00" fill="#000000">varchar[30]</text>
<polygon fill="none" stroke="#000000" points="10.5,-169.2 10.5,-191.2 91.5,-191.2 91.5,-169.2 10.5,-169.2"/>
<text text-anchor="start" x="30.5" y="-176.3" font-family="Helvetica,sans-Serif" font-size="11.00" fill="#000000">date</text>
<polygon fill="none" stroke="#000000" points="91.5,-169.2 91.5,-191.2 181.5,-191.2 181.5,-169.2 91.5,-169.2"/>
<text text-anchor="start" x="94.5" y="-176.9" font-family="Helvetica,sans-Serif" font-size="11.00" fill="#000000">timestamp[29,6]</text>
<polygon fill="none" stroke="#000000" points="10.5,-147.2 10.5,-169.2 91.5,-169.2 91.5,-147.2 10.5,-147.2"/>
<text text-anchor="start" x="30.5" y="-154.3" font-family="Helvetica,sans-Serif" font-size="11.00" fill="#000000">init_date</text>
<polygon fill="none" stroke="#000000" points="91.5,-147.2 91.5,-169.2 181.5,-169.2 181.5,-147.2 91.5,-147.2"/>
<text text-anchor="start" x="94.5" y="-154.9" font-family="Helvetica,sans-Serif" font-size="11.00" fill="#000000">timestamp[29,6]</text>
<polygon fill="none" stroke="#000000" points="10.5,-125.2 10.5,-147.2 91.5,-147.2 91.5,-125.2 10.5,-125.2"/>
<text text-anchor="start" x="30.5" y="-132.3" font-family="Helvetica,sans-Serif" font-size="11.00" fill="#000000">t</text>
<polygon fill="none" stroke="#000000" points="91.5,-125.2 91.5,-147.2 181.5,-147.2 181.5,-125.2 91.5,-125.2"/>
<text text-anchor="start" x="94.0042" y="-132.9" font-family="Helvetica,sans-Serif" font-size="11.00" fill="#000000">text[2147483647]</text>
<polygon fill="none" stroke="#000000" points="10.5,-103.2 10.5,-125.2 91.5,-125.2 91.5,-103.2 10.5,-103.2"/>
<text text-anchor="start" x="30.5" y="-110.3" font-family="Helvetica,sans-Serif" font-size="11.00" fill="#000000">pk</text>
<polygon fill="none" stroke="#000000" points="91.5,-103.2 91.5,-125.2 181.5,-125.2 181.5,-103.2 91.5,-103.2"/>
<text text-anchor="start" x="94.0042" y="-110.9" font-family="Helvetica,sans-Serif" font-size="11.00" fill="#000000">text[2147483647]</text>
<polygon fill="none" stroke="#000000" points="10.5,-81.2 10.5,-103.2 91.5,-103.2 91.5,-81.2 10.5,-81.2"/>
<text text-anchor="start" x="30.5" y="-88.3" font-family="Helvetica,sans-Serif" font-size="11.00" fill="#000000">comments</text>
<polygon fill="none" stroke="#000000" points="91.5,-81.2 91.5,-103.2 181.5,-103.2 181.5,-81.2 91.5,-81.2"/>
<text text-anchor="start" x="94.0042" y="-88.9" font-family="Helvetica,sans-Serif" font-size="11.00" fill="#000000">text[2147483647]</text>
<polygon fill="none" stroke="#000000" points="10.5,-59.2 10.5,-81.2 91.5,-81.2 91.5,-59.2 10.5,-59.2"/>
<text text-anchor="start" x="30.5" y="-66.3" font-family="Helvetica,sans-Serif" font-size="11.00" fill="#000000">wq</text>
<polygon fill="none" stroke="#000000" points="91.5,-59.2 91.5,-81.2 181.5,-81.2 181.5,-59.2 91.5,-59.2"/>
<text text-anchor="start" x="94.0042" y="-66.9" font-family="Helvetica,sans-Serif" font-size="11.00" fill="#000000">text[2147483647]</text>
<polygon fill="#ffffff" stroke="transparent" points="10.5,-40.2 10.5,-59.2 55.5,-59.2 55.5,-40.2 10.5,-40.2"/>
<polygon fill="none" stroke="#000000" points="10.5,-40.2 10.5,-59.2 55.5,-59.2 55.5,-40.2 10.5,-40.2"/>
<text text-anchor="start" x="13.5" y="-46.3" font-family="Helvetica,sans-Serif" font-size="11.00" fill="#000000">&lt; 0</text>
<polygon fill="#ffffff" stroke="transparent" points="55.5,-40.2 55.5,-59.2 91.5,-59.2 91.5,-40.2 55.5,-40.2"/>
<polygon fill="none" stroke="#000000" points="55.5,-40.2 55.5,-59.2 91.5,-59.2 91.5,-40.2 55.5,-40.2"/>
<text text-anchor="start" x="82.3862" y="-46.3" font-family="Helvetica,sans-Serif" font-size="11.00" fill="#000000"> &#160;</text>
<polygon fill="#ffffff" stroke="transparent" points="91.5,-40.2 91.5,-59.2 181.5,-59.2 181.5,-40.2 91.5,-40.2"/>
<polygon fill="none" stroke="#000000" points="91.5,-40.2 91.5,-59.2 181.5,-59.2 181.5,-40.2 91.5,-40.2"/>
<text text-anchor="start" x="162.9053" y="-46.3" font-family="Helvetica,sans-Serif" font-size="11.00" fill="#000000">0 &gt;</text>
<polygon fill="none" stroke="#000000" stroke-width="2" points="9,-39.2 9,-281.2 182,-281.2 182,-39.2 9,-39.2"/>
</a>
</g>
</g>
</g>
</svg>
