<?xml version="1.0" encoding="UTF-8" standalone="no"?>
<!DOCTYPE svg PUBLIC "-//W3C//DTD SVG 1.1//EN"
 "http://www.w3.org/Graphics/SVG/1.1/DTD/svg11.dtd">
<!-- Generated by graphviz version 2.40.1 (20161225.0304)
 -->
<!-- Title: oneDegreeRelationshipsDiagramImplied Pages: 1 -->
<svg width="341pt" height="294pt"
 viewBox="0.00 0.00 341.00 294.20" xmlns="http://www.w3.org/2000/svg" xmlns:xlink="http://www.w3.org/1999/xlink">
<g id="graph0" class="graph" transform="scale(1 1) rotate(0) translate(4 290.2)">
<title>oneDegreeRelationshipsDiagramImplied</title>
<polygon fill="#ffffff" stroke="transparent" points="-4,4 -4,-290.2 337,-290.2 337,4 -4,4"/>
<text text-anchor="middle" x="72.4936" y="-7.3" font-family="Helvetica,sans-Serif" font-size="11.00" fill="#000000">Generated by SchemaSpy</text>
<!-- struct_config -->
<g id="node1" class="node">
<title>struct_config</title>
<g id="a_node1"><a xlink:href="../../tables/struct_config.html" xlink:title="struct_config" target="_top">
<polygon fill="#ffffff" stroke="transparent" points="134,-38.2 134,-282.2 325,-282.2 325,-38.2 134,-38.2"/>
<polygon fill="#f5f5f5" stroke="transparent" points="136.5,-257.2 136.5,-280.2 323.5,-280.2 323.5,-257.2 136.5,-257.2"/>
<polygon fill="none" stroke="#000000" points="136.5,-257.2 136.5,-280.2 323.5,-280.2 323.5,-257.2 136.5,-257.2"/>
<text text-anchor="start" x="141.5" y="-265.8" font-family="Helvetica,sans-Serif" font-weight="bold" font-size="11.00" fill="#000000">struct_config</text>
<text text-anchor="start" x="288.5437" y="-265.3" font-family="Helvetica,sans-Serif" font-size="11.00" fill="#000000">[table]</text>
<polygon fill="none" stroke="#000000" points="136.5,-235.2 136.5,-257.2 233.5,-257.2 233.5,-235.2 136.5,-235.2"/>
<image xlink:href="../../images/primaryKeys.png" width="11px" height="12px" preserveAspectRatio="xMinYMin meet" x="141.5" y="-252.2"/>
<text text-anchor="start" x="156.5" y="-242.3" font-family="Helvetica,sans-Serif" font-size="11.00" fill="#000000">id</text>
<polygon fill="none" stroke="#000000" points="233.5,-235.2 233.5,-257.2 323.5,-257.2 323.5,-235.2 233.5,-235.2"/>
<text text-anchor="start" x="236.5" y="-242.9" font-family="Helvetica,sans-Serif" font-size="11.00" fill="#000000">serial[10]</text>
<polygon fill="none" stroke="#000000" points="136.5,-213.2 136.5,-235.2 233.5,-235.2 233.5,-213.2 136.5,-213.2"/>
<image xlink:href="../../images/foreignKeys.png" width="11px" height="12px" preserveAspectRatio="xMinYMin meet" x="141.5" y="-230.2"/>
<text text-anchor="start" x="156.5" y="-220.3" font-family="Helvetica,sans-Serif" font-size="11.00" fill="#000000">name</text>
<polygon fill="none" stroke="#000000" points="233.5,-213.2 233.5,-235.2 323.5,-235.2 323.5,-213.2 233.5,-213.2"/>
<text text-anchor="start" x="236.5" y="-220.9" font-family="Helvetica,sans-Serif" font-size="11.00" fill="#000000">varchar[30]</text>
<polygon fill="none" stroke="#000000" points="136.5,-191.2 136.5,-213.2 233.5,-213.2 233.5,-191.2 136.5,-191.2"/>
<text text-anchor="start" x="156.5" y="-198.3" font-family="Helvetica,sans-Serif" font-size="11.00" fill="#000000">type</text>
<polygon fill="none" stroke="#000000" points="233.5,-191.2 233.5,-213.2 323.5,-213.2 323.5,-191.2 233.5,-191.2"/>
<text text-anchor="start" x="236.0043" y="-198.9" font-family="Helvetica,sans-Serif" font-size="11.00" fill="#000000">text[2147483647]</text>
<polygon fill="none" stroke="#000000" points="136.5,-169.2 136.5,-191.2 233.5,-191.2 233.5,-169.2 136.5,-169.2"/>
<text text-anchor="start" x="156.5" y="-176.3" font-family="Helvetica,sans-Serif" font-size="11.00" fill="#000000">method</text>
<polygon fill="none" stroke="#000000" points="233.5,-169.2 233.5,-191.2 323.5,-191.2 323.5,-169.2 233.5,-169.2"/>
<text text-anchor="start" x="236.5" y="-176.9" font-family="Helvetica,sans-Serif" font-size="11.00" fill="#000000">int4[10]</text>
<polygon fill="none" stroke="#000000" points="136.5,-147.2 136.5,-169.2 233.5,-169.2 233.5,-147.2 136.5,-147.2"/>
<text text-anchor="start" x="156.5" y="-154.3" font-family="Helvetica,sans-Serif" font-size="11.00" fill="#000000">active</text>
<polygon fill="none" stroke="#000000" points="233.5,-147.2 233.5,-169.2 323.5,-169.2 323.5,-147.2 233.5,-147.2"/>
<text text-anchor="start" x="236.5" y="-154.9" font-family="Helvetica,sans-Serif" font-size="11.00" fill="#000000">bool[1]</text>
<polygon fill="none" stroke="#000000" points="136.5,-125.2 136.5,-147.2 233.5,-147.2 233.5,-125.2 136.5,-125.2"/>
<text text-anchor="start" x="156.5" y="-132.3" font-family="Helvetica,sans-Serif" font-size="11.00" fill="#000000">abscissa</text>
<polygon fill="none" stroke="#000000" points="233.5,-125.2 233.5,-147.2 323.5,-147.2 323.5,-125.2 233.5,-125.2"/>
<text text-anchor="start" x="236.5" y="-132.9" font-family="Helvetica,sans-Serif" font-size="11.00" fill="#000000">float8[17,17]</text>
<polygon fill="none" stroke="#000000" points="136.5,-103.2 136.5,-125.2 233.5,-125.2 233.5,-103.2 136.5,-103.2"/>
<text text-anchor="start" x="156.5" y="-110.3" font-family="Helvetica,sans-Serif" font-size="11.00" fill="#000000">branchnum</text>
<polygon fill="none" stroke="#000000" points="233.5,-103.2 233.5,-125.2 323.5,-125.2 323.5,-103.2 233.5,-103.2"/>
<text text-anchor="start" x="236.5" y="-110.9" font-family="Helvetica,sans-Serif" font-size="11.00" fill="#000000">int4[10]</text>
<polygon fill="none" stroke="#000000" points="136.5,-81.2 136.5,-103.2 233.5,-103.2 233.5,-81.2 136.5,-81.2"/>
<text text-anchor="start" x="156.5" y="-88.3" font-family="Helvetica,sans-Serif" font-size="11.00" fill="#000000">id_prof_ori</text>
<polygon fill="none" stroke="#000000" points="233.5,-81.2 233.5,-103.2 323.5,-103.2 323.5,-81.2 233.5,-81.2"/>
<text text-anchor="start" x="236.5" y="-88.9" font-family="Helvetica,sans-Serif" font-size="11.00" fill="#000000">int4[10]</text>
<polygon fill="none" stroke="#000000" points="136.5,-59.2 136.5,-81.2 233.5,-81.2 233.5,-59.2 136.5,-59.2"/>
<text text-anchor="start" x="156.5" y="-66.3" font-family="Helvetica,sans-Serif" font-size="11.00" fill="#000000">comment</text>
<polygon fill="none" stroke="#000000" points="233.5,-59.2 233.5,-81.2 323.5,-81.2 323.5,-59.2 233.5,-59.2"/>
<text text-anchor="start" x="236.0043" y="-66.9" font-family="Helvetica,sans-Serif" font-size="11.00" fill="#000000">text[2147483647]</text>
<polygon fill="#ffffff" stroke="transparent" points="136.5,-40.2 136.5,-59.2 189.5,-59.2 189.5,-40.2 136.5,-40.2"/>
<polygon fill="none" stroke="#000000" points="136.5,-40.2 136.5,-59.2 189.5,-59.2 189.5,-40.2 136.5,-40.2"/>
<text text-anchor="start" x="139.5" y="-46.3" font-family="Helvetica,sans-Serif" font-size="11.00" fill="#000000">&lt; 1</text>
<polygon fill="#ffffff" stroke="transparent" points="189.5,-40.2 189.5,-59.2 233.5,-59.2 233.5,-40.2 189.5,-40.2"/>
<polygon fill="none" stroke="#000000" points="189.5,-40.2 189.5,-59.2 233.5,-59.2 233.5,-40.2 189.5,-40.2"/>
<text text-anchor="start" x="224.3862" y="-46.3" font-family="Helvetica,sans-Serif" font-size="11.00" fill="#000000"> &#160;</text>
<polygon fill="#ffffff" stroke="transparent" points="233.5,-40.2 233.5,-59.2 323.5,-59.2 323.5,-40.2 233.5,-40.2"/>
<polygon fill="none" stroke="#000000" points="233.5,-40.2 233.5,-59.2 323.5,-59.2 323.5,-40.2 233.5,-40.2"/>
<text text-anchor="start" x="304.9053" y="-46.3" font-family="Helvetica,sans-Serif" font-size="11.00" fill="#000000">0 &gt;</text>
<polygon fill="none" stroke="#000000" stroke-width="2" points="135,-39.2 135,-281.2 324,-281.2 324,-39.2 135,-39.2"/>
</a>
</g>
</g>
<!-- events -->
<g id="node2" class="node">
<title>events</title>
<g id="a_node2"><a xlink:href="../../tables/events.html" xlink:title="events" target="_top">
<polygon fill="#ffffff" stroke="transparent" points="8,-175.7 8,-258.7 85,-258.7 85,-175.7 8,-175.7"/>
<polygon fill="#f5f5f5" stroke="transparent" points="8.5,-235.2 8.5,-258.2 85.5,-258.2 85.5,-235.2 8.5,-235.2"/>
<polygon fill="none" stroke="#000000" points="8.5,-235.2 8.5,-258.2 85.5,-258.2 85.5,-235.2 8.5,-235.2"/>
<text text-anchor="start" x="13.5" y="-243.8" font-family="Helvetica,sans-Serif" font-weight="bold" font-size="11.00" fill="#000000">events</text>
<text text-anchor="start" x="51.0219" y="-243.3" font-family="Helvetica,sans-Serif" font-size="11.00" fill="#000000">[table]</text>
<polygon fill="none" stroke="#000000" points="8.5,-213.2 8.5,-235.2 85.5,-235.2 85.5,-213.2 8.5,-213.2"/>
<image xlink:href="../../images/primaryKeys.png" width="11px" height="12px" preserveAspectRatio="xMinYMin meet" x="13.5" y="-230.2"/>
<text text-anchor="start" x="31.5" y="-220.3" font-family="Helvetica,sans-Serif" font-size="11.00" fill="#000000">name</text>
<polygon fill="none" stroke="#000000" points="8.5,-194.2 8.5,-213.2 85.5,-213.2 85.5,-194.2 8.5,-194.2"/>
<text text-anchor="start" x="11.5" y="-200.3" font-family="Helvetica,sans-Serif" font-size="11.00" fill="#000000">...</text>
<polygon fill="#ffffff" stroke="transparent" points="8.5,-175.2 8.5,-194.2 33.5,-194.2 33.5,-175.2 8.5,-175.2"/>
<polygon fill="none" stroke="#000000" points="8.5,-175.2 8.5,-194.2 33.5,-194.2 33.5,-175.2 8.5,-175.2"/>
<text text-anchor="start" x="11.5" y="-181.3" font-family="Helvetica,sans-Serif" font-size="11.00" fill="#000000"> &#160;</text>
<polygon fill="#ffffff" stroke="transparent" points="33.5,-175.2 33.5,-194.2 51.5,-194.2 51.5,-175.2 33.5,-175.2"/>
<polygon fill="none" stroke="#000000" points="33.5,-175.2 33.5,-194.2 51.5,-194.2 51.5,-175.2 33.5,-175.2"/>
<text text-anchor="start" x="42.3862" y="-181.3" font-family="Helvetica,sans-Serif" font-size="11.00" fill="#000000"> &#160;</text>
<polygon fill="#ffffff" stroke="transparent" points="51.5,-175.2 51.5,-194.2 85.5,-194.2 85.5,-175.2 51.5,-175.2"/>
<polygon fill="none" stroke="#000000" points="51.5,-175.2 51.5,-194.2 85.5,-194.2 85.5,-175.2 51.5,-175.2"/>
<text text-anchor="start" x="60.7904" y="-181.3" font-family="Helvetica,sans-Serif" font-size="11.00" fill="#000000">16 &gt;</text>
</a>
</g>
</g>
<!-- struct_config&#45;&gt;events -->
<g id="edge1" class="edge">
<title>struct_config:w&#45;&gt;events:e</title>
<path fill="none" stroke="#000000" stroke-dasharray="5,2" d="M121.776,-224.2C109.7815,-224.2 102.3229,-224.2 85.5,-224.2"/>
<polygon fill="#000000" stroke="#000000" points="128.5,-224.2001 136.5,-227.8 132.5,-224.2 136.5,-224.2 136.5,-224.2 136.5,-224.2 132.5,-224.2 136.5,-220.6 128.5,-224.2001 128.5,-224.2001"/>
<ellipse fill="none" stroke="#000000" cx="125.3" cy="-224.2001" rx="3.2" ry="3.2"/>
</g>
</g>
</svg>
