<?xml version="1.0" encoding="UTF-8" standalone="no"?>
<!DOCTYPE svg PUBLIC "-//W3C//DTD SVG 1.1//EN"
 "http://www.w3.org/Graphics/SVG/1.1/DTD/svg11.dtd">
<!-- Generated by graphviz version 2.40.1 (20161225.0304)
 -->
<!-- Title: oneDegreeRelationshipsDiagram Pages: 1 -->
<svg width="181pt" height="184pt"
 viewBox="0.00 0.00 181.00 184.20" xmlns="http://www.w3.org/2000/svg" xmlns:xlink="http://www.w3.org/1999/xlink">
<g id="graph0" class="graph" transform="scale(1 1) rotate(0) translate(4 180.2)">
<title>oneDegreeRelationshipsDiagram</title>
<polygon fill="#ffffff" stroke="transparent" points="-4,4 -4,-180.2 177,-180.2 177,4 -4,4"/>
<text text-anchor="middle" x="72.4936" y="-7.3" font-family="Helvetica,sans-Serif" font-size="11.00" fill="#000000">Generated by SchemaSpy</text>
<!-- struct_laws -->
<g id="node1" class="node">
<title>struct_laws</title>
<g id="a_node1"><a xlink:href="../../tables/struct_laws.html" xlink:title="struct_laws" target="_top">
<polygon fill="#ffffff" stroke="transparent" points="8,-38.2 8,-172.2 165,-172.2 165,-38.2 8,-38.2"/>
<polygon fill="#f5f5f5" stroke="transparent" points="10.5,-147.2 10.5,-170.2 163.5,-170.2 163.5,-147.2 10.5,-147.2"/>
<polygon fill="none" stroke="#000000" points="10.5,-147.2 10.5,-170.2 163.5,-170.2 163.5,-147.2 10.5,-147.2"/>
<text text-anchor="start" x="15.5" y="-155.8" font-family="Helvetica,sans-Serif" font-weight="bold" font-size="11.00" fill="#000000">struct_laws</text>
<text text-anchor="start" x="128.5437" y="-155.3" font-family="Helvetica,sans-Serif" font-size="11.00" fill="#000000">[table]</text>
<polygon fill="none" stroke="#000000" points="10.5,-125.2 10.5,-147.2 97.5,-147.2 97.5,-125.2 10.5,-125.2"/>
<image xlink:href="../../images/primaryKeys.png" width="11px" height="12px" preserveAspectRatio="xMinYMin meet" x="15.5" y="-142.2"/>
<text text-anchor="start" x="30.5" y="-132.3" font-family="Helvetica,sans-Serif" font-size="11.00" fill="#000000">id_config</text>
<polygon fill="none" stroke="#000000" points="97.5,-125.2 97.5,-147.2 163.5,-147.2 163.5,-125.2 97.5,-125.2"/>
<text text-anchor="start" x="100.5" y="-132.9" font-family="Helvetica,sans-Serif" font-size="11.00" fill="#000000">int4[10]</text>
<polygon fill="none" stroke="#000000" points="10.5,-103.2 10.5,-125.2 97.5,-125.2 97.5,-103.2 10.5,-103.2"/>
<image xlink:href="../../images/primaryKeys.png" width="11px" height="12px" preserveAspectRatio="xMinYMin meet" x="15.5" y="-120.2"/>
<text text-anchor="start" x="30.5" y="-110.3" font-family="Helvetica,sans-Serif" font-size="11.00" fill="#000000">id_var</text>
<polygon fill="none" stroke="#000000" points="97.5,-103.2 97.5,-125.2 163.5,-125.2 163.5,-103.2 97.5,-103.2"/>
<text text-anchor="start" x="100.5" y="-110.9" font-family="Helvetica,sans-Serif" font-size="11.00" fill="#000000">int4[10]</text>
<polygon fill="none" stroke="#000000" points="10.5,-81.2 10.5,-103.2 97.5,-103.2 97.5,-81.2 10.5,-81.2"/>
<image xlink:href="../../images/primaryKeys.png" width="11px" height="12px" preserveAspectRatio="xMinYMin meet" x="15.5" y="-98.2"/>
<text text-anchor="start" x="30.5" y="-88.3" font-family="Helvetica,sans-Serif" font-size="11.00" fill="#000000">id_order</text>
<polygon fill="none" stroke="#000000" points="97.5,-81.2 97.5,-103.2 163.5,-103.2 163.5,-81.2 97.5,-81.2"/>
<text text-anchor="start" x="100.5" y="-88.9" font-family="Helvetica,sans-Serif" font-size="11.00" fill="#000000">int4[10]</text>
<polygon fill="none" stroke="#000000" points="10.5,-59.2 10.5,-81.2 97.5,-81.2 97.5,-59.2 10.5,-59.2"/>
<text text-anchor="start" x="30.5" y="-66.3" font-family="Helvetica,sans-Serif" font-size="11.00" fill="#000000">value</text>
<polygon fill="none" stroke="#000000" points="97.5,-59.2 97.5,-81.2 163.5,-81.2 163.5,-59.2 97.5,-59.2"/>
<text text-anchor="start" x="100.2352" y="-66.9" font-family="Helvetica,sans-Serif" font-size="11.00" fill="#000000">float8[17,17]</text>
<polygon fill="#ffffff" stroke="transparent" points="10.5,-40.2 10.5,-59.2 58.5,-59.2 58.5,-40.2 10.5,-40.2"/>
<polygon fill="none" stroke="#000000" points="10.5,-40.2 10.5,-59.2 58.5,-59.2 58.5,-40.2 10.5,-40.2"/>
<text text-anchor="start" x="13.5" y="-46.3" font-family="Helvetica,sans-Serif" font-size="11.00" fill="#000000">&lt; 0</text>
<polygon fill="#ffffff" stroke="transparent" points="58.5,-40.2 58.5,-59.2 97.5,-59.2 97.5,-40.2 58.5,-40.2"/>
<polygon fill="none" stroke="#000000" points="58.5,-40.2 58.5,-59.2 97.5,-59.2 97.5,-40.2 58.5,-40.2"/>
<text text-anchor="start" x="88.3862" y="-46.3" font-family="Helvetica,sans-Serif" font-size="11.00" fill="#000000"> &#160;</text>
<polygon fill="#ffffff" stroke="transparent" points="97.5,-40.2 97.5,-59.2 163.5,-59.2 163.5,-40.2 97.5,-40.2"/>
<polygon fill="none" stroke="#000000" points="97.5,-40.2 97.5,-59.2 163.5,-59.2 163.5,-40.2 97.5,-40.2"/>
<text text-anchor="start" x="144.9053" y="-46.3" font-family="Helvetica,sans-Serif" font-size="11.00" fill="#000000">0 &gt;</text>
<polygon fill="none" stroke="#000000" stroke-width="2" points="9,-39.2 9,-171.2 164,-171.2 164,-39.2 9,-39.2"/>
</a>
</g>
</g>
</g>
</svg>
