<?xml version="1.0" encoding="UTF-8" standalone="no"?>
<!DOCTYPE svg PUBLIC "-//W3C//DTD SVG 1.1//EN"
 "http://www.w3.org/Graphics/SVG/1.1/DTD/svg11.dtd">
<!-- Generated by graphviz version 2.40.1 (20161225.0304)
 -->
<!-- Title: oneDegreeRelationshipsDiagram Pages: 1 -->
<svg width="205pt" height="250pt"
 viewBox="0.00 0.00 205.00 250.20" xmlns="http://www.w3.org/2000/svg" xmlns:xlink="http://www.w3.org/1999/xlink">
<g id="graph0" class="graph" transform="scale(1 1) rotate(0) translate(4 246.2)">
<title>oneDegreeRelationshipsDiagram</title>
<polygon fill="#ffffff" stroke="transparent" points="-4,4 -4,-246.2 201,-246.2 201,4 -4,4"/>
<text text-anchor="middle" x="72.4936" y="-7.3" font-family="Helvetica,sans-Serif" font-size="11.00" fill="#000000">Generated by SchemaSpy</text>
<!-- topo -->
<g id="node1" class="node">
<title>topo</title>
<g id="a_node1"><a xlink:href="../../tables/topo.html" xlink:title="topo" target="_top">
<polygon fill="#ffffff" stroke="transparent" points="8,-38.2 8,-238.2 189,-238.2 189,-38.2 8,-38.2"/>
<polygon fill="#f5f5f5" stroke="transparent" points="10.5,-213.2 10.5,-236.2 187.5,-236.2 187.5,-213.2 10.5,-213.2"/>
<polygon fill="none" stroke="#000000" points="10.5,-213.2 10.5,-236.2 187.5,-236.2 187.5,-213.2 10.5,-213.2"/>
<text text-anchor="start" x="15.2992" y="-221.8" font-family="Helvetica,sans-Serif" font-weight="bold" font-size="11.00" fill="#000000">topo</text>
<text text-anchor="start" x="152.5437" y="-221.3" font-family="Helvetica,sans-Serif" font-size="11.00" fill="#000000">[table]</text>
<polygon fill="#ffffff" stroke="transparent" points="10.5,-191.2 10.5,-213.2 68.5,-213.2 68.5,-191.2 10.5,-191.2"/>
<polygon fill="none" stroke="#000000" points="10.5,-191.2 10.5,-213.2 68.5,-213.2 68.5,-191.2 10.5,-191.2"/>
<text text-anchor="start" x="30.5" y="-198.3" font-family="Helvetica,sans-Serif" font-size="11.00" fill="#000000">geom</text>
<polygon fill="none" stroke="#000000" points="68.5,-191.2 68.5,-213.2 187.5,-213.2 187.5,-191.2 68.5,-191.2"/>
<text text-anchor="start" x="71.4485" y="-198.9" font-family="Helvetica,sans-Serif" font-size="11.00" fill="#000000">geometry[2147483647]</text>
<polygon fill="none" stroke="#000000" points="10.5,-169.2 10.5,-191.2 68.5,-191.2 68.5,-169.2 10.5,-169.2"/>
<image xlink:href="../../images/primaryKeys.png" width="11px" height="12px" preserveAspectRatio="xMinYMin meet" x="15.5" y="-186.2"/>
<text text-anchor="start" x="30.5" y="-176.3" font-family="Helvetica,sans-Serif" font-size="11.00" fill="#000000">gid</text>
<polygon fill="none" stroke="#000000" points="68.5,-169.2 68.5,-191.2 187.5,-191.2 187.5,-169.2 68.5,-169.2"/>
<text text-anchor="start" x="71.5" y="-176.9" font-family="Helvetica,sans-Serif" font-size="11.00" fill="#000000">serial[10]</text>
<polygon fill="none" stroke="#000000" points="10.5,-147.2 10.5,-169.2 68.5,-169.2 68.5,-147.2 10.5,-147.2"/>
<image xlink:href="../../images/foreignKeys.png" width="11px" height="12px" preserveAspectRatio="xMinYMin meet" x="15.5" y="-164.2"/>
<text text-anchor="start" x="30.5" y="-154.3" font-family="Helvetica,sans-Serif" font-size="11.00" fill="#000000">name</text>
<polygon fill="none" stroke="#000000" points="68.5,-147.2 68.5,-169.2 187.5,-169.2 187.5,-147.2 68.5,-147.2"/>
<text text-anchor="start" x="71.5" y="-154.9" font-family="Helvetica,sans-Serif" font-size="11.00" fill="#000000">varchar[30]</text>
<polygon fill="none" stroke="#000000" points="10.5,-125.2 10.5,-147.2 68.5,-147.2 68.5,-125.2 10.5,-125.2"/>
<text text-anchor="start" x="30.5" y="-132.3" font-family="Helvetica,sans-Serif" font-size="11.00" fill="#000000">profile</text>
<polygon fill="none" stroke="#000000" points="68.5,-125.2 68.5,-147.2 187.5,-147.2 187.5,-125.2 68.5,-125.2"/>
<text text-anchor="start" x="71.5" y="-132.9" font-family="Helvetica,sans-Serif" font-size="11.00" fill="#000000">varchar[30]</text>
<polygon fill="none" stroke="#000000" points="10.5,-103.2 10.5,-125.2 68.5,-125.2 68.5,-103.2 10.5,-103.2"/>
<text text-anchor="start" x="30.5" y="-110.3" font-family="Helvetica,sans-Serif" font-size="11.00" fill="#000000">order_</text>
<polygon fill="none" stroke="#000000" points="68.5,-103.2 68.5,-125.2 187.5,-125.2 187.5,-103.2 68.5,-103.2"/>
<text text-anchor="start" x="71.5" y="-110.9" font-family="Helvetica,sans-Serif" font-size="11.00" fill="#000000">int4[10]</text>
<polygon fill="none" stroke="#000000" points="10.5,-81.2 10.5,-103.2 68.5,-103.2 68.5,-81.2 10.5,-81.2"/>
<text text-anchor="start" x="30.5" y="-88.3" font-family="Helvetica,sans-Serif" font-size="11.00" fill="#000000">x</text>
<polygon fill="none" stroke="#000000" points="68.5,-81.2 68.5,-103.2 187.5,-103.2 187.5,-81.2 68.5,-81.2"/>
<text text-anchor="start" x="71.5" y="-88.9" font-family="Helvetica,sans-Serif" font-size="11.00" fill="#000000">float8[17,17]</text>
<polygon fill="none" stroke="#000000" points="10.5,-59.2 10.5,-81.2 68.5,-81.2 68.5,-59.2 10.5,-59.2"/>
<text text-anchor="start" x="30.5" y="-66.3" font-family="Helvetica,sans-Serif" font-size="11.00" fill="#000000">z</text>
<polygon fill="none" stroke="#000000" points="68.5,-59.2 68.5,-81.2 187.5,-81.2 187.5,-59.2 68.5,-59.2"/>
<text text-anchor="start" x="71.5" y="-66.9" font-family="Helvetica,sans-Serif" font-size="11.00" fill="#000000">float8[17,17]</text>
<polygon fill="#ffffff" stroke="transparent" points="10.5,-40.2 10.5,-59.2 43.5,-59.2 43.5,-40.2 10.5,-40.2"/>
<polygon fill="none" stroke="#000000" points="10.5,-40.2 10.5,-59.2 43.5,-59.2 43.5,-40.2 10.5,-40.2"/>
<text text-anchor="start" x="13.5" y="-46.3" font-family="Helvetica,sans-Serif" font-size="11.00" fill="#000000">&lt; 0</text>
<polygon fill="#ffffff" stroke="transparent" points="43.5,-40.2 43.5,-59.2 68.5,-59.2 68.5,-40.2 43.5,-40.2"/>
<polygon fill="none" stroke="#000000" points="43.5,-40.2 43.5,-59.2 68.5,-59.2 68.5,-40.2 43.5,-40.2"/>
<text text-anchor="start" x="59.3862" y="-46.3" font-family="Helvetica,sans-Serif" font-size="11.00" fill="#000000"> &#160;</text>
<polygon fill="#ffffff" stroke="transparent" points="68.5,-40.2 68.5,-59.2 187.5,-59.2 187.5,-40.2 68.5,-40.2"/>
<polygon fill="none" stroke="#000000" points="68.5,-40.2 68.5,-59.2 187.5,-59.2 187.5,-40.2 68.5,-40.2"/>
<text text-anchor="start" x="168.9053" y="-46.3" font-family="Helvetica,sans-Serif" font-size="11.00" fill="#000000">0 &gt;</text>
<polygon fill="none" stroke="#000000" stroke-width="2" points="9,-39.2 9,-237.2 188,-237.2 188,-39.2 9,-39.2"/>
</a>
</g>
</g>
</g>
</svg>
