<?xml version="1.0" encoding="UTF-8" standalone="no"?>
<!DOCTYPE svg PUBLIC "-//W3C//DTD SVG 1.1//EN"
 "http://www.w3.org/Graphics/SVG/1.1/DTD/svg11.dtd">
<!-- Generated by graphviz version 2.40.1 (20161225.0304)
 -->
<!-- Title: oneDegreeRelationshipsDiagramImplied Pages: 1 -->
<svg width="331pt" height="250pt"
 viewBox="0.00 0.00 331.00 250.20" xmlns="http://www.w3.org/2000/svg" xmlns:xlink="http://www.w3.org/1999/xlink">
<g id="graph0" class="graph" transform="scale(1 1) rotate(0) translate(4 246.2)">
<title>oneDegreeRelationshipsDiagramImplied</title>
<polygon fill="#ffffff" stroke="transparent" points="-4,4 -4,-246.2 327,-246.2 327,4 -4,4"/>
<text text-anchor="middle" x="72.4936" y="-7.3" font-family="Helvetica,sans-Serif" font-size="11.00" fill="#000000">Generated by SchemaSpy</text>
<!-- topo -->
<g id="node1" class="node">
<title>topo</title>
<g id="a_node1"><a xlink:href="../../tables/topo.html" xlink:title="topo" target="_top">
<polygon fill="#ffffff" stroke="transparent" points="134,-38.2 134,-238.2 315,-238.2 315,-38.2 134,-38.2"/>
<polygon fill="#f5f5f5" stroke="transparent" points="136.5,-213.2 136.5,-236.2 313.5,-236.2 313.5,-213.2 136.5,-213.2"/>
<polygon fill="none" stroke="#000000" points="136.5,-213.2 136.5,-236.2 313.5,-236.2 313.5,-213.2 136.5,-213.2"/>
<text text-anchor="start" x="141.2992" y="-221.8" font-family="Helvetica,sans-Serif" font-weight="bold" font-size="11.00" fill="#000000">topo</text>
<text text-anchor="start" x="278.5437" y="-221.3" font-family="Helvetica,sans-Serif" font-size="11.00" fill="#000000">[table]</text>
<polygon fill="#ffffff" stroke="transparent" points="136.5,-191.2 136.5,-213.2 194.5,-213.2 194.5,-191.2 136.5,-191.2"/>
<polygon fill="none" stroke="#000000" points="136.5,-191.2 136.5,-213.2 194.5,-213.2 194.5,-191.2 136.5,-191.2"/>
<text text-anchor="start" x="156.5" y="-198.3" font-family="Helvetica,sans-Serif" font-size="11.00" fill="#000000">geom</text>
<polygon fill="none" stroke="#000000" points="194.5,-191.2 194.5,-213.2 313.5,-213.2 313.5,-191.2 194.5,-191.2"/>
<text text-anchor="start" x="197.4485" y="-198.9" font-family="Helvetica,sans-Serif" font-size="11.00" fill="#000000">geometry[2147483647]</text>
<polygon fill="none" stroke="#000000" points="136.5,-169.2 136.5,-191.2 194.5,-191.2 194.5,-169.2 136.5,-169.2"/>
<image xlink:href="../../images/primaryKeys.png" width="11px" height="12px" preserveAspectRatio="xMinYMin meet" x="141.5" y="-186.2"/>
<text text-anchor="start" x="156.5" y="-176.3" font-family="Helvetica,sans-Serif" font-size="11.00" fill="#000000">gid</text>
<polygon fill="none" stroke="#000000" points="194.5,-169.2 194.5,-191.2 313.5,-191.2 313.5,-169.2 194.5,-169.2"/>
<text text-anchor="start" x="197.5" y="-176.9" font-family="Helvetica,sans-Serif" font-size="11.00" fill="#000000">serial[10]</text>
<polygon fill="none" stroke="#000000" points="136.5,-147.2 136.5,-169.2 194.5,-169.2 194.5,-147.2 136.5,-147.2"/>
<image xlink:href="../../images/foreignKeys.png" width="11px" height="12px" preserveAspectRatio="xMinYMin meet" x="141.5" y="-164.2"/>
<text text-anchor="start" x="156.5" y="-154.3" font-family="Helvetica,sans-Serif" font-size="11.00" fill="#000000">name</text>
<polygon fill="none" stroke="#000000" points="194.5,-147.2 194.5,-169.2 313.5,-169.2 313.5,-147.2 194.5,-147.2"/>
<text text-anchor="start" x="197.5" y="-154.9" font-family="Helvetica,sans-Serif" font-size="11.00" fill="#000000">varchar[30]</text>
<polygon fill="none" stroke="#000000" points="136.5,-125.2 136.5,-147.2 194.5,-147.2 194.5,-125.2 136.5,-125.2"/>
<text text-anchor="start" x="156.5" y="-132.3" font-family="Helvetica,sans-Serif" font-size="11.00" fill="#000000">profile</text>
<polygon fill="none" stroke="#000000" points="194.5,-125.2 194.5,-147.2 313.5,-147.2 313.5,-125.2 194.5,-125.2"/>
<text text-anchor="start" x="197.5" y="-132.9" font-family="Helvetica,sans-Serif" font-size="11.00" fill="#000000">varchar[30]</text>
<polygon fill="none" stroke="#000000" points="136.5,-103.2 136.5,-125.2 194.5,-125.2 194.5,-103.2 136.5,-103.2"/>
<text text-anchor="start" x="156.5" y="-110.3" font-family="Helvetica,sans-Serif" font-size="11.00" fill="#000000">order_</text>
<polygon fill="none" stroke="#000000" points="194.5,-103.2 194.5,-125.2 313.5,-125.2 313.5,-103.2 194.5,-103.2"/>
<text text-anchor="start" x="197.5" y="-110.9" font-family="Helvetica,sans-Serif" font-size="11.00" fill="#000000">int4[10]</text>
<polygon fill="none" stroke="#000000" points="136.5,-81.2 136.5,-103.2 194.5,-103.2 194.5,-81.2 136.5,-81.2"/>
<text text-anchor="start" x="156.5" y="-88.3" font-family="Helvetica,sans-Serif" font-size="11.00" fill="#000000">x</text>
<polygon fill="none" stroke="#000000" points="194.5,-81.2 194.5,-103.2 313.5,-103.2 313.5,-81.2 194.5,-81.2"/>
<text text-anchor="start" x="197.5" y="-88.9" font-family="Helvetica,sans-Serif" font-size="11.00" fill="#000000">float8[17,17]</text>
<polygon fill="none" stroke="#000000" points="136.5,-59.2 136.5,-81.2 194.5,-81.2 194.5,-59.2 136.5,-59.2"/>
<text text-anchor="start" x="156.5" y="-66.3" font-family="Helvetica,sans-Serif" font-size="11.00" fill="#000000">z</text>
<polygon fill="none" stroke="#000000" points="194.5,-59.2 194.5,-81.2 313.5,-81.2 313.5,-59.2 194.5,-59.2"/>
<text text-anchor="start" x="197.5" y="-66.9" font-family="Helvetica,sans-Serif" font-size="11.00" fill="#000000">float8[17,17]</text>
<polygon fill="#ffffff" stroke="transparent" points="136.5,-40.2 136.5,-59.2 169.5,-59.2 169.5,-40.2 136.5,-40.2"/>
<polygon fill="none" stroke="#000000" points="136.5,-40.2 136.5,-59.2 169.5,-59.2 169.5,-40.2 136.5,-40.2"/>
<text text-anchor="start" x="139.5" y="-46.3" font-family="Helvetica,sans-Serif" font-size="11.00" fill="#000000">&lt; 1</text>
<polygon fill="#ffffff" stroke="transparent" points="169.5,-40.2 169.5,-59.2 194.5,-59.2 194.5,-40.2 169.5,-40.2"/>
<polygon fill="none" stroke="#000000" points="169.5,-40.2 169.5,-59.2 194.5,-59.2 194.5,-40.2 169.5,-40.2"/>
<text text-anchor="start" x="185.3862" y="-46.3" font-family="Helvetica,sans-Serif" font-size="11.00" fill="#000000"> &#160;</text>
<polygon fill="#ffffff" stroke="transparent" points="194.5,-40.2 194.5,-59.2 313.5,-59.2 313.5,-40.2 194.5,-40.2"/>
<polygon fill="none" stroke="#000000" points="194.5,-40.2 194.5,-59.2 313.5,-59.2 313.5,-40.2 194.5,-40.2"/>
<text text-anchor="start" x="294.9053" y="-46.3" font-family="Helvetica,sans-Serif" font-size="11.00" fill="#000000">0 &gt;</text>
<polygon fill="none" stroke="#000000" stroke-width="2" points="135,-39.2 135,-237.2 314,-237.2 314,-39.2 135,-39.2"/>
</a>
</g>
</g>
<!-- events -->
<g id="node2" class="node">
<title>events</title>
<g id="a_node2"><a xlink:href="../../tables/events.html" xlink:title="events" target="_top">
<polygon fill="#ffffff" stroke="transparent" points="8,-109.7 8,-192.7 85,-192.7 85,-109.7 8,-109.7"/>
<polygon fill="#f5f5f5" stroke="transparent" points="8.5,-169.2 8.5,-192.2 85.5,-192.2 85.5,-169.2 8.5,-169.2"/>
<polygon fill="none" stroke="#000000" points="8.5,-169.2 8.5,-192.2 85.5,-192.2 85.5,-169.2 8.5,-169.2"/>
<text text-anchor="start" x="13.5" y="-177.8" font-family="Helvetica,sans-Serif" font-weight="bold" font-size="11.00" fill="#000000">events</text>
<text text-anchor="start" x="51.0219" y="-177.3" font-family="Helvetica,sans-Serif" font-size="11.00" fill="#000000">[table]</text>
<polygon fill="none" stroke="#000000" points="8.5,-147.2 8.5,-169.2 85.5,-169.2 85.5,-147.2 8.5,-147.2"/>
<image xlink:href="../../images/primaryKeys.png" width="11px" height="12px" preserveAspectRatio="xMinYMin meet" x="13.5" y="-164.2"/>
<text text-anchor="start" x="31.5" y="-154.3" font-family="Helvetica,sans-Serif" font-size="11.00" fill="#000000">name</text>
<polygon fill="none" stroke="#000000" points="8.5,-128.2 8.5,-147.2 85.5,-147.2 85.5,-128.2 8.5,-128.2"/>
<text text-anchor="start" x="11.5" y="-134.3" font-family="Helvetica,sans-Serif" font-size="11.00" fill="#000000">...</text>
<polygon fill="#ffffff" stroke="transparent" points="8.5,-109.2 8.5,-128.2 33.5,-128.2 33.5,-109.2 8.5,-109.2"/>
<polygon fill="none" stroke="#000000" points="8.5,-109.2 8.5,-128.2 33.5,-128.2 33.5,-109.2 8.5,-109.2"/>
<text text-anchor="start" x="11.5" y="-115.3" font-family="Helvetica,sans-Serif" font-size="11.00" fill="#000000"> &#160;</text>
<polygon fill="#ffffff" stroke="transparent" points="33.5,-109.2 33.5,-128.2 51.5,-128.2 51.5,-109.2 33.5,-109.2"/>
<polygon fill="none" stroke="#000000" points="33.5,-109.2 33.5,-128.2 51.5,-128.2 51.5,-109.2 33.5,-109.2"/>
<text text-anchor="start" x="42.3862" y="-115.3" font-family="Helvetica,sans-Serif" font-size="11.00" fill="#000000"> &#160;</text>
<polygon fill="#ffffff" stroke="transparent" points="51.5,-109.2 51.5,-128.2 85.5,-128.2 85.5,-109.2 51.5,-109.2"/>
<polygon fill="none" stroke="#000000" points="51.5,-109.2 51.5,-128.2 85.5,-128.2 85.5,-109.2 51.5,-109.2"/>
<text text-anchor="start" x="60.7904" y="-115.3" font-family="Helvetica,sans-Serif" font-size="11.00" fill="#000000">16 &gt;</text>
</a>
</g>
</g>
<!-- topo&#45;&gt;events -->
<g id="edge1" class="edge">
<title>topo:w&#45;&gt;events:e</title>
<path fill="none" stroke="#000000" stroke-dasharray="5,2" d="M121.776,-158.2C109.7815,-158.2 102.3229,-158.2 85.5,-158.2"/>
<polygon fill="#000000" stroke="#000000" points="128.5,-158.2001 136.5,-161.8 132.5,-158.2 136.5,-158.2 136.5,-158.2 136.5,-158.2 132.5,-158.2 136.5,-154.6 128.5,-158.2001 128.5,-158.2001"/>
<ellipse fill="none" stroke="#000000" cx="125.3" cy="-158.2001" rx="3.2" ry="3.2"/>
</g>
</g>
</svg>
