<?xml version="1.0" encoding="UTF-8" standalone="no"?>
<!DOCTYPE svg PUBLIC "-//W3C//DTD SVG 1.1//EN"
 "http://www.w3.org/Graphics/SVG/1.1/DTD/svg11.dtd">
<!-- Generated by graphviz version 2.40.1 (20161225.0304)
 -->
<!-- Title: oneDegreeRelationshipsDiagramImplied Pages: 1 -->
<svg width="417pt" height="294pt"
 viewBox="0.00 0.00 417.00 294.20" xmlns="http://www.w3.org/2000/svg" xmlns:xlink="http://www.w3.org/1999/xlink">
<g id="graph0" class="graph" transform="scale(1 1) rotate(0) translate(4 290.2)">
<title>oneDegreeRelationshipsDiagramImplied</title>
<polygon fill="#ffffff" stroke="transparent" points="-4,4 -4,-290.2 413,-290.2 413,4 -4,4"/>
<text text-anchor="middle" x="72.4936" y="-7.3" font-family="Helvetica,sans-Serif" font-size="11.00" fill="#000000">Generated by SchemaSpy</text>
<!-- tracer_lateral_inflows -->
<g id="node1" class="node">
<title>tracer_lateral_inflows</title>
<g id="a_node1"><a xlink:href="../../tables/tracer_lateral_inflows.html" xlink:title="tracer_lateral_inflows" target="_top">
<polygon fill="#ffffff" stroke="transparent" points="134,-38.2 134,-282.2 401,-282.2 401,-38.2 134,-38.2"/>
<polygon fill="#f5f5f5" stroke="transparent" points="136.5,-257.2 136.5,-280.2 399.5,-280.2 399.5,-257.2 136.5,-257.2"/>
<polygon fill="none" stroke="#000000" points="136.5,-257.2 136.5,-280.2 399.5,-280.2 399.5,-257.2 136.5,-257.2"/>
<text text-anchor="start" x="141.5" y="-265.8" font-family="Helvetica,sans-Serif" font-weight="bold" font-size="11.00" fill="#000000">tracer_lateral_inflows</text>
<text text-anchor="start" x="364.5437" y="-265.3" font-family="Helvetica,sans-Serif" font-size="11.00" fill="#000000">[table]</text>
<polygon fill="#ffffff" stroke="transparent" points="136.5,-235.2 136.5,-257.2 280.5,-257.2 280.5,-235.2 136.5,-235.2"/>
<polygon fill="none" stroke="#000000" points="136.5,-235.2 136.5,-257.2 280.5,-257.2 280.5,-235.2 136.5,-235.2"/>
<text text-anchor="start" x="156.5" y="-242.3" font-family="Helvetica,sans-Serif" font-size="11.00" fill="#000000">geom</text>
<polygon fill="none" stroke="#000000" points="280.5,-235.2 280.5,-257.2 399.5,-257.2 399.5,-235.2 280.5,-235.2"/>
<text text-anchor="start" x="283.4485" y="-242.9" font-family="Helvetica,sans-Serif" font-size="11.00" fill="#000000">geometry[2147483647]</text>
<polygon fill="none" stroke="#000000" points="136.5,-213.2 136.5,-235.2 280.5,-235.2 280.5,-213.2 136.5,-213.2"/>
<image xlink:href="../../images/primaryKeys.png" width="11px" height="12px" preserveAspectRatio="xMinYMin meet" x="141.5" y="-230.2"/>
<text text-anchor="start" x="156.5" y="-220.3" font-family="Helvetica,sans-Serif" font-size="11.00" fill="#000000">gid</text>
<polygon fill="none" stroke="#000000" points="280.5,-213.2 280.5,-235.2 399.5,-235.2 399.5,-213.2 280.5,-213.2"/>
<text text-anchor="start" x="283.5" y="-220.9" font-family="Helvetica,sans-Serif" font-size="11.00" fill="#000000">serial[10]</text>
<polygon fill="none" stroke="#000000" points="136.5,-191.2 136.5,-213.2 280.5,-213.2 280.5,-191.2 136.5,-191.2"/>
<image xlink:href="../../images/foreignKeys.png" width="11px" height="12px" preserveAspectRatio="xMinYMin meet" x="141.5" y="-208.2"/>
<text text-anchor="start" x="156.5" y="-198.3" font-family="Helvetica,sans-Serif" font-size="11.00" fill="#000000">name</text>
<polygon fill="none" stroke="#000000" points="280.5,-191.2 280.5,-213.2 399.5,-213.2 399.5,-191.2 280.5,-191.2"/>
<text text-anchor="start" x="283.5" y="-198.9" font-family="Helvetica,sans-Serif" font-size="11.00" fill="#000000">varchar[30]</text>
<polygon fill="none" stroke="#000000" points="136.5,-169.2 136.5,-191.2 280.5,-191.2 280.5,-169.2 136.5,-169.2"/>
<text text-anchor="start" x="156.5" y="-176.3" font-family="Helvetica,sans-Serif" font-size="11.00" fill="#000000">branchnum</text>
<polygon fill="none" stroke="#000000" points="280.5,-169.2 280.5,-191.2 399.5,-191.2 399.5,-169.2 280.5,-169.2"/>
<text text-anchor="start" x="283.5" y="-176.9" font-family="Helvetica,sans-Serif" font-size="11.00" fill="#000000">int4[10]</text>
<polygon fill="none" stroke="#000000" points="136.5,-147.2 136.5,-169.2 280.5,-169.2 280.5,-147.2 136.5,-147.2"/>
<text text-anchor="start" x="156.5" y="-154.3" font-family="Helvetica,sans-Serif" font-size="11.00" fill="#000000">abscissa</text>
<polygon fill="none" stroke="#000000" points="280.5,-147.2 280.5,-169.2 399.5,-169.2 399.5,-147.2 280.5,-147.2"/>
<text text-anchor="start" x="283.5" y="-154.9" font-family="Helvetica,sans-Serif" font-size="11.00" fill="#000000">float8[17,17]</text>
<polygon fill="none" stroke="#000000" points="136.5,-125.2 136.5,-147.2 280.5,-147.2 280.5,-125.2 136.5,-125.2"/>
<text text-anchor="start" x="156.5" y="-132.3" font-family="Helvetica,sans-Serif" font-size="11.00" fill="#000000">length</text>
<polygon fill="none" stroke="#000000" points="280.5,-125.2 280.5,-147.2 399.5,-147.2 399.5,-125.2 280.5,-125.2"/>
<text text-anchor="start" x="283.5" y="-132.9" font-family="Helvetica,sans-Serif" font-size="11.00" fill="#000000">float8[17,17]</text>
<polygon fill="none" stroke="#000000" points="136.5,-103.2 136.5,-125.2 280.5,-125.2 280.5,-103.2 136.5,-103.2"/>
<text text-anchor="start" x="156.5" y="-110.3" font-family="Helvetica,sans-Serif" font-size="11.00" fill="#000000">law_wq</text>
<polygon fill="none" stroke="#000000" points="280.5,-103.2 280.5,-125.2 399.5,-125.2 399.5,-103.2 280.5,-103.2"/>
<text text-anchor="start" x="283.5" y="-110.9" font-family="Helvetica,sans-Serif" font-size="11.00" fill="#000000">text[2147483647]</text>
<polygon fill="none" stroke="#000000" points="136.5,-81.2 136.5,-103.2 280.5,-103.2 280.5,-81.2 136.5,-81.2"/>
<text text-anchor="start" x="156.5" y="-88.3" font-family="Helvetica,sans-Serif" font-size="11.00" fill="#000000">typesources</text>
<polygon fill="none" stroke="#000000" points="280.5,-81.2 280.5,-103.2 399.5,-103.2 399.5,-81.2 280.5,-81.2"/>
<text text-anchor="start" x="283.5" y="-88.9" font-family="Helvetica,sans-Serif" font-size="11.00" fill="#000000">int4[10]</text>
<polygon fill="none" stroke="#000000" points="136.5,-59.2 136.5,-81.2 280.5,-81.2 280.5,-59.2 136.5,-59.2"/>
<text text-anchor="start" x="156.5" y="-66.3" font-family="Helvetica,sans-Serif" font-size="11.00" fill="#000000">active</text>
<polygon fill="none" stroke="#000000" points="280.5,-59.2 280.5,-81.2 399.5,-81.2 399.5,-59.2 280.5,-59.2"/>
<text text-anchor="start" x="283.5" y="-66.9" font-family="Helvetica,sans-Serif" font-size="11.00" fill="#000000">bool[1]</text>
<polygon fill="#ffffff" stroke="transparent" points="136.5,-40.2 136.5,-59.2 212.5,-59.2 212.5,-40.2 136.5,-40.2"/>
<polygon fill="none" stroke="#000000" points="136.5,-40.2 136.5,-59.2 212.5,-59.2 212.5,-40.2 136.5,-40.2"/>
<text text-anchor="start" x="139.5" y="-46.3" font-family="Helvetica,sans-Serif" font-size="11.00" fill="#000000">&lt; 1</text>
<polygon fill="#ffffff" stroke="transparent" points="212.5,-40.2 212.5,-59.2 280.5,-59.2 280.5,-40.2 212.5,-40.2"/>
<polygon fill="none" stroke="#000000" points="212.5,-40.2 212.5,-59.2 280.5,-59.2 280.5,-40.2 212.5,-40.2"/>
<text text-anchor="start" x="271.3862" y="-46.3" font-family="Helvetica,sans-Serif" font-size="11.00" fill="#000000"> &#160;</text>
<polygon fill="#ffffff" stroke="transparent" points="280.5,-40.2 280.5,-59.2 399.5,-59.2 399.5,-40.2 280.5,-40.2"/>
<polygon fill="none" stroke="#000000" points="280.5,-40.2 280.5,-59.2 399.5,-59.2 399.5,-40.2 280.5,-40.2"/>
<text text-anchor="start" x="380.9053" y="-46.3" font-family="Helvetica,sans-Serif" font-size="11.00" fill="#000000">0 &gt;</text>
<polygon fill="none" stroke="#000000" stroke-width="2" points="135,-39.2 135,-281.2 400,-281.2 400,-39.2 135,-39.2"/>
</a>
</g>
</g>
<!-- events -->
<g id="node2" class="node">
<title>events</title>
<g id="a_node2"><a xlink:href="../../tables/events.html" xlink:title="events" target="_top">
<polygon fill="#ffffff" stroke="transparent" points="8,-153.7 8,-236.7 85,-236.7 85,-153.7 8,-153.7"/>
<polygon fill="#f5f5f5" stroke="transparent" points="8.5,-213.2 8.5,-236.2 85.5,-236.2 85.5,-213.2 8.5,-213.2"/>
<polygon fill="none" stroke="#000000" points="8.5,-213.2 8.5,-236.2 85.5,-236.2 85.5,-213.2 8.5,-213.2"/>
<text text-anchor="start" x="13.5" y="-221.8" font-family="Helvetica,sans-Serif" font-weight="bold" font-size="11.00" fill="#000000">events</text>
<text text-anchor="start" x="51.0219" y="-221.3" font-family="Helvetica,sans-Serif" font-size="11.00" fill="#000000">[table]</text>
<polygon fill="none" stroke="#000000" points="8.5,-191.2 8.5,-213.2 85.5,-213.2 85.5,-191.2 8.5,-191.2"/>
<image xlink:href="../../images/primaryKeys.png" width="11px" height="12px" preserveAspectRatio="xMinYMin meet" x="13.5" y="-208.2"/>
<text text-anchor="start" x="31.5" y="-198.3" font-family="Helvetica,sans-Serif" font-size="11.00" fill="#000000">name</text>
<polygon fill="none" stroke="#000000" points="8.5,-172.2 8.5,-191.2 85.5,-191.2 85.5,-172.2 8.5,-172.2"/>
<text text-anchor="start" x="11.5" y="-178.3" font-family="Helvetica,sans-Serif" font-size="11.00" fill="#000000">...</text>
<polygon fill="#ffffff" stroke="transparent" points="8.5,-153.2 8.5,-172.2 33.5,-172.2 33.5,-153.2 8.5,-153.2"/>
<polygon fill="none" stroke="#000000" points="8.5,-153.2 8.5,-172.2 33.5,-172.2 33.5,-153.2 8.5,-153.2"/>
<text text-anchor="start" x="11.5" y="-159.3" font-family="Helvetica,sans-Serif" font-size="11.00" fill="#000000"> &#160;</text>
<polygon fill="#ffffff" stroke="transparent" points="33.5,-153.2 33.5,-172.2 51.5,-172.2 51.5,-153.2 33.5,-153.2"/>
<polygon fill="none" stroke="#000000" points="33.5,-153.2 33.5,-172.2 51.5,-172.2 51.5,-153.2 33.5,-153.2"/>
<text text-anchor="start" x="42.3862" y="-159.3" font-family="Helvetica,sans-Serif" font-size="11.00" fill="#000000"> &#160;</text>
<polygon fill="#ffffff" stroke="transparent" points="51.5,-153.2 51.5,-172.2 85.5,-172.2 85.5,-153.2 51.5,-153.2"/>
<polygon fill="none" stroke="#000000" points="51.5,-153.2 51.5,-172.2 85.5,-172.2 85.5,-153.2 51.5,-153.2"/>
<text text-anchor="start" x="60.7904" y="-159.3" font-family="Helvetica,sans-Serif" font-size="11.00" fill="#000000">16 &gt;</text>
</a>
</g>
</g>
<!-- tracer_lateral_inflows&#45;&gt;events -->
<g id="edge1" class="edge">
<title>tracer_lateral_inflows:w&#45;&gt;events:e</title>
<path fill="none" stroke="#000000" stroke-dasharray="5,2" d="M121.776,-202.2C109.7815,-202.2 102.3229,-202.2 85.5,-202.2"/>
<polygon fill="#000000" stroke="#000000" points="128.5,-202.2001 136.5,-205.8 132.5,-202.2 136.5,-202.2 136.5,-202.2 136.5,-202.2 132.5,-202.2 136.5,-198.6 128.5,-202.2001 128.5,-202.2001"/>
<ellipse fill="none" stroke="#000000" cx="125.3" cy="-202.2001" rx="3.2" ry="3.2"/>
</g>
</g>
</svg>
