<?xml version="1.0" encoding="UTF-8" standalone="no"?>
<!DOCTYPE svg PUBLIC "-//W3C//DTD SVG 1.1//EN"
 "http://www.w3.org/Graphics/SVG/1.1/DTD/svg11.dtd">
<!-- Generated by graphviz version 2.40.1 (20161225.0304)
 -->
<!-- Title: twoDegreesRelationshipsDiagramImplied Pages: 1 -->
<svg width="312pt" height="1393pt"
 viewBox="0.00 0.00 312.00 1393.20" xmlns="http://www.w3.org/2000/svg" xmlns:xlink="http://www.w3.org/1999/xlink">
<g id="graph0" class="graph" transform="scale(1 1) rotate(0) translate(4 1389.2)">
<title>twoDegreesRelationshipsDiagramImplied</title>
<polygon fill="#ffffff" stroke="transparent" points="-4,4 -4,-1389.2 308,-1389.2 308,4 -4,4"/>
<text text-anchor="middle" x="72.4936" y="-7.3" font-family="Helvetica,sans-Serif" font-size="11.00" fill="#000000">Generated by SchemaSpy</text>
<!-- basins -->
<g id="node1" class="node">
<title>basins</title>
<g id="a_node1"><a xlink:href="../../tables/basins.html" xlink:title="basins" target="_top">
<polygon fill="#ffffff" stroke="transparent" points="176.5,-1320.2 176.5,-1381.2 253.5,-1381.2 253.5,-1320.2 176.5,-1320.2"/>
<polygon fill="#f5f5f5" stroke="transparent" points="177,-1357.7 177,-1380.7 254,-1380.7 254,-1357.7 177,-1357.7"/>
<polygon fill="none" stroke="#000000" points="177,-1357.7 177,-1380.7 254,-1380.7 254,-1357.7 177,-1357.7"/>
<text text-anchor="start" x="182" y="-1366.3" font-family="Helvetica,sans-Serif" font-weight="bold" font-size="11.00" fill="#000000">basins</text>
<text text-anchor="start" x="219.5219" y="-1365.8" font-family="Helvetica,sans-Serif" font-size="11.00" fill="#000000">[table]</text>
<polygon fill="none" stroke="#000000" points="177,-1338.7 177,-1357.7 254,-1357.7 254,-1338.7 177,-1338.7"/>
<text text-anchor="start" x="180" y="-1344.8" font-family="Helvetica,sans-Serif" font-size="11.00" fill="#000000">...</text>
<polygon fill="#ffffff" stroke="transparent" points="177,-1319.7 177,-1338.7 214,-1338.7 214,-1319.7 177,-1319.7"/>
<polygon fill="none" stroke="#000000" points="177,-1319.7 177,-1338.7 214,-1338.7 214,-1319.7 177,-1319.7"/>
<text text-anchor="start" x="180" y="-1325.8" font-family="Helvetica,sans-Serif" font-size="11.00" fill="#000000">&lt; 1</text>
<polygon fill="#ffffff" stroke="transparent" points="214,-1319.7 214,-1338.7 234,-1338.7 234,-1319.7 214,-1319.7"/>
<polygon fill="none" stroke="#000000" points="214,-1319.7 214,-1338.7 234,-1338.7 234,-1319.7 214,-1319.7"/>
<text text-anchor="start" x="224.8862" y="-1325.8" font-family="Helvetica,sans-Serif" font-size="11.00" fill="#000000"> &#160;</text>
<polygon fill="#ffffff" stroke="transparent" points="234,-1319.7 234,-1338.7 254,-1338.7 254,-1319.7 234,-1319.7"/>
<polygon fill="none" stroke="#000000" points="234,-1319.7 234,-1338.7 254,-1338.7 254,-1319.7 234,-1319.7"/>
<text text-anchor="start" x="244.8862" y="-1325.8" font-family="Helvetica,sans-Serif" font-size="11.00" fill="#000000"> &#160;</text>
</a>
</g>
</g>
<!-- events -->
<g id="node2" class="node">
<title>events</title>
<g id="a_node2"><a xlink:href="../../tables/events.html" xlink:title="events" target="_top">
<polygon fill="#ffffff" stroke="transparent" points="8,-684.2 8,-767.2 85,-767.2 85,-684.2 8,-684.2"/>
<polygon fill="#f5f5f5" stroke="transparent" points="8.5,-743.7 8.5,-766.7 85.5,-766.7 85.5,-743.7 8.5,-743.7"/>
<polygon fill="none" stroke="#000000" points="8.5,-743.7 8.5,-766.7 85.5,-766.7 85.5,-743.7 8.5,-743.7"/>
<text text-anchor="start" x="13.5" y="-752.3" font-family="Helvetica,sans-Serif" font-weight="bold" font-size="11.00" fill="#000000">events</text>
<text text-anchor="start" x="51.0219" y="-751.8" font-family="Helvetica,sans-Serif" font-size="11.00" fill="#000000">[table]</text>
<polygon fill="none" stroke="#000000" points="8.5,-721.7 8.5,-743.7 85.5,-743.7 85.5,-721.7 8.5,-721.7"/>
<image xlink:href="../../images/primaryKeys.png" width="11px" height="12px" preserveAspectRatio="xMinYMin meet" x="13.5" y="-738.7"/>
<text text-anchor="start" x="31.5" y="-728.8" font-family="Helvetica,sans-Serif" font-size="11.00" fill="#000000">name</text>
<polygon fill="none" stroke="#000000" points="8.5,-702.7 8.5,-721.7 85.5,-721.7 85.5,-702.7 8.5,-702.7"/>
<text text-anchor="start" x="11.5" y="-708.8" font-family="Helvetica,sans-Serif" font-size="11.00" fill="#000000">...</text>
<polygon fill="#ffffff" stroke="transparent" points="8.5,-683.7 8.5,-702.7 33.5,-702.7 33.5,-683.7 8.5,-683.7"/>
<polygon fill="none" stroke="#000000" points="8.5,-683.7 8.5,-702.7 33.5,-702.7 33.5,-683.7 8.5,-683.7"/>
<text text-anchor="start" x="11.5" y="-689.8" font-family="Helvetica,sans-Serif" font-size="11.00" fill="#000000"> &#160;</text>
<polygon fill="#ffffff" stroke="transparent" points="33.5,-683.7 33.5,-702.7 51.5,-702.7 51.5,-683.7 33.5,-683.7"/>
<polygon fill="none" stroke="#000000" points="33.5,-683.7 33.5,-702.7 51.5,-702.7 51.5,-683.7 33.5,-683.7"/>
<text text-anchor="start" x="42.3862" y="-689.8" font-family="Helvetica,sans-Serif" font-size="11.00" fill="#000000"> &#160;</text>
<polygon fill="#ffffff" stroke="transparent" points="51.5,-683.7 51.5,-702.7 85.5,-702.7 85.5,-683.7 51.5,-683.7"/>
<polygon fill="none" stroke="#000000" points="51.5,-683.7 51.5,-702.7 85.5,-702.7 85.5,-683.7 51.5,-683.7"/>
<text text-anchor="start" x="60.7904" y="-689.8" font-family="Helvetica,sans-Serif" font-size="11.00" fill="#000000">16 &gt;</text>
</a>
</g>
</g>
<!-- basins&#45;&gt;events -->
<g id="edge1" class="edge">
<title>basins:w&#45;&gt;events:e</title>
<path fill="none" stroke="#000000" stroke-dasharray="5,2" d="M166.4168,-1346.964C146.1425,-1343.8745 137.7046,-1331.1119 126,-1309.7 95.1733,-1253.3067 149.7688,-732.7 85.5,-732.7"/>
<polygon fill="#000000" stroke="#000000" points="176.4795,-1343.6541 175.9244,-1351.6349 174.3283,-1351.5238 174.8833,-1343.5431 176.4795,-1343.6541"/>
<polyline fill="none" stroke="#000000" points="177,-1347.7 173.0096,-1347.4225 "/>
<ellipse fill="none" stroke="#000000" cx="169.8173" cy="-1347.2004" rx="3.2" ry="3.2"/>
</g>
<!-- extremities -->
<g id="node3" class="node">
<title>extremities</title>
<g id="a_node3"><a xlink:href="../../tables/extremities.html" xlink:title="extremities" target="_top">
<polygon fill="#ffffff" stroke="transparent" points="164,-1238.2 164,-1299.2 266,-1299.2 266,-1238.2 164,-1238.2"/>
<polygon fill="#f5f5f5" stroke="transparent" points="164,-1275.7 164,-1298.7 266,-1298.7 266,-1275.7 164,-1275.7"/>
<polygon fill="none" stroke="#000000" points="164,-1275.7 164,-1298.7 266,-1298.7 266,-1275.7 164,-1275.7"/>
<text text-anchor="start" x="169" y="-1284.3" font-family="Helvetica,sans-Serif" font-weight="bold" font-size="11.00" fill="#000000">extremities</text>
<text text-anchor="start" x="231.5219" y="-1283.8" font-family="Helvetica,sans-Serif" font-size="11.00" fill="#000000">[table]</text>
<polygon fill="none" stroke="#000000" points="164,-1256.7 164,-1275.7 266,-1275.7 266,-1256.7 164,-1256.7"/>
<text text-anchor="start" x="167" y="-1262.8" font-family="Helvetica,sans-Serif" font-size="11.00" fill="#000000">...</text>
<polygon fill="#ffffff" stroke="transparent" points="164,-1237.7 164,-1256.7 209,-1256.7 209,-1237.7 164,-1237.7"/>
<polygon fill="none" stroke="#000000" points="164,-1237.7 164,-1256.7 209,-1256.7 209,-1237.7 164,-1237.7"/>
<text text-anchor="start" x="167" y="-1243.8" font-family="Helvetica,sans-Serif" font-size="11.00" fill="#000000">&lt; 1</text>
<polygon fill="#ffffff" stroke="transparent" points="209,-1237.7 209,-1256.7 233,-1256.7 233,-1237.7 209,-1237.7"/>
<polygon fill="none" stroke="#000000" points="209,-1237.7 209,-1256.7 233,-1256.7 233,-1237.7 209,-1237.7"/>
<text text-anchor="start" x="223.8862" y="-1243.8" font-family="Helvetica,sans-Serif" font-size="11.00" fill="#000000"> &#160;</text>
<polygon fill="#ffffff" stroke="transparent" points="233,-1237.7 233,-1256.7 266,-1256.7 266,-1237.7 233,-1237.7"/>
<polygon fill="none" stroke="#000000" points="233,-1237.7 233,-1256.7 266,-1256.7 266,-1237.7 233,-1237.7"/>
<text text-anchor="start" x="247.4053" y="-1243.8" font-family="Helvetica,sans-Serif" font-size="11.00" fill="#000000">1 &gt;</text>
</a>
</g>
</g>
<!-- extremities&#45;&gt;events -->
<g id="edge2" class="edge">
<title>extremities:w&#45;&gt;events:e</title>
<path fill="none" stroke="#000000" stroke-dasharray="5,2" d="M153.3087,-1264.309C138.5364,-1259.9302 134.3086,-1245.6496 126,-1227.7 102.8192,-1177.6211 140.6838,-732.7 85.5,-732.7"/>
<polygon fill="#000000" stroke="#000000" points="163.7228,-1261.6302 162.6906,-1269.5633 161.1039,-1269.3569 162.1362,-1261.4238 163.7228,-1261.6302"/>
<polyline fill="none" stroke="#000000" points="164,-1265.7 160.0334,-1265.1839 "/>
<ellipse fill="none" stroke="#000000" cx="156.8602" cy="-1264.771" rx="3.2" ry="3.2"/>
</g>
<!-- flood_marks -->
<g id="node4" class="node">
<title>flood_marks</title>
<g id="a_node4"><a xlink:href="../../tables/flood_marks.html" xlink:title="flood_marks" target="_top">
<polygon fill="#ffffff" stroke="transparent" points="160,-1156.2 160,-1217.2 270,-1217.2 270,-1156.2 160,-1156.2"/>
<polygon fill="#f5f5f5" stroke="transparent" points="160,-1193.7 160,-1216.7 270,-1216.7 270,-1193.7 160,-1193.7"/>
<polygon fill="none" stroke="#000000" points="160,-1193.7 160,-1216.7 270,-1216.7 270,-1193.7 160,-1193.7"/>
<text text-anchor="start" x="165" y="-1202.3" font-family="Helvetica,sans-Serif" font-weight="bold" font-size="11.00" fill="#000000">flood_marks</text>
<text text-anchor="start" x="235.5219" y="-1201.8" font-family="Helvetica,sans-Serif" font-size="11.00" fill="#000000">[table]</text>
<polygon fill="none" stroke="#000000" points="160,-1174.7 160,-1193.7 270,-1193.7 270,-1174.7 160,-1174.7"/>
<text text-anchor="start" x="163" y="-1180.8" font-family="Helvetica,sans-Serif" font-size="11.00" fill="#000000">...</text>
<polygon fill="#ffffff" stroke="transparent" points="160,-1155.7 160,-1174.7 213,-1174.7 213,-1155.7 160,-1155.7"/>
<polygon fill="none" stroke="#000000" points="160,-1155.7 160,-1174.7 213,-1174.7 213,-1155.7 160,-1155.7"/>
<text text-anchor="start" x="163" y="-1161.8" font-family="Helvetica,sans-Serif" font-size="11.00" fill="#000000">&lt; 1</text>
<polygon fill="#ffffff" stroke="transparent" points="213,-1155.7 213,-1174.7 241,-1174.7 241,-1155.7 213,-1155.7"/>
<polygon fill="none" stroke="#000000" points="213,-1155.7 213,-1174.7 241,-1174.7 241,-1155.7 213,-1155.7"/>
<text text-anchor="start" x="231.8862" y="-1161.8" font-family="Helvetica,sans-Serif" font-size="11.00" fill="#000000"> &#160;</text>
<polygon fill="#ffffff" stroke="transparent" points="241,-1155.7 241,-1174.7 270,-1174.7 270,-1155.7 241,-1155.7"/>
<polygon fill="none" stroke="#000000" points="241,-1155.7 241,-1174.7 270,-1174.7 270,-1155.7 241,-1155.7"/>
<text text-anchor="start" x="260.8862" y="-1161.8" font-family="Helvetica,sans-Serif" font-size="11.00" fill="#000000"> &#160;</text>
</a>
</g>
</g>
<!-- flood_marks&#45;&gt;events -->
<g id="edge3" class="edge">
<title>flood_marks:w&#45;&gt;events:e</title>
<path fill="none" stroke="#000000" stroke-dasharray="5,2" d="M145.7548,-1180.3063C135.6697,-1174.2887 132.6922,-1160.9378 126,-1145.7 107.4589,-1103.4831 131.609,-732.7 85.5,-732.7"/>
<polygon fill="#000000" stroke="#000000" points="152.2178,-1181.846 159.1657,-1187.202 156.1089,-1182.773 160,-1183.7 160,-1183.7 160,-1183.7 156.1089,-1182.773 160.8343,-1180.198 152.2178,-1181.846 152.2178,-1181.846"/>
<ellipse fill="none" stroke="#000000" cx="149.1049" cy="-1181.1043" rx="3.2" ry="3.2"/>
</g>
<!-- hydraulic_head -->
<g id="node5" class="node">
<title>hydraulic_head</title>
<g id="a_node5"><a xlink:href="../../tables/hydraulic_head.html" xlink:title="hydraulic_head" target="_top">
<polygon fill="#ffffff" stroke="transparent" points="151.5,-1074.2 151.5,-1135.2 278.5,-1135.2 278.5,-1074.2 151.5,-1074.2"/>
<polygon fill="#f5f5f5" stroke="transparent" points="152,-1111.7 152,-1134.7 279,-1134.7 279,-1111.7 152,-1111.7"/>
<polygon fill="none" stroke="#000000" points="152,-1111.7 152,-1134.7 279,-1134.7 279,-1111.7 152,-1111.7"/>
<text text-anchor="start" x="157" y="-1120.3" font-family="Helvetica,sans-Serif" font-weight="bold" font-size="11.00" fill="#000000">hydraulic_head</text>
<text text-anchor="start" x="244.5219" y="-1119.8" font-family="Helvetica,sans-Serif" font-size="11.00" fill="#000000">[table]</text>
<polygon fill="none" stroke="#000000" points="152,-1092.7 152,-1111.7 279,-1111.7 279,-1092.7 152,-1092.7"/>
<text text-anchor="start" x="155" y="-1098.8" font-family="Helvetica,sans-Serif" font-size="11.00" fill="#000000">...</text>
<polygon fill="#ffffff" stroke="transparent" points="152,-1073.7 152,-1092.7 214,-1092.7 214,-1073.7 152,-1073.7"/>
<polygon fill="none" stroke="#000000" points="152,-1073.7 152,-1092.7 214,-1092.7 214,-1073.7 152,-1073.7"/>
<text text-anchor="start" x="155" y="-1079.8" font-family="Helvetica,sans-Serif" font-size="11.00" fill="#000000">&lt; 1</text>
<polygon fill="#ffffff" stroke="transparent" points="214,-1073.7 214,-1092.7 246,-1092.7 246,-1073.7 214,-1073.7"/>
<polygon fill="none" stroke="#000000" points="214,-1073.7 214,-1092.7 246,-1092.7 246,-1073.7 214,-1073.7"/>
<text text-anchor="start" x="236.8862" y="-1079.8" font-family="Helvetica,sans-Serif" font-size="11.00" fill="#000000"> &#160;</text>
<polygon fill="#ffffff" stroke="transparent" points="246,-1073.7 246,-1092.7 279,-1092.7 279,-1073.7 246,-1073.7"/>
<polygon fill="none" stroke="#000000" points="246,-1073.7 246,-1092.7 279,-1092.7 279,-1073.7 246,-1073.7"/>
<text text-anchor="start" x="269.8862" y="-1079.8" font-family="Helvetica,sans-Serif" font-size="11.00" fill="#000000"> &#160;</text>
</a>
</g>
</g>
<!-- hydraulic_head&#45;&gt;events -->
<g id="edge4" class="edge">
<title>hydraulic_head:w&#45;&gt;events:e</title>
<path fill="none" stroke="#000000" stroke-dasharray="5,2" d="M138.0773,-1097.2989C80.8258,-1055.6665 163.4507,-732.7 85.5,-732.7"/>
<polygon fill="#000000" stroke="#000000" points="144.372,-1099.2887 150.9149,-1105.1326 148.186,-1100.4943 152,-1101.7 152,-1101.7 152,-1101.7 148.186,-1100.4943 153.0851,-1098.2674 144.372,-1099.2887 144.372,-1099.2887"/>
<ellipse fill="none" stroke="#000000" cx="141.3209" cy="-1098.3242" rx="3.2" ry="3.2"/>
</g>
<!-- init_conc_config -->
<g id="node6" class="node">
<title>init_conc_config</title>
<g id="a_node6"><a xlink:href="../../tables/init_conc_config.html" xlink:title="init_conc_config" target="_top">
<polygon fill="#ffffff" stroke="transparent" points="148,-992.2 148,-1053.2 282,-1053.2 282,-992.2 148,-992.2"/>
<polygon fill="#f5f5f5" stroke="transparent" points="148,-1029.7 148,-1052.7 282,-1052.7 282,-1029.7 148,-1029.7"/>
<polygon fill="none" stroke="#000000" points="148,-1029.7 148,-1052.7 282,-1052.7 282,-1029.7 148,-1029.7"/>
<text text-anchor="start" x="153" y="-1038.3" font-family="Helvetica,sans-Serif" font-weight="bold" font-size="11.00" fill="#000000">init_conc_config</text>
<text text-anchor="start" x="247.5219" y="-1037.8" font-family="Helvetica,sans-Serif" font-size="11.00" fill="#000000">[table]</text>
<polygon fill="none" stroke="#000000" points="148,-1010.7 148,-1029.7 282,-1029.7 282,-1010.7 148,-1010.7"/>
<text text-anchor="start" x="151" y="-1016.8" font-family="Helvetica,sans-Serif" font-size="11.00" fill="#000000">...</text>
<polygon fill="#ffffff" stroke="transparent" points="148,-991.7 148,-1010.7 213,-1010.7 213,-991.7 148,-991.7"/>
<polygon fill="none" stroke="#000000" points="148,-991.7 148,-1010.7 213,-1010.7 213,-991.7 148,-991.7"/>
<text text-anchor="start" x="151" y="-997.8" font-family="Helvetica,sans-Serif" font-size="11.00" fill="#000000">&lt; 1</text>
<polygon fill="#ffffff" stroke="transparent" points="213,-991.7 213,-1010.7 247,-1010.7 247,-991.7 213,-991.7"/>
<polygon fill="none" stroke="#000000" points="213,-991.7 213,-1010.7 247,-1010.7 247,-991.7 213,-991.7"/>
<text text-anchor="start" x="237.8862" y="-997.8" font-family="Helvetica,sans-Serif" font-size="11.00" fill="#000000"> &#160;</text>
<polygon fill="#ffffff" stroke="transparent" points="247,-991.7 247,-1010.7 282,-1010.7 282,-991.7 247,-991.7"/>
<polygon fill="none" stroke="#000000" points="247,-991.7 247,-1010.7 282,-1010.7 282,-991.7 247,-991.7"/>
<text text-anchor="start" x="272.8862" y="-997.8" font-family="Helvetica,sans-Serif" font-size="11.00" fill="#000000"> &#160;</text>
</a>
</g>
</g>
<!-- init_conc_config&#45;&gt;events -->
<g id="edge5" class="edge">
<title>init_conc_config:w&#45;&gt;events:e</title>
<path fill="none" stroke="#000000" stroke-dasharray="5,2" d="M134.481,-1014.2231C92.994,-974.5453 145.4182,-732.7 85.5,-732.7"/>
<polygon fill="#000000" stroke="#000000" points="140.5854,-1016.6961 146.6482,-1023.0366 144.2927,-1018.198 148,-1019.7 148,-1019.7 148,-1019.7 144.2927,-1018.198 149.3518,-1016.3634 140.5854,-1016.6961 140.5854,-1016.6961"/>
<ellipse fill="none" stroke="#000000" cx="137.6195" cy="-1015.4945" rx="3.2" ry="3.2"/>
</g>
<!-- lateral_inflows -->
<g id="node7" class="node">
<title>lateral_inflows</title>
<g id="a_node7"><a xlink:href="../../tables/lateral_inflows.html" xlink:title="lateral_inflows" target="_top">
<polygon fill="#ffffff" stroke="transparent" points="154,-910.2 154,-971.2 276,-971.2 276,-910.2 154,-910.2"/>
<polygon fill="#f5f5f5" stroke="transparent" points="154,-947.7 154,-970.7 276,-970.7 276,-947.7 154,-947.7"/>
<polygon fill="none" stroke="#000000" points="154,-947.7 154,-970.7 276,-970.7 276,-947.7 154,-947.7"/>
<text text-anchor="start" x="159" y="-956.3" font-family="Helvetica,sans-Serif" font-weight="bold" font-size="11.00" fill="#000000">lateral_inflows</text>
<text text-anchor="start" x="241.5219" y="-955.8" font-family="Helvetica,sans-Serif" font-size="11.00" fill="#000000">[table]</text>
<polygon fill="none" stroke="#000000" points="154,-928.7 154,-947.7 276,-947.7 276,-928.7 154,-928.7"/>
<text text-anchor="start" x="157" y="-934.8" font-family="Helvetica,sans-Serif" font-size="11.00" fill="#000000">...</text>
<polygon fill="#ffffff" stroke="transparent" points="154,-909.7 154,-928.7 213,-928.7 213,-909.7 154,-909.7"/>
<polygon fill="none" stroke="#000000" points="154,-909.7 154,-928.7 213,-928.7 213,-909.7 154,-909.7"/>
<text text-anchor="start" x="157" y="-915.8" font-family="Helvetica,sans-Serif" font-size="11.00" fill="#000000">&lt; 1</text>
<polygon fill="#ffffff" stroke="transparent" points="213,-909.7 213,-928.7 244,-928.7 244,-909.7 213,-909.7"/>
<polygon fill="none" stroke="#000000" points="213,-909.7 213,-928.7 244,-928.7 244,-909.7 213,-909.7"/>
<text text-anchor="start" x="234.8862" y="-915.8" font-family="Helvetica,sans-Serif" font-size="11.00" fill="#000000"> &#160;</text>
<polygon fill="#ffffff" stroke="transparent" points="244,-909.7 244,-928.7 276,-928.7 276,-909.7 244,-909.7"/>
<polygon fill="none" stroke="#000000" points="244,-909.7 244,-928.7 276,-928.7 276,-909.7 244,-909.7"/>
<text text-anchor="start" x="266.8862" y="-915.8" font-family="Helvetica,sans-Serif" font-size="11.00" fill="#000000"> &#160;</text>
</a>
</g>
</g>
<!-- lateral_inflows&#45;&gt;events -->
<g id="edge6" class="edge">
<title>lateral_inflows:w&#45;&gt;events:e</title>
<path fill="none" stroke="#000000" stroke-dasharray="5,2" d="M139.7113,-935.8015C71.2367,-915.135 176.1219,-732.7 85.5,-732.7"/>
<polygon fill="#000000" stroke="#000000" points="146.0697,-936.6463 153.5258,-941.2686 150.0348,-937.1731 154,-937.7 154,-937.7 154,-937.7 150.0348,-937.1731 154.4742,-934.1314 146.0697,-936.6463 146.0697,-936.6463"/>
<ellipse fill="none" stroke="#000000" cx="142.8976" cy="-936.2248" rx="3.2" ry="3.2"/>
</g>
<!-- lateral_weirs -->
<g id="node8" class="node">
<title>lateral_weirs</title>
<g id="a_node8"><a xlink:href="../../tables/lateral_weirs.html" xlink:title="lateral_weirs" target="_top">
<polygon fill="#ffffff" stroke="transparent" points="159.5,-828.2 159.5,-889.2 270.5,-889.2 270.5,-828.2 159.5,-828.2"/>
<polygon fill="#f5f5f5" stroke="transparent" points="160,-865.7 160,-888.7 271,-888.7 271,-865.7 160,-865.7"/>
<polygon fill="none" stroke="#000000" points="160,-865.7 160,-888.7 271,-888.7 271,-865.7 160,-865.7"/>
<text text-anchor="start" x="165" y="-874.3" font-family="Helvetica,sans-Serif" font-weight="bold" font-size="11.00" fill="#000000">lateral_weirs</text>
<text text-anchor="start" x="236.5219" y="-873.8" font-family="Helvetica,sans-Serif" font-size="11.00" fill="#000000">[table]</text>
<polygon fill="none" stroke="#000000" points="160,-846.7 160,-865.7 271,-865.7 271,-846.7 160,-846.7"/>
<text text-anchor="start" x="163" y="-852.8" font-family="Helvetica,sans-Serif" font-size="11.00" fill="#000000">...</text>
<polygon fill="#ffffff" stroke="transparent" points="160,-827.7 160,-846.7 214,-846.7 214,-827.7 160,-827.7"/>
<polygon fill="none" stroke="#000000" points="160,-827.7 160,-846.7 214,-846.7 214,-827.7 160,-827.7"/>
<text text-anchor="start" x="163" y="-833.8" font-family="Helvetica,sans-Serif" font-size="11.00" fill="#000000">&lt; 1</text>
<polygon fill="#ffffff" stroke="transparent" points="214,-827.7 214,-846.7 242,-846.7 242,-827.7 214,-827.7"/>
<polygon fill="none" stroke="#000000" points="214,-827.7 214,-846.7 242,-846.7 242,-827.7 214,-827.7"/>
<text text-anchor="start" x="232.8862" y="-833.8" font-family="Helvetica,sans-Serif" font-size="11.00" fill="#000000"> &#160;</text>
<polygon fill="#ffffff" stroke="transparent" points="242,-827.7 242,-846.7 271,-846.7 271,-827.7 242,-827.7"/>
<polygon fill="none" stroke="#000000" points="242,-827.7 242,-846.7 271,-846.7 271,-827.7 242,-827.7"/>
<text text-anchor="start" x="261.8862" y="-833.8" font-family="Helvetica,sans-Serif" font-size="11.00" fill="#000000"> &#160;</text>
</a>
</g>
</g>
<!-- lateral_weirs&#45;&gt;events -->
<g id="edge7" class="edge">
<title>lateral_weirs:w&#45;&gt;events:e</title>
<path fill="none" stroke="#000000" stroke-dasharray="5,2" d="M145.7058,-853.0166C104.5555,-835.0291 143.7951,-732.7 85.5,-732.7"/>
<polygon fill="#000000" stroke="#000000" points="152.1373,-854.2239 159.3358,-859.2382 156.0687,-854.962 160,-855.7 160,-855.7 160,-855.7 156.0687,-854.962 160.6642,-852.1618 152.1373,-854.2239 152.1373,-854.2239"/>
<ellipse fill="none" stroke="#000000" cx="148.9923" cy="-853.6335" rx="3.2" ry="3.2"/>
</g>
<!-- links -->
<g id="node9" class="node">
<title>links</title>
<g id="a_node9"><a xlink:href="../../tables/links.html" xlink:title="links" target="_top">
<polygon fill="#ffffff" stroke="transparent" points="182,-746.2 182,-807.2 248,-807.2 248,-746.2 182,-746.2"/>
<polygon fill="#f5f5f5" stroke="transparent" points="182,-783.7 182,-806.7 248,-806.7 248,-783.7 182,-783.7"/>
<polygon fill="none" stroke="#000000" points="182,-783.7 182,-806.7 248,-806.7 248,-783.7 182,-783.7"/>
<text text-anchor="start" x="187" y="-792.3" font-family="Helvetica,sans-Serif" font-weight="bold" font-size="11.00" fill="#000000">links</text>
<text text-anchor="start" x="213.5219" y="-791.8" font-family="Helvetica,sans-Serif" font-size="11.00" fill="#000000">[table]</text>
<polygon fill="none" stroke="#000000" points="182,-764.7 182,-783.7 248,-783.7 248,-764.7 182,-764.7"/>
<text text-anchor="start" x="185" y="-770.8" font-family="Helvetica,sans-Serif" font-size="11.00" fill="#000000">...</text>
<polygon fill="#ffffff" stroke="transparent" points="182,-745.7 182,-764.7 213,-764.7 213,-745.7 182,-745.7"/>
<polygon fill="none" stroke="#000000" points="182,-745.7 182,-764.7 213,-764.7 213,-745.7 182,-745.7"/>
<text text-anchor="start" x="185" y="-751.8" font-family="Helvetica,sans-Serif" font-size="11.00" fill="#000000">&lt; 1</text>
<polygon fill="#ffffff" stroke="transparent" points="213,-745.7 213,-764.7 230,-764.7 230,-745.7 213,-745.7"/>
<polygon fill="none" stroke="#000000" points="213,-745.7 213,-764.7 230,-764.7 230,-745.7 213,-745.7"/>
<text text-anchor="start" x="220.8862" y="-751.8" font-family="Helvetica,sans-Serif" font-size="11.00" fill="#000000"> &#160;</text>
<polygon fill="#ffffff" stroke="transparent" points="230,-745.7 230,-764.7 248,-764.7 248,-745.7 230,-745.7"/>
<polygon fill="none" stroke="#000000" points="230,-745.7 230,-764.7 248,-764.7 248,-745.7 230,-745.7"/>
<text text-anchor="start" x="238.8862" y="-751.8" font-family="Helvetica,sans-Serif" font-size="11.00" fill="#000000"> &#160;</text>
</a>
</g>
</g>
<!-- links&#45;&gt;events -->
<g id="edge8" class="edge">
<title>links:w&#45;&gt;events:e</title>
<path fill="none" stroke="#000000" stroke-dasharray="5,2" d="M171.3585,-772.9176C134.5676,-767.2493 128.2768,-732.7 85.5,-732.7"/>
<polygon fill="#000000" stroke="#000000" points="181.4955,-769.6521 180.9088,-777.6306 179.3131,-777.5132 179.8998,-769.5348 181.4955,-769.6521"/>
<polyline fill="none" stroke="#000000" points="182,-773.7 178.0108,-773.4067 "/>
<ellipse fill="none" stroke="#000000" cx="174.8194" cy="-773.172" rx="3.2" ry="3.2"/>
</g>
<!-- meteo_config -->
<g id="node10" class="node">
<title>meteo_config</title>
<g id="a_node10"><a xlink:href="../../tables/meteo_config.html" xlink:title="meteo_config" target="_top">
<polygon fill="#ffffff" stroke="transparent" points="156.5,-664.2 156.5,-725.2 273.5,-725.2 273.5,-664.2 156.5,-664.2"/>
<polygon fill="#f5f5f5" stroke="transparent" points="157,-701.7 157,-724.7 274,-724.7 274,-701.7 157,-701.7"/>
<polygon fill="none" stroke="#000000" points="157,-701.7 157,-724.7 274,-724.7 274,-701.7 157,-701.7"/>
<text text-anchor="start" x="162" y="-710.3" font-family="Helvetica,sans-Serif" font-weight="bold" font-size="11.00" fill="#000000">meteo_config</text>
<text text-anchor="start" x="239.5219" y="-709.8" font-family="Helvetica,sans-Serif" font-size="11.00" fill="#000000">[table]</text>
<polygon fill="none" stroke="#000000" points="157,-682.7 157,-701.7 274,-701.7 274,-682.7 157,-682.7"/>
<text text-anchor="start" x="160" y="-688.8" font-family="Helvetica,sans-Serif" font-size="11.00" fill="#000000">...</text>
<polygon fill="#ffffff" stroke="transparent" points="157,-663.7 157,-682.7 214,-682.7 214,-663.7 157,-663.7"/>
<polygon fill="none" stroke="#000000" points="157,-663.7 157,-682.7 214,-682.7 214,-663.7 157,-663.7"/>
<text text-anchor="start" x="160" y="-669.8" font-family="Helvetica,sans-Serif" font-size="11.00" fill="#000000">&lt; 1</text>
<polygon fill="#ffffff" stroke="transparent" points="214,-663.7 214,-682.7 244,-682.7 244,-663.7 214,-663.7"/>
<polygon fill="none" stroke="#000000" points="214,-663.7 214,-682.7 244,-682.7 244,-663.7 214,-663.7"/>
<text text-anchor="start" x="234.8862" y="-669.8" font-family="Helvetica,sans-Serif" font-size="11.00" fill="#000000"> &#160;</text>
<polygon fill="#ffffff" stroke="transparent" points="244,-663.7 244,-682.7 274,-682.7 274,-663.7 244,-663.7"/>
<polygon fill="none" stroke="#000000" points="244,-663.7 244,-682.7 274,-682.7 274,-663.7 244,-663.7"/>
<text text-anchor="start" x="264.8862" y="-669.8" font-family="Helvetica,sans-Serif" font-size="11.00" fill="#000000"> &#160;</text>
</a>
</g>
</g>
<!-- meteo_config&#45;&gt;events -->
<g id="edge9" class="edge">
<title>meteo_config:w&#45;&gt;events:e</title>
<path fill="none" stroke="#000000" stroke-dasharray="5,2" d="M142.66,-694.2647C120.0145,-703.2406 116.551,-732.7 85.5,-732.7"/>
<polygon fill="#000000" stroke="#000000" points="149.125,-693.1085 157.6338,-695.2438 153.0625,-692.4043 157,-691.7 157,-691.7 157,-691.7 153.0625,-692.4043 156.3662,-688.1562 149.125,-693.1085 149.125,-693.1085"/>
<ellipse fill="none" stroke="#000000" cx="145.9749" cy="-693.6719" rx="3.2" ry="3.2"/>
</g>
<!-- outputs -->
<g id="node11" class="node">
<title>outputs</title>
<g id="a_node11"><a xlink:href="../../tables/outputs.html" xlink:title="outputs" target="_top">
<polygon fill="#ffffff" stroke="transparent" points="174,-582.2 174,-643.2 256,-643.2 256,-582.2 174,-582.2"/>
<polygon fill="#f5f5f5" stroke="transparent" points="174,-619.7 174,-642.7 256,-642.7 256,-619.7 174,-619.7"/>
<polygon fill="none" stroke="#000000" points="174,-619.7 174,-642.7 256,-642.7 256,-619.7 174,-619.7"/>
<text text-anchor="start" x="179" y="-628.3" font-family="Helvetica,sans-Serif" font-weight="bold" font-size="11.00" fill="#000000">outputs</text>
<text text-anchor="start" x="221.5219" y="-627.8" font-family="Helvetica,sans-Serif" font-size="11.00" fill="#000000">[table]</text>
<polygon fill="none" stroke="#000000" points="174,-600.7 174,-619.7 256,-619.7 256,-600.7 174,-600.7"/>
<text text-anchor="start" x="177" y="-606.8" font-family="Helvetica,sans-Serif" font-size="11.00" fill="#000000">...</text>
<polygon fill="#ffffff" stroke="transparent" points="174,-581.7 174,-600.7 213,-600.7 213,-581.7 174,-581.7"/>
<polygon fill="none" stroke="#000000" points="174,-581.7 174,-600.7 213,-600.7 213,-581.7 174,-581.7"/>
<text text-anchor="start" x="177" y="-587.8" font-family="Helvetica,sans-Serif" font-size="11.00" fill="#000000">&lt; 1</text>
<polygon fill="#ffffff" stroke="transparent" points="213,-581.7 213,-600.7 234,-600.7 234,-581.7 213,-581.7"/>
<polygon fill="none" stroke="#000000" points="213,-581.7 213,-600.7 234,-600.7 234,-581.7 213,-581.7"/>
<text text-anchor="start" x="224.8862" y="-587.8" font-family="Helvetica,sans-Serif" font-size="11.00" fill="#000000"> &#160;</text>
<polygon fill="#ffffff" stroke="transparent" points="234,-581.7 234,-600.7 256,-600.7 256,-581.7 234,-581.7"/>
<polygon fill="none" stroke="#000000" points="234,-581.7 234,-600.7 256,-600.7 256,-581.7 234,-581.7"/>
<text text-anchor="start" x="246.8862" y="-587.8" font-family="Helvetica,sans-Serif" font-size="11.00" fill="#000000"> &#160;</text>
</a>
</g>
</g>
<!-- outputs&#45;&gt;events -->
<g id="edge10" class="edge">
<title>outputs:w&#45;&gt;events:e</title>
<path fill="none" stroke="#000000" stroke-dasharray="5,2" d="M159.395,-612.1385C143.7827,-618.3085 139.9802,-635.3589 126,-653.7 102.0813,-685.0797 124.9562,-732.7 85.5,-732.7"/>
<polygon fill="#000000" stroke="#000000" points="166.1092,-611.0175 174.5929,-613.2508 170.0546,-610.3588 174,-609.7 174,-609.7 174,-609.7 170.0546,-610.3588 173.4071,-606.1492 166.1092,-611.0175 166.1092,-611.0175"/>
<ellipse fill="none" stroke="#000000" cx="162.9529" cy="-611.5445" rx="3.2" ry="3.2"/>
</g>
<!-- profiles -->
<g id="node12" class="node">
<title>profiles</title>
<g id="a_node12"><a xlink:href="../../tables/profiles.html" xlink:title="profiles" target="_top">
<polygon fill="#ffffff" stroke="transparent" points="174,-500.2 174,-561.2 256,-561.2 256,-500.2 174,-500.2"/>
<polygon fill="#f5f5f5" stroke="transparent" points="174,-537.7 174,-560.7 256,-560.7 256,-537.7 174,-537.7"/>
<polygon fill="none" stroke="#000000" points="174,-537.7 174,-560.7 256,-560.7 256,-537.7 174,-537.7"/>
<text text-anchor="start" x="179" y="-546.3" font-family="Helvetica,sans-Serif" font-weight="bold" font-size="11.00" fill="#000000">profiles</text>
<text text-anchor="start" x="221.5219" y="-545.8" font-family="Helvetica,sans-Serif" font-size="11.00" fill="#000000">[table]</text>
<polygon fill="none" stroke="#000000" points="174,-518.7 174,-537.7 256,-537.7 256,-518.7 174,-518.7"/>
<text text-anchor="start" x="177" y="-524.8" font-family="Helvetica,sans-Serif" font-size="11.00" fill="#000000">...</text>
<polygon fill="#ffffff" stroke="transparent" points="174,-499.7 174,-518.7 213,-518.7 213,-499.7 174,-499.7"/>
<polygon fill="none" stroke="#000000" points="174,-499.7 174,-518.7 213,-518.7 213,-499.7 174,-499.7"/>
<text text-anchor="start" x="177" y="-505.8" font-family="Helvetica,sans-Serif" font-size="11.00" fill="#000000">&lt; 1</text>
<polygon fill="#ffffff" stroke="transparent" points="213,-499.7 213,-518.7 234,-518.7 234,-499.7 213,-499.7"/>
<polygon fill="none" stroke="#000000" points="213,-499.7 213,-518.7 234,-518.7 234,-499.7 213,-499.7"/>
<text text-anchor="start" x="224.8862" y="-505.8" font-family="Helvetica,sans-Serif" font-size="11.00" fill="#000000"> &#160;</text>
<polygon fill="#ffffff" stroke="transparent" points="234,-499.7 234,-518.7 256,-518.7 256,-499.7 234,-499.7"/>
<polygon fill="none" stroke="#000000" points="234,-499.7 234,-518.7 256,-518.7 256,-499.7 234,-499.7"/>
<text text-anchor="start" x="246.8862" y="-505.8" font-family="Helvetica,sans-Serif" font-size="11.00" fill="#000000"> &#160;</text>
</a>
</g>
</g>
<!-- profiles&#45;&gt;events -->
<g id="edge11" class="edge">
<title>profiles:w&#45;&gt;events:e</title>
<path fill="none" stroke="#000000" stroke-dasharray="5,2" d="M163.425,-528.7391C143.7029,-533.0412 138.7944,-550.2413 126,-571.7 88.2138,-635.0751 159.2848,-732.7 85.5,-732.7"/>
<polygon fill="#000000" stroke="#000000" points="172.8126,-523.7974 173.595,-531.7591 172.0027,-531.9155 171.2203,-523.9539 172.8126,-523.7974"/>
<polyline fill="none" stroke="#000000" points="174,-527.7 170.0192,-528.0912 "/>
<ellipse fill="none" stroke="#000000" cx="166.8345" cy="-528.4042" rx="3.2" ry="3.2"/>
</g>
<!-- struct_config -->
<g id="node13" class="node">
<title>struct_config</title>
<g id="a_node13"><a xlink:href="../../tables/struct_config.html" xlink:title="struct_config" target="_top">
<polygon fill="#ffffff" stroke="transparent" points="157.5,-418.2 157.5,-479.2 272.5,-479.2 272.5,-418.2 157.5,-418.2"/>
<polygon fill="#f5f5f5" stroke="transparent" points="158,-455.7 158,-478.7 273,-478.7 273,-455.7 158,-455.7"/>
<polygon fill="none" stroke="#000000" points="158,-455.7 158,-478.7 273,-478.7 273,-455.7 158,-455.7"/>
<text text-anchor="start" x="163" y="-464.3" font-family="Helvetica,sans-Serif" font-weight="bold" font-size="11.00" fill="#000000">struct_config</text>
<text text-anchor="start" x="238.5219" y="-463.8" font-family="Helvetica,sans-Serif" font-size="11.00" fill="#000000">[table]</text>
<polygon fill="none" stroke="#000000" points="158,-436.7 158,-455.7 273,-455.7 273,-436.7 158,-436.7"/>
<text text-anchor="start" x="161" y="-442.8" font-family="Helvetica,sans-Serif" font-size="11.00" fill="#000000">...</text>
<polygon fill="#ffffff" stroke="transparent" points="158,-417.7 158,-436.7 214,-436.7 214,-417.7 158,-417.7"/>
<polygon fill="none" stroke="#000000" points="158,-417.7 158,-436.7 214,-436.7 214,-417.7 158,-417.7"/>
<text text-anchor="start" x="161" y="-423.8" font-family="Helvetica,sans-Serif" font-size="11.00" fill="#000000">&lt; 1</text>
<polygon fill="#ffffff" stroke="transparent" points="214,-417.7 214,-436.7 243,-436.7 243,-417.7 214,-417.7"/>
<polygon fill="none" stroke="#000000" points="214,-417.7 214,-436.7 243,-436.7 243,-417.7 214,-417.7"/>
<text text-anchor="start" x="233.8862" y="-423.8" font-family="Helvetica,sans-Serif" font-size="11.00" fill="#000000"> &#160;</text>
<polygon fill="#ffffff" stroke="transparent" points="243,-417.7 243,-436.7 273,-436.7 273,-417.7 243,-417.7"/>
<polygon fill="none" stroke="#000000" points="243,-417.7 243,-436.7 273,-436.7 273,-417.7 243,-417.7"/>
<text text-anchor="start" x="263.8862" y="-423.8" font-family="Helvetica,sans-Serif" font-size="11.00" fill="#000000"> &#160;</text>
</a>
</g>
</g>
<!-- struct_config&#45;&gt;events -->
<g id="edge12" class="edge">
<title>struct_config:w&#45;&gt;events:e</title>
<path fill="none" stroke="#000000" stroke-dasharray="5,2" d="M143.7976,-449.6654C133.8851,-456.9289 132.9386,-473.1492 126,-489.7 104.8341,-540.1877 140.2449,-732.7 85.5,-732.7"/>
<polygon fill="#000000" stroke="#000000" points="150.2947,-447.8514 158.9681,-449.1674 154.1474,-446.7757 158,-445.7 158,-445.7 158,-445.7 154.1474,-446.7757 157.0319,-442.2326 150.2947,-447.8514 150.2947,-447.8514"/>
<ellipse fill="none" stroke="#000000" cx="147.2126" cy="-448.712" rx="3.2" ry="3.2"/>
</g>
<!-- topo -->
<g id="node14" class="node">
<title>topo</title>
<g id="a_node14"><a xlink:href="../../tables/topo.html" xlink:title="topo" target="_top">
<polygon fill="#ffffff" stroke="transparent" points="183,-336.2 183,-397.2 247,-397.2 247,-336.2 183,-336.2"/>
<polygon fill="#f5f5f5" stroke="transparent" points="183,-373.7 183,-396.7 247,-396.7 247,-373.7 183,-373.7"/>
<polygon fill="none" stroke="#000000" points="183,-373.7 183,-396.7 247,-396.7 247,-373.7 183,-373.7"/>
<text text-anchor="start" x="187.7992" y="-382.3" font-family="Helvetica,sans-Serif" font-weight="bold" font-size="11.00" fill="#000000">topo</text>
<text text-anchor="start" x="212.5219" y="-381.8" font-family="Helvetica,sans-Serif" font-size="11.00" fill="#000000">[table]</text>
<polygon fill="none" stroke="#000000" points="183,-354.7 183,-373.7 247,-373.7 247,-354.7 183,-354.7"/>
<text text-anchor="start" x="186" y="-360.8" font-family="Helvetica,sans-Serif" font-size="11.00" fill="#000000">...</text>
<polygon fill="#ffffff" stroke="transparent" points="183,-335.7 183,-354.7 213,-354.7 213,-335.7 183,-335.7"/>
<polygon fill="none" stroke="#000000" points="183,-335.7 183,-354.7 213,-354.7 213,-335.7 183,-335.7"/>
<text text-anchor="start" x="186" y="-341.8" font-family="Helvetica,sans-Serif" font-size="11.00" fill="#000000">&lt; 1</text>
<polygon fill="#ffffff" stroke="transparent" points="213,-335.7 213,-354.7 230,-354.7 230,-335.7 213,-335.7"/>
<polygon fill="none" stroke="#000000" points="213,-335.7 213,-354.7 230,-354.7 230,-335.7 213,-335.7"/>
<text text-anchor="start" x="220.8862" y="-341.8" font-family="Helvetica,sans-Serif" font-size="11.00" fill="#000000"> &#160;</text>
<polygon fill="#ffffff" stroke="transparent" points="230,-335.7 230,-354.7 247,-354.7 247,-335.7 230,-335.7"/>
<polygon fill="none" stroke="#000000" points="230,-335.7 230,-354.7 247,-354.7 247,-335.7 230,-335.7"/>
<text text-anchor="start" x="237.8862" y="-341.8" font-family="Helvetica,sans-Serif" font-size="11.00" fill="#000000"> &#160;</text>
</a>
</g>
</g>
<!-- topo&#45;&gt;events -->
<g id="edge13" class="edge">
<title>topo:w&#45;&gt;events:e</title>
<path fill="none" stroke="#000000" stroke-dasharray="5,2" d="M168.375,-365.1128C147.659,-369.6132 139.1385,-384.6834 126,-407.7 89.9193,-470.9079 158.2808,-732.7 85.5,-732.7"/>
<polygon fill="#000000" stroke="#000000" points="175.0371,-364.4693 183.3462,-367.2833 179.0185,-364.0846 183,-363.7 183,-363.7 183,-363.7 179.0185,-364.0846 182.6538,-360.1167 175.0371,-364.4693 175.0371,-364.4693"/>
<ellipse fill="none" stroke="#000000" cx="171.8519" cy="-364.777" rx="3.2" ry="3.2"/>
</g>
<!-- tracer_config -->
<g id="node15" class="node">
<title>tracer_config</title>
<g id="a_node15"><a xlink:href="../../tables/tracer_config.html" xlink:title="tracer_config" target="_top">
<polygon fill="#ffffff" stroke="transparent" points="134,-202.7 134,-314.7 296,-314.7 296,-202.7 134,-202.7"/>
<polygon fill="#f5f5f5" stroke="transparent" points="136,-289.7 136,-312.7 294,-312.7 294,-289.7 136,-289.7"/>
<polygon fill="none" stroke="#000000" points="136,-289.7 136,-312.7 294,-312.7 294,-289.7 136,-289.7"/>
<text text-anchor="start" x="141" y="-298.3" font-family="Helvetica,sans-Serif" font-weight="bold" font-size="11.00" fill="#000000">tracer_config</text>
<text text-anchor="start" x="259.0437" y="-297.8" font-family="Helvetica,sans-Serif" font-size="11.00" fill="#000000">[table]</text>
<polygon fill="none" stroke="#000000" points="136,-267.7 136,-289.7 233,-289.7 233,-267.7 136,-267.7"/>
<image xlink:href="../../images/primaryKeys.png" width="11px" height="12px" preserveAspectRatio="xMinYMin meet" x="141" y="-284.7"/>
<text text-anchor="start" x="156" y="-274.8" font-family="Helvetica,sans-Serif" font-size="11.00" fill="#000000">id</text>
<polygon fill="none" stroke="#000000" points="233,-267.7 233,-289.7 294,-289.7 294,-267.7 233,-267.7"/>
<text text-anchor="start" x="236" y="-275.4" font-family="Helvetica,sans-Serif" font-size="11.00" fill="#000000">serial[10]</text>
<polygon fill="none" stroke="#000000" points="136,-245.7 136,-267.7 233,-267.7 233,-245.7 136,-245.7"/>
<image xlink:href="../../images/foreignKeys.png" width="11px" height="12px" preserveAspectRatio="xMinYMin meet" x="141" y="-262.7"/>
<text text-anchor="start" x="156" y="-252.8" font-family="Helvetica,sans-Serif" font-size="11.00" fill="#000000">name</text>
<polygon fill="none" stroke="#000000" points="233,-245.7 233,-267.7 294,-267.7 294,-245.7 233,-245.7"/>
<text text-anchor="start" x="235.994" y="-253.4" font-family="Helvetica,sans-Serif" font-size="11.00" fill="#000000">varchar[30]</text>
<polygon fill="none" stroke="#000000" points="136,-223.7 136,-245.7 233,-245.7 233,-223.7 136,-223.7"/>
<text text-anchor="start" x="156" y="-230.8" font-family="Helvetica,sans-Serif" font-size="11.00" fill="#000000">type</text>
<polygon fill="none" stroke="#000000" points="233,-223.7 233,-245.7 294,-245.7 294,-223.7 233,-223.7"/>
<text text-anchor="start" x="236" y="-231.4" font-family="Helvetica,sans-Serif" font-size="11.00" fill="#000000">int4[10]</text>
<polygon fill="#ffffff" stroke="transparent" points="136,-204.7 136,-223.7 189,-223.7 189,-204.7 136,-204.7"/>
<polygon fill="none" stroke="#000000" points="136,-204.7 136,-223.7 189,-223.7 189,-204.7 136,-204.7"/>
<text text-anchor="start" x="139" y="-210.8" font-family="Helvetica,sans-Serif" font-size="11.00" fill="#000000">&lt; 1</text>
<polygon fill="#ffffff" stroke="transparent" points="189,-204.7 189,-223.7 233,-223.7 233,-204.7 189,-204.7"/>
<polygon fill="none" stroke="#000000" points="189,-204.7 189,-223.7 233,-223.7 233,-204.7 189,-204.7"/>
<text text-anchor="start" x="223.8862" y="-210.8" font-family="Helvetica,sans-Serif" font-size="11.00" fill="#000000"> &#160;</text>
<polygon fill="#ffffff" stroke="transparent" points="233,-204.7 233,-223.7 294,-223.7 294,-204.7 233,-204.7"/>
<polygon fill="none" stroke="#000000" points="233,-204.7 233,-223.7 294,-223.7 294,-204.7 233,-204.7"/>
<text text-anchor="start" x="275.4053" y="-210.8" font-family="Helvetica,sans-Serif" font-size="11.00" fill="#000000">0 &gt;</text>
<polygon fill="none" stroke="#000000" stroke-width="2" points="135,-203.7 135,-313.7 295,-313.7 295,-203.7 135,-203.7"/>
</a>
</g>
</g>
<!-- tracer_config&#45;&gt;events -->
<g id="edge14" class="edge">
<title>tracer_config:w&#45;&gt;events:e</title>
<path fill="none" stroke="#000000" stroke-dasharray="5,2" d="M121.8027,-260.2578C45.4137,-303.8163 186.4697,-732.7 85.5,-732.7"/>
<polygon fill="#000000" stroke="#000000" points="128.2399,-258.6447 136.8751,-260.192 132.12,-257.6723 136,-256.7 136,-256.7 136,-256.7 132.12,-257.6723 135.1249,-253.208 128.2399,-258.6447 128.2399,-258.6447"/>
<ellipse fill="none" stroke="#000000" cx="125.1359" cy="-259.4225" rx="3.2" ry="3.2"/>
</g>
<!-- tracer_lateral_inflows -->
<g id="node16" class="node">
<title>tracer_lateral_inflows</title>
<g id="a_node16"><a xlink:href="../../tables/tracer_lateral_inflows.html" xlink:title="tracer_lateral_inflows" target="_top">
<polygon fill="#ffffff" stroke="transparent" points="134,-120.2 134,-181.2 296,-181.2 296,-120.2 134,-120.2"/>
<polygon fill="#f5f5f5" stroke="transparent" points="134,-157.7 134,-180.7 296,-180.7 296,-157.7 134,-157.7"/>
<polygon fill="none" stroke="#000000" points="134,-157.7 134,-180.7 296,-180.7 296,-157.7 134,-157.7"/>
<text text-anchor="start" x="139" y="-166.3" font-family="Helvetica,sans-Serif" font-weight="bold" font-size="11.00" fill="#000000">tracer_lateral_inflows</text>
<text text-anchor="start" x="261.5219" y="-165.8" font-family="Helvetica,sans-Serif" font-size="11.00" fill="#000000">[table]</text>
<polygon fill="none" stroke="#000000" points="134,-138.7 134,-157.7 296,-157.7 296,-138.7 134,-138.7"/>
<text text-anchor="start" x="137" y="-144.8" font-family="Helvetica,sans-Serif" font-size="11.00" fill="#000000">...</text>
<polygon fill="#ffffff" stroke="transparent" points="134,-119.7 134,-138.7 213,-138.7 213,-119.7 134,-119.7"/>
<polygon fill="none" stroke="#000000" points="134,-119.7 134,-138.7 213,-138.7 213,-119.7 134,-119.7"/>
<text text-anchor="start" x="137" y="-125.8" font-family="Helvetica,sans-Serif" font-size="11.00" fill="#000000">&lt; 1</text>
<polygon fill="#ffffff" stroke="transparent" points="213,-119.7 213,-138.7 254,-138.7 254,-119.7 213,-119.7"/>
<polygon fill="none" stroke="#000000" points="213,-119.7 213,-138.7 254,-138.7 254,-119.7 213,-119.7"/>
<text text-anchor="start" x="244.8862" y="-125.8" font-family="Helvetica,sans-Serif" font-size="11.00" fill="#000000"> &#160;</text>
<polygon fill="#ffffff" stroke="transparent" points="254,-119.7 254,-138.7 296,-138.7 296,-119.7 254,-119.7"/>
<polygon fill="none" stroke="#000000" points="254,-119.7 254,-138.7 296,-138.7 296,-119.7 254,-119.7"/>
<text text-anchor="start" x="286.8862" y="-125.8" font-family="Helvetica,sans-Serif" font-size="11.00" fill="#000000"> &#160;</text>
</a>
</g>
</g>
<!-- tracer_lateral_inflows&#45;&gt;events -->
<g id="edge15" class="edge">
<title>tracer_lateral_inflows:w&#45;&gt;events:e</title>
<path fill="none" stroke="#000000" stroke-dasharray="5,2" d="M122.0545,-156.4236C79.8522,-229.1957 146.0096,-732.7 85.5,-732.7"/>
<polygon fill="#000000" stroke="#000000" points="127.5394,-152.4181 136.1231,-150.6073 130.7697,-150.0591 134,-147.7 134,-147.7 134,-147.7 130.7697,-150.0591 131.8769,-144.7927 127.5394,-152.4181 127.5394,-152.4181"/>
<ellipse fill="none" stroke="#000000" cx="124.9551" cy="-154.3054" rx="3.2" ry="3.2"/>
</g>
<!-- weirs -->
<g id="node17" class="node">
<title>weirs</title>
<g id="a_node17"><a xlink:href="../../tables/weirs.html" xlink:title="weirs" target="_top">
<polygon fill="#ffffff" stroke="transparent" points="180.5,-38.2 180.5,-99.2 249.5,-99.2 249.5,-38.2 180.5,-38.2"/>
<polygon fill="#f5f5f5" stroke="transparent" points="181,-75.7 181,-98.7 250,-98.7 250,-75.7 181,-75.7"/>
<polygon fill="none" stroke="#000000" points="181,-75.7 181,-98.7 250,-98.7 250,-75.7 181,-75.7"/>
<text text-anchor="start" x="186" y="-84.3" font-family="Helvetica,sans-Serif" font-weight="bold" font-size="11.00" fill="#000000">weirs</text>
<text text-anchor="start" x="215.5219" y="-83.8" font-family="Helvetica,sans-Serif" font-size="11.00" fill="#000000">[table]</text>
<polygon fill="none" stroke="#000000" points="181,-56.7 181,-75.7 250,-75.7 250,-56.7 181,-56.7"/>
<text text-anchor="start" x="184" y="-62.8" font-family="Helvetica,sans-Serif" font-size="11.00" fill="#000000">...</text>
<polygon fill="#ffffff" stroke="transparent" points="181,-37.7 181,-56.7 214,-56.7 214,-37.7 181,-37.7"/>
<polygon fill="none" stroke="#000000" points="181,-37.7 181,-56.7 214,-56.7 214,-37.7 181,-37.7"/>
<text text-anchor="start" x="184" y="-43.8" font-family="Helvetica,sans-Serif" font-size="11.00" fill="#000000">&lt; 1</text>
<polygon fill="#ffffff" stroke="transparent" points="214,-37.7 214,-56.7 232,-56.7 232,-37.7 214,-37.7"/>
<polygon fill="none" stroke="#000000" points="214,-37.7 214,-56.7 232,-56.7 232,-37.7 214,-37.7"/>
<text text-anchor="start" x="222.8862" y="-43.8" font-family="Helvetica,sans-Serif" font-size="11.00" fill="#000000"> &#160;</text>
<polygon fill="#ffffff" stroke="transparent" points="232,-37.7 232,-56.7 250,-56.7 250,-37.7 232,-37.7"/>
<polygon fill="none" stroke="#000000" points="232,-37.7 232,-56.7 250,-56.7 250,-37.7 232,-37.7"/>
<text text-anchor="start" x="240.8862" y="-43.8" font-family="Helvetica,sans-Serif" font-size="11.00" fill="#000000"> &#160;</text>
</a>
</g>
</g>
<!-- weirs&#45;&gt;events -->
<g id="edge16" class="edge">
<title>weirs:w&#45;&gt;events:e</title>
<path fill="none" stroke="#000000" stroke-dasharray="5,2" d="M166.3901,-67.1798C146.2901,-71.7654 137.9257,-86.82 126,-109.7 93.9372,-171.2138 154.8683,-732.7 85.5,-732.7"/>
<polygon fill="#000000" stroke="#000000" points="173.0407,-66.5062 181.3628,-69.2817 177.0204,-66.1031 181,-65.7 181,-65.7 181,-65.7 177.0204,-66.1031 180.6372,-62.1183 173.0407,-66.5062 173.0407,-66.5062"/>
<ellipse fill="none" stroke="#000000" cx="169.857" cy="-66.8287" rx="3.2" ry="3.2"/>
</g>
</g>
</svg>
