<?xml version="1.0" encoding="UTF-8" standalone="no"?>
<!DOCTYPE svg PUBLIC "-//W3C//DTD SVG 1.1//EN"
 "http://www.w3.org/Graphics/SVG/1.1/DTD/svg11.dtd">
<!-- Generated by graphviz version 2.40.1 (20161225.0304)
 -->
<!-- Title: oneDegreeRelationshipsDiagramImplied Pages: 1 -->
<svg width="312pt" height="162pt"
 viewBox="0.00 0.00 312.00 162.20" xmlns="http://www.w3.org/2000/svg" xmlns:xlink="http://www.w3.org/1999/xlink">
<g id="graph0" class="graph" transform="scale(1 1) rotate(0) translate(4 158.2)">
<title>oneDegreeRelationshipsDiagramImplied</title>
<polygon fill="#ffffff" stroke="transparent" points="-4,4 -4,-158.2 308,-158.2 308,4 -4,4"/>
<text text-anchor="middle" x="72.4936" y="-7.3" font-family="Helvetica,sans-Serif" font-size="11.00" fill="#000000">Generated by SchemaSpy</text>
<!-- tracer_config -->
<g id="node1" class="node">
<title>tracer_config</title>
<g id="a_node1"><a xlink:href="../../tables/tracer_config.html" xlink:title="tracer_config" target="_top">
<polygon fill="#ffffff" stroke="transparent" points="134,-38.2 134,-150.2 296,-150.2 296,-38.2 134,-38.2"/>
<polygon fill="#f5f5f5" stroke="transparent" points="136,-125.2 136,-148.2 294,-148.2 294,-125.2 136,-125.2"/>
<polygon fill="none" stroke="#000000" points="136,-125.2 136,-148.2 294,-148.2 294,-125.2 136,-125.2"/>
<text text-anchor="start" x="141" y="-133.8" font-family="Helvetica,sans-Serif" font-weight="bold" font-size="11.00" fill="#000000">tracer_config</text>
<text text-anchor="start" x="259.0437" y="-133.3" font-family="Helvetica,sans-Serif" font-size="11.00" fill="#000000">[table]</text>
<polygon fill="none" stroke="#000000" points="136,-103.2 136,-125.2 233,-125.2 233,-103.2 136,-103.2"/>
<image xlink:href="../../images/primaryKeys.png" width="11px" height="12px" preserveAspectRatio="xMinYMin meet" x="141" y="-120.2"/>
<text text-anchor="start" x="156" y="-110.3" font-family="Helvetica,sans-Serif" font-size="11.00" fill="#000000">id</text>
<polygon fill="none" stroke="#000000" points="233,-103.2 233,-125.2 294,-125.2 294,-103.2 233,-103.2"/>
<text text-anchor="start" x="236" y="-110.9" font-family="Helvetica,sans-Serif" font-size="11.00" fill="#000000">serial[10]</text>
<polygon fill="none" stroke="#000000" points="136,-81.2 136,-103.2 233,-103.2 233,-81.2 136,-81.2"/>
<image xlink:href="../../images/foreignKeys.png" width="11px" height="12px" preserveAspectRatio="xMinYMin meet" x="141" y="-98.2"/>
<text text-anchor="start" x="156" y="-88.3" font-family="Helvetica,sans-Serif" font-size="11.00" fill="#000000">name</text>
<polygon fill="none" stroke="#000000" points="233,-81.2 233,-103.2 294,-103.2 294,-81.2 233,-81.2"/>
<text text-anchor="start" x="235.994" y="-88.9" font-family="Helvetica,sans-Serif" font-size="11.00" fill="#000000">varchar[30]</text>
<polygon fill="none" stroke="#000000" points="136,-59.2 136,-81.2 233,-81.2 233,-59.2 136,-59.2"/>
<text text-anchor="start" x="156" y="-66.3" font-family="Helvetica,sans-Serif" font-size="11.00" fill="#000000">type</text>
<polygon fill="none" stroke="#000000" points="233,-59.2 233,-81.2 294,-81.2 294,-59.2 233,-59.2"/>
<text text-anchor="start" x="236" y="-66.9" font-family="Helvetica,sans-Serif" font-size="11.00" fill="#000000">int4[10]</text>
<polygon fill="#ffffff" stroke="transparent" points="136,-40.2 136,-59.2 189,-59.2 189,-40.2 136,-40.2"/>
<polygon fill="none" stroke="#000000" points="136,-40.2 136,-59.2 189,-59.2 189,-40.2 136,-40.2"/>
<text text-anchor="start" x="139" y="-46.3" font-family="Helvetica,sans-Serif" font-size="11.00" fill="#000000">&lt; 1</text>
<polygon fill="#ffffff" stroke="transparent" points="189,-40.2 189,-59.2 233,-59.2 233,-40.2 189,-40.2"/>
<polygon fill="none" stroke="#000000" points="189,-40.2 189,-59.2 233,-59.2 233,-40.2 189,-40.2"/>
<text text-anchor="start" x="223.8862" y="-46.3" font-family="Helvetica,sans-Serif" font-size="11.00" fill="#000000"> &#160;</text>
<polygon fill="#ffffff" stroke="transparent" points="233,-40.2 233,-59.2 294,-59.2 294,-40.2 233,-40.2"/>
<polygon fill="none" stroke="#000000" points="233,-40.2 233,-59.2 294,-59.2 294,-40.2 233,-40.2"/>
<text text-anchor="start" x="275.4053" y="-46.3" font-family="Helvetica,sans-Serif" font-size="11.00" fill="#000000">0 &gt;</text>
<polygon fill="none" stroke="#000000" stroke-width="2" points="135,-39.2 135,-149.2 295,-149.2 295,-39.2 135,-39.2"/>
</a>
</g>
</g>
<!-- events -->
<g id="node2" class="node">
<title>events</title>
<g id="a_node2"><a xlink:href="../../tables/events.html" xlink:title="events" target="_top">
<polygon fill="#ffffff" stroke="transparent" points="8,-43.7 8,-126.7 85,-126.7 85,-43.7 8,-43.7"/>
<polygon fill="#f5f5f5" stroke="transparent" points="8.5,-103.2 8.5,-126.2 85.5,-126.2 85.5,-103.2 8.5,-103.2"/>
<polygon fill="none" stroke="#000000" points="8.5,-103.2 8.5,-126.2 85.5,-126.2 85.5,-103.2 8.5,-103.2"/>
<text text-anchor="start" x="13.5" y="-111.8" font-family="Helvetica,sans-Serif" font-weight="bold" font-size="11.00" fill="#000000">events</text>
<text text-anchor="start" x="51.0219" y="-111.3" font-family="Helvetica,sans-Serif" font-size="11.00" fill="#000000">[table]</text>
<polygon fill="none" stroke="#000000" points="8.5,-81.2 8.5,-103.2 85.5,-103.2 85.5,-81.2 8.5,-81.2"/>
<image xlink:href="../../images/primaryKeys.png" width="11px" height="12px" preserveAspectRatio="xMinYMin meet" x="13.5" y="-98.2"/>
<text text-anchor="start" x="31.5" y="-88.3" font-family="Helvetica,sans-Serif" font-size="11.00" fill="#000000">name</text>
<polygon fill="none" stroke="#000000" points="8.5,-62.2 8.5,-81.2 85.5,-81.2 85.5,-62.2 8.5,-62.2"/>
<text text-anchor="start" x="11.5" y="-68.3" font-family="Helvetica,sans-Serif" font-size="11.00" fill="#000000">...</text>
<polygon fill="#ffffff" stroke="transparent" points="8.5,-43.2 8.5,-62.2 33.5,-62.2 33.5,-43.2 8.5,-43.2"/>
<polygon fill="none" stroke="#000000" points="8.5,-43.2 8.5,-62.2 33.5,-62.2 33.5,-43.2 8.5,-43.2"/>
<text text-anchor="start" x="11.5" y="-49.3" font-family="Helvetica,sans-Serif" font-size="11.00" fill="#000000"> &#160;</text>
<polygon fill="#ffffff" stroke="transparent" points="33.5,-43.2 33.5,-62.2 51.5,-62.2 51.5,-43.2 33.5,-43.2"/>
<polygon fill="none" stroke="#000000" points="33.5,-43.2 33.5,-62.2 51.5,-62.2 51.5,-43.2 33.5,-43.2"/>
<text text-anchor="start" x="42.3862" y="-49.3" font-family="Helvetica,sans-Serif" font-size="11.00" fill="#000000"> &#160;</text>
<polygon fill="#ffffff" stroke="transparent" points="51.5,-43.2 51.5,-62.2 85.5,-62.2 85.5,-43.2 51.5,-43.2"/>
<polygon fill="none" stroke="#000000" points="51.5,-43.2 51.5,-62.2 85.5,-62.2 85.5,-43.2 51.5,-43.2"/>
<text text-anchor="start" x="60.7904" y="-49.3" font-family="Helvetica,sans-Serif" font-size="11.00" fill="#000000">16 &gt;</text>
</a>
</g>
</g>
<!-- tracer_config&#45;&gt;events -->
<g id="edge1" class="edge">
<title>tracer_config:w&#45;&gt;events:e</title>
<path fill="none" stroke="#000000" stroke-dasharray="5,2" d="M121.4203,-92.2C109.5435,-92.2 102.158,-92.2 85.5,-92.2"/>
<polygon fill="#000000" stroke="#000000" points="128,-92.2001 136,-95.8 132,-92.2 136,-92.2 136,-92.2 136,-92.2 132,-92.2 136,-88.6 128,-92.2001 128,-92.2001"/>
<ellipse fill="none" stroke="#000000" cx="124.8" cy="-92.2001" rx="3.2" ry="3.2"/>
</g>
</g>
</svg>
