<?xml version="1.0" encoding="UTF-8" standalone="no"?>
<!DOCTYPE svg PUBLIC "-//W3C//DTD SVG 1.1//EN"
 "http://www.w3.org/Graphics/SVG/1.1/DTD/svg11.dtd">
<!-- Generated by graphviz version 2.40.1 (20161225.0304)
 -->
<!-- Title: oneDegreeRelationshipsDiagramImplied Pages: 1 -->
<svg width="387pt" height="448pt"
 viewBox="0.00 0.00 387.00 448.20" xmlns="http://www.w3.org/2000/svg" xmlns:xlink="http://www.w3.org/1999/xlink">
<g id="graph0" class="graph" transform="scale(1 1) rotate(0) translate(4 444.2)">
<title>oneDegreeRelationshipsDiagramImplied</title>
<polygon fill="#ffffff" stroke="transparent" points="-4,4 -4,-444.2 383,-444.2 383,4 -4,4"/>
<text text-anchor="middle" x="72.4936" y="-7.3" font-family="Helvetica,sans-Serif" font-size="11.00" fill="#000000">Generated by SchemaSpy</text>
<!-- weirs -->
<g id="node1" class="node">
<title>weirs</title>
<g id="a_node1"><a xlink:href="../../tables/weirs.html" xlink:title="weirs" target="_top">
<polygon fill="#ffffff" stroke="transparent" points="134,-38.2 134,-436.2 371,-436.2 371,-38.2 134,-38.2"/>
<polygon fill="#f5f5f5" stroke="transparent" points="136.5,-411.2 136.5,-434.2 369.5,-434.2 369.5,-411.2 136.5,-411.2"/>
<polygon fill="none" stroke="#000000" points="136.5,-411.2 136.5,-434.2 369.5,-434.2 369.5,-411.2 136.5,-411.2"/>
<text text-anchor="start" x="141.5" y="-419.8" font-family="Helvetica,sans-Serif" font-weight="bold" font-size="11.00" fill="#000000">weirs</text>
<text text-anchor="start" x="334.5437" y="-419.3" font-family="Helvetica,sans-Serif" font-size="11.00" fill="#000000">[table]</text>
<polygon fill="#ffffff" stroke="transparent" points="136.5,-389.2 136.5,-411.2 250.5,-411.2 250.5,-389.2 136.5,-389.2"/>
<polygon fill="none" stroke="#000000" points="136.5,-389.2 136.5,-411.2 250.5,-411.2 250.5,-389.2 136.5,-389.2"/>
<text text-anchor="start" x="156.5" y="-396.3" font-family="Helvetica,sans-Serif" font-size="11.00" fill="#000000">geom</text>
<polygon fill="none" stroke="#000000" points="250.5,-389.2 250.5,-411.2 369.5,-411.2 369.5,-389.2 250.5,-389.2"/>
<text text-anchor="start" x="253.4485" y="-396.9" font-family="Helvetica,sans-Serif" font-size="11.00" fill="#000000">geometry[2147483647]</text>
<polygon fill="none" stroke="#000000" points="136.5,-367.2 136.5,-389.2 250.5,-389.2 250.5,-367.2 136.5,-367.2"/>
<image xlink:href="../../images/primaryKeys.png" width="11px" height="12px" preserveAspectRatio="xMinYMin meet" x="141.5" y="-384.2"/>
<text text-anchor="start" x="156.5" y="-374.3" font-family="Helvetica,sans-Serif" font-size="11.00" fill="#000000">gid</text>
<polygon fill="none" stroke="#000000" points="250.5,-367.2 250.5,-389.2 369.5,-389.2 369.5,-367.2 250.5,-367.2"/>
<text text-anchor="start" x="253.5" y="-374.9" font-family="Helvetica,sans-Serif" font-size="11.00" fill="#000000">serial[10]</text>
<polygon fill="none" stroke="#000000" points="136.5,-345.2 136.5,-367.2 250.5,-367.2 250.5,-345.2 136.5,-345.2"/>
<image xlink:href="../../images/foreignKeys.png" width="11px" height="12px" preserveAspectRatio="xMinYMin meet" x="141.5" y="-362.2"/>
<text text-anchor="start" x="156.5" y="-352.3" font-family="Helvetica,sans-Serif" font-size="11.00" fill="#000000">name</text>
<polygon fill="none" stroke="#000000" points="250.5,-345.2 250.5,-367.2 369.5,-367.2 369.5,-345.2 250.5,-345.2"/>
<text text-anchor="start" x="253.5" y="-352.9" font-family="Helvetica,sans-Serif" font-size="11.00" fill="#000000">varchar[30]</text>
<polygon fill="none" stroke="#000000" points="136.5,-323.2 136.5,-345.2 250.5,-345.2 250.5,-323.2 136.5,-323.2"/>
<text text-anchor="start" x="156.5" y="-330.3" font-family="Helvetica,sans-Serif" font-size="11.00" fill="#000000">type</text>
<polygon fill="none" stroke="#000000" points="250.5,-323.2 250.5,-345.2 369.5,-345.2 369.5,-323.2 250.5,-323.2"/>
<text text-anchor="start" x="253.5" y="-330.9" font-family="Helvetica,sans-Serif" font-size="11.00" fill="#000000">int4[10]</text>
<polygon fill="none" stroke="#000000" points="136.5,-301.2 136.5,-323.2 250.5,-323.2 250.5,-301.2 136.5,-301.2"/>
<text text-anchor="start" x="156.5" y="-308.3" font-family="Helvetica,sans-Serif" font-size="11.00" fill="#000000">branchnum</text>
<polygon fill="none" stroke="#000000" points="250.5,-301.2 250.5,-323.2 369.5,-323.2 369.5,-301.2 250.5,-301.2"/>
<text text-anchor="start" x="253.5" y="-308.9" font-family="Helvetica,sans-Serif" font-size="11.00" fill="#000000">int4[10]</text>
<polygon fill="none" stroke="#000000" points="136.5,-279.2 136.5,-301.2 250.5,-301.2 250.5,-279.2 136.5,-279.2"/>
<text text-anchor="start" x="156.5" y="-286.3" font-family="Helvetica,sans-Serif" font-size="11.00" fill="#000000">abscissa</text>
<polygon fill="none" stroke="#000000" points="250.5,-279.2 250.5,-301.2 369.5,-301.2 369.5,-279.2 250.5,-279.2"/>
<text text-anchor="start" x="253.5" y="-286.9" font-family="Helvetica,sans-Serif" font-size="11.00" fill="#000000">float8[17,17]</text>
<polygon fill="none" stroke="#000000" points="136.5,-257.2 136.5,-279.2 250.5,-279.2 250.5,-257.2 136.5,-257.2"/>
<text text-anchor="start" x="156.5" y="-264.3" font-family="Helvetica,sans-Serif" font-size="11.00" fill="#000000">z_crest</text>
<polygon fill="none" stroke="#000000" points="250.5,-257.2 250.5,-279.2 369.5,-279.2 369.5,-257.2 250.5,-257.2"/>
<text text-anchor="start" x="253.5" y="-264.9" font-family="Helvetica,sans-Serif" font-size="11.00" fill="#000000">float8[17,17]</text>
<polygon fill="none" stroke="#000000" points="136.5,-235.2 136.5,-257.2 250.5,-257.2 250.5,-235.2 136.5,-235.2"/>
<text text-anchor="start" x="156.5" y="-242.3" font-family="Helvetica,sans-Serif" font-size="11.00" fill="#000000">z_average_crest</text>
<polygon fill="none" stroke="#000000" points="250.5,-235.2 250.5,-257.2 369.5,-257.2 369.5,-235.2 250.5,-235.2"/>
<text text-anchor="start" x="253.5" y="-242.9" font-family="Helvetica,sans-Serif" font-size="11.00" fill="#000000">float8[17,17]</text>
<polygon fill="none" stroke="#000000" points="136.5,-213.2 136.5,-235.2 250.5,-235.2 250.5,-213.2 136.5,-213.2"/>
<text text-anchor="start" x="156.5" y="-220.3" font-family="Helvetica,sans-Serif" font-size="11.00" fill="#000000">z_break</text>
<polygon fill="none" stroke="#000000" points="250.5,-213.2 250.5,-235.2 369.5,-235.2 369.5,-213.2 250.5,-213.2"/>
<text text-anchor="start" x="253.5" y="-220.9" font-family="Helvetica,sans-Serif" font-size="11.00" fill="#000000">float8[17,17]</text>
<polygon fill="none" stroke="#000000" points="136.5,-191.2 136.5,-213.2 250.5,-213.2 250.5,-191.2 136.5,-191.2"/>
<text text-anchor="start" x="156.5" y="-198.3" font-family="Helvetica,sans-Serif" font-size="11.00" fill="#000000">flowratecoeff</text>
<polygon fill="none" stroke="#000000" points="250.5,-191.2 250.5,-213.2 369.5,-213.2 369.5,-191.2 250.5,-191.2"/>
<text text-anchor="start" x="253.5" y="-198.9" font-family="Helvetica,sans-Serif" font-size="11.00" fill="#000000">float8[17,17]</text>
<polygon fill="none" stroke="#000000" points="136.5,-169.2 136.5,-191.2 250.5,-191.2 250.5,-169.2 136.5,-169.2"/>
<text text-anchor="start" x="156.5" y="-176.3" font-family="Helvetica,sans-Serif" font-size="11.00" fill="#000000">thickness</text>
<polygon fill="none" stroke="#000000" points="250.5,-169.2 250.5,-191.2 369.5,-191.2 369.5,-169.2 250.5,-169.2"/>
<text text-anchor="start" x="253.5" y="-176.9" font-family="Helvetica,sans-Serif" font-size="11.00" fill="#000000">int4[10]</text>
<polygon fill="none" stroke="#000000" points="136.5,-147.2 136.5,-169.2 250.5,-169.2 250.5,-147.2 136.5,-147.2"/>
<text text-anchor="start" x="156.5" y="-154.3" font-family="Helvetica,sans-Serif" font-size="11.00" fill="#000000">wide_floodgate</text>
<polygon fill="none" stroke="#000000" points="250.5,-147.2 250.5,-169.2 369.5,-169.2 369.5,-147.2 250.5,-147.2"/>
<text text-anchor="start" x="253.5" y="-154.9" font-family="Helvetica,sans-Serif" font-size="11.00" fill="#000000">float8[17,17]</text>
<polygon fill="none" stroke="#000000" points="136.5,-125.2 136.5,-147.2 250.5,-147.2 250.5,-125.2 136.5,-125.2"/>
<text text-anchor="start" x="156.5" y="-132.3" font-family="Helvetica,sans-Serif" font-size="11.00" fill="#000000">lawfile</text>
<polygon fill="none" stroke="#000000" points="250.5,-125.2 250.5,-147.2 369.5,-147.2 369.5,-125.2 250.5,-125.2"/>
<text text-anchor="start" x="253.5" y="-132.9" font-family="Helvetica,sans-Serif" font-size="11.00" fill="#000000">text[2147483647]</text>
<polygon fill="none" stroke="#000000" points="136.5,-103.2 136.5,-125.2 250.5,-125.2 250.5,-103.2 136.5,-103.2"/>
<text text-anchor="start" x="156.5" y="-110.3" font-family="Helvetica,sans-Serif" font-size="11.00" fill="#000000">active</text>
<polygon fill="none" stroke="#000000" points="250.5,-103.2 250.5,-125.2 369.5,-125.2 369.5,-103.2 250.5,-103.2"/>
<text text-anchor="start" x="253.5" y="-110.9" font-family="Helvetica,sans-Serif" font-size="11.00" fill="#000000">bool[1]</text>
<polygon fill="none" stroke="#000000" points="136.5,-81.2 136.5,-103.2 250.5,-103.2 250.5,-81.2 136.5,-81.2"/>
<text text-anchor="start" x="156.5" y="-88.3" font-family="Helvetica,sans-Serif" font-size="11.00" fill="#000000">active_mob</text>
<polygon fill="none" stroke="#000000" points="250.5,-81.2 250.5,-103.2 369.5,-103.2 369.5,-81.2 250.5,-81.2"/>
<text text-anchor="start" x="253.5" y="-88.9" font-family="Helvetica,sans-Serif" font-size="11.00" fill="#000000">bool[1]</text>
<polygon fill="none" stroke="#000000" points="136.5,-59.2 136.5,-81.2 250.5,-81.2 250.5,-59.2 136.5,-59.2"/>
<text text-anchor="start" x="156.5" y="-66.3" font-family="Helvetica,sans-Serif" font-size="11.00" fill="#000000">method_mob</text>
<polygon fill="none" stroke="#000000" points="250.5,-59.2 250.5,-81.2 369.5,-81.2 369.5,-59.2 250.5,-59.2"/>
<text text-anchor="start" x="253.5" y="-66.9" font-family="Helvetica,sans-Serif" font-size="11.00" fill="#000000">text[2147483647]</text>
<polygon fill="#ffffff" stroke="transparent" points="136.5,-40.2 136.5,-59.2 197.5,-59.2 197.5,-40.2 136.5,-40.2"/>
<polygon fill="none" stroke="#000000" points="136.5,-40.2 136.5,-59.2 197.5,-59.2 197.5,-40.2 136.5,-40.2"/>
<text text-anchor="start" x="139.5" y="-46.3" font-family="Helvetica,sans-Serif" font-size="11.00" fill="#000000">&lt; 1</text>
<polygon fill="#ffffff" stroke="transparent" points="197.5,-40.2 197.5,-59.2 250.5,-59.2 250.5,-40.2 197.5,-40.2"/>
<polygon fill="none" stroke="#000000" points="197.5,-40.2 197.5,-59.2 250.5,-59.2 250.5,-40.2 197.5,-40.2"/>
<text text-anchor="start" x="241.3862" y="-46.3" font-family="Helvetica,sans-Serif" font-size="11.00" fill="#000000"> &#160;</text>
<polygon fill="#ffffff" stroke="transparent" points="250.5,-40.2 250.5,-59.2 369.5,-59.2 369.5,-40.2 250.5,-40.2"/>
<polygon fill="none" stroke="#000000" points="250.5,-40.2 250.5,-59.2 369.5,-59.2 369.5,-40.2 250.5,-40.2"/>
<text text-anchor="start" x="350.9053" y="-46.3" font-family="Helvetica,sans-Serif" font-size="11.00" fill="#000000">0 &gt;</text>
<polygon fill="none" stroke="#000000" stroke-width="2" points="135,-39.2 135,-435.2 370,-435.2 370,-39.2 135,-39.2"/>
</a>
</g>
</g>
<!-- events -->
<g id="node2" class="node">
<title>events</title>
<g id="a_node2"><a xlink:href="../../tables/events.html" xlink:title="events" target="_top">
<polygon fill="#ffffff" stroke="transparent" points="8,-307.7 8,-390.7 85,-390.7 85,-307.7 8,-307.7"/>
<polygon fill="#f5f5f5" stroke="transparent" points="8.5,-367.2 8.5,-390.2 85.5,-390.2 85.5,-367.2 8.5,-367.2"/>
<polygon fill="none" stroke="#000000" points="8.5,-367.2 8.5,-390.2 85.5,-390.2 85.5,-367.2 8.5,-367.2"/>
<text text-anchor="start" x="13.5" y="-375.8" font-family="Helvetica,sans-Serif" font-weight="bold" font-size="11.00" fill="#000000">events</text>
<text text-anchor="start" x="51.0219" y="-375.3" font-family="Helvetica,sans-Serif" font-size="11.00" fill="#000000">[table]</text>
<polygon fill="none" stroke="#000000" points="8.5,-345.2 8.5,-367.2 85.5,-367.2 85.5,-345.2 8.5,-345.2"/>
<image xlink:href="../../images/primaryKeys.png" width="11px" height="12px" preserveAspectRatio="xMinYMin meet" x="13.5" y="-362.2"/>
<text text-anchor="start" x="31.5" y="-352.3" font-family="Helvetica,sans-Serif" font-size="11.00" fill="#000000">name</text>
<polygon fill="none" stroke="#000000" points="8.5,-326.2 8.5,-345.2 85.5,-345.2 85.5,-326.2 8.5,-326.2"/>
<text text-anchor="start" x="11.5" y="-332.3" font-family="Helvetica,sans-Serif" font-size="11.00" fill="#000000">...</text>
<polygon fill="#ffffff" stroke="transparent" points="8.5,-307.2 8.5,-326.2 33.5,-326.2 33.5,-307.2 8.5,-307.2"/>
<polygon fill="none" stroke="#000000" points="8.5,-307.2 8.5,-326.2 33.5,-326.2 33.5,-307.2 8.5,-307.2"/>
<text text-anchor="start" x="11.5" y="-313.3" font-family="Helvetica,sans-Serif" font-size="11.00" fill="#000000"> &#160;</text>
<polygon fill="#ffffff" stroke="transparent" points="33.5,-307.2 33.5,-326.2 51.5,-326.2 51.5,-307.2 33.5,-307.2"/>
<polygon fill="none" stroke="#000000" points="33.5,-307.2 33.5,-326.2 51.5,-326.2 51.5,-307.2 33.5,-307.2"/>
<text text-anchor="start" x="42.3862" y="-313.3" font-family="Helvetica,sans-Serif" font-size="11.00" fill="#000000"> &#160;</text>
<polygon fill="#ffffff" stroke="transparent" points="51.5,-307.2 51.5,-326.2 85.5,-326.2 85.5,-307.2 51.5,-307.2"/>
<polygon fill="none" stroke="#000000" points="51.5,-307.2 51.5,-326.2 85.5,-326.2 85.5,-307.2 51.5,-307.2"/>
<text text-anchor="start" x="60.7904" y="-313.3" font-family="Helvetica,sans-Serif" font-size="11.00" fill="#000000">16 &gt;</text>
</a>
</g>
</g>
<!-- weirs&#45;&gt;events -->
<g id="edge1" class="edge">
<title>weirs:w&#45;&gt;events:e</title>
<path fill="none" stroke="#000000" stroke-dasharray="5,2" d="M121.776,-356.2C109.7815,-356.2 102.3229,-356.2 85.5,-356.2"/>
<polygon fill="#000000" stroke="#000000" points="128.5,-356.2001 136.5,-359.8 132.5,-356.2 136.5,-356.2 136.5,-356.2 136.5,-356.2 132.5,-356.2 136.5,-352.6 128.5,-356.2001 128.5,-356.2001"/>
<ellipse fill="none" stroke="#000000" cx="125.3" cy="-356.2001" rx="3.2" ry="3.2"/>
</g>
</g>
</svg>
