<?xml version="1.0" encoding="UTF-8" standalone="no"?>
<!DOCTYPE svg PUBLIC "-//W3C//DTD SVG 1.1//EN"
 "http://www.w3.org/Graphics/SVG/1.1/DTD/svg11.dtd">
<!-- Generated by graphviz version 2.40.1 (20161225.0304)
 -->
<!-- Title: orphans Pages: 1 -->
<svg width="296pt" height="792pt"
 viewBox="0.00 0.00 296.00 792.00" xmlns="http://www.w3.org/2000/svg" xmlns:xlink="http://www.w3.org/1999/xlink">
<g id="graph0" class="graph" transform="scale(1 1) rotate(0) translate(4 788)">
<title>orphans</title>
<polygon fill="#ffffff" stroke="transparent" points="-4,4 -4,-788 292,-788 292,4 -4,4"/>
<!-- bank -->
<g id="node1" class="node">
<title>bank</title>
<g id="a_node1"><a xlink:href="../../tables/bank.html" xlink:title="bank" target="_top">
<polygon fill="#ffffff" stroke="transparent" points="53,-4 53,-116 235,-116 235,-4 53,-4"/>
<polygon fill="#f5f5f5" stroke="transparent" points="55,-91 55,-114 233,-114 233,-91 55,-91"/>
<polygon fill="none" stroke="#000000" points="55,-91 55,-114 233,-114 233,-91 55,-91"/>
<text text-anchor="start" x="60" y="-99.6" font-family="Helvetica,sans-Serif" font-weight="bold" font-size="11.00" fill="#000000">bank</text>
<text text-anchor="start" x="198.0437" y="-99.1" font-family="Helvetica,sans-Serif" font-size="11.00" fill="#000000">[table]</text>
<polygon fill="none" stroke="#000000" points="55,-69 55,-91 114,-91 114,-69 55,-69"/>
<image xlink:href="../../images/primaryKeys.png" width="11px" height="12px" preserveAspectRatio="xMinYMin meet" x="60" y="-86"/>
<text text-anchor="start" x="78" y="-76.1" font-family="Helvetica,sans-Serif" font-size="11.00" fill="#000000">id</text>
<polygon fill="none" stroke="#000000" points="114,-69 114,-91 233,-91 233,-69 114,-69"/>
<text text-anchor="start" x="117" y="-76.7" font-family="Helvetica,sans-Serif" font-size="11.00" fill="#000000">serial[10]</text>
<polygon fill="#ffffff" stroke="transparent" points="55,-47 55,-69 114,-69 114,-47 55,-47"/>
<polygon fill="none" stroke="#000000" points="55,-47 55,-69 114,-69 114,-47 55,-47"/>
<text text-anchor="start" x="78" y="-54.1" font-family="Helvetica,sans-Serif" font-size="11.00" fill="#000000">name</text>
<polygon fill="none" stroke="#000000" points="114,-47 114,-69 233,-69 233,-47 114,-47"/>
<text text-anchor="start" x="117" y="-54.7" font-family="Helvetica,sans-Serif" font-size="11.00" fill="#000000">varchar[16]</text>
<polygon fill="none" stroke="#000000" points="55,-25 55,-47 114,-47 114,-25 55,-25"/>
<text text-anchor="start" x="78" y="-32.1" font-family="Helvetica,sans-Serif" font-size="11.00" fill="#000000">geom</text>
<polygon fill="none" stroke="#000000" points="114,-25 114,-47 233,-47 233,-25 114,-25"/>
<text text-anchor="start" x="116.9485" y="-32.7" font-family="Helvetica,sans-Serif" font-size="11.00" fill="#000000">geometry[2147483647]</text>
<polygon fill="#ffffff" stroke="transparent" points="55,-6 55,-25 76,-25 76,-6 55,-6"/>
<polygon fill="none" stroke="#000000" points="55,-6 55,-25 76,-25 76,-6 55,-6"/>
<text text-anchor="start" x="57.7027" y="-12.1" font-family="Helvetica,sans-Serif" font-size="11.00" fill="#000000">&lt; 0</text>
<polygon fill="#ffffff" stroke="transparent" points="76,-6 76,-25 114,-25 114,-6 76,-6"/>
<polygon fill="none" stroke="#000000" points="76,-6 76,-25 114,-25 114,-6 76,-6"/>
<text text-anchor="start" x="78.8053" y="-12.1" font-family="Helvetica,sans-Serif" font-size="11.00" fill="#000000">0 rows</text>
<polygon fill="#ffffff" stroke="transparent" points="114,-6 114,-25 233,-25 233,-6 114,-6"/>
<polygon fill="none" stroke="#000000" points="114,-6 114,-25 233,-25 233,-6 114,-6"/>
<text text-anchor="start" x="214.4053" y="-12.1" font-family="Helvetica,sans-Serif" font-size="11.00" fill="#000000">0 &gt;</text>
<polygon fill="none" stroke="#000000" stroke-width="2" points="54,-5 54,-115 234,-115 234,-5 54,-5"/>
</a>
</g>
</g>
<!-- config_switch -->
<g id="node2" class="node">
<title>config_switch</title>
<g id="a_node2"><a xlink:href="../../tables/config_switch.html" xlink:title="config_switch" target="_top">
<polygon fill="#ffffff" stroke="transparent" points="70.5,-137 70.5,-227 217.5,-227 217.5,-137 70.5,-137"/>
<polygon fill="#f5f5f5" stroke="transparent" points="73,-202 73,-225 216,-225 216,-202 73,-202"/>
<polygon fill="none" stroke="#000000" points="73,-202 73,-225 216,-225 216,-202 73,-202"/>
<text text-anchor="start" x="78" y="-210.6" font-family="Helvetica,sans-Serif" font-weight="bold" font-size="11.00" fill="#000000">config_switch</text>
<text text-anchor="start" x="181.0437" y="-210.1" font-family="Helvetica,sans-Serif" font-size="11.00" fill="#000000">[table]</text>
<polygon fill="#ffffff" stroke="transparent" points="73,-180 73,-202 174,-202 174,-180 73,-180"/>
<polygon fill="none" stroke="#000000" points="73,-180 73,-202 174,-202 174,-180 73,-180"/>
<text text-anchor="start" x="93" y="-187.1" font-family="Helvetica,sans-Serif" font-size="11.00" fill="#000000">id</text>
<polygon fill="none" stroke="#000000" points="174,-180 174,-202 216,-202 216,-180 174,-180"/>
<text text-anchor="start" x="176.9644" y="-187.7" font-family="Helvetica,sans-Serif" font-size="11.00" fill="#000000">int4[10]</text>
<polygon fill="none" stroke="#000000" points="73,-158 73,-180 174,-180 174,-158 73,-158"/>
<text text-anchor="start" x="93" y="-165.1" font-family="Helvetica,sans-Serif" font-size="11.00" fill="#000000">is_switching</text>
<polygon fill="none" stroke="#000000" points="174,-158 174,-180 216,-180 216,-158 174,-158"/>
<text text-anchor="start" x="177" y="-165.7" font-family="Helvetica,sans-Serif" font-size="11.00" fill="#000000">bool[1]</text>
<polygon fill="#ffffff" stroke="transparent" points="73,-139 73,-158 115,-158 115,-139 73,-139"/>
<polygon fill="none" stroke="#000000" points="73,-139 73,-158 115,-158 115,-139 73,-139"/>
<text text-anchor="start" x="76" y="-145.1" font-family="Helvetica,sans-Serif" font-size="11.00" fill="#000000">&lt; 0</text>
<polygon fill="#ffffff" stroke="transparent" points="115,-139 115,-158 174,-158 174,-139 115,-139"/>
<polygon fill="none" stroke="#000000" points="115,-139 115,-158 174,-158 174,-139 115,-139"/>
<text text-anchor="start" x="138.6105" y="-145.1" font-family="Helvetica,sans-Serif" font-size="11.00" fill="#000000">0 rows</text>
<polygon fill="#ffffff" stroke="transparent" points="174,-139 174,-158 216,-158 216,-139 174,-139"/>
<polygon fill="none" stroke="#000000" points="174,-139 174,-158 216,-158 216,-139 174,-139"/>
<text text-anchor="start" x="197.4053" y="-145.1" font-family="Helvetica,sans-Serif" font-size="11.00" fill="#000000">0 &gt;</text>
<polygon fill="none" stroke="#000000" stroke-width="2" points="71.5,-138 71.5,-226 216.5,-226 216.5,-138 71.5,-138"/>
</a>
</g>
</g>
<!-- coverage_marker -->
<g id="node3" class="node">
<title>coverage_marker</title>
<g id="a_node3"><a xlink:href="../../tables/coverage_marker.html" xlink:title="coverage_marker" target="_top">
<polygon fill="#ffffff" stroke="transparent" points="22.5,-248 22.5,-404 265.5,-404 265.5,-248 22.5,-248"/>
<polygon fill="#f5f5f5" stroke="transparent" points="25,-379 25,-402 264,-402 264,-379 25,-379"/>
<polygon fill="none" stroke="#000000" points="25,-379 25,-402 264,-402 264,-379 25,-379"/>
<text text-anchor="start" x="30" y="-387.6" font-family="Helvetica,sans-Serif" font-weight="bold" font-size="11.00" fill="#000000">coverage_marker</text>
<text text-anchor="start" x="229.0437" y="-387.1" font-family="Helvetica,sans-Serif" font-size="11.00" fill="#000000">[table]</text>
<polygon fill="none" stroke="#000000" points="25,-357 25,-379 145,-379 145,-357 25,-357"/>
<image xlink:href="../../images/primaryKeys.png" width="11px" height="12px" preserveAspectRatio="xMinYMin meet" x="30" y="-374"/>
<text text-anchor="start" x="45" y="-364.1" font-family="Helvetica,sans-Serif" font-size="11.00" fill="#000000">id</text>
<polygon fill="none" stroke="#000000" points="145,-357 145,-379 264,-379 264,-357 145,-357"/>
<text text-anchor="start" x="148" y="-364.7" font-family="Helvetica,sans-Serif" font-size="11.00" fill="#000000">serial[10]</text>
<polygon fill="#ffffff" stroke="transparent" points="25,-335 25,-357 145,-357 145,-335 25,-335"/>
<polygon fill="none" stroke="#000000" points="25,-335 25,-357 145,-357 145,-335 25,-335"/>
<text text-anchor="start" x="45" y="-342.1" font-family="Helvetica,sans-Serif" font-size="11.00" fill="#000000">name</text>
<polygon fill="none" stroke="#000000" points="145,-335 145,-357 264,-357 264,-335 145,-335"/>
<text text-anchor="start" x="148" y="-342.7" font-family="Helvetica,sans-Serif" font-size="11.00" fill="#000000">varchar[24]</text>
<polygon fill="none" stroke="#000000" points="25,-313 25,-335 145,-335 145,-313 25,-313"/>
<text text-anchor="start" x="45" y="-320.1" font-family="Helvetica,sans-Serif" font-size="11.00" fill="#000000">comment</text>
<polygon fill="none" stroke="#000000" points="145,-313 145,-335 264,-335 264,-313 145,-313"/>
<text text-anchor="start" x="148" y="-320.7" font-family="Helvetica,sans-Serif" font-size="11.00" fill="#000000">varchar[256]</text>
<polygon fill="none" stroke="#000000" points="25,-291 25,-313 145,-313 145,-291 25,-291"/>
<text text-anchor="start" x="45" y="-298.1" font-family="Helvetica,sans-Serif" font-size="11.00" fill="#000000">protected</text>
<polygon fill="none" stroke="#000000" points="145,-291 145,-313 264,-313 264,-291 145,-291"/>
<text text-anchor="start" x="148" y="-298.7" font-family="Helvetica,sans-Serif" font-size="11.00" fill="#000000">bool[1]</text>
<polygon fill="none" stroke="#000000" points="25,-269 25,-291 145,-291 145,-269 25,-269"/>
<text text-anchor="start" x="45" y="-276.1" font-family="Helvetica,sans-Serif" font-size="11.00" fill="#000000">geom</text>
<polygon fill="none" stroke="#000000" points="145,-269 145,-291 264,-291 264,-269 145,-269"/>
<text text-anchor="start" x="147.9485" y="-276.7" font-family="Helvetica,sans-Serif" font-size="11.00" fill="#000000">geometry[2147483647]</text>
<polygon fill="#ffffff" stroke="transparent" points="25,-250 25,-269 76,-269 76,-250 25,-250"/>
<polygon fill="none" stroke="#000000" points="25,-250 25,-269 76,-269 76,-250 25,-250"/>
<text text-anchor="start" x="28" y="-256.1" font-family="Helvetica,sans-Serif" font-size="11.00" fill="#000000">&lt; 0</text>
<polygon fill="#ffffff" stroke="transparent" points="76,-250 76,-269 145,-269 145,-250 76,-250"/>
<polygon fill="none" stroke="#000000" points="76,-250 76,-269 145,-269 145,-250 76,-250"/>
<text text-anchor="start" x="109.6105" y="-256.1" font-family="Helvetica,sans-Serif" font-size="11.00" fill="#000000">0 rows</text>
<polygon fill="#ffffff" stroke="transparent" points="145,-250 145,-269 264,-269 264,-250 145,-250"/>
<polygon fill="none" stroke="#000000" points="145,-250 145,-269 264,-269 264,-250 145,-250"/>
<text text-anchor="start" x="245.4053" y="-256.1" font-family="Helvetica,sans-Serif" font-size="11.00" fill="#000000">0 &gt;</text>
<polygon fill="none" stroke="#000000" stroke-width="2" points="23.5,-249 23.5,-403 264.5,-403 264.5,-249 23.5,-249"/>
</a>
</g>
</g>
<!-- street -->
<g id="node4" class="node">
<title>street</title>
<g id="a_node4"><a xlink:href="../../tables/street.html" xlink:title="street" target="_top">
<polygon fill="#ffffff" stroke="transparent" points="37,-425 37,-647 251,-647 251,-425 37,-425"/>
<polygon fill="#f5f5f5" stroke="transparent" points="39,-622 39,-645 249,-645 249,-622 39,-622"/>
<polygon fill="none" stroke="#000000" points="39,-622 39,-645 249,-645 249,-622 39,-622"/>
<text text-anchor="start" x="44" y="-630.6" font-family="Helvetica,sans-Serif" font-weight="bold" font-size="11.00" fill="#000000">street</text>
<text text-anchor="start" x="214.0437" y="-630.1" font-family="Helvetica,sans-Serif" font-size="11.00" fill="#000000">[table]</text>
<polygon fill="none" stroke="#000000" points="39,-600 39,-622 130,-622 130,-600 39,-600"/>
<image xlink:href="../../images/primaryKeys.png" width="11px" height="12px" preserveAspectRatio="xMinYMin meet" x="44" y="-617"/>
<text text-anchor="start" x="59" y="-607.1" font-family="Helvetica,sans-Serif" font-size="11.00" fill="#000000">id</text>
<polygon fill="none" stroke="#000000" points="130,-600 130,-622 249,-622 249,-600 130,-600"/>
<text text-anchor="start" x="133" y="-607.7" font-family="Helvetica,sans-Serif" font-size="11.00" fill="#000000">serial[10]</text>
<polygon fill="#ffffff" stroke="transparent" points="39,-578 39,-600 130,-600 130,-578 39,-578"/>
<polygon fill="none" stroke="#000000" points="39,-578 39,-600 130,-600 130,-578 39,-578"/>
<text text-anchor="start" x="59" y="-585.1" font-family="Helvetica,sans-Serif" font-size="11.00" fill="#000000">name</text>
<polygon fill="none" stroke="#000000" points="130,-578 130,-600 249,-600 249,-578 130,-578"/>
<text text-anchor="start" x="133" y="-585.7" font-family="Helvetica,sans-Serif" font-size="11.00" fill="#000000">varchar[16]</text>
<polygon fill="none" stroke="#000000" points="39,-556 39,-578 130,-578 130,-556 39,-556"/>
<text text-anchor="start" x="59" y="-563.1" font-family="Helvetica,sans-Serif" font-size="11.00" fill="#000000">width</text>
<polygon fill="none" stroke="#000000" points="130,-556 130,-578 249,-578 249,-556 130,-556"/>
<text text-anchor="start" x="133" y="-563.7" font-family="Helvetica,sans-Serif" font-size="11.00" fill="#000000">float4[8,8]</text>
<polygon fill="none" stroke="#000000" points="39,-534 39,-556 130,-556 130,-534 39,-534"/>
<text text-anchor="start" x="59" y="-541.1" font-family="Helvetica,sans-Serif" font-size="11.00" fill="#000000">width_invert</text>
<polygon fill="none" stroke="#000000" points="130,-534 130,-556 249,-556 249,-534 130,-534"/>
<text text-anchor="start" x="133" y="-541.7" font-family="Helvetica,sans-Serif" font-size="11.00" fill="#000000">float4[8,8]</text>
<polygon fill="none" stroke="#000000" points="39,-512 39,-534 130,-534 130,-512 39,-512"/>
<text text-anchor="start" x="59" y="-519.1" font-family="Helvetica,sans-Serif" font-size="11.00" fill="#000000">elem_length</text>
<polygon fill="none" stroke="#000000" points="130,-512 130,-534 249,-534 249,-512 130,-512"/>
<text text-anchor="start" x="133" y="-519.7" font-family="Helvetica,sans-Serif" font-size="11.00" fill="#000000">float4[8,8]</text>
<polygon fill="none" stroke="#000000" points="39,-490 39,-512 130,-512 130,-490 39,-490"/>
<text text-anchor="start" x="59" y="-497.1" font-family="Helvetica,sans-Serif" font-size="11.00" fill="#000000">rk</text>
<polygon fill="none" stroke="#000000" points="130,-490 130,-512 249,-512 249,-490 130,-490"/>
<text text-anchor="start" x="133" y="-497.7" font-family="Helvetica,sans-Serif" font-size="11.00" fill="#000000">float4[8,8]</text>
<polygon fill="#ffffff" stroke="transparent" points="39,-468 39,-490 130,-490 130,-468 39,-468"/>
<polygon fill="none" stroke="#000000" points="39,-468 39,-490 130,-490 130,-468 39,-468"/>
<text text-anchor="start" x="59" y="-475.1" font-family="Helvetica,sans-Serif" font-size="11.00" fill="#000000">geom</text>
<polygon fill="none" stroke="#000000" points="130,-468 130,-490 249,-490 249,-468 130,-468"/>
<text text-anchor="start" x="132.9485" y="-475.7" font-family="Helvetica,sans-Serif" font-size="11.00" fill="#000000">geometry[2147483647]</text>
<polygon fill="none" stroke="#000000" points="39,-446 39,-468 130,-468 130,-446 39,-446"/>
<text text-anchor="start" x="59" y="-453.1" font-family="Helvetica,sans-Serif" font-size="11.00" fill="#000000">comment</text>
<polygon fill="none" stroke="#000000" points="130,-446 130,-468 249,-468 249,-446 130,-446"/>
<text text-anchor="start" x="133" y="-453.7" font-family="Helvetica,sans-Serif" font-size="11.00" fill="#000000">varchar[256]</text>
<polygon fill="#ffffff" stroke="transparent" points="39,-427 39,-446 76,-446 76,-427 39,-427"/>
<polygon fill="none" stroke="#000000" points="39,-427 39,-446 76,-446 76,-427 39,-427"/>
<text text-anchor="start" x="42" y="-433.1" font-family="Helvetica,sans-Serif" font-size="11.00" fill="#000000">&lt; 0</text>
<polygon fill="#ffffff" stroke="transparent" points="76,-427 76,-446 130,-446 130,-427 76,-427"/>
<polygon fill="none" stroke="#000000" points="76,-427 76,-446 130,-446 130,-427 76,-427"/>
<text text-anchor="start" x="94.6105" y="-433.1" font-family="Helvetica,sans-Serif" font-size="11.00" fill="#000000">0 rows</text>
<polygon fill="#ffffff" stroke="transparent" points="130,-427 130,-446 249,-446 249,-427 130,-427"/>
<polygon fill="none" stroke="#000000" points="130,-427 130,-446 249,-446 249,-427 130,-427"/>
<text text-anchor="start" x="230.4053" y="-433.1" font-family="Helvetica,sans-Serif" font-size="11.00" fill="#000000">0 &gt;</text>
<polygon fill="none" stroke="#000000" stroke-width="2" points="38,-426 38,-646 250,-646 250,-426 38,-426"/>
</a>
</g>
</g>
<!-- urban_flood_risk_area -->
<g id="node5" class="node">
<title>urban_flood_risk_area</title>
<g id="a_node5"><a xlink:href="../../tables/urban_flood_risk_area.html" xlink:title="urban_flood_risk_area" target="_top">
<polygon fill="#ffffff" stroke="transparent" points="8,-668 8,-780 280,-780 280,-668 8,-668"/>
<polygon fill="#f5f5f5" stroke="transparent" points="10,-755 10,-778 278,-778 278,-755 10,-755"/>
<polygon fill="none" stroke="#000000" points="10,-755 10,-778 278,-778 278,-755 10,-755"/>
<text text-anchor="start" x="15" y="-763.6" font-family="Helvetica,sans-Serif" font-weight="bold" font-size="11.00" fill="#000000">urban_flood_risk_area</text>
<text text-anchor="start" x="243.0437" y="-763.1" font-family="Helvetica,sans-Serif" font-size="11.00" fill="#000000">[table]</text>
<polygon fill="none" stroke="#000000" points="10,-733 10,-755 159,-755 159,-733 10,-733"/>
<image xlink:href="../../images/primaryKeys.png" width="11px" height="12px" preserveAspectRatio="xMinYMin meet" x="15" y="-750"/>
<text text-anchor="start" x="30" y="-740.1" font-family="Helvetica,sans-Serif" font-size="11.00" fill="#000000">id</text>
<polygon fill="none" stroke="#000000" points="159,-733 159,-755 278,-755 278,-733 159,-733"/>
<text text-anchor="start" x="162" y="-740.7" font-family="Helvetica,sans-Serif" font-size="11.00" fill="#000000">serial[10]</text>
<polygon fill="#ffffff" stroke="transparent" points="10,-711 10,-733 159,-733 159,-711 10,-711"/>
<polygon fill="none" stroke="#000000" points="10,-711 10,-733 159,-733 159,-711 10,-711"/>
<text text-anchor="start" x="30" y="-718.1" font-family="Helvetica,sans-Serif" font-size="11.00" fill="#000000">name</text>
<polygon fill="none" stroke="#000000" points="159,-711 159,-733 278,-733 278,-711 159,-711"/>
<text text-anchor="start" x="162" y="-718.7" font-family="Helvetica,sans-Serif" font-size="11.00" fill="#000000">varchar[16]</text>
<polygon fill="none" stroke="#000000" points="10,-689 10,-711 159,-711 159,-689 10,-689"/>
<text text-anchor="start" x="30" y="-696.1" font-family="Helvetica,sans-Serif" font-size="11.00" fill="#000000">geom</text>
<polygon fill="none" stroke="#000000" points="159,-689 159,-711 278,-711 278,-689 159,-689"/>
<text text-anchor="start" x="161.9485" y="-696.7" font-family="Helvetica,sans-Serif" font-size="11.00" fill="#000000">geometry[2147483647]</text>
<polygon fill="#ffffff" stroke="transparent" points="10,-670 10,-689 76,-689 76,-670 10,-670"/>
<polygon fill="none" stroke="#000000" points="10,-670 10,-689 76,-689 76,-670 10,-670"/>
<text text-anchor="start" x="13" y="-676.1" font-family="Helvetica,sans-Serif" font-size="11.00" fill="#000000">&lt; 0</text>
<polygon fill="#ffffff" stroke="transparent" points="76,-670 76,-689 159,-689 159,-670 76,-670"/>
<polygon fill="none" stroke="#000000" points="76,-670 76,-689 159,-689 159,-670 76,-670"/>
<text text-anchor="start" x="123.6105" y="-676.1" font-family="Helvetica,sans-Serif" font-size="11.00" fill="#000000">0 rows</text>
<polygon fill="#ffffff" stroke="transparent" points="159,-670 159,-689 278,-689 278,-670 159,-670"/>
<polygon fill="none" stroke="#000000" points="159,-670 159,-689 278,-689 278,-670 159,-670"/>
<text text-anchor="start" x="259.4053" y="-676.1" font-family="Helvetica,sans-Serif" font-size="11.00" fill="#000000">0 &gt;</text>
<polygon fill="none" stroke="#000000" stroke-width="2" points="9,-669 9,-779 279,-779 279,-669 9,-669"/>
</a>
</g>
</g>
</g>
</svg>
