<?xml version="1.0" encoding="UTF-8" standalone="no"?>
<!DOCTYPE svg PUBLIC "-//W3C//DTD SVG 1.1//EN"
 "http://www.w3.org/Graphics/SVG/1.1/DTD/svg11.dtd">
<!-- Generated by graphviz version 2.40.1 (20161225.0304)
 -->
<!-- Title: compactRelationshipsDiagram Pages: 1 -->
<svg width="375pt" height="177pt"
 viewBox="0.00 0.00 375.00 177.20" xmlns="http://www.w3.org/2000/svg" xmlns:xlink="http://www.w3.org/1999/xlink">
<g id="graph0" class="graph" transform="scale(1 1) rotate(0) translate(4 173.2)">
<title>compactRelationshipsDiagram</title>
<polygon fill="#ffffff" stroke="transparent" points="-4,4 -4,-173.2 371,-173.2 371,4 -4,4"/>
<text text-anchor="middle" x="72.4936" y="-7.3" font-family="Helvetica,sans-Serif" font-size="11.00" fill="#000000">Generated by SchemaSpy</text>
<!-- extremities -->
<g id="node1" class="node">
<title>extremities</title>
<g id="a_node1"><a xlink:href="../../tables/extremities.html" xlink:title="extremities" target="_top">
<polygon fill="#ffffff" stroke="transparent" points="8,-38.2 8,-143.2 215,-143.2 215,-38.2 8,-38.2"/>
<polygon fill="#f5f5f5" stroke="transparent" points="8.5,-119.7 8.5,-142.7 215.5,-142.7 215.5,-119.7 8.5,-119.7"/>
<polygon fill="none" stroke="#000000" points="8.5,-119.7 8.5,-142.7 215.5,-142.7 215.5,-119.7 8.5,-119.7"/>
<text text-anchor="start" x="13.5" y="-128.3" font-family="Helvetica,sans-Serif" font-weight="bold" font-size="11.00" fill="#000000">extremities</text>
<text text-anchor="start" x="180.5437" y="-127.8" font-family="Helvetica,sans-Serif" font-size="11.00" fill="#000000">[table]</text>
<polygon fill="none" stroke="#000000" points="8.5,-97.7 8.5,-119.7 215.5,-119.7 215.5,-97.7 8.5,-97.7"/>
<image xlink:href="../../images/primaryKeys.png" width="11px" height="12px" preserveAspectRatio="xMinYMin meet" x="13.5" y="-114.7"/>
<text text-anchor="start" x="28.5" y="-104.8" font-family="Helvetica,sans-Serif" font-size="11.00" fill="#000000">gid</text>
<polygon fill="#ffffff" stroke="transparent" points="8.5,-75.7 8.5,-97.7 215.5,-97.7 215.5,-75.7 8.5,-75.7"/>
<polygon fill="none" stroke="#000000" points="8.5,-75.7 8.5,-97.7 215.5,-97.7 215.5,-75.7 8.5,-75.7"/>
<image xlink:href="../../images/foreignKeys.png" width="11px" height="12px" preserveAspectRatio="xMinYMin meet" x="13.5" y="-92.7"/>
<text text-anchor="start" x="28.5" y="-82.8" font-family="Helvetica,sans-Serif" font-size="11.00" fill="#000000">name</text>
<polygon fill="none" stroke="#000000" points="8.5,-56.7 8.5,-75.7 215.5,-75.7 215.5,-56.7 8.5,-56.7"/>
<text text-anchor="start" x="11.5" y="-62.8" font-family="Helvetica,sans-Serif" font-size="11.00" fill="#000000">...</text>
<polygon fill="#ffffff" stroke="transparent" points="8.5,-37.7 8.5,-56.7 101.5,-56.7 101.5,-37.7 8.5,-37.7"/>
<polygon fill="none" stroke="#000000" points="8.5,-37.7 8.5,-56.7 101.5,-56.7 101.5,-37.7 8.5,-37.7"/>
<text text-anchor="start" x="11.5" y="-43.8" font-family="Helvetica,sans-Serif" font-size="11.00" fill="#000000"> &#160;</text>
<polygon fill="#ffffff" stroke="transparent" points="101.5,-37.7 101.5,-56.7 153.5,-56.7 153.5,-37.7 101.5,-37.7"/>
<polygon fill="none" stroke="#000000" points="101.5,-37.7 101.5,-56.7 153.5,-56.7 153.5,-37.7 101.5,-37.7"/>
<text text-anchor="start" x="144.3862" y="-43.8" font-family="Helvetica,sans-Serif" font-size="11.00" fill="#000000"> &#160;</text>
<polygon fill="#ffffff" stroke="transparent" points="153.5,-37.7 153.5,-56.7 215.5,-56.7 215.5,-37.7 153.5,-37.7"/>
<polygon fill="none" stroke="#000000" points="153.5,-37.7 153.5,-56.7 215.5,-56.7 215.5,-37.7 153.5,-37.7"/>
<text text-anchor="start" x="196.9053" y="-43.8" font-family="Helvetica,sans-Serif" font-size="11.00" fill="#000000">1 &gt;</text>
</a>
</g>
</g>
<!-- branchs -->
<g id="node2" class="node">
<title>branchs</title>
<g id="a_node2"><a xlink:href="../../tables/branchs.html" xlink:title="branchs" target="_top">
<polygon fill="#ffffff" stroke="transparent" points="264,-38.2 264,-165.2 359,-165.2 359,-38.2 264,-38.2"/>
<polygon fill="#f5f5f5" stroke="transparent" points="264.5,-141.7 264.5,-164.7 359.5,-164.7 359.5,-141.7 264.5,-141.7"/>
<polygon fill="none" stroke="#000000" points="264.5,-141.7 264.5,-164.7 359.5,-164.7 359.5,-141.7 264.5,-141.7"/>
<text text-anchor="start" x="269.5" y="-150.3" font-family="Helvetica,sans-Serif" font-weight="bold" font-size="11.00" fill="#000000">branchs</text>
<text text-anchor="start" x="324.5437" y="-149.8" font-family="Helvetica,sans-Serif" font-size="11.00" fill="#000000">[table]</text>
<polygon fill="#ffffff" stroke="transparent" points="264.5,-119.7 264.5,-141.7 359.5,-141.7 359.5,-119.7 264.5,-119.7"/>
<polygon fill="none" stroke="#000000" points="264.5,-119.7 264.5,-141.7 359.5,-141.7 359.5,-119.7 264.5,-119.7"/>
<text text-anchor="start" x="284.5" y="-126.8" font-family="Helvetica,sans-Serif" font-size="11.00" fill="#000000">geom</text>
<polygon fill="none" stroke="#000000" points="264.5,-97.7 264.5,-119.7 359.5,-119.7 359.5,-97.7 264.5,-97.7"/>
<image xlink:href="../../images/primaryKeys.png" width="11px" height="12px" preserveAspectRatio="xMinYMin meet" x="269.5" y="-114.7"/>
<text text-anchor="start" x="284.5" y="-104.8" font-family="Helvetica,sans-Serif" font-size="11.00" fill="#000000">gid</text>
<polygon fill="none" stroke="#000000" points="264.5,-75.7 264.5,-97.7 359.5,-97.7 359.5,-75.7 264.5,-75.7"/>
<image xlink:href="../../images/foreignKeys.png" width="11px" height="12px" preserveAspectRatio="xMinYMin meet" x="269.5" y="-92.7"/>
<text text-anchor="start" x="284.5" y="-82.8" font-family="Helvetica,sans-Serif" font-size="11.00" fill="#000000">startb</text>
<polygon fill="none" stroke="#000000" points="264.5,-56.7 264.5,-75.7 359.5,-75.7 359.5,-56.7 264.5,-56.7"/>
<text text-anchor="start" x="267.5" y="-62.8" font-family="Helvetica,sans-Serif" font-size="11.00" fill="#000000">...</text>
<polygon fill="#ffffff" stroke="transparent" points="264.5,-37.7 264.5,-56.7 310.5,-56.7 310.5,-37.7 264.5,-37.7"/>
<polygon fill="none" stroke="#000000" points="264.5,-37.7 264.5,-56.7 310.5,-56.7 310.5,-37.7 264.5,-37.7"/>
<text text-anchor="start" x="267.5" y="-43.8" font-family="Helvetica,sans-Serif" font-size="11.00" fill="#000000">&lt; 1</text>
<polygon fill="#ffffff" stroke="transparent" points="310.5,-37.7 310.5,-56.7 334.5,-56.7 334.5,-37.7 310.5,-37.7"/>
<polygon fill="none" stroke="#000000" points="310.5,-37.7 310.5,-56.7 334.5,-56.7 334.5,-37.7 310.5,-37.7"/>
<text text-anchor="start" x="325.3862" y="-43.8" font-family="Helvetica,sans-Serif" font-size="11.00" fill="#000000"> &#160;</text>
<polygon fill="#ffffff" stroke="transparent" points="334.5,-37.7 334.5,-56.7 359.5,-56.7 359.5,-37.7 334.5,-37.7"/>
<polygon fill="none" stroke="#000000" points="334.5,-37.7 334.5,-56.7 359.5,-56.7 359.5,-37.7 334.5,-37.7"/>
<text text-anchor="start" x="350.3862" y="-43.8" font-family="Helvetica,sans-Serif" font-size="11.00" fill="#000000"> &#160;</text>
</a>
</g>
</g>
<!-- branchs&#45;&gt;extremities -->
<g id="edge1" class="edge">
<title>branchs:w&#45;&gt;extremities:e</title>
<path fill="none" stroke="#000000" d="M249.9909,-86.7C238.6774,-86.7 231.4931,-86.7 215.5,-86.7"/>
<polygon fill="#000000" stroke="#000000" points="256.5,-86.7001 264.5,-90.3 260.5,-86.7 264.5,-86.7 264.5,-86.7 264.5,-86.7 260.5,-86.7 264.5,-83.1 256.5,-86.7001 256.5,-86.7001"/>
<ellipse fill="none" stroke="#000000" cx="253.3" cy="-86.7001" rx="3.2" ry="3.2"/>
</g>
</g>
</svg>
