<?xml version="1.0" encoding="UTF-8" standalone="no"?>
<!DOCTYPE svg PUBLIC "-//W3C//DTD SVG 1.1//EN"
 "http://www.w3.org/Graphics/SVG/1.1/DTD/svg11.dtd">
<!-- Generated by graphviz version 2.40.1 (20161225.0304)
 -->
<!-- Title: largeRelationshipsDiagram Pages: 1 -->
<svg width="375pt" height="378pt"
 viewBox="0.00 0.00 375.00 378.20" xmlns="http://www.w3.org/2000/svg" xmlns:xlink="http://www.w3.org/1999/xlink">
<g id="graph0" class="graph" transform="scale(1 1) rotate(0) translate(4 374.2)">
<title>largeRelationshipsDiagram</title>
<polygon fill="#ffffff" stroke="transparent" points="-4,4 -4,-374.2 371,-374.2 371,4 -4,4"/>
<text text-anchor="middle" x="72.4936" y="-7.3" font-family="Helvetica,sans-Serif" font-size="11.00" fill="#000000">Generated by SchemaSpy</text>
<!-- extremities -->
<g id="node1" class="node">
<title>extremities</title>
<g id="a_node1"><a xlink:href="../../tables/extremities.html" xlink:title="extremities" target="_top">
<polygon fill="#ffffff" stroke="transparent" points="8,-38.2 8,-344.2 215,-344.2 215,-38.2 8,-38.2"/>
<polygon fill="#f5f5f5" stroke="transparent" points="8.5,-321.2 8.5,-344.2 215.5,-344.2 215.5,-321.2 8.5,-321.2"/>
<polygon fill="none" stroke="#000000" points="8.5,-321.2 8.5,-344.2 215.5,-344.2 215.5,-321.2 8.5,-321.2"/>
<text text-anchor="start" x="13.5" y="-329.8" font-family="Helvetica,sans-Serif" font-weight="bold" font-size="11.00" fill="#000000">extremities</text>
<text text-anchor="start" x="180.5437" y="-329.3" font-family="Helvetica,sans-Serif" font-size="11.00" fill="#000000">[table]</text>
<polygon fill="none" stroke="#000000" points="8.5,-299.2 8.5,-321.2 215.5,-321.2 215.5,-299.2 8.5,-299.2"/>
<text text-anchor="start" x="28.5" y="-306.3" font-family="Helvetica,sans-Serif" font-size="11.00" fill="#000000">geom</text>
<polygon fill="none" stroke="#000000" points="8.5,-277.2 8.5,-299.2 215.5,-299.2 215.5,-277.2 8.5,-277.2"/>
<image xlink:href="../../images/primaryKeys.png" width="11px" height="12px" preserveAspectRatio="xMinYMin meet" x="13.5" y="-294.2"/>
<text text-anchor="start" x="28.5" y="-284.3" font-family="Helvetica,sans-Serif" font-size="11.00" fill="#000000">gid</text>
<polygon fill="#ffffff" stroke="transparent" points="8.5,-255.2 8.5,-277.2 215.5,-277.2 215.5,-255.2 8.5,-255.2"/>
<polygon fill="none" stroke="#000000" points="8.5,-255.2 8.5,-277.2 215.5,-277.2 215.5,-255.2 8.5,-255.2"/>
<image xlink:href="../../images/foreignKeys.png" width="11px" height="12px" preserveAspectRatio="xMinYMin meet" x="13.5" y="-272.2"/>
<text text-anchor="start" x="28.5" y="-262.3" font-family="Helvetica,sans-Serif" font-size="11.00" fill="#000000">name</text>
<polygon fill="none" stroke="#000000" points="8.5,-233.2 8.5,-255.2 215.5,-255.2 215.5,-233.2 8.5,-233.2"/>
<text text-anchor="start" x="28.5" y="-240.3" font-family="Helvetica,sans-Serif" font-size="11.00" fill="#000000">type</text>
<polygon fill="none" stroke="#000000" points="8.5,-211.2 8.5,-233.2 215.5,-233.2 215.5,-211.2 8.5,-211.2"/>
<text text-anchor="start" x="28.5" y="-218.3" font-family="Helvetica,sans-Serif" font-size="11.00" fill="#000000">method</text>
<polygon fill="none" stroke="#000000" points="8.5,-189.2 8.5,-211.2 215.5,-211.2 215.5,-189.2 8.5,-189.2"/>
<text text-anchor="start" x="28.5" y="-196.3" font-family="Helvetica,sans-Serif" font-size="11.00" fill="#000000">firstvalue</text>
<polygon fill="none" stroke="#000000" points="8.5,-167.2 8.5,-189.2 215.5,-189.2 215.5,-167.2 8.5,-167.2"/>
<text text-anchor="start" x="28.5" y="-174.3" font-family="Helvetica,sans-Serif" font-size="11.00" fill="#000000">abscissa</text>
<polygon fill="none" stroke="#000000" points="8.5,-145.2 8.5,-167.2 215.5,-167.2 215.5,-145.2 8.5,-145.2"/>
<text text-anchor="start" x="28.5" y="-152.3" font-family="Helvetica,sans-Serif" font-size="11.00" fill="#000000">ordinates</text>
<polygon fill="none" stroke="#000000" points="8.5,-123.2 8.5,-145.2 215.5,-145.2 215.5,-123.2 8.5,-123.2"/>
<text text-anchor="start" x="28.5" y="-130.3" font-family="Helvetica,sans-Serif" font-size="11.00" fill="#000000">angles</text>
<polygon fill="none" stroke="#000000" points="8.5,-101.2 8.5,-123.2 215.5,-123.2 215.5,-101.2 8.5,-101.2"/>
<text text-anchor="start" x="28.5" y="-108.3" font-family="Helvetica,sans-Serif" font-size="11.00" fill="#000000">active</text>
<polygon fill="none" stroke="#000000" points="8.5,-79.2 8.5,-101.2 215.5,-101.2 215.5,-79.2 8.5,-79.2"/>
<text text-anchor="start" x="28.5" y="-86.3" font-family="Helvetica,sans-Serif" font-size="11.00" fill="#000000">tracer_boundary_condition_type</text>
<polygon fill="none" stroke="#000000" points="8.5,-57.2 8.5,-79.2 215.5,-79.2 215.5,-57.2 8.5,-57.2"/>
<text text-anchor="start" x="28.5" y="-64.3" font-family="Helvetica,sans-Serif" font-size="11.00" fill="#000000">law_wq</text>
<polygon fill="#ffffff" stroke="transparent" points="8.5,-38.2 8.5,-57.2 101.5,-57.2 101.5,-38.2 8.5,-38.2"/>
<polygon fill="none" stroke="#000000" points="8.5,-38.2 8.5,-57.2 101.5,-57.2 101.5,-38.2 8.5,-38.2"/>
<text text-anchor="start" x="11.5" y="-44.3" font-family="Helvetica,sans-Serif" font-size="11.00" fill="#000000"> &#160;</text>
<polygon fill="#ffffff" stroke="transparent" points="101.5,-38.2 101.5,-57.2 153.5,-57.2 153.5,-38.2 101.5,-38.2"/>
<polygon fill="none" stroke="#000000" points="101.5,-38.2 101.5,-57.2 153.5,-57.2 153.5,-38.2 101.5,-38.2"/>
<text text-anchor="start" x="144.3862" y="-44.3" font-family="Helvetica,sans-Serif" font-size="11.00" fill="#000000"> &#160;</text>
<polygon fill="#ffffff" stroke="transparent" points="153.5,-38.2 153.5,-57.2 215.5,-57.2 215.5,-38.2 153.5,-38.2"/>
<polygon fill="none" stroke="#000000" points="153.5,-38.2 153.5,-57.2 215.5,-57.2 215.5,-38.2 153.5,-38.2"/>
<text text-anchor="start" x="196.9053" y="-44.3" font-family="Helvetica,sans-Serif" font-size="11.00" fill="#000000">1 &gt;</text>
</a>
</g>
</g>
<!-- branchs -->
<g id="node2" class="node">
<title>branchs</title>
<g id="a_node2"><a xlink:href="../../tables/branchs.html" xlink:title="branchs" target="_top">
<polygon fill="#ffffff" stroke="transparent" points="264,-38.2 264,-366.2 359,-366.2 359,-38.2 264,-38.2"/>
<polygon fill="#f5f5f5" stroke="transparent" points="264.5,-343.2 264.5,-366.2 359.5,-366.2 359.5,-343.2 264.5,-343.2"/>
<polygon fill="none" stroke="#000000" points="264.5,-343.2 264.5,-366.2 359.5,-366.2 359.5,-343.2 264.5,-343.2"/>
<text text-anchor="start" x="269.5" y="-351.8" font-family="Helvetica,sans-Serif" font-weight="bold" font-size="11.00" fill="#000000">branchs</text>
<text text-anchor="start" x="324.5437" y="-351.3" font-family="Helvetica,sans-Serif" font-size="11.00" fill="#000000">[table]</text>
<polygon fill="#ffffff" stroke="transparent" points="264.5,-321.2 264.5,-343.2 359.5,-343.2 359.5,-321.2 264.5,-321.2"/>
<polygon fill="none" stroke="#000000" points="264.5,-321.2 264.5,-343.2 359.5,-343.2 359.5,-321.2 264.5,-321.2"/>
<text text-anchor="start" x="284.5" y="-328.3" font-family="Helvetica,sans-Serif" font-size="11.00" fill="#000000">geom</text>
<polygon fill="none" stroke="#000000" points="264.5,-299.2 264.5,-321.2 359.5,-321.2 359.5,-299.2 264.5,-299.2"/>
<image xlink:href="../../images/primaryKeys.png" width="11px" height="12px" preserveAspectRatio="xMinYMin meet" x="269.5" y="-316.2"/>
<text text-anchor="start" x="284.5" y="-306.3" font-family="Helvetica,sans-Serif" font-size="11.00" fill="#000000">gid</text>
<polygon fill="none" stroke="#000000" points="264.5,-277.2 264.5,-299.2 359.5,-299.2 359.5,-277.2 264.5,-277.2"/>
<text text-anchor="start" x="284.5" y="-284.3" font-family="Helvetica,sans-Serif" font-size="11.00" fill="#000000">branch</text>
<polygon fill="none" stroke="#000000" points="264.5,-255.2 264.5,-277.2 359.5,-277.2 359.5,-255.2 264.5,-255.2"/>
<image xlink:href="../../images/foreignKeys.png" width="11px" height="12px" preserveAspectRatio="xMinYMin meet" x="269.5" y="-272.2"/>
<text text-anchor="start" x="284.5" y="-262.3" font-family="Helvetica,sans-Serif" font-size="11.00" fill="#000000">startb</text>
<polygon fill="none" stroke="#000000" points="264.5,-233.2 264.5,-255.2 359.5,-255.2 359.5,-233.2 264.5,-233.2"/>
<text text-anchor="start" x="284.5" y="-240.3" font-family="Helvetica,sans-Serif" font-size="11.00" fill="#000000">endb</text>
<polygon fill="none" stroke="#000000" points="264.5,-211.2 264.5,-233.2 359.5,-233.2 359.5,-211.2 264.5,-211.2"/>
<text text-anchor="start" x="284.5" y="-218.3" font-family="Helvetica,sans-Serif" font-size="11.00" fill="#000000">zonenum</text>
<polygon fill="none" stroke="#000000" points="264.5,-189.2 264.5,-211.2 359.5,-211.2 359.5,-189.2 264.5,-189.2"/>
<text text-anchor="start" x="284.5" y="-196.3" font-family="Helvetica,sans-Serif" font-size="11.00" fill="#000000">zoneabsstart</text>
<polygon fill="none" stroke="#000000" points="264.5,-167.2 264.5,-189.2 359.5,-189.2 359.5,-167.2 264.5,-167.2"/>
<text text-anchor="start" x="284.5" y="-174.3" font-family="Helvetica,sans-Serif" font-size="11.00" fill="#000000">zoneabsend</text>
<polygon fill="none" stroke="#000000" points="264.5,-145.2 264.5,-167.2 359.5,-167.2 359.5,-145.2 264.5,-145.2"/>
<text text-anchor="start" x="284.5" y="-152.3" font-family="Helvetica,sans-Serif" font-size="11.00" fill="#000000">minbedcoef</text>
<polygon fill="none" stroke="#000000" points="264.5,-123.2 264.5,-145.2 359.5,-145.2 359.5,-123.2 264.5,-123.2"/>
<text text-anchor="start" x="284.5" y="-130.3" font-family="Helvetica,sans-Serif" font-size="11.00" fill="#000000">majbedcoef</text>
<polygon fill="none" stroke="#000000" points="264.5,-101.2 264.5,-123.2 359.5,-123.2 359.5,-101.2 264.5,-101.2"/>
<text text-anchor="start" x="284.5" y="-108.3" font-family="Helvetica,sans-Serif" font-size="11.00" fill="#000000">mesh</text>
<polygon fill="none" stroke="#000000" points="264.5,-79.2 264.5,-101.2 359.5,-101.2 359.5,-79.2 264.5,-79.2"/>
<text text-anchor="start" x="284.5" y="-86.3" font-family="Helvetica,sans-Serif" font-size="11.00" fill="#000000">planim</text>
<polygon fill="none" stroke="#000000" points="264.5,-57.2 264.5,-79.2 359.5,-79.2 359.5,-57.2 264.5,-57.2"/>
<text text-anchor="start" x="284.5" y="-64.3" font-family="Helvetica,sans-Serif" font-size="11.00" fill="#000000">active</text>
<polygon fill="#ffffff" stroke="transparent" points="264.5,-38.2 264.5,-57.2 310.5,-57.2 310.5,-38.2 264.5,-38.2"/>
<polygon fill="none" stroke="#000000" points="264.5,-38.2 264.5,-57.2 310.5,-57.2 310.5,-38.2 264.5,-38.2"/>
<text text-anchor="start" x="267.5" y="-44.3" font-family="Helvetica,sans-Serif" font-size="11.00" fill="#000000">&lt; 1</text>
<polygon fill="#ffffff" stroke="transparent" points="310.5,-38.2 310.5,-57.2 334.5,-57.2 334.5,-38.2 310.5,-38.2"/>
<polygon fill="none" stroke="#000000" points="310.5,-38.2 310.5,-57.2 334.5,-57.2 334.5,-38.2 310.5,-38.2"/>
<text text-anchor="start" x="325.3862" y="-44.3" font-family="Helvetica,sans-Serif" font-size="11.00" fill="#000000"> &#160;</text>
<polygon fill="#ffffff" stroke="transparent" points="334.5,-38.2 334.5,-57.2 359.5,-57.2 359.5,-38.2 334.5,-38.2"/>
<polygon fill="none" stroke="#000000" points="334.5,-38.2 334.5,-57.2 359.5,-57.2 359.5,-38.2 334.5,-38.2"/>
<text text-anchor="start" x="350.3862" y="-44.3" font-family="Helvetica,sans-Serif" font-size="11.00" fill="#000000"> &#160;</text>
</a>
</g>
</g>
<!-- branchs&#45;&gt;extremities -->
<g id="edge1" class="edge">
<title>branchs:w&#45;&gt;extremities:e</title>
<path fill="none" stroke="#000000" d="M249.9909,-266.2C238.6774,-266.2 231.4931,-266.2 215.5,-266.2"/>
<polygon fill="#000000" stroke="#000000" points="256.5,-266.2001 264.5,-269.8 260.5,-266.2 264.5,-266.2 264.5,-266.2 264.5,-266.2 260.5,-266.2 264.5,-262.6 256.5,-266.2001 256.5,-266.2001"/>
<ellipse fill="none" stroke="#000000" cx="253.3" cy="-266.2001" rx="3.2" ry="3.2"/>
</g>
</g>
</svg>
