<?xml version="1.0" encoding="UTF-8" standalone="no"?>
<!DOCTYPE svg PUBLIC "-//W3C//DTD SVG 1.1//EN"
 "http://www.w3.org/Graphics/SVG/1.1/DTD/svg11.dtd">
<!-- Generated by graphviz version 2.40.1 (20161225.0304)
 -->
<!-- Title: twoDegreesRelationshipsDiagramImplied Pages: 1 -->
<svg width="583pt" height="317pt"
 viewBox="0.00 0.00 583.00 317.03" xmlns="http://www.w3.org/2000/svg" xmlns:xlink="http://www.w3.org/1999/xlink">
<g id="graph0" class="graph" transform="scale(1 1) rotate(0) translate(4 313.0326)">
<title>twoDegreesRelationshipsDiagramImplied</title>
<polygon fill="#ffffff" stroke="transparent" points="-4,4 -4,-313.0326 579,-313.0326 579,4 -4,4"/>
<text text-anchor="middle" x="72.4936" y="-7.3" font-family="Helvetica,sans-Serif" font-size="11.00" fill="#000000">Generated by SchemaSpy</text>
<!-- BreakLines2d -->
<g id="node1" class="node">
<title>BreakLines2d</title>
<g id="a_node1"><a xlink:href="../../tables/BreakLines2d.html" xlink:title="BreakLines2d" target="_top">
<polygon fill="#ffffff" stroke="transparent" points="225.5,-66.5326 225.5,-127.5326 342.5,-127.5326 342.5,-66.5326 225.5,-66.5326"/>
<polygon fill="#f5f5f5" stroke="transparent" points="226,-104.0326 226,-127.0326 343,-127.0326 343,-104.0326 226,-104.0326"/>
<polygon fill="none" stroke="#000000" points="226,-104.0326 226,-127.0326 343,-127.0326 343,-104.0326 226,-104.0326"/>
<text text-anchor="start" x="231" y="-112.6326" font-family="Helvetica,sans-Serif" font-weight="bold" font-size="11.00" fill="#000000">BreakLines2d</text>
<text text-anchor="start" x="308.5219" y="-112.1326" font-family="Helvetica,sans-Serif" font-size="11.00" fill="#000000">[table]</text>
<polygon fill="none" stroke="#000000" points="226,-85.0326 226,-104.0326 343,-104.0326 343,-85.0326 226,-85.0326"/>
<text text-anchor="start" x="229" y="-91.1326" font-family="Helvetica,sans-Serif" font-size="11.00" fill="#000000">...</text>
<polygon fill="#ffffff" stroke="transparent" points="226,-66.0326 226,-85.0326 265,-85.0326 265,-66.0326 226,-66.0326"/>
<polygon fill="none" stroke="#000000" points="226,-66.0326 226,-85.0326 265,-85.0326 265,-66.0326 226,-66.0326"/>
<text text-anchor="start" x="229" y="-72.1326" font-family="Helvetica,sans-Serif" font-size="11.00" fill="#000000">&lt; 1</text>
<polygon fill="#ffffff" stroke="transparent" points="265,-66.0326 265,-85.0326 312,-85.0326 312,-66.0326 265,-66.0326"/>
<polygon fill="none" stroke="#000000" points="265,-66.0326 265,-85.0326 312,-85.0326 312,-66.0326 265,-66.0326"/>
<text text-anchor="start" x="276.6105" y="-72.1326" font-family="Helvetica,sans-Serif" font-size="11.00" fill="#000000">0 rows</text>
<polygon fill="#ffffff" stroke="transparent" points="312,-66.0326 312,-85.0326 343,-85.0326 343,-66.0326 312,-66.0326"/>
<polygon fill="none" stroke="#000000" points="312,-66.0326 312,-85.0326 343,-85.0326 343,-66.0326 312,-66.0326"/>
<text text-anchor="start" x="324.4053" y="-72.1326" font-family="Helvetica,sans-Serif" font-size="11.00" fill="#000000">1 &gt;</text>
</a>
</g>
</g>
<!-- FlowAreas2d -->
<g id="node2" class="node">
<title>FlowAreas2d</title>
<g id="a_node2"><a xlink:href="../../tables/FlowAreas2d.html" xlink:title="FlowAreas2d" target="_top">
<polygon fill="#ffffff" stroke="transparent" points="8,-45.5326 8,-150.5326 121,-150.5326 121,-45.5326 8,-45.5326"/>
<polygon fill="#f5f5f5" stroke="transparent" points="8.5,-127.0326 8.5,-150.0326 121.5,-150.0326 121.5,-127.0326 8.5,-127.0326"/>
<polygon fill="none" stroke="#000000" points="8.5,-127.0326 8.5,-150.0326 121.5,-150.0326 121.5,-127.0326 8.5,-127.0326"/>
<text text-anchor="start" x="13.5" y="-135.6326" font-family="Helvetica,sans-Serif" font-weight="bold" font-size="11.00" fill="#000000">FlowAreas2d</text>
<text text-anchor="start" x="87.0219" y="-135.1326" font-family="Helvetica,sans-Serif" font-size="11.00" fill="#000000">[table]</text>
<polygon fill="#ffffff" stroke="transparent" points="8.5,-105.0326 8.5,-127.0326 121.5,-127.0326 121.5,-105.0326 8.5,-105.0326"/>
<polygon fill="none" stroke="#000000" points="8.5,-105.0326 8.5,-127.0326 121.5,-127.0326 121.5,-105.0326 8.5,-105.0326"/>
<text text-anchor="start" x="37.5" y="-112.1326" font-family="Helvetica,sans-Serif" font-size="11.00" fill="#000000">geom</text>
<polygon fill="none" stroke="#000000" points="8.5,-83.0326 8.5,-105.0326 121.5,-105.0326 121.5,-83.0326 8.5,-83.0326"/>
<image xlink:href="../../images/primaryKeys.png" width="11px" height="12px" preserveAspectRatio="xMinYMin meet" x="13.5" y="-100.033"/>
<text text-anchor="start" x="37.5" y="-90.1326" font-family="Helvetica,sans-Serif" font-size="11.00" fill="#000000">AreaID</text>
<polygon fill="none" stroke="#000000" points="8.5,-64.0326 8.5,-83.0326 121.5,-83.0326 121.5,-64.0326 8.5,-64.0326"/>
<text text-anchor="start" x="11.5" y="-70.1326" font-family="Helvetica,sans-Serif" font-size="11.00" fill="#000000">...</text>
<polygon fill="#ffffff" stroke="transparent" points="8.5,-45.0326 8.5,-64.0326 41.5,-64.0326 41.5,-45.0326 8.5,-45.0326"/>
<polygon fill="none" stroke="#000000" points="8.5,-45.0326 8.5,-64.0326 41.5,-64.0326 41.5,-45.0326 8.5,-45.0326"/>
<text text-anchor="start" x="11.5" y="-51.1326" font-family="Helvetica,sans-Serif" font-size="11.00" fill="#000000"> &#160;</text>
<polygon fill="#ffffff" stroke="transparent" points="41.5,-45.0326 41.5,-64.0326 89.5,-64.0326 89.5,-45.0326 41.5,-45.0326"/>
<polygon fill="none" stroke="#000000" points="41.5,-45.0326 41.5,-64.0326 89.5,-64.0326 89.5,-45.0326 41.5,-45.0326"/>
<text text-anchor="start" x="54.1105" y="-51.1326" font-family="Helvetica,sans-Serif" font-size="11.00" fill="#000000">0 rows</text>
<polygon fill="#ffffff" stroke="transparent" points="89.5,-45.0326 89.5,-64.0326 121.5,-64.0326 121.5,-45.0326 89.5,-45.0326"/>
<polygon fill="none" stroke="#000000" points="89.5,-45.0326 89.5,-64.0326 121.5,-64.0326 121.5,-45.0326 89.5,-45.0326"/>
<text text-anchor="start" x="102.9053" y="-51.1326" font-family="Helvetica,sans-Serif" font-size="11.00" fill="#000000">3 &gt;</text>
</a>
</g>
</g>
<!-- BreakLines2d&#45;&gt;FlowAreas2d -->
<g id="edge1" class="edge">
<title>BreakLines2d:w&#45;&gt;FlowAreas2d:e</title>
<path fill="none" stroke="#000000" stroke-dasharray="5,2" d="M211.4559,-94.0326C176.4779,-94.0326 162.6832,-94.0326 121.5,-94.0326"/>
<polygon fill="#000000" stroke="#000000" points="218,-94.0326 226,-97.6326 222,-94.0326 226,-94.0326 226,-94.0326 226,-94.0326 222,-94.0326 226,-90.4326 218,-94.0326 218,-94.0326"/>
<ellipse fill="none" stroke="#000000" cx="214.8" cy="-94.0327" rx="3.2" ry="3.2"/>
</g>
<!-- BreakPoints2d -->
<g id="node3" class="node">
<title>BreakPoints2d</title>
<g id="a_node3"><a xlink:href="../../tables/BreakPoints2d.html" xlink:title="BreakPoints2d" target="_top">
<polygon fill="#ffffff" stroke="transparent" points="170,-149.0326 170,-305.0326 398,-305.0326 398,-149.0326 170,-149.0326"/>
<polygon fill="#f5f5f5" stroke="transparent" points="172,-280.0326 172,-303.0326 396,-303.0326 396,-280.0326 172,-280.0326"/>
<polygon fill="none" stroke="#000000" points="172,-280.0326 172,-303.0326 396,-303.0326 396,-280.0326 172,-280.0326"/>
<text text-anchor="start" x="177" y="-288.6326" font-family="Helvetica,sans-Serif" font-weight="bold" font-size="11.00" fill="#000000">BreakPoints2d</text>
<text text-anchor="start" x="361.0437" y="-288.1326" font-family="Helvetica,sans-Serif" font-size="11.00" fill="#000000">[table]</text>
<polygon fill="#ffffff" stroke="transparent" points="172,-258.0326 172,-280.0326 277,-280.0326 277,-258.0326 172,-258.0326"/>
<polygon fill="none" stroke="#000000" points="172,-258.0326 172,-280.0326 277,-280.0326 277,-258.0326 172,-258.0326"/>
<text text-anchor="start" x="192" y="-265.1326" font-family="Helvetica,sans-Serif" font-size="11.00" fill="#000000">geom</text>
<polygon fill="none" stroke="#000000" points="277,-258.0326 277,-280.0326 396,-280.0326 396,-258.0326 277,-258.0326"/>
<text text-anchor="start" x="279.9485" y="-265.7326" font-family="Helvetica,sans-Serif" font-size="11.00" fill="#000000">geometry[2147483647]</text>
<polygon fill="none" stroke="#000000" points="172,-236.0326 172,-258.0326 277,-258.0326 277,-236.0326 172,-236.0326"/>
<image xlink:href="../../images/primaryKeys.png" width="11px" height="12px" preserveAspectRatio="xMinYMin meet" x="177" y="-253.033"/>
<text text-anchor="start" x="192" y="-243.1326" font-family="Helvetica,sans-Serif" font-size="11.00" fill="#000000">BPID</text>
<polygon fill="none" stroke="#000000" points="277,-236.0326 277,-258.0326 396,-258.0326 396,-236.0326 277,-236.0326"/>
<text text-anchor="start" x="280" y="-243.7326" font-family="Helvetica,sans-Serif" font-size="11.00" fill="#000000">serial[10]</text>
<polygon fill="none" stroke="#000000" points="172,-214.0326 172,-236.0326 277,-236.0326 277,-214.0326 172,-214.0326"/>
<image xlink:href="../../images/foreignKeys.png" width="11px" height="12px" preserveAspectRatio="xMinYMin meet" x="177" y="-231.033"/>
<text text-anchor="start" x="192" y="-221.1326" font-family="Helvetica,sans-Serif" font-size="11.00" fill="#000000">AreaID</text>
<polygon fill="none" stroke="#000000" points="277,-214.0326 277,-236.0326 396,-236.0326 396,-214.0326 277,-214.0326"/>
<text text-anchor="start" x="280" y="-221.7326" font-family="Helvetica,sans-Serif" font-size="11.00" fill="#000000">int4[10]</text>
<polygon fill="none" stroke="#000000" points="172,-192.0326 172,-214.0326 277,-214.0326 277,-192.0326 172,-192.0326"/>
<text text-anchor="start" x="192" y="-199.1326" font-family="Helvetica,sans-Serif" font-size="11.00" fill="#000000">BLmID</text>
<polygon fill="none" stroke="#000000" points="277,-192.0326 277,-214.0326 396,-214.0326 396,-192.0326 277,-192.0326"/>
<text text-anchor="start" x="280" y="-199.7326" font-family="Helvetica,sans-Serif" font-size="11.00" fill="#000000">int4[10]</text>
<polygon fill="none" stroke="#000000" points="172,-170.0326 172,-192.0326 277,-192.0326 277,-170.0326 172,-170.0326"/>
<text text-anchor="start" x="192" y="-177.1326" font-family="Helvetica,sans-Serif" font-size="11.00" fill="#000000">Fraction</text>
<polygon fill="none" stroke="#000000" points="277,-170.0326 277,-192.0326 396,-192.0326 396,-170.0326 277,-170.0326"/>
<text text-anchor="start" x="280" y="-177.7326" font-family="Helvetica,sans-Serif" font-size="11.00" fill="#000000">float8[17,17]</text>
<polygon fill="#ffffff" stroke="transparent" points="172,-151.0326 172,-170.0326 216,-170.0326 216,-151.0326 172,-151.0326"/>
<polygon fill="none" stroke="#000000" points="172,-151.0326 172,-170.0326 216,-170.0326 216,-151.0326 172,-151.0326"/>
<text text-anchor="start" x="175" y="-157.1326" font-family="Helvetica,sans-Serif" font-size="11.00" fill="#000000">&lt; 1</text>
<polygon fill="#ffffff" stroke="transparent" points="216,-151.0326 216,-170.0326 277,-170.0326 277,-151.0326 216,-151.0326"/>
<polygon fill="none" stroke="#000000" points="216,-151.0326 216,-170.0326 277,-170.0326 277,-151.0326 216,-151.0326"/>
<text text-anchor="start" x="241.6105" y="-157.1326" font-family="Helvetica,sans-Serif" font-size="11.00" fill="#000000">0 rows</text>
<polygon fill="#ffffff" stroke="transparent" points="277,-151.0326 277,-170.0326 396,-170.0326 396,-151.0326 277,-151.0326"/>
<polygon fill="none" stroke="#000000" points="277,-151.0326 277,-170.0326 396,-170.0326 396,-151.0326 277,-151.0326"/>
<text text-anchor="start" x="377.4053" y="-157.1326" font-family="Helvetica,sans-Serif" font-size="11.00" fill="#000000">0 &gt;</text>
<polygon fill="none" stroke="#000000" stroke-width="2" points="171,-150.0326 171,-304.0326 397,-304.0326 397,-150.0326 171,-150.0326"/>
</a>
</g>
</g>
<!-- BreakPoints2d&#45;&gt;FlowAreas2d -->
<g id="edge2" class="edge">
<title>BreakPoints2d:w&#45;&gt;FlowAreas2d:e</title>
<path fill="none" stroke="#000000" stroke-dasharray="5,2" d="M157.8294,-221.7944C122.3307,-201.6215 178.0487,-94.0326 121.5,-94.0326"/>
<polygon fill="#000000" stroke="#000000" points="164.201,-223.2503 171.198,-228.5421 168.1005,-224.1415 172,-225.0326 172,-225.0326 172,-225.0326 168.1005,-224.1415 172.802,-221.5231 164.201,-223.2503 164.201,-223.2503"/>
<ellipse fill="none" stroke="#000000" cx="161.0815" cy="-222.5374" rx="3.2" ry="3.2"/>
</g>
<!-- MeshPoints2d -->
<g id="node4" class="node">
<title>MeshPoints2d</title>
<g id="a_node4"><a xlink:href="../../tables/MeshPoints2d.html" xlink:title="MeshPoints2d" target="_top">
<polygon fill="#ffffff" stroke="transparent" points="447,-40.5326 447,-101.5326 567,-101.5326 567,-40.5326 447,-40.5326"/>
<polygon fill="#f5f5f5" stroke="transparent" points="447,-78.0326 447,-101.0326 567,-101.0326 567,-78.0326 447,-78.0326"/>
<polygon fill="none" stroke="#000000" points="447,-78.0326 447,-101.0326 567,-101.0326 567,-78.0326 447,-78.0326"/>
<text text-anchor="start" x="452" y="-86.6326" font-family="Helvetica,sans-Serif" font-weight="bold" font-size="11.00" fill="#000000">MeshPoints2d</text>
<text text-anchor="start" x="532.5219" y="-86.1326" font-family="Helvetica,sans-Serif" font-size="11.00" fill="#000000">[table]</text>
<polygon fill="none" stroke="#000000" points="447,-59.0326 447,-78.0326 567,-78.0326 567,-59.0326 447,-59.0326"/>
<text text-anchor="start" x="450" y="-65.1326" font-family="Helvetica,sans-Serif" font-size="11.00" fill="#000000">...</text>
<polygon fill="#ffffff" stroke="transparent" points="447,-40.0326 447,-59.0326 492,-59.0326 492,-40.0326 447,-40.0326"/>
<polygon fill="none" stroke="#000000" points="447,-40.0326 447,-59.0326 492,-59.0326 492,-40.0326 447,-40.0326"/>
<text text-anchor="start" x="450" y="-46.1326" font-family="Helvetica,sans-Serif" font-size="11.00" fill="#000000">&lt; 2</text>
<polygon fill="#ffffff" stroke="transparent" points="492,-40.0326 492,-59.0326 542,-59.0326 542,-40.0326 492,-40.0326"/>
<polygon fill="none" stroke="#000000" points="492,-40.0326 492,-59.0326 542,-59.0326 542,-40.0326 492,-40.0326"/>
<text text-anchor="start" x="506.6105" y="-46.1326" font-family="Helvetica,sans-Serif" font-size="11.00" fill="#000000">0 rows</text>
<polygon fill="#ffffff" stroke="transparent" points="542,-40.0326 542,-59.0326 567,-59.0326 567,-40.0326 542,-40.0326"/>
<polygon fill="none" stroke="#000000" points="542,-40.0326 542,-59.0326 567,-59.0326 567,-40.0326 542,-40.0326"/>
<text text-anchor="start" x="557.8862" y="-46.1326" font-family="Helvetica,sans-Serif" font-size="11.00" fill="#000000"> &#160;</text>
</a>
</g>
</g>
<!-- MeshPoints2d&#45;&gt;BreakLines2d -->
<g id="edge4" class="edge">
<title>MeshPoints2d:w&#45;&gt;BreakLines2d:e</title>
<path fill="none" stroke="#000000" stroke-dasharray="5,2" d="M432.1939,-68.9579C396.8821,-73.5896 385.2475,-94.0326 343,-94.0326"/>
<polygon fill="#000000" stroke="#000000" points="439.0156,-68.5316 447.2246,-71.6256 443.0078,-68.2821 447,-68.0326 447,-68.0326 447,-68.0326 443.0078,-68.2821 446.7754,-64.4396 439.0156,-68.5316 439.0156,-68.5316"/>
<ellipse fill="none" stroke="#000000" cx="435.8218" cy="-68.7313" rx="3.2" ry="3.2"/>
</g>
<!-- MeshPoints2d&#45;&gt;FlowAreas2d -->
<g id="edge3" class="edge">
<title>MeshPoints2d:w&#45;&gt;FlowAreas2d:e</title>
<path fill="none" stroke="#000000" stroke-dasharray="5,2" d="M432.5783,-65.6913C424.3532,-62.7493 418.7744,-57.8636 406,-56.0326 298.6527,-40.646 262.8375,-16.1327 162,-56.0326 139.0487,-65.1141 146.1827,-94.0326 121.5,-94.0326"/>
<polygon fill="#000000" stroke="#000000" points="439.1034,-66.7506 446.4231,-71.5861 443.0517,-67.3916 447,-68.0326 447,-68.0326 447,-68.0326 443.0517,-67.3916 447.5769,-64.4791 439.1034,-66.7506 439.1034,-66.7506"/>
<ellipse fill="none" stroke="#000000" cx="435.9447" cy="-66.2378" rx="3.2" ry="3.2"/>
</g>
</g>
</svg>
