<?xml version="1.0" encoding="UTF-8" standalone="no"?>
<!DOCTYPE svg PUBLIC "-//W3C//DTD SVG 1.1//EN"
 "http://www.w3.org/Graphics/SVG/1.1/DTD/svg11.dtd">
<!-- Generated by graphviz version 2.40.1 (20161225.0304)
 -->
<!-- Title: twoDegreesRelationshipsDiagramImplied Pages: 1 -->
<svg width="585pt" height="344pt"
 viewBox="0.00 0.00 585.00 344.42" xmlns="http://www.w3.org/2000/svg" xmlns:xlink="http://www.w3.org/1999/xlink">
<g id="graph0" class="graph" transform="scale(1 1) rotate(0) translate(4 340.4244)">
<title>twoDegreesRelationshipsDiagramImplied</title>
<polygon fill="#ffffff" stroke="transparent" points="-4,4 -4,-340.4244 581,-340.4244 581,4 -4,4"/>
<text text-anchor="middle" x="72.4936" y="-7.3" font-family="Helvetica,sans-Serif" font-size="11.00" fill="#000000">Generated by SchemaSpy</text>
<!-- BreakLines2d -->
<g id="node1" class="node">
<title>BreakLines2d</title>
<g id="a_node1"><a xlink:href="../../tables/BreakLines2d.html" xlink:title="BreakLines2d" target="_top">
<polygon fill="#ffffff" stroke="transparent" points="170,-71.9244 170,-249.9244 400,-249.9244 400,-71.9244 170,-71.9244"/>
<polygon fill="#f5f5f5" stroke="transparent" points="172,-224.9244 172,-247.9244 398,-247.9244 398,-224.9244 172,-224.9244"/>
<polygon fill="none" stroke="#000000" points="172,-224.9244 172,-247.9244 398,-247.9244 398,-224.9244 172,-224.9244"/>
<text text-anchor="start" x="177" y="-233.5244" font-family="Helvetica,sans-Serif" font-weight="bold" font-size="11.00" fill="#000000">BreakLines2d</text>
<text text-anchor="start" x="363.0437" y="-233.0244" font-family="Helvetica,sans-Serif" font-size="11.00" fill="#000000">[table]</text>
<polygon fill="#ffffff" stroke="transparent" points="172,-202.9244 172,-224.9244 279,-224.9244 279,-202.9244 172,-202.9244"/>
<polygon fill="none" stroke="#000000" points="172,-202.9244 172,-224.9244 279,-224.9244 279,-202.9244 172,-202.9244"/>
<text text-anchor="start" x="192" y="-210.0244" font-family="Helvetica,sans-Serif" font-size="11.00" fill="#000000">geom</text>
<polygon fill="none" stroke="#000000" points="279,-202.9244 279,-224.9244 398,-224.9244 398,-202.9244 279,-202.9244"/>
<text text-anchor="start" x="281.9485" y="-210.6244" font-family="Helvetica,sans-Serif" font-size="11.00" fill="#000000">geometry[2147483647]</text>
<polygon fill="none" stroke="#000000" points="172,-180.9244 172,-202.9244 279,-202.9244 279,-180.9244 172,-180.9244"/>
<image xlink:href="../../images/primaryKeys.png" width="11px" height="12px" preserveAspectRatio="xMinYMin meet" x="177" y="-197.924"/>
<text text-anchor="start" x="192" y="-188.0244" font-family="Helvetica,sans-Serif" font-size="11.00" fill="#000000">BLID</text>
<polygon fill="none" stroke="#000000" points="279,-180.9244 279,-202.9244 398,-202.9244 398,-180.9244 279,-180.9244"/>
<text text-anchor="start" x="282" y="-188.6244" font-family="Helvetica,sans-Serif" font-size="11.00" fill="#000000">serial[10]</text>
<polygon fill="none" stroke="#000000" points="172,-158.9244 172,-180.9244 279,-180.9244 279,-158.9244 172,-158.9244"/>
<image xlink:href="../../images/foreignKeys.png" width="11px" height="12px" preserveAspectRatio="xMinYMin meet" x="177" y="-175.924"/>
<text text-anchor="start" x="192" y="-166.0244" font-family="Helvetica,sans-Serif" font-size="11.00" fill="#000000">AreaID</text>
<polygon fill="none" stroke="#000000" points="279,-158.9244 279,-180.9244 398,-180.9244 398,-158.9244 279,-158.9244"/>
<text text-anchor="start" x="282" y="-166.6244" font-family="Helvetica,sans-Serif" font-size="11.00" fill="#000000">int4[10]</text>
<polygon fill="none" stroke="#000000" points="172,-136.9244 172,-158.9244 279,-158.9244 279,-136.9244 172,-136.9244"/>
<text text-anchor="start" x="192" y="-144.0244" font-family="Helvetica,sans-Serif" font-size="11.00" fill="#000000">CellSizeAlong</text>
<polygon fill="none" stroke="#000000" points="279,-136.9244 279,-158.9244 398,-158.9244 398,-136.9244 279,-136.9244"/>
<text text-anchor="start" x="282" y="-144.6244" font-family="Helvetica,sans-Serif" font-size="11.00" fill="#000000">float8[17,17]</text>
<polygon fill="none" stroke="#000000" points="172,-114.9244 172,-136.9244 279,-136.9244 279,-114.9244 172,-114.9244"/>
<text text-anchor="start" x="192" y="-122.0244" font-family="Helvetica,sans-Serif" font-size="11.00" fill="#000000">CellSizeAcross</text>
<polygon fill="none" stroke="#000000" points="279,-114.9244 279,-136.9244 398,-136.9244 398,-114.9244 279,-114.9244"/>
<text text-anchor="start" x="282" y="-122.6244" font-family="Helvetica,sans-Serif" font-size="11.00" fill="#000000">float8[17,17]</text>
<polygon fill="none" stroke="#000000" points="172,-92.9244 172,-114.9244 279,-114.9244 279,-92.9244 172,-92.9244"/>
<text text-anchor="start" x="192" y="-100.0244" font-family="Helvetica,sans-Serif" font-size="11.00" fill="#000000">RowsAligned</text>
<polygon fill="none" stroke="#000000" points="279,-92.9244 279,-114.9244 398,-114.9244 398,-92.9244 279,-92.9244"/>
<text text-anchor="start" x="282" y="-100.6244" font-family="Helvetica,sans-Serif" font-size="11.00" fill="#000000">int4[10]</text>
<polygon fill="#ffffff" stroke="transparent" points="172,-73.9244 172,-92.9244 217,-92.9244 217,-73.9244 172,-73.9244"/>
<polygon fill="none" stroke="#000000" points="172,-73.9244 172,-92.9244 217,-92.9244 217,-73.9244 172,-73.9244"/>
<text text-anchor="start" x="175" y="-80.0244" font-family="Helvetica,sans-Serif" font-size="11.00" fill="#000000">&lt; 1</text>
<polygon fill="#ffffff" stroke="transparent" points="217,-73.9244 217,-92.9244 279,-92.9244 279,-73.9244 217,-73.9244"/>
<polygon fill="none" stroke="#000000" points="217,-73.9244 217,-92.9244 279,-92.9244 279,-73.9244 217,-73.9244"/>
<text text-anchor="start" x="243.6105" y="-80.0244" font-family="Helvetica,sans-Serif" font-size="11.00" fill="#000000">0 rows</text>
<polygon fill="#ffffff" stroke="transparent" points="279,-73.9244 279,-92.9244 398,-92.9244 398,-73.9244 279,-73.9244"/>
<polygon fill="none" stroke="#000000" points="279,-73.9244 279,-92.9244 398,-92.9244 398,-73.9244 279,-73.9244"/>
<text text-anchor="start" x="379.4053" y="-80.0244" font-family="Helvetica,sans-Serif" font-size="11.00" fill="#000000">1 &gt;</text>
<polygon fill="none" stroke="#000000" stroke-width="2" points="171,-72.9244 171,-248.9244 399,-248.9244 399,-72.9244 171,-72.9244"/>
</a>
</g>
</g>
<!-- FlowAreas2d -->
<g id="node2" class="node">
<title>FlowAreas2d</title>
<g id="a_node2"><a xlink:href="../../tables/FlowAreas2d.html" xlink:title="FlowAreas2d" target="_top">
<polygon fill="#ffffff" stroke="transparent" points="8,-139.4244 8,-200.4244 121,-200.4244 121,-139.4244 8,-139.4244"/>
<polygon fill="#f5f5f5" stroke="transparent" points="8.5,-176.9244 8.5,-199.9244 121.5,-199.9244 121.5,-176.9244 8.5,-176.9244"/>
<polygon fill="none" stroke="#000000" points="8.5,-176.9244 8.5,-199.9244 121.5,-199.9244 121.5,-176.9244 8.5,-176.9244"/>
<text text-anchor="start" x="13.5" y="-185.5244" font-family="Helvetica,sans-Serif" font-weight="bold" font-size="11.00" fill="#000000">FlowAreas2d</text>
<text text-anchor="start" x="87.0219" y="-185.0244" font-family="Helvetica,sans-Serif" font-size="11.00" fill="#000000">[table]</text>
<polygon fill="none" stroke="#000000" points="8.5,-157.9244 8.5,-176.9244 121.5,-176.9244 121.5,-157.9244 8.5,-157.9244"/>
<text text-anchor="start" x="11.5" y="-164.0244" font-family="Helvetica,sans-Serif" font-size="11.00" fill="#000000">...</text>
<polygon fill="#ffffff" stroke="transparent" points="8.5,-138.9244 8.5,-157.9244 41.5,-157.9244 41.5,-138.9244 8.5,-138.9244"/>
<polygon fill="none" stroke="#000000" points="8.5,-138.9244 8.5,-157.9244 41.5,-157.9244 41.5,-138.9244 8.5,-138.9244"/>
<text text-anchor="start" x="11.5" y="-145.0244" font-family="Helvetica,sans-Serif" font-size="11.00" fill="#000000"> &#160;</text>
<polygon fill="#ffffff" stroke="transparent" points="41.5,-138.9244 41.5,-157.9244 89.5,-157.9244 89.5,-138.9244 41.5,-138.9244"/>
<polygon fill="none" stroke="#000000" points="41.5,-138.9244 41.5,-157.9244 89.5,-157.9244 89.5,-138.9244 41.5,-138.9244"/>
<text text-anchor="start" x="54.1105" y="-145.0244" font-family="Helvetica,sans-Serif" font-size="11.00" fill="#000000">0 rows</text>
<polygon fill="#ffffff" stroke="transparent" points="89.5,-138.9244 89.5,-157.9244 121.5,-157.9244 121.5,-138.9244 89.5,-138.9244"/>
<polygon fill="none" stroke="#000000" points="89.5,-138.9244 89.5,-157.9244 121.5,-157.9244 121.5,-138.9244 89.5,-138.9244"/>
<text text-anchor="start" x="102.9053" y="-145.0244" font-family="Helvetica,sans-Serif" font-size="11.00" fill="#000000">3 &gt;</text>
</a>
</g>
</g>
<!-- BreakLines2d&#45;&gt;FlowAreas2d -->
<g id="edge1" class="edge">
<title>BreakLines2d:w&#45;&gt;FlowAreas2d:e</title>
<path fill="none" stroke="#000000" stroke-dasharray="5,2" d="M157.3746,-169.9244C147.9306,-169.9244 138.3124,-169.9244 129.0193,-169.9244"/>
<polygon fill="#000000" stroke="#000000" points="164,-169.9245 172,-173.5244 168,-169.9245 172,-169.9244 172,-169.9244 172,-169.9244 168,-169.9245 172,-166.3244 164,-169.9245 164,-169.9245"/>
<ellipse fill="none" stroke="#000000" cx="160.8" cy="-169.9245" rx="3.2" ry="3.2"/>
</g>
<!-- BreakPoints2d -->
<g id="node3" class="node">
<title>BreakPoints2d</title>
<g id="a_node3"><a xlink:href="../../tables/BreakPoints2d.html" xlink:title="BreakPoints2d" target="_top">
<polygon fill="#ffffff" stroke="transparent" points="223.5,-271.4244 223.5,-332.4244 346.5,-332.4244 346.5,-271.4244 223.5,-271.4244"/>
<polygon fill="#f5f5f5" stroke="transparent" points="224,-308.9244 224,-331.9244 347,-331.9244 347,-308.9244 224,-308.9244"/>
<polygon fill="none" stroke="#000000" points="224,-308.9244 224,-331.9244 347,-331.9244 347,-308.9244 224,-308.9244"/>
<text text-anchor="start" x="229" y="-317.5244" font-family="Helvetica,sans-Serif" font-weight="bold" font-size="11.00" fill="#000000">BreakPoints2d</text>
<text text-anchor="start" x="312.5219" y="-317.0244" font-family="Helvetica,sans-Serif" font-size="11.00" fill="#000000">[table]</text>
<polygon fill="none" stroke="#000000" points="224,-289.9244 224,-308.9244 347,-308.9244 347,-289.9244 224,-289.9244"/>
<text text-anchor="start" x="227" y="-296.0244" font-family="Helvetica,sans-Serif" font-size="11.00" fill="#000000">...</text>
<polygon fill="#ffffff" stroke="transparent" points="224,-270.9244 224,-289.9244 271,-289.9244 271,-270.9244 224,-270.9244"/>
<polygon fill="none" stroke="#000000" points="224,-270.9244 224,-289.9244 271,-289.9244 271,-270.9244 224,-270.9244"/>
<text text-anchor="start" x="227" y="-277.0244" font-family="Helvetica,sans-Serif" font-size="11.00" fill="#000000">&lt; 1</text>
<polygon fill="#ffffff" stroke="transparent" points="271,-270.9244 271,-289.9244 322,-289.9244 322,-270.9244 271,-270.9244"/>
<polygon fill="none" stroke="#000000" points="271,-270.9244 271,-289.9244 322,-289.9244 322,-270.9244 271,-270.9244"/>
<text text-anchor="start" x="286.6105" y="-277.0244" font-family="Helvetica,sans-Serif" font-size="11.00" fill="#000000">0 rows</text>
<polygon fill="#ffffff" stroke="transparent" points="322,-270.9244 322,-289.9244 347,-289.9244 347,-270.9244 322,-270.9244"/>
<polygon fill="none" stroke="#000000" points="322,-270.9244 322,-289.9244 347,-289.9244 347,-270.9244 322,-270.9244"/>
<text text-anchor="start" x="337.8862" y="-277.0244" font-family="Helvetica,sans-Serif" font-size="11.00" fill="#000000"> &#160;</text>
</a>
</g>
</g>
<!-- BreakPoints2d&#45;&gt;FlowAreas2d -->
<g id="edge2" class="edge">
<title>BreakPoints2d:w&#45;&gt;FlowAreas2d:e</title>
<path fill="none" stroke="#000000" stroke-dasharray="5,2" d="M209.3964,-297.8305C155.726,-289.8222 111.3495,-239.5709 86.3891,-204.4941"/>
<polygon fill="#000000" stroke="#000000" points="216.0224,-298.3268 223.7311,-302.5144 220.0112,-298.6256 224,-298.9244 224,-298.9244 224,-298.9244 220.0112,-298.6256 224.2689,-295.3345 216.0224,-298.3268 216.0224,-298.3268"/>
<ellipse fill="none" stroke="#000000" cx="212.8313" cy="-298.0877" rx="3.2" ry="3.2"/>
</g>
<!-- MeshPoints2d -->
<g id="node4" class="node">
<title>MeshPoints2d</title>
<g id="a_node4"><a xlink:href="../../tables/MeshPoints2d.html" xlink:title="MeshPoints2d" target="_top">
<polygon fill="#ffffff" stroke="transparent" points="449,-89.4244 449,-150.4244 569,-150.4244 569,-89.4244 449,-89.4244"/>
<polygon fill="#f5f5f5" stroke="transparent" points="449,-126.9244 449,-149.9244 569,-149.9244 569,-126.9244 449,-126.9244"/>
<polygon fill="none" stroke="#000000" points="449,-126.9244 449,-149.9244 569,-149.9244 569,-126.9244 449,-126.9244"/>
<text text-anchor="start" x="454" y="-135.5244" font-family="Helvetica,sans-Serif" font-weight="bold" font-size="11.00" fill="#000000">MeshPoints2d</text>
<text text-anchor="start" x="534.5219" y="-135.0244" font-family="Helvetica,sans-Serif" font-size="11.00" fill="#000000">[table]</text>
<polygon fill="none" stroke="#000000" points="449,-107.9244 449,-126.9244 569,-126.9244 569,-107.9244 449,-107.9244"/>
<text text-anchor="start" x="452" y="-114.0244" font-family="Helvetica,sans-Serif" font-size="11.00" fill="#000000">...</text>
<polygon fill="#ffffff" stroke="transparent" points="449,-88.9244 449,-107.9244 494,-107.9244 494,-88.9244 449,-88.9244"/>
<polygon fill="none" stroke="#000000" points="449,-88.9244 449,-107.9244 494,-107.9244 494,-88.9244 449,-88.9244"/>
<text text-anchor="start" x="452" y="-95.0244" font-family="Helvetica,sans-Serif" font-size="11.00" fill="#000000">&lt; 2</text>
<polygon fill="#ffffff" stroke="transparent" points="494,-88.9244 494,-107.9244 544,-107.9244 544,-88.9244 494,-88.9244"/>
<polygon fill="none" stroke="#000000" points="494,-88.9244 494,-107.9244 544,-107.9244 544,-88.9244 494,-88.9244"/>
<text text-anchor="start" x="508.6105" y="-95.0244" font-family="Helvetica,sans-Serif" font-size="11.00" fill="#000000">0 rows</text>
<polygon fill="#ffffff" stroke="transparent" points="544,-88.9244 544,-107.9244 569,-107.9244 569,-88.9244 544,-88.9244"/>
<polygon fill="none" stroke="#000000" points="544,-88.9244 544,-107.9244 569,-107.9244 569,-88.9244 544,-88.9244"/>
<text text-anchor="start" x="559.8862" y="-95.0244" font-family="Helvetica,sans-Serif" font-size="11.00" fill="#000000"> &#160;</text>
</a>
</g>
</g>
<!-- MeshPoints2d&#45;&gt;BreakLines2d -->
<g id="edge4" class="edge">
<title>MeshPoints2d:w&#45;&gt;BreakLines2d:e</title>
<path fill="none" stroke="#000000" stroke-dasharray="5,2" d="M465.7279,-164.0938C446.6512,-178.9948 422.9187,-191.9244 398,-191.9244"/>
<polygon fill="#000000" stroke="#000000" points="470.8446,-159.801 479.2871,-157.4169 473.9089,-157.23 476.9732,-154.659 476.9732,-154.659 476.9732,-154.659 473.9089,-157.23 474.6594,-151.9011 470.8446,-159.801 470.8446,-159.801"/>
<ellipse fill="none" stroke="#000000" cx="468.3931" cy="-161.8578" rx="3.2" ry="3.2"/>
</g>
<!-- MeshPoints2d&#45;&gt;FlowAreas2d -->
<g id="edge3" class="edge">
<title>MeshPoints2d:w&#45;&gt;FlowAreas2d:e</title>
<path fill="none" stroke="#000000" stroke-dasharray="5,2" d="M447.8523,-78.1633C435.1869,-71.4578 421.5579,-65.5404 408,-61.9244 302.3593,-33.7496 261.9101,-17.52 162,-61.9244 128.4139,-76.8516 101.5101,-109.6983 84.5421,-135.2731"/>
<polygon fill="#000000" stroke="#000000" points="453.6876,-81.4483 458.8927,-88.51 457.1732,-83.4106 460.6588,-85.3729 460.6588,-85.3729 460.6588,-85.3729 457.1732,-83.4106 462.4248,-82.2359 453.6876,-81.4483 453.6876,-81.4483"/>
<ellipse fill="none" stroke="#000000" cx="450.8991" cy="-79.8785" rx="3.2" ry="3.2"/>
</g>
</g>
</svg>
