<?xml version="1.0" encoding="UTF-8" standalone="no"?>
<!DOCTYPE svg PUBLIC "-//W3C//DTD SVG 1.1//EN"
 "http://www.w3.org/Graphics/SVG/1.1/DTD/svg11.dtd">
<!-- Generated by graphviz version 2.40.1 (20161225.0304)
 -->
<!-- Title: oneDegreeRelationshipsDiagramImplied Pages: 1 -->
<svg width="585pt" height="301pt"
 viewBox="0.00 0.00 585.00 300.70" xmlns="http://www.w3.org/2000/svg" xmlns:xlink="http://www.w3.org/1999/xlink">
<g id="graph0" class="graph" transform="scale(1 1) rotate(0) translate(4 296.7)">
<title>oneDegreeRelationshipsDiagramImplied</title>
<polygon fill="#ffffff" stroke="transparent" points="-4,4 -4,-296.7 581,-296.7 581,4 -4,4"/>
<text text-anchor="middle" x="72.4936" y="-7.3" font-family="Helvetica,sans-Serif" font-size="11.00" fill="#000000">Generated by SchemaSpy</text>
<!-- BreakLines2d -->
<g id="node1" class="node">
<title>BreakLines2d</title>
<g id="a_node1"><a xlink:href="../../tables/BreakLines2d.html" xlink:title="BreakLines2d" target="_top">
<polygon fill="#ffffff" stroke="transparent" points="170,-38.2 170,-216.2 400,-216.2 400,-38.2 170,-38.2"/>
<polygon fill="#f5f5f5" stroke="transparent" points="172,-191.2 172,-214.2 398,-214.2 398,-191.2 172,-191.2"/>
<polygon fill="none" stroke="#000000" points="172,-191.2 172,-214.2 398,-214.2 398,-191.2 172,-191.2"/>
<text text-anchor="start" x="177" y="-199.8" font-family="Helvetica,sans-Serif" font-weight="bold" font-size="11.00" fill="#000000">BreakLines2d</text>
<text text-anchor="start" x="363.0437" y="-199.3" font-family="Helvetica,sans-Serif" font-size="11.00" fill="#000000">[table]</text>
<polygon fill="#ffffff" stroke="transparent" points="172,-169.2 172,-191.2 279,-191.2 279,-169.2 172,-169.2"/>
<polygon fill="none" stroke="#000000" points="172,-169.2 172,-191.2 279,-191.2 279,-169.2 172,-169.2"/>
<text text-anchor="start" x="192" y="-176.3" font-family="Helvetica,sans-Serif" font-size="11.00" fill="#000000">geom</text>
<polygon fill="none" stroke="#000000" points="279,-169.2 279,-191.2 398,-191.2 398,-169.2 279,-169.2"/>
<text text-anchor="start" x="281.9485" y="-176.9" font-family="Helvetica,sans-Serif" font-size="11.00" fill="#000000">geometry[2147483647]</text>
<polygon fill="none" stroke="#000000" points="172,-147.2 172,-169.2 279,-169.2 279,-147.2 172,-147.2"/>
<image xlink:href="../../images/primaryKeys.png" width="11px" height="12px" preserveAspectRatio="xMinYMin meet" x="177" y="-164.2"/>
<text text-anchor="start" x="192" y="-154.3" font-family="Helvetica,sans-Serif" font-size="11.00" fill="#000000">BLID</text>
<polygon fill="none" stroke="#000000" points="279,-147.2 279,-169.2 398,-169.2 398,-147.2 279,-147.2"/>
<text text-anchor="start" x="282" y="-154.9" font-family="Helvetica,sans-Serif" font-size="11.00" fill="#000000">serial[10]</text>
<polygon fill="none" stroke="#000000" points="172,-125.2 172,-147.2 279,-147.2 279,-125.2 172,-125.2"/>
<image xlink:href="../../images/foreignKeys.png" width="11px" height="12px" preserveAspectRatio="xMinYMin meet" x="177" y="-142.2"/>
<text text-anchor="start" x="192" y="-132.3" font-family="Helvetica,sans-Serif" font-size="11.00" fill="#000000">AreaID</text>
<polygon fill="none" stroke="#000000" points="279,-125.2 279,-147.2 398,-147.2 398,-125.2 279,-125.2"/>
<text text-anchor="start" x="282" y="-132.9" font-family="Helvetica,sans-Serif" font-size="11.00" fill="#000000">int4[10]</text>
<polygon fill="none" stroke="#000000" points="172,-103.2 172,-125.2 279,-125.2 279,-103.2 172,-103.2"/>
<text text-anchor="start" x="192" y="-110.3" font-family="Helvetica,sans-Serif" font-size="11.00" fill="#000000">CellSizeAlong</text>
<polygon fill="none" stroke="#000000" points="279,-103.2 279,-125.2 398,-125.2 398,-103.2 279,-103.2"/>
<text text-anchor="start" x="282" y="-110.9" font-family="Helvetica,sans-Serif" font-size="11.00" fill="#000000">float8[17,17]</text>
<polygon fill="none" stroke="#000000" points="172,-81.2 172,-103.2 279,-103.2 279,-81.2 172,-81.2"/>
<text text-anchor="start" x="192" y="-88.3" font-family="Helvetica,sans-Serif" font-size="11.00" fill="#000000">CellSizeAcross</text>
<polygon fill="none" stroke="#000000" points="279,-81.2 279,-103.2 398,-103.2 398,-81.2 279,-81.2"/>
<text text-anchor="start" x="282" y="-88.9" font-family="Helvetica,sans-Serif" font-size="11.00" fill="#000000">float8[17,17]</text>
<polygon fill="none" stroke="#000000" points="172,-59.2 172,-81.2 279,-81.2 279,-59.2 172,-59.2"/>
<text text-anchor="start" x="192" y="-66.3" font-family="Helvetica,sans-Serif" font-size="11.00" fill="#000000">RowsAligned</text>
<polygon fill="none" stroke="#000000" points="279,-59.2 279,-81.2 398,-81.2 398,-59.2 279,-59.2"/>
<text text-anchor="start" x="282" y="-66.9" font-family="Helvetica,sans-Serif" font-size="11.00" fill="#000000">int4[10]</text>
<polygon fill="#ffffff" stroke="transparent" points="172,-40.2 172,-59.2 217,-59.2 217,-40.2 172,-40.2"/>
<polygon fill="none" stroke="#000000" points="172,-40.2 172,-59.2 217,-59.2 217,-40.2 172,-40.2"/>
<text text-anchor="start" x="175" y="-46.3" font-family="Helvetica,sans-Serif" font-size="11.00" fill="#000000">&lt; 1</text>
<polygon fill="#ffffff" stroke="transparent" points="217,-40.2 217,-59.2 279,-59.2 279,-40.2 217,-40.2"/>
<polygon fill="none" stroke="#000000" points="217,-40.2 217,-59.2 279,-59.2 279,-40.2 217,-40.2"/>
<text text-anchor="start" x="243.6105" y="-46.3" font-family="Helvetica,sans-Serif" font-size="11.00" fill="#000000">0 rows</text>
<polygon fill="#ffffff" stroke="transparent" points="279,-40.2 279,-59.2 398,-59.2 398,-40.2 279,-40.2"/>
<polygon fill="none" stroke="#000000" points="279,-40.2 279,-59.2 398,-59.2 398,-40.2 279,-40.2"/>
<text text-anchor="start" x="379.4053" y="-46.3" font-family="Helvetica,sans-Serif" font-size="11.00" fill="#000000">1 &gt;</text>
<polygon fill="none" stroke="#000000" stroke-width="2" points="171,-39.2 171,-215.2 399,-215.2 399,-39.2 171,-39.2"/>
</a>
</g>
</g>
<!-- FlowAreas2d -->
<g id="node2" class="node">
<title>FlowAreas2d</title>
<g id="a_node2"><a xlink:href="../../tables/FlowAreas2d.html" xlink:title="FlowAreas2d" target="_top">
<polygon fill="#ffffff" stroke="transparent" points="8,-139.7 8,-244.7 121,-244.7 121,-139.7 8,-139.7"/>
<polygon fill="#f5f5f5" stroke="transparent" points="8.5,-221.2 8.5,-244.2 121.5,-244.2 121.5,-221.2 8.5,-221.2"/>
<polygon fill="none" stroke="#000000" points="8.5,-221.2 8.5,-244.2 121.5,-244.2 121.5,-221.2 8.5,-221.2"/>
<text text-anchor="start" x="13.5" y="-229.8" font-family="Helvetica,sans-Serif" font-weight="bold" font-size="11.00" fill="#000000">FlowAreas2d</text>
<text text-anchor="start" x="87.0219" y="-229.3" font-family="Helvetica,sans-Serif" font-size="11.00" fill="#000000">[table]</text>
<polygon fill="#ffffff" stroke="transparent" points="8.5,-199.2 8.5,-221.2 121.5,-221.2 121.5,-199.2 8.5,-199.2"/>
<polygon fill="none" stroke="#000000" points="8.5,-199.2 8.5,-221.2 121.5,-221.2 121.5,-199.2 8.5,-199.2"/>
<text text-anchor="start" x="37.5" y="-206.3" font-family="Helvetica,sans-Serif" font-size="11.00" fill="#000000">geom</text>
<polygon fill="none" stroke="#000000" points="8.5,-177.2 8.5,-199.2 121.5,-199.2 121.5,-177.2 8.5,-177.2"/>
<image xlink:href="../../images/primaryKeys.png" width="11px" height="12px" preserveAspectRatio="xMinYMin meet" x="13.5" y="-194.2"/>
<text text-anchor="start" x="37.5" y="-184.3" font-family="Helvetica,sans-Serif" font-size="11.00" fill="#000000">AreaID</text>
<polygon fill="none" stroke="#000000" points="8.5,-158.2 8.5,-177.2 121.5,-177.2 121.5,-158.2 8.5,-158.2"/>
<text text-anchor="start" x="11.5" y="-164.3" font-family="Helvetica,sans-Serif" font-size="11.00" fill="#000000">...</text>
<polygon fill="#ffffff" stroke="transparent" points="8.5,-139.2 8.5,-158.2 41.5,-158.2 41.5,-139.2 8.5,-139.2"/>
<polygon fill="none" stroke="#000000" points="8.5,-139.2 8.5,-158.2 41.5,-158.2 41.5,-139.2 8.5,-139.2"/>
<text text-anchor="start" x="11.5" y="-145.3" font-family="Helvetica,sans-Serif" font-size="11.00" fill="#000000"> &#160;</text>
<polygon fill="#ffffff" stroke="transparent" points="41.5,-139.2 41.5,-158.2 89.5,-158.2 89.5,-139.2 41.5,-139.2"/>
<polygon fill="none" stroke="#000000" points="41.5,-139.2 41.5,-158.2 89.5,-158.2 89.5,-139.2 41.5,-139.2"/>
<text text-anchor="start" x="54.1105" y="-145.3" font-family="Helvetica,sans-Serif" font-size="11.00" fill="#000000">0 rows</text>
<polygon fill="#ffffff" stroke="transparent" points="89.5,-139.2 89.5,-158.2 121.5,-158.2 121.5,-139.2 89.5,-139.2"/>
<polygon fill="none" stroke="#000000" points="89.5,-139.2 89.5,-158.2 121.5,-158.2 121.5,-139.2 89.5,-139.2"/>
<text text-anchor="start" x="102.9053" y="-145.3" font-family="Helvetica,sans-Serif" font-size="11.00" fill="#000000">3 &gt;</text>
</a>
</g>
</g>
<!-- BreakLines2d&#45;&gt;FlowAreas2d -->
<g id="edge1" class="edge">
<title>BreakLines2d:w&#45;&gt;FlowAreas2d:e</title>
<path fill="none" stroke="#000000" stroke-dasharray="5,2" d="M158.1372,-140.9988C143.3861,-153.8719 147.6756,-188.2 121.5,-188.2"/>
<polygon fill="#000000" stroke="#000000" points="164.4401,-138.817 173.1777,-139.6019 168.2201,-137.5085 172,-136.2 172,-136.2 172,-136.2 168.2201,-137.5085 170.8223,-132.7981 164.4401,-138.817 164.4401,-138.817"/>
<ellipse fill="none" stroke="#000000" cx="161.4162" cy="-139.8638" rx="3.2" ry="3.2"/>
</g>
<!-- MeshPoints2d -->
<g id="node3" class="node">
<title>MeshPoints2d</title>
<g id="a_node3"><a xlink:href="../../tables/MeshPoints2d.html" xlink:title="MeshPoints2d" target="_top">
<polygon fill="#ffffff" stroke="transparent" points="449,-139.7 449,-288.7 569,-288.7 569,-139.7 449,-139.7"/>
<polygon fill="#f5f5f5" stroke="transparent" points="449,-265.2 449,-288.2 569,-288.2 569,-265.2 449,-265.2"/>
<polygon fill="none" stroke="#000000" points="449,-265.2 449,-288.2 569,-288.2 569,-265.2 449,-265.2"/>
<text text-anchor="start" x="454" y="-273.8" font-family="Helvetica,sans-Serif" font-weight="bold" font-size="11.00" fill="#000000">MeshPoints2d</text>
<text text-anchor="start" x="534.5219" y="-273.3" font-family="Helvetica,sans-Serif" font-size="11.00" fill="#000000">[table]</text>
<polygon fill="#ffffff" stroke="transparent" points="449,-243.2 449,-265.2 569,-265.2 569,-243.2 449,-243.2"/>
<polygon fill="none" stroke="#000000" points="449,-243.2 449,-265.2 569,-265.2 569,-243.2 449,-243.2"/>
<text text-anchor="start" x="478" y="-250.3" font-family="Helvetica,sans-Serif" font-size="11.00" fill="#000000">geom</text>
<polygon fill="none" stroke="#000000" points="449,-221.2 449,-243.2 569,-243.2 569,-221.2 449,-221.2"/>
<image xlink:href="../../images/primaryKeys.png" width="11px" height="12px" preserveAspectRatio="xMinYMin meet" x="454" y="-238.2"/>
<text text-anchor="start" x="478" y="-228.3" font-family="Helvetica,sans-Serif" font-size="11.00" fill="#000000">MPID</text>
<polygon fill="none" stroke="#000000" points="449,-199.2 449,-221.2 569,-221.2 569,-199.2 449,-199.2"/>
<image xlink:href="../../images/foreignKeys.png" width="11px" height="12px" preserveAspectRatio="xMinYMin meet" x="454" y="-216.2"/>
<text text-anchor="start" x="478" y="-206.3" font-family="Helvetica,sans-Serif" font-size="11.00" fill="#000000">AreaID</text>
<polygon fill="none" stroke="#000000" points="449,-177.2 449,-199.2 569,-199.2 569,-177.2 449,-177.2"/>
<image xlink:href="../../images/foreignKeys.png" width="11px" height="12px" preserveAspectRatio="xMinYMin meet" x="454" y="-194.2"/>
<text text-anchor="start" x="478" y="-184.3" font-family="Helvetica,sans-Serif" font-size="11.00" fill="#000000">BLID</text>
<polygon fill="none" stroke="#000000" points="449,-158.2 449,-177.2 569,-177.2 569,-158.2 449,-158.2"/>
<text text-anchor="start" x="452" y="-164.3" font-family="Helvetica,sans-Serif" font-size="11.00" fill="#000000">...</text>
<polygon fill="#ffffff" stroke="transparent" points="449,-139.2 449,-158.2 494,-158.2 494,-139.2 449,-139.2"/>
<polygon fill="none" stroke="#000000" points="449,-139.2 449,-158.2 494,-158.2 494,-139.2 449,-139.2"/>
<text text-anchor="start" x="452" y="-145.3" font-family="Helvetica,sans-Serif" font-size="11.00" fill="#000000">&lt; 2</text>
<polygon fill="#ffffff" stroke="transparent" points="494,-139.2 494,-158.2 544,-158.2 544,-139.2 494,-139.2"/>
<polygon fill="none" stroke="#000000" points="494,-139.2 494,-158.2 544,-158.2 544,-139.2 494,-139.2"/>
<text text-anchor="start" x="508.6105" y="-145.3" font-family="Helvetica,sans-Serif" font-size="11.00" fill="#000000">0 rows</text>
<polygon fill="#ffffff" stroke="transparent" points="544,-139.2 544,-158.2 569,-158.2 569,-139.2 544,-139.2"/>
<polygon fill="none" stroke="#000000" points="544,-139.2 544,-158.2 569,-158.2 569,-139.2 544,-139.2"/>
<text text-anchor="start" x="559.8862" y="-145.3" font-family="Helvetica,sans-Serif" font-size="11.00" fill="#000000"> &#160;</text>
</a>
</g>
</g>
<!-- MeshPoints2d&#45;&gt;BreakLines2d -->
<g id="edge3" class="edge">
<title>MeshPoints2d:w&#45;&gt;BreakLines2d:e</title>
<path fill="none" stroke="#000000" stroke-dasharray="5,2" d="M434.7724,-184.278C421.9935,-176.1462 418.3394,-158.2 398,-158.2"/>
<polygon fill="#000000" stroke="#000000" points="441.2877,-186.074 448.0433,-191.6706 445.1438,-187.137 449,-188.2 449,-188.2 449,-188.2 445.1438,-187.137 449.9567,-184.7294 441.2877,-186.074 441.2877,-186.074"/>
<ellipse fill="none" stroke="#000000" cx="438.2027" cy="-185.2236" rx="3.2" ry="3.2"/>
</g>
<!-- MeshPoints2d&#45;&gt;FlowAreas2d -->
<g id="edge2" class="edge">
<title>MeshPoints2d:w&#45;&gt;FlowAreas2d:e</title>
<path fill="none" stroke="#000000" stroke-dasharray="5,2" d="M434.6464,-213.367C426.3681,-217.5097 421.3009,-224.5518 408,-227.2 300.7713,-248.5491 263.401,-268.0854 162,-227.2 138.8241,-217.8554 146.4889,-188.2 121.5,-188.2"/>
<polygon fill="#000000" stroke="#000000" points="441.1879,-211.9237 449.7757,-213.7154 445.0939,-211.0619 449,-210.2 449,-210.2 449,-210.2 445.0939,-211.0619 448.2243,-206.6846 441.1879,-211.9237 441.1879,-211.9237"/>
<ellipse fill="none" stroke="#000000" cx="438.0631" cy="-212.6132" rx="3.2" ry="3.2"/>
</g>
</g>
</svg>
