<?xml version="1.0" encoding="UTF-8" standalone="no"?>
<!DOCTYPE svg PUBLIC "-//W3C//DTD SVG 1.1//EN"
 "http://www.w3.org/Graphics/SVG/1.1/DTD/svg11.dtd">
<!-- Generated by graphviz version 2.40.1 (20161225.0304)
 -->
<!-- Title: oneDegreeRelationshipsDiagramImplied Pages: 1 -->
<svg width="414pt" height="206pt"
 viewBox="0.00 0.00 414.00 206.20" xmlns="http://www.w3.org/2000/svg" xmlns:xlink="http://www.w3.org/1999/xlink">
<g id="graph0" class="graph" transform="scale(1 1) rotate(0) translate(4 202.2)">
<title>oneDegreeRelationshipsDiagramImplied</title>
<polygon fill="#ffffff" stroke="transparent" points="-4,4 -4,-202.2 410,-202.2 410,4 -4,4"/>
<text text-anchor="middle" x="72.4936" y="-7.3" font-family="Helvetica,sans-Serif" font-size="11.00" fill="#000000">Generated by SchemaSpy</text>
<!-- BreakPoints2d -->
<g id="node1" class="node">
<title>BreakPoints2d</title>
<g id="a_node1"><a xlink:href="../../tables/BreakPoints2d.html" xlink:title="BreakPoints2d" target="_top">
<polygon fill="#ffffff" stroke="transparent" points="170,-38.2 170,-194.2 398,-194.2 398,-38.2 170,-38.2"/>
<polygon fill="#f5f5f5" stroke="transparent" points="172,-169.2 172,-192.2 396,-192.2 396,-169.2 172,-169.2"/>
<polygon fill="none" stroke="#000000" points="172,-169.2 172,-192.2 396,-192.2 396,-169.2 172,-169.2"/>
<text text-anchor="start" x="177" y="-177.8" font-family="Helvetica,sans-Serif" font-weight="bold" font-size="11.00" fill="#000000">BreakPoints2d</text>
<text text-anchor="start" x="361.0437" y="-177.3" font-family="Helvetica,sans-Serif" font-size="11.00" fill="#000000">[table]</text>
<polygon fill="#ffffff" stroke="transparent" points="172,-147.2 172,-169.2 277,-169.2 277,-147.2 172,-147.2"/>
<polygon fill="none" stroke="#000000" points="172,-147.2 172,-169.2 277,-169.2 277,-147.2 172,-147.2"/>
<text text-anchor="start" x="192" y="-154.3" font-family="Helvetica,sans-Serif" font-size="11.00" fill="#000000">geom</text>
<polygon fill="none" stroke="#000000" points="277,-147.2 277,-169.2 396,-169.2 396,-147.2 277,-147.2"/>
<text text-anchor="start" x="279.9485" y="-154.9" font-family="Helvetica,sans-Serif" font-size="11.00" fill="#000000">geometry[2147483647]</text>
<polygon fill="none" stroke="#000000" points="172,-125.2 172,-147.2 277,-147.2 277,-125.2 172,-125.2"/>
<image xlink:href="../../images/primaryKeys.png" width="11px" height="12px" preserveAspectRatio="xMinYMin meet" x="177" y="-142.2"/>
<text text-anchor="start" x="192" y="-132.3" font-family="Helvetica,sans-Serif" font-size="11.00" fill="#000000">BPID</text>
<polygon fill="none" stroke="#000000" points="277,-125.2 277,-147.2 396,-147.2 396,-125.2 277,-125.2"/>
<text text-anchor="start" x="280" y="-132.9" font-family="Helvetica,sans-Serif" font-size="11.00" fill="#000000">serial[10]</text>
<polygon fill="none" stroke="#000000" points="172,-103.2 172,-125.2 277,-125.2 277,-103.2 172,-103.2"/>
<image xlink:href="../../images/foreignKeys.png" width="11px" height="12px" preserveAspectRatio="xMinYMin meet" x="177" y="-120.2"/>
<text text-anchor="start" x="192" y="-110.3" font-family="Helvetica,sans-Serif" font-size="11.00" fill="#000000">AreaID</text>
<polygon fill="none" stroke="#000000" points="277,-103.2 277,-125.2 396,-125.2 396,-103.2 277,-103.2"/>
<text text-anchor="start" x="280" y="-110.9" font-family="Helvetica,sans-Serif" font-size="11.00" fill="#000000">int4[10]</text>
<polygon fill="none" stroke="#000000" points="172,-81.2 172,-103.2 277,-103.2 277,-81.2 172,-81.2"/>
<text text-anchor="start" x="192" y="-88.3" font-family="Helvetica,sans-Serif" font-size="11.00" fill="#000000">BLmID</text>
<polygon fill="none" stroke="#000000" points="277,-81.2 277,-103.2 396,-103.2 396,-81.2 277,-81.2"/>
<text text-anchor="start" x="280" y="-88.9" font-family="Helvetica,sans-Serif" font-size="11.00" fill="#000000">int4[10]</text>
<polygon fill="none" stroke="#000000" points="172,-59.2 172,-81.2 277,-81.2 277,-59.2 172,-59.2"/>
<text text-anchor="start" x="192" y="-66.3" font-family="Helvetica,sans-Serif" font-size="11.00" fill="#000000">Fraction</text>
<polygon fill="none" stroke="#000000" points="277,-59.2 277,-81.2 396,-81.2 396,-59.2 277,-59.2"/>
<text text-anchor="start" x="280" y="-66.9" font-family="Helvetica,sans-Serif" font-size="11.00" fill="#000000">float8[17,17]</text>
<polygon fill="#ffffff" stroke="transparent" points="172,-40.2 172,-59.2 216,-59.2 216,-40.2 172,-40.2"/>
<polygon fill="none" stroke="#000000" points="172,-40.2 172,-59.2 216,-59.2 216,-40.2 172,-40.2"/>
<text text-anchor="start" x="175" y="-46.3" font-family="Helvetica,sans-Serif" font-size="11.00" fill="#000000">&lt; 1</text>
<polygon fill="#ffffff" stroke="transparent" points="216,-40.2 216,-59.2 277,-59.2 277,-40.2 216,-40.2"/>
<polygon fill="none" stroke="#000000" points="216,-40.2 216,-59.2 277,-59.2 277,-40.2 216,-40.2"/>
<text text-anchor="start" x="241.6105" y="-46.3" font-family="Helvetica,sans-Serif" font-size="11.00" fill="#000000">0 rows</text>
<polygon fill="#ffffff" stroke="transparent" points="277,-40.2 277,-59.2 396,-59.2 396,-40.2 277,-40.2"/>
<polygon fill="none" stroke="#000000" points="277,-40.2 277,-59.2 396,-59.2 396,-40.2 277,-40.2"/>
<text text-anchor="start" x="377.4053" y="-46.3" font-family="Helvetica,sans-Serif" font-size="11.00" fill="#000000">0 &gt;</text>
<polygon fill="none" stroke="#000000" stroke-width="2" points="171,-39.2 171,-193.2 397,-193.2 397,-39.2 171,-39.2"/>
</a>
</g>
</g>
<!-- FlowAreas2d -->
<g id="node2" class="node">
<title>FlowAreas2d</title>
<g id="a_node2"><a xlink:href="../../tables/FlowAreas2d.html" xlink:title="FlowAreas2d" target="_top">
<polygon fill="#ffffff" stroke="transparent" points="8,-65.7 8,-170.7 121,-170.7 121,-65.7 8,-65.7"/>
<polygon fill="#f5f5f5" stroke="transparent" points="8.5,-147.2 8.5,-170.2 121.5,-170.2 121.5,-147.2 8.5,-147.2"/>
<polygon fill="none" stroke="#000000" points="8.5,-147.2 8.5,-170.2 121.5,-170.2 121.5,-147.2 8.5,-147.2"/>
<text text-anchor="start" x="13.5" y="-155.8" font-family="Helvetica,sans-Serif" font-weight="bold" font-size="11.00" fill="#000000">FlowAreas2d</text>
<text text-anchor="start" x="87.0219" y="-155.3" font-family="Helvetica,sans-Serif" font-size="11.00" fill="#000000">[table]</text>
<polygon fill="#ffffff" stroke="transparent" points="8.5,-125.2 8.5,-147.2 121.5,-147.2 121.5,-125.2 8.5,-125.2"/>
<polygon fill="none" stroke="#000000" points="8.5,-125.2 8.5,-147.2 121.5,-147.2 121.5,-125.2 8.5,-125.2"/>
<text text-anchor="start" x="37.5" y="-132.3" font-family="Helvetica,sans-Serif" font-size="11.00" fill="#000000">geom</text>
<polygon fill="none" stroke="#000000" points="8.5,-103.2 8.5,-125.2 121.5,-125.2 121.5,-103.2 8.5,-103.2"/>
<image xlink:href="../../images/primaryKeys.png" width="11px" height="12px" preserveAspectRatio="xMinYMin meet" x="13.5" y="-120.2"/>
<text text-anchor="start" x="37.5" y="-110.3" font-family="Helvetica,sans-Serif" font-size="11.00" fill="#000000">AreaID</text>
<polygon fill="none" stroke="#000000" points="8.5,-84.2 8.5,-103.2 121.5,-103.2 121.5,-84.2 8.5,-84.2"/>
<text text-anchor="start" x="11.5" y="-90.3" font-family="Helvetica,sans-Serif" font-size="11.00" fill="#000000">...</text>
<polygon fill="#ffffff" stroke="transparent" points="8.5,-65.2 8.5,-84.2 41.5,-84.2 41.5,-65.2 8.5,-65.2"/>
<polygon fill="none" stroke="#000000" points="8.5,-65.2 8.5,-84.2 41.5,-84.2 41.5,-65.2 8.5,-65.2"/>
<text text-anchor="start" x="11.5" y="-71.3" font-family="Helvetica,sans-Serif" font-size="11.00" fill="#000000"> &#160;</text>
<polygon fill="#ffffff" stroke="transparent" points="41.5,-65.2 41.5,-84.2 89.5,-84.2 89.5,-65.2 41.5,-65.2"/>
<polygon fill="none" stroke="#000000" points="41.5,-65.2 41.5,-84.2 89.5,-84.2 89.5,-65.2 41.5,-65.2"/>
<text text-anchor="start" x="54.1105" y="-71.3" font-family="Helvetica,sans-Serif" font-size="11.00" fill="#000000">0 rows</text>
<polygon fill="#ffffff" stroke="transparent" points="89.5,-65.2 89.5,-84.2 121.5,-84.2 121.5,-65.2 89.5,-65.2"/>
<polygon fill="none" stroke="#000000" points="89.5,-65.2 89.5,-84.2 121.5,-84.2 121.5,-65.2 89.5,-65.2"/>
<text text-anchor="start" x="102.9053" y="-71.3" font-family="Helvetica,sans-Serif" font-size="11.00" fill="#000000">3 &gt;</text>
</a>
</g>
</g>
<!-- BreakPoints2d&#45;&gt;FlowAreas2d -->
<g id="edge1" class="edge">
<title>BreakPoints2d:w&#45;&gt;FlowAreas2d:e</title>
<path fill="none" stroke="#000000" stroke-dasharray="5,2" d="M157.4203,-114.2C145.5435,-114.2 138.158,-114.2 121.5,-114.2"/>
<polygon fill="#000000" stroke="#000000" points="164,-114.2001 172,-117.8 168,-114.2 172,-114.2 172,-114.2 172,-114.2 168,-114.2 172,-110.6 164,-114.2001 164,-114.2001"/>
<ellipse fill="none" stroke="#000000" cx="160.8" cy="-114.2001" rx="3.2" ry="3.2"/>
</g>
</g>
</svg>
