<?xml version="1.0" encoding="UTF-8" standalone="no"?>
<!DOCTYPE svg PUBLIC "-//W3C//DTD SVG 1.1//EN"
 "http://www.w3.org/Graphics/SVG/1.1/DTD/svg11.dtd">
<!-- Generated by graphviz version 2.40.1 (20161225.0304)
 -->
<!-- Title: oneDegreeRelationshipsDiagram Pages: 1 -->
<svg width="242pt" height="184pt"
 viewBox="0.00 0.00 242.00 184.20" xmlns="http://www.w3.org/2000/svg" xmlns:xlink="http://www.w3.org/1999/xlink">
<g id="graph0" class="graph" transform="scale(1 1) rotate(0) translate(4 180.2)">
<title>oneDegreeRelationshipsDiagram</title>
<polygon fill="#ffffff" stroke="transparent" points="-4,4 -4,-180.2 238,-180.2 238,4 -4,4"/>
<text text-anchor="middle" x="72.4936" y="-7.3" font-family="Helvetica,sans-Serif" font-size="11.00" fill="#000000">Generated by SchemaSpy</text>
<!-- FlowAreas2d -->
<g id="node1" class="node">
<title>FlowAreas2d</title>
<g id="a_node1"><a xlink:href="../../tables/FlowAreas2d.html" xlink:title="FlowAreas2d" target="_top">
<polygon fill="#ffffff" stroke="transparent" points="8,-38.2 8,-172.2 226,-172.2 226,-38.2 8,-38.2"/>
<polygon fill="#f5f5f5" stroke="transparent" points="10,-147.2 10,-170.2 224,-170.2 224,-147.2 10,-147.2"/>
<polygon fill="none" stroke="#000000" points="10,-147.2 10,-170.2 224,-170.2 224,-147.2 10,-147.2"/>
<text text-anchor="start" x="15" y="-155.8" font-family="Helvetica,sans-Serif" font-weight="bold" font-size="11.00" fill="#000000">FlowAreas2d</text>
<text text-anchor="start" x="189.0437" y="-155.3" font-family="Helvetica,sans-Serif" font-size="11.00" fill="#000000">[table]</text>
<polygon fill="#ffffff" stroke="transparent" points="10,-125.2 10,-147.2 105,-147.2 105,-125.2 10,-125.2"/>
<polygon fill="none" stroke="#000000" points="10,-125.2 10,-147.2 105,-147.2 105,-125.2 10,-125.2"/>
<text text-anchor="start" x="30" y="-132.3" font-family="Helvetica,sans-Serif" font-size="11.00" fill="#000000">geom</text>
<polygon fill="none" stroke="#000000" points="105,-125.2 105,-147.2 224,-147.2 224,-125.2 105,-125.2"/>
<text text-anchor="start" x="107.9485" y="-132.9" font-family="Helvetica,sans-Serif" font-size="11.00" fill="#000000">geometry[2147483647]</text>
<polygon fill="none" stroke="#000000" points="10,-103.2 10,-125.2 105,-125.2 105,-103.2 10,-103.2"/>
<image xlink:href="../../images/primaryKeys.png" width="11px" height="12px" preserveAspectRatio="xMinYMin meet" x="15" y="-120.2"/>
<text text-anchor="start" x="30" y="-110.3" font-family="Helvetica,sans-Serif" font-size="11.00" fill="#000000">AreaID</text>
<polygon fill="none" stroke="#000000" points="105,-103.2 105,-125.2 224,-125.2 224,-103.2 105,-103.2"/>
<text text-anchor="start" x="108" y="-110.9" font-family="Helvetica,sans-Serif" font-size="11.00" fill="#000000">serial[10]</text>
<polygon fill="none" stroke="#000000" points="10,-81.2 10,-103.2 105,-103.2 105,-81.2 10,-81.2"/>
<text text-anchor="start" x="30" y="-88.3" font-family="Helvetica,sans-Serif" font-size="11.00" fill="#000000">Name</text>
<polygon fill="none" stroke="#000000" points="105,-81.2 105,-103.2 224,-103.2 224,-81.2 105,-81.2"/>
<text text-anchor="start" x="108" y="-88.9" font-family="Helvetica,sans-Serif" font-size="11.00" fill="#000000">text[2147483647]</text>
<polygon fill="none" stroke="#000000" points="10,-59.2 10,-81.2 105,-81.2 105,-59.2 10,-59.2"/>
<text text-anchor="start" x="30" y="-66.3" font-family="Helvetica,sans-Serif" font-size="11.00" fill="#000000">CellSize</text>
<polygon fill="none" stroke="#000000" points="105,-59.2 105,-81.2 224,-81.2 224,-59.2 105,-59.2"/>
<text text-anchor="start" x="108" y="-66.9" font-family="Helvetica,sans-Serif" font-size="11.00" fill="#000000">float8[17,17]</text>
<polygon fill="#ffffff" stroke="transparent" points="10,-40.2 10,-59.2 49,-59.2 49,-40.2 10,-40.2"/>
<polygon fill="none" stroke="#000000" points="10,-40.2 10,-59.2 49,-59.2 49,-40.2 10,-40.2"/>
<text text-anchor="start" x="13" y="-46.3" font-family="Helvetica,sans-Serif" font-size="11.00" fill="#000000">&lt; 0</text>
<polygon fill="#ffffff" stroke="transparent" points="49,-40.2 49,-59.2 105,-59.2 105,-40.2 49,-40.2"/>
<polygon fill="none" stroke="#000000" points="49,-40.2 49,-59.2 105,-59.2 105,-40.2 49,-40.2"/>
<text text-anchor="start" x="69.6105" y="-46.3" font-family="Helvetica,sans-Serif" font-size="11.00" fill="#000000">0 rows</text>
<polygon fill="#ffffff" stroke="transparent" points="105,-40.2 105,-59.2 224,-59.2 224,-40.2 105,-40.2"/>
<polygon fill="none" stroke="#000000" points="105,-40.2 105,-59.2 224,-59.2 224,-40.2 105,-40.2"/>
<text text-anchor="start" x="205.4053" y="-46.3" font-family="Helvetica,sans-Serif" font-size="11.00" fill="#000000">0 &gt;</text>
<polygon fill="none" stroke="#000000" stroke-width="2" points="9,-39.2 9,-171.2 225,-171.2 225,-39.2 9,-39.2"/>
</a>
</g>
</g>
</g>
</svg>
