<?xml version="1.0" encoding="UTF-8" standalone="no"?>
<!DOCTYPE svg PUBLIC "-//W3C//DTD SVG 1.1//EN"
 "http://www.w3.org/Graphics/SVG/1.1/DTD/svg11.dtd">
<!-- Generated by graphviz version 2.40.1 (20161225.0304)
 -->
<!-- Title: oneDegreeRelationshipsDiagramImplied Pages: 1 -->
<svg width="583pt" height="353pt"
 viewBox="0.00 0.00 583.00 353.20" xmlns="http://www.w3.org/2000/svg" xmlns:xlink="http://www.w3.org/1999/xlink">
<g id="graph0" class="graph" transform="scale(1 1) rotate(0) translate(4 349.2)">
<title>oneDegreeRelationshipsDiagramImplied</title>
<polygon fill="#ffffff" stroke="transparent" points="-4,4 -4,-349.2 579,-349.2 579,4 -4,4"/>
<text text-anchor="middle" x="72.4936" y="-7.3" font-family="Helvetica,sans-Serif" font-size="11.00" fill="#000000">Generated by SchemaSpy</text>
<!-- BreakLines2d -->
<g id="node1" class="node">
<title>BreakLines2d</title>
<g id="a_node1"><a xlink:href="../../tables/BreakLines2d.html" xlink:title="BreakLines2d" target="_top">
<polygon fill="#ffffff" stroke="transparent" points="278,-38.2 278,-165.2 395,-165.2 395,-38.2 278,-38.2"/>
<polygon fill="#f5f5f5" stroke="transparent" points="278.5,-141.7 278.5,-164.7 395.5,-164.7 395.5,-141.7 278.5,-141.7"/>
<polygon fill="none" stroke="#000000" points="278.5,-141.7 278.5,-164.7 395.5,-164.7 395.5,-141.7 278.5,-141.7"/>
<text text-anchor="start" x="283.5" y="-150.3" font-family="Helvetica,sans-Serif" font-weight="bold" font-size="11.00" fill="#000000">BreakLines2d</text>
<text text-anchor="start" x="361.0219" y="-149.8" font-family="Helvetica,sans-Serif" font-size="11.00" fill="#000000">[table]</text>
<polygon fill="#ffffff" stroke="transparent" points="278.5,-119.7 278.5,-141.7 395.5,-141.7 395.5,-119.7 278.5,-119.7"/>
<polygon fill="none" stroke="#000000" points="278.5,-119.7 278.5,-141.7 395.5,-141.7 395.5,-119.7 278.5,-119.7"/>
<text text-anchor="start" x="303.5" y="-126.8" font-family="Helvetica,sans-Serif" font-size="11.00" fill="#000000">geom</text>
<polygon fill="none" stroke="#000000" points="278.5,-97.7 278.5,-119.7 395.5,-119.7 395.5,-97.7 278.5,-97.7"/>
<image xlink:href="../../images/primaryKeys.png" width="11px" height="12px" preserveAspectRatio="xMinYMin meet" x="283.5" y="-114.7"/>
<text text-anchor="start" x="303.5" y="-104.8" font-family="Helvetica,sans-Serif" font-size="11.00" fill="#000000">BLID</text>
<polygon fill="none" stroke="#000000" points="278.5,-75.7 278.5,-97.7 395.5,-97.7 395.5,-75.7 278.5,-75.7"/>
<image xlink:href="../../images/foreignKeys.png" width="11px" height="12px" preserveAspectRatio="xMinYMin meet" x="283.5" y="-92.7"/>
<text text-anchor="start" x="303.5" y="-82.8" font-family="Helvetica,sans-Serif" font-size="11.00" fill="#000000">AreaID</text>
<polygon fill="none" stroke="#000000" points="278.5,-56.7 278.5,-75.7 395.5,-75.7 395.5,-56.7 278.5,-56.7"/>
<text text-anchor="start" x="281.5" y="-62.8" font-family="Helvetica,sans-Serif" font-size="11.00" fill="#000000">...</text>
<polygon fill="#ffffff" stroke="transparent" points="278.5,-37.7 278.5,-56.7 317.5,-56.7 317.5,-37.7 278.5,-37.7"/>
<polygon fill="none" stroke="#000000" points="278.5,-37.7 278.5,-56.7 317.5,-56.7 317.5,-37.7 278.5,-37.7"/>
<text text-anchor="start" x="281.5" y="-43.8" font-family="Helvetica,sans-Serif" font-size="11.00" fill="#000000">&lt; 1</text>
<polygon fill="#ffffff" stroke="transparent" points="317.5,-37.7 317.5,-56.7 364.5,-56.7 364.5,-37.7 317.5,-37.7"/>
<polygon fill="none" stroke="#000000" points="317.5,-37.7 317.5,-56.7 364.5,-56.7 364.5,-37.7 317.5,-37.7"/>
<text text-anchor="start" x="329.1105" y="-43.8" font-family="Helvetica,sans-Serif" font-size="11.00" fill="#000000">0 rows</text>
<polygon fill="#ffffff" stroke="transparent" points="364.5,-37.7 364.5,-56.7 395.5,-56.7 395.5,-37.7 364.5,-37.7"/>
<polygon fill="none" stroke="#000000" points="364.5,-37.7 364.5,-56.7 395.5,-56.7 395.5,-37.7 364.5,-37.7"/>
<text text-anchor="start" x="376.9053" y="-43.8" font-family="Helvetica,sans-Serif" font-size="11.00" fill="#000000">1 &gt;</text>
</a>
</g>
</g>
<!-- FlowAreas2d -->
<g id="node2" class="node">
<title>FlowAreas2d</title>
<g id="a_node2"><a xlink:href="../../tables/FlowAreas2d.html" xlink:title="FlowAreas2d" target="_top">
<polygon fill="#ffffff" stroke="transparent" points="8,-113.7 8,-247.7 226,-247.7 226,-113.7 8,-113.7"/>
<polygon fill="#f5f5f5" stroke="transparent" points="10,-222.7 10,-245.7 224,-245.7 224,-222.7 10,-222.7"/>
<polygon fill="none" stroke="#000000" points="10,-222.7 10,-245.7 224,-245.7 224,-222.7 10,-222.7"/>
<text text-anchor="start" x="15" y="-231.3" font-family="Helvetica,sans-Serif" font-weight="bold" font-size="11.00" fill="#000000">FlowAreas2d</text>
<text text-anchor="start" x="189.0437" y="-230.8" font-family="Helvetica,sans-Serif" font-size="11.00" fill="#000000">[table]</text>
<polygon fill="#ffffff" stroke="transparent" points="10,-200.7 10,-222.7 105,-222.7 105,-200.7 10,-200.7"/>
<polygon fill="none" stroke="#000000" points="10,-200.7 10,-222.7 105,-222.7 105,-200.7 10,-200.7"/>
<text text-anchor="start" x="30" y="-207.8" font-family="Helvetica,sans-Serif" font-size="11.00" fill="#000000">geom</text>
<polygon fill="none" stroke="#000000" points="105,-200.7 105,-222.7 224,-222.7 224,-200.7 105,-200.7"/>
<text text-anchor="start" x="107.9485" y="-208.4" font-family="Helvetica,sans-Serif" font-size="11.00" fill="#000000">geometry[2147483647]</text>
<polygon fill="none" stroke="#000000" points="10,-178.7 10,-200.7 105,-200.7 105,-178.7 10,-178.7"/>
<image xlink:href="../../images/primaryKeys.png" width="11px" height="12px" preserveAspectRatio="xMinYMin meet" x="15" y="-195.7"/>
<text text-anchor="start" x="30" y="-185.8" font-family="Helvetica,sans-Serif" font-size="11.00" fill="#000000">AreaID</text>
<polygon fill="none" stroke="#000000" points="105,-178.7 105,-200.7 224,-200.7 224,-178.7 105,-178.7"/>
<text text-anchor="start" x="108" y="-186.4" font-family="Helvetica,sans-Serif" font-size="11.00" fill="#000000">serial[10]</text>
<polygon fill="none" stroke="#000000" points="10,-156.7 10,-178.7 105,-178.7 105,-156.7 10,-156.7"/>
<text text-anchor="start" x="30" y="-163.8" font-family="Helvetica,sans-Serif" font-size="11.00" fill="#000000">Name</text>
<polygon fill="none" stroke="#000000" points="105,-156.7 105,-178.7 224,-178.7 224,-156.7 105,-156.7"/>
<text text-anchor="start" x="108" y="-164.4" font-family="Helvetica,sans-Serif" font-size="11.00" fill="#000000">text[2147483647]</text>
<polygon fill="none" stroke="#000000" points="10,-134.7 10,-156.7 105,-156.7 105,-134.7 10,-134.7"/>
<text text-anchor="start" x="30" y="-141.8" font-family="Helvetica,sans-Serif" font-size="11.00" fill="#000000">CellSize</text>
<polygon fill="none" stroke="#000000" points="105,-134.7 105,-156.7 224,-156.7 224,-134.7 105,-134.7"/>
<text text-anchor="start" x="108" y="-142.4" font-family="Helvetica,sans-Serif" font-size="11.00" fill="#000000">float8[17,17]</text>
<polygon fill="#ffffff" stroke="transparent" points="10,-115.7 10,-134.7 49,-134.7 49,-115.7 10,-115.7"/>
<polygon fill="none" stroke="#000000" points="10,-115.7 10,-134.7 49,-134.7 49,-115.7 10,-115.7"/>
<text text-anchor="start" x="13" y="-121.8" font-family="Helvetica,sans-Serif" font-size="11.00" fill="#000000">&lt; 0</text>
<polygon fill="#ffffff" stroke="transparent" points="49,-115.7 49,-134.7 105,-134.7 105,-115.7 49,-115.7"/>
<polygon fill="none" stroke="#000000" points="49,-115.7 49,-134.7 105,-134.7 105,-115.7 49,-115.7"/>
<text text-anchor="start" x="69.6105" y="-121.8" font-family="Helvetica,sans-Serif" font-size="11.00" fill="#000000">0 rows</text>
<polygon fill="#ffffff" stroke="transparent" points="105,-115.7 105,-134.7 224,-134.7 224,-115.7 105,-115.7"/>
<polygon fill="none" stroke="#000000" points="105,-115.7 105,-134.7 224,-134.7 224,-115.7 105,-115.7"/>
<text text-anchor="start" x="205.4053" y="-121.8" font-family="Helvetica,sans-Serif" font-size="11.00" fill="#000000">3 &gt;</text>
<polygon fill="none" stroke="#000000" stroke-width="2" points="9,-114.7 9,-246.7 225,-246.7 225,-114.7 9,-114.7"/>
</a>
</g>
</g>
<!-- BreakLines2d&#45;&gt;FlowAreas2d -->
<g id="edge1" class="edge">
<title>BreakLines2d:w&#45;&gt;FlowAreas2d:e</title>
<path fill="none" stroke="#000000" stroke-dasharray="5,2" d="M264.4892,-90.3658C236.5346,-108.7142 269.9242,-189.7 224,-189.7"/>
<polygon fill="#000000" stroke="#000000" points="270.7605,-88.725 279.4113,-90.1828 274.6303,-87.7125 278.5,-86.7 278.5,-86.7 278.5,-86.7 274.6303,-87.7125 277.5887,-83.2172 270.7605,-88.725 270.7605,-88.725"/>
<ellipse fill="none" stroke="#000000" cx="267.6647" cy="-89.535" rx="3.2" ry="3.2"/>
</g>
<!-- BreakPoints2d -->
<g id="node3" class="node">
<title>BreakPoints2d</title>
<g id="a_node3"><a xlink:href="../../tables/BreakPoints2d.html" xlink:title="BreakPoints2d" target="_top">
<polygon fill="#ffffff" stroke="transparent" points="275,-214.2 275,-341.2 398,-341.2 398,-214.2 275,-214.2"/>
<polygon fill="#f5f5f5" stroke="transparent" points="275.5,-317.7 275.5,-340.7 398.5,-340.7 398.5,-317.7 275.5,-317.7"/>
<polygon fill="none" stroke="#000000" points="275.5,-317.7 275.5,-340.7 398.5,-340.7 398.5,-317.7 275.5,-317.7"/>
<text text-anchor="start" x="280.5" y="-326.3" font-family="Helvetica,sans-Serif" font-weight="bold" font-size="11.00" fill="#000000">BreakPoints2d</text>
<text text-anchor="start" x="364.0219" y="-325.8" font-family="Helvetica,sans-Serif" font-size="11.00" fill="#000000">[table]</text>
<polygon fill="#ffffff" stroke="transparent" points="275.5,-295.7 275.5,-317.7 398.5,-317.7 398.5,-295.7 275.5,-295.7"/>
<polygon fill="none" stroke="#000000" points="275.5,-295.7 275.5,-317.7 398.5,-317.7 398.5,-295.7 275.5,-295.7"/>
<text text-anchor="start" x="304.5" y="-302.8" font-family="Helvetica,sans-Serif" font-size="11.00" fill="#000000">geom</text>
<polygon fill="none" stroke="#000000" points="275.5,-273.7 275.5,-295.7 398.5,-295.7 398.5,-273.7 275.5,-273.7"/>
<image xlink:href="../../images/primaryKeys.png" width="11px" height="12px" preserveAspectRatio="xMinYMin meet" x="280.5" y="-290.7"/>
<text text-anchor="start" x="304.5" y="-280.8" font-family="Helvetica,sans-Serif" font-size="11.00" fill="#000000">BPID</text>
<polygon fill="none" stroke="#000000" points="275.5,-251.7 275.5,-273.7 398.5,-273.7 398.5,-251.7 275.5,-251.7"/>
<image xlink:href="../../images/foreignKeys.png" width="11px" height="12px" preserveAspectRatio="xMinYMin meet" x="280.5" y="-268.7"/>
<text text-anchor="start" x="304.5" y="-258.8" font-family="Helvetica,sans-Serif" font-size="11.00" fill="#000000">AreaID</text>
<polygon fill="none" stroke="#000000" points="275.5,-232.7 275.5,-251.7 398.5,-251.7 398.5,-232.7 275.5,-232.7"/>
<text text-anchor="start" x="278.5" y="-238.8" font-family="Helvetica,sans-Serif" font-size="11.00" fill="#000000">...</text>
<polygon fill="#ffffff" stroke="transparent" points="275.5,-213.7 275.5,-232.7 322.5,-232.7 322.5,-213.7 275.5,-213.7"/>
<polygon fill="none" stroke="#000000" points="275.5,-213.7 275.5,-232.7 322.5,-232.7 322.5,-213.7 275.5,-213.7"/>
<text text-anchor="start" x="278.5" y="-219.8" font-family="Helvetica,sans-Serif" font-size="11.00" fill="#000000">&lt; 1</text>
<polygon fill="#ffffff" stroke="transparent" points="322.5,-213.7 322.5,-232.7 373.5,-232.7 373.5,-213.7 322.5,-213.7"/>
<polygon fill="none" stroke="#000000" points="322.5,-213.7 322.5,-232.7 373.5,-232.7 373.5,-213.7 322.5,-213.7"/>
<text text-anchor="start" x="338.1105" y="-219.8" font-family="Helvetica,sans-Serif" font-size="11.00" fill="#000000">0 rows</text>
<polygon fill="#ffffff" stroke="transparent" points="373.5,-213.7 373.5,-232.7 398.5,-232.7 398.5,-213.7 373.5,-213.7"/>
<polygon fill="none" stroke="#000000" points="373.5,-213.7 373.5,-232.7 398.5,-232.7 398.5,-213.7 373.5,-213.7"/>
<text text-anchor="start" x="389.3862" y="-219.8" font-family="Helvetica,sans-Serif" font-size="11.00" fill="#000000"> &#160;</text>
</a>
</g>
</g>
<!-- BreakPoints2d&#45;&gt;FlowAreas2d -->
<g id="edge2" class="edge">
<title>BreakPoints2d:w&#45;&gt;FlowAreas2d:e</title>
<path fill="none" stroke="#000000" stroke-dasharray="5,2" d="M261.583,-258.1335C242.7293,-242.152 257.6568,-189.7 224,-189.7"/>
<polygon fill="#000000" stroke="#000000" points="267.8987,-260.2058 274.3776,-266.1206 271.6994,-261.4529 275.5,-262.7 275.5,-262.7 275.5,-262.7 271.6994,-261.4529 276.6224,-259.2794 267.8987,-260.2058 267.8987,-260.2058"/>
<ellipse fill="none" stroke="#000000" cx="264.8582" cy="-259.2081" rx="3.2" ry="3.2"/>
</g>
<!-- MeshPoints2d -->
<g id="node4" class="node">
<title>MeshPoints2d</title>
<g id="a_node4"><a xlink:href="../../tables/MeshPoints2d.html" xlink:title="MeshPoints2d" target="_top">
<polygon fill="#ffffff" stroke="transparent" points="447,-89.2 447,-238.2 567,-238.2 567,-89.2 447,-89.2"/>
<polygon fill="#f5f5f5" stroke="transparent" points="447,-214.7 447,-237.7 567,-237.7 567,-214.7 447,-214.7"/>
<polygon fill="none" stroke="#000000" points="447,-214.7 447,-237.7 567,-237.7 567,-214.7 447,-214.7"/>
<text text-anchor="start" x="452" y="-223.3" font-family="Helvetica,sans-Serif" font-weight="bold" font-size="11.00" fill="#000000">MeshPoints2d</text>
<text text-anchor="start" x="532.5219" y="-222.8" font-family="Helvetica,sans-Serif" font-size="11.00" fill="#000000">[table]</text>
<polygon fill="#ffffff" stroke="transparent" points="447,-192.7 447,-214.7 567,-214.7 567,-192.7 447,-192.7"/>
<polygon fill="none" stroke="#000000" points="447,-192.7 447,-214.7 567,-214.7 567,-192.7 447,-192.7"/>
<text text-anchor="start" x="476" y="-199.8" font-family="Helvetica,sans-Serif" font-size="11.00" fill="#000000">geom</text>
<polygon fill="none" stroke="#000000" points="447,-170.7 447,-192.7 567,-192.7 567,-170.7 447,-170.7"/>
<image xlink:href="../../images/primaryKeys.png" width="11px" height="12px" preserveAspectRatio="xMinYMin meet" x="452" y="-187.7"/>
<text text-anchor="start" x="476" y="-177.8" font-family="Helvetica,sans-Serif" font-size="11.00" fill="#000000">MPID</text>
<polygon fill="none" stroke="#000000" points="447,-148.7 447,-170.7 567,-170.7 567,-148.7 447,-148.7"/>
<image xlink:href="../../images/foreignKeys.png" width="11px" height="12px" preserveAspectRatio="xMinYMin meet" x="452" y="-165.7"/>
<text text-anchor="start" x="476" y="-155.8" font-family="Helvetica,sans-Serif" font-size="11.00" fill="#000000">AreaID</text>
<polygon fill="none" stroke="#000000" points="447,-126.7 447,-148.7 567,-148.7 567,-126.7 447,-126.7"/>
<image xlink:href="../../images/foreignKeys.png" width="11px" height="12px" preserveAspectRatio="xMinYMin meet" x="452" y="-143.7"/>
<text text-anchor="start" x="476" y="-133.8" font-family="Helvetica,sans-Serif" font-size="11.00" fill="#000000">BLID</text>
<polygon fill="none" stroke="#000000" points="447,-107.7 447,-126.7 567,-126.7 567,-107.7 447,-107.7"/>
<text text-anchor="start" x="450" y="-113.8" font-family="Helvetica,sans-Serif" font-size="11.00" fill="#000000">...</text>
<polygon fill="#ffffff" stroke="transparent" points="447,-88.7 447,-107.7 492,-107.7 492,-88.7 447,-88.7"/>
<polygon fill="none" stroke="#000000" points="447,-88.7 447,-107.7 492,-107.7 492,-88.7 447,-88.7"/>
<text text-anchor="start" x="450" y="-94.8" font-family="Helvetica,sans-Serif" font-size="11.00" fill="#000000">&lt; 2</text>
<polygon fill="#ffffff" stroke="transparent" points="492,-88.7 492,-107.7 542,-107.7 542,-88.7 492,-88.7"/>
<polygon fill="none" stroke="#000000" points="492,-88.7 492,-107.7 542,-107.7 542,-88.7 492,-88.7"/>
<text text-anchor="start" x="506.6105" y="-94.8" font-family="Helvetica,sans-Serif" font-size="11.00" fill="#000000">0 rows</text>
<polygon fill="#ffffff" stroke="transparent" points="542,-88.7 542,-107.7 567,-107.7 567,-88.7 542,-88.7"/>
<polygon fill="none" stroke="#000000" points="542,-88.7 542,-107.7 567,-107.7 567,-88.7 542,-88.7"/>
<text text-anchor="start" x="557.8862" y="-94.8" font-family="Helvetica,sans-Serif" font-size="11.00" fill="#000000"> &#160;</text>
</a>
</g>
</g>
<!-- MeshPoints2d&#45;&gt;BreakLines2d -->
<g id="edge4" class="edge">
<title>MeshPoints2d:w&#45;&gt;BreakLines2d:e</title>
<path fill="none" stroke="#000000" stroke-dasharray="5,2" d="M432.7154,-133.9088C419.7998,-126.048 415.8169,-108.7 395.5,-108.7"/>
<polygon fill="#000000" stroke="#000000" points="439.2677,-135.6477 446.0765,-141.1795 443.1339,-136.6739 447,-137.7 447,-137.7 447,-137.7 443.1339,-136.6739 447.9235,-134.2205 439.2677,-135.6477 439.2677,-135.6477"/>
<ellipse fill="none" stroke="#000000" cx="436.1748" cy="-134.8268" rx="3.2" ry="3.2"/>
</g>
<!-- MeshPoints2d&#45;&gt;FlowAreas2d -->
<g id="edge3" class="edge">
<title>MeshPoints2d:w&#45;&gt;FlowAreas2d:e</title>
<path fill="none" stroke="#000000" stroke-dasharray="5,2" d="M432.6641,-162.5342C424.3276,-166.2671 419.1107,-172.7073 406,-175.7 326.9066,-193.7543 305.1279,-189.7 224,-189.7"/>
<polygon fill="#000000" stroke="#000000" points="439.1519,-161.2516 447.6982,-163.2316 443.0759,-160.4758 447,-159.7 447,-159.7 447,-159.7 443.0759,-160.4758 446.3018,-156.1684 439.1519,-161.2516 439.1519,-161.2516"/>
<ellipse fill="none" stroke="#000000" cx="436.0127" cy="-161.8722" rx="3.2" ry="3.2"/>
</g>
</g>
</svg>
