<?xml version="1.0" encoding="UTF-8" standalone="no"?>
<!DOCTYPE svg PUBLIC "-//W3C//DTD SVG 1.1//EN"
 "http://www.w3.org/Graphics/SVG/1.1/DTD/svg11.dtd">
<!-- Generated by graphviz version 2.40.1 (20161225.0304)
 -->
<!-- Title: oneDegreeRelationshipsDiagram Pages: 1 -->
<svg width="226pt" height="162pt"
 viewBox="0.00 0.00 226.00 162.20" xmlns="http://www.w3.org/2000/svg" xmlns:xlink="http://www.w3.org/1999/xlink">
<g id="graph0" class="graph" transform="scale(1 1) rotate(0) translate(4 158.2)">
<title>oneDegreeRelationshipsDiagram</title>
<polygon fill="#ffffff" stroke="transparent" points="-4,4 -4,-158.2 222,-158.2 222,4 -4,4"/>
<text text-anchor="middle" x="72.4936" y="-7.3" font-family="Helvetica,sans-Serif" font-size="11.00" fill="#000000">Generated by SchemaSpy</text>
<!-- IneffAreas -->
<g id="node1" class="node">
<title>IneffAreas</title>
<g id="a_node1"><a xlink:href="../../tables/IneffAreas.html" xlink:title="IneffAreas" target="_top">
<polygon fill="#ffffff" stroke="transparent" points="8,-38.2 8,-150.2 210,-150.2 210,-38.2 8,-38.2"/>
<polygon fill="#f5f5f5" stroke="transparent" points="10,-125.2 10,-148.2 208,-148.2 208,-125.2 10,-125.2"/>
<polygon fill="none" stroke="#000000" points="10,-125.2 10,-148.2 208,-148.2 208,-125.2 10,-125.2"/>
<text text-anchor="start" x="15" y="-133.8" font-family="Helvetica,sans-Serif" font-weight="bold" font-size="11.00" fill="#000000">IneffAreas</text>
<text text-anchor="start" x="173.0437" y="-133.3" font-family="Helvetica,sans-Serif" font-size="11.00" fill="#000000">[table]</text>
<polygon fill="#ffffff" stroke="transparent" points="10,-103.2 10,-125.2 89,-125.2 89,-103.2 10,-103.2"/>
<polygon fill="none" stroke="#000000" points="10,-103.2 10,-125.2 89,-125.2 89,-103.2 10,-103.2"/>
<text text-anchor="start" x="30" y="-110.3" font-family="Helvetica,sans-Serif" font-size="11.00" fill="#000000">geom</text>
<polygon fill="none" stroke="#000000" points="89,-103.2 89,-125.2 208,-125.2 208,-103.2 89,-103.2"/>
<text text-anchor="start" x="91.9485" y="-110.9" font-family="Helvetica,sans-Serif" font-size="11.00" fill="#000000">geometry[2147483647]</text>
<polygon fill="none" stroke="#000000" points="10,-81.2 10,-103.2 89,-103.2 89,-81.2 10,-81.2"/>
<image xlink:href="../../images/primaryKeys.png" width="11px" height="12px" preserveAspectRatio="xMinYMin meet" x="15" y="-98.2"/>
<text text-anchor="start" x="30" y="-88.3" font-family="Helvetica,sans-Serif" font-size="11.00" fill="#000000">IneffID</text>
<polygon fill="none" stroke="#000000" points="89,-81.2 89,-103.2 208,-103.2 208,-81.2 89,-81.2"/>
<text text-anchor="start" x="92" y="-88.9" font-family="Helvetica,sans-Serif" font-size="11.00" fill="#000000">serial[10]</text>
<polygon fill="none" stroke="#000000" points="10,-59.2 10,-81.2 89,-81.2 89,-59.2 10,-59.2"/>
<text text-anchor="start" x="30" y="-66.3" font-family="Helvetica,sans-Serif" font-size="11.00" fill="#000000">Elevation</text>
<polygon fill="none" stroke="#000000" points="89,-59.2 89,-81.2 208,-81.2 208,-59.2 89,-59.2"/>
<text text-anchor="start" x="92" y="-66.9" font-family="Helvetica,sans-Serif" font-size="11.00" fill="#000000">float8[17,17]</text>
<polygon fill="#ffffff" stroke="transparent" points="10,-40.2 10,-59.2 41,-59.2 41,-40.2 10,-40.2"/>
<polygon fill="none" stroke="#000000" points="10,-40.2 10,-59.2 41,-59.2 41,-40.2 10,-40.2"/>
<text text-anchor="start" x="13" y="-46.3" font-family="Helvetica,sans-Serif" font-size="11.00" fill="#000000">&lt; 0</text>
<polygon fill="#ffffff" stroke="transparent" points="41,-40.2 41,-59.2 89,-59.2 89,-40.2 41,-40.2"/>
<polygon fill="none" stroke="#000000" points="41,-40.2 41,-59.2 89,-59.2 89,-40.2 41,-40.2"/>
<text text-anchor="start" x="53.6105" y="-46.3" font-family="Helvetica,sans-Serif" font-size="11.00" fill="#000000">0 rows</text>
<polygon fill="#ffffff" stroke="transparent" points="89,-40.2 89,-59.2 208,-59.2 208,-40.2 89,-40.2"/>
<polygon fill="none" stroke="#000000" points="89,-40.2 89,-59.2 208,-59.2 208,-40.2 89,-40.2"/>
<text text-anchor="start" x="189.4053" y="-46.3" font-family="Helvetica,sans-Serif" font-size="11.00" fill="#000000">0 &gt;</text>
<polygon fill="none" stroke="#000000" stroke-width="2" points="9,-39.2 9,-149.2 209,-149.2 209,-39.2 9,-39.2"/>
</a>
</g>
</g>
</g>
</svg>
