<?xml version="1.0" encoding="UTF-8" standalone="no"?>
<!DOCTYPE svg PUBLIC "-//W3C//DTD SVG 1.1//EN"
 "http://www.w3.org/Graphics/SVG/1.1/DTD/svg11.dtd">
<!-- Generated by graphviz version 2.40.1 (20161225.0304)
 -->
<!-- Title: oneDegreeRelationshipsDiagramImplied Pages: 1 -->
<svg width="418pt" height="179pt"
 viewBox="0.00 0.00 418.00 178.70" xmlns="http://www.w3.org/2000/svg" xmlns:xlink="http://www.w3.org/1999/xlink">
<g id="graph0" class="graph" transform="scale(1 1) rotate(0) translate(4 174.7)">
<title>oneDegreeRelationshipsDiagramImplied</title>
<polygon fill="#ffffff" stroke="transparent" points="-4,4 -4,-174.7 414,-174.7 414,4 -4,4"/>
<text text-anchor="middle" x="72.4936" y="-7.3" font-family="Helvetica,sans-Serif" font-size="11.00" fill="#000000">Generated by SchemaSpy</text>
<!-- LeveePoints -->
<g id="node1" class="node">
<title>LeveePoints</title>
<g id="a_node1"><a xlink:href="../../tables/LeveePoints.html" xlink:title="LeveePoints" target="_top">
<polygon fill="#ffffff" stroke="transparent" points="293,-38.2 293,-165.2 402,-165.2 402,-38.2 293,-38.2"/>
<polygon fill="#f5f5f5" stroke="transparent" points="293.5,-141.7 293.5,-164.7 402.5,-164.7 402.5,-141.7 293.5,-141.7"/>
<polygon fill="none" stroke="#000000" points="293.5,-141.7 293.5,-164.7 402.5,-164.7 402.5,-141.7 293.5,-141.7"/>
<text text-anchor="start" x="298.5" y="-150.3" font-family="Helvetica,sans-Serif" font-weight="bold" font-size="11.00" fill="#000000">LeveePoints</text>
<text text-anchor="start" x="368.0219" y="-149.8" font-family="Helvetica,sans-Serif" font-size="11.00" fill="#000000">[table]</text>
<polygon fill="none" stroke="#000000" points="293.5,-119.7 293.5,-141.7 402.5,-141.7 402.5,-119.7 293.5,-119.7"/>
<image xlink:href="../../images/primaryKeys.png" width="11px" height="12px" preserveAspectRatio="xMinYMin meet" x="298.5" y="-136.7"/>
<text text-anchor="start" x="322.5" y="-126.8" font-family="Helvetica,sans-Serif" font-size="11.00" fill="#000000">LeveePID</text>
<polygon fill="none" stroke="#000000" points="293.5,-97.7 293.5,-119.7 402.5,-119.7 402.5,-97.7 293.5,-97.7"/>
<image xlink:href="../../images/foreignKeys.png" width="11px" height="12px" preserveAspectRatio="xMinYMin meet" x="298.5" y="-114.7"/>
<text text-anchor="start" x="322.5" y="-104.8" font-family="Helvetica,sans-Serif" font-size="11.00" fill="#000000">LeveeID</text>
<polygon fill="none" stroke="#000000" points="293.5,-75.7 293.5,-97.7 402.5,-97.7 402.5,-75.7 293.5,-75.7"/>
<image xlink:href="../../images/foreignKeys.png" width="11px" height="12px" preserveAspectRatio="xMinYMin meet" x="298.5" y="-92.7"/>
<text text-anchor="start" x="322.5" y="-82.8" font-family="Helvetica,sans-Serif" font-size="11.00" fill="#000000">XsecID</text>
<polygon fill="none" stroke="#000000" points="293.5,-56.7 293.5,-75.7 402.5,-75.7 402.5,-56.7 293.5,-56.7"/>
<text text-anchor="start" x="296.5" y="-62.8" font-family="Helvetica,sans-Serif" font-size="11.00" fill="#000000">...</text>
<polygon fill="#ffffff" stroke="transparent" points="293.5,-37.7 293.5,-56.7 333.5,-56.7 333.5,-37.7 293.5,-37.7"/>
<polygon fill="none" stroke="#000000" points="293.5,-37.7 293.5,-56.7 333.5,-56.7 333.5,-37.7 293.5,-37.7"/>
<text text-anchor="start" x="296.5" y="-43.8" font-family="Helvetica,sans-Serif" font-size="11.00" fill="#000000">&lt; 2</text>
<polygon fill="#ffffff" stroke="transparent" points="333.5,-37.7 333.5,-56.7 380.5,-56.7 380.5,-37.7 333.5,-37.7"/>
<polygon fill="none" stroke="#000000" points="333.5,-37.7 333.5,-56.7 380.5,-56.7 380.5,-37.7 333.5,-37.7"/>
<text text-anchor="start" x="345.1105" y="-43.8" font-family="Helvetica,sans-Serif" font-size="11.00" fill="#000000">0 rows</text>
<polygon fill="#ffffff" stroke="transparent" points="380.5,-37.7 380.5,-56.7 402.5,-56.7 402.5,-37.7 380.5,-37.7"/>
<polygon fill="none" stroke="#000000" points="380.5,-37.7 380.5,-56.7 402.5,-56.7 402.5,-37.7 380.5,-37.7"/>
<text text-anchor="start" x="393.3862" y="-43.8" font-family="Helvetica,sans-Serif" font-size="11.00" fill="#000000"> &#160;</text>
</a>
</g>
</g>
<!-- LeveeAlignment -->
<g id="node2" class="node">
<title>LeveeAlignment</title>
<g id="a_node2"><a xlink:href="../../tables/LeveeAlignment.html" xlink:title="LeveeAlignment" target="_top">
<polygon fill="#ffffff" stroke="transparent" points="8,-76.7 8,-166.7 244,-166.7 244,-76.7 8,-76.7"/>
<polygon fill="#f5f5f5" stroke="transparent" points="10,-141.7 10,-164.7 242,-164.7 242,-141.7 10,-141.7"/>
<polygon fill="none" stroke="#000000" points="10,-141.7 10,-164.7 242,-164.7 242,-141.7 10,-141.7"/>
<text text-anchor="start" x="15" y="-150.3" font-family="Helvetica,sans-Serif" font-weight="bold" font-size="11.00" fill="#000000">LeveeAlignment</text>
<text text-anchor="start" x="207.0437" y="-149.8" font-family="Helvetica,sans-Serif" font-size="11.00" fill="#000000">[table]</text>
<polygon fill="#ffffff" stroke="transparent" points="10,-119.7 10,-141.7 123,-141.7 123,-119.7 10,-119.7"/>
<polygon fill="none" stroke="#000000" points="10,-119.7 10,-141.7 123,-141.7 123,-119.7 10,-119.7"/>
<text text-anchor="start" x="30" y="-126.8" font-family="Helvetica,sans-Serif" font-size="11.00" fill="#000000">geom</text>
<polygon fill="none" stroke="#000000" points="123,-119.7 123,-141.7 242,-141.7 242,-119.7 123,-119.7"/>
<text text-anchor="start" x="125.9485" y="-127.4" font-family="Helvetica,sans-Serif" font-size="11.00" fill="#000000">geometry[2147483647]</text>
<polygon fill="none" stroke="#000000" points="10,-97.7 10,-119.7 123,-119.7 123,-97.7 10,-97.7"/>
<image xlink:href="../../images/primaryKeys.png" width="11px" height="12px" preserveAspectRatio="xMinYMin meet" x="15" y="-114.7"/>
<text text-anchor="start" x="30" y="-104.8" font-family="Helvetica,sans-Serif" font-size="11.00" fill="#000000">LeveeID</text>
<polygon fill="none" stroke="#000000" points="123,-97.7 123,-119.7 242,-119.7 242,-97.7 123,-97.7"/>
<text text-anchor="start" x="126" y="-105.4" font-family="Helvetica,sans-Serif" font-size="11.00" fill="#000000">serial[10]</text>
<polygon fill="#ffffff" stroke="transparent" points="10,-78.7 10,-97.7 58,-97.7 58,-78.7 10,-78.7"/>
<polygon fill="none" stroke="#000000" points="10,-78.7 10,-97.7 58,-97.7 58,-78.7 10,-78.7"/>
<text text-anchor="start" x="13" y="-84.8" font-family="Helvetica,sans-Serif" font-size="11.00" fill="#000000">&lt; 0</text>
<polygon fill="#ffffff" stroke="transparent" points="58,-78.7 58,-97.7 123,-97.7 123,-78.7 58,-78.7"/>
<polygon fill="none" stroke="#000000" points="58,-78.7 58,-97.7 123,-97.7 123,-78.7 58,-78.7"/>
<text text-anchor="start" x="87.6105" y="-84.8" font-family="Helvetica,sans-Serif" font-size="11.00" fill="#000000">0 rows</text>
<polygon fill="#ffffff" stroke="transparent" points="123,-78.7 123,-97.7 242,-97.7 242,-78.7 123,-78.7"/>
<polygon fill="none" stroke="#000000" points="123,-78.7 123,-97.7 242,-97.7 242,-78.7 123,-78.7"/>
<text text-anchor="start" x="223.4053" y="-84.8" font-family="Helvetica,sans-Serif" font-size="11.00" fill="#000000">1 &gt;</text>
<polygon fill="none" stroke="#000000" stroke-width="2" points="9,-77.7 9,-165.7 243,-165.7 243,-77.7 9,-77.7"/>
</a>
</g>
</g>
<!-- LeveePoints&#45;&gt;LeveeAlignment -->
<g id="edge1" class="edge">
<title>LeveePoints:w&#45;&gt;LeveeAlignment:e</title>
<path fill="none" stroke="#000000" stroke-dasharray="5,2" d="M279.0156,-108.7C266.6771,-108.7 259.1667,-108.7 242,-108.7"/>
<polygon fill="#000000" stroke="#000000" points="285.5,-108.7001 293.5,-112.3 289.5,-108.7 293.5,-108.7 293.5,-108.7 293.5,-108.7 289.5,-108.7 293.5,-105.1 285.5,-108.7001 285.5,-108.7001"/>
<ellipse fill="none" stroke="#000000" cx="282.3" cy="-108.7001" rx="3.2" ry="3.2"/>
</g>
</g>
</svg>
