<?xml version="1.0" encoding="UTF-8" standalone="no"?>
<!DOCTYPE svg PUBLIC "-//W3C//DTD SVG 1.1//EN"
 "http://www.w3.org/Graphics/SVG/1.1/DTD/svg11.dtd">
<!-- Generated by graphviz version 2.40.1 (20161225.0304)
 -->
<!-- Title: twoDegreesRelationshipsDiagramImplied Pages: 1 -->
<svg width="418pt" height="223pt"
 viewBox="0.00 0.00 418.00 222.70" xmlns="http://www.w3.org/2000/svg" xmlns:xlink="http://www.w3.org/1999/xlink">
<g id="graph0" class="graph" transform="scale(1 1) rotate(0) translate(4 218.7)">
<title>twoDegreesRelationshipsDiagramImplied</title>
<polygon fill="#ffffff" stroke="transparent" points="-4,4 -4,-218.7 414,-218.7 414,4 -4,4"/>
<text text-anchor="middle" x="72.4936" y="-7.3" font-family="Helvetica,sans-Serif" font-size="11.00" fill="#000000">Generated by SchemaSpy</text>
<!-- LeveePoints -->
<g id="node1" class="node">
<title>LeveePoints</title>
<g id="a_node1"><a xlink:href="../../tables/LeveePoints.html" xlink:title="LeveePoints" target="_top">
<polygon fill="#ffffff" stroke="transparent" points="293,-49.2 293,-176.2 402,-176.2 402,-49.2 293,-49.2"/>
<polygon fill="#f5f5f5" stroke="transparent" points="293.5,-152.7 293.5,-175.7 402.5,-175.7 402.5,-152.7 293.5,-152.7"/>
<polygon fill="none" stroke="#000000" points="293.5,-152.7 293.5,-175.7 402.5,-175.7 402.5,-152.7 293.5,-152.7"/>
<text text-anchor="start" x="298.5" y="-161.3" font-family="Helvetica,sans-Serif" font-weight="bold" font-size="11.00" fill="#000000">LeveePoints</text>
<text text-anchor="start" x="368.0219" y="-160.8" font-family="Helvetica,sans-Serif" font-size="11.00" fill="#000000">[table]</text>
<polygon fill="none" stroke="#000000" points="293.5,-130.7 293.5,-152.7 402.5,-152.7 402.5,-130.7 293.5,-130.7"/>
<image xlink:href="../../images/primaryKeys.png" width="11px" height="12px" preserveAspectRatio="xMinYMin meet" x="298.5" y="-147.7"/>
<text text-anchor="start" x="322.5" y="-137.8" font-family="Helvetica,sans-Serif" font-size="11.00" fill="#000000">LeveePID</text>
<polygon fill="none" stroke="#000000" points="293.5,-108.7 293.5,-130.7 402.5,-130.7 402.5,-108.7 293.5,-108.7"/>
<image xlink:href="../../images/foreignKeys.png" width="11px" height="12px" preserveAspectRatio="xMinYMin meet" x="298.5" y="-125.7"/>
<text text-anchor="start" x="322.5" y="-115.8" font-family="Helvetica,sans-Serif" font-size="11.00" fill="#000000">LeveeID</text>
<polygon fill="none" stroke="#000000" points="293.5,-86.7 293.5,-108.7 402.5,-108.7 402.5,-86.7 293.5,-86.7"/>
<image xlink:href="../../images/foreignKeys.png" width="11px" height="12px" preserveAspectRatio="xMinYMin meet" x="298.5" y="-103.7"/>
<text text-anchor="start" x="322.5" y="-93.8" font-family="Helvetica,sans-Serif" font-size="11.00" fill="#000000">XsecID</text>
<polygon fill="none" stroke="#000000" points="293.5,-67.7 293.5,-86.7 402.5,-86.7 402.5,-67.7 293.5,-67.7"/>
<text text-anchor="start" x="296.5" y="-73.8" font-family="Helvetica,sans-Serif" font-size="11.00" fill="#000000">...</text>
<polygon fill="#ffffff" stroke="transparent" points="293.5,-48.7 293.5,-67.7 333.5,-67.7 333.5,-48.7 293.5,-48.7"/>
<polygon fill="none" stroke="#000000" points="293.5,-48.7 293.5,-67.7 333.5,-67.7 333.5,-48.7 293.5,-48.7"/>
<text text-anchor="start" x="296.5" y="-54.8" font-family="Helvetica,sans-Serif" font-size="11.00" fill="#000000">&lt; 2</text>
<polygon fill="#ffffff" stroke="transparent" points="333.5,-48.7 333.5,-67.7 380.5,-67.7 380.5,-48.7 333.5,-48.7"/>
<polygon fill="none" stroke="#000000" points="333.5,-48.7 333.5,-67.7 380.5,-67.7 380.5,-48.7 333.5,-48.7"/>
<text text-anchor="start" x="345.1105" y="-54.8" font-family="Helvetica,sans-Serif" font-size="11.00" fill="#000000">0 rows</text>
<polygon fill="#ffffff" stroke="transparent" points="380.5,-48.7 380.5,-67.7 402.5,-67.7 402.5,-48.7 380.5,-48.7"/>
<polygon fill="none" stroke="#000000" points="380.5,-48.7 380.5,-67.7 402.5,-67.7 402.5,-48.7 380.5,-48.7"/>
<text text-anchor="start" x="393.3862" y="-54.8" font-family="Helvetica,sans-Serif" font-size="11.00" fill="#000000"> &#160;</text>
</a>
</g>
</g>
<!-- LeveeAlignment -->
<g id="node2" class="node">
<title>LeveeAlignment</title>
<g id="a_node2"><a xlink:href="../../tables/LeveeAlignment.html" xlink:title="LeveeAlignment" target="_top">
<polygon fill="#ffffff" stroke="transparent" points="8,-120.7 8,-210.7 244,-210.7 244,-120.7 8,-120.7"/>
<polygon fill="#f5f5f5" stroke="transparent" points="10,-185.7 10,-208.7 242,-208.7 242,-185.7 10,-185.7"/>
<polygon fill="none" stroke="#000000" points="10,-185.7 10,-208.7 242,-208.7 242,-185.7 10,-185.7"/>
<text text-anchor="start" x="15" y="-194.3" font-family="Helvetica,sans-Serif" font-weight="bold" font-size="11.00" fill="#000000">LeveeAlignment</text>
<text text-anchor="start" x="207.0437" y="-193.8" font-family="Helvetica,sans-Serif" font-size="11.00" fill="#000000">[table]</text>
<polygon fill="#ffffff" stroke="transparent" points="10,-163.7 10,-185.7 123,-185.7 123,-163.7 10,-163.7"/>
<polygon fill="none" stroke="#000000" points="10,-163.7 10,-185.7 123,-185.7 123,-163.7 10,-163.7"/>
<text text-anchor="start" x="30" y="-170.8" font-family="Helvetica,sans-Serif" font-size="11.00" fill="#000000">geom</text>
<polygon fill="none" stroke="#000000" points="123,-163.7 123,-185.7 242,-185.7 242,-163.7 123,-163.7"/>
<text text-anchor="start" x="125.9485" y="-171.4" font-family="Helvetica,sans-Serif" font-size="11.00" fill="#000000">geometry[2147483647]</text>
<polygon fill="none" stroke="#000000" points="10,-141.7 10,-163.7 123,-163.7 123,-141.7 10,-141.7"/>
<image xlink:href="../../images/primaryKeys.png" width="11px" height="12px" preserveAspectRatio="xMinYMin meet" x="15" y="-158.7"/>
<text text-anchor="start" x="30" y="-148.8" font-family="Helvetica,sans-Serif" font-size="11.00" fill="#000000">LeveeID</text>
<polygon fill="none" stroke="#000000" points="123,-141.7 123,-163.7 242,-163.7 242,-141.7 123,-141.7"/>
<text text-anchor="start" x="126" y="-149.4" font-family="Helvetica,sans-Serif" font-size="11.00" fill="#000000">serial[10]</text>
<polygon fill="#ffffff" stroke="transparent" points="10,-122.7 10,-141.7 58,-141.7 58,-122.7 10,-122.7"/>
<polygon fill="none" stroke="#000000" points="10,-122.7 10,-141.7 58,-141.7 58,-122.7 10,-122.7"/>
<text text-anchor="start" x="13" y="-128.8" font-family="Helvetica,sans-Serif" font-size="11.00" fill="#000000">&lt; 0</text>
<polygon fill="#ffffff" stroke="transparent" points="58,-122.7 58,-141.7 123,-141.7 123,-122.7 58,-122.7"/>
<polygon fill="none" stroke="#000000" points="58,-122.7 58,-141.7 123,-141.7 123,-122.7 58,-122.7"/>
<text text-anchor="start" x="87.6105" y="-128.8" font-family="Helvetica,sans-Serif" font-size="11.00" fill="#000000">0 rows</text>
<polygon fill="#ffffff" stroke="transparent" points="123,-122.7 123,-141.7 242,-141.7 242,-122.7 123,-122.7"/>
<polygon fill="none" stroke="#000000" points="123,-122.7 123,-141.7 242,-141.7 242,-122.7 123,-122.7"/>
<text text-anchor="start" x="223.4053" y="-128.8" font-family="Helvetica,sans-Serif" font-size="11.00" fill="#000000">1 &gt;</text>
<polygon fill="none" stroke="#000000" stroke-width="2" points="9,-121.7 9,-209.7 243,-209.7 243,-121.7 9,-121.7"/>
</a>
</g>
</g>
<!-- LeveePoints&#45;&gt;LeveeAlignment -->
<g id="edge1" class="edge">
<title>LeveePoints:w&#45;&gt;LeveeAlignment:e</title>
<path fill="none" stroke="#000000" stroke-dasharray="5,2" d="M279.3452,-123.7464C266.1325,-132.5584 263.2381,-152.7 242,-152.7"/>
<polygon fill="#000000" stroke="#000000" points="285.8081,-121.8989 294.4895,-123.1613 289.6541,-120.7995 293.5,-119.7 293.5,-119.7 293.5,-119.7 289.6541,-120.7995 292.5105,-116.2387 285.8081,-121.8989 285.8081,-121.8989"/>
<ellipse fill="none" stroke="#000000" cx="282.7314" cy="-122.7785" rx="3.2" ry="3.2"/>
</g>
<!-- XSCutLines -->
<g id="node3" class="node">
<title>XSCutLines</title>
<g id="a_node3"><a xlink:href="../../tables/XSCutLines.html" xlink:title="XSCutLines" target="_top">
<polygon fill="#ffffff" stroke="transparent" points="73,-38.2 73,-99.2 179,-99.2 179,-38.2 73,-38.2"/>
<polygon fill="#f5f5f5" stroke="transparent" points="73,-75.7 73,-98.7 179,-98.7 179,-75.7 73,-75.7"/>
<polygon fill="none" stroke="#000000" points="73,-75.7 73,-98.7 179,-98.7 179,-75.7 73,-75.7"/>
<text text-anchor="start" x="78" y="-84.3" font-family="Helvetica,sans-Serif" font-weight="bold" font-size="11.00" fill="#000000">XSCutLines</text>
<text text-anchor="start" x="144.5219" y="-83.8" font-family="Helvetica,sans-Serif" font-size="11.00" fill="#000000">[table]</text>
<polygon fill="none" stroke="#000000" points="73,-56.7 73,-75.7 179,-75.7 179,-56.7 73,-56.7"/>
<text text-anchor="start" x="76" y="-62.8" font-family="Helvetica,sans-Serif" font-size="11.00" fill="#000000">...</text>
<polygon fill="#ffffff" stroke="transparent" points="73,-37.7 73,-56.7 107,-56.7 107,-37.7 73,-37.7"/>
<polygon fill="none" stroke="#000000" points="73,-37.7 73,-56.7 107,-56.7 107,-37.7 73,-37.7"/>
<text text-anchor="start" x="76" y="-43.8" font-family="Helvetica,sans-Serif" font-size="11.00" fill="#000000">&lt; 1</text>
<polygon fill="#ffffff" stroke="transparent" points="107,-37.7 107,-56.7 151,-56.7 151,-37.7 107,-37.7"/>
<polygon fill="none" stroke="#000000" points="107,-37.7 107,-56.7 151,-56.7 151,-37.7 107,-37.7"/>
<text text-anchor="start" x="115.6105" y="-43.8" font-family="Helvetica,sans-Serif" font-size="11.00" fill="#000000">0 rows</text>
<polygon fill="#ffffff" stroke="transparent" points="151,-37.7 151,-56.7 179,-56.7 179,-37.7 151,-37.7"/>
<polygon fill="none" stroke="#000000" points="151,-37.7 151,-56.7 179,-56.7 179,-37.7 151,-37.7"/>
<text text-anchor="start" x="160.4053" y="-43.8" font-family="Helvetica,sans-Serif" font-size="11.00" fill="#000000">1 &gt;</text>
</a>
</g>
</g>
<!-- LeveePoints&#45;&gt;XSCutLines -->
<g id="edge2" class="edge">
<title>LeveePoints:w&#45;&gt;XSCutLines:e</title>
<path fill="none" stroke="#000000" stroke-dasharray="5,2" d="M278.9334,-96.8107C238.4668,-91.6425 226.5757,-65.7 179,-65.7"/>
<polygon fill="#000000" stroke="#000000" points="285.5149,-97.2125 293.2806,-101.2933 289.5074,-97.4562 293.5,-97.7 293.5,-97.7 293.5,-97.7 289.5074,-97.4562 293.7194,-94.1067 285.5149,-97.2125 285.5149,-97.2125"/>
<ellipse fill="none" stroke="#000000" cx="282.3208" cy="-97.0175" rx="3.2" ry="3.2"/>
</g>
</g>
</svg>
