<?xml version="1.0" encoding="UTF-8" standalone="no"?>
<!DOCTYPE svg PUBLIC "-//W3C//DTD SVG 1.1//EN"
 "http://www.w3.org/Graphics/SVG/1.1/DTD/svg11.dtd">
<!-- Generated by graphviz version 2.40.1 (20161225.0304)
 -->
<!-- Title: oneDegreeRelationshipsDiagram Pages: 1 -->
<svg width="260pt" height="140pt"
 viewBox="0.00 0.00 260.00 140.20" xmlns="http://www.w3.org/2000/svg" xmlns:xlink="http://www.w3.org/1999/xlink">
<g id="graph0" class="graph" transform="scale(1 1) rotate(0) translate(4 136.2)">
<title>oneDegreeRelationshipsDiagram</title>
<polygon fill="#ffffff" stroke="transparent" points="-4,4 -4,-136.2 256,-136.2 256,4 -4,4"/>
<text text-anchor="middle" x="72.4936" y="-7.3" font-family="Helvetica,sans-Serif" font-size="11.00" fill="#000000">Generated by SchemaSpy</text>
<!-- LeveeAlignment -->
<g id="node1" class="node">
<title>LeveeAlignment</title>
<g id="a_node1"><a xlink:href="../../tables/LeveeAlignment.html" xlink:title="LeveeAlignment" target="_top">
<polygon fill="#ffffff" stroke="transparent" points="8,-38.2 8,-128.2 244,-128.2 244,-38.2 8,-38.2"/>
<polygon fill="#f5f5f5" stroke="transparent" points="10,-103.2 10,-126.2 242,-126.2 242,-103.2 10,-103.2"/>
<polygon fill="none" stroke="#000000" points="10,-103.2 10,-126.2 242,-126.2 242,-103.2 10,-103.2"/>
<text text-anchor="start" x="15" y="-111.8" font-family="Helvetica,sans-Serif" font-weight="bold" font-size="11.00" fill="#000000">LeveeAlignment</text>
<text text-anchor="start" x="207.0437" y="-111.3" font-family="Helvetica,sans-Serif" font-size="11.00" fill="#000000">[table]</text>
<polygon fill="#ffffff" stroke="transparent" points="10,-81.2 10,-103.2 123,-103.2 123,-81.2 10,-81.2"/>
<polygon fill="none" stroke="#000000" points="10,-81.2 10,-103.2 123,-103.2 123,-81.2 10,-81.2"/>
<text text-anchor="start" x="30" y="-88.3" font-family="Helvetica,sans-Serif" font-size="11.00" fill="#000000">geom</text>
<polygon fill="none" stroke="#000000" points="123,-81.2 123,-103.2 242,-103.2 242,-81.2 123,-81.2"/>
<text text-anchor="start" x="125.9485" y="-88.9" font-family="Helvetica,sans-Serif" font-size="11.00" fill="#000000">geometry[2147483647]</text>
<polygon fill="none" stroke="#000000" points="10,-59.2 10,-81.2 123,-81.2 123,-59.2 10,-59.2"/>
<image xlink:href="../../images/primaryKeys.png" width="11px" height="12px" preserveAspectRatio="xMinYMin meet" x="15" y="-76.2"/>
<text text-anchor="start" x="30" y="-66.3" font-family="Helvetica,sans-Serif" font-size="11.00" fill="#000000">LeveeID</text>
<polygon fill="none" stroke="#000000" points="123,-59.2 123,-81.2 242,-81.2 242,-59.2 123,-59.2"/>
<text text-anchor="start" x="126" y="-66.9" font-family="Helvetica,sans-Serif" font-size="11.00" fill="#000000">serial[10]</text>
<polygon fill="#ffffff" stroke="transparent" points="10,-40.2 10,-59.2 58,-59.2 58,-40.2 10,-40.2"/>
<polygon fill="none" stroke="#000000" points="10,-40.2 10,-59.2 58,-59.2 58,-40.2 10,-40.2"/>
<text text-anchor="start" x="13" y="-46.3" font-family="Helvetica,sans-Serif" font-size="11.00" fill="#000000">&lt; 0</text>
<polygon fill="#ffffff" stroke="transparent" points="58,-40.2 58,-59.2 123,-59.2 123,-40.2 58,-40.2"/>
<polygon fill="none" stroke="#000000" points="58,-40.2 58,-59.2 123,-59.2 123,-40.2 58,-40.2"/>
<text text-anchor="start" x="87.6105" y="-46.3" font-family="Helvetica,sans-Serif" font-size="11.00" fill="#000000">0 rows</text>
<polygon fill="#ffffff" stroke="transparent" points="123,-40.2 123,-59.2 242,-59.2 242,-40.2 123,-40.2"/>
<polygon fill="none" stroke="#000000" points="123,-40.2 123,-59.2 242,-59.2 242,-40.2 123,-40.2"/>
<text text-anchor="start" x="223.4053" y="-46.3" font-family="Helvetica,sans-Serif" font-size="11.00" fill="#000000">0 &gt;</text>
<polygon fill="none" stroke="#000000" stroke-width="2" points="9,-39.2 9,-127.2 243,-127.2 243,-39.2 9,-39.2"/>
</a>
</g>
</g>
</g>
</svg>
