<?xml version="1.0" encoding="UTF-8" standalone="no"?>
<!DOCTYPE svg PUBLIC "-//W3C//DTD SVG 1.1//EN"
 "http://www.w3.org/Graphics/SVG/1.1/DTD/svg11.dtd">
<!-- Generated by graphviz version 2.40.1 (20161225.0304)
 -->
<!-- Title: oneDegreeRelationshipsDiagramImplied Pages: 1 -->
<svg width="418pt" height="285pt"
 viewBox="0.00 0.00 418.00 284.70" xmlns="http://www.w3.org/2000/svg" xmlns:xlink="http://www.w3.org/1999/xlink">
<g id="graph0" class="graph" transform="scale(1 1) rotate(0) translate(4 280.7)">
<title>oneDegreeRelationshipsDiagramImplied</title>
<polygon fill="#ffffff" stroke="transparent" points="-4,4 -4,-280.7 414,-280.7 414,4 -4,4"/>
<text text-anchor="middle" x="72.4936" y="-7.3" font-family="Helvetica,sans-Serif" font-size="11.00" fill="#000000">Generated by SchemaSpy</text>
<!-- LeveePoints -->
<g id="node1" class="node">
<title>LeveePoints</title>
<g id="a_node1"><a xlink:href="../../tables/LeveePoints.html" xlink:title="LeveePoints" target="_top">
<polygon fill="#ffffff" stroke="transparent" points="188,-75.7 188,-253.7 402,-253.7 402,-75.7 188,-75.7"/>
<polygon fill="#f5f5f5" stroke="transparent" points="190,-228.7 190,-251.7 400,-251.7 400,-228.7 190,-228.7"/>
<polygon fill="none" stroke="#000000" points="190,-228.7 190,-251.7 400,-251.7 400,-228.7 190,-228.7"/>
<text text-anchor="start" x="195" y="-237.3" font-family="Helvetica,sans-Serif" font-weight="bold" font-size="11.00" fill="#000000">LeveePoints</text>
<text text-anchor="start" x="365.0437" y="-236.8" font-family="Helvetica,sans-Serif" font-size="11.00" fill="#000000">[table]</text>
<polygon fill="none" stroke="#000000" points="190,-206.7 190,-228.7 281,-228.7 281,-206.7 190,-206.7"/>
<text text-anchor="start" x="210" y="-213.8" font-family="Helvetica,sans-Serif" font-size="11.00" fill="#000000">geom</text>
<polygon fill="none" stroke="#000000" points="281,-206.7 281,-228.7 400,-228.7 400,-206.7 281,-206.7"/>
<text text-anchor="start" x="283.9485" y="-214.4" font-family="Helvetica,sans-Serif" font-size="11.00" fill="#000000">geometry[2147483647]</text>
<polygon fill="none" stroke="#000000" points="190,-184.7 190,-206.7 281,-206.7 281,-184.7 190,-184.7"/>
<image xlink:href="../../images/primaryKeys.png" width="11px" height="12px" preserveAspectRatio="xMinYMin meet" x="195" y="-201.7"/>
<text text-anchor="start" x="210" y="-191.8" font-family="Helvetica,sans-Serif" font-size="11.00" fill="#000000">LeveePID</text>
<polygon fill="none" stroke="#000000" points="281,-184.7 281,-206.7 400,-206.7 400,-184.7 281,-184.7"/>
<text text-anchor="start" x="284" y="-192.4" font-family="Helvetica,sans-Serif" font-size="11.00" fill="#000000">serial[10]</text>
<polygon fill="none" stroke="#000000" points="190,-162.7 190,-184.7 281,-184.7 281,-162.7 190,-162.7"/>
<image xlink:href="../../images/foreignKeys.png" width="11px" height="12px" preserveAspectRatio="xMinYMin meet" x="195" y="-179.7"/>
<text text-anchor="start" x="210" y="-169.8" font-family="Helvetica,sans-Serif" font-size="11.00" fill="#000000">LeveeID</text>
<polygon fill="none" stroke="#000000" points="281,-162.7 281,-184.7 400,-184.7 400,-162.7 281,-162.7"/>
<text text-anchor="start" x="284" y="-170.4" font-family="Helvetica,sans-Serif" font-size="11.00" fill="#000000">int4[10]</text>
<polygon fill="none" stroke="#000000" points="190,-140.7 190,-162.7 281,-162.7 281,-140.7 190,-140.7"/>
<image xlink:href="../../images/foreignKeys.png" width="11px" height="12px" preserveAspectRatio="xMinYMin meet" x="195" y="-157.7"/>
<text text-anchor="start" x="210" y="-147.8" font-family="Helvetica,sans-Serif" font-size="11.00" fill="#000000">XsecID</text>
<polygon fill="none" stroke="#000000" points="281,-140.7 281,-162.7 400,-162.7 400,-140.7 281,-140.7"/>
<text text-anchor="start" x="284" y="-148.4" font-family="Helvetica,sans-Serif" font-size="11.00" fill="#000000">int4[10]</text>
<polygon fill="none" stroke="#000000" points="190,-118.7 190,-140.7 281,-140.7 281,-118.7 190,-118.7"/>
<text text-anchor="start" x="210" y="-125.8" font-family="Helvetica,sans-Serif" font-size="11.00" fill="#000000">Fraction</text>
<polygon fill="none" stroke="#000000" points="281,-118.7 281,-140.7 400,-140.7 400,-118.7 281,-118.7"/>
<text text-anchor="start" x="284" y="-126.4" font-family="Helvetica,sans-Serif" font-size="11.00" fill="#000000">float8[17,17]</text>
<polygon fill="none" stroke="#000000" points="190,-96.7 190,-118.7 281,-118.7 281,-96.7 190,-96.7"/>
<text text-anchor="start" x="210" y="-103.8" font-family="Helvetica,sans-Serif" font-size="11.00" fill="#000000">Elevation</text>
<polygon fill="none" stroke="#000000" points="281,-96.7 281,-118.7 400,-118.7 400,-96.7 281,-96.7"/>
<text text-anchor="start" x="284" y="-104.4" font-family="Helvetica,sans-Serif" font-size="11.00" fill="#000000">float8[17,17]</text>
<polygon fill="#ffffff" stroke="transparent" points="190,-77.7 190,-96.7 227,-96.7 227,-77.7 190,-77.7"/>
<polygon fill="none" stroke="#000000" points="190,-77.7 190,-96.7 227,-96.7 227,-77.7 190,-77.7"/>
<text text-anchor="start" x="193" y="-83.8" font-family="Helvetica,sans-Serif" font-size="11.00" fill="#000000">&lt; 2</text>
<polygon fill="#ffffff" stroke="transparent" points="227,-77.7 227,-96.7 281,-96.7 281,-77.7 227,-77.7"/>
<polygon fill="none" stroke="#000000" points="227,-77.7 227,-96.7 281,-96.7 281,-77.7 227,-77.7"/>
<text text-anchor="start" x="245.6105" y="-83.8" font-family="Helvetica,sans-Serif" font-size="11.00" fill="#000000">0 rows</text>
<polygon fill="#ffffff" stroke="transparent" points="281,-77.7 281,-96.7 400,-96.7 400,-77.7 281,-77.7"/>
<polygon fill="none" stroke="#000000" points="281,-77.7 281,-96.7 400,-96.7 400,-77.7 281,-77.7"/>
<text text-anchor="start" x="381.4053" y="-83.8" font-family="Helvetica,sans-Serif" font-size="11.00" fill="#000000">0 &gt;</text>
<polygon fill="none" stroke="#000000" stroke-width="2" points="189,-76.7 189,-252.7 401,-252.7 401,-76.7 189,-76.7"/>
</a>
</g>
</g>
<!-- LeveeAlignment -->
<g id="node2" class="node">
<title>LeveeAlignment</title>
<g id="a_node2"><a xlink:href="../../tables/LeveeAlignment.html" xlink:title="LeveeAlignment" target="_top">
<polygon fill="#ffffff" stroke="transparent" points="8,-186.7 8,-272.7 139,-272.7 139,-186.7 8,-186.7"/>
<polygon fill="#f5f5f5" stroke="transparent" points="8.5,-249.7 8.5,-272.7 139.5,-272.7 139.5,-249.7 8.5,-249.7"/>
<polygon fill="none" stroke="#000000" points="8.5,-249.7 8.5,-272.7 139.5,-272.7 139.5,-249.7 8.5,-249.7"/>
<text text-anchor="start" x="13.5" y="-258.3" font-family="Helvetica,sans-Serif" font-weight="bold" font-size="11.00" fill="#000000">LeveeAlignment</text>
<text text-anchor="start" x="105.0219" y="-257.8" font-family="Helvetica,sans-Serif" font-size="11.00" fill="#000000">[table]</text>
<polygon fill="#ffffff" stroke="transparent" points="8.5,-227.7 8.5,-249.7 139.5,-249.7 139.5,-227.7 8.5,-227.7"/>
<polygon fill="none" stroke="#000000" points="8.5,-227.7 8.5,-249.7 139.5,-249.7 139.5,-227.7 8.5,-227.7"/>
<text text-anchor="start" x="37.5" y="-234.8" font-family="Helvetica,sans-Serif" font-size="11.00" fill="#000000">geom</text>
<polygon fill="none" stroke="#000000" points="8.5,-205.7 8.5,-227.7 139.5,-227.7 139.5,-205.7 8.5,-205.7"/>
<image xlink:href="../../images/primaryKeys.png" width="11px" height="12px" preserveAspectRatio="xMinYMin meet" x="13.5" y="-222.7"/>
<text text-anchor="start" x="37.5" y="-212.8" font-family="Helvetica,sans-Serif" font-size="11.00" fill="#000000">LeveeID</text>
<polygon fill="#ffffff" stroke="transparent" points="8.5,-186.7 8.5,-205.7 50.5,-205.7 50.5,-186.7 8.5,-186.7"/>
<polygon fill="none" stroke="#000000" points="8.5,-186.7 8.5,-205.7 50.5,-205.7 50.5,-186.7 8.5,-186.7"/>
<text text-anchor="start" x="11.5" y="-192.8" font-family="Helvetica,sans-Serif" font-size="11.00" fill="#000000"> &#160;</text>
<polygon fill="#ffffff" stroke="transparent" points="50.5,-186.7 50.5,-205.7 103.5,-205.7 103.5,-186.7 50.5,-186.7"/>
<polygon fill="none" stroke="#000000" points="50.5,-186.7 50.5,-205.7 103.5,-205.7 103.5,-186.7 50.5,-186.7"/>
<text text-anchor="start" x="68.1105" y="-192.8" font-family="Helvetica,sans-Serif" font-size="11.00" fill="#000000">0 rows</text>
<polygon fill="#ffffff" stroke="transparent" points="103.5,-186.7 103.5,-205.7 139.5,-205.7 139.5,-186.7 103.5,-186.7"/>
<polygon fill="none" stroke="#000000" points="103.5,-186.7 103.5,-205.7 139.5,-205.7 139.5,-186.7 103.5,-186.7"/>
<text text-anchor="start" x="120.9053" y="-192.8" font-family="Helvetica,sans-Serif" font-size="11.00" fill="#000000">1 &gt;</text>
</a>
</g>
</g>
<!-- LeveePoints&#45;&gt;LeveeAlignment -->
<g id="edge1" class="edge">
<title>LeveePoints:w&#45;&gt;LeveeAlignment:e</title>
<path fill="none" stroke="#000000" stroke-dasharray="5,2" d="M176.0963,-178.3018C162.3919,-189.3946 162.9908,-216.7 139.5,-216.7"/>
<polygon fill="#000000" stroke="#000000" points="182.4052,-176.2137 191.1312,-177.1177 186.2026,-174.9569 190,-173.7 190,-173.7 190,-173.7 186.2026,-174.9569 188.8688,-170.2823 182.4052,-176.2137 182.4052,-176.2137"/>
<ellipse fill="none" stroke="#000000" cx="179.3672" cy="-177.2192" rx="3.2" ry="3.2"/>
</g>
<!-- XSCutLines -->
<g id="node3" class="node">
<title>XSCutLines</title>
<g id="a_node3"><a xlink:href="../../tables/XSCutLines.html" xlink:title="XSCutLines" target="_top">
<polygon fill="#ffffff" stroke="transparent" points="20.5,-38.2 20.5,-165.2 126.5,-165.2 126.5,-38.2 20.5,-38.2"/>
<polygon fill="#f5f5f5" stroke="transparent" points="20.5,-141.7 20.5,-164.7 126.5,-164.7 126.5,-141.7 20.5,-141.7"/>
<polygon fill="none" stroke="#000000" points="20.5,-141.7 20.5,-164.7 126.5,-164.7 126.5,-141.7 20.5,-141.7"/>
<text text-anchor="start" x="25.5" y="-150.3" font-family="Helvetica,sans-Serif" font-weight="bold" font-size="11.00" fill="#000000">XSCutLines</text>
<text text-anchor="start" x="92.0219" y="-149.8" font-family="Helvetica,sans-Serif" font-size="11.00" fill="#000000">[table]</text>
<polygon fill="#ffffff" stroke="transparent" points="20.5,-119.7 20.5,-141.7 126.5,-141.7 126.5,-119.7 20.5,-119.7"/>
<polygon fill="none" stroke="#000000" points="20.5,-119.7 20.5,-141.7 126.5,-141.7 126.5,-119.7 20.5,-119.7"/>
<text text-anchor="start" x="49.5" y="-126.8" font-family="Helvetica,sans-Serif" font-size="11.00" fill="#000000">geom</text>
<polygon fill="none" stroke="#000000" points="20.5,-97.7 20.5,-119.7 126.5,-119.7 126.5,-97.7 20.5,-97.7"/>
<image xlink:href="../../images/primaryKeys.png" width="11px" height="12px" preserveAspectRatio="xMinYMin meet" x="25.5" y="-114.7"/>
<text text-anchor="start" x="49.5" y="-104.8" font-family="Helvetica,sans-Serif" font-size="11.00" fill="#000000">XsecID</text>
<polygon fill="none" stroke="#000000" points="20.5,-75.7 20.5,-97.7 126.5,-97.7 126.5,-75.7 20.5,-75.7"/>
<image xlink:href="../../images/foreignKeys.png" width="11px" height="12px" preserveAspectRatio="xMinYMin meet" x="25.5" y="-92.7"/>
<text text-anchor="start" x="49.5" y="-82.8" font-family="Helvetica,sans-Serif" font-size="11.00" fill="#000000">ReachID</text>
<polygon fill="none" stroke="#000000" points="20.5,-56.7 20.5,-75.7 126.5,-75.7 126.5,-56.7 20.5,-56.7"/>
<text text-anchor="start" x="23.5" y="-62.8" font-family="Helvetica,sans-Serif" font-size="11.00" fill="#000000">...</text>
<polygon fill="#ffffff" stroke="transparent" points="20.5,-37.7 20.5,-56.7 54.5,-56.7 54.5,-37.7 20.5,-37.7"/>
<polygon fill="none" stroke="#000000" points="20.5,-37.7 20.5,-56.7 54.5,-56.7 54.5,-37.7 20.5,-37.7"/>
<text text-anchor="start" x="23.5" y="-43.8" font-family="Helvetica,sans-Serif" font-size="11.00" fill="#000000">&lt; 1</text>
<polygon fill="#ffffff" stroke="transparent" points="54.5,-37.7 54.5,-56.7 98.5,-56.7 98.5,-37.7 54.5,-37.7"/>
<polygon fill="none" stroke="#000000" points="54.5,-37.7 54.5,-56.7 98.5,-56.7 98.5,-37.7 54.5,-37.7"/>
<text text-anchor="start" x="63.1105" y="-43.8" font-family="Helvetica,sans-Serif" font-size="11.00" fill="#000000">0 rows</text>
<polygon fill="#ffffff" stroke="transparent" points="98.5,-37.7 98.5,-56.7 126.5,-56.7 126.5,-37.7 98.5,-37.7"/>
<polygon fill="none" stroke="#000000" points="98.5,-37.7 98.5,-56.7 126.5,-56.7 126.5,-37.7 98.5,-37.7"/>
<text text-anchor="start" x="107.9053" y="-43.8" font-family="Helvetica,sans-Serif" font-size="11.00" fill="#000000">1 &gt;</text>
</a>
</g>
</g>
<!-- LeveePoints&#45;&gt;XSCutLines -->
<g id="edge2" class="edge">
<title>LeveePoints:w&#45;&gt;XSCutLines:e</title>
<path fill="none" stroke="#000000" stroke-dasharray="5,2" d="M175.7375,-148.468C156.3908,-138.4679 154.8591,-108.7 126.5,-108.7"/>
<polygon fill="#000000" stroke="#000000" points="182.1978,-149.9319 189.2044,-155.211 186.0989,-150.816 190,-151.7 190,-151.7 190,-151.7 186.0989,-150.816 190.7956,-148.189 182.1978,-149.9319 182.1978,-149.9319"/>
<ellipse fill="none" stroke="#000000" cx="179.0769" cy="-149.2247" rx="3.2" ry="3.2"/>
</g>
</g>
</svg>
