<?xml version="1.0" encoding="UTF-8" standalone="no"?>
<!DOCTYPE svg PUBLIC "-//W3C//DTD SVG 1.1//EN"
 "http://www.w3.org/Graphics/SVG/1.1/DTD/svg11.dtd">
<!-- Generated by graphviz version 2.40.1 (20161225.0304)
 -->
<!-- Title: twoDegreesRelationshipsDiagramImplied Pages: 1 -->
<svg width="612pt" height="285pt"
 viewBox="0.00 0.00 612.00 284.70" xmlns="http://www.w3.org/2000/svg" xmlns:xlink="http://www.w3.org/1999/xlink">
<g id="graph0" class="graph" transform="scale(1 1) rotate(0) translate(4 280.7)">
<title>twoDegreesRelationshipsDiagramImplied</title>
<polygon fill="#ffffff" stroke="transparent" points="-4,4 -4,-280.7 608,-280.7 608,4 -4,4"/>
<text text-anchor="middle" x="72.4936" y="-7.3" font-family="Helvetica,sans-Serif" font-size="11.00" fill="#000000">Generated by SchemaSpy</text>
<!-- LeveePoints -->
<g id="node1" class="node">
<title>LeveePoints</title>
<g id="a_node1"><a xlink:href="../../tables/LeveePoints.html" xlink:title="LeveePoints" target="_top">
<polygon fill="#ffffff" stroke="transparent" points="382,-75.7 382,-253.7 596,-253.7 596,-75.7 382,-75.7"/>
<polygon fill="#f5f5f5" stroke="transparent" points="384,-228.7 384,-251.7 594,-251.7 594,-228.7 384,-228.7"/>
<polygon fill="none" stroke="#000000" points="384,-228.7 384,-251.7 594,-251.7 594,-228.7 384,-228.7"/>
<text text-anchor="start" x="389" y="-237.3" font-family="Helvetica,sans-Serif" font-weight="bold" font-size="11.00" fill="#000000">LeveePoints</text>
<text text-anchor="start" x="559.0437" y="-236.8" font-family="Helvetica,sans-Serif" font-size="11.00" fill="#000000">[table]</text>
<polygon fill="none" stroke="#000000" points="384,-206.7 384,-228.7 475,-228.7 475,-206.7 384,-206.7"/>
<text text-anchor="start" x="404" y="-213.8" font-family="Helvetica,sans-Serif" font-size="11.00" fill="#000000">geom</text>
<polygon fill="none" stroke="#000000" points="475,-206.7 475,-228.7 594,-228.7 594,-206.7 475,-206.7"/>
<text text-anchor="start" x="477.9485" y="-214.4" font-family="Helvetica,sans-Serif" font-size="11.00" fill="#000000">geometry[2147483647]</text>
<polygon fill="none" stroke="#000000" points="384,-184.7 384,-206.7 475,-206.7 475,-184.7 384,-184.7"/>
<image xlink:href="../../images/primaryKeys.png" width="11px" height="12px" preserveAspectRatio="xMinYMin meet" x="389" y="-201.7"/>
<text text-anchor="start" x="404" y="-191.8" font-family="Helvetica,sans-Serif" font-size="11.00" fill="#000000">LeveePID</text>
<polygon fill="none" stroke="#000000" points="475,-184.7 475,-206.7 594,-206.7 594,-184.7 475,-184.7"/>
<text text-anchor="start" x="478" y="-192.4" font-family="Helvetica,sans-Serif" font-size="11.00" fill="#000000">serial[10]</text>
<polygon fill="none" stroke="#000000" points="384,-162.7 384,-184.7 475,-184.7 475,-162.7 384,-162.7"/>
<image xlink:href="../../images/foreignKeys.png" width="11px" height="12px" preserveAspectRatio="xMinYMin meet" x="389" y="-179.7"/>
<text text-anchor="start" x="404" y="-169.8" font-family="Helvetica,sans-Serif" font-size="11.00" fill="#000000">LeveeID</text>
<polygon fill="none" stroke="#000000" points="475,-162.7 475,-184.7 594,-184.7 594,-162.7 475,-162.7"/>
<text text-anchor="start" x="478" y="-170.4" font-family="Helvetica,sans-Serif" font-size="11.00" fill="#000000">int4[10]</text>
<polygon fill="none" stroke="#000000" points="384,-140.7 384,-162.7 475,-162.7 475,-140.7 384,-140.7"/>
<image xlink:href="../../images/foreignKeys.png" width="11px" height="12px" preserveAspectRatio="xMinYMin meet" x="389" y="-157.7"/>
<text text-anchor="start" x="404" y="-147.8" font-family="Helvetica,sans-Serif" font-size="11.00" fill="#000000">XsecID</text>
<polygon fill="none" stroke="#000000" points="475,-140.7 475,-162.7 594,-162.7 594,-140.7 475,-140.7"/>
<text text-anchor="start" x="478" y="-148.4" font-family="Helvetica,sans-Serif" font-size="11.00" fill="#000000">int4[10]</text>
<polygon fill="none" stroke="#000000" points="384,-118.7 384,-140.7 475,-140.7 475,-118.7 384,-118.7"/>
<text text-anchor="start" x="404" y="-125.8" font-family="Helvetica,sans-Serif" font-size="11.00" fill="#000000">Fraction</text>
<polygon fill="none" stroke="#000000" points="475,-118.7 475,-140.7 594,-140.7 594,-118.7 475,-118.7"/>
<text text-anchor="start" x="478" y="-126.4" font-family="Helvetica,sans-Serif" font-size="11.00" fill="#000000">float8[17,17]</text>
<polygon fill="none" stroke="#000000" points="384,-96.7 384,-118.7 475,-118.7 475,-96.7 384,-96.7"/>
<text text-anchor="start" x="404" y="-103.8" font-family="Helvetica,sans-Serif" font-size="11.00" fill="#000000">Elevation</text>
<polygon fill="none" stroke="#000000" points="475,-96.7 475,-118.7 594,-118.7 594,-96.7 475,-96.7"/>
<text text-anchor="start" x="478" y="-104.4" font-family="Helvetica,sans-Serif" font-size="11.00" fill="#000000">float8[17,17]</text>
<polygon fill="#ffffff" stroke="transparent" points="384,-77.7 384,-96.7 421,-96.7 421,-77.7 384,-77.7"/>
<polygon fill="none" stroke="#000000" points="384,-77.7 384,-96.7 421,-96.7 421,-77.7 384,-77.7"/>
<text text-anchor="start" x="387" y="-83.8" font-family="Helvetica,sans-Serif" font-size="11.00" fill="#000000">&lt; 2</text>
<polygon fill="#ffffff" stroke="transparent" points="421,-77.7 421,-96.7 475,-96.7 475,-77.7 421,-77.7"/>
<polygon fill="none" stroke="#000000" points="421,-77.7 421,-96.7 475,-96.7 475,-77.7 421,-77.7"/>
<text text-anchor="start" x="439.6105" y="-83.8" font-family="Helvetica,sans-Serif" font-size="11.00" fill="#000000">0 rows</text>
<polygon fill="#ffffff" stroke="transparent" points="475,-77.7 475,-96.7 594,-96.7 594,-77.7 475,-77.7"/>
<polygon fill="none" stroke="#000000" points="475,-77.7 475,-96.7 594,-96.7 594,-77.7 475,-77.7"/>
<text text-anchor="start" x="575.4053" y="-83.8" font-family="Helvetica,sans-Serif" font-size="11.00" fill="#000000">0 &gt;</text>
<polygon fill="none" stroke="#000000" stroke-width="2" points="383,-76.7 383,-252.7 595,-252.7 595,-76.7 383,-76.7"/>
</a>
</g>
</g>
<!-- LeveeAlignment -->
<g id="node2" class="node">
<title>LeveeAlignment</title>
<g id="a_node2"><a xlink:href="../../tables/LeveeAlignment.html" xlink:title="LeveeAlignment" target="_top">
<polygon fill="#ffffff" stroke="transparent" points="202,-186.7 202,-272.7 333,-272.7 333,-186.7 202,-186.7"/>
<polygon fill="#f5f5f5" stroke="transparent" points="202.5,-249.7 202.5,-272.7 333.5,-272.7 333.5,-249.7 202.5,-249.7"/>
<polygon fill="none" stroke="#000000" points="202.5,-249.7 202.5,-272.7 333.5,-272.7 333.5,-249.7 202.5,-249.7"/>
<text text-anchor="start" x="207.5" y="-258.3" font-family="Helvetica,sans-Serif" font-weight="bold" font-size="11.00" fill="#000000">LeveeAlignment</text>
<text text-anchor="start" x="299.0219" y="-257.8" font-family="Helvetica,sans-Serif" font-size="11.00" fill="#000000">[table]</text>
<polygon fill="#ffffff" stroke="transparent" points="202.5,-227.7 202.5,-249.7 333.5,-249.7 333.5,-227.7 202.5,-227.7"/>
<polygon fill="none" stroke="#000000" points="202.5,-227.7 202.5,-249.7 333.5,-249.7 333.5,-227.7 202.5,-227.7"/>
<text text-anchor="start" x="231.5" y="-234.8" font-family="Helvetica,sans-Serif" font-size="11.00" fill="#000000">geom</text>
<polygon fill="none" stroke="#000000" points="202.5,-205.7 202.5,-227.7 333.5,-227.7 333.5,-205.7 202.5,-205.7"/>
<image xlink:href="../../images/primaryKeys.png" width="11px" height="12px" preserveAspectRatio="xMinYMin meet" x="207.5" y="-222.7"/>
<text text-anchor="start" x="231.5" y="-212.8" font-family="Helvetica,sans-Serif" font-size="11.00" fill="#000000">LeveeID</text>
<polygon fill="#ffffff" stroke="transparent" points="202.5,-186.7 202.5,-205.7 244.5,-205.7 244.5,-186.7 202.5,-186.7"/>
<polygon fill="none" stroke="#000000" points="202.5,-186.7 202.5,-205.7 244.5,-205.7 244.5,-186.7 202.5,-186.7"/>
<text text-anchor="start" x="205.5" y="-192.8" font-family="Helvetica,sans-Serif" font-size="11.00" fill="#000000"> &#160;</text>
<polygon fill="#ffffff" stroke="transparent" points="244.5,-186.7 244.5,-205.7 297.5,-205.7 297.5,-186.7 244.5,-186.7"/>
<polygon fill="none" stroke="#000000" points="244.5,-186.7 244.5,-205.7 297.5,-205.7 297.5,-186.7 244.5,-186.7"/>
<text text-anchor="start" x="262.1105" y="-192.8" font-family="Helvetica,sans-Serif" font-size="11.00" fill="#000000">0 rows</text>
<polygon fill="#ffffff" stroke="transparent" points="297.5,-186.7 297.5,-205.7 333.5,-205.7 333.5,-186.7 297.5,-186.7"/>
<polygon fill="none" stroke="#000000" points="297.5,-186.7 297.5,-205.7 333.5,-205.7 333.5,-186.7 297.5,-186.7"/>
<text text-anchor="start" x="314.9053" y="-192.8" font-family="Helvetica,sans-Serif" font-size="11.00" fill="#000000">1 &gt;</text>
</a>
</g>
</g>
<!-- LeveePoints&#45;&gt;LeveeAlignment -->
<g id="edge1" class="edge">
<title>LeveePoints:w&#45;&gt;LeveeAlignment:e</title>
<path fill="none" stroke="#000000" stroke-dasharray="5,2" d="M370.0963,-178.3018C356.3919,-189.3946 356.9908,-216.7 333.5,-216.7"/>
<polygon fill="#000000" stroke="#000000" points="376.4052,-176.2137 385.1312,-177.1177 380.2026,-174.9569 384,-173.7 384,-173.7 384,-173.7 380.2026,-174.9569 382.8688,-170.2823 376.4052,-176.2137 376.4052,-176.2137"/>
<ellipse fill="none" stroke="#000000" cx="373.3672" cy="-177.2192" rx="3.2" ry="3.2"/>
</g>
<!-- XSCutLines -->
<g id="node3" class="node">
<title>XSCutLines</title>
<g id="a_node3"><a xlink:href="../../tables/XSCutLines.html" xlink:title="XSCutLines" target="_top">
<polygon fill="#ffffff" stroke="transparent" points="214.5,-38.2 214.5,-165.2 320.5,-165.2 320.5,-38.2 214.5,-38.2"/>
<polygon fill="#f5f5f5" stroke="transparent" points="214.5,-141.7 214.5,-164.7 320.5,-164.7 320.5,-141.7 214.5,-141.7"/>
<polygon fill="none" stroke="#000000" points="214.5,-141.7 214.5,-164.7 320.5,-164.7 320.5,-141.7 214.5,-141.7"/>
<text text-anchor="start" x="219.5" y="-150.3" font-family="Helvetica,sans-Serif" font-weight="bold" font-size="11.00" fill="#000000">XSCutLines</text>
<text text-anchor="start" x="286.0219" y="-149.8" font-family="Helvetica,sans-Serif" font-size="11.00" fill="#000000">[table]</text>
<polygon fill="#ffffff" stroke="transparent" points="214.5,-119.7 214.5,-141.7 320.5,-141.7 320.5,-119.7 214.5,-119.7"/>
<polygon fill="none" stroke="#000000" points="214.5,-119.7 214.5,-141.7 320.5,-141.7 320.5,-119.7 214.5,-119.7"/>
<text text-anchor="start" x="243.5" y="-126.8" font-family="Helvetica,sans-Serif" font-size="11.00" fill="#000000">geom</text>
<polygon fill="none" stroke="#000000" points="214.5,-97.7 214.5,-119.7 320.5,-119.7 320.5,-97.7 214.5,-97.7"/>
<image xlink:href="../../images/primaryKeys.png" width="11px" height="12px" preserveAspectRatio="xMinYMin meet" x="219.5" y="-114.7"/>
<text text-anchor="start" x="243.5" y="-104.8" font-family="Helvetica,sans-Serif" font-size="11.00" fill="#000000">XsecID</text>
<polygon fill="none" stroke="#000000" points="214.5,-75.7 214.5,-97.7 320.5,-97.7 320.5,-75.7 214.5,-75.7"/>
<image xlink:href="../../images/foreignKeys.png" width="11px" height="12px" preserveAspectRatio="xMinYMin meet" x="219.5" y="-92.7"/>
<text text-anchor="start" x="243.5" y="-82.8" font-family="Helvetica,sans-Serif" font-size="11.00" fill="#000000">ReachID</text>
<polygon fill="none" stroke="#000000" points="214.5,-56.7 214.5,-75.7 320.5,-75.7 320.5,-56.7 214.5,-56.7"/>
<text text-anchor="start" x="217.5" y="-62.8" font-family="Helvetica,sans-Serif" font-size="11.00" fill="#000000">...</text>
<polygon fill="#ffffff" stroke="transparent" points="214.5,-37.7 214.5,-56.7 248.5,-56.7 248.5,-37.7 214.5,-37.7"/>
<polygon fill="none" stroke="#000000" points="214.5,-37.7 214.5,-56.7 248.5,-56.7 248.5,-37.7 214.5,-37.7"/>
<text text-anchor="start" x="217.5" y="-43.8" font-family="Helvetica,sans-Serif" font-size="11.00" fill="#000000">&lt; 1</text>
<polygon fill="#ffffff" stroke="transparent" points="248.5,-37.7 248.5,-56.7 292.5,-56.7 292.5,-37.7 248.5,-37.7"/>
<polygon fill="none" stroke="#000000" points="248.5,-37.7 248.5,-56.7 292.5,-56.7 292.5,-37.7 248.5,-37.7"/>
<text text-anchor="start" x="257.1105" y="-43.8" font-family="Helvetica,sans-Serif" font-size="11.00" fill="#000000">0 rows</text>
<polygon fill="#ffffff" stroke="transparent" points="292.5,-37.7 292.5,-56.7 320.5,-56.7 320.5,-37.7 292.5,-37.7"/>
<polygon fill="none" stroke="#000000" points="292.5,-37.7 292.5,-56.7 320.5,-56.7 320.5,-37.7 292.5,-37.7"/>
<text text-anchor="start" x="301.9053" y="-43.8" font-family="Helvetica,sans-Serif" font-size="11.00" fill="#000000">1 &gt;</text>
</a>
</g>
</g>
<!-- LeveePoints&#45;&gt;XSCutLines -->
<g id="edge2" class="edge">
<title>LeveePoints:w&#45;&gt;XSCutLines:e</title>
<path fill="none" stroke="#000000" stroke-dasharray="5,2" d="M369.7375,-148.468C350.3908,-138.4679 348.8591,-108.7 320.5,-108.7"/>
<polygon fill="#000000" stroke="#000000" points="376.1978,-149.9319 383.2044,-155.211 380.0989,-150.816 384,-151.7 384,-151.7 384,-151.7 380.0989,-150.816 384.7956,-148.189 376.1978,-149.9319 376.1978,-149.9319"/>
<ellipse fill="none" stroke="#000000" cx="373.0769" cy="-149.2247" rx="3.2" ry="3.2"/>
</g>
<!-- StreamCenterlines -->
<g id="node4" class="node">
<title>StreamCenterlines</title>
<g id="a_node4"><a xlink:href="../../tables/StreamCenterlines.html" xlink:title="StreamCenterlines" target="_top">
<polygon fill="#ffffff" stroke="transparent" points="8,-59.2 8,-120.2 153,-120.2 153,-59.2 8,-59.2"/>
<polygon fill="#f5f5f5" stroke="transparent" points="8.5,-96.7 8.5,-119.7 153.5,-119.7 153.5,-96.7 8.5,-96.7"/>
<polygon fill="none" stroke="#000000" points="8.5,-96.7 8.5,-119.7 153.5,-119.7 153.5,-96.7 8.5,-96.7"/>
<text text-anchor="start" x="13.5" y="-105.3" font-family="Helvetica,sans-Serif" font-weight="bold" font-size="11.00" fill="#000000">StreamCenterlines</text>
<text text-anchor="start" x="119.0219" y="-104.8" font-family="Helvetica,sans-Serif" font-size="11.00" fill="#000000">[table]</text>
<polygon fill="none" stroke="#000000" points="8.5,-77.7 8.5,-96.7 153.5,-96.7 153.5,-77.7 8.5,-77.7"/>
<text text-anchor="start" x="11.5" y="-83.8" font-family="Helvetica,sans-Serif" font-size="11.00" fill="#000000">...</text>
<polygon fill="#ffffff" stroke="transparent" points="8.5,-58.7 8.5,-77.7 57.5,-77.7 57.5,-58.7 8.5,-58.7"/>
<polygon fill="none" stroke="#000000" points="8.5,-58.7 8.5,-77.7 57.5,-77.7 57.5,-58.7 8.5,-58.7"/>
<text text-anchor="start" x="11.5" y="-64.8" font-family="Helvetica,sans-Serif" font-size="11.00" fill="#000000"> &#160;</text>
<polygon fill="#ffffff" stroke="transparent" points="57.5,-58.7 57.5,-77.7 113.5,-77.7 113.5,-58.7 57.5,-58.7"/>
<polygon fill="none" stroke="#000000" points="57.5,-58.7 57.5,-77.7 113.5,-77.7 113.5,-58.7 57.5,-58.7"/>
<text text-anchor="start" x="78.1105" y="-64.8" font-family="Helvetica,sans-Serif" font-size="11.00" fill="#000000">0 rows</text>
<polygon fill="#ffffff" stroke="transparent" points="113.5,-58.7 113.5,-77.7 153.5,-77.7 153.5,-58.7 113.5,-58.7"/>
<polygon fill="none" stroke="#000000" points="113.5,-58.7 113.5,-77.7 153.5,-77.7 153.5,-58.7 113.5,-58.7"/>
<text text-anchor="start" x="134.9053" y="-64.8" font-family="Helvetica,sans-Serif" font-size="11.00" fill="#000000">1 &gt;</text>
</a>
</g>
</g>
<!-- XSCutLines&#45;&gt;StreamCenterlines -->
<g id="edge3" class="edge">
<title>XSCutLines:w&#45;&gt;StreamCenterlines:e</title>
<path fill="none" stroke="#000000" stroke-dasharray="5,2" d="M199.6762,-86.7C183.6248,-86.7 174.8924,-86.7 153.5,-86.7"/>
<polygon fill="#000000" stroke="#000000" points="206.5,-86.7001 214.5,-90.3 210.5,-86.7 214.5,-86.7 214.5,-86.7 214.5,-86.7 210.5,-86.7 214.5,-83.1 206.5,-86.7001 206.5,-86.7001"/>
<ellipse fill="none" stroke="#000000" cx="203.3" cy="-86.7001" rx="3.2" ry="3.2"/>
</g>
</g>
</svg>
