<?xml version="1.0" encoding="UTF-8" standalone="no"?>
<!DOCTYPE svg PUBLIC "-//W3C//DTD SVG 1.1//EN"
 "http://www.w3.org/Graphics/SVG/1.1/DTD/svg11.dtd">
<!-- Generated by graphviz version 2.40.1 (20161225.0304)
 -->
<!-- Title: twoDegreesRelationshipsDiagramImplied Pages: 1 -->
<svg width="583pt" height="229pt"
 viewBox="0.00 0.00 583.00 228.70" xmlns="http://www.w3.org/2000/svg" xmlns:xlink="http://www.w3.org/1999/xlink">
<g id="graph0" class="graph" transform="scale(1 1) rotate(0) translate(4 224.7)">
<title>twoDegreesRelationshipsDiagramImplied</title>
<polygon fill="#ffffff" stroke="transparent" points="-4,4 -4,-224.7 579,-224.7 579,4 -4,4"/>
<text text-anchor="middle" x="72.4936" y="-7.3" font-family="Helvetica,sans-Serif" font-size="11.00" fill="#000000">Generated by SchemaSpy</text>
<!-- BreakLines2d -->
<g id="node1" class="node">
<title>BreakLines2d</title>
<g id="a_node1"><a xlink:href="../../tables/BreakLines2d.html" xlink:title="BreakLines2d" target="_top">
<polygon fill="#ffffff" stroke="transparent" points="173,-45.7 173,-106.7 290,-106.7 290,-45.7 173,-45.7"/>
<polygon fill="#f5f5f5" stroke="transparent" points="173.5,-83.2 173.5,-106.2 290.5,-106.2 290.5,-83.2 173.5,-83.2"/>
<polygon fill="none" stroke="#000000" points="173.5,-83.2 173.5,-106.2 290.5,-106.2 290.5,-83.2 173.5,-83.2"/>
<text text-anchor="start" x="178.5" y="-91.8" font-family="Helvetica,sans-Serif" font-weight="bold" font-size="11.00" fill="#000000">BreakLines2d</text>
<text text-anchor="start" x="256.0219" y="-91.3" font-family="Helvetica,sans-Serif" font-size="11.00" fill="#000000">[table]</text>
<polygon fill="none" stroke="#000000" points="173.5,-64.2 173.5,-83.2 290.5,-83.2 290.5,-64.2 173.5,-64.2"/>
<text text-anchor="start" x="176.5" y="-70.3" font-family="Helvetica,sans-Serif" font-size="11.00" fill="#000000">...</text>
<polygon fill="#ffffff" stroke="transparent" points="173.5,-45.2 173.5,-64.2 212.5,-64.2 212.5,-45.2 173.5,-45.2"/>
<polygon fill="none" stroke="#000000" points="173.5,-45.2 173.5,-64.2 212.5,-64.2 212.5,-45.2 173.5,-45.2"/>
<text text-anchor="start" x="176.5" y="-51.3" font-family="Helvetica,sans-Serif" font-size="11.00" fill="#000000">&lt; 1</text>
<polygon fill="#ffffff" stroke="transparent" points="212.5,-45.2 212.5,-64.2 259.5,-64.2 259.5,-45.2 212.5,-45.2"/>
<polygon fill="none" stroke="#000000" points="212.5,-45.2 212.5,-64.2 259.5,-64.2 259.5,-45.2 212.5,-45.2"/>
<text text-anchor="start" x="224.1105" y="-51.3" font-family="Helvetica,sans-Serif" font-size="11.00" fill="#000000">0 rows</text>
<polygon fill="#ffffff" stroke="transparent" points="259.5,-45.2 259.5,-64.2 290.5,-64.2 290.5,-45.2 259.5,-45.2"/>
<polygon fill="none" stroke="#000000" points="259.5,-45.2 259.5,-64.2 290.5,-64.2 290.5,-45.2 259.5,-45.2"/>
<text text-anchor="start" x="271.9053" y="-51.3" font-family="Helvetica,sans-Serif" font-size="11.00" fill="#000000">1 &gt;</text>
</a>
</g>
</g>
<!-- FlowAreas2d -->
<g id="node2" class="node">
<title>FlowAreas2d</title>
<g id="a_node2"><a xlink:href="../../tables/FlowAreas2d.html" xlink:title="FlowAreas2d" target="_top">
<polygon fill="#ffffff" stroke="transparent" points="8,-100.7 8,-161.7 121,-161.7 121,-100.7 8,-100.7"/>
<polygon fill="#f5f5f5" stroke="transparent" points="8.5,-138.2 8.5,-161.2 121.5,-161.2 121.5,-138.2 8.5,-138.2"/>
<polygon fill="none" stroke="#000000" points="8.5,-138.2 8.5,-161.2 121.5,-161.2 121.5,-138.2 8.5,-138.2"/>
<text text-anchor="start" x="13.5" y="-146.8" font-family="Helvetica,sans-Serif" font-weight="bold" font-size="11.00" fill="#000000">FlowAreas2d</text>
<text text-anchor="start" x="87.0219" y="-146.3" font-family="Helvetica,sans-Serif" font-size="11.00" fill="#000000">[table]</text>
<polygon fill="none" stroke="#000000" points="8.5,-119.2 8.5,-138.2 121.5,-138.2 121.5,-119.2 8.5,-119.2"/>
<text text-anchor="start" x="11.5" y="-125.3" font-family="Helvetica,sans-Serif" font-size="11.00" fill="#000000">...</text>
<polygon fill="#ffffff" stroke="transparent" points="8.5,-100.2 8.5,-119.2 41.5,-119.2 41.5,-100.2 8.5,-100.2"/>
<polygon fill="none" stroke="#000000" points="8.5,-100.2 8.5,-119.2 41.5,-119.2 41.5,-100.2 8.5,-100.2"/>
<text text-anchor="start" x="11.5" y="-106.3" font-family="Helvetica,sans-Serif" font-size="11.00" fill="#000000"> &#160;</text>
<polygon fill="#ffffff" stroke="transparent" points="41.5,-100.2 41.5,-119.2 89.5,-119.2 89.5,-100.2 41.5,-100.2"/>
<polygon fill="none" stroke="#000000" points="41.5,-100.2 41.5,-119.2 89.5,-119.2 89.5,-100.2 41.5,-100.2"/>
<text text-anchor="start" x="54.1105" y="-106.3" font-family="Helvetica,sans-Serif" font-size="11.00" fill="#000000">0 rows</text>
<polygon fill="#ffffff" stroke="transparent" points="89.5,-100.2 89.5,-119.2 121.5,-119.2 121.5,-100.2 89.5,-100.2"/>
<polygon fill="none" stroke="#000000" points="89.5,-100.2 89.5,-119.2 121.5,-119.2 121.5,-100.2 89.5,-100.2"/>
<text text-anchor="start" x="102.9053" y="-106.3" font-family="Helvetica,sans-Serif" font-size="11.00" fill="#000000">3 &gt;</text>
</a>
</g>
</g>
<!-- BreakLines2d&#45;&gt;FlowAreas2d -->
<g id="edge1" class="edge">
<title>BreakLines2d:w&#45;&gt;FlowAreas2d:e</title>
<path fill="none" stroke="#000000" stroke-dasharray="5,2" d="M150.6702,-102.8206C143.4121,-105.211 136.1271,-107.6102 129.0348,-109.946"/>
<polygon fill="#000000" stroke="#000000" points="156.9384,-100.7562 165.6631,-101.673 160.7377,-99.505 164.537,-98.2537 164.537,-98.2537 164.537,-98.2537 160.7377,-99.505 163.4108,-94.8344 156.9384,-100.7562 156.9384,-100.7562"/>
<ellipse fill="none" stroke="#000000" cx="153.899" cy="-101.7573" rx="3.2" ry="3.2"/>
</g>
<!-- BreakPoints2d -->
<g id="node3" class="node">
<title>BreakPoints2d</title>
<g id="a_node3"><a xlink:href="../../tables/BreakPoints2d.html" xlink:title="BreakPoints2d" target="_top">
<polygon fill="#ffffff" stroke="transparent" points="170,-155.7 170,-216.7 293,-216.7 293,-155.7 170,-155.7"/>
<polygon fill="#f5f5f5" stroke="transparent" points="170.5,-193.2 170.5,-216.2 293.5,-216.2 293.5,-193.2 170.5,-193.2"/>
<polygon fill="none" stroke="#000000" points="170.5,-193.2 170.5,-216.2 293.5,-216.2 293.5,-193.2 170.5,-193.2"/>
<text text-anchor="start" x="175.5" y="-201.8" font-family="Helvetica,sans-Serif" font-weight="bold" font-size="11.00" fill="#000000">BreakPoints2d</text>
<text text-anchor="start" x="259.0219" y="-201.3" font-family="Helvetica,sans-Serif" font-size="11.00" fill="#000000">[table]</text>
<polygon fill="none" stroke="#000000" points="170.5,-174.2 170.5,-193.2 293.5,-193.2 293.5,-174.2 170.5,-174.2"/>
<text text-anchor="start" x="173.5" y="-180.3" font-family="Helvetica,sans-Serif" font-size="11.00" fill="#000000">...</text>
<polygon fill="#ffffff" stroke="transparent" points="170.5,-155.2 170.5,-174.2 217.5,-174.2 217.5,-155.2 170.5,-155.2"/>
<polygon fill="none" stroke="#000000" points="170.5,-155.2 170.5,-174.2 217.5,-174.2 217.5,-155.2 170.5,-155.2"/>
<text text-anchor="start" x="173.5" y="-161.3" font-family="Helvetica,sans-Serif" font-size="11.00" fill="#000000">&lt; 1</text>
<polygon fill="#ffffff" stroke="transparent" points="217.5,-155.2 217.5,-174.2 268.5,-174.2 268.5,-155.2 217.5,-155.2"/>
<polygon fill="none" stroke="#000000" points="217.5,-155.2 217.5,-174.2 268.5,-174.2 268.5,-155.2 217.5,-155.2"/>
<text text-anchor="start" x="233.1105" y="-161.3" font-family="Helvetica,sans-Serif" font-size="11.00" fill="#000000">0 rows</text>
<polygon fill="#ffffff" stroke="transparent" points="268.5,-155.2 268.5,-174.2 293.5,-174.2 293.5,-155.2 268.5,-155.2"/>
<polygon fill="none" stroke="#000000" points="268.5,-155.2 268.5,-174.2 293.5,-174.2 293.5,-155.2 268.5,-155.2"/>
<text text-anchor="start" x="284.3862" y="-161.3" font-family="Helvetica,sans-Serif" font-size="11.00" fill="#000000"> &#160;</text>
</a>
</g>
</g>
<!-- BreakPoints2d&#45;&gt;FlowAreas2d -->
<g id="edge2" class="edge">
<title>BreakPoints2d:w&#45;&gt;FlowAreas2d:e</title>
<path fill="none" stroke="#000000" stroke-dasharray="5,2" d="M155.6991,-181.9045C140.3273,-179.2924 125.3101,-173.0185 112.042,-165.7401"/>
<polygon fill="#000000" stroke="#000000" points="162.5305,-182.5024 170.1861,-186.7863 166.5152,-182.8512 170.5,-183.2 170.5,-183.2 170.5,-183.2 166.5152,-182.8512 170.8139,-179.6137 162.5305,-182.5024 162.5305,-182.5024"/>
<ellipse fill="none" stroke="#000000" cx="159.3427" cy="-182.2233" rx="3.2" ry="3.2"/>
</g>
<!-- MeshPoints2d -->
<g id="node4" class="node">
<title>MeshPoints2d</title>
<g id="a_node4"><a xlink:href="../../tables/MeshPoints2d.html" xlink:title="MeshPoints2d" target="_top">
<polygon fill="#ffffff" stroke="transparent" points="342,-38.2 342,-194.2 567,-194.2 567,-38.2 342,-38.2"/>
<polygon fill="#f5f5f5" stroke="transparent" points="344.5,-169.2 344.5,-192.2 565.5,-192.2 565.5,-169.2 344.5,-169.2"/>
<polygon fill="none" stroke="#000000" points="344.5,-169.2 344.5,-192.2 565.5,-192.2 565.5,-169.2 344.5,-169.2"/>
<text text-anchor="start" x="349.5" y="-177.8" font-family="Helvetica,sans-Serif" font-weight="bold" font-size="11.00" fill="#000000">MeshPoints2d</text>
<text text-anchor="start" x="530.5437" y="-177.3" font-family="Helvetica,sans-Serif" font-size="11.00" fill="#000000">[table]</text>
<polygon fill="#ffffff" stroke="transparent" points="344.5,-147.2 344.5,-169.2 446.5,-169.2 446.5,-147.2 344.5,-147.2"/>
<polygon fill="none" stroke="#000000" points="344.5,-147.2 344.5,-169.2 446.5,-169.2 446.5,-147.2 344.5,-147.2"/>
<text text-anchor="start" x="364.5" y="-154.3" font-family="Helvetica,sans-Serif" font-size="11.00" fill="#000000">geom</text>
<polygon fill="none" stroke="#000000" points="446.5,-147.2 446.5,-169.2 565.5,-169.2 565.5,-147.2 446.5,-147.2"/>
<text text-anchor="start" x="449.4485" y="-154.9" font-family="Helvetica,sans-Serif" font-size="11.00" fill="#000000">geometry[2147483647]</text>
<polygon fill="none" stroke="#000000" points="344.5,-125.2 344.5,-147.2 446.5,-147.2 446.5,-125.2 344.5,-125.2"/>
<image xlink:href="../../images/primaryKeys.png" width="11px" height="12px" preserveAspectRatio="xMinYMin meet" x="349.5" y="-142.2"/>
<text text-anchor="start" x="364.5" y="-132.3" font-family="Helvetica,sans-Serif" font-size="11.00" fill="#000000">MPID</text>
<polygon fill="none" stroke="#000000" points="446.5,-125.2 446.5,-147.2 565.5,-147.2 565.5,-125.2 446.5,-125.2"/>
<text text-anchor="start" x="449.5" y="-132.9" font-family="Helvetica,sans-Serif" font-size="11.00" fill="#000000">serial[10]</text>
<polygon fill="none" stroke="#000000" points="344.5,-103.2 344.5,-125.2 446.5,-125.2 446.5,-103.2 344.5,-103.2"/>
<image xlink:href="../../images/foreignKeys.png" width="11px" height="12px" preserveAspectRatio="xMinYMin meet" x="349.5" y="-120.2"/>
<text text-anchor="start" x="364.5" y="-110.3" font-family="Helvetica,sans-Serif" font-size="11.00" fill="#000000">AreaID</text>
<polygon fill="none" stroke="#000000" points="446.5,-103.2 446.5,-125.2 565.5,-125.2 565.5,-103.2 446.5,-103.2"/>
<text text-anchor="start" x="449.5" y="-110.9" font-family="Helvetica,sans-Serif" font-size="11.00" fill="#000000">int4[10]</text>
<polygon fill="none" stroke="#000000" points="344.5,-81.2 344.5,-103.2 446.5,-103.2 446.5,-81.2 344.5,-81.2"/>
<image xlink:href="../../images/foreignKeys.png" width="11px" height="12px" preserveAspectRatio="xMinYMin meet" x="349.5" y="-98.2"/>
<text text-anchor="start" x="364.5" y="-88.3" font-family="Helvetica,sans-Serif" font-size="11.00" fill="#000000">BLID</text>
<polygon fill="none" stroke="#000000" points="446.5,-81.2 446.5,-103.2 565.5,-103.2 565.5,-81.2 446.5,-81.2"/>
<text text-anchor="start" x="449.5" y="-88.9" font-family="Helvetica,sans-Serif" font-size="11.00" fill="#000000">int4[10]</text>
<polygon fill="none" stroke="#000000" points="344.5,-59.2 344.5,-81.2 446.5,-81.2 446.5,-59.2 344.5,-59.2"/>
<text text-anchor="start" x="364.5" y="-66.3" font-family="Helvetica,sans-Serif" font-size="11.00" fill="#000000">CellSize</text>
<polygon fill="none" stroke="#000000" points="446.5,-59.2 446.5,-81.2 565.5,-81.2 565.5,-59.2 446.5,-59.2"/>
<text text-anchor="start" x="449.5" y="-66.9" font-family="Helvetica,sans-Serif" font-size="11.00" fill="#000000">float8[17,17]</text>
<polygon fill="#ffffff" stroke="transparent" points="344.5,-40.2 344.5,-59.2 386.5,-59.2 386.5,-40.2 344.5,-40.2"/>
<polygon fill="none" stroke="#000000" points="344.5,-40.2 344.5,-59.2 386.5,-59.2 386.5,-40.2 344.5,-40.2"/>
<text text-anchor="start" x="347.5" y="-46.3" font-family="Helvetica,sans-Serif" font-size="11.00" fill="#000000">&lt; 2</text>
<polygon fill="#ffffff" stroke="transparent" points="386.5,-40.2 386.5,-59.2 446.5,-59.2 446.5,-40.2 386.5,-40.2"/>
<polygon fill="none" stroke="#000000" points="386.5,-40.2 386.5,-59.2 446.5,-59.2 446.5,-40.2 386.5,-40.2"/>
<text text-anchor="start" x="411.1105" y="-46.3" font-family="Helvetica,sans-Serif" font-size="11.00" fill="#000000">0 rows</text>
<polygon fill="#ffffff" stroke="transparent" points="446.5,-40.2 446.5,-59.2 565.5,-59.2 565.5,-40.2 446.5,-40.2"/>
<polygon fill="none" stroke="#000000" points="446.5,-40.2 446.5,-59.2 565.5,-59.2 565.5,-40.2 446.5,-40.2"/>
<text text-anchor="start" x="546.9053" y="-46.3" font-family="Helvetica,sans-Serif" font-size="11.00" fill="#000000">0 &gt;</text>
<polygon fill="none" stroke="#000000" stroke-width="2" points="343,-39.2 343,-193.2 566,-193.2 566,-39.2 343,-39.2"/>
</a>
</g>
</g>
<!-- MeshPoints2d&#45;&gt;BreakLines2d -->
<g id="edge4" class="edge">
<title>MeshPoints2d:w&#45;&gt;BreakLines2d:e</title>
<path fill="none" stroke="#000000" stroke-dasharray="5,2" d="M329.7798,-91.7935C319.2361,-91.2378 308.5079,-90.1547 298.2016,-88.8068"/>
<polygon fill="#000000" stroke="#000000" points="336.503,-91.9791 344.4006,-95.7986 340.5015,-92.0895 344.5,-92.2 344.5,-92.2 344.5,-92.2 340.5015,-92.0895 344.5994,-88.6014 336.503,-91.9791 336.503,-91.9791"/>
<ellipse fill="none" stroke="#000000" cx="333.3043" cy="-91.8907" rx="3.2" ry="3.2"/>
</g>
<!-- MeshPoints2d&#45;&gt;FlowAreas2d -->
<g id="edge3" class="edge">
<title>MeshPoints2d:w&#45;&gt;FlowAreas2d:e</title>
<path fill="none" stroke="#000000" stroke-dasharray="5,2" d="M330.0271,-114.6258C320.8557,-115.2245 314.4471,-116.3383 301,-117.2 242.8163,-120.9284 176.5566,-124.8202 129.0033,-127.5514"/>
<polygon fill="#000000" stroke="#000000" points="336.5035,-114.4353 344.6059,-117.7984 340.5017,-114.3177 344.5,-114.2 344.5,-114.2 344.5,-114.2 340.5017,-114.3177 344.3941,-110.6016 336.5035,-114.4353 336.5035,-114.4353"/>
<ellipse fill="none" stroke="#000000" cx="333.3048" cy="-114.5295" rx="3.2" ry="3.2"/>
</g>
</g>
</svg>
