<?xml version="1.0" encoding="UTF-8" standalone="no"?>
<!DOCTYPE svg PUBLIC "-//W3C//DTD SVG 1.1//EN"
 "http://www.w3.org/Graphics/SVG/1.1/DTD/svg11.dtd">
<!-- Generated by graphviz version 2.40.1 (20161225.0304)
 -->
<!-- Title: oneDegreeRelationshipsDiagramImplied Pages: 1 -->
<svg width="577pt" height="252pt"
 viewBox="0.00 0.00 577.00 251.70" xmlns="http://www.w3.org/2000/svg" xmlns:xlink="http://www.w3.org/1999/xlink">
<g id="graph0" class="graph" transform="scale(1 1) rotate(0) translate(4 247.7)">
<title>oneDegreeRelationshipsDiagramImplied</title>
<polygon fill="#ffffff" stroke="transparent" points="-4,4 -4,-247.7 573,-247.7 573,4 -4,4"/>
<text text-anchor="middle" x="72.4936" y="-7.3" font-family="Helvetica,sans-Serif" font-size="11.00" fill="#000000">Generated by SchemaSpy</text>
<!-- BreakLines2d -->
<g id="node1" class="node">
<title>BreakLines2d</title>
<g id="a_node1"><a xlink:href="../../tables/BreakLines2d.html" xlink:title="BreakLines2d" target="_top">
<polygon fill="#ffffff" stroke="transparent" points="170,-38.2 170,-165.2 287,-165.2 287,-38.2 170,-38.2"/>
<polygon fill="#f5f5f5" stroke="transparent" points="170.5,-141.7 170.5,-164.7 287.5,-164.7 287.5,-141.7 170.5,-141.7"/>
<polygon fill="none" stroke="#000000" points="170.5,-141.7 170.5,-164.7 287.5,-164.7 287.5,-141.7 170.5,-141.7"/>
<text text-anchor="start" x="175.5" y="-150.3" font-family="Helvetica,sans-Serif" font-weight="bold" font-size="11.00" fill="#000000">BreakLines2d</text>
<text text-anchor="start" x="253.0219" y="-149.8" font-family="Helvetica,sans-Serif" font-size="11.00" fill="#000000">[table]</text>
<polygon fill="#ffffff" stroke="transparent" points="170.5,-119.7 170.5,-141.7 287.5,-141.7 287.5,-119.7 170.5,-119.7"/>
<polygon fill="none" stroke="#000000" points="170.5,-119.7 170.5,-141.7 287.5,-141.7 287.5,-119.7 170.5,-119.7"/>
<text text-anchor="start" x="195.5" y="-126.8" font-family="Helvetica,sans-Serif" font-size="11.00" fill="#000000">geom</text>
<polygon fill="none" stroke="#000000" points="170.5,-97.7 170.5,-119.7 287.5,-119.7 287.5,-97.7 170.5,-97.7"/>
<image xlink:href="../../images/primaryKeys.png" width="11px" height="12px" preserveAspectRatio="xMinYMin meet" x="175.5" y="-114.7"/>
<text text-anchor="start" x="195.5" y="-104.8" font-family="Helvetica,sans-Serif" font-size="11.00" fill="#000000">BLID</text>
<polygon fill="none" stroke="#000000" points="170.5,-75.7 170.5,-97.7 287.5,-97.7 287.5,-75.7 170.5,-75.7"/>
<image xlink:href="../../images/foreignKeys.png" width="11px" height="12px" preserveAspectRatio="xMinYMin meet" x="175.5" y="-92.7"/>
<text text-anchor="start" x="195.5" y="-82.8" font-family="Helvetica,sans-Serif" font-size="11.00" fill="#000000">AreaID</text>
<polygon fill="none" stroke="#000000" points="170.5,-56.7 170.5,-75.7 287.5,-75.7 287.5,-56.7 170.5,-56.7"/>
<text text-anchor="start" x="173.5" y="-62.8" font-family="Helvetica,sans-Serif" font-size="11.00" fill="#000000">...</text>
<polygon fill="#ffffff" stroke="transparent" points="170.5,-37.7 170.5,-56.7 209.5,-56.7 209.5,-37.7 170.5,-37.7"/>
<polygon fill="none" stroke="#000000" points="170.5,-37.7 170.5,-56.7 209.5,-56.7 209.5,-37.7 170.5,-37.7"/>
<text text-anchor="start" x="173.5" y="-43.8" font-family="Helvetica,sans-Serif" font-size="11.00" fill="#000000">&lt; 1</text>
<polygon fill="#ffffff" stroke="transparent" points="209.5,-37.7 209.5,-56.7 256.5,-56.7 256.5,-37.7 209.5,-37.7"/>
<polygon fill="none" stroke="#000000" points="209.5,-37.7 209.5,-56.7 256.5,-56.7 256.5,-37.7 209.5,-37.7"/>
<text text-anchor="start" x="221.1105" y="-43.8" font-family="Helvetica,sans-Serif" font-size="11.00" fill="#000000">0 rows</text>
<polygon fill="#ffffff" stroke="transparent" points="256.5,-37.7 256.5,-56.7 287.5,-56.7 287.5,-37.7 256.5,-37.7"/>
<polygon fill="none" stroke="#000000" points="256.5,-37.7 256.5,-56.7 287.5,-56.7 287.5,-37.7 256.5,-37.7"/>
<text text-anchor="start" x="268.9053" y="-43.8" font-family="Helvetica,sans-Serif" font-size="11.00" fill="#000000">1 &gt;</text>
</a>
</g>
</g>
<!-- FlowAreas2d -->
<g id="node2" class="node">
<title>FlowAreas2d</title>
<g id="a_node2"><a xlink:href="../../tables/FlowAreas2d.html" xlink:title="FlowAreas2d" target="_top">
<polygon fill="#ffffff" stroke="transparent" points="8,-89.2 8,-194.2 121,-194.2 121,-89.2 8,-89.2"/>
<polygon fill="#f5f5f5" stroke="transparent" points="8.5,-170.7 8.5,-193.7 121.5,-193.7 121.5,-170.7 8.5,-170.7"/>
<polygon fill="none" stroke="#000000" points="8.5,-170.7 8.5,-193.7 121.5,-193.7 121.5,-170.7 8.5,-170.7"/>
<text text-anchor="start" x="13.5" y="-179.3" font-family="Helvetica,sans-Serif" font-weight="bold" font-size="11.00" fill="#000000">FlowAreas2d</text>
<text text-anchor="start" x="87.0219" y="-178.8" font-family="Helvetica,sans-Serif" font-size="11.00" fill="#000000">[table]</text>
<polygon fill="#ffffff" stroke="transparent" points="8.5,-148.7 8.5,-170.7 121.5,-170.7 121.5,-148.7 8.5,-148.7"/>
<polygon fill="none" stroke="#000000" points="8.5,-148.7 8.5,-170.7 121.5,-170.7 121.5,-148.7 8.5,-148.7"/>
<text text-anchor="start" x="37.5" y="-155.8" font-family="Helvetica,sans-Serif" font-size="11.00" fill="#000000">geom</text>
<polygon fill="none" stroke="#000000" points="8.5,-126.7 8.5,-148.7 121.5,-148.7 121.5,-126.7 8.5,-126.7"/>
<image xlink:href="../../images/primaryKeys.png" width="11px" height="12px" preserveAspectRatio="xMinYMin meet" x="13.5" y="-143.7"/>
<text text-anchor="start" x="37.5" y="-133.8" font-family="Helvetica,sans-Serif" font-size="11.00" fill="#000000">AreaID</text>
<polygon fill="none" stroke="#000000" points="8.5,-107.7 8.5,-126.7 121.5,-126.7 121.5,-107.7 8.5,-107.7"/>
<text text-anchor="start" x="11.5" y="-113.8" font-family="Helvetica,sans-Serif" font-size="11.00" fill="#000000">...</text>
<polygon fill="#ffffff" stroke="transparent" points="8.5,-88.7 8.5,-107.7 41.5,-107.7 41.5,-88.7 8.5,-88.7"/>
<polygon fill="none" stroke="#000000" points="8.5,-88.7 8.5,-107.7 41.5,-107.7 41.5,-88.7 8.5,-88.7"/>
<text text-anchor="start" x="11.5" y="-94.8" font-family="Helvetica,sans-Serif" font-size="11.00" fill="#000000"> &#160;</text>
<polygon fill="#ffffff" stroke="transparent" points="41.5,-88.7 41.5,-107.7 89.5,-107.7 89.5,-88.7 41.5,-88.7"/>
<polygon fill="none" stroke="#000000" points="41.5,-88.7 41.5,-107.7 89.5,-107.7 89.5,-88.7 41.5,-88.7"/>
<text text-anchor="start" x="54.1105" y="-94.8" font-family="Helvetica,sans-Serif" font-size="11.00" fill="#000000">0 rows</text>
<polygon fill="#ffffff" stroke="transparent" points="89.5,-88.7 89.5,-107.7 121.5,-107.7 121.5,-88.7 89.5,-88.7"/>
<polygon fill="none" stroke="#000000" points="89.5,-88.7 89.5,-107.7 121.5,-107.7 121.5,-88.7 89.5,-88.7"/>
<text text-anchor="start" x="102.9053" y="-94.8" font-family="Helvetica,sans-Serif" font-size="11.00" fill="#000000">3 &gt;</text>
</a>
</g>
</g>
<!-- BreakLines2d&#45;&gt;FlowAreas2d -->
<g id="edge1" class="edge">
<title>BreakLines2d:w&#45;&gt;FlowAreas2d:e</title>
<path fill="none" stroke="#000000" stroke-dasharray="5,2" d="M156.5912,-91.7765C142.7553,-104.6764 146.7939,-137.7 121.5,-137.7"/>
<polygon fill="#000000" stroke="#000000" points="162.9849,-89.4429 171.7343,-90.0818 166.7425,-88.0715 170.5,-86.7 170.5,-86.7 170.5,-86.7 166.7425,-88.0715 169.2657,-83.3182 162.9849,-89.4429 162.9849,-89.4429"/>
<ellipse fill="none" stroke="#000000" cx="159.9789" cy="-90.5401" rx="3.2" ry="3.2"/>
</g>
<!-- MeshPoints2d -->
<g id="node3" class="node">
<title>MeshPoints2d</title>
<g id="a_node3"><a xlink:href="../../tables/MeshPoints2d.html" xlink:title="MeshPoints2d" target="_top">
<polygon fill="#ffffff" stroke="transparent" points="336,-83.7 336,-239.7 561,-239.7 561,-83.7 336,-83.7"/>
<polygon fill="#f5f5f5" stroke="transparent" points="338.5,-214.7 338.5,-237.7 559.5,-237.7 559.5,-214.7 338.5,-214.7"/>
<polygon fill="none" stroke="#000000" points="338.5,-214.7 338.5,-237.7 559.5,-237.7 559.5,-214.7 338.5,-214.7"/>
<text text-anchor="start" x="343.5" y="-223.3" font-family="Helvetica,sans-Serif" font-weight="bold" font-size="11.00" fill="#000000">MeshPoints2d</text>
<text text-anchor="start" x="524.5437" y="-222.8" font-family="Helvetica,sans-Serif" font-size="11.00" fill="#000000">[table]</text>
<polygon fill="#ffffff" stroke="transparent" points="338.5,-192.7 338.5,-214.7 440.5,-214.7 440.5,-192.7 338.5,-192.7"/>
<polygon fill="none" stroke="#000000" points="338.5,-192.7 338.5,-214.7 440.5,-214.7 440.5,-192.7 338.5,-192.7"/>
<text text-anchor="start" x="358.5" y="-199.8" font-family="Helvetica,sans-Serif" font-size="11.00" fill="#000000">geom</text>
<polygon fill="none" stroke="#000000" points="440.5,-192.7 440.5,-214.7 559.5,-214.7 559.5,-192.7 440.5,-192.7"/>
<text text-anchor="start" x="443.4485" y="-200.4" font-family="Helvetica,sans-Serif" font-size="11.00" fill="#000000">geometry[2147483647]</text>
<polygon fill="none" stroke="#000000" points="338.5,-170.7 338.5,-192.7 440.5,-192.7 440.5,-170.7 338.5,-170.7"/>
<image xlink:href="../../images/primaryKeys.png" width="11px" height="12px" preserveAspectRatio="xMinYMin meet" x="343.5" y="-187.7"/>
<text text-anchor="start" x="358.5" y="-177.8" font-family="Helvetica,sans-Serif" font-size="11.00" fill="#000000">MPID</text>
<polygon fill="none" stroke="#000000" points="440.5,-170.7 440.5,-192.7 559.5,-192.7 559.5,-170.7 440.5,-170.7"/>
<text text-anchor="start" x="443.5" y="-178.4" font-family="Helvetica,sans-Serif" font-size="11.00" fill="#000000">serial[10]</text>
<polygon fill="none" stroke="#000000" points="338.5,-148.7 338.5,-170.7 440.5,-170.7 440.5,-148.7 338.5,-148.7"/>
<image xlink:href="../../images/foreignKeys.png" width="11px" height="12px" preserveAspectRatio="xMinYMin meet" x="343.5" y="-165.7"/>
<text text-anchor="start" x="358.5" y="-155.8" font-family="Helvetica,sans-Serif" font-size="11.00" fill="#000000">AreaID</text>
<polygon fill="none" stroke="#000000" points="440.5,-148.7 440.5,-170.7 559.5,-170.7 559.5,-148.7 440.5,-148.7"/>
<text text-anchor="start" x="443.5" y="-156.4" font-family="Helvetica,sans-Serif" font-size="11.00" fill="#000000">int4[10]</text>
<polygon fill="none" stroke="#000000" points="338.5,-126.7 338.5,-148.7 440.5,-148.7 440.5,-126.7 338.5,-126.7"/>
<image xlink:href="../../images/foreignKeys.png" width="11px" height="12px" preserveAspectRatio="xMinYMin meet" x="343.5" y="-143.7"/>
<text text-anchor="start" x="358.5" y="-133.8" font-family="Helvetica,sans-Serif" font-size="11.00" fill="#000000">BLID</text>
<polygon fill="none" stroke="#000000" points="440.5,-126.7 440.5,-148.7 559.5,-148.7 559.5,-126.7 440.5,-126.7"/>
<text text-anchor="start" x="443.5" y="-134.4" font-family="Helvetica,sans-Serif" font-size="11.00" fill="#000000">int4[10]</text>
<polygon fill="none" stroke="#000000" points="338.5,-104.7 338.5,-126.7 440.5,-126.7 440.5,-104.7 338.5,-104.7"/>
<text text-anchor="start" x="358.5" y="-111.8" font-family="Helvetica,sans-Serif" font-size="11.00" fill="#000000">CellSize</text>
<polygon fill="none" stroke="#000000" points="440.5,-104.7 440.5,-126.7 559.5,-126.7 559.5,-104.7 440.5,-104.7"/>
<text text-anchor="start" x="443.5" y="-112.4" font-family="Helvetica,sans-Serif" font-size="11.00" fill="#000000">float8[17,17]</text>
<polygon fill="#ffffff" stroke="transparent" points="338.5,-85.7 338.5,-104.7 380.5,-104.7 380.5,-85.7 338.5,-85.7"/>
<polygon fill="none" stroke="#000000" points="338.5,-85.7 338.5,-104.7 380.5,-104.7 380.5,-85.7 338.5,-85.7"/>
<text text-anchor="start" x="341.5" y="-91.8" font-family="Helvetica,sans-Serif" font-size="11.00" fill="#000000">&lt; 2</text>
<polygon fill="#ffffff" stroke="transparent" points="380.5,-85.7 380.5,-104.7 440.5,-104.7 440.5,-85.7 380.5,-85.7"/>
<polygon fill="none" stroke="#000000" points="380.5,-85.7 380.5,-104.7 440.5,-104.7 440.5,-85.7 380.5,-85.7"/>
<text text-anchor="start" x="405.1105" y="-91.8" font-family="Helvetica,sans-Serif" font-size="11.00" fill="#000000">0 rows</text>
<polygon fill="#ffffff" stroke="transparent" points="440.5,-85.7 440.5,-104.7 559.5,-104.7 559.5,-85.7 440.5,-85.7"/>
<polygon fill="none" stroke="#000000" points="440.5,-85.7 440.5,-104.7 559.5,-104.7 559.5,-85.7 440.5,-85.7"/>
<text text-anchor="start" x="540.9053" y="-91.8" font-family="Helvetica,sans-Serif" font-size="11.00" fill="#000000">0 &gt;</text>
<polygon fill="none" stroke="#000000" stroke-width="2" points="337,-84.7 337,-238.7 560,-238.7 560,-84.7 337,-84.7"/>
</a>
</g>
</g>
<!-- MeshPoints2d&#45;&gt;BreakLines2d -->
<g id="edge3" class="edge">
<title>MeshPoints2d:w&#45;&gt;BreakLines2d:e</title>
<path fill="none" stroke="#000000" stroke-dasharray="5,2" d="M324.3364,-133.9088C311.5486,-126.048 307.6673,-108.7 287.5,-108.7"/>
<polygon fill="#000000" stroke="#000000" points="330.7721,-135.6314 337.5691,-141.1776 334.636,-136.6657 338.5,-137.7 338.5,-137.7 338.5,-137.7 334.636,-136.6657 339.4309,-134.2224 330.7721,-135.6314 330.7721,-135.6314"/>
<ellipse fill="none" stroke="#000000" cx="327.6809" cy="-134.8039" rx="3.2" ry="3.2"/>
</g>
<!-- MeshPoints2d&#45;&gt;FlowAreas2d -->
<g id="edge2" class="edge">
<title>MeshPoints2d:w&#45;&gt;FlowAreas2d:e</title>
<path fill="none" stroke="#000000" stroke-dasharray="5,2" d="M324.2824,-162.2942C314.9101,-166.1287 309.4182,-173.1325 295,-175.7 236.8044,-186.0632 216.9647,-197.4487 162,-175.7 139.0487,-166.6185 146.1827,-137.7 121.5,-137.7"/>
<polygon fill="#000000" stroke="#000000" points="330.6299,-161.1361 339.1462,-163.2415 334.565,-160.418 338.5,-159.7 338.5,-159.7 338.5,-159.7 334.565,-160.418 337.8538,-156.1585 330.6299,-161.1361 330.6299,-161.1361"/>
<ellipse fill="none" stroke="#000000" cx="327.4819" cy="-161.7105" rx="3.2" ry="3.2"/>
</g>
</g>
</svg>
