<?xml version="1.0" encoding="UTF-8" standalone="no"?>
<!DOCTYPE svg PUBLIC "-//W3C//DTD SVG 1.1//EN"
 "http://www.w3.org/Graphics/SVG/1.1/DTD/svg11.dtd">
<!-- Generated by graphviz version 2.40.1 (20161225.0304)
 -->
<!-- Title: oneDegreeRelationshipsDiagram Pages: 1 -->
<svg width="246pt" height="250pt"
 viewBox="0.00 0.00 246.00 250.20" xmlns="http://www.w3.org/2000/svg" xmlns:xlink="http://www.w3.org/1999/xlink">
<g id="graph0" class="graph" transform="scale(1 1) rotate(0) translate(4 246.2)">
<title>oneDegreeRelationshipsDiagram</title>
<polygon fill="#ffffff" stroke="transparent" points="-4,4 -4,-246.2 242,-246.2 242,4 -4,4"/>
<text text-anchor="middle" x="72.4936" y="-7.3" font-family="Helvetica,sans-Serif" font-size="11.00" fill="#000000">Generated by SchemaSpy</text>
<!-- StorageAreas -->
<g id="node1" class="node">
<title>StorageAreas</title>
<g id="a_node1"><a xlink:href="../../tables/StorageAreas.html" xlink:title="StorageAreas" target="_top">
<polygon fill="#ffffff" stroke="transparent" points="8,-38.2 8,-238.2 230,-238.2 230,-38.2 8,-38.2"/>
<polygon fill="#f5f5f5" stroke="transparent" points="10,-213.2 10,-236.2 228,-236.2 228,-213.2 10,-213.2"/>
<polygon fill="none" stroke="#000000" points="10,-213.2 10,-236.2 228,-236.2 228,-213.2 10,-213.2"/>
<text text-anchor="start" x="15" y="-221.8" font-family="Helvetica,sans-Serif" font-weight="bold" font-size="11.00" fill="#000000">StorageAreas</text>
<text text-anchor="start" x="193.0437" y="-221.3" font-family="Helvetica,sans-Serif" font-size="11.00" fill="#000000">[table]</text>
<polygon fill="#ffffff" stroke="transparent" points="10,-191.2 10,-213.2 109,-213.2 109,-191.2 10,-191.2"/>
<polygon fill="none" stroke="#000000" points="10,-191.2 10,-213.2 109,-213.2 109,-191.2 10,-191.2"/>
<text text-anchor="start" x="30" y="-198.3" font-family="Helvetica,sans-Serif" font-size="11.00" fill="#000000">geom</text>
<polygon fill="none" stroke="#000000" points="109,-191.2 109,-213.2 228,-213.2 228,-191.2 109,-191.2"/>
<text text-anchor="start" x="111.9485" y="-198.9" font-family="Helvetica,sans-Serif" font-size="11.00" fill="#000000">geometry[2147483647]</text>
<polygon fill="none" stroke="#000000" points="10,-169.2 10,-191.2 109,-191.2 109,-169.2 10,-169.2"/>
<image xlink:href="../../images/primaryKeys.png" width="11px" height="12px" preserveAspectRatio="xMinYMin meet" x="15" y="-186.2"/>
<text text-anchor="start" x="30" y="-176.3" font-family="Helvetica,sans-Serif" font-size="11.00" fill="#000000">StorageID</text>
<polygon fill="none" stroke="#000000" points="109,-169.2 109,-191.2 228,-191.2 228,-169.2 109,-169.2"/>
<text text-anchor="start" x="112" y="-176.9" font-family="Helvetica,sans-Serif" font-size="11.00" fill="#000000">serial[10]</text>
<polygon fill="none" stroke="#000000" points="10,-147.2 10,-169.2 109,-169.2 109,-147.2 10,-147.2"/>
<text text-anchor="start" x="30" y="-154.3" font-family="Helvetica,sans-Serif" font-size="11.00" fill="#000000">Name</text>
<polygon fill="none" stroke="#000000" points="109,-147.2 109,-169.2 228,-169.2 228,-147.2 109,-147.2"/>
<text text-anchor="start" x="112" y="-154.9" font-family="Helvetica,sans-Serif" font-size="11.00" fill="#000000">text[2147483647]</text>
<polygon fill="none" stroke="#000000" points="10,-125.2 10,-147.2 109,-147.2 109,-125.2 10,-125.2"/>
<text text-anchor="start" x="30" y="-132.3" font-family="Helvetica,sans-Serif" font-size="11.00" fill="#000000">MaxElev</text>
<polygon fill="none" stroke="#000000" points="109,-125.2 109,-147.2 228,-147.2 228,-125.2 109,-125.2"/>
<text text-anchor="start" x="112" y="-132.9" font-family="Helvetica,sans-Serif" font-size="11.00" fill="#000000">float8[17,17]</text>
<polygon fill="none" stroke="#000000" points="10,-103.2 10,-125.2 109,-125.2 109,-103.2 10,-103.2"/>
<text text-anchor="start" x="30" y="-110.3" font-family="Helvetica,sans-Serif" font-size="11.00" fill="#000000">MinElev</text>
<polygon fill="none" stroke="#000000" points="109,-103.2 109,-125.2 228,-125.2 228,-103.2 109,-103.2"/>
<text text-anchor="start" x="112" y="-110.9" font-family="Helvetica,sans-Serif" font-size="11.00" fill="#000000">float8[17,17]</text>
<polygon fill="none" stroke="#000000" points="10,-81.2 10,-103.2 109,-103.2 109,-81.2 10,-81.2"/>
<text text-anchor="start" x="30" y="-88.3" font-family="Helvetica,sans-Serif" font-size="11.00" fill="#000000">UserElev</text>
<polygon fill="none" stroke="#000000" points="109,-81.2 109,-103.2 228,-103.2 228,-81.2 109,-81.2"/>
<text text-anchor="start" x="112" y="-88.9" font-family="Helvetica,sans-Serif" font-size="11.00" fill="#000000">float8[17,17]</text>
<polygon fill="none" stroke="#000000" points="10,-59.2 10,-81.2 109,-81.2 109,-59.2 10,-59.2"/>
<text text-anchor="start" x="30" y="-66.3" font-family="Helvetica,sans-Serif" font-size="11.00" fill="#000000">DtmID</text>
<polygon fill="none" stroke="#000000" points="109,-59.2 109,-81.2 228,-81.2 228,-59.2 109,-59.2"/>
<text text-anchor="start" x="112" y="-66.9" font-family="Helvetica,sans-Serif" font-size="11.00" fill="#000000">int4[10]</text>
<polygon fill="#ffffff" stroke="transparent" points="10,-40.2 10,-59.2 51,-59.2 51,-40.2 10,-40.2"/>
<polygon fill="none" stroke="#000000" points="10,-40.2 10,-59.2 51,-59.2 51,-40.2 10,-40.2"/>
<text text-anchor="start" x="13" y="-46.3" font-family="Helvetica,sans-Serif" font-size="11.00" fill="#000000">&lt; 0</text>
<polygon fill="#ffffff" stroke="transparent" points="51,-40.2 51,-59.2 109,-59.2 109,-40.2 51,-40.2"/>
<polygon fill="none" stroke="#000000" points="51,-40.2 51,-59.2 109,-59.2 109,-40.2 51,-40.2"/>
<text text-anchor="start" x="73.6105" y="-46.3" font-family="Helvetica,sans-Serif" font-size="11.00" fill="#000000">0 rows</text>
<polygon fill="#ffffff" stroke="transparent" points="109,-40.2 109,-59.2 228,-59.2 228,-40.2 109,-40.2"/>
<polygon fill="none" stroke="#000000" points="109,-40.2 109,-59.2 228,-59.2 228,-40.2 109,-40.2"/>
<text text-anchor="start" x="209.4053" y="-46.3" font-family="Helvetica,sans-Serif" font-size="11.00" fill="#000000">0 &gt;</text>
<polygon fill="none" stroke="#000000" stroke-width="2" points="9,-39.2 9,-237.2 229,-237.2 229,-39.2 9,-39.2"/>
</a>
</g>
</g>
</g>
</svg>
