<?xml version="1.0" encoding="UTF-8" standalone="no"?>
<!DOCTYPE svg PUBLIC "-//W3C//DTD SVG 1.1//EN"
 "http://www.w3.org/Graphics/SVG/1.1/DTD/svg11.dtd">
<!-- Generated by graphviz version 2.40.1 (20161225.0304)
 -->
<!-- Title: twoDegreesRelationshipsDiagramImplied Pages: 1 -->
<svg width="587pt" height="337pt"
 viewBox="0.00 0.00 587.00 336.70" xmlns="http://www.w3.org/2000/svg" xmlns:xlink="http://www.w3.org/1999/xlink">
<g id="graph0" class="graph" transform="scale(1 1) rotate(0) translate(4 332.7)">
<title>twoDegreesRelationshipsDiagramImplied</title>
<polygon fill="#ffffff" stroke="transparent" points="-4,4 -4,-332.7 583,-332.7 583,4 -4,4"/>
<text text-anchor="middle" x="72.4936" y="-7.3" font-family="Helvetica,sans-Serif" font-size="11.00" fill="#000000">Generated by SchemaSpy</text>
<!-- LeveePoints -->
<g id="node1" class="node">
<title>LeveePoints</title>
<g id="a_node1"><a xlink:href="../../tables/LeveePoints.html" xlink:title="LeveePoints" target="_top">
<polygon fill="#ffffff" stroke="transparent" points="462,-240.7 462,-301.7 571,-301.7 571,-240.7 462,-240.7"/>
<polygon fill="#f5f5f5" stroke="transparent" points="462.5,-278.2 462.5,-301.2 571.5,-301.2 571.5,-278.2 462.5,-278.2"/>
<polygon fill="none" stroke="#000000" points="462.5,-278.2 462.5,-301.2 571.5,-301.2 571.5,-278.2 462.5,-278.2"/>
<text text-anchor="start" x="467.5" y="-286.8" font-family="Helvetica,sans-Serif" font-weight="bold" font-size="11.00" fill="#000000">LeveePoints</text>
<text text-anchor="start" x="537.0219" y="-286.3" font-family="Helvetica,sans-Serif" font-size="11.00" fill="#000000">[table]</text>
<polygon fill="none" stroke="#000000" points="462.5,-259.2 462.5,-278.2 571.5,-278.2 571.5,-259.2 462.5,-259.2"/>
<text text-anchor="start" x="465.5" y="-265.3" font-family="Helvetica,sans-Serif" font-size="11.00" fill="#000000">...</text>
<polygon fill="#ffffff" stroke="transparent" points="462.5,-240.2 462.5,-259.2 502.5,-259.2 502.5,-240.2 462.5,-240.2"/>
<polygon fill="none" stroke="#000000" points="462.5,-240.2 462.5,-259.2 502.5,-259.2 502.5,-240.2 462.5,-240.2"/>
<text text-anchor="start" x="465.5" y="-246.3" font-family="Helvetica,sans-Serif" font-size="11.00" fill="#000000">&lt; 2</text>
<polygon fill="#ffffff" stroke="transparent" points="502.5,-240.2 502.5,-259.2 549.5,-259.2 549.5,-240.2 502.5,-240.2"/>
<polygon fill="none" stroke="#000000" points="502.5,-240.2 502.5,-259.2 549.5,-259.2 549.5,-240.2 502.5,-240.2"/>
<text text-anchor="start" x="514.1105" y="-246.3" font-family="Helvetica,sans-Serif" font-size="11.00" fill="#000000">0 rows</text>
<polygon fill="#ffffff" stroke="transparent" points="549.5,-240.2 549.5,-259.2 571.5,-259.2 571.5,-240.2 549.5,-240.2"/>
<polygon fill="none" stroke="#000000" points="549.5,-240.2 549.5,-259.2 571.5,-259.2 571.5,-240.2 549.5,-240.2"/>
<text text-anchor="start" x="562.3862" y="-246.3" font-family="Helvetica,sans-Serif" font-size="11.00" fill="#000000"> &#160;</text>
</a>
</g>
</g>
<!-- XSCutLines -->
<g id="node2" class="node">
<title>XSCutLines</title>
<g id="a_node2"><a xlink:href="../../tables/XSCutLines.html" xlink:title="XSCutLines" target="_top">
<polygon fill="#ffffff" stroke="transparent" points="307,-197.7 307,-324.7 413,-324.7 413,-197.7 307,-197.7"/>
<polygon fill="#f5f5f5" stroke="transparent" points="307,-301.2 307,-324.2 413,-324.2 413,-301.2 307,-301.2"/>
<polygon fill="none" stroke="#000000" points="307,-301.2 307,-324.2 413,-324.2 413,-301.2 307,-301.2"/>
<text text-anchor="start" x="312" y="-309.8" font-family="Helvetica,sans-Serif" font-weight="bold" font-size="11.00" fill="#000000">XSCutLines</text>
<text text-anchor="start" x="378.5219" y="-309.3" font-family="Helvetica,sans-Serif" font-size="11.00" fill="#000000">[table]</text>
<polygon fill="#ffffff" stroke="transparent" points="307,-279.2 307,-301.2 413,-301.2 413,-279.2 307,-279.2"/>
<polygon fill="none" stroke="#000000" points="307,-279.2 307,-301.2 413,-301.2 413,-279.2 307,-279.2"/>
<text text-anchor="start" x="336" y="-286.3" font-family="Helvetica,sans-Serif" font-size="11.00" fill="#000000">geom</text>
<polygon fill="none" stroke="#000000" points="307,-257.2 307,-279.2 413,-279.2 413,-257.2 307,-257.2"/>
<image xlink:href="../../images/primaryKeys.png" width="11px" height="12px" preserveAspectRatio="xMinYMin meet" x="312" y="-274.2"/>
<text text-anchor="start" x="336" y="-264.3" font-family="Helvetica,sans-Serif" font-size="11.00" fill="#000000">XsecID</text>
<polygon fill="none" stroke="#000000" points="307,-235.2 307,-257.2 413,-257.2 413,-235.2 307,-235.2"/>
<image xlink:href="../../images/foreignKeys.png" width="11px" height="12px" preserveAspectRatio="xMinYMin meet" x="312" y="-252.2"/>
<text text-anchor="start" x="336" y="-242.3" font-family="Helvetica,sans-Serif" font-size="11.00" fill="#000000">ReachID</text>
<polygon fill="none" stroke="#000000" points="307,-216.2 307,-235.2 413,-235.2 413,-216.2 307,-216.2"/>
<text text-anchor="start" x="310" y="-222.3" font-family="Helvetica,sans-Serif" font-size="11.00" fill="#000000">...</text>
<polygon fill="#ffffff" stroke="transparent" points="307,-197.2 307,-216.2 341,-216.2 341,-197.2 307,-197.2"/>
<polygon fill="none" stroke="#000000" points="307,-197.2 307,-216.2 341,-216.2 341,-197.2 307,-197.2"/>
<text text-anchor="start" x="310" y="-203.3" font-family="Helvetica,sans-Serif" font-size="11.00" fill="#000000">&lt; 1</text>
<polygon fill="#ffffff" stroke="transparent" points="341,-197.2 341,-216.2 385,-216.2 385,-197.2 341,-197.2"/>
<polygon fill="none" stroke="#000000" points="341,-197.2 341,-216.2 385,-216.2 385,-197.2 341,-197.2"/>
<text text-anchor="start" x="349.6105" y="-203.3" font-family="Helvetica,sans-Serif" font-size="11.00" fill="#000000">0 rows</text>
<polygon fill="#ffffff" stroke="transparent" points="385,-197.2 385,-216.2 413,-216.2 413,-197.2 385,-197.2"/>
<polygon fill="none" stroke="#000000" points="385,-197.2 385,-216.2 413,-216.2 413,-197.2 385,-197.2"/>
<text text-anchor="start" x="394.4053" y="-203.3" font-family="Helvetica,sans-Serif" font-size="11.00" fill="#000000">1 &gt;</text>
</a>
</g>
</g>
<!-- LeveePoints&#45;&gt;XSCutLines -->
<g id="edge1" class="edge">
<title>LeveePoints:w&#45;&gt;XSCutLines:e</title>
<path fill="none" stroke="#000000" stroke-dasharray="5,2" d="M447.8428,-268.2C436.4139,-268.2 429.1563,-268.2 413,-268.2"/>
<polygon fill="#000000" stroke="#000000" points="454.5,-268.2001 462.5,-271.8 458.5,-268.2 462.5,-268.2 462.5,-268.2 462.5,-268.2 458.5,-268.2 462.5,-264.6 454.5,-268.2001 454.5,-268.2001"/>
<ellipse fill="none" stroke="#000000" cx="451.3" cy="-268.2001" rx="3.2" ry="3.2"/>
</g>
<!-- StreamCenterlines -->
<g id="node3" class="node">
<title>StreamCenterlines</title>
<g id="a_node3"><a xlink:href="../../tables/StreamCenterlines.html" xlink:title="StreamCenterlines" target="_top">
<polygon fill="#ffffff" stroke="transparent" points="8,-38.2 8,-304.2 258,-304.2 258,-38.2 8,-38.2"/>
<polygon fill="#f5f5f5" stroke="transparent" points="10,-279.2 10,-302.2 256,-302.2 256,-279.2 10,-279.2"/>
<polygon fill="none" stroke="#000000" points="10,-279.2 10,-302.2 256,-302.2 256,-279.2 10,-279.2"/>
<text text-anchor="start" x="15" y="-287.8" font-family="Helvetica,sans-Serif" font-weight="bold" font-size="11.00" fill="#000000">StreamCenterlines</text>
<text text-anchor="start" x="221.0437" y="-287.3" font-family="Helvetica,sans-Serif" font-size="11.00" fill="#000000">[table]</text>
<polygon fill="#ffffff" stroke="transparent" points="10,-257.2 10,-279.2 137,-279.2 137,-257.2 10,-257.2"/>
<polygon fill="none" stroke="#000000" points="10,-257.2 10,-279.2 137,-279.2 137,-257.2 10,-257.2"/>
<text text-anchor="start" x="30" y="-264.3" font-family="Helvetica,sans-Serif" font-size="11.00" fill="#000000">geom</text>
<polygon fill="none" stroke="#000000" points="137,-257.2 137,-279.2 256,-279.2 256,-257.2 137,-257.2"/>
<text text-anchor="start" x="139.9485" y="-264.9" font-family="Helvetica,sans-Serif" font-size="11.00" fill="#000000">geometry[2147483647]</text>
<polygon fill="none" stroke="#000000" points="10,-235.2 10,-257.2 137,-257.2 137,-235.2 10,-235.2"/>
<image xlink:href="../../images/primaryKeys.png" width="11px" height="12px" preserveAspectRatio="xMinYMin meet" x="15" y="-252.2"/>
<text text-anchor="start" x="30" y="-242.3" font-family="Helvetica,sans-Serif" font-size="11.00" fill="#000000">ReachID</text>
<polygon fill="none" stroke="#000000" points="137,-235.2 137,-257.2 256,-257.2 256,-235.2 137,-235.2"/>
<text text-anchor="start" x="140" y="-242.9" font-family="Helvetica,sans-Serif" font-size="11.00" fill="#000000">serial[10]</text>
<polygon fill="none" stroke="#000000" points="10,-213.2 10,-235.2 137,-235.2 137,-213.2 10,-213.2"/>
<text text-anchor="start" x="30" y="-220.3" font-family="Helvetica,sans-Serif" font-size="11.00" fill="#000000">RiverCode</text>
<polygon fill="none" stroke="#000000" points="137,-213.2 137,-235.2 256,-235.2 256,-213.2 137,-213.2"/>
<text text-anchor="start" x="140" y="-220.9" font-family="Helvetica,sans-Serif" font-size="11.00" fill="#000000">text[2147483647]</text>
<polygon fill="none" stroke="#000000" points="10,-191.2 10,-213.2 137,-213.2 137,-191.2 10,-191.2"/>
<text text-anchor="start" x="30" y="-198.3" font-family="Helvetica,sans-Serif" font-size="11.00" fill="#000000">ReachCode</text>
<polygon fill="none" stroke="#000000" points="137,-191.2 137,-213.2 256,-213.2 256,-191.2 137,-191.2"/>
<text text-anchor="start" x="140" y="-198.9" font-family="Helvetica,sans-Serif" font-size="11.00" fill="#000000">text[2147483647]</text>
<polygon fill="none" stroke="#000000" points="10,-169.2 10,-191.2 137,-191.2 137,-169.2 10,-169.2"/>
<text text-anchor="start" x="30" y="-176.3" font-family="Helvetica,sans-Serif" font-size="11.00" fill="#000000">FromNode</text>
<polygon fill="none" stroke="#000000" points="137,-169.2 137,-191.2 256,-191.2 256,-169.2 137,-169.2"/>
<text text-anchor="start" x="140" y="-176.9" font-family="Helvetica,sans-Serif" font-size="11.00" fill="#000000">int4[10]</text>
<polygon fill="none" stroke="#000000" points="10,-147.2 10,-169.2 137,-169.2 137,-147.2 10,-147.2"/>
<text text-anchor="start" x="30" y="-154.3" font-family="Helvetica,sans-Serif" font-size="11.00" fill="#000000">ToNode</text>
<polygon fill="none" stroke="#000000" points="137,-147.2 137,-169.2 256,-169.2 256,-147.2 137,-147.2"/>
<text text-anchor="start" x="140" y="-154.9" font-family="Helvetica,sans-Serif" font-size="11.00" fill="#000000">int4[10]</text>
<polygon fill="none" stroke="#000000" points="10,-125.2 10,-147.2 137,-147.2 137,-125.2 10,-125.2"/>
<text text-anchor="start" x="30" y="-132.3" font-family="Helvetica,sans-Serif" font-size="11.00" fill="#000000">ReachLen</text>
<polygon fill="none" stroke="#000000" points="137,-125.2 137,-147.2 256,-147.2 256,-125.2 137,-125.2"/>
<text text-anchor="start" x="140" y="-132.9" font-family="Helvetica,sans-Serif" font-size="11.00" fill="#000000">float8[17,17]</text>
<polygon fill="none" stroke="#000000" points="10,-103.2 10,-125.2 137,-125.2 137,-103.2 10,-103.2"/>
<text text-anchor="start" x="30" y="-110.3" font-family="Helvetica,sans-Serif" font-size="11.00" fill="#000000">FromSta</text>
<polygon fill="none" stroke="#000000" points="137,-103.2 137,-125.2 256,-125.2 256,-103.2 137,-103.2"/>
<text text-anchor="start" x="140" y="-110.9" font-family="Helvetica,sans-Serif" font-size="11.00" fill="#000000">float8[17,17]</text>
<polygon fill="none" stroke="#000000" points="10,-81.2 10,-103.2 137,-103.2 137,-81.2 10,-81.2"/>
<text text-anchor="start" x="30" y="-88.3" font-family="Helvetica,sans-Serif" font-size="11.00" fill="#000000">ToSta</text>
<polygon fill="none" stroke="#000000" points="137,-81.2 137,-103.2 256,-103.2 256,-81.2 137,-81.2"/>
<text text-anchor="start" x="140" y="-88.9" font-family="Helvetica,sans-Serif" font-size="11.00" fill="#000000">float8[17,17]</text>
<polygon fill="none" stroke="#000000" points="10,-59.2 10,-81.2 137,-81.2 137,-59.2 10,-59.2"/>
<text text-anchor="start" x="30" y="-66.3" font-family="Helvetica,sans-Serif" font-size="11.00" fill="#000000">Notes</text>
<polygon fill="none" stroke="#000000" points="137,-59.2 137,-81.2 256,-81.2 256,-59.2 137,-59.2"/>
<text text-anchor="start" x="140" y="-66.9" font-family="Helvetica,sans-Serif" font-size="11.00" fill="#000000">text[2147483647]</text>
<polygon fill="#ffffff" stroke="transparent" points="10,-40.2 10,-59.2 65,-59.2 65,-40.2 10,-40.2"/>
<polygon fill="none" stroke="#000000" points="10,-40.2 10,-59.2 65,-59.2 65,-40.2 10,-40.2"/>
<text text-anchor="start" x="13" y="-46.3" font-family="Helvetica,sans-Serif" font-size="11.00" fill="#000000">&lt; 0</text>
<polygon fill="#ffffff" stroke="transparent" points="65,-40.2 65,-59.2 137,-59.2 137,-40.2 65,-40.2"/>
<polygon fill="none" stroke="#000000" points="65,-40.2 65,-59.2 137,-59.2 137,-40.2 65,-40.2"/>
<text text-anchor="start" x="101.6105" y="-46.3" font-family="Helvetica,sans-Serif" font-size="11.00" fill="#000000">0 rows</text>
<polygon fill="#ffffff" stroke="transparent" points="137,-40.2 137,-59.2 256,-59.2 256,-40.2 137,-40.2"/>
<polygon fill="none" stroke="#000000" points="137,-40.2 137,-59.2 256,-59.2 256,-40.2 137,-40.2"/>
<text text-anchor="start" x="237.4053" y="-46.3" font-family="Helvetica,sans-Serif" font-size="11.00" fill="#000000">1 &gt;</text>
<polygon fill="none" stroke="#000000" stroke-width="2" points="9,-39.2 9,-303.2 257,-303.2 257,-39.2 9,-39.2"/>
</a>
</g>
</g>
<!-- XSCutLines&#45;&gt;StreamCenterlines -->
<g id="edge2" class="edge">
<title>XSCutLines:w&#45;&gt;StreamCenterlines:e</title>
<path fill="none" stroke="#000000" stroke-dasharray="5,2" d="M292.276,-246.2C280.2815,-246.2 272.8229,-246.2 256,-246.2"/>
<polygon fill="#000000" stroke="#000000" points="299,-246.2001 307,-249.8 303,-246.2 307,-246.2 307,-246.2 307,-246.2 303,-246.2 307,-242.6 299,-246.2001 299,-246.2001"/>
<ellipse fill="none" stroke="#000000" cx="295.8" cy="-246.2001" rx="3.2" ry="3.2"/>
</g>
</g>
</svg>
