<?xml version="1.0" encoding="UTF-8" standalone="no"?>
<!DOCTYPE svg PUBLIC "-//W3C//DTD SVG 1.1//EN"
 "http://www.w3.org/Graphics/SVG/1.1/DTD/svg11.dtd">
<!-- Generated by graphviz version 2.40.1 (20161225.0304)
 -->
<!-- Title: oneDegreeRelationshipsDiagram Pages: 1 -->
<svg width="235pt" height="382pt"
 viewBox="0.00 0.00 235.00 382.20" xmlns="http://www.w3.org/2000/svg" xmlns:xlink="http://www.w3.org/1999/xlink">
<g id="graph0" class="graph" transform="scale(1 1) rotate(0) translate(4 378.2)">
<title>oneDegreeRelationshipsDiagram</title>
<polygon fill="#ffffff" stroke="transparent" points="-4,4 -4,-378.2 231,-378.2 231,4 -4,4"/>
<text text-anchor="middle" x="72.4936" y="-7.3" font-family="Helvetica,sans-Serif" font-size="11.00" fill="#000000">Generated by SchemaSpy</text>
<!-- XSCutLines -->
<g id="node1" class="node">
<title>XSCutLines</title>
<g id="a_node1"><a xlink:href="../../tables/XSCutLines.html" xlink:title="XSCutLines" target="_top">
<polygon fill="#ffffff" stroke="transparent" points="8,-38.2 8,-370.2 219,-370.2 219,-38.2 8,-38.2"/>
<polygon fill="#f5f5f5" stroke="transparent" points="10.5,-345.2 10.5,-368.2 217.5,-368.2 217.5,-345.2 10.5,-345.2"/>
<polygon fill="none" stroke="#000000" points="10.5,-345.2 10.5,-368.2 217.5,-368.2 217.5,-345.2 10.5,-345.2"/>
<text text-anchor="start" x="15.5" y="-353.8" font-family="Helvetica,sans-Serif" font-weight="bold" font-size="11.00" fill="#000000">XSCutLines</text>
<text text-anchor="start" x="182.5437" y="-353.3" font-family="Helvetica,sans-Serif" font-size="11.00" fill="#000000">[table]</text>
<polygon fill="#ffffff" stroke="transparent" points="10.5,-323.2 10.5,-345.2 98.5,-345.2 98.5,-323.2 10.5,-323.2"/>
<polygon fill="none" stroke="#000000" points="10.5,-323.2 10.5,-345.2 98.5,-345.2 98.5,-323.2 10.5,-323.2"/>
<text text-anchor="start" x="30.5" y="-330.3" font-family="Helvetica,sans-Serif" font-size="11.00" fill="#000000">geom</text>
<polygon fill="none" stroke="#000000" points="98.5,-323.2 98.5,-345.2 217.5,-345.2 217.5,-323.2 98.5,-323.2"/>
<text text-anchor="start" x="101.4485" y="-330.9" font-family="Helvetica,sans-Serif" font-size="11.00" fill="#000000">geometry[2147483647]</text>
<polygon fill="none" stroke="#000000" points="10.5,-301.2 10.5,-323.2 98.5,-323.2 98.5,-301.2 10.5,-301.2"/>
<image xlink:href="../../images/primaryKeys.png" width="11px" height="12px" preserveAspectRatio="xMinYMin meet" x="15.5" y="-318.2"/>
<text text-anchor="start" x="30.5" y="-308.3" font-family="Helvetica,sans-Serif" font-size="11.00" fill="#000000">XsecID</text>
<polygon fill="none" stroke="#000000" points="98.5,-301.2 98.5,-323.2 217.5,-323.2 217.5,-301.2 98.5,-301.2"/>
<text text-anchor="start" x="101.5" y="-308.9" font-family="Helvetica,sans-Serif" font-size="11.00" fill="#000000">serial[10]</text>
<polygon fill="none" stroke="#000000" points="10.5,-279.2 10.5,-301.2 98.5,-301.2 98.5,-279.2 10.5,-279.2"/>
<image xlink:href="../../images/foreignKeys.png" width="11px" height="12px" preserveAspectRatio="xMinYMin meet" x="15.5" y="-296.2"/>
<text text-anchor="start" x="30.5" y="-286.3" font-family="Helvetica,sans-Serif" font-size="11.00" fill="#000000">ReachID</text>
<polygon fill="none" stroke="#000000" points="98.5,-279.2 98.5,-301.2 217.5,-301.2 217.5,-279.2 98.5,-279.2"/>
<text text-anchor="start" x="101.5" y="-286.9" font-family="Helvetica,sans-Serif" font-size="11.00" fill="#000000">int4[10]</text>
<polygon fill="none" stroke="#000000" points="10.5,-257.2 10.5,-279.2 98.5,-279.2 98.5,-257.2 10.5,-257.2"/>
<text text-anchor="start" x="30.5" y="-264.3" font-family="Helvetica,sans-Serif" font-size="11.00" fill="#000000">Station</text>
<polygon fill="none" stroke="#000000" points="98.5,-257.2 98.5,-279.2 217.5,-279.2 217.5,-257.2 98.5,-257.2"/>
<text text-anchor="start" x="101.5" y="-264.9" font-family="Helvetica,sans-Serif" font-size="11.00" fill="#000000">float8[17,17]</text>
<polygon fill="none" stroke="#000000" points="10.5,-235.2 10.5,-257.2 98.5,-257.2 98.5,-235.2 10.5,-235.2"/>
<text text-anchor="start" x="30.5" y="-242.3" font-family="Helvetica,sans-Serif" font-size="11.00" fill="#000000">RiverCode</text>
<polygon fill="none" stroke="#000000" points="98.5,-235.2 98.5,-257.2 217.5,-257.2 217.5,-235.2 98.5,-235.2"/>
<text text-anchor="start" x="101.5" y="-242.9" font-family="Helvetica,sans-Serif" font-size="11.00" fill="#000000">text[2147483647]</text>
<polygon fill="none" stroke="#000000" points="10.5,-213.2 10.5,-235.2 98.5,-235.2 98.5,-213.2 10.5,-213.2"/>
<text text-anchor="start" x="30.5" y="-220.3" font-family="Helvetica,sans-Serif" font-size="11.00" fill="#000000">ReachCode</text>
<polygon fill="none" stroke="#000000" points="98.5,-213.2 98.5,-235.2 217.5,-235.2 217.5,-213.2 98.5,-213.2"/>
<text text-anchor="start" x="101.5" y="-220.9" font-family="Helvetica,sans-Serif" font-size="11.00" fill="#000000">text[2147483647]</text>
<polygon fill="none" stroke="#000000" points="10.5,-191.2 10.5,-213.2 98.5,-213.2 98.5,-191.2 10.5,-191.2"/>
<text text-anchor="start" x="30.5" y="-198.3" font-family="Helvetica,sans-Serif" font-size="11.00" fill="#000000">LeftBank</text>
<polygon fill="none" stroke="#000000" points="98.5,-191.2 98.5,-213.2 217.5,-213.2 217.5,-191.2 98.5,-191.2"/>
<text text-anchor="start" x="101.5" y="-198.9" font-family="Helvetica,sans-Serif" font-size="11.00" fill="#000000">float8[17,17]</text>
<polygon fill="none" stroke="#000000" points="10.5,-169.2 10.5,-191.2 98.5,-191.2 98.5,-169.2 10.5,-169.2"/>
<text text-anchor="start" x="30.5" y="-176.3" font-family="Helvetica,sans-Serif" font-size="11.00" fill="#000000">RightBank</text>
<polygon fill="none" stroke="#000000" points="98.5,-169.2 98.5,-191.2 217.5,-191.2 217.5,-169.2 98.5,-169.2"/>
<text text-anchor="start" x="101.5" y="-176.9" font-family="Helvetica,sans-Serif" font-size="11.00" fill="#000000">float8[17,17]</text>
<polygon fill="none" stroke="#000000" points="10.5,-147.2 10.5,-169.2 98.5,-169.2 98.5,-147.2 10.5,-147.2"/>
<text text-anchor="start" x="30.5" y="-154.3" font-family="Helvetica,sans-Serif" font-size="11.00" fill="#000000">LLength</text>
<polygon fill="none" stroke="#000000" points="98.5,-147.2 98.5,-169.2 217.5,-169.2 217.5,-147.2 98.5,-147.2"/>
<text text-anchor="start" x="101.5" y="-154.9" font-family="Helvetica,sans-Serif" font-size="11.00" fill="#000000">float8[17,17]</text>
<polygon fill="none" stroke="#000000" points="10.5,-125.2 10.5,-147.2 98.5,-147.2 98.5,-125.2 10.5,-125.2"/>
<text text-anchor="start" x="30.5" y="-132.3" font-family="Helvetica,sans-Serif" font-size="11.00" fill="#000000">ChLength</text>
<polygon fill="none" stroke="#000000" points="98.5,-125.2 98.5,-147.2 217.5,-147.2 217.5,-125.2 98.5,-125.2"/>
<text text-anchor="start" x="101.5" y="-132.9" font-family="Helvetica,sans-Serif" font-size="11.00" fill="#000000">float8[17,17]</text>
<polygon fill="none" stroke="#000000" points="10.5,-103.2 10.5,-125.2 98.5,-125.2 98.5,-103.2 10.5,-103.2"/>
<text text-anchor="start" x="30.5" y="-110.3" font-family="Helvetica,sans-Serif" font-size="11.00" fill="#000000">RLength</text>
<polygon fill="none" stroke="#000000" points="98.5,-103.2 98.5,-125.2 217.5,-125.2 217.5,-103.2 98.5,-103.2"/>
<text text-anchor="start" x="101.5" y="-110.9" font-family="Helvetica,sans-Serif" font-size="11.00" fill="#000000">float8[17,17]</text>
<polygon fill="none" stroke="#000000" points="10.5,-81.2 10.5,-103.2 98.5,-103.2 98.5,-81.2 10.5,-81.2"/>
<text text-anchor="start" x="30.5" y="-88.3" font-family="Helvetica,sans-Serif" font-size="11.00" fill="#000000">NodeName</text>
<polygon fill="none" stroke="#000000" points="98.5,-81.2 98.5,-103.2 217.5,-103.2 217.5,-81.2 98.5,-81.2"/>
<text text-anchor="start" x="101.5" y="-88.9" font-family="Helvetica,sans-Serif" font-size="11.00" fill="#000000">text[2147483647]</text>
<polygon fill="none" stroke="#000000" points="10.5,-59.2 10.5,-81.2 98.5,-81.2 98.5,-59.2 10.5,-59.2"/>
<text text-anchor="start" x="30.5" y="-66.3" font-family="Helvetica,sans-Serif" font-size="11.00" fill="#000000">DtmID</text>
<polygon fill="none" stroke="#000000" points="98.5,-59.2 98.5,-81.2 217.5,-81.2 217.5,-59.2 98.5,-59.2"/>
<text text-anchor="start" x="101.5" y="-66.9" font-family="Helvetica,sans-Serif" font-size="11.00" fill="#000000">int4[10]</text>
<polygon fill="#ffffff" stroke="transparent" points="10.5,-40.2 10.5,-59.2 45.5,-59.2 45.5,-40.2 10.5,-40.2"/>
<polygon fill="none" stroke="#000000" points="10.5,-40.2 10.5,-59.2 45.5,-59.2 45.5,-40.2 10.5,-40.2"/>
<text text-anchor="start" x="13.5" y="-46.3" font-family="Helvetica,sans-Serif" font-size="11.00" fill="#000000">&lt; 0</text>
<polygon fill="#ffffff" stroke="transparent" points="45.5,-40.2 45.5,-59.2 98.5,-59.2 98.5,-40.2 45.5,-40.2"/>
<polygon fill="none" stroke="#000000" points="45.5,-40.2 45.5,-59.2 98.5,-59.2 98.5,-40.2 45.5,-40.2"/>
<text text-anchor="start" x="63.1105" y="-46.3" font-family="Helvetica,sans-Serif" font-size="11.00" fill="#000000">0 rows</text>
<polygon fill="#ffffff" stroke="transparent" points="98.5,-40.2 98.5,-59.2 217.5,-59.2 217.5,-40.2 98.5,-40.2"/>
<polygon fill="none" stroke="#000000" points="98.5,-40.2 98.5,-59.2 217.5,-59.2 217.5,-40.2 98.5,-40.2"/>
<text text-anchor="start" x="198.9053" y="-46.3" font-family="Helvetica,sans-Serif" font-size="11.00" fill="#000000">0 &gt;</text>
<polygon fill="none" stroke="#000000" stroke-width="2" points="9,-39.2 9,-369.2 218,-369.2 218,-39.2 9,-39.2"/>
</a>
</g>
</g>
</g>
</svg>
