<?xml version="1.0" encoding="UTF-8" standalone="no"?>
<!DOCTYPE svg PUBLIC "-//W3C//DTD SVG 1.1//EN"
 "http://www.w3.org/Graphics/SVG/1.1/DTD/svg11.dtd">
<!-- Generated by graphviz version 2.40.1 (20161225.0304)
 -->
<!-- Title: oneDegreeRelationshipsDiagramImplied Pages: 1 -->
<svg width="587pt" height="403pt"
 viewBox="0.00 0.00 587.00 402.70" xmlns="http://www.w3.org/2000/svg" xmlns:xlink="http://www.w3.org/1999/xlink">
<g id="graph0" class="graph" transform="scale(1 1) rotate(0) translate(4 398.7)">
<title>oneDegreeRelationshipsDiagramImplied</title>
<polygon fill="#ffffff" stroke="transparent" points="-4,4 -4,-398.7 583,-398.7 583,4 -4,4"/>
<text text-anchor="middle" x="72.4936" y="-7.3" font-family="Helvetica,sans-Serif" font-size="11.00" fill="#000000">Generated by SchemaSpy</text>
<!-- LeveePoints -->
<g id="node1" class="node">
<title>LeveePoints</title>
<g id="a_node1"><a xlink:href="../../tables/LeveePoints.html" xlink:title="LeveePoints" target="_top">
<polygon fill="#ffffff" stroke="transparent" points="462,-263.7 462,-390.7 571,-390.7 571,-263.7 462,-263.7"/>
<polygon fill="#f5f5f5" stroke="transparent" points="462.5,-367.2 462.5,-390.2 571.5,-390.2 571.5,-367.2 462.5,-367.2"/>
<polygon fill="none" stroke="#000000" points="462.5,-367.2 462.5,-390.2 571.5,-390.2 571.5,-367.2 462.5,-367.2"/>
<text text-anchor="start" x="467.5" y="-375.8" font-family="Helvetica,sans-Serif" font-weight="bold" font-size="11.00" fill="#000000">LeveePoints</text>
<text text-anchor="start" x="537.0219" y="-375.3" font-family="Helvetica,sans-Serif" font-size="11.00" fill="#000000">[table]</text>
<polygon fill="none" stroke="#000000" points="462.5,-345.2 462.5,-367.2 571.5,-367.2 571.5,-345.2 462.5,-345.2"/>
<image xlink:href="../../images/primaryKeys.png" width="11px" height="12px" preserveAspectRatio="xMinYMin meet" x="467.5" y="-362.2"/>
<text text-anchor="start" x="491.5" y="-352.3" font-family="Helvetica,sans-Serif" font-size="11.00" fill="#000000">LeveePID</text>
<polygon fill="none" stroke="#000000" points="462.5,-323.2 462.5,-345.2 571.5,-345.2 571.5,-323.2 462.5,-323.2"/>
<image xlink:href="../../images/foreignKeys.png" width="11px" height="12px" preserveAspectRatio="xMinYMin meet" x="467.5" y="-340.2"/>
<text text-anchor="start" x="491.5" y="-330.3" font-family="Helvetica,sans-Serif" font-size="11.00" fill="#000000">LeveeID</text>
<polygon fill="none" stroke="#000000" points="462.5,-301.2 462.5,-323.2 571.5,-323.2 571.5,-301.2 462.5,-301.2"/>
<image xlink:href="../../images/foreignKeys.png" width="11px" height="12px" preserveAspectRatio="xMinYMin meet" x="467.5" y="-318.2"/>
<text text-anchor="start" x="491.5" y="-308.3" font-family="Helvetica,sans-Serif" font-size="11.00" fill="#000000">XsecID</text>
<polygon fill="none" stroke="#000000" points="462.5,-282.2 462.5,-301.2 571.5,-301.2 571.5,-282.2 462.5,-282.2"/>
<text text-anchor="start" x="465.5" y="-288.3" font-family="Helvetica,sans-Serif" font-size="11.00" fill="#000000">...</text>
<polygon fill="#ffffff" stroke="transparent" points="462.5,-263.2 462.5,-282.2 502.5,-282.2 502.5,-263.2 462.5,-263.2"/>
<polygon fill="none" stroke="#000000" points="462.5,-263.2 462.5,-282.2 502.5,-282.2 502.5,-263.2 462.5,-263.2"/>
<text text-anchor="start" x="465.5" y="-269.3" font-family="Helvetica,sans-Serif" font-size="11.00" fill="#000000">&lt; 2</text>
<polygon fill="#ffffff" stroke="transparent" points="502.5,-263.2 502.5,-282.2 549.5,-282.2 549.5,-263.2 502.5,-263.2"/>
<polygon fill="none" stroke="#000000" points="502.5,-263.2 502.5,-282.2 549.5,-282.2 549.5,-263.2 502.5,-263.2"/>
<text text-anchor="start" x="514.1105" y="-269.3" font-family="Helvetica,sans-Serif" font-size="11.00" fill="#000000">0 rows</text>
<polygon fill="#ffffff" stroke="transparent" points="549.5,-263.2 549.5,-282.2 571.5,-282.2 571.5,-263.2 549.5,-263.2"/>
<polygon fill="none" stroke="#000000" points="549.5,-263.2 549.5,-282.2 571.5,-282.2 571.5,-263.2 549.5,-263.2"/>
<text text-anchor="start" x="562.3862" y="-269.3" font-family="Helvetica,sans-Serif" font-size="11.00" fill="#000000"> &#160;</text>
</a>
</g>
</g>
<!-- XSCutLines -->
<g id="node2" class="node">
<title>XSCutLines</title>
<g id="a_node2"><a xlink:href="../../tables/XSCutLines.html" xlink:title="XSCutLines" target="_top">
<polygon fill="#ffffff" stroke="transparent" points="202,-38.2 202,-370.2 413,-370.2 413,-38.2 202,-38.2"/>
<polygon fill="#f5f5f5" stroke="transparent" points="204.5,-345.2 204.5,-368.2 411.5,-368.2 411.5,-345.2 204.5,-345.2"/>
<polygon fill="none" stroke="#000000" points="204.5,-345.2 204.5,-368.2 411.5,-368.2 411.5,-345.2 204.5,-345.2"/>
<text text-anchor="start" x="209.5" y="-353.8" font-family="Helvetica,sans-Serif" font-weight="bold" font-size="11.00" fill="#000000">XSCutLines</text>
<text text-anchor="start" x="376.5437" y="-353.3" font-family="Helvetica,sans-Serif" font-size="11.00" fill="#000000">[table]</text>
<polygon fill="#ffffff" stroke="transparent" points="204.5,-323.2 204.5,-345.2 292.5,-345.2 292.5,-323.2 204.5,-323.2"/>
<polygon fill="none" stroke="#000000" points="204.5,-323.2 204.5,-345.2 292.5,-345.2 292.5,-323.2 204.5,-323.2"/>
<text text-anchor="start" x="224.5" y="-330.3" font-family="Helvetica,sans-Serif" font-size="11.00" fill="#000000">geom</text>
<polygon fill="none" stroke="#000000" points="292.5,-323.2 292.5,-345.2 411.5,-345.2 411.5,-323.2 292.5,-323.2"/>
<text text-anchor="start" x="295.4485" y="-330.9" font-family="Helvetica,sans-Serif" font-size="11.00" fill="#000000">geometry[2147483647]</text>
<polygon fill="none" stroke="#000000" points="204.5,-301.2 204.5,-323.2 292.5,-323.2 292.5,-301.2 204.5,-301.2"/>
<image xlink:href="../../images/primaryKeys.png" width="11px" height="12px" preserveAspectRatio="xMinYMin meet" x="209.5" y="-318.2"/>
<text text-anchor="start" x="224.5" y="-308.3" font-family="Helvetica,sans-Serif" font-size="11.00" fill="#000000">XsecID</text>
<polygon fill="none" stroke="#000000" points="292.5,-301.2 292.5,-323.2 411.5,-323.2 411.5,-301.2 292.5,-301.2"/>
<text text-anchor="start" x="295.5" y="-308.9" font-family="Helvetica,sans-Serif" font-size="11.00" fill="#000000">serial[10]</text>
<polygon fill="none" stroke="#000000" points="204.5,-279.2 204.5,-301.2 292.5,-301.2 292.5,-279.2 204.5,-279.2"/>
<image xlink:href="../../images/foreignKeys.png" width="11px" height="12px" preserveAspectRatio="xMinYMin meet" x="209.5" y="-296.2"/>
<text text-anchor="start" x="224.5" y="-286.3" font-family="Helvetica,sans-Serif" font-size="11.00" fill="#000000">ReachID</text>
<polygon fill="none" stroke="#000000" points="292.5,-279.2 292.5,-301.2 411.5,-301.2 411.5,-279.2 292.5,-279.2"/>
<text text-anchor="start" x="295.5" y="-286.9" font-family="Helvetica,sans-Serif" font-size="11.00" fill="#000000">int4[10]</text>
<polygon fill="none" stroke="#000000" points="204.5,-257.2 204.5,-279.2 292.5,-279.2 292.5,-257.2 204.5,-257.2"/>
<text text-anchor="start" x="224.5" y="-264.3" font-family="Helvetica,sans-Serif" font-size="11.00" fill="#000000">Station</text>
<polygon fill="none" stroke="#000000" points="292.5,-257.2 292.5,-279.2 411.5,-279.2 411.5,-257.2 292.5,-257.2"/>
<text text-anchor="start" x="295.5" y="-264.9" font-family="Helvetica,sans-Serif" font-size="11.00" fill="#000000">float8[17,17]</text>
<polygon fill="none" stroke="#000000" points="204.5,-235.2 204.5,-257.2 292.5,-257.2 292.5,-235.2 204.5,-235.2"/>
<text text-anchor="start" x="224.5" y="-242.3" font-family="Helvetica,sans-Serif" font-size="11.00" fill="#000000">RiverCode</text>
<polygon fill="none" stroke="#000000" points="292.5,-235.2 292.5,-257.2 411.5,-257.2 411.5,-235.2 292.5,-235.2"/>
<text text-anchor="start" x="295.5" y="-242.9" font-family="Helvetica,sans-Serif" font-size="11.00" fill="#000000">text[2147483647]</text>
<polygon fill="none" stroke="#000000" points="204.5,-213.2 204.5,-235.2 292.5,-235.2 292.5,-213.2 204.5,-213.2"/>
<text text-anchor="start" x="224.5" y="-220.3" font-family="Helvetica,sans-Serif" font-size="11.00" fill="#000000">ReachCode</text>
<polygon fill="none" stroke="#000000" points="292.5,-213.2 292.5,-235.2 411.5,-235.2 411.5,-213.2 292.5,-213.2"/>
<text text-anchor="start" x="295.5" y="-220.9" font-family="Helvetica,sans-Serif" font-size="11.00" fill="#000000">text[2147483647]</text>
<polygon fill="none" stroke="#000000" points="204.5,-191.2 204.5,-213.2 292.5,-213.2 292.5,-191.2 204.5,-191.2"/>
<text text-anchor="start" x="224.5" y="-198.3" font-family="Helvetica,sans-Serif" font-size="11.00" fill="#000000">LeftBank</text>
<polygon fill="none" stroke="#000000" points="292.5,-191.2 292.5,-213.2 411.5,-213.2 411.5,-191.2 292.5,-191.2"/>
<text text-anchor="start" x="295.5" y="-198.9" font-family="Helvetica,sans-Serif" font-size="11.00" fill="#000000">float8[17,17]</text>
<polygon fill="none" stroke="#000000" points="204.5,-169.2 204.5,-191.2 292.5,-191.2 292.5,-169.2 204.5,-169.2"/>
<text text-anchor="start" x="224.5" y="-176.3" font-family="Helvetica,sans-Serif" font-size="11.00" fill="#000000">RightBank</text>
<polygon fill="none" stroke="#000000" points="292.5,-169.2 292.5,-191.2 411.5,-191.2 411.5,-169.2 292.5,-169.2"/>
<text text-anchor="start" x="295.5" y="-176.9" font-family="Helvetica,sans-Serif" font-size="11.00" fill="#000000">float8[17,17]</text>
<polygon fill="none" stroke="#000000" points="204.5,-147.2 204.5,-169.2 292.5,-169.2 292.5,-147.2 204.5,-147.2"/>
<text text-anchor="start" x="224.5" y="-154.3" font-family="Helvetica,sans-Serif" font-size="11.00" fill="#000000">LLength</text>
<polygon fill="none" stroke="#000000" points="292.5,-147.2 292.5,-169.2 411.5,-169.2 411.5,-147.2 292.5,-147.2"/>
<text text-anchor="start" x="295.5" y="-154.9" font-family="Helvetica,sans-Serif" font-size="11.00" fill="#000000">float8[17,17]</text>
<polygon fill="none" stroke="#000000" points="204.5,-125.2 204.5,-147.2 292.5,-147.2 292.5,-125.2 204.5,-125.2"/>
<text text-anchor="start" x="224.5" y="-132.3" font-family="Helvetica,sans-Serif" font-size="11.00" fill="#000000">ChLength</text>
<polygon fill="none" stroke="#000000" points="292.5,-125.2 292.5,-147.2 411.5,-147.2 411.5,-125.2 292.5,-125.2"/>
<text text-anchor="start" x="295.5" y="-132.9" font-family="Helvetica,sans-Serif" font-size="11.00" fill="#000000">float8[17,17]</text>
<polygon fill="none" stroke="#000000" points="204.5,-103.2 204.5,-125.2 292.5,-125.2 292.5,-103.2 204.5,-103.2"/>
<text text-anchor="start" x="224.5" y="-110.3" font-family="Helvetica,sans-Serif" font-size="11.00" fill="#000000">RLength</text>
<polygon fill="none" stroke="#000000" points="292.5,-103.2 292.5,-125.2 411.5,-125.2 411.5,-103.2 292.5,-103.2"/>
<text text-anchor="start" x="295.5" y="-110.9" font-family="Helvetica,sans-Serif" font-size="11.00" fill="#000000">float8[17,17]</text>
<polygon fill="none" stroke="#000000" points="204.5,-81.2 204.5,-103.2 292.5,-103.2 292.5,-81.2 204.5,-81.2"/>
<text text-anchor="start" x="224.5" y="-88.3" font-family="Helvetica,sans-Serif" font-size="11.00" fill="#000000">NodeName</text>
<polygon fill="none" stroke="#000000" points="292.5,-81.2 292.5,-103.2 411.5,-103.2 411.5,-81.2 292.5,-81.2"/>
<text text-anchor="start" x="295.5" y="-88.9" font-family="Helvetica,sans-Serif" font-size="11.00" fill="#000000">text[2147483647]</text>
<polygon fill="none" stroke="#000000" points="204.5,-59.2 204.5,-81.2 292.5,-81.2 292.5,-59.2 204.5,-59.2"/>
<text text-anchor="start" x="224.5" y="-66.3" font-family="Helvetica,sans-Serif" font-size="11.00" fill="#000000">DtmID</text>
<polygon fill="none" stroke="#000000" points="292.5,-59.2 292.5,-81.2 411.5,-81.2 411.5,-59.2 292.5,-59.2"/>
<text text-anchor="start" x="295.5" y="-66.9" font-family="Helvetica,sans-Serif" font-size="11.00" fill="#000000">int4[10]</text>
<polygon fill="#ffffff" stroke="transparent" points="204.5,-40.2 204.5,-59.2 239.5,-59.2 239.5,-40.2 204.5,-40.2"/>
<polygon fill="none" stroke="#000000" points="204.5,-40.2 204.5,-59.2 239.5,-59.2 239.5,-40.2 204.5,-40.2"/>
<text text-anchor="start" x="207.5" y="-46.3" font-family="Helvetica,sans-Serif" font-size="11.00" fill="#000000">&lt; 1</text>
<polygon fill="#ffffff" stroke="transparent" points="239.5,-40.2 239.5,-59.2 292.5,-59.2 292.5,-40.2 239.5,-40.2"/>
<polygon fill="none" stroke="#000000" points="239.5,-40.2 239.5,-59.2 292.5,-59.2 292.5,-40.2 239.5,-40.2"/>
<text text-anchor="start" x="257.1105" y="-46.3" font-family="Helvetica,sans-Serif" font-size="11.00" fill="#000000">0 rows</text>
<polygon fill="#ffffff" stroke="transparent" points="292.5,-40.2 292.5,-59.2 411.5,-59.2 411.5,-40.2 292.5,-40.2"/>
<polygon fill="none" stroke="#000000" points="292.5,-40.2 292.5,-59.2 411.5,-59.2 411.5,-40.2 292.5,-40.2"/>
<text text-anchor="start" x="392.9053" y="-46.3" font-family="Helvetica,sans-Serif" font-size="11.00" fill="#000000">1 &gt;</text>
<polygon fill="none" stroke="#000000" stroke-width="2" points="203,-39.2 203,-369.2 412,-369.2 412,-39.2 203,-39.2"/>
</a>
</g>
</g>
<!-- LeveePoints&#45;&gt;XSCutLines -->
<g id="edge1" class="edge">
<title>LeveePoints:w&#45;&gt;XSCutLines:e</title>
<path fill="none" stroke="#000000" stroke-dasharray="5,2" d="M447.776,-312.2C435.7815,-312.2 428.3229,-312.2 411.5,-312.2"/>
<polygon fill="#000000" stroke="#000000" points="454.5,-312.2001 462.5,-315.8 458.5,-312.2 462.5,-312.2 462.5,-312.2 462.5,-312.2 458.5,-312.2 462.5,-308.6 454.5,-312.2001 454.5,-312.2001"/>
<ellipse fill="none" stroke="#000000" cx="451.3" cy="-312.2001" rx="3.2" ry="3.2"/>
</g>
<!-- StreamCenterlines -->
<g id="node3" class="node">
<title>StreamCenterlines</title>
<g id="a_node3"><a xlink:href="../../tables/StreamCenterlines.html" xlink:title="StreamCenterlines" target="_top">
<polygon fill="#ffffff" stroke="transparent" points="8,-241.7 8,-346.7 153,-346.7 153,-241.7 8,-241.7"/>
<polygon fill="#f5f5f5" stroke="transparent" points="8.5,-323.2 8.5,-346.2 153.5,-346.2 153.5,-323.2 8.5,-323.2"/>
<polygon fill="none" stroke="#000000" points="8.5,-323.2 8.5,-346.2 153.5,-346.2 153.5,-323.2 8.5,-323.2"/>
<text text-anchor="start" x="13.5" y="-331.8" font-family="Helvetica,sans-Serif" font-weight="bold" font-size="11.00" fill="#000000">StreamCenterlines</text>
<text text-anchor="start" x="119.0219" y="-331.3" font-family="Helvetica,sans-Serif" font-size="11.00" fill="#000000">[table]</text>
<polygon fill="#ffffff" stroke="transparent" points="8.5,-301.2 8.5,-323.2 153.5,-323.2 153.5,-301.2 8.5,-301.2"/>
<polygon fill="none" stroke="#000000" points="8.5,-301.2 8.5,-323.2 153.5,-323.2 153.5,-301.2 8.5,-301.2"/>
<text text-anchor="start" x="37.5" y="-308.3" font-family="Helvetica,sans-Serif" font-size="11.00" fill="#000000">geom</text>
<polygon fill="none" stroke="#000000" points="8.5,-279.2 8.5,-301.2 153.5,-301.2 153.5,-279.2 8.5,-279.2"/>
<image xlink:href="../../images/primaryKeys.png" width="11px" height="12px" preserveAspectRatio="xMinYMin meet" x="13.5" y="-296.2"/>
<text text-anchor="start" x="37.5" y="-286.3" font-family="Helvetica,sans-Serif" font-size="11.00" fill="#000000">ReachID</text>
<polygon fill="none" stroke="#000000" points="8.5,-260.2 8.5,-279.2 153.5,-279.2 153.5,-260.2 8.5,-260.2"/>
<text text-anchor="start" x="11.5" y="-266.3" font-family="Helvetica,sans-Serif" font-size="11.00" fill="#000000">...</text>
<polygon fill="#ffffff" stroke="transparent" points="8.5,-241.2 8.5,-260.2 57.5,-260.2 57.5,-241.2 8.5,-241.2"/>
<polygon fill="none" stroke="#000000" points="8.5,-241.2 8.5,-260.2 57.5,-260.2 57.5,-241.2 8.5,-241.2"/>
<text text-anchor="start" x="11.5" y="-247.3" font-family="Helvetica,sans-Serif" font-size="11.00" fill="#000000"> &#160;</text>
<polygon fill="#ffffff" stroke="transparent" points="57.5,-241.2 57.5,-260.2 113.5,-260.2 113.5,-241.2 57.5,-241.2"/>
<polygon fill="none" stroke="#000000" points="57.5,-241.2 57.5,-260.2 113.5,-260.2 113.5,-241.2 57.5,-241.2"/>
<text text-anchor="start" x="78.1105" y="-247.3" font-family="Helvetica,sans-Serif" font-size="11.00" fill="#000000">0 rows</text>
<polygon fill="#ffffff" stroke="transparent" points="113.5,-241.2 113.5,-260.2 153.5,-260.2 153.5,-241.2 113.5,-241.2"/>
<polygon fill="none" stroke="#000000" points="113.5,-241.2 113.5,-260.2 153.5,-260.2 153.5,-241.2 113.5,-241.2"/>
<text text-anchor="start" x="134.9053" y="-247.3" font-family="Helvetica,sans-Serif" font-size="11.00" fill="#000000">1 &gt;</text>
</a>
</g>
</g>
<!-- XSCutLines&#45;&gt;StreamCenterlines -->
<g id="edge2" class="edge">
<title>XSCutLines:w&#45;&gt;StreamCenterlines:e</title>
<path fill="none" stroke="#000000" stroke-dasharray="5,2" d="M189.776,-290.2C177.7815,-290.2 170.3229,-290.2 153.5,-290.2"/>
<polygon fill="#000000" stroke="#000000" points="196.5,-290.2001 204.5,-293.8 200.5,-290.2 204.5,-290.2 204.5,-290.2 204.5,-290.2 200.5,-290.2 204.5,-286.6 196.5,-290.2001 196.5,-290.2001"/>
<ellipse fill="none" stroke="#000000" cx="193.3" cy="-290.2001" rx="3.2" ry="3.2"/>
</g>
</g>
</svg>
