<?xml version="1.0" encoding="UTF-8" standalone="no"?>
<!DOCTYPE svg PUBLIC "-//W3C//DTD SVG 1.1//EN"
 "http://www.w3.org/Graphics/SVG/1.1/DTD/svg11.dtd">
<!-- Generated by graphviz version 2.40.1 (20161225.0304)
 -->
<!-- Title: largeImpliedRelationshipsDiagram Pages: 1 -->
<svg width="518pt" height="880pt"
 viewBox="0.00 0.00 518.00 880.20" xmlns="http://www.w3.org/2000/svg" xmlns:xlink="http://www.w3.org/1999/xlink">
<g id="graph0" class="graph" transform="scale(1 1) rotate(0) translate(4 876.2)">
<title>largeImpliedRelationshipsDiagram</title>
<polygon fill="#ffffff" stroke="transparent" points="-4,4 -4,-876.2 514,-876.2 514,4 -4,4"/>
<text text-anchor="middle" x="72.4936" y="-7.3" font-family="Helvetica,sans-Serif" font-size="11.00" fill="#000000">Generated by SchemaSpy</text>
<!-- FlowAreas2d -->
<g id="node1" class="node">
<title>FlowAreas2d</title>
<g id="a_node1"><a xlink:href="../../tables/FlowAreas2d.html" xlink:title="FlowAreas2d" target="_top">
<polygon fill="#ffffff" stroke="transparent" points="24,-162.2 24,-292.2 137,-292.2 137,-162.2 24,-162.2"/>
<polygon fill="#f5f5f5" stroke="transparent" points="24.5,-269.2 24.5,-292.2 137.5,-292.2 137.5,-269.2 24.5,-269.2"/>
<polygon fill="none" stroke="#000000" points="24.5,-269.2 24.5,-292.2 137.5,-292.2 137.5,-269.2 24.5,-269.2"/>
<text text-anchor="start" x="29.5" y="-277.8" font-family="Helvetica,sans-Serif" font-weight="bold" font-size="11.00" fill="#000000">FlowAreas2d</text>
<text text-anchor="start" x="103.0219" y="-277.3" font-family="Helvetica,sans-Serif" font-size="11.00" fill="#000000">[table]</text>
<polygon fill="#ffffff" stroke="transparent" points="24.5,-247.2 24.5,-269.2 137.5,-269.2 137.5,-247.2 24.5,-247.2"/>
<polygon fill="none" stroke="#000000" points="24.5,-247.2 24.5,-269.2 137.5,-269.2 137.5,-247.2 24.5,-247.2"/>
<text text-anchor="start" x="53.5" y="-254.3" font-family="Helvetica,sans-Serif" font-size="11.00" fill="#000000">geom</text>
<polygon fill="none" stroke="#000000" points="24.5,-225.2 24.5,-247.2 137.5,-247.2 137.5,-225.2 24.5,-225.2"/>
<image xlink:href="../../images/primaryKeys.png" width="11px" height="12px" preserveAspectRatio="xMinYMin meet" x="29.5" y="-242.2"/>
<text text-anchor="start" x="53.5" y="-232.3" font-family="Helvetica,sans-Serif" font-size="11.00" fill="#000000">AreaID</text>
<polygon fill="none" stroke="#000000" points="24.5,-203.2 24.5,-225.2 137.5,-225.2 137.5,-203.2 24.5,-203.2"/>
<text text-anchor="start" x="53.5" y="-210.3" font-family="Helvetica,sans-Serif" font-size="11.00" fill="#000000">Name</text>
<polygon fill="none" stroke="#000000" points="24.5,-181.2 24.5,-203.2 137.5,-203.2 137.5,-181.2 24.5,-181.2"/>
<text text-anchor="start" x="53.5" y="-188.3" font-family="Helvetica,sans-Serif" font-size="11.00" fill="#000000">CellSize</text>
<polygon fill="#ffffff" stroke="transparent" points="24.5,-162.2 24.5,-181.2 61.5,-181.2 61.5,-162.2 24.5,-162.2"/>
<polygon fill="none" stroke="#000000" points="24.5,-162.2 24.5,-181.2 61.5,-181.2 61.5,-162.2 24.5,-162.2"/>
<text text-anchor="start" x="27.5" y="-168.3" font-family="Helvetica,sans-Serif" font-size="11.00" fill="#000000"> &#160;</text>
<polygon fill="#ffffff" stroke="transparent" points="61.5,-162.2 61.5,-181.2 112.5,-181.2 112.5,-162.2 61.5,-162.2"/>
<polygon fill="none" stroke="#000000" points="61.5,-162.2 61.5,-181.2 112.5,-181.2 112.5,-162.2 61.5,-162.2"/>
<text text-anchor="start" x="77.1105" y="-168.3" font-family="Helvetica,sans-Serif" font-size="11.00" fill="#000000">0 rows</text>
<polygon fill="#ffffff" stroke="transparent" points="112.5,-162.2 112.5,-181.2 137.5,-181.2 137.5,-162.2 112.5,-162.2"/>
<polygon fill="none" stroke="#000000" points="112.5,-162.2 112.5,-181.2 137.5,-181.2 137.5,-162.2 112.5,-162.2"/>
<text text-anchor="start" x="128.3862" y="-168.3" font-family="Helvetica,sans-Serif" font-size="11.00" fill="#000000"> &#160;</text>
</a>
</g>
</g>
<!-- BreakPoints2d -->
<g id="node2" class="node">
<title>BreakPoints2d</title>
<g id="a_node2"><a xlink:href="../../tables/BreakPoints2d.html" xlink:title="BreakPoints2d" target="_top">
<polygon fill="#ffffff" stroke="transparent" points="206,-260.2 206,-412.2 329,-412.2 329,-260.2 206,-260.2"/>
<polygon fill="#f5f5f5" stroke="transparent" points="206.5,-389.2 206.5,-412.2 329.5,-412.2 329.5,-389.2 206.5,-389.2"/>
<polygon fill="none" stroke="#000000" points="206.5,-389.2 206.5,-412.2 329.5,-412.2 329.5,-389.2 206.5,-389.2"/>
<text text-anchor="start" x="211.5" y="-397.8" font-family="Helvetica,sans-Serif" font-weight="bold" font-size="11.00" fill="#000000">BreakPoints2d</text>
<text text-anchor="start" x="295.0219" y="-397.3" font-family="Helvetica,sans-Serif" font-size="11.00" fill="#000000">[table]</text>
<polygon fill="#ffffff" stroke="transparent" points="206.5,-367.2 206.5,-389.2 329.5,-389.2 329.5,-367.2 206.5,-367.2"/>
<polygon fill="none" stroke="#000000" points="206.5,-367.2 206.5,-389.2 329.5,-389.2 329.5,-367.2 206.5,-367.2"/>
<text text-anchor="start" x="235.5" y="-374.3" font-family="Helvetica,sans-Serif" font-size="11.00" fill="#000000">geom</text>
<polygon fill="none" stroke="#000000" points="206.5,-345.2 206.5,-367.2 329.5,-367.2 329.5,-345.2 206.5,-345.2"/>
<image xlink:href="../../images/primaryKeys.png" width="11px" height="12px" preserveAspectRatio="xMinYMin meet" x="211.5" y="-362.2"/>
<text text-anchor="start" x="235.5" y="-352.3" font-family="Helvetica,sans-Serif" font-size="11.00" fill="#000000">BPID</text>
<polygon fill="none" stroke="#000000" points="206.5,-323.2 206.5,-345.2 329.5,-345.2 329.5,-323.2 206.5,-323.2"/>
<image xlink:href="../../images/foreignKeys.png" width="11px" height="12px" preserveAspectRatio="xMinYMin meet" x="211.5" y="-340.2"/>
<text text-anchor="start" x="235.5" y="-330.3" font-family="Helvetica,sans-Serif" font-size="11.00" fill="#000000">AreaID</text>
<polygon fill="none" stroke="#000000" points="206.5,-301.2 206.5,-323.2 329.5,-323.2 329.5,-301.2 206.5,-301.2"/>
<text text-anchor="start" x="235.5" y="-308.3" font-family="Helvetica,sans-Serif" font-size="11.00" fill="#000000">BLmID</text>
<polygon fill="none" stroke="#000000" points="206.5,-279.2 206.5,-301.2 329.5,-301.2 329.5,-279.2 206.5,-279.2"/>
<text text-anchor="start" x="235.5" y="-286.3" font-family="Helvetica,sans-Serif" font-size="11.00" fill="#000000">Fraction</text>
<polygon fill="#ffffff" stroke="transparent" points="206.5,-260.2 206.5,-279.2 248.5,-279.2 248.5,-260.2 206.5,-260.2"/>
<polygon fill="none" stroke="#000000" points="206.5,-260.2 206.5,-279.2 248.5,-279.2 248.5,-260.2 206.5,-260.2"/>
<text text-anchor="start" x="209.5" y="-266.3" font-family="Helvetica,sans-Serif" font-size="11.00" fill="#000000"> &#160;</text>
<polygon fill="#ffffff" stroke="transparent" points="248.5,-260.2 248.5,-279.2 301.5,-279.2 301.5,-260.2 248.5,-260.2"/>
<polygon fill="none" stroke="#000000" points="248.5,-260.2 248.5,-279.2 301.5,-279.2 301.5,-260.2 248.5,-260.2"/>
<text text-anchor="start" x="266.1105" y="-266.3" font-family="Helvetica,sans-Serif" font-size="11.00" fill="#000000">0 rows</text>
<polygon fill="#ffffff" stroke="transparent" points="301.5,-260.2 301.5,-279.2 329.5,-279.2 329.5,-260.2 301.5,-260.2"/>
<polygon fill="none" stroke="#000000" points="301.5,-260.2 301.5,-279.2 329.5,-279.2 329.5,-260.2 301.5,-260.2"/>
<text text-anchor="start" x="320.3862" y="-266.3" font-family="Helvetica,sans-Serif" font-size="11.00" fill="#000000"> &#160;</text>
</a>
</g>
</g>
<!-- BreakPoints2d&#45;&gt;FlowAreas2d -->
<g id="edge2" class="edge">
<title>BreakPoints2d:w&#45;&gt;FlowAreas2d:e</title>
<path fill="none" stroke="#000000" stroke-dasharray="5,2" d="M192.0425,-330.9394C160.3564,-313.9349 184.9422,-236.2 137.5,-236.2"/>
<polygon fill="#000000" stroke="#000000" points="198.696,-332.4399 205.708,-337.7118 202.598,-333.32 206.5,-334.2 206.5,-334.2 206.5,-334.2 202.598,-333.32 207.292,-330.6882 198.696,-332.4399 198.696,-332.4399"/>
<ellipse fill="none" stroke="#000000" cx="195.5744" cy="-331.7359" rx="3.2" ry="3.2"/>
</g>
<!-- StreamCenterlines -->
<g id="node3" class="node">
<title>StreamCenterlines</title>
<g id="a_node3"><a xlink:href="../../tables/StreamCenterlines.html" xlink:title="StreamCenterlines" target="_top">
<polygon fill="#ffffff" stroke="transparent" points="8,-477.2 8,-739.2 153,-739.2 153,-477.2 8,-477.2"/>
<polygon fill="#f5f5f5" stroke="transparent" points="8.5,-716.2 8.5,-739.2 153.5,-739.2 153.5,-716.2 8.5,-716.2"/>
<polygon fill="none" stroke="#000000" points="8.5,-716.2 8.5,-739.2 153.5,-739.2 153.5,-716.2 8.5,-716.2"/>
<text text-anchor="start" x="13.5" y="-724.8" font-family="Helvetica,sans-Serif" font-weight="bold" font-size="11.00" fill="#000000">StreamCenterlines</text>
<text text-anchor="start" x="119.0219" y="-724.3" font-family="Helvetica,sans-Serif" font-size="11.00" fill="#000000">[table]</text>
<polygon fill="#ffffff" stroke="transparent" points="8.5,-694.2 8.5,-716.2 153.5,-716.2 153.5,-694.2 8.5,-694.2"/>
<polygon fill="none" stroke="#000000" points="8.5,-694.2 8.5,-716.2 153.5,-716.2 153.5,-694.2 8.5,-694.2"/>
<text text-anchor="start" x="37.5" y="-701.3" font-family="Helvetica,sans-Serif" font-size="11.00" fill="#000000">geom</text>
<polygon fill="none" stroke="#000000" points="8.5,-672.2 8.5,-694.2 153.5,-694.2 153.5,-672.2 8.5,-672.2"/>
<image xlink:href="../../images/primaryKeys.png" width="11px" height="12px" preserveAspectRatio="xMinYMin meet" x="13.5" y="-689.2"/>
<text text-anchor="start" x="37.5" y="-679.3" font-family="Helvetica,sans-Serif" font-size="11.00" fill="#000000">ReachID</text>
<polygon fill="none" stroke="#000000" points="8.5,-650.2 8.5,-672.2 153.5,-672.2 153.5,-650.2 8.5,-650.2"/>
<text text-anchor="start" x="37.5" y="-657.3" font-family="Helvetica,sans-Serif" font-size="11.00" fill="#000000">RiverCode</text>
<polygon fill="none" stroke="#000000" points="8.5,-628.2 8.5,-650.2 153.5,-650.2 153.5,-628.2 8.5,-628.2"/>
<text text-anchor="start" x="37.5" y="-635.3" font-family="Helvetica,sans-Serif" font-size="11.00" fill="#000000">ReachCode</text>
<polygon fill="none" stroke="#000000" points="8.5,-606.2 8.5,-628.2 153.5,-628.2 153.5,-606.2 8.5,-606.2"/>
<text text-anchor="start" x="37.5" y="-613.3" font-family="Helvetica,sans-Serif" font-size="11.00" fill="#000000">FromNode</text>
<polygon fill="none" stroke="#000000" points="8.5,-584.2 8.5,-606.2 153.5,-606.2 153.5,-584.2 8.5,-584.2"/>
<text text-anchor="start" x="37.5" y="-591.3" font-family="Helvetica,sans-Serif" font-size="11.00" fill="#000000">ToNode</text>
<polygon fill="none" stroke="#000000" points="8.5,-562.2 8.5,-584.2 153.5,-584.2 153.5,-562.2 8.5,-562.2"/>
<text text-anchor="start" x="37.5" y="-569.3" font-family="Helvetica,sans-Serif" font-size="11.00" fill="#000000">ReachLen</text>
<polygon fill="none" stroke="#000000" points="8.5,-540.2 8.5,-562.2 153.5,-562.2 153.5,-540.2 8.5,-540.2"/>
<text text-anchor="start" x="37.5" y="-547.3" font-family="Helvetica,sans-Serif" font-size="11.00" fill="#000000">FromSta</text>
<polygon fill="none" stroke="#000000" points="8.5,-518.2 8.5,-540.2 153.5,-540.2 153.5,-518.2 8.5,-518.2"/>
<text text-anchor="start" x="37.5" y="-525.3" font-family="Helvetica,sans-Serif" font-size="11.00" fill="#000000">ToSta</text>
<polygon fill="none" stroke="#000000" points="8.5,-496.2 8.5,-518.2 153.5,-518.2 153.5,-496.2 8.5,-496.2"/>
<text text-anchor="start" x="37.5" y="-503.3" font-family="Helvetica,sans-Serif" font-size="11.00" fill="#000000">Notes</text>
<polygon fill="#ffffff" stroke="transparent" points="8.5,-477.2 8.5,-496.2 61.5,-496.2 61.5,-477.2 8.5,-477.2"/>
<polygon fill="none" stroke="#000000" points="8.5,-477.2 8.5,-496.2 61.5,-496.2 61.5,-477.2 8.5,-477.2"/>
<text text-anchor="start" x="11.5" y="-483.3" font-family="Helvetica,sans-Serif" font-size="11.00" fill="#000000"> &#160;</text>
<polygon fill="#ffffff" stroke="transparent" points="61.5,-477.2 61.5,-496.2 120.5,-496.2 120.5,-477.2 61.5,-477.2"/>
<polygon fill="none" stroke="#000000" points="61.5,-477.2 61.5,-496.2 120.5,-496.2 120.5,-477.2 61.5,-477.2"/>
<text text-anchor="start" x="85.1105" y="-483.3" font-family="Helvetica,sans-Serif" font-size="11.00" fill="#000000">0 rows</text>
<polygon fill="#ffffff" stroke="transparent" points="120.5,-477.2 120.5,-496.2 153.5,-496.2 153.5,-477.2 120.5,-477.2"/>
<polygon fill="none" stroke="#000000" points="120.5,-477.2 120.5,-496.2 153.5,-496.2 153.5,-477.2 120.5,-477.2"/>
<text text-anchor="start" x="144.3862" y="-483.3" font-family="Helvetica,sans-Serif" font-size="11.00" fill="#000000"> &#160;</text>
</a>
</g>
</g>
<!-- LeveePoints -->
<g id="node4" class="node">
<title>LeveePoints</title>
<g id="a_node4"><a xlink:href="../../tables/LeveePoints.html" xlink:title="LeveePoints" target="_top">
<polygon fill="#ffffff" stroke="transparent" points="387.5,-673.2 387.5,-847.2 496.5,-847.2 496.5,-673.2 387.5,-673.2"/>
<polygon fill="#f5f5f5" stroke="transparent" points="388,-824.2 388,-847.2 497,-847.2 497,-824.2 388,-824.2"/>
<polygon fill="none" stroke="#000000" points="388,-824.2 388,-847.2 497,-847.2 497,-824.2 388,-824.2"/>
<text text-anchor="start" x="393" y="-832.8" font-family="Helvetica,sans-Serif" font-weight="bold" font-size="11.00" fill="#000000">LeveePoints</text>
<text text-anchor="start" x="462.5219" y="-832.3" font-family="Helvetica,sans-Serif" font-size="11.00" fill="#000000">[table]</text>
<polygon fill="none" stroke="#000000" points="388,-802.2 388,-824.2 497,-824.2 497,-802.2 388,-802.2"/>
<text text-anchor="start" x="417" y="-809.3" font-family="Helvetica,sans-Serif" font-size="11.00" fill="#000000">geom</text>
<polygon fill="none" stroke="#000000" points="388,-780.2 388,-802.2 497,-802.2 497,-780.2 388,-780.2"/>
<image xlink:href="../../images/primaryKeys.png" width="11px" height="12px" preserveAspectRatio="xMinYMin meet" x="393" y="-797.2"/>
<text text-anchor="start" x="417" y="-787.3" font-family="Helvetica,sans-Serif" font-size="11.00" fill="#000000">LeveePID</text>
<polygon fill="none" stroke="#000000" points="388,-758.2 388,-780.2 497,-780.2 497,-758.2 388,-758.2"/>
<image xlink:href="../../images/foreignKeys.png" width="11px" height="12px" preserveAspectRatio="xMinYMin meet" x="393" y="-775.2"/>
<text text-anchor="start" x="417" y="-765.3" font-family="Helvetica,sans-Serif" font-size="11.00" fill="#000000">LeveeID</text>
<polygon fill="none" stroke="#000000" points="388,-736.2 388,-758.2 497,-758.2 497,-736.2 388,-736.2"/>
<image xlink:href="../../images/foreignKeys.png" width="11px" height="12px" preserveAspectRatio="xMinYMin meet" x="393" y="-753.2"/>
<text text-anchor="start" x="417" y="-743.3" font-family="Helvetica,sans-Serif" font-size="11.00" fill="#000000">XsecID</text>
<polygon fill="none" stroke="#000000" points="388,-714.2 388,-736.2 497,-736.2 497,-714.2 388,-714.2"/>
<text text-anchor="start" x="417" y="-721.3" font-family="Helvetica,sans-Serif" font-size="11.00" fill="#000000">Fraction</text>
<polygon fill="none" stroke="#000000" points="388,-692.2 388,-714.2 497,-714.2 497,-692.2 388,-692.2"/>
<text text-anchor="start" x="417" y="-699.3" font-family="Helvetica,sans-Serif" font-size="11.00" fill="#000000">Elevation</text>
<polygon fill="#ffffff" stroke="transparent" points="388,-673.2 388,-692.2 423,-692.2 423,-673.2 388,-673.2"/>
<polygon fill="none" stroke="#000000" points="388,-673.2 388,-692.2 423,-692.2 423,-673.2 388,-673.2"/>
<text text-anchor="start" x="391" y="-679.3" font-family="Helvetica,sans-Serif" font-size="11.00" fill="#000000"> &#160;</text>
<polygon fill="#ffffff" stroke="transparent" points="423,-673.2 423,-692.2 473,-692.2 473,-673.2 423,-673.2"/>
<polygon fill="none" stroke="#000000" points="423,-673.2 423,-692.2 473,-692.2 473,-673.2 423,-673.2"/>
<text text-anchor="start" x="437.6105" y="-679.3" font-family="Helvetica,sans-Serif" font-size="11.00" fill="#000000">0 rows</text>
<polygon fill="#ffffff" stroke="transparent" points="473,-673.2 473,-692.2 497,-692.2 497,-673.2 473,-673.2"/>
<polygon fill="none" stroke="#000000" points="473,-673.2 473,-692.2 497,-692.2 497,-673.2 473,-673.2"/>
<text text-anchor="start" x="487.8862" y="-679.3" font-family="Helvetica,sans-Serif" font-size="11.00" fill="#000000"> &#160;</text>
</a>
</g>
</g>
<!-- XSCutLines -->
<g id="node5" class="node">
<title>XSCutLines</title>
<g id="a_node5"><a xlink:href="../../tables/XSCutLines.html" xlink:title="XSCutLines" target="_top">
<polygon fill="#ffffff" stroke="transparent" points="214.5,-433.2 214.5,-761.2 320.5,-761.2 320.5,-433.2 214.5,-433.2"/>
<polygon fill="#f5f5f5" stroke="transparent" points="214.5,-738.2 214.5,-761.2 320.5,-761.2 320.5,-738.2 214.5,-738.2"/>
<polygon fill="none" stroke="#000000" points="214.5,-738.2 214.5,-761.2 320.5,-761.2 320.5,-738.2 214.5,-738.2"/>
<text text-anchor="start" x="219.5" y="-746.8" font-family="Helvetica,sans-Serif" font-weight="bold" font-size="11.00" fill="#000000">XSCutLines</text>
<text text-anchor="start" x="286.0219" y="-746.3" font-family="Helvetica,sans-Serif" font-size="11.00" fill="#000000">[table]</text>
<polygon fill="#ffffff" stroke="transparent" points="214.5,-716.2 214.5,-738.2 320.5,-738.2 320.5,-716.2 214.5,-716.2"/>
<polygon fill="none" stroke="#000000" points="214.5,-716.2 214.5,-738.2 320.5,-738.2 320.5,-716.2 214.5,-716.2"/>
<text text-anchor="start" x="243.5" y="-723.3" font-family="Helvetica,sans-Serif" font-size="11.00" fill="#000000">geom</text>
<polygon fill="none" stroke="#000000" points="214.5,-694.2 214.5,-716.2 320.5,-716.2 320.5,-694.2 214.5,-694.2"/>
<image xlink:href="../../images/primaryKeys.png" width="11px" height="12px" preserveAspectRatio="xMinYMin meet" x="219.5" y="-711.2"/>
<text text-anchor="start" x="243.5" y="-701.3" font-family="Helvetica,sans-Serif" font-size="11.00" fill="#000000">XsecID</text>
<polygon fill="none" stroke="#000000" points="214.5,-672.2 214.5,-694.2 320.5,-694.2 320.5,-672.2 214.5,-672.2"/>
<image xlink:href="../../images/foreignKeys.png" width="11px" height="12px" preserveAspectRatio="xMinYMin meet" x="219.5" y="-689.2"/>
<text text-anchor="start" x="243.5" y="-679.3" font-family="Helvetica,sans-Serif" font-size="11.00" fill="#000000">ReachID</text>
<polygon fill="none" stroke="#000000" points="214.5,-650.2 214.5,-672.2 320.5,-672.2 320.5,-650.2 214.5,-650.2"/>
<text text-anchor="start" x="243.5" y="-657.3" font-family="Helvetica,sans-Serif" font-size="11.00" fill="#000000">Station</text>
<polygon fill="none" stroke="#000000" points="214.5,-628.2 214.5,-650.2 320.5,-650.2 320.5,-628.2 214.5,-628.2"/>
<text text-anchor="start" x="243.5" y="-635.3" font-family="Helvetica,sans-Serif" font-size="11.00" fill="#000000">RiverCode</text>
<polygon fill="none" stroke="#000000" points="214.5,-606.2 214.5,-628.2 320.5,-628.2 320.5,-606.2 214.5,-606.2"/>
<text text-anchor="start" x="243.5" y="-613.3" font-family="Helvetica,sans-Serif" font-size="11.00" fill="#000000">ReachCode</text>
<polygon fill="none" stroke="#000000" points="214.5,-584.2 214.5,-606.2 320.5,-606.2 320.5,-584.2 214.5,-584.2"/>
<text text-anchor="start" x="243.5" y="-591.3" font-family="Helvetica,sans-Serif" font-size="11.00" fill="#000000">LeftBank</text>
<polygon fill="none" stroke="#000000" points="214.5,-562.2 214.5,-584.2 320.5,-584.2 320.5,-562.2 214.5,-562.2"/>
<text text-anchor="start" x="243.5" y="-569.3" font-family="Helvetica,sans-Serif" font-size="11.00" fill="#000000">RightBank</text>
<polygon fill="none" stroke="#000000" points="214.5,-540.2 214.5,-562.2 320.5,-562.2 320.5,-540.2 214.5,-540.2"/>
<text text-anchor="start" x="243.5" y="-547.3" font-family="Helvetica,sans-Serif" font-size="11.00" fill="#000000">LLength</text>
<polygon fill="none" stroke="#000000" points="214.5,-518.2 214.5,-540.2 320.5,-540.2 320.5,-518.2 214.5,-518.2"/>
<text text-anchor="start" x="243.5" y="-525.3" font-family="Helvetica,sans-Serif" font-size="11.00" fill="#000000">ChLength</text>
<polygon fill="none" stroke="#000000" points="214.5,-496.2 214.5,-518.2 320.5,-518.2 320.5,-496.2 214.5,-496.2"/>
<text text-anchor="start" x="243.5" y="-503.3" font-family="Helvetica,sans-Serif" font-size="11.00" fill="#000000">RLength</text>
<polygon fill="none" stroke="#000000" points="214.5,-474.2 214.5,-496.2 320.5,-496.2 320.5,-474.2 214.5,-474.2"/>
<text text-anchor="start" x="243.5" y="-481.3" font-family="Helvetica,sans-Serif" font-size="11.00" fill="#000000">NodeName</text>
<polygon fill="none" stroke="#000000" points="214.5,-452.2 214.5,-474.2 320.5,-474.2 320.5,-452.2 214.5,-452.2"/>
<text text-anchor="start" x="243.5" y="-459.3" font-family="Helvetica,sans-Serif" font-size="11.00" fill="#000000">DtmID</text>
<polygon fill="#ffffff" stroke="transparent" points="214.5,-433.2 214.5,-452.2 248.5,-452.2 248.5,-433.2 214.5,-433.2"/>
<polygon fill="none" stroke="#000000" points="214.5,-433.2 214.5,-452.2 248.5,-452.2 248.5,-433.2 214.5,-433.2"/>
<text text-anchor="start" x="217.5" y="-439.3" font-family="Helvetica,sans-Serif" font-size="11.00" fill="#000000"> &#160;</text>
<polygon fill="#ffffff" stroke="transparent" points="248.5,-433.2 248.5,-452.2 297.5,-452.2 297.5,-433.2 248.5,-433.2"/>
<polygon fill="none" stroke="#000000" points="248.5,-433.2 248.5,-452.2 297.5,-452.2 297.5,-433.2 248.5,-433.2"/>
<text text-anchor="start" x="262.1105" y="-439.3" font-family="Helvetica,sans-Serif" font-size="11.00" fill="#000000">0 rows</text>
<polygon fill="#ffffff" stroke="transparent" points="297.5,-433.2 297.5,-452.2 320.5,-452.2 320.5,-433.2 297.5,-433.2"/>
<polygon fill="none" stroke="#000000" points="297.5,-433.2 297.5,-452.2 320.5,-452.2 320.5,-433.2 297.5,-433.2"/>
<text text-anchor="start" x="311.3862" y="-439.3" font-family="Helvetica,sans-Serif" font-size="11.00" fill="#000000"> &#160;</text>
</a>
</g>
</g>
<!-- LeveePoints&#45;&gt;XSCutLines -->
<g id="edge4" class="edge">
<title>LeveePoints:w&#45;&gt;XSCutLines:e</title>
<path fill="none" stroke="#000000" stroke-dasharray="5,2" d="M373.6697,-744.3132C352.6935,-734.8242 350.1745,-705.2 320.5,-705.2"/>
<polygon fill="#000000" stroke="#000000" points="380.1575,-745.6201 387.289,-750.7291 384.0788,-746.41 388,-747.2 388,-747.2 388,-747.2 384.0788,-746.41 388.711,-743.6709 380.1575,-745.6201 380.1575,-745.6201"/>
<ellipse fill="none" stroke="#000000" cx="377.0206" cy="-744.9881" rx="3.2" ry="3.2"/>
</g>
<!-- LeveeAlignment -->
<g id="node8" class="node">
<title>LeveeAlignment</title>
<g id="a_node8"><a xlink:href="../../tables/LeveeAlignment.html" xlink:title="LeveeAlignment" target="_top">
<polygon fill="#ffffff" stroke="transparent" points="202,-782.2 202,-868.2 333,-868.2 333,-782.2 202,-782.2"/>
<polygon fill="#f5f5f5" stroke="transparent" points="202.5,-845.2 202.5,-868.2 333.5,-868.2 333.5,-845.2 202.5,-845.2"/>
<polygon fill="none" stroke="#000000" points="202.5,-845.2 202.5,-868.2 333.5,-868.2 333.5,-845.2 202.5,-845.2"/>
<text text-anchor="start" x="207.5" y="-853.8" font-family="Helvetica,sans-Serif" font-weight="bold" font-size="11.00" fill="#000000">LeveeAlignment</text>
<text text-anchor="start" x="299.0219" y="-853.3" font-family="Helvetica,sans-Serif" font-size="11.00" fill="#000000">[table]</text>
<polygon fill="#ffffff" stroke="transparent" points="202.5,-823.2 202.5,-845.2 333.5,-845.2 333.5,-823.2 202.5,-823.2"/>
<polygon fill="none" stroke="#000000" points="202.5,-823.2 202.5,-845.2 333.5,-845.2 333.5,-823.2 202.5,-823.2"/>
<text text-anchor="start" x="231.5" y="-830.3" font-family="Helvetica,sans-Serif" font-size="11.00" fill="#000000">geom</text>
<polygon fill="none" stroke="#000000" points="202.5,-801.2 202.5,-823.2 333.5,-823.2 333.5,-801.2 202.5,-801.2"/>
<image xlink:href="../../images/primaryKeys.png" width="11px" height="12px" preserveAspectRatio="xMinYMin meet" x="207.5" y="-818.2"/>
<text text-anchor="start" x="231.5" y="-808.3" font-family="Helvetica,sans-Serif" font-size="11.00" fill="#000000">LeveeID</text>
<polygon fill="#ffffff" stroke="transparent" points="202.5,-782.2 202.5,-801.2 248.5,-801.2 248.5,-782.2 202.5,-782.2"/>
<polygon fill="none" stroke="#000000" points="202.5,-782.2 202.5,-801.2 248.5,-801.2 248.5,-782.2 202.5,-782.2"/>
<text text-anchor="start" x="205.5" y="-788.3" font-family="Helvetica,sans-Serif" font-size="11.00" fill="#000000"> &#160;</text>
<polygon fill="#ffffff" stroke="transparent" points="248.5,-782.2 248.5,-801.2 303.5,-801.2 303.5,-782.2 248.5,-782.2"/>
<polygon fill="none" stroke="#000000" points="248.5,-782.2 248.5,-801.2 303.5,-801.2 303.5,-782.2 248.5,-782.2"/>
<text text-anchor="start" x="268.1105" y="-788.3" font-family="Helvetica,sans-Serif" font-size="11.00" fill="#000000">0 rows</text>
<polygon fill="#ffffff" stroke="transparent" points="303.5,-782.2 303.5,-801.2 333.5,-801.2 333.5,-782.2 303.5,-782.2"/>
<polygon fill="none" stroke="#000000" points="303.5,-782.2 303.5,-801.2 333.5,-801.2 333.5,-782.2 303.5,-782.2"/>
<text text-anchor="start" x="324.3862" y="-788.3" font-family="Helvetica,sans-Serif" font-size="11.00" fill="#000000"> &#160;</text>
</a>
</g>
</g>
<!-- LeveePoints&#45;&gt;LeveeAlignment -->
<g id="edge3" class="edge">
<title>LeveePoints:w&#45;&gt;LeveeAlignment:e</title>
<path fill="none" stroke="#000000" stroke-dasharray="5,2" d="M374.1573,-773.1683C358.511,-783.8133 358.5686,-812.2 333.5,-812.2"/>
<polygon fill="#000000" stroke="#000000" points="380.3097,-771.4046 388.9921,-772.6606 384.1549,-770.3023 388,-769.2 388,-769.2 388,-769.2 384.1549,-770.3023 387.0079,-765.7394 380.3097,-771.4046 380.3097,-771.4046"/>
<ellipse fill="none" stroke="#000000" cx="377.2336" cy="-772.2864" rx="3.2" ry="3.2"/>
</g>
<!-- XSCutLines&#45;&gt;StreamCenterlines -->
<g id="edge7" class="edge">
<title>XSCutLines:w&#45;&gt;StreamCenterlines:e</title>
<path fill="none" stroke="#000000" stroke-dasharray="5,2" d="M199.6762,-683.2C183.6248,-683.2 174.8924,-683.2 153.5,-683.2"/>
<polygon fill="#000000" stroke="#000000" points="206.5,-683.2001 214.5,-686.8 210.5,-683.2 214.5,-683.2 214.5,-683.2 214.5,-683.2 210.5,-683.2 214.5,-679.6 206.5,-683.2001 206.5,-683.2001"/>
<ellipse fill="none" stroke="#000000" cx="203.3" cy="-683.2001" rx="3.2" ry="3.2"/>
</g>
<!-- MeshPoints2d -->
<g id="node6" class="node">
<title>MeshPoints2d</title>
<g id="a_node6"><a xlink:href="../../tables/MeshPoints2d.html" xlink:title="MeshPoints2d" target="_top">
<polygon fill="#ffffff" stroke="transparent" points="382,-133.2 382,-285.2 502,-285.2 502,-133.2 382,-133.2"/>
<polygon fill="#f5f5f5" stroke="transparent" points="382,-262.2 382,-285.2 502,-285.2 502,-262.2 382,-262.2"/>
<polygon fill="none" stroke="#000000" points="382,-262.2 382,-285.2 502,-285.2 502,-262.2 382,-262.2"/>
<text text-anchor="start" x="387" y="-270.8" font-family="Helvetica,sans-Serif" font-weight="bold" font-size="11.00" fill="#000000">MeshPoints2d</text>
<text text-anchor="start" x="467.5219" y="-270.3" font-family="Helvetica,sans-Serif" font-size="11.00" fill="#000000">[table]</text>
<polygon fill="#ffffff" stroke="transparent" points="382,-240.2 382,-262.2 502,-262.2 502,-240.2 382,-240.2"/>
<polygon fill="none" stroke="#000000" points="382,-240.2 382,-262.2 502,-262.2 502,-240.2 382,-240.2"/>
<text text-anchor="start" x="411" y="-247.3" font-family="Helvetica,sans-Serif" font-size="11.00" fill="#000000">geom</text>
<polygon fill="none" stroke="#000000" points="382,-218.2 382,-240.2 502,-240.2 502,-218.2 382,-218.2"/>
<image xlink:href="../../images/primaryKeys.png" width="11px" height="12px" preserveAspectRatio="xMinYMin meet" x="387" y="-235.2"/>
<text text-anchor="start" x="411" y="-225.3" font-family="Helvetica,sans-Serif" font-size="11.00" fill="#000000">MPID</text>
<polygon fill="none" stroke="#000000" points="382,-196.2 382,-218.2 502,-218.2 502,-196.2 382,-196.2"/>
<image xlink:href="../../images/foreignKeys.png" width="11px" height="12px" preserveAspectRatio="xMinYMin meet" x="387" y="-213.2"/>
<text text-anchor="start" x="411" y="-203.3" font-family="Helvetica,sans-Serif" font-size="11.00" fill="#000000">AreaID</text>
<polygon fill="none" stroke="#000000" points="382,-174.2 382,-196.2 502,-196.2 502,-174.2 382,-174.2"/>
<image xlink:href="../../images/foreignKeys.png" width="11px" height="12px" preserveAspectRatio="xMinYMin meet" x="387" y="-191.2"/>
<text text-anchor="start" x="411" y="-181.3" font-family="Helvetica,sans-Serif" font-size="11.00" fill="#000000">BLID</text>
<polygon fill="none" stroke="#000000" points="382,-152.2 382,-174.2 502,-174.2 502,-152.2 382,-152.2"/>
<text text-anchor="start" x="411" y="-159.3" font-family="Helvetica,sans-Serif" font-size="11.00" fill="#000000">CellSize</text>
<polygon fill="#ffffff" stroke="transparent" points="382,-133.2 382,-152.2 423,-152.2 423,-133.2 382,-133.2"/>
<polygon fill="none" stroke="#000000" points="382,-133.2 382,-152.2 423,-152.2 423,-133.2 382,-133.2"/>
<text text-anchor="start" x="385" y="-139.3" font-family="Helvetica,sans-Serif" font-size="11.00" fill="#000000"> &#160;</text>
<polygon fill="#ffffff" stroke="transparent" points="423,-133.2 423,-152.2 475,-152.2 475,-133.2 423,-133.2"/>
<polygon fill="none" stroke="#000000" points="423,-133.2 423,-152.2 475,-152.2 475,-133.2 423,-133.2"/>
<text text-anchor="start" x="439.6105" y="-139.3" font-family="Helvetica,sans-Serif" font-size="11.00" fill="#000000">0 rows</text>
<polygon fill="#ffffff" stroke="transparent" points="475,-133.2 475,-152.2 502,-152.2 502,-133.2 475,-133.2"/>
<polygon fill="none" stroke="#000000" points="475,-133.2 475,-152.2 502,-152.2 502,-133.2 475,-133.2"/>
<text text-anchor="start" x="492.8862" y="-139.3" font-family="Helvetica,sans-Serif" font-size="11.00" fill="#000000"> &#160;</text>
</a>
</g>
</g>
<!-- MeshPoints2d&#45;&gt;FlowAreas2d -->
<g id="edge5" class="edge">
<title>MeshPoints2d:w&#45;&gt;FlowAreas2d:e</title>
<path fill="none" stroke="#000000" stroke-dasharray="5,2" d="M367.7153,-209.8654C359.3625,-213.3745 354.0476,-219.423 341,-222.2 252.3279,-241.0727 228.1582,-236.2 137.5,-236.2"/>
<polygon fill="#000000" stroke="#000000" points="374.1357,-208.6675 382.6604,-210.7389 378.0679,-207.9337 382,-207.2 382,-207.2 382,-207.2 378.0679,-207.9337 381.3396,-203.6611 374.1357,-208.6675 374.1357,-208.6675"/>
<ellipse fill="none" stroke="#000000" cx="370.99" cy="-209.2544" rx="3.2" ry="3.2"/>
</g>
<!-- BreakLines2d -->
<g id="node7" class="node">
<title>BreakLines2d</title>
<g id="a_node7"><a xlink:href="../../tables/BreakLines2d.html" xlink:title="BreakLines2d" target="_top">
<polygon fill="#ffffff" stroke="transparent" points="209,-38.2 209,-212.2 326,-212.2 326,-38.2 209,-38.2"/>
<polygon fill="#f5f5f5" stroke="transparent" points="209.5,-189.2 209.5,-212.2 326.5,-212.2 326.5,-189.2 209.5,-189.2"/>
<polygon fill="none" stroke="#000000" points="209.5,-189.2 209.5,-212.2 326.5,-212.2 326.5,-189.2 209.5,-189.2"/>
<text text-anchor="start" x="214.5" y="-197.8" font-family="Helvetica,sans-Serif" font-weight="bold" font-size="11.00" fill="#000000">BreakLines2d</text>
<text text-anchor="start" x="292.0219" y="-197.3" font-family="Helvetica,sans-Serif" font-size="11.00" fill="#000000">[table]</text>
<polygon fill="#ffffff" stroke="transparent" points="209.5,-167.2 209.5,-189.2 326.5,-189.2 326.5,-167.2 209.5,-167.2"/>
<polygon fill="none" stroke="#000000" points="209.5,-167.2 209.5,-189.2 326.5,-189.2 326.5,-167.2 209.5,-167.2"/>
<text text-anchor="start" x="234.5" y="-174.3" font-family="Helvetica,sans-Serif" font-size="11.00" fill="#000000">geom</text>
<polygon fill="none" stroke="#000000" points="209.5,-145.2 209.5,-167.2 326.5,-167.2 326.5,-145.2 209.5,-145.2"/>
<image xlink:href="../../images/primaryKeys.png" width="11px" height="12px" preserveAspectRatio="xMinYMin meet" x="214.5" y="-162.2"/>
<text text-anchor="start" x="234.5" y="-152.3" font-family="Helvetica,sans-Serif" font-size="11.00" fill="#000000">BLID</text>
<polygon fill="none" stroke="#000000" points="209.5,-123.2 209.5,-145.2 326.5,-145.2 326.5,-123.2 209.5,-123.2"/>
<image xlink:href="../../images/foreignKeys.png" width="11px" height="12px" preserveAspectRatio="xMinYMin meet" x="214.5" y="-140.2"/>
<text text-anchor="start" x="234.5" y="-130.3" font-family="Helvetica,sans-Serif" font-size="11.00" fill="#000000">AreaID</text>
<polygon fill="none" stroke="#000000" points="209.5,-101.2 209.5,-123.2 326.5,-123.2 326.5,-101.2 209.5,-101.2"/>
<text text-anchor="start" x="234.5" y="-108.3" font-family="Helvetica,sans-Serif" font-size="11.00" fill="#000000">CellSizeAlong</text>
<polygon fill="none" stroke="#000000" points="209.5,-79.2 209.5,-101.2 326.5,-101.2 326.5,-79.2 209.5,-79.2"/>
<text text-anchor="start" x="234.5" y="-86.3" font-family="Helvetica,sans-Serif" font-size="11.00" fill="#000000">CellSizeAcross</text>
<polygon fill="none" stroke="#000000" points="209.5,-57.2 209.5,-79.2 326.5,-79.2 326.5,-57.2 209.5,-57.2"/>
<text text-anchor="start" x="234.5" y="-64.3" font-family="Helvetica,sans-Serif" font-size="11.00" fill="#000000">RowsAligned</text>
<polygon fill="#ffffff" stroke="transparent" points="209.5,-38.2 209.5,-57.2 248.5,-57.2 248.5,-38.2 209.5,-38.2"/>
<polygon fill="none" stroke="#000000" points="209.5,-38.2 209.5,-57.2 248.5,-57.2 248.5,-38.2 209.5,-38.2"/>
<text text-anchor="start" x="212.5" y="-44.3" font-family="Helvetica,sans-Serif" font-size="11.00" fill="#000000"> &#160;</text>
<polygon fill="#ffffff" stroke="transparent" points="248.5,-38.2 248.5,-57.2 300.5,-57.2 300.5,-38.2 248.5,-38.2"/>
<polygon fill="none" stroke="#000000" points="248.5,-38.2 248.5,-57.2 300.5,-57.2 300.5,-38.2 248.5,-38.2"/>
<text text-anchor="start" x="265.1105" y="-44.3" font-family="Helvetica,sans-Serif" font-size="11.00" fill="#000000">0 rows</text>
<polygon fill="#ffffff" stroke="transparent" points="300.5,-38.2 300.5,-57.2 326.5,-57.2 326.5,-38.2 300.5,-38.2"/>
<polygon fill="none" stroke="#000000" points="300.5,-38.2 300.5,-57.2 326.5,-57.2 326.5,-38.2 300.5,-38.2"/>
<text text-anchor="start" x="317.3862" y="-44.3" font-family="Helvetica,sans-Serif" font-size="11.00" fill="#000000"> &#160;</text>
</a>
</g>
</g>
<!-- MeshPoints2d&#45;&gt;BreakLines2d -->
<g id="edge6" class="edge">
<title>MeshPoints2d:w&#45;&gt;BreakLines2d:e</title>
<path fill="none" stroke="#000000" stroke-dasharray="5,2" d="M367.5993,-181.8733C352.9918,-174.256 348.4604,-156.2 326.5,-156.2"/>
<polygon fill="#000000" stroke="#000000" points="374.2053,-183.3993 381.1897,-188.7076 378.1026,-184.2997 382,-185.2 382,-185.2 382,-185.2 378.1026,-184.2997 382.8103,-181.6924 374.2053,-183.3993 374.2053,-183.3993"/>
<ellipse fill="none" stroke="#000000" cx="371.0874" cy="-182.679" rx="3.2" ry="3.2"/>
</g>
<!-- BreakLines2d&#45;&gt;FlowAreas2d -->
<g id="edge1" class="edge">
<title>BreakLines2d:w&#45;&gt;FlowAreas2d:e</title>
<path fill="none" stroke="#000000" stroke-dasharray="5,2" d="M195.3184,-137.1427C160.9535,-153.8666 187.3541,-236.2 137.5,-236.2"/>
<polygon fill="#000000" stroke="#000000" points="201.6669,-135.8254 210.2314,-137.7249 205.5834,-135.0127 209.5,-134.2 209.5,-134.2 209.5,-134.2 205.5834,-135.0127 208.7686,-130.6751 201.6669,-135.8254 201.6669,-135.8254"/>
<ellipse fill="none" stroke="#000000" cx="198.5336" cy="-136.4756" rx="3.2" ry="3.2"/>
</g>
</g>
</svg>
