<?xml version="1.0" encoding="UTF-8" standalone="no"?>
<!DOCTYPE svg PUBLIC "-//W3C//DTD SVG 1.1//EN"
 "http://www.w3.org/Graphics/SVG/1.1/DTD/svg11.dtd">
<!-- Generated by graphviz version 2.40.1 (20161225.0304)
 -->
<!-- Title: compactImpliedRelationshipsDiagram Pages: 1 -->
<svg width="518pt" height="609pt"
 viewBox="0.00 0.00 518.00 608.70" xmlns="http://www.w3.org/2000/svg" xmlns:xlink="http://www.w3.org/1999/xlink">
<g id="graph0" class="graph" transform="scale(1 1) rotate(0) translate(4 604.7)">
<title>compactImpliedRelationshipsDiagram</title>
<polygon fill="#ffffff" stroke="transparent" points="-4,4 -4,-604.7 514,-604.7 514,4 -4,4"/>
<text text-anchor="middle" x="72.4936" y="-7.3" font-family="Helvetica,sans-Serif" font-size="11.00" fill="#000000">Generated by SchemaSpy</text>
<!-- FlowAreas2d -->
<g id="node1" class="node">
<title>FlowAreas2d</title>
<g id="a_node1"><a xlink:href="../../tables/FlowAreas2d.html" xlink:title="FlowAreas2d" target="_top">
<polygon fill="#ffffff" stroke="transparent" points="24,-141.2 24,-246.2 137,-246.2 137,-141.2 24,-141.2"/>
<polygon fill="#f5f5f5" stroke="transparent" points="24.5,-222.7 24.5,-245.7 137.5,-245.7 137.5,-222.7 24.5,-222.7"/>
<polygon fill="none" stroke="#000000" points="24.5,-222.7 24.5,-245.7 137.5,-245.7 137.5,-222.7 24.5,-222.7"/>
<text text-anchor="start" x="29.5" y="-231.3" font-family="Helvetica,sans-Serif" font-weight="bold" font-size="11.00" fill="#000000">FlowAreas2d</text>
<text text-anchor="start" x="103.0219" y="-230.8" font-family="Helvetica,sans-Serif" font-size="11.00" fill="#000000">[table]</text>
<polygon fill="#ffffff" stroke="transparent" points="24.5,-200.7 24.5,-222.7 137.5,-222.7 137.5,-200.7 24.5,-200.7"/>
<polygon fill="none" stroke="#000000" points="24.5,-200.7 24.5,-222.7 137.5,-222.7 137.5,-200.7 24.5,-200.7"/>
<text text-anchor="start" x="53.5" y="-207.8" font-family="Helvetica,sans-Serif" font-size="11.00" fill="#000000">geom</text>
<polygon fill="none" stroke="#000000" points="24.5,-178.7 24.5,-200.7 137.5,-200.7 137.5,-178.7 24.5,-178.7"/>
<image xlink:href="../../images/primaryKeys.png" width="11px" height="12px" preserveAspectRatio="xMinYMin meet" x="29.5" y="-195.7"/>
<text text-anchor="start" x="53.5" y="-185.8" font-family="Helvetica,sans-Serif" font-size="11.00" fill="#000000">AreaID</text>
<polygon fill="none" stroke="#000000" points="24.5,-159.7 24.5,-178.7 137.5,-178.7 137.5,-159.7 24.5,-159.7"/>
<text text-anchor="start" x="27.5" y="-165.8" font-family="Helvetica,sans-Serif" font-size="11.00" fill="#000000">...</text>
<polygon fill="#ffffff" stroke="transparent" points="24.5,-140.7 24.5,-159.7 61.5,-159.7 61.5,-140.7 24.5,-140.7"/>
<polygon fill="none" stroke="#000000" points="24.5,-140.7 24.5,-159.7 61.5,-159.7 61.5,-140.7 24.5,-140.7"/>
<text text-anchor="start" x="27.5" y="-146.8" font-family="Helvetica,sans-Serif" font-size="11.00" fill="#000000"> &#160;</text>
<polygon fill="#ffffff" stroke="transparent" points="61.5,-140.7 61.5,-159.7 112.5,-159.7 112.5,-140.7 61.5,-140.7"/>
<polygon fill="none" stroke="#000000" points="61.5,-140.7 61.5,-159.7 112.5,-159.7 112.5,-140.7 61.5,-140.7"/>
<text text-anchor="start" x="77.1105" y="-146.8" font-family="Helvetica,sans-Serif" font-size="11.00" fill="#000000">0 rows</text>
<polygon fill="#ffffff" stroke="transparent" points="112.5,-140.7 112.5,-159.7 137.5,-159.7 137.5,-140.7 112.5,-140.7"/>
<polygon fill="none" stroke="#000000" points="112.5,-140.7 112.5,-159.7 137.5,-159.7 137.5,-140.7 112.5,-140.7"/>
<text text-anchor="start" x="128.3862" y="-146.8" font-family="Helvetica,sans-Serif" font-size="11.00" fill="#000000"> &#160;</text>
</a>
</g>
</g>
<!-- BreakPoints2d -->
<g id="node2" class="node">
<title>BreakPoints2d</title>
<g id="a_node2"><a xlink:href="../../tables/BreakPoints2d.html" xlink:title="BreakPoints2d" target="_top">
<polygon fill="#ffffff" stroke="transparent" points="206,-214.2 206,-341.2 329,-341.2 329,-214.2 206,-214.2"/>
<polygon fill="#f5f5f5" stroke="transparent" points="206.5,-317.7 206.5,-340.7 329.5,-340.7 329.5,-317.7 206.5,-317.7"/>
<polygon fill="none" stroke="#000000" points="206.5,-317.7 206.5,-340.7 329.5,-340.7 329.5,-317.7 206.5,-317.7"/>
<text text-anchor="start" x="211.5" y="-326.3" font-family="Helvetica,sans-Serif" font-weight="bold" font-size="11.00" fill="#000000">BreakPoints2d</text>
<text text-anchor="start" x="295.0219" y="-325.8" font-family="Helvetica,sans-Serif" font-size="11.00" fill="#000000">[table]</text>
<polygon fill="#ffffff" stroke="transparent" points="206.5,-295.7 206.5,-317.7 329.5,-317.7 329.5,-295.7 206.5,-295.7"/>
<polygon fill="none" stroke="#000000" points="206.5,-295.7 206.5,-317.7 329.5,-317.7 329.5,-295.7 206.5,-295.7"/>
<text text-anchor="start" x="235.5" y="-302.8" font-family="Helvetica,sans-Serif" font-size="11.00" fill="#000000">geom</text>
<polygon fill="none" stroke="#000000" points="206.5,-273.7 206.5,-295.7 329.5,-295.7 329.5,-273.7 206.5,-273.7"/>
<image xlink:href="../../images/primaryKeys.png" width="11px" height="12px" preserveAspectRatio="xMinYMin meet" x="211.5" y="-290.7"/>
<text text-anchor="start" x="235.5" y="-280.8" font-family="Helvetica,sans-Serif" font-size="11.00" fill="#000000">BPID</text>
<polygon fill="none" stroke="#000000" points="206.5,-251.7 206.5,-273.7 329.5,-273.7 329.5,-251.7 206.5,-251.7"/>
<image xlink:href="../../images/foreignKeys.png" width="11px" height="12px" preserveAspectRatio="xMinYMin meet" x="211.5" y="-268.7"/>
<text text-anchor="start" x="235.5" y="-258.8" font-family="Helvetica,sans-Serif" font-size="11.00" fill="#000000">AreaID</text>
<polygon fill="none" stroke="#000000" points="206.5,-232.7 206.5,-251.7 329.5,-251.7 329.5,-232.7 206.5,-232.7"/>
<text text-anchor="start" x="209.5" y="-238.8" font-family="Helvetica,sans-Serif" font-size="11.00" fill="#000000">...</text>
<polygon fill="#ffffff" stroke="transparent" points="206.5,-213.7 206.5,-232.7 248.5,-232.7 248.5,-213.7 206.5,-213.7"/>
<polygon fill="none" stroke="#000000" points="206.5,-213.7 206.5,-232.7 248.5,-232.7 248.5,-213.7 206.5,-213.7"/>
<text text-anchor="start" x="209.5" y="-219.8" font-family="Helvetica,sans-Serif" font-size="11.00" fill="#000000"> &#160;</text>
<polygon fill="#ffffff" stroke="transparent" points="248.5,-213.7 248.5,-232.7 301.5,-232.7 301.5,-213.7 248.5,-213.7"/>
<polygon fill="none" stroke="#000000" points="248.5,-213.7 248.5,-232.7 301.5,-232.7 301.5,-213.7 248.5,-213.7"/>
<text text-anchor="start" x="266.1105" y="-219.8" font-family="Helvetica,sans-Serif" font-size="11.00" fill="#000000">0 rows</text>
<polygon fill="#ffffff" stroke="transparent" points="301.5,-213.7 301.5,-232.7 329.5,-232.7 329.5,-213.7 301.5,-213.7"/>
<polygon fill="none" stroke="#000000" points="301.5,-213.7 301.5,-232.7 329.5,-232.7 329.5,-213.7 301.5,-213.7"/>
<text text-anchor="start" x="320.3862" y="-219.8" font-family="Helvetica,sans-Serif" font-size="11.00" fill="#000000"> &#160;</text>
</a>
</g>
</g>
<!-- BreakPoints2d&#45;&gt;FlowAreas2d -->
<g id="edge2" class="edge">
<title>BreakPoints2d:w&#45;&gt;FlowAreas2d:e</title>
<path fill="none" stroke="#000000" stroke-dasharray="5,2" d="M192.194,-259.3736C166.0075,-245.0927 176.3891,-189.7 137.5,-189.7"/>
<polygon fill="#000000" stroke="#000000" points="198.7079,-260.8882 205.6847,-266.2065 202.6039,-261.7941 206.5,-262.7 206.5,-262.7 206.5,-262.7 202.6039,-261.7941 207.3153,-259.1935 198.7079,-260.8882 198.7079,-260.8882"/>
<ellipse fill="none" stroke="#000000" cx="195.591" cy="-260.1634" rx="3.2" ry="3.2"/>
</g>
<!-- StreamCenterlines -->
<g id="node3" class="node">
<title>StreamCenterlines</title>
<g id="a_node3"><a xlink:href="../../tables/StreamCenterlines.html" xlink:title="StreamCenterlines" target="_top">
<polygon fill="#ffffff" stroke="transparent" points="8,-362.2 8,-467.2 153,-467.2 153,-362.2 8,-362.2"/>
<polygon fill="#f5f5f5" stroke="transparent" points="8.5,-443.7 8.5,-466.7 153.5,-466.7 153.5,-443.7 8.5,-443.7"/>
<polygon fill="none" stroke="#000000" points="8.5,-443.7 8.5,-466.7 153.5,-466.7 153.5,-443.7 8.5,-443.7"/>
<text text-anchor="start" x="13.5" y="-452.3" font-family="Helvetica,sans-Serif" font-weight="bold" font-size="11.00" fill="#000000">StreamCenterlines</text>
<text text-anchor="start" x="119.0219" y="-451.8" font-family="Helvetica,sans-Serif" font-size="11.00" fill="#000000">[table]</text>
<polygon fill="#ffffff" stroke="transparent" points="8.5,-421.7 8.5,-443.7 153.5,-443.7 153.5,-421.7 8.5,-421.7"/>
<polygon fill="none" stroke="#000000" points="8.5,-421.7 8.5,-443.7 153.5,-443.7 153.5,-421.7 8.5,-421.7"/>
<text text-anchor="start" x="37.5" y="-428.8" font-family="Helvetica,sans-Serif" font-size="11.00" fill="#000000">geom</text>
<polygon fill="none" stroke="#000000" points="8.5,-399.7 8.5,-421.7 153.5,-421.7 153.5,-399.7 8.5,-399.7"/>
<image xlink:href="../../images/primaryKeys.png" width="11px" height="12px" preserveAspectRatio="xMinYMin meet" x="13.5" y="-416.7"/>
<text text-anchor="start" x="37.5" y="-406.8" font-family="Helvetica,sans-Serif" font-size="11.00" fill="#000000">ReachID</text>
<polygon fill="none" stroke="#000000" points="8.5,-380.7 8.5,-399.7 153.5,-399.7 153.5,-380.7 8.5,-380.7"/>
<text text-anchor="start" x="11.5" y="-386.8" font-family="Helvetica,sans-Serif" font-size="11.00" fill="#000000">...</text>
<polygon fill="#ffffff" stroke="transparent" points="8.5,-361.7 8.5,-380.7 61.5,-380.7 61.5,-361.7 8.5,-361.7"/>
<polygon fill="none" stroke="#000000" points="8.5,-361.7 8.5,-380.7 61.5,-380.7 61.5,-361.7 8.5,-361.7"/>
<text text-anchor="start" x="11.5" y="-367.8" font-family="Helvetica,sans-Serif" font-size="11.00" fill="#000000"> &#160;</text>
<polygon fill="#ffffff" stroke="transparent" points="61.5,-361.7 61.5,-380.7 120.5,-380.7 120.5,-361.7 61.5,-361.7"/>
<polygon fill="none" stroke="#000000" points="61.5,-361.7 61.5,-380.7 120.5,-380.7 120.5,-361.7 61.5,-361.7"/>
<text text-anchor="start" x="85.1105" y="-367.8" font-family="Helvetica,sans-Serif" font-size="11.00" fill="#000000">0 rows</text>
<polygon fill="#ffffff" stroke="transparent" points="120.5,-361.7 120.5,-380.7 153.5,-380.7 153.5,-361.7 120.5,-361.7"/>
<polygon fill="none" stroke="#000000" points="120.5,-361.7 120.5,-380.7 153.5,-380.7 153.5,-361.7 120.5,-361.7"/>
<text text-anchor="start" x="144.3862" y="-367.8" font-family="Helvetica,sans-Serif" font-size="11.00" fill="#000000"> &#160;</text>
</a>
</g>
</g>
<!-- LeveePoints -->
<g id="node4" class="node">
<title>LeveePoints</title>
<g id="a_node4"><a xlink:href="../../tables/LeveePoints.html" xlink:title="LeveePoints" target="_top">
<polygon fill="#ffffff" stroke="transparent" points="387.5,-427.2 387.5,-554.2 496.5,-554.2 496.5,-427.2 387.5,-427.2"/>
<polygon fill="#f5f5f5" stroke="transparent" points="388,-530.7 388,-553.7 497,-553.7 497,-530.7 388,-530.7"/>
<polygon fill="none" stroke="#000000" points="388,-530.7 388,-553.7 497,-553.7 497,-530.7 388,-530.7"/>
<text text-anchor="start" x="393" y="-539.3" font-family="Helvetica,sans-Serif" font-weight="bold" font-size="11.00" fill="#000000">LeveePoints</text>
<text text-anchor="start" x="462.5219" y="-538.8" font-family="Helvetica,sans-Serif" font-size="11.00" fill="#000000">[table]</text>
<polygon fill="none" stroke="#000000" points="388,-508.7 388,-530.7 497,-530.7 497,-508.7 388,-508.7"/>
<image xlink:href="../../images/primaryKeys.png" width="11px" height="12px" preserveAspectRatio="xMinYMin meet" x="393" y="-525.7"/>
<text text-anchor="start" x="417" y="-515.8" font-family="Helvetica,sans-Serif" font-size="11.00" fill="#000000">LeveePID</text>
<polygon fill="none" stroke="#000000" points="388,-486.7 388,-508.7 497,-508.7 497,-486.7 388,-486.7"/>
<image xlink:href="../../images/foreignKeys.png" width="11px" height="12px" preserveAspectRatio="xMinYMin meet" x="393" y="-503.7"/>
<text text-anchor="start" x="417" y="-493.8" font-family="Helvetica,sans-Serif" font-size="11.00" fill="#000000">LeveeID</text>
<polygon fill="none" stroke="#000000" points="388,-464.7 388,-486.7 497,-486.7 497,-464.7 388,-464.7"/>
<image xlink:href="../../images/foreignKeys.png" width="11px" height="12px" preserveAspectRatio="xMinYMin meet" x="393" y="-481.7"/>
<text text-anchor="start" x="417" y="-471.8" font-family="Helvetica,sans-Serif" font-size="11.00" fill="#000000">XsecID</text>
<polygon fill="none" stroke="#000000" points="388,-445.7 388,-464.7 497,-464.7 497,-445.7 388,-445.7"/>
<text text-anchor="start" x="391" y="-451.8" font-family="Helvetica,sans-Serif" font-size="11.00" fill="#000000">...</text>
<polygon fill="#ffffff" stroke="transparent" points="388,-426.7 388,-445.7 423,-445.7 423,-426.7 388,-426.7"/>
<polygon fill="none" stroke="#000000" points="388,-426.7 388,-445.7 423,-445.7 423,-426.7 388,-426.7"/>
<text text-anchor="start" x="391" y="-432.8" font-family="Helvetica,sans-Serif" font-size="11.00" fill="#000000"> &#160;</text>
<polygon fill="#ffffff" stroke="transparent" points="423,-426.7 423,-445.7 473,-445.7 473,-426.7 423,-426.7"/>
<polygon fill="none" stroke="#000000" points="423,-426.7 423,-445.7 473,-445.7 473,-426.7 423,-426.7"/>
<text text-anchor="start" x="437.6105" y="-432.8" font-family="Helvetica,sans-Serif" font-size="11.00" fill="#000000">0 rows</text>
<polygon fill="#ffffff" stroke="transparent" points="473,-426.7 473,-445.7 497,-445.7 497,-426.7 473,-426.7"/>
<polygon fill="none" stroke="#000000" points="473,-426.7 473,-445.7 497,-445.7 497,-426.7 473,-426.7"/>
<text text-anchor="start" x="487.8862" y="-432.8" font-family="Helvetica,sans-Serif" font-size="11.00" fill="#000000"> &#160;</text>
</a>
</g>
</g>
<!-- XSCutLines -->
<g id="node5" class="node">
<title>XSCutLines</title>
<g id="a_node5"><a xlink:href="../../tables/XSCutLines.html" xlink:title="XSCutLines" target="_top">
<polygon fill="#ffffff" stroke="transparent" points="214.5,-362.2 214.5,-489.2 320.5,-489.2 320.5,-362.2 214.5,-362.2"/>
<polygon fill="#f5f5f5" stroke="transparent" points="214.5,-465.7 214.5,-488.7 320.5,-488.7 320.5,-465.7 214.5,-465.7"/>
<polygon fill="none" stroke="#000000" points="214.5,-465.7 214.5,-488.7 320.5,-488.7 320.5,-465.7 214.5,-465.7"/>
<text text-anchor="start" x="219.5" y="-474.3" font-family="Helvetica,sans-Serif" font-weight="bold" font-size="11.00" fill="#000000">XSCutLines</text>
<text text-anchor="start" x="286.0219" y="-473.8" font-family="Helvetica,sans-Serif" font-size="11.00" fill="#000000">[table]</text>
<polygon fill="#ffffff" stroke="transparent" points="214.5,-443.7 214.5,-465.7 320.5,-465.7 320.5,-443.7 214.5,-443.7"/>
<polygon fill="none" stroke="#000000" points="214.5,-443.7 214.5,-465.7 320.5,-465.7 320.5,-443.7 214.5,-443.7"/>
<text text-anchor="start" x="243.5" y="-450.8" font-family="Helvetica,sans-Serif" font-size="11.00" fill="#000000">geom</text>
<polygon fill="none" stroke="#000000" points="214.5,-421.7 214.5,-443.7 320.5,-443.7 320.5,-421.7 214.5,-421.7"/>
<image xlink:href="../../images/primaryKeys.png" width="11px" height="12px" preserveAspectRatio="xMinYMin meet" x="219.5" y="-438.7"/>
<text text-anchor="start" x="243.5" y="-428.8" font-family="Helvetica,sans-Serif" font-size="11.00" fill="#000000">XsecID</text>
<polygon fill="none" stroke="#000000" points="214.5,-399.7 214.5,-421.7 320.5,-421.7 320.5,-399.7 214.5,-399.7"/>
<image xlink:href="../../images/foreignKeys.png" width="11px" height="12px" preserveAspectRatio="xMinYMin meet" x="219.5" y="-416.7"/>
<text text-anchor="start" x="243.5" y="-406.8" font-family="Helvetica,sans-Serif" font-size="11.00" fill="#000000">ReachID</text>
<polygon fill="none" stroke="#000000" points="214.5,-380.7 214.5,-399.7 320.5,-399.7 320.5,-380.7 214.5,-380.7"/>
<text text-anchor="start" x="217.5" y="-386.8" font-family="Helvetica,sans-Serif" font-size="11.00" fill="#000000">...</text>
<polygon fill="#ffffff" stroke="transparent" points="214.5,-361.7 214.5,-380.7 248.5,-380.7 248.5,-361.7 214.5,-361.7"/>
<polygon fill="none" stroke="#000000" points="214.5,-361.7 214.5,-380.7 248.5,-380.7 248.5,-361.7 214.5,-361.7"/>
<text text-anchor="start" x="217.5" y="-367.8" font-family="Helvetica,sans-Serif" font-size="11.00" fill="#000000"> &#160;</text>
<polygon fill="#ffffff" stroke="transparent" points="248.5,-361.7 248.5,-380.7 297.5,-380.7 297.5,-361.7 248.5,-361.7"/>
<polygon fill="none" stroke="#000000" points="248.5,-361.7 248.5,-380.7 297.5,-380.7 297.5,-361.7 248.5,-361.7"/>
<text text-anchor="start" x="262.1105" y="-367.8" font-family="Helvetica,sans-Serif" font-size="11.00" fill="#000000">0 rows</text>
<polygon fill="#ffffff" stroke="transparent" points="297.5,-361.7 297.5,-380.7 320.5,-380.7 320.5,-361.7 297.5,-361.7"/>
<polygon fill="none" stroke="#000000" points="297.5,-361.7 297.5,-380.7 320.5,-380.7 320.5,-361.7 297.5,-361.7"/>
<text text-anchor="start" x="311.3862" y="-367.8" font-family="Helvetica,sans-Serif" font-size="11.00" fill="#000000"> &#160;</text>
</a>
</g>
</g>
<!-- LeveePoints&#45;&gt;XSCutLines -->
<g id="edge4" class="edge">
<title>LeveePoints:w&#45;&gt;XSCutLines:e</title>
<path fill="none" stroke="#000000" stroke-dasharray="5,2" d="M373.6048,-472.7444C352.5901,-463.0295 350.3734,-432.7 320.5,-432.7"/>
<polygon fill="#000000" stroke="#000000" points="380.1635,-474.091 387.2759,-479.2264 384.0817,-474.8955 388,-475.7 388,-475.7 388,-475.7 384.0817,-474.8955 388.7241,-472.1736 380.1635,-474.091 380.1635,-474.091"/>
<ellipse fill="none" stroke="#000000" cx="377.0289" cy="-473.4474" rx="3.2" ry="3.2"/>
</g>
<!-- LeveeAlignment -->
<g id="node8" class="node">
<title>LeveeAlignment</title>
<g id="a_node8"><a xlink:href="../../tables/LeveeAlignment.html" xlink:title="LeveeAlignment" target="_top">
<polygon fill="#ffffff" stroke="transparent" points="202,-510.7 202,-596.7 333,-596.7 333,-510.7 202,-510.7"/>
<polygon fill="#f5f5f5" stroke="transparent" points="202.5,-573.7 202.5,-596.7 333.5,-596.7 333.5,-573.7 202.5,-573.7"/>
<polygon fill="none" stroke="#000000" points="202.5,-573.7 202.5,-596.7 333.5,-596.7 333.5,-573.7 202.5,-573.7"/>
<text text-anchor="start" x="207.5" y="-582.3" font-family="Helvetica,sans-Serif" font-weight="bold" font-size="11.00" fill="#000000">LeveeAlignment</text>
<text text-anchor="start" x="299.0219" y="-581.8" font-family="Helvetica,sans-Serif" font-size="11.00" fill="#000000">[table]</text>
<polygon fill="#ffffff" stroke="transparent" points="202.5,-551.7 202.5,-573.7 333.5,-573.7 333.5,-551.7 202.5,-551.7"/>
<polygon fill="none" stroke="#000000" points="202.5,-551.7 202.5,-573.7 333.5,-573.7 333.5,-551.7 202.5,-551.7"/>
<text text-anchor="start" x="231.5" y="-558.8" font-family="Helvetica,sans-Serif" font-size="11.00" fill="#000000">geom</text>
<polygon fill="none" stroke="#000000" points="202.5,-529.7 202.5,-551.7 333.5,-551.7 333.5,-529.7 202.5,-529.7"/>
<image xlink:href="../../images/primaryKeys.png" width="11px" height="12px" preserveAspectRatio="xMinYMin meet" x="207.5" y="-546.7"/>
<text text-anchor="start" x="231.5" y="-536.8" font-family="Helvetica,sans-Serif" font-size="11.00" fill="#000000">LeveeID</text>
<polygon fill="#ffffff" stroke="transparent" points="202.5,-510.7 202.5,-529.7 248.5,-529.7 248.5,-510.7 202.5,-510.7"/>
<polygon fill="none" stroke="#000000" points="202.5,-510.7 202.5,-529.7 248.5,-529.7 248.5,-510.7 202.5,-510.7"/>
<text text-anchor="start" x="205.5" y="-516.8" font-family="Helvetica,sans-Serif" font-size="11.00" fill="#000000"> &#160;</text>
<polygon fill="#ffffff" stroke="transparent" points="248.5,-510.7 248.5,-529.7 303.5,-529.7 303.5,-510.7 248.5,-510.7"/>
<polygon fill="none" stroke="#000000" points="248.5,-510.7 248.5,-529.7 303.5,-529.7 303.5,-510.7 248.5,-510.7"/>
<text text-anchor="start" x="268.1105" y="-516.8" font-family="Helvetica,sans-Serif" font-size="11.00" fill="#000000">0 rows</text>
<polygon fill="#ffffff" stroke="transparent" points="303.5,-510.7 303.5,-529.7 333.5,-529.7 333.5,-510.7 303.5,-510.7"/>
<polygon fill="none" stroke="#000000" points="303.5,-510.7 303.5,-529.7 333.5,-529.7 333.5,-510.7 303.5,-510.7"/>
<text text-anchor="start" x="324.3862" y="-516.8" font-family="Helvetica,sans-Serif" font-size="11.00" fill="#000000"> &#160;</text>
</a>
</g>
</g>
<!-- LeveePoints&#45;&gt;LeveeAlignment -->
<g id="edge3" class="edge">
<title>LeveePoints:w&#45;&gt;LeveeAlignment:e</title>
<path fill="none" stroke="#000000" stroke-dasharray="5,2" d="M374.1573,-501.6683C358.511,-512.3133 358.5686,-540.7 333.5,-540.7"/>
<polygon fill="#000000" stroke="#000000" points="380.3097,-499.9046 388.9921,-501.1606 384.1549,-498.8023 388,-497.7 388,-497.7 388,-497.7 384.1549,-498.8023 387.0079,-494.2394 380.3097,-499.9046 380.3097,-499.9046"/>
<ellipse fill="none" stroke="#000000" cx="377.2336" cy="-500.7864" rx="3.2" ry="3.2"/>
</g>
<!-- XSCutLines&#45;&gt;StreamCenterlines -->
<g id="edge7" class="edge">
<title>XSCutLines:w&#45;&gt;StreamCenterlines:e</title>
<path fill="none" stroke="#000000" stroke-dasharray="5,2" d="M199.6762,-410.7C183.6248,-410.7 174.8924,-410.7 153.5,-410.7"/>
<polygon fill="#000000" stroke="#000000" points="206.5,-410.7001 214.5,-414.3 210.5,-410.7 214.5,-410.7 214.5,-410.7 214.5,-410.7 210.5,-410.7 214.5,-407.1 206.5,-410.7001 206.5,-410.7001"/>
<ellipse fill="none" stroke="#000000" cx="203.3" cy="-410.7001" rx="3.2" ry="3.2"/>
</g>
<!-- MeshPoints2d -->
<g id="node6" class="node">
<title>MeshPoints2d</title>
<g id="a_node6"><a xlink:href="../../tables/MeshPoints2d.html" xlink:title="MeshPoints2d" target="_top">
<polygon fill="#ffffff" stroke="transparent" points="382,-90.2 382,-239.2 502,-239.2 502,-90.2 382,-90.2"/>
<polygon fill="#f5f5f5" stroke="transparent" points="382,-215.7 382,-238.7 502,-238.7 502,-215.7 382,-215.7"/>
<polygon fill="none" stroke="#000000" points="382,-215.7 382,-238.7 502,-238.7 502,-215.7 382,-215.7"/>
<text text-anchor="start" x="387" y="-224.3" font-family="Helvetica,sans-Serif" font-weight="bold" font-size="11.00" fill="#000000">MeshPoints2d</text>
<text text-anchor="start" x="467.5219" y="-223.8" font-family="Helvetica,sans-Serif" font-size="11.00" fill="#000000">[table]</text>
<polygon fill="#ffffff" stroke="transparent" points="382,-193.7 382,-215.7 502,-215.7 502,-193.7 382,-193.7"/>
<polygon fill="none" stroke="#000000" points="382,-193.7 382,-215.7 502,-215.7 502,-193.7 382,-193.7"/>
<text text-anchor="start" x="411" y="-200.8" font-family="Helvetica,sans-Serif" font-size="11.00" fill="#000000">geom</text>
<polygon fill="none" stroke="#000000" points="382,-171.7 382,-193.7 502,-193.7 502,-171.7 382,-171.7"/>
<image xlink:href="../../images/primaryKeys.png" width="11px" height="12px" preserveAspectRatio="xMinYMin meet" x="387" y="-188.7"/>
<text text-anchor="start" x="411" y="-178.8" font-family="Helvetica,sans-Serif" font-size="11.00" fill="#000000">MPID</text>
<polygon fill="none" stroke="#000000" points="382,-149.7 382,-171.7 502,-171.7 502,-149.7 382,-149.7"/>
<image xlink:href="../../images/foreignKeys.png" width="11px" height="12px" preserveAspectRatio="xMinYMin meet" x="387" y="-166.7"/>
<text text-anchor="start" x="411" y="-156.8" font-family="Helvetica,sans-Serif" font-size="11.00" fill="#000000">AreaID</text>
<polygon fill="none" stroke="#000000" points="382,-127.7 382,-149.7 502,-149.7 502,-127.7 382,-127.7"/>
<image xlink:href="../../images/foreignKeys.png" width="11px" height="12px" preserveAspectRatio="xMinYMin meet" x="387" y="-144.7"/>
<text text-anchor="start" x="411" y="-134.8" font-family="Helvetica,sans-Serif" font-size="11.00" fill="#000000">BLID</text>
<polygon fill="none" stroke="#000000" points="382,-108.7 382,-127.7 502,-127.7 502,-108.7 382,-108.7"/>
<text text-anchor="start" x="385" y="-114.8" font-family="Helvetica,sans-Serif" font-size="11.00" fill="#000000">...</text>
<polygon fill="#ffffff" stroke="transparent" points="382,-89.7 382,-108.7 423,-108.7 423,-89.7 382,-89.7"/>
<polygon fill="none" stroke="#000000" points="382,-89.7 382,-108.7 423,-108.7 423,-89.7 382,-89.7"/>
<text text-anchor="start" x="385" y="-95.8" font-family="Helvetica,sans-Serif" font-size="11.00" fill="#000000"> &#160;</text>
<polygon fill="#ffffff" stroke="transparent" points="423,-89.7 423,-108.7 475,-108.7 475,-89.7 423,-89.7"/>
<polygon fill="none" stroke="#000000" points="423,-89.7 423,-108.7 475,-108.7 475,-89.7 423,-89.7"/>
<text text-anchor="start" x="439.6105" y="-95.8" font-family="Helvetica,sans-Serif" font-size="11.00" fill="#000000">0 rows</text>
<polygon fill="#ffffff" stroke="transparent" points="475,-89.7 475,-108.7 502,-108.7 502,-89.7 475,-89.7"/>
<polygon fill="none" stroke="#000000" points="475,-89.7 475,-108.7 502,-108.7 502,-89.7 475,-89.7"/>
<text text-anchor="start" x="492.8862" y="-95.8" font-family="Helvetica,sans-Serif" font-size="11.00" fill="#000000"> &#160;</text>
</a>
</g>
</g>
<!-- MeshPoints2d&#45;&gt;FlowAreas2d -->
<g id="edge5" class="edge">
<title>MeshPoints2d:w&#45;&gt;FlowAreas2d:e</title>
<path fill="none" stroke="#000000" stroke-dasharray="5,2" d="M367.7153,-163.3654C359.3625,-166.8745 354.0476,-172.923 341,-175.7 252.3279,-194.5727 228.1582,-189.7 137.5,-189.7"/>
<polygon fill="#000000" stroke="#000000" points="374.1357,-162.1675 382.6604,-164.2389 378.0679,-161.4337 382,-160.7 382,-160.7 382,-160.7 378.0679,-161.4337 381.3396,-157.1611 374.1357,-162.1675 374.1357,-162.1675"/>
<ellipse fill="none" stroke="#000000" cx="370.99" cy="-162.7544" rx="3.2" ry="3.2"/>
</g>
<!-- BreakLines2d -->
<g id="node7" class="node">
<title>BreakLines2d</title>
<g id="a_node7"><a xlink:href="../../tables/BreakLines2d.html" xlink:title="BreakLines2d" target="_top">
<polygon fill="#ffffff" stroke="transparent" points="209,-38.2 209,-165.2 326,-165.2 326,-38.2 209,-38.2"/>
<polygon fill="#f5f5f5" stroke="transparent" points="209.5,-141.7 209.5,-164.7 326.5,-164.7 326.5,-141.7 209.5,-141.7"/>
<polygon fill="none" stroke="#000000" points="209.5,-141.7 209.5,-164.7 326.5,-164.7 326.5,-141.7 209.5,-141.7"/>
<text text-anchor="start" x="214.5" y="-150.3" font-family="Helvetica,sans-Serif" font-weight="bold" font-size="11.00" fill="#000000">BreakLines2d</text>
<text text-anchor="start" x="292.0219" y="-149.8" font-family="Helvetica,sans-Serif" font-size="11.00" fill="#000000">[table]</text>
<polygon fill="#ffffff" stroke="transparent" points="209.5,-119.7 209.5,-141.7 326.5,-141.7 326.5,-119.7 209.5,-119.7"/>
<polygon fill="none" stroke="#000000" points="209.5,-119.7 209.5,-141.7 326.5,-141.7 326.5,-119.7 209.5,-119.7"/>
<text text-anchor="start" x="234.5" y="-126.8" font-family="Helvetica,sans-Serif" font-size="11.00" fill="#000000">geom</text>
<polygon fill="none" stroke="#000000" points="209.5,-97.7 209.5,-119.7 326.5,-119.7 326.5,-97.7 209.5,-97.7"/>
<image xlink:href="../../images/primaryKeys.png" width="11px" height="12px" preserveAspectRatio="xMinYMin meet" x="214.5" y="-114.7"/>
<text text-anchor="start" x="234.5" y="-104.8" font-family="Helvetica,sans-Serif" font-size="11.00" fill="#000000">BLID</text>
<polygon fill="none" stroke="#000000" points="209.5,-75.7 209.5,-97.7 326.5,-97.7 326.5,-75.7 209.5,-75.7"/>
<image xlink:href="../../images/foreignKeys.png" width="11px" height="12px" preserveAspectRatio="xMinYMin meet" x="214.5" y="-92.7"/>
<text text-anchor="start" x="234.5" y="-82.8" font-family="Helvetica,sans-Serif" font-size="11.00" fill="#000000">AreaID</text>
<polygon fill="none" stroke="#000000" points="209.5,-56.7 209.5,-75.7 326.5,-75.7 326.5,-56.7 209.5,-56.7"/>
<text text-anchor="start" x="212.5" y="-62.8" font-family="Helvetica,sans-Serif" font-size="11.00" fill="#000000">...</text>
<polygon fill="#ffffff" stroke="transparent" points="209.5,-37.7 209.5,-56.7 248.5,-56.7 248.5,-37.7 209.5,-37.7"/>
<polygon fill="none" stroke="#000000" points="209.5,-37.7 209.5,-56.7 248.5,-56.7 248.5,-37.7 209.5,-37.7"/>
<text text-anchor="start" x="212.5" y="-43.8" font-family="Helvetica,sans-Serif" font-size="11.00" fill="#000000"> &#160;</text>
<polygon fill="#ffffff" stroke="transparent" points="248.5,-37.7 248.5,-56.7 300.5,-56.7 300.5,-37.7 248.5,-37.7"/>
<polygon fill="none" stroke="#000000" points="248.5,-37.7 248.5,-56.7 300.5,-56.7 300.5,-37.7 248.5,-37.7"/>
<text text-anchor="start" x="265.1105" y="-43.8" font-family="Helvetica,sans-Serif" font-size="11.00" fill="#000000">0 rows</text>
<polygon fill="#ffffff" stroke="transparent" points="300.5,-37.7 300.5,-56.7 326.5,-56.7 326.5,-37.7 300.5,-37.7"/>
<polygon fill="none" stroke="#000000" points="300.5,-37.7 300.5,-56.7 326.5,-56.7 326.5,-37.7 300.5,-37.7"/>
<text text-anchor="start" x="317.3862" y="-43.8" font-family="Helvetica,sans-Serif" font-size="11.00" fill="#000000"> &#160;</text>
</a>
</g>
</g>
<!-- MeshPoints2d&#45;&gt;BreakLines2d -->
<g id="edge6" class="edge">
<title>MeshPoints2d:w&#45;&gt;BreakLines2d:e</title>
<path fill="none" stroke="#000000" stroke-dasharray="5,2" d="M367.5391,-135.2586C352.9314,-127.3786 348.625,-108.7 326.5,-108.7"/>
<polygon fill="#000000" stroke="#000000" points="374.2173,-136.8479 381.1665,-142.2022 378.1087,-137.7739 382,-138.7 382,-138.7 382,-138.7 378.1087,-137.7739 382.8335,-135.1978 374.2173,-136.8479 374.2173,-136.8479"/>
<ellipse fill="none" stroke="#000000" cx="371.1043" cy="-136.107" rx="3.2" ry="3.2"/>
</g>
<!-- BreakLines2d&#45;&gt;FlowAreas2d -->
<g id="edge1" class="edge">
<title>BreakLines2d:w&#45;&gt;FlowAreas2d:e</title>
<path fill="none" stroke="#000000" stroke-dasharray="5,2" d="M195.239,-89.6715C160.7263,-106.5594 187.6808,-189.7 137.5,-189.7"/>
<polygon fill="#000000" stroke="#000000" points="201.6682,-88.3319 210.2344,-90.2243 205.5841,-87.516 209.5,-86.7 209.5,-86.7 209.5,-86.7 205.5841,-87.516 208.7656,-83.1757 201.6682,-88.3319 201.6682,-88.3319"/>
<ellipse fill="none" stroke="#000000" cx="198.5355" cy="-88.9847" rx="3.2" ry="3.2"/>
</g>
</g>
</svg>
